<svg width="1382" height="719" viewBox="0 0 1382 719" fill="none" xmlns="http://www.w3.org/2000/svg">
<path d="M960.833 584.902L960.914 584.937L961 584.957C973.633 587.911 985.192 588.651 997.82 587.545C1017.55 586.43 1035.6 578.654 1053.04 569.436C1058.54 566.529 1063.97 563.485 1069.37 560.456C1081.16 553.842 1092.83 547.3 1104.82 542.416C1111.53 539.706 1118.35 538.163 1125.27 536.839C1126.94 536.517 1128.63 536.208 1130.33 535.898C1135.59 534.935 1140.91 533.961 1146.22 532.568C1158.47 529.618 1169.99 525.198 1181.47 520.058C1192.61 515.28 1202.66 510.136 1213.41 504.268L1213.43 504.256L1213.46 504.242C1216.96 502.09 1230.49 495.533 1241.15 492.259C1248.79 490.024 1255.64 488.29 1262.22 486.624C1274.92 483.408 1286.61 480.451 1301.03 474.645L1301.03 474.643C1322.62 465.807 1338.89 456.198 1356.56 434.797C1357.82 433.323 1359.56 431.501 1361.56 429.419C1362.5 428.431 1363.5 427.384 1364.54 426.288C1367.73 422.904 1371.17 419.09 1374.01 415.239C1376.83 411.407 1379.12 407.441 1379.88 403.757C1380.27 401.9 1380.28 400.075 1379.74 398.364C1379.2 396.644 1378.13 395.108 1376.46 393.806C1373.42 391.372 1369.16 389.841 1364.45 389.02C1359.72 388.195 1354.46 388.069 1349.31 388.51C1344.16 388.951 1339.1 389.961 1334.79 391.428C1330.5 392.886 1326.85 394.83 1324.63 397.203C1318.44 403.811 1313.09 408.106 1306.79 413.159C1304.77 414.781 1302.65 416.482 1300.38 418.362C1295.14 422.646 1290.17 424.701 1284.93 426.233C1282.96 426.81 1280.96 427.309 1278.88 427.828C1278.18 428.003 1277.47 428.181 1276.75 428.365C1273.9 429.088 1270.92 429.898 1267.74 431.012C1263.26 432.585 1258.48 434.38 1253.63 436.205C1244.82 439.517 1235.75 442.926 1227.69 445.282L1227.68 445.286C1216.84 448.612 1206.67 449.393 1195.72 450.232C1192.32 450.493 1188.85 450.759 1185.27 451.108L1185.26 451.109C1179 451.783 1172.46 454.27 1166.31 456.612C1165.62 456.876 1164.93 457.138 1164.24 457.396C1160.93 458.644 1156.72 459.546 1152.41 460.371C1151.54 460.54 1150.66 460.705 1149.78 460.869C1146.4 461.503 1143.09 462.123 1140.35 462.861L1140.34 462.863L1140.33 462.865C1132.57 465.083 1125.98 467.853 1119.52 470.792C1117.83 471.56 1116.15 472.338 1114.47 473.12C1109.69 475.335 1104.84 477.584 1099.44 479.739C1096.29 480.811 1092.07 481.712 1087.91 482.584C1087.7 482.626 1087.5 482.668 1087.3 482.71C1083.39 483.527 1079.56 484.327 1076.93 485.218C1067.94 487.798 1058.1 491.881 1051.12 498.635C1046.38 503.045 1041.96 507.626 1037.64 512.106C1034.78 515.062 1031.97 517.975 1029.14 520.765C1021.96 527.836 1014.52 534.263 1005.51 539.143C998.047 543.142 991.693 545.664 985.099 547.059C978.505 548.453 971.622 548.73 963.088 548.184C961.531 548.068 959.867 547.916 958.139 547.758C951.837 547.184 944.69 546.533 938.866 547.227C935.146 547.671 931.775 548.678 929.47 550.757C927.1 552.894 926.011 556.018 926.579 560.297C926.973 563.602 928.706 566.494 931.156 569.019C933.605 571.543 936.819 573.75 940.285 575.697C945.473 578.611 951.37 581.015 956.303 583.026C957.939 583.693 959.47 584.317 960.833 584.902Z" stroke="#F93C00" stroke-width="2"/>
<path d="M151.699 145.052C152.333 145.052 152.992 145.036 153.681 145.02C157.721 144.924 162.78 144.805 169.924 147.578L169.934 147.582L169.945 147.586C173.436 148.851 176.772 150.665 180.169 152.608C180.719 152.923 181.271 153.241 181.826 153.561C184.674 155.203 187.587 156.883 190.624 158.297C197.707 161.597 204.062 165.62 209.704 170.73L209.705 170.731C220.814 180.747 234.193 191.251 248.371 195.767L248.377 195.768C258.103 198.808 267.078 197.941 275.829 195.547C280.197 194.352 284.519 192.774 288.849 191.11C290.011 190.664 291.172 190.211 292.334 189.759C295.519 188.518 298.718 187.273 301.982 186.124L301.989 186.121C310.115 183.195 318.219 181.739 327.023 182.104C331.174 182.283 335.267 183.448 339.429 184.746C339.898 184.892 340.369 185.04 340.841 185.188C344.504 186.341 348.234 187.515 351.968 188.021C352.152 188.053 352.371 188.09 352.62 188.131C353.867 188.339 355.877 188.674 358.076 189.167C360.744 189.765 363.592 190.577 365.62 191.626L365.631 191.632C371.372 194.513 375.388 198.388 379.152 202.697C380.291 204 381.415 205.355 382.561 206.737C385.173 209.885 387.898 213.169 391.161 216.286L391.163 216.289C393.418 218.428 396.876 220.56 400.46 221.487C404.047 222.415 407.972 222.177 410.826 219.222C414.512 215.407 415.069 210.877 414.266 206.624C413.472 202.418 411.34 198.406 409.538 195.421C408.385 193.373 407.227 191.265 406.053 189.127C399.638 177.443 392.724 164.851 383.215 156.278L383.209 156.272L383.202 156.267C379.691 153.206 373.845 149.81 367.65 147.735C361.524 145.684 354.811 144.843 349.637 147.182C346.007 148.129 342.658 149.537 339.333 150.96L338.85 151.167C335.644 152.54 332.443 153.91 328.928 154.95L328.913 154.954L328.897 154.959C325.223 156.177 321.679 156.884 318.088 157.601C317.376 157.743 316.663 157.885 315.946 158.032C311.633 158.916 307.248 159.953 302.668 162.039L302.659 162.043L302.651 162.046C298.103 164.219 293.629 165.404 289.059 166.322C287.277 166.68 285.451 167.003 283.596 167.33C280.762 167.83 277.861 168.342 274.945 169.013C258.126 172.638 244.144 167.949 231.834 155.934L231.829 155.929C221.731 146.223 208.396 136.894 195.402 130.916L195.389 130.911C191.577 129.219 188.668 128.279 185.778 127.437C185.095 127.238 184.416 127.046 183.728 126.851C181.504 126.22 179.186 125.563 176.339 124.58C175.307 124.225 170.048 122.046 168.625 121.317C164.132 118.616 158.927 118.231 154.006 117.867L153.921 117.861C150.918 117.478 147.232 117.867 144.385 118.235L144.376 118.236L144.367 118.238C143.011 118.438 141.676 118.932 140.457 119.382L140.409 119.4C139.135 119.871 137.982 120.293 136.851 120.461L136.843 120.462L136.836 120.463C130.39 121.517 124.168 119.632 117.635 117.653L117.376 117.575C110.834 115.594 103.986 113.563 96.7343 114.907C87.4441 116.45 79.3766 123.337 73.2798 129.648C72.2901 130.672 71.3383 131.743 70.4066 132.791C70.1424 133.089 69.8799 133.384 69.6185 133.676C68.4254 135.009 67.2457 136.286 65.9881 137.43C63.4894 139.705 60.7189 141.427 57.0516 141.948C50.439 142.666 43.4543 141.587 37.5059 139.419C36.3129 138.888 35.1977 138.267 34.0384 137.621L34.021 137.611C32.8688 136.969 31.6722 136.302 30.3777 135.727C28.204 134.763 25.9925 134.57 23.4114 134.344C22.7919 134.29 22.1511 134.234 21.4845 134.165L21.4332 134.159H21.3815C20.253 134.159 19.0974 134.092 17.901 134.022L17.8995 134.022C16.713 133.953 15.4871 133.881 14.2674 133.881C11.8268 133.881 9.31499 134.165 6.96214 135.383C2.17597 137.86 0.683221 142.791 1.0547 147.822C1.77901 160.911 6.14218 173.67 19.233 178.703L19.2408 178.706L19.2487 178.709C24.5709 180.654 30.6895 180.945 36.3003 181.213C37.2922 181.26 38.2683 181.307 39.2212 181.362L39.2284 181.362L39.2356 181.363C43.6413 181.553 47.7539 180.981 51.7548 180.283C52.6839 180.121 53.6043 179.953 54.5204 179.785C57.576 179.227 60.5838 178.676 63.7084 178.395L63.7084 178.395L63.7217 178.394C63.8162 178.384 63.9102 178.374 64.004 178.365C67.4877 178.003 70.4792 177.693 73.7895 178.377C74.4638 178.527 75.1442 178.685 75.8309 178.845C80.1383 179.847 84.6899 180.905 89.5058 180.245C97.5941 179.48 105.284 176.056 111.852 170.768L111.852 170.768L111.863 170.759C114.8 168.326 117.276 165.517 119.669 162.801C120.252 162.139 120.83 161.482 121.409 160.838C124.392 157.52 127.429 154.48 131.387 152.342L131.392 152.339C137.481 149.003 144.803 145.417 151.699 145.052Z" stroke="#F93C00" stroke-width="2"/>
<path d="M457.131 301C459.231 303 464.729 310.1 465.129 310.5C467.629 313.7 470.629 317 473.629 319.5C479.629 323.8 483.729 325.5 490.129 328C491.229 328.5 499.629 331.34 506.029 333.1C510.029 334.2 514.129 335.4 517.629 337.5C520.629 339.4 523.129 342 525.429 344.6C525.929 345.1 529.829 349.9 531.629 351.5C534.129 353.5 537.229 355.2 540.129 357C540.829 357.4 549.229 362.7 552.129 366C557.629 372.1 562.576 382.575 561.476 391.475C561.276 392.875 560.776 394.475 560.176 395.975C559.776 396.875 555.476 405.675 556.476 408.775C557.976 412.075 563.676 412.675 566.876 413.275C568.476 413.675 570.676 414.775 573.176 416.275C575.676 417.775 585.076 423.975 586.876 425.075C590.676 427.575 598.076 432.175 598.076 432.175C611.676 439.975 621.476 447.175 633.276 458.275C633.276 458.275 644.977 471 652.176 478.375C659.576 485.475 667.077 490 678.477 493C699.777 498.5 715.929 507.1 721.129 512C728.729 519.1 737.376 530.975 741.976 543.075C746.629 556.5 738.229 560.5 733.629 559.5C728.229 558.2 713.129 545 713.129 545C713.129 545 698.429 533.9 687.629 531C676.829 528.1 665.129 522 658.629 517C649.629 509 629.629 499.5 629.629 499.5C629.629 499.5 618.366 495.5 610.629 485C603.629 475.5 588.929 459.8 583.629 455C578.329 450.2 569.729 443.7 562.629 440.5C559.529 439.1 557.429 438.2 555.629 438C554.929 437.9 552.929 437.5 552.129 437.5C550.229 437.5 544.629 436.5 540.129 432.5C535.429 427.5 531.076 422.675 530.276 413.275C529.676 406.175 532.776 398.475 532.776 398.475C532.776 398.475 535.329 389.7 530.629 384C525.929 378.3 521.329 376.3 517.629 371.5C515.429 368.6 514.129 364 505.129 362.5C499.382 361.925 490.629 360.1 486.629 358C484.429 356.8 479.329 353.8 477.629 352C475.929 350.2 470.729 345.5 464.629 342.5C458.529 339.5 453.329 337.1 449.629 332.5C447.629 330 440.824 320.95 438.476 312.475C436.129 304 436.63 299.5 439.631 296.5C443.307 294 450.931 295.1 457.131 301Z" stroke="#F93C00" stroke-width="2"/>
</svg>
