<svg width="702" height="512" viewBox="0 0 702 512" fill="none" xmlns="http://www.w3.org/2000/svg">
<path d="M228.742 78.5581H210.183V90.9305H228.742V78.5581Z" fill="#CCCABC"/>
<path d="M276.17 90.9293H280.293C280.84 90.9293 281.365 90.7121 281.751 90.3254C282.138 89.9387 282.355 89.4143 282.355 88.8674V78.5542H276.168L276.17 90.9293Z" fill="#CCCABC"/>
<path d="M440.844 148.939H447.03V90.9293H485.043V78.5542H315.35V88.8648C315.35 89.4116 315.567 89.936 315.954 90.3227C316.34 90.7094 316.865 90.9266 317.411 90.9266H440.844V148.939Z" fill="#CCCABC"/>
<path d="M270.064 245.264H266.564C265.822 245.264 265.221 245.866 265.221 246.607V250.108C265.221 250.85 265.822 251.451 266.564 251.451H270.064C270.806 251.451 271.408 250.85 271.408 250.108V246.607C271.408 245.866 270.806 245.264 270.064 245.264Z" fill="#CCCABC"/>
<path d="M2.0632 401.659H4.12501C4.67174 401.659 5.19601 401.442 5.5826 401.055C5.96919 400.669 6.18655 400.144 6.1869 399.598V383.1H0V399.596C0 400.143 0.217379 400.668 0.604302 401.055C0.991225 401.442 1.51601 401.659 2.0632 401.659Z" fill="#CCCABC"/>
<path d="M6.18688 319.249H0V325.436H6.18688V319.249Z" fill="#CCCABC"/>
<path d="M6.18688 255.399H0V261.586H6.18688V255.399Z" fill="#CCCABC"/>
<path d="M6.18688 191.549H0V197.736H6.18688V191.549Z" fill="#CCCABC"/>
<path d="M6.18688 127.699H0V133.886H6.18688V127.699Z" fill="#CCCABC"/>
<path d="M6.18688 63.8486H0V70.0355H6.18688V63.8486Z" fill="#CCCABC"/>
<path d="M0 6.18688H6.1869V0H2.0632C1.51637 0 0.991957 0.217242 0.605286 0.603913C0.218615 0.990583 0.00139372 1.51501 0.00139372 2.06185L0 6.18688Z" fill="#CCCABC"/>
<path d="M70.1581 0H63.9712V6.18688H70.1581V0Z" fill="#CCCABC"/>
<path d="M134.123 0H127.937V6.18688H134.123V0Z" fill="#CCCABC"/>
<path d="M198.092 0H191.905V6.18688H198.092V0Z" fill="#CCCABC"/>
<path d="M255.873 6.18699H259.996C260.543 6.18699 261.068 5.96977 261.454 5.5831C261.841 5.19643 262.058 4.67198 262.058 4.12514V2.06331C262.058 1.7925 262.005 1.52429 261.901 1.27406C261.798 1.02382 261.646 0.796463 261.455 0.604968C261.263 0.413473 261.036 0.261609 260.786 0.158054C260.535 0.0544994 260.267 0.00128868 259.996 0.00146528H255.873V6.18699Z" fill="#CCCABC"/>
<path d="M319.844 6.18699H326.031V2.06331C326.031 1.51648 325.813 0.992028 325.427 0.605357C325.04 0.218686 324.516 0.00146528 323.969 0.00146528H321.907C321.636 0.00128868 321.368 0.0544994 321.118 0.158054C320.867 0.261609 320.64 0.413473 320.449 0.604968C320.257 0.796463 320.105 1.02382 320.002 1.27406C319.898 1.52429 319.845 1.7925 319.845 2.06331L319.844 6.18699Z" fill="#CCCABC"/>
<path d="M326.031 39.2783H319.844V45.4652H326.031V39.2783Z" fill="#CCCABC"/>
<path d="M369.745 490.982H373.868V484.795H369.745C369.198 484.796 368.674 485.013 368.287 485.399C367.9 485.786 367.683 486.31 367.683 486.857V488.919C367.683 489.466 367.9 489.99 368.286 490.377C368.673 490.764 369.198 490.982 369.745 490.982Z" fill="#CCCABC"/>
<path d="M542.778 78.5542V90.9266H665.569V126.005H677.941V80.6187C677.941 80.0719 677.724 79.5474 677.337 79.1608C676.951 78.7741 676.426 78.5569 675.879 78.5569L542.778 78.5542Z" fill="#CCCABC"/>
<path d="M87.8124 416.677H131.819V404.304H98.1269V90.9306H131.823V78.5542H87.8124C87.2657 78.5546 86.7414 78.7719 86.3548 79.1585C85.9682 79.5451 85.7508 80.0693 85.7505 80.616V414.613C85.7505 415.16 85.9677 415.685 86.3543 416.072C86.7409 416.459 87.2654 416.676 87.8124 416.677Z" fill="#CCCABC"/>
<path d="M450.12 498.721V474.195C450.12 473.648 449.903 473.124 449.516 472.737C449.13 472.35 448.605 472.133 448.058 472.133H437.748V484.794H431.561V490.985H437.748V509.034C437.748 509.581 437.965 510.105 438.352 510.492C438.738 510.879 439.263 511.096 439.81 511.096H471.19V498.723L450.12 498.721Z" fill="#CCCABC"/>
<path d="M665.573 215.469H587.321V225.78C587.321 226.326 587.539 226.851 587.925 227.237C588.312 227.624 588.836 227.841 589.383 227.841H677.939V183.746H665.567L665.573 215.469Z" fill="#CCCABC"/>
<path d="M665.581 498.721H595.266V476.259C595.266 475.713 595.049 475.188 594.662 474.802C594.276 474.415 593.751 474.198 593.205 474.198H591.143C590.872 474.197 590.604 474.251 590.353 474.354C590.103 474.458 589.876 474.61 589.684 474.801C589.493 474.993 589.341 475.22 589.237 475.47C589.134 475.721 589.081 475.989 589.081 476.259V498.722H581.399V511.095H675.888C676.159 511.095 676.427 511.041 676.677 510.938C676.927 510.834 677.154 510.682 677.346 510.491C677.537 510.299 677.689 510.072 677.793 509.822C677.896 509.572 677.95 509.304 677.95 509.033V470.079H665.581V498.721Z" fill="#CCCABC"/>
<path d="M228.742 404.304H210.183V416.677H228.742V404.304Z" fill="#CCCABC"/>
<path d="M665.575 265.261H629.8C629.253 265.261 628.729 265.478 628.342 265.865C627.956 266.251 627.738 266.776 627.738 267.323V269.384C627.738 269.655 627.791 269.923 627.895 270.174C627.998 270.424 628.15 270.651 628.342 270.843C628.533 271.034 628.761 271.186 629.011 271.29C629.261 271.393 629.529 271.446 629.8 271.446H665.575V337.955H629.8C629.529 337.955 629.261 338.008 629.011 338.111C628.761 338.215 628.534 338.367 628.342 338.558C628.151 338.75 627.999 338.977 627.895 339.227C627.792 339.478 627.738 339.746 627.738 340.016V342.078C627.738 342.349 627.792 342.617 627.895 342.867C627.999 343.117 628.151 343.345 628.342 343.536C628.534 343.728 628.761 343.88 629.011 343.983C629.261 344.087 629.529 344.14 629.8 344.14H665.575V362.955H677.948V260.839H667.637C667.091 260.839 666.566 261.057 666.18 261.443C665.793 261.83 665.576 262.354 665.575 262.901V265.261Z" fill="#CCCABC"/>
<path d="M548.968 416.677H552.271C552.818 416.676 553.342 416.459 553.729 416.072C554.115 415.686 554.333 415.161 554.333 414.615V404.304H520.68C520.133 404.305 519.609 404.522 519.222 404.909C518.836 405.295 518.619 405.819 518.618 406.366V416.677H542.781V498.721H518.618V511.093H556.651V498.721H548.968V416.677Z" fill="#CCCABC"/>
<path d="M437.749 424.707C425.249 424.691 413.252 429.625 404.38 438.43" stroke="#CCCABC" stroke-width="0.5" stroke-linecap="round" stroke-linejoin="round"/>
<path d="M404.38 438.43L437.749 472.133" stroke="#CCCABC" stroke-miterlimit="10" stroke-linecap="round"/>
<path d="M554.336 404.309C554.324 395.613 557.757 387.267 563.884 381.097" stroke="#CCCABC" stroke-width="0.5" stroke-linecap="round" stroke-linejoin="round"/>
<path d="M563.884 381.091L587.33 404.303" stroke="#CCCABC" stroke-miterlimit="10" stroke-linecap="round"/>
<path d="M282.355 78.5569C282.345 69.8618 285.777 61.5161 291.903 55.3447" stroke="#CCCABC" stroke-width="0.5" stroke-linecap="round" stroke-linejoin="round"/>
<path d="M291.901 55.3447L315.347 78.5569" stroke="#CCCABC" stroke-miterlimit="10" stroke-linecap="round"/>
<path d="M554.336 298.398C554.324 289.702 557.757 281.356 563.884 275.185" stroke="#CCCABC" stroke-width="0.5" stroke-linecap="round" stroke-linejoin="round"/>
<path d="M563.884 275.184L587.33 298.397" stroke="#CCCABC" stroke-miterlimit="10" stroke-linecap="round"/>
<path d="M554.336 215.468C554.324 206.772 557.757 198.426 563.884 192.255" stroke="#CCCABC" stroke-width="0.5" stroke-linecap="round" stroke-linejoin="round"/>
<path d="M563.884 192.255L587.33 215.468" stroke="#CCCABC" stroke-miterlimit="10" stroke-linecap="round"/>
<path d="M542.783 260.835C534.087 260.846 525.74 257.413 519.568 251.287" stroke="#CCCABC" stroke-width="0.5" stroke-linecap="round" stroke-linejoin="round"/>
<path d="M519.57 251.287L542.782 227.841" stroke="#CCCABC" stroke-miterlimit="10" stroke-linecap="round"/>
<path d="M677.946 260.835C686.642 260.846 694.989 257.413 701.161 251.287" stroke="#CCCABC" stroke-width="0.5" stroke-linecap="round" stroke-linejoin="round"/>
<path d="M701.163 251.287L677.951 227.841" stroke="#CCCABC" stroke-miterlimit="10" stroke-linecap="round"/>
<path d="M447.03 369.576C455.726 369.588 464.072 366.155 470.242 360.029" stroke="#CCCABC" stroke-width="0.5" stroke-linecap="round" stroke-linejoin="round"/>
<path d="M470.243 360.029L447.031 336.583" stroke="#CCCABC" stroke-miterlimit="10" stroke-linecap="round"/>
<path d="M483.217 416.677C483.205 426.007 486.889 434.962 493.462 441.584" stroke="#CCCABC" stroke-width="0.5" stroke-linecap="round" stroke-linejoin="round"/>
<path d="M493.464 441.585L518.623 416.677" stroke="#CCCABC" stroke-miterlimit="10" stroke-linecap="round"/>
<path d="M483.217 416.677C483.221 419.846 481.97 422.889 479.738 425.139" stroke="#CCCABC" stroke-width="0.5" stroke-linecap="round" stroke-linejoin="round"/>
<path d="M479.738 425.138L471.193 416.677" stroke="#CCCABC" stroke-miterlimit="10" stroke-linecap="round"/>
<path d="M446.695 149.273H441.18V196.03H446.695V149.273Z" stroke="#CCCABC" stroke-width="0.5" stroke-miterlimit="10" stroke-linecap="round"/>
<path d="M485.379 78.8939V90.5947H542.446V78.8939H485.379Z" stroke="#CCCABC" stroke-width="0.5" stroke-miterlimit="10" stroke-linecap="round"/>
<path d="M471.529 499.057V510.758H518.285V499.057H471.529Z" stroke="#CCCABC" stroke-width="0.5" stroke-miterlimit="10" stroke-linecap="round"/>
<path d="M229.077 404.64V416.341H306.765V404.64H229.077Z" stroke="#CCCABC" stroke-width="0.5" stroke-miterlimit="10" stroke-linecap="round"/>
<path d="M132.161 404.64V416.341H209.849V404.64H132.161Z" stroke="#CCCABC" stroke-width="0.5" stroke-miterlimit="10" stroke-linecap="round"/>
<path d="M132.161 78.8939V90.5947H209.849V78.8939H132.161Z" stroke="#CCCABC" stroke-width="0.5" stroke-miterlimit="10" stroke-linecap="round"/>
<path d="M229.077 78.8939V90.5947H275.833V78.8939H229.077Z" stroke="#CCCABC" stroke-width="0.5" stroke-miterlimit="10" stroke-linecap="round"/>
<path d="M556.985 499.057V510.757H581.058V499.057H556.985Z" stroke="#CCCABC" stroke-width="0.5" stroke-miterlimit="10" stroke-linecap="round"/>
<path d="M677.611 126.343H665.91V183.41H677.611V126.343Z" stroke="#CCCABC" stroke-width="0.5" stroke-miterlimit="10" stroke-linecap="round"/>
<path d="M677.611 363.291H665.91V387.364H677.611V363.291Z" stroke="#CCCABC" stroke-width="0.5" stroke-miterlimit="10" stroke-linecap="round"/>
<path d="M677.611 445.661H665.91V469.735H677.611V445.661Z" stroke="#CCCABC" stroke-width="0.5" stroke-miterlimit="10" stroke-linecap="round"/>
<path d="M474.566 452.14C474.755 451.582 474.971 451.348 475.313 451.24L475.493 451.177V450.889C474.863 450.925 474.098 450.934 473.531 450.889V451.177L473.729 451.231C474.125 451.33 474.26 451.528 474.089 452.077L472.856 456.028L471.398 452.041C471.155 451.384 471.344 451.321 471.686 451.231L471.884 451.177V450.889C471.074 450.925 470.372 450.925 469.535 450.889V451.177L469.724 451.213C469.976 451.267 470.084 451.375 470.354 452.086L472.217 457.036C472.424 457.018 472.64 457.018 472.847 457.036L474.566 452.14ZM479.434 455.965L479.281 455.848C478.957 456.181 478.498 456.397 478.003 456.397C477.121 456.397 476.509 455.722 476.401 454.687H479.263C479.281 454.561 479.281 454.417 479.281 454.327C479.281 453.454 478.696 452.59 477.58 452.59C476.509 452.59 475.519 453.481 475.519 454.921C475.519 456.181 476.347 457.153 477.607 457.153C478.372 457.153 479.002 456.802 479.434 455.965ZM476.383 454.354C476.383 453.364 476.842 452.977 477.355 452.977C477.922 452.977 478.318 453.391 478.408 454.264L476.383 454.39V454.354ZM481.922 456.811C481.391 456.811 480.86 456.559 480.482 455.659H480.284C480.293 456.064 480.284 456.424 480.266 456.775C480.581 456.982 481.175 457.153 481.787 457.153C482.777 457.153 483.497 456.604 483.497 455.83C483.497 454.264 481.067 454.588 481.067 453.517C481.067 453.202 481.274 452.941 481.679 452.941C482.21 452.941 482.543 453.238 483.002 454.021H483.227C483.191 453.616 483.173 453.301 483.173 452.932C482.786 452.725 482.354 452.59 481.805 452.59C480.806 452.59 480.239 453.139 480.239 453.814C480.239 455.344 482.678 455.047 482.678 456.181C482.678 456.541 482.426 456.811 481.922 456.811ZM484.111 452.779V453.121H484.714V455.686C484.714 456.613 484.93 457.153 485.695 457.153C486.118 457.153 486.451 456.955 486.874 456.37L486.721 456.217C486.559 456.388 486.361 456.532 486.127 456.532C485.785 456.532 485.623 456.271 485.623 455.641V453.121H486.73V452.725H485.623V451.456L485.398 451.429C485.164 452.194 484.858 452.689 484.111 452.779ZM489.031 451.168C489.031 450.817 488.761 450.547 488.401 450.547C488.05 450.547 487.78 450.817 487.78 451.168C487.78 451.519 488.05 451.798 488.401 451.798C488.761 451.798 489.031 451.519 489.031 451.168ZM488.005 455.524C488.005 456.622 487.978 456.64 487.582 456.712L487.321 456.766V457.045C488.077 456.991 488.869 456.991 489.607 457.045V456.766L489.364 456.712C488.941 456.631 488.914 456.613 488.914 455.524V454.363C488.914 453.922 488.923 453.103 488.95 452.635L488.878 452.563C488.428 452.68 488.014 452.725 487.321 452.725V453.004L487.528 453.031C488.005 453.094 488.005 453.229 488.005 454.597V455.524ZM492.598 457.153C493.705 457.153 494.758 456.325 494.758 454.741C494.758 453.526 494.083 452.59 492.949 452.59C492.328 452.59 491.86 452.833 491.545 453.292V452.563C491.545 452.023 491.554 451.033 491.581 450.466L491.509 450.367C491.059 450.511 490.645 450.538 489.952 450.538V450.826L490.159 450.844C490.636 450.889 490.636 451.105 490.636 452.518V457.126L490.798 457.171L491.203 456.712C491.581 457.009 492.094 457.153 492.598 457.153ZM491.545 455.335V453.643C491.77 453.346 492.076 453.202 492.481 453.202C493.291 453.202 493.813 453.922 493.813 455.164C493.813 456.325 493.291 456.82 492.67 456.82C492.112 456.82 491.545 456.514 491.545 455.335ZM500.506 456.784L500.497 456.505L500.182 456.478C499.849 456.451 499.813 456.334 499.813 455.398V454.372C499.813 453.922 499.822 453.103 499.849 452.635L499.777 452.563C499.327 452.689 498.922 452.725 498.238 452.725V453.004L498.4 453.031C498.904 453.094 498.904 453.274 498.904 454.597V455.821C498.904 455.911 498.904 456.001 498.913 456.091C498.535 456.334 498.211 456.478 497.77 456.478C497.284 456.478 496.933 456.226 496.933 455.587V454.507C496.933 454.03 496.942 453.148 496.969 452.644L496.897 452.563C496.456 452.689 496.06 452.725 495.376 452.725V453.013L495.583 453.031C496.024 453.076 496.024 453.274 496.024 454.606V455.677C496.024 456.775 496.645 457.153 497.401 457.153C498.112 457.153 498.58 456.793 498.931 456.361C498.958 456.676 499.012 456.955 499.066 457.153C499.525 456.982 500.011 456.847 500.506 456.784ZM502.624 455.542V452.284C502.624 451.816 502.633 450.943 502.66 450.448L502.579 450.367C502.129 450.502 501.724 450.538 501.022 450.538V450.826L501.229 450.853C501.715 450.916 501.715 451.105 501.715 452.482V455.542C501.715 456.595 501.688 456.64 501.283 456.712L501.022 456.766V457.045C501.787 457 502.561 456.991 503.308 457.045V456.766L503.047 456.712C502.642 456.64 502.624 456.595 502.624 455.542ZM507.902 455.965L507.749 455.848C507.425 456.181 506.966 456.397 506.471 456.397C505.589 456.397 504.977 455.722 504.869 454.687H507.731C507.749 454.561 507.749 454.417 507.749 454.327C507.749 453.454 507.164 452.59 506.048 452.59C504.977 452.59 503.987 453.481 503.987 454.921C503.987 456.181 504.815 457.153 506.075 457.153C506.84 457.153 507.47 456.802 507.902 455.965ZM504.851 454.354C504.851 453.364 505.31 452.977 505.823 452.977C506.39 452.977 506.786 453.391 506.876 454.264L504.851 454.39V454.354Z" fill="#B3CBE6"/>
<path d="M479.096 346.89V349.932C479.096 350.922 479.069 351.048 478.736 351.102L478.412 351.156V351.435C479.51 351.381 480.869 351.381 482.606 351.435C482.669 350.823 482.84 350.067 483.011 349.446L482.813 349.365L482.669 349.608C482.075 350.643 481.688 351.084 481.166 351.084H480.896C480.248 351.084 480.086 350.913 480.086 350.085V346.89C480.086 345.81 480.104 345.675 480.446 345.621L480.77 345.567V345.279C480.059 345.324 479.132 345.324 478.412 345.279V345.567L478.736 345.621C479.069 345.675 479.096 345.81 479.096 346.89ZM485.934 351.543C487.176 351.543 488.211 350.652 488.211 349.275C488.211 347.763 487.14 346.98 486.024 346.98C484.791 346.98 483.756 347.889 483.756 349.266C483.756 350.778 484.818 351.543 485.934 351.543ZM486.204 351.174C485.367 351.174 484.737 350.229 484.737 348.933C484.737 347.97 485.115 347.358 485.763 347.358C486.6 347.358 487.23 348.33 487.23 349.617C487.23 350.58 486.843 351.174 486.204 351.174ZM491.404 351.543C492.511 351.543 493.564 350.715 493.564 349.131C493.564 347.916 492.889 346.98 491.755 346.98C491.134 346.98 490.666 347.223 490.351 347.682V346.953C490.351 346.413 490.36 345.423 490.387 344.856L490.315 344.757C489.865 344.901 489.451 344.928 488.758 344.928V345.216L488.965 345.234C489.442 345.279 489.442 345.495 489.442 346.908V351.516L489.604 351.561L490.009 351.102C490.387 351.399 490.9 351.543 491.404 351.543ZM490.351 349.725V348.033C490.576 347.736 490.882 347.592 491.287 347.592C492.097 347.592 492.619 348.312 492.619 349.554C492.619 350.715 492.097 351.21 491.476 351.21C490.918 351.21 490.351 350.904 490.351 349.725ZM496.756 351.543C497.863 351.543 498.916 350.715 498.916 349.131C498.916 347.916 498.241 346.98 497.107 346.98C496.486 346.98 496.018 347.223 495.703 347.682V346.953C495.703 346.413 495.712 345.423 495.739 344.856L495.667 344.757C495.217 344.901 494.803 344.928 494.11 344.928V345.216L494.317 345.234C494.794 345.279 494.794 345.495 494.794 346.908V351.516L494.956 351.561L495.361 351.102C495.739 351.399 496.252 351.543 496.756 351.543ZM495.703 349.725V348.033C495.928 347.736 496.234 347.592 496.639 347.592C497.449 347.592 497.971 348.312 497.971 349.554C497.971 350.715 497.449 351.21 496.828 351.21C496.27 351.21 495.703 350.904 495.703 349.725ZM502.092 351.39L503.163 348.753C503.577 347.736 503.784 347.484 504.054 347.412L504.198 347.376V347.097C503.676 347.133 503.118 347.133 502.578 347.097V347.376L502.812 347.439C503.109 347.52 503.154 347.817 502.839 348.663L502.155 350.49L501.192 348.213C500.976 347.691 500.976 347.52 501.327 347.43L501.552 347.376V347.097C500.859 347.142 500.085 347.133 499.41 347.097V347.376C499.833 347.448 499.932 347.592 500.229 348.267L501.561 351.327H501.84L501.813 351.408C501.417 352.443 500.877 352.578 499.905 352.623L499.833 352.758C499.833 353.091 499.986 353.433 500.427 353.433C500.931 353.433 501.39 353.118 502.092 351.39Z" fill="#B3CBE6"/>
<path d="M235.253 315.331C234.812 315.331 234.038 315.385 233.336 315.331V315.619L233.66 315.673C233.993 315.727 234.02 315.853 234.02 316.834V319.966C234.02 320.974 233.993 321.1 233.66 321.154L233.336 321.208V321.487C234.083 321.451 235.01 321.487 235.541 321.487C237.719 321.487 238.961 320.344 238.961 318.328C238.961 316.321 237.503 315.331 235.253 315.331ZM237.908 318.472C237.908 320.254 237.062 321.136 235.82 321.136C235.172 321.136 235.01 320.866 235.01 320.065V315.673C236.837 315.718 237.908 316.636 237.908 318.472ZM241.539 315.61C241.539 315.259 241.269 314.989 240.909 314.989C240.558 314.989 240.288 315.259 240.288 315.61C240.288 315.961 240.558 316.24 240.909 316.24C241.269 316.24 241.539 315.961 241.539 315.61ZM240.513 319.966C240.513 321.064 240.486 321.082 240.09 321.154L239.829 321.208V321.487C240.585 321.433 241.377 321.433 242.115 321.487V321.208L241.872 321.154C241.449 321.073 241.422 321.055 241.422 319.966V318.805C241.422 318.364 241.431 317.545 241.458 317.077L241.386 317.005C240.936 317.122 240.522 317.167 239.829 317.167V317.446L240.036 317.473C240.513 317.536 240.513 317.671 240.513 319.039V319.966ZM247.986 321.208L247.734 321.154C247.329 321.082 247.302 321.046 247.302 319.966V318.517C247.302 317.419 246.654 317.032 245.988 317.032C245.214 317.032 244.656 317.446 244.296 317.887C244.305 317.59 244.314 317.293 244.323 317.077L244.251 317.005C243.801 317.122 243.387 317.167 242.694 317.167V317.446L242.901 317.473C243.369 317.536 243.378 317.68 243.378 319.048V319.966C243.378 321.046 243.351 321.082 242.955 321.154L242.694 321.208V321.487C243.441 321.433 244.233 321.433 244.962 321.487V321.208L244.719 321.154C244.314 321.082 244.287 321.046 244.287 319.966V318.814C244.287 318.643 244.287 318.409 244.296 318.157C244.602 317.896 245.061 317.716 245.493 317.716C245.988 317.716 246.393 317.995 246.393 318.679V319.966C246.393 321.046 246.366 321.082 245.97 321.154L245.727 321.199V321.487C246.474 321.433 247.248 321.433 247.986 321.487V321.208ZM250.266 315.61C250.266 315.259 249.996 314.989 249.636 314.989C249.285 314.989 249.015 315.259 249.015 315.61C249.015 315.961 249.285 316.24 249.636 316.24C249.996 316.24 250.266 315.961 250.266 315.61ZM249.24 319.966C249.24 321.064 249.213 321.082 248.817 321.154L248.556 321.208V321.487C249.312 321.433 250.104 321.433 250.842 321.487V321.208L250.599 321.154C250.176 321.073 250.149 321.055 250.149 319.966V318.805C250.149 318.364 250.158 317.545 250.185 317.077L250.113 317.005C249.663 317.122 249.249 317.167 248.556 317.167V317.446L248.763 317.473C249.24 317.536 249.24 317.671 249.24 319.039V319.966ZM256.714 321.208L256.462 321.154C256.057 321.082 256.03 321.046 256.03 319.966V318.517C256.03 317.419 255.382 317.032 254.716 317.032C253.942 317.032 253.384 317.446 253.024 317.887C253.033 317.59 253.042 317.293 253.051 317.077L252.979 317.005C252.529 317.122 252.115 317.167 251.422 317.167V317.446L251.629 317.473C252.097 317.536 252.106 317.68 252.106 319.048V319.966C252.106 321.046 252.079 321.082 251.683 321.154L251.422 321.208V321.487C252.169 321.433 252.961 321.433 253.69 321.487V321.208L253.447 321.154C253.042 321.082 253.015 321.046 253.015 319.966V318.814C253.015 318.643 253.015 318.409 253.024 318.157C253.33 317.896 253.789 317.716 254.221 317.716C254.716 317.716 255.121 317.995 255.121 318.679V319.966C255.121 321.046 255.094 321.082 254.698 321.154L254.455 321.199V321.487C255.202 321.433 255.976 321.433 256.714 321.487V321.208ZM261.541 321.838C261.541 321.226 261.046 320.848 260.137 320.803L258.895 320.749C258.391 320.722 258.175 320.569 258.175 320.281C258.175 320.128 258.283 319.966 258.553 319.831C258.787 319.912 259.039 319.957 259.318 319.957C260.308 319.957 261.037 319.291 261.037 318.463C261.037 317.914 260.704 317.464 260.191 317.23C260.515 316.897 261.037 316.816 261.478 316.879L261.532 316.717C261.523 316.357 261.307 316.078 260.965 316.078C260.542 316.078 260.29 316.519 260.038 317.167C259.804 317.077 259.543 317.032 259.255 317.032C258.274 317.032 257.518 317.689 257.518 318.517C257.518 319.039 257.824 319.471 258.31 319.723C257.77 319.975 257.545 320.29 257.545 320.659C257.545 321.028 257.797 321.307 258.247 321.46C257.653 321.604 257.239 321.91 257.239 322.387C257.239 322.972 257.914 323.467 259.183 323.467C260.515 323.467 261.541 322.684 261.541 321.838ZM259.39 319.633C258.85 319.633 258.436 319.111 258.436 318.337C258.436 317.725 258.724 317.347 259.174 317.347C259.705 317.347 260.128 317.914 260.128 318.652C260.128 319.255 259.831 319.633 259.39 319.633ZM258.031 322.234C258.031 321.946 258.175 321.676 258.463 321.523C258.607 321.55 258.76 321.577 258.931 321.586L260.029 321.64C260.506 321.658 260.758 321.784 260.758 322.135C260.758 322.738 260.137 323.116 259.309 323.116C258.535 323.116 258.031 322.738 258.031 322.234ZM269.917 321.208L269.737 321.163C269.476 321.109 269.368 321.01 269.098 320.29L267.226 315.241H267.091C266.776 315.439 266.236 315.592 265.732 315.61V315.853L265.966 315.916C266.137 315.961 266.209 316.051 266.209 316.24C266.209 316.501 266.065 316.978 265.678 318.049L264.886 320.236C264.634 320.929 264.409 321.073 264.085 321.163L263.914 321.208V321.487C264.553 321.451 265.336 321.451 265.903 321.487V321.208L265.714 321.163C265.255 321.064 265.12 320.893 265.3 320.326L265.579 319.48H267.739L268.036 320.344C268.279 321.019 268.144 321.073 267.739 321.163L267.532 321.208V321.487C268.315 321.46 269.062 321.46 269.917 321.487V321.208ZM265.696 319.111L266.623 316.276L267.604 319.111H265.696ZM272.756 321.208L272.378 321.154C271.991 321.1 271.973 320.992 271.973 319.966V318.58C272.234 317.986 272.549 317.824 272.882 317.824C273.107 317.824 273.296 317.896 273.602 318.004L273.737 317.914C273.8 317.815 273.836 317.716 273.836 317.572C273.836 317.302 273.665 317.005 273.251 317.005C272.702 317.005 272.324 317.428 271.964 318.256C271.964 317.788 271.964 317.473 271.982 317.077L271.91 317.005C271.442 317.122 271.073 317.167 270.38 317.167V317.446L270.587 317.473C271.064 317.536 271.064 317.671 271.064 319.039V319.966C271.064 321.01 271.046 321.109 270.704 321.154L270.38 321.208V321.487C271.145 321.433 271.937 321.433 272.756 321.487V321.208ZM278.305 320.407L278.152 320.29C277.828 320.623 277.369 320.839 276.874 320.839C275.992 320.839 275.38 320.164 275.272 319.129H278.134C278.152 319.003 278.152 318.859 278.152 318.769C278.152 317.896 277.567 317.032 276.451 317.032C275.38 317.032 274.39 317.923 274.39 319.363C274.39 320.623 275.218 321.595 276.478 321.595C277.243 321.595 277.873 321.244 278.305 320.407ZM275.254 318.796C275.254 317.806 275.713 317.419 276.226 317.419C276.793 317.419 277.189 317.833 277.279 318.706L275.254 318.832V318.796ZM283.367 320.956L283.241 320.821C283.088 320.965 282.944 321.028 282.791 321.028C282.602 321.028 282.548 320.929 282.548 320.614V318.616C282.548 317.572 282.107 317.032 281.135 317.032C280.253 317.032 279.326 317.725 279.326 318.31C279.326 318.625 279.596 318.724 279.938 318.733L280.091 318.688C280.019 317.806 280.271 317.41 280.757 317.41C281.342 317.41 281.639 317.977 281.639 318.823V319.093L280.505 319.21C279.578 319.309 279.083 319.741 279.083 320.443C279.083 321.136 279.596 321.595 280.37 321.595C281.036 321.595 281.387 321.334 281.675 320.929V320.956C281.675 321.388 281.936 321.595 282.296 321.595C282.692 321.595 283.034 321.397 283.367 320.956ZM280.82 321.037C280.325 321.037 279.974 320.704 279.974 320.218C279.974 319.714 280.271 319.453 280.982 319.453H281.639V320.695C281.423 320.938 281.126 321.037 280.82 321.037Z" fill="#B3CBE6"/>
<path d="M176.882 161.832C177.656 161.832 178.169 162.174 178.655 163.182L178.853 163.587L179.087 163.533C179.015 162.966 178.961 162.471 178.952 161.877C178.547 161.598 177.962 161.409 177.26 161.409C175.451 161.409 174.254 162.696 174.254 164.523C174.254 166.566 175.658 167.781 177.485 167.781C178.151 167.781 178.691 167.655 179.114 167.403C179.195 166.8 179.258 166.278 179.375 165.666L179.15 165.603L178.997 165.927C178.457 167.079 178.151 167.385 177.539 167.385C176.315 167.385 175.307 165.918 175.307 163.992C175.307 162.642 175.964 161.832 176.882 161.832ZM185.43 167.394L185.178 167.34C184.773 167.268 184.746 167.241 184.746 166.152V164.703C184.746 163.605 184.098 163.218 183.441 163.218C182.658 163.218 182.1 163.632 181.74 164.073V162.912C181.74 162.444 181.749 161.571 181.776 161.076L181.695 160.995C181.245 161.13 180.84 161.166 180.138 161.166V161.454L180.345 161.481C180.822 161.544 180.831 161.706 180.831 163.146V166.152C180.831 167.232 180.804 167.268 180.399 167.34L180.138 167.394V167.673C180.894 167.619 181.668 167.619 182.406 167.673V167.394L182.163 167.34C181.758 167.268 181.74 167.241 181.74 166.152V164.343C182.046 164.082 182.505 163.902 182.937 163.902C183.432 163.902 183.837 164.181 183.837 164.865V166.152C183.837 167.232 183.81 167.268 183.414 167.34L183.171 167.385V167.673C183.918 167.619 184.701 167.619 185.43 167.673V167.394ZM187.711 161.796C187.711 161.445 187.441 161.175 187.081 161.175C186.73 161.175 186.46 161.445 186.46 161.796C186.46 162.147 186.73 162.426 187.081 162.426C187.441 162.426 187.711 162.147 187.711 161.796ZM186.685 166.152C186.685 167.25 186.658 167.268 186.262 167.34L186.001 167.394V167.673C186.757 167.619 187.549 167.619 188.287 167.673V167.394L188.044 167.34C187.621 167.259 187.594 167.241 187.594 166.152V164.991C187.594 164.55 187.603 163.731 187.63 163.263L187.558 163.191C187.108 163.308 186.694 163.353 186.001 163.353V163.632L186.208 163.659C186.685 163.722 186.685 163.857 186.685 165.225V166.152ZM190.423 166.17V162.912C190.423 162.444 190.432 161.571 190.459 161.076L190.378 160.995C189.928 161.13 189.523 161.166 188.821 161.166V161.454L189.028 161.481C189.514 161.544 189.514 161.733 189.514 163.11V166.17C189.514 167.223 189.487 167.268 189.082 167.34L188.821 167.394V167.673C189.586 167.628 190.36 167.619 191.107 167.673V167.394L190.846 167.34C190.441 167.268 190.423 167.223 190.423 166.17ZM193.245 166.17V162.912C193.245 162.444 193.254 161.571 193.281 161.076L193.2 160.995C192.75 161.13 192.345 161.166 191.643 161.166V161.454L191.85 161.481C192.336 161.544 192.336 161.733 192.336 163.11V166.17C192.336 167.223 192.309 167.268 191.904 167.34L191.643 167.394V167.673C192.408 167.628 193.182 167.619 193.929 167.673V167.394L193.668 167.34C193.263 167.268 193.245 167.223 193.245 166.17ZM196.786 167.781C198.028 167.781 199.063 166.89 199.063 165.513C199.063 164.001 197.992 163.218 196.876 163.218C195.643 163.218 194.608 164.127 194.608 165.504C194.608 167.016 195.67 167.781 196.786 167.781ZM197.056 167.412C196.219 167.412 195.589 166.467 195.589 165.171C195.589 164.208 195.967 163.596 196.615 163.596C197.452 163.596 198.082 164.568 198.082 165.855C198.082 166.818 197.695 167.412 197.056 167.412ZM204.812 167.412L204.803 167.133L204.488 167.106C204.155 167.079 204.119 166.962 204.119 166.026V165C204.119 164.55 204.128 163.731 204.155 163.263L204.083 163.191C203.633 163.317 203.228 163.353 202.544 163.353V163.632L202.706 163.659C203.21 163.722 203.21 163.902 203.21 165.225V166.449C203.21 166.539 203.21 166.629 203.219 166.719C202.841 166.962 202.517 167.106 202.076 167.106C201.59 167.106 201.239 166.854 201.239 166.215V165.135C201.239 164.658 201.248 163.776 201.275 163.272L201.203 163.191C200.762 163.317 200.366 163.353 199.682 163.353V163.641L199.889 163.659C200.33 163.704 200.33 163.902 200.33 165.234V166.305C200.33 167.403 200.951 167.781 201.707 167.781C202.418 167.781 202.886 167.421 203.237 166.989C203.264 167.304 203.318 167.583 203.372 167.781C203.831 167.61 204.317 167.475 204.812 167.412ZM205.309 163.407V163.749H205.912V166.314C205.912 167.241 206.128 167.781 206.893 167.781C207.316 167.781 207.649 167.583 208.072 166.998L207.919 166.845C207.757 167.016 207.559 167.16 207.325 167.16C206.983 167.16 206.821 166.899 206.821 166.269V163.749H207.928V163.353H206.821V162.084L206.596 162.057C206.362 162.822 206.056 163.317 205.309 163.407ZM216.318 167.394L216.138 167.349C215.877 167.295 215.769 167.196 215.499 166.476L213.627 161.427H213.492C213.177 161.625 212.637 161.778 212.133 161.796V162.039L212.367 162.102C212.538 162.147 212.61 162.237 212.61 162.426C212.61 162.687 212.466 163.164 212.079 164.235L211.287 166.422C211.035 167.115 210.81 167.259 210.486 167.349L210.315 167.394V167.673C210.954 167.637 211.737 167.637 212.304 167.673V167.394L212.115 167.349C211.656 167.25 211.521 167.079 211.701 166.512L211.98 165.666H214.14L214.437 166.53C214.68 167.205 214.545 167.259 214.14 167.349L213.933 167.394V167.673C214.716 167.646 215.463 167.646 216.318 167.673V167.394ZM212.097 165.297L213.024 162.462L214.005 165.297H212.097ZM219.156 167.394L218.778 167.34C218.391 167.286 218.373 167.178 218.373 166.152V164.766C218.634 164.172 218.949 164.01 219.282 164.01C219.507 164.01 219.696 164.082 220.002 164.19L220.137 164.1C220.2 164.001 220.236 163.902 220.236 163.758C220.236 163.488 220.065 163.191 219.651 163.191C219.102 163.191 218.724 163.614 218.364 164.442C218.364 163.974 218.364 163.659 218.382 163.263L218.31 163.191C217.842 163.308 217.473 163.353 216.78 163.353V163.632L216.987 163.659C217.464 163.722 217.464 163.857 217.464 165.225V166.152C217.464 167.196 217.446 167.295 217.104 167.34L216.78 167.394V167.673C217.545 167.619 218.337 167.619 219.156 167.673V167.394ZM224.706 166.593L224.553 166.476C224.229 166.809 223.77 167.025 223.275 167.025C222.393 167.025 221.781 166.35 221.673 165.315H224.535C224.553 165.189 224.553 165.045 224.553 164.955C224.553 164.082 223.968 163.218 222.852 163.218C221.781 163.218 220.791 164.109 220.791 165.549C220.791 166.809 221.619 167.781 222.879 167.781C223.644 167.781 224.274 167.43 224.706 166.593ZM221.655 164.982C221.655 163.992 222.114 163.605 222.627 163.605C223.194 163.605 223.59 164.019 223.68 164.892L221.655 165.018V164.982ZM229.768 167.142L229.642 167.007C229.489 167.151 229.345 167.214 229.192 167.214C229.003 167.214 228.949 167.115 228.949 166.8V164.802C228.949 163.758 228.508 163.218 227.536 163.218C226.654 163.218 225.727 163.911 225.727 164.496C225.727 164.811 225.997 164.91 226.339 164.919L226.492 164.874C226.42 163.992 226.672 163.596 227.158 163.596C227.743 163.596 228.04 164.163 228.04 165.009V165.279L226.906 165.396C225.979 165.495 225.484 165.927 225.484 166.629C225.484 167.322 225.997 167.781 226.771 167.781C227.437 167.781 227.788 167.52 228.076 167.115V167.142C228.076 167.574 228.337 167.781 228.697 167.781C229.093 167.781 229.435 167.583 229.768 167.142ZM227.221 167.223C226.726 167.223 226.375 166.89 226.375 166.404C226.375 165.9 226.672 165.639 227.383 165.639H228.04V166.881C227.824 167.124 227.527 167.223 227.221 167.223Z" fill="#B3CBE6"/>
<path d="M350.99 165.855C350.99 165.063 350.423 164.505 349.298 164.352C350.288 164.1 350.603 163.587 350.603 162.975C350.603 161.886 349.514 161.517 348.11 161.517C347.435 161.517 346.877 161.553 346.202 161.517V161.805L346.526 161.859C346.859 161.913 346.886 162.048 346.886 163.11V166.089C346.886 167.151 346.859 167.277 346.526 167.331L346.202 167.394V167.673C346.895 167.628 347.633 167.673 348.317 167.673C350.063 167.673 350.99 166.935 350.99 165.855ZM348.245 164.289H347.876V161.877C348.992 161.877 349.586 162.273 349.586 163.074C349.586 163.875 349.028 164.289 348.245 164.289ZM348.605 167.331C348.056 167.331 347.876 167.151 347.876 166.494V164.622H348.299C349.271 164.622 349.946 165.108 349.946 165.963C349.946 166.845 349.46 167.331 348.605 167.331ZM356.261 167.142L356.135 167.007C355.982 167.151 355.838 167.214 355.685 167.214C355.496 167.214 355.442 167.115 355.442 166.8V164.802C355.442 163.758 355.001 163.218 354.029 163.218C353.147 163.218 352.22 163.911 352.22 164.496C352.22 164.811 352.49 164.91 352.832 164.919L352.985 164.874C352.913 163.992 353.165 163.596 353.651 163.596C354.236 163.596 354.533 164.163 354.533 165.009V165.279L353.399 165.396C352.472 165.495 351.977 165.927 351.977 166.629C351.977 167.322 352.49 167.781 353.264 167.781C353.93 167.781 354.281 167.52 354.569 167.115V167.142C354.569 167.574 354.83 167.781 355.19 167.781C355.586 167.781 355.928 167.583 356.261 167.142ZM353.714 167.223C353.219 167.223 352.868 166.89 352.868 166.404C352.868 165.9 353.165 165.639 353.876 165.639H354.533V166.881C354.317 167.124 354.02 167.223 353.714 167.223ZM359.079 167.394L358.701 167.34C358.314 167.286 358.296 167.178 358.296 166.152V164.766C358.557 164.172 358.872 164.01 359.205 164.01C359.43 164.01 359.619 164.082 359.925 164.19L360.06 164.1C360.123 164.001 360.159 163.902 360.159 163.758C360.159 163.488 359.988 163.191 359.574 163.191C359.025 163.191 358.647 163.614 358.287 164.442C358.287 163.974 358.287 163.659 358.305 163.263L358.233 163.191C357.765 163.308 357.396 163.353 356.703 163.353V163.632L356.91 163.659C357.387 163.722 357.387 163.857 357.387 165.225V166.152C357.387 167.196 357.369 167.295 357.027 167.34L356.703 167.394V167.673C357.468 167.619 358.26 167.619 359.079 167.673V167.394ZM368.545 167.394L368.365 167.349C368.104 167.295 367.996 167.196 367.726 166.476L365.854 161.427H365.719C365.404 161.625 364.864 161.778 364.36 161.796V162.039L364.594 162.102C364.765 162.147 364.837 162.237 364.837 162.426C364.837 162.687 364.693 163.164 364.306 164.235L363.514 166.422C363.262 167.115 363.037 167.259 362.713 167.349L362.542 167.394V167.673C363.181 167.637 363.964 167.637 364.531 167.673V167.394L364.342 167.349C363.883 167.25 363.748 167.079 363.928 166.512L364.207 165.666H366.367L366.664 166.53C366.907 167.205 366.772 167.259 366.367 167.349L366.16 167.394V167.673C366.943 167.646 367.69 167.646 368.545 167.673V167.394ZM364.324 165.297L365.251 162.462L366.232 165.297H364.324ZM371.384 167.394L371.006 167.34C370.619 167.286 370.601 167.178 370.601 166.152V164.766C370.862 164.172 371.177 164.01 371.51 164.01C371.735 164.01 371.924 164.082 372.23 164.19L372.365 164.1C372.428 164.001 372.464 163.902 372.464 163.758C372.464 163.488 372.293 163.191 371.879 163.191C371.33 163.191 370.952 163.614 370.592 164.442C370.592 163.974 370.592 163.659 370.61 163.263L370.538 163.191C370.07 163.308 369.701 163.353 369.008 163.353V163.632L369.215 163.659C369.692 163.722 369.692 163.857 369.692 165.225V166.152C369.692 167.196 369.674 167.295 369.332 167.34L369.008 167.394V167.673C369.773 167.619 370.565 167.619 371.384 167.673V167.394ZM376.933 166.593L376.78 166.476C376.456 166.809 375.997 167.025 375.502 167.025C374.62 167.025 374.008 166.35 373.9 165.315H376.762C376.78 165.189 376.78 165.045 376.78 164.955C376.78 164.082 376.195 163.218 375.079 163.218C374.008 163.218 373.018 164.109 373.018 165.549C373.018 166.809 373.846 167.781 375.106 167.781C375.871 167.781 376.501 167.43 376.933 166.593ZM373.882 164.982C373.882 163.992 374.341 163.605 374.854 163.605C375.421 163.605 375.817 164.019 375.907 164.892L373.882 165.018V164.982ZM381.995 167.142L381.869 167.007C381.716 167.151 381.572 167.214 381.419 167.214C381.23 167.214 381.176 167.115 381.176 166.8V164.802C381.176 163.758 380.735 163.218 379.763 163.218C378.881 163.218 377.954 163.911 377.954 164.496C377.954 164.811 378.224 164.91 378.566 164.919L378.719 164.874C378.647 163.992 378.899 163.596 379.385 163.596C379.97 163.596 380.267 164.163 380.267 165.009V165.279L379.133 165.396C378.206 165.495 377.711 165.927 377.711 166.629C377.711 167.322 378.224 167.781 378.998 167.781C379.664 167.781 380.015 167.52 380.303 167.115V167.142C380.303 167.574 380.564 167.781 380.924 167.781C381.32 167.781 381.662 167.583 381.995 167.142ZM379.448 167.223C378.953 167.223 378.602 166.89 378.602 166.404C378.602 165.9 378.899 165.639 379.61 165.639H380.267V166.881C380.051 167.124 379.754 167.223 379.448 167.223Z" fill="#B3CBE6"/>
<path d="M49.1896 41.9939L48.8656 41.9399C48.5236 41.8859 48.5056 41.7509 48.5056 40.6889V36.4769C49.6666 36.4949 50.2246 36.8819 50.2246 37.7279C50.2246 38.5649 49.7926 38.9519 48.6676 39.2399L50.7646 42.2639C51.2146 42.2459 51.7636 42.2459 52.2136 42.2639V41.9849L52.0066 41.9309C51.7096 41.8679 51.6466 41.8229 51.1246 41.1119L49.7026 39.1679C50.7016 38.9249 51.2506 38.4209 51.2506 37.6739C51.2506 36.5939 50.2696 36.1169 48.7126 36.1169C48.1456 36.1169 47.6326 36.1709 46.8316 36.1169V36.4049L47.1556 36.4589C47.4976 36.5129 47.5156 36.6479 47.5156 37.7279V40.6889C47.5156 41.7419 47.4976 41.8859 47.1556 41.9399L46.8316 41.9939V42.2729C47.5786 42.2189 48.3616 42.2189 49.1896 42.2729V41.9939ZM54.4104 36.3959C54.4104 36.0449 54.1404 35.7749 53.7804 35.7749C53.4294 35.7749 53.1594 36.0449 53.1594 36.3959C53.1594 36.7469 53.4294 37.0259 53.7804 37.0259C54.1404 37.0259 54.4104 36.7469 54.4104 36.3959ZM53.3844 40.7519C53.3844 41.8499 53.3574 41.8679 52.9614 41.9399L52.7004 41.9939V42.2729C53.4564 42.2189 54.2484 42.2189 54.9864 42.2729V41.9939L54.7434 41.9399C54.3204 41.8589 54.2934 41.8409 54.2934 40.7519V39.5909C54.2934 39.1499 54.3024 38.3309 54.3294 37.8629L54.2574 37.7909C53.8074 37.9079 53.3934 37.9529 52.7004 37.9529V38.2319L52.9074 38.2589C53.3844 38.3219 53.3844 38.4569 53.3844 39.8249V40.7519ZM59.1206 39.6179C59.4986 38.6279 59.7686 38.3309 60.0296 38.2589L60.1736 38.2139V37.9349C59.6156 37.9709 59.0486 37.9709 58.4996 37.9349V38.2139L58.7156 38.2679C59.0486 38.3489 59.0486 38.7719 58.7786 39.5459L58.1126 41.4359L57.1406 39.0599C56.9066 38.4929 56.9876 38.3489 57.2576 38.2769L57.5006 38.2139V37.9349C56.8256 37.9799 55.9886 37.9709 55.3226 37.9349V38.2139L55.5386 38.2679C55.7996 38.3219 55.8716 38.5019 56.1416 39.1139L57.5096 42.2639C57.7076 42.2459 57.9056 42.2459 58.0946 42.2639L59.1206 39.6179ZM64.5015 41.1929L64.3485 41.0759C64.0245 41.4089 63.5655 41.6249 63.0705 41.6249C62.1885 41.6249 61.5765 40.9499 61.4685 39.9149H64.3305C64.3485 39.7889 64.3485 39.6449 64.3485 39.5549C64.3485 38.6819 63.7635 37.8179 62.6475 37.8179C61.5765 37.8179 60.5865 38.7089 60.5865 40.1489C60.5865 41.4089 61.4145 42.3809 62.6745 42.3809C63.4395 42.3809 64.0695 42.0299 64.5015 41.1929ZM61.4505 39.5819C61.4505 38.5919 61.9095 38.2049 62.4225 38.2049C62.9895 38.2049 63.3855 38.6189 63.4755 39.4919L61.4505 39.6179V39.5819ZM67.5569 41.9939L67.1789 41.9399C66.7919 41.8859 66.7739 41.7779 66.7739 40.7519V39.3659C67.0349 38.7719 67.3499 38.6099 67.6829 38.6099C67.9079 38.6099 68.0969 38.6819 68.4029 38.7899L68.5379 38.6999C68.6009 38.6009 68.6369 38.5019 68.6369 38.3579C68.6369 38.0879 68.4659 37.7909 68.0519 37.7909C67.5029 37.7909 67.1249 38.2139 66.7649 39.0419C66.7649 38.5739 66.7649 38.2589 66.7829 37.8629L66.7109 37.7909C66.2429 37.9079 65.8739 37.9529 65.1809 37.9529V38.2319L65.3879 38.2589C65.8649 38.3219 65.8649 38.4569 65.8649 39.8249V40.7519C65.8649 41.7959 65.8469 41.8949 65.5049 41.9399L65.1809 41.9939V42.2729C65.9459 42.2189 66.7379 42.2189 67.5569 42.2729V41.9939ZM69.2688 39.7709H71.6178V39.0869H69.2688V39.7709ZM75.9077 39.6179C76.2857 38.6279 76.5557 38.3309 76.8167 38.2589L76.9607 38.2139V37.9349C76.4027 37.9709 75.8357 37.9709 75.2867 37.9349V38.2139L75.5027 38.2679C75.8357 38.3489 75.8357 38.7719 75.5657 39.5459L74.8997 41.4359L73.9277 39.0599C73.6937 38.4929 73.7747 38.3489 74.0447 38.2769L74.2877 38.2139V37.9349C73.6127 37.9799 72.7757 37.9709 72.1097 37.9349V38.2139L72.3257 38.2679C72.5867 38.3219 72.6587 38.5019 72.9287 39.1139L74.2967 42.2639C74.4947 42.2459 74.6927 42.2459 74.8817 42.2639L75.9077 39.6179ZM79.1165 36.3959C79.1165 36.0449 78.8465 35.7749 78.4865 35.7749C78.1355 35.7749 77.8655 36.0449 77.8655 36.3959C77.8655 36.7469 78.1355 37.0259 78.4865 37.0259C78.8465 37.0259 79.1165 36.7469 79.1165 36.3959ZM78.0905 40.7519C78.0905 41.8499 78.0635 41.8679 77.6675 41.9399L77.4065 41.9939V42.2729C78.1625 42.2189 78.9545 42.2189 79.6925 42.2729V41.9939L79.4495 41.9399C79.0265 41.8589 78.9995 41.8409 78.9995 40.7519V39.5909C78.9995 39.1499 79.0085 38.3309 79.0355 37.8629L78.9635 37.7909C78.5135 37.9079 78.0995 37.9529 77.4065 37.9529V38.2319L77.6135 38.2589C78.0905 38.3219 78.0905 38.4569 78.0905 39.8249V40.7519ZM84.2857 41.1929L84.1327 41.0759C83.8087 41.4089 83.3497 41.6249 82.8547 41.6249C81.9727 41.6249 81.3607 40.9499 81.2527 39.9149H84.1147C84.1327 39.7889 84.1327 39.6449 84.1327 39.5549C84.1327 38.6819 83.5477 37.8179 82.4317 37.8179C81.3607 37.8179 80.3707 38.7089 80.3707 40.1489C80.3707 41.4089 81.1987 42.3809 82.4587 42.3809C83.2237 42.3809 83.8537 42.0299 84.2857 41.1929ZM81.2347 39.5819C81.2347 38.5919 81.6937 38.2049 82.2067 38.2049C82.7737 38.2049 83.1697 38.6189 83.2597 39.4919L81.2347 39.6179V39.5819ZM90.9712 39.5459C91.3402 38.6099 91.5652 38.3489 91.8352 38.2589L91.9792 38.2139V37.9349C91.4302 37.9709 90.8632 37.9709 90.3052 37.9349V38.2139L90.5212 38.2679C90.9082 38.3669 90.8992 38.6819 90.6292 39.4649L89.9452 41.4449L89.0992 39.0149C88.9012 38.4389 88.9282 38.3669 89.2792 38.2679L89.4772 38.2139V37.9349C88.8292 37.9799 88.0732 37.9709 87.4432 37.9349V38.2139L87.6502 38.2679C87.8662 38.3219 87.9382 38.4569 88.1632 39.0599L87.2902 41.4449L86.3902 39.0419C86.1832 38.4839 86.2282 38.3309 86.5252 38.2679L86.7412 38.2139V37.9349C86.0572 37.9799 85.2562 37.9709 84.5902 37.9349V38.2139L84.8062 38.2589C85.0672 38.3129 85.1662 38.5019 85.4092 39.0959L86.6962 42.2639C86.8762 42.2459 87.0742 42.2459 87.2542 42.2639L88.3162 39.4919L89.3692 42.2639C89.5402 42.2459 89.7202 42.2459 89.9092 42.2639L90.9712 39.5459ZM96.6264 40.6709C96.6264 41.7509 96.6084 41.8859 96.2664 41.9399L95.9334 41.9939V42.2729C96.6714 42.2279 97.5714 42.2279 98.3094 42.2729V41.9939L97.9764 41.9399C97.6344 41.8859 97.6164 41.7509 97.6164 40.6709V36.4409H98.2194C98.6784 36.4409 99.0384 36.7739 99.4074 37.7549L99.5694 38.1869L99.7944 38.1509C99.7224 37.4759 99.6684 36.7829 99.6504 36.1169C97.5534 36.1619 96.6804 36.1619 94.6014 36.1169C94.5834 36.7829 94.5294 37.4759 94.4484 38.1509L94.6824 38.1869L94.8444 37.7549C95.2044 36.7919 95.5374 36.4409 96.0144 36.4409H96.6264V40.6709ZM104.184 41.1929L104.031 41.0759C103.707 41.4089 103.248 41.6249 102.753 41.6249C101.871 41.6249 101.259 40.9499 101.151 39.9149H104.013C104.031 39.7889 104.031 39.6449 104.031 39.5549C104.031 38.6819 103.446 37.8179 102.33 37.8179C101.259 37.8179 100.269 38.7089 100.269 40.1489C100.269 41.4089 101.097 42.3809 102.357 42.3809C103.122 42.3809 103.752 42.0299 104.184 41.1929ZM101.133 39.5819C101.133 38.5919 101.592 38.2049 102.105 38.2049C102.672 38.2049 103.068 38.6189 103.158 39.4919L101.133 39.6179V39.5819ZM107.239 41.9939L106.861 41.9399C106.474 41.8859 106.456 41.7779 106.456 40.7519V39.3659C106.717 38.7719 107.032 38.6099 107.365 38.6099C107.59 38.6099 107.779 38.6819 108.085 38.7899L108.22 38.6999C108.283 38.6009 108.319 38.5019 108.319 38.3579C108.319 38.0879 108.148 37.7909 107.734 37.7909C107.185 37.7909 106.807 38.2139 106.447 39.0419C106.447 38.5739 106.447 38.2589 106.465 37.8629L106.393 37.7909C105.925 37.9079 105.556 37.9529 104.863 37.9529V38.2319L105.07 38.2589C105.547 38.3219 105.547 38.4569 105.547 39.8249V40.7519C105.547 41.7959 105.529 41.8949 105.187 41.9399L104.863 41.9939V42.2729C105.628 42.2189 106.42 42.2189 107.239 42.2729V41.9939ZM111.282 41.9939L110.904 41.9399C110.517 41.8859 110.499 41.7779 110.499 40.7519V39.3659C110.76 38.7719 111.075 38.6099 111.408 38.6099C111.633 38.6099 111.822 38.6819 112.128 38.7899L112.263 38.6999C112.326 38.6009 112.362 38.5019 112.362 38.3579C112.362 38.0879 112.191 37.7909 111.777 37.7909C111.228 37.7909 110.85 38.2139 110.49 39.0419C110.49 38.5739 110.49 38.2589 110.508 37.8629L110.436 37.7909C109.968 37.9079 109.599 37.9529 108.906 37.9529V38.2319L109.113 38.2589C109.59 38.3219 109.59 38.4569 109.59 39.8249V40.7519C109.59 41.7959 109.572 41.8949 109.23 41.9399L108.906 41.9939V42.2729C109.671 42.2189 110.463 42.2189 111.282 42.2729V41.9939ZM117.157 41.7419L117.031 41.6069C116.878 41.7509 116.734 41.8139 116.581 41.8139C116.392 41.8139 116.338 41.7149 116.338 41.3999V39.4019C116.338 38.3579 115.897 37.8179 114.925 37.8179C114.043 37.8179 113.116 38.5109 113.116 39.0959C113.116 39.4109 113.386 39.5099 113.728 39.5189L113.881 39.4739C113.809 38.5919 114.061 38.1959 114.547 38.1959C115.132 38.1959 115.429 38.7629 115.429 39.6089V39.8789L114.295 39.9959C113.368 40.0949 112.873 40.5269 112.873 41.2289C112.873 41.9219 113.386 42.3809 114.16 42.3809C114.826 42.3809 115.177 42.1199 115.465 41.7149V41.7419C115.465 42.1739 115.726 42.3809 116.086 42.3809C116.482 42.3809 116.824 42.1829 117.157 41.7419ZM114.61 41.8229C114.115 41.8229 113.764 41.4899 113.764 41.0039C113.764 40.4999 114.061 40.2389 114.772 40.2389H115.429V41.4809C115.213 41.7239 114.916 41.8229 114.61 41.8229ZM119.534 38.1959C120.119 38.1959 120.434 38.6279 120.668 39.4109L120.812 39.4649C121.118 39.4289 121.325 39.2579 121.325 38.9339C121.325 38.4029 120.704 37.8179 119.777 37.8179C118.688 37.8179 117.698 38.7089 117.698 40.1489C117.698 41.4539 118.571 42.3809 119.777 42.3809C120.488 42.3809 121.1 41.9849 121.505 41.1659L121.361 41.0489C121.019 41.4629 120.632 41.6339 120.218 41.6339C119.237 41.6339 118.571 40.8599 118.571 39.5279C118.571 38.6639 118.976 38.1959 119.534 38.1959ZM126.095 41.1929L125.942 41.0759C125.618 41.4089 125.159 41.6249 124.664 41.6249C123.782 41.6249 123.17 40.9499 123.062 39.9149H125.924C125.942 39.7889 125.942 39.6449 125.942 39.5549C125.942 38.6819 125.357 37.8179 124.241 37.8179C123.17 37.8179 122.18 38.7089 122.18 40.1489C122.18 41.4089 123.008 42.3809 124.268 42.3809C125.033 42.3809 125.663 42.0299 126.095 41.1929ZM123.044 39.5819C123.044 38.5919 123.503 38.2049 124.016 38.2049C124.583 38.2049 124.979 38.6189 125.069 39.4919L123.044 39.6179V39.5819ZM134.934 39.5459C135.303 38.6099 135.528 38.3489 135.798 38.2589L135.942 38.2139V37.9349C135.393 37.9709 134.826 37.9709 134.268 37.9349V38.2139L134.484 38.2679C134.871 38.3669 134.862 38.6819 134.592 39.4649L133.908 41.4449L133.062 39.0149C132.864 38.4389 132.891 38.3669 133.242 38.2679L133.44 38.2139V37.9349C132.792 37.9799 132.036 37.9709 131.406 37.9349V38.2139L131.613 38.2679C131.829 38.3219 131.901 38.4569 132.126 39.0599L131.253 41.4449L130.353 39.0419C130.146 38.4839 130.191 38.3309 130.488 38.2679L130.704 38.2139V37.9349C130.02 37.9799 129.219 37.9709 128.553 37.9349V38.2139L128.769 38.2589C129.03 38.3129 129.129 38.5019 129.372 39.0959L130.659 42.2639C130.839 42.2459 131.037 42.2459 131.217 42.2639L132.279 39.4919L133.332 42.2639C133.503 42.2459 133.683 42.2459 133.872 42.2639L134.934 39.5459ZM138.1 36.3959C138.1 36.0449 137.83 35.7749 137.47 35.7749C137.119 35.7749 136.849 36.0449 136.849 36.3959C136.849 36.7469 137.119 37.0259 137.47 37.0259C137.83 37.0259 138.1 36.7469 138.1 36.3959ZM137.074 40.7519C137.074 41.8499 137.047 41.8679 136.651 41.9399L136.39 41.9939V42.2729C137.146 42.2189 137.938 42.2189 138.676 42.2729V41.9939L138.433 41.9399C138.01 41.8589 137.983 41.8409 137.983 40.7519V39.5909C137.983 39.1499 137.992 38.3309 138.019 37.8629L137.947 37.7909C137.497 37.9079 137.083 37.9529 136.39 37.9529V38.2319L136.597 38.2589C137.074 38.3219 137.074 38.4569 137.074 39.8249V40.7519ZM139.192 38.0069V38.3489H139.795V40.9139C139.795 41.8409 140.011 42.3809 140.776 42.3809C141.199 42.3809 141.532 42.1829 141.955 41.5979L141.802 41.4449C141.64 41.6159 141.442 41.7599 141.208 41.7599C140.866 41.7599 140.704 41.4989 140.704 40.8689V38.3489H141.811V37.9529H140.704V36.6839L140.479 36.6569C140.245 37.4219 139.939 37.9169 139.192 38.0069ZM147.649 41.9939L147.397 41.9399C146.992 41.8679 146.965 41.8409 146.965 40.7519V39.3029C146.965 38.2049 146.317 37.8179 145.66 37.8179C144.877 37.8179 144.319 38.2319 143.959 38.6729V37.5119C143.959 37.0439 143.968 36.1709 143.995 35.6759L143.914 35.5949C143.464 35.7299 143.059 35.7659 142.357 35.7659V36.0539L142.564 36.0809C143.041 36.1439 143.05 36.3059 143.05 37.7459V40.7519C143.05 41.8319 143.023 41.8679 142.618 41.9399L142.357 41.9939V42.2729C143.113 42.2189 143.887 42.2189 144.625 42.2729V41.9939L144.382 41.9399C143.977 41.8679 143.959 41.8409 143.959 40.7519V38.9429C144.265 38.6819 144.724 38.5019 145.156 38.5019C145.651 38.5019 146.056 38.7809 146.056 39.4649V40.7519C146.056 41.8319 146.029 41.8679 145.633 41.9399L145.39 41.9849V42.2729C146.137 42.2189 146.92 42.2189 147.649 42.2729V41.9939ZM155.128 40.4549C155.128 39.6629 154.561 39.1049 153.436 38.9519C154.426 38.6999 154.741 38.1869 154.741 37.5749C154.741 36.4859 153.652 36.1169 152.248 36.1169C151.573 36.1169 151.015 36.1529 150.34 36.1169V36.4049L150.664 36.4589C150.997 36.5129 151.024 36.6479 151.024 37.7099V40.6889C151.024 41.7509 150.997 41.8769 150.664 41.9309L150.34 41.9939V42.2729C151.033 42.2279 151.771 42.2729 152.455 42.2729C154.201 42.2729 155.128 41.5349 155.128 40.4549ZM152.383 38.8889H152.014V36.4769C153.13 36.4769 153.724 36.8729 153.724 37.6739C153.724 38.4749 153.166 38.8889 152.383 38.8889ZM152.743 41.9309C152.194 41.9309 152.014 41.7509 152.014 41.0939V39.2219H152.437C153.409 39.2219 154.084 39.7079 154.084 40.5629C154.084 41.4449 153.598 41.9309 152.743 41.9309ZM160.903 40.4549C160.903 39.6629 160.336 39.1049 159.211 38.9519C160.201 38.6999 160.516 38.1869 160.516 37.5749C160.516 36.4859 159.427 36.1169 158.023 36.1169C157.348 36.1169 156.79 36.1529 156.115 36.1169V36.4049L156.439 36.4589C156.772 36.5129 156.799 36.6479 156.799 37.7099V40.6889C156.799 41.7509 156.772 41.8769 156.439 41.9309L156.115 41.9939V42.2729C156.808 42.2279 157.546 42.2729 158.23 42.2729C159.976 42.2729 160.903 41.5349 160.903 40.4549ZM158.158 38.8889H157.789V36.4769C158.905 36.4769 159.499 36.8729 159.499 37.6739C159.499 38.4749 158.941 38.8889 158.158 38.8889ZM158.518 41.9309C157.969 41.9309 157.789 41.7509 157.789 41.0939V39.2219H158.212C159.184 39.2219 159.859 39.7079 159.859 40.5629C159.859 41.4449 159.373 41.9309 158.518 41.9309ZM167.514 43.5959L167.541 43.4789C166.92 42.9029 166.038 42.5879 164.49 42.9839L166.137 42.1919C167.262 41.6519 168.018 40.7249 168.018 39.2129C168.018 37.2869 166.614 36.0089 165.003 36.0089C163.275 36.0089 161.97 37.2869 161.97 39.1769C161.97 41.1119 163.374 42.3809 164.985 42.3809H165.129L163.59 43.1189L163.689 43.3979C164.175 43.2629 164.49 43.1819 164.931 43.1819C165.687 43.1819 166.092 43.5869 166.47 44.2709C166.722 43.9829 167.136 43.7309 167.514 43.5959ZM166.965 39.6449C166.965 41.1209 166.281 41.9849 165.273 41.9849C164.031 41.9849 163.023 40.6889 163.023 38.7449C163.023 37.2869 163.707 36.4139 164.715 36.4139C165.957 36.4139 166.965 37.7099 166.965 39.6449Z" fill="#B3CBE6"/>
<path d="M499.832 149.898C500.615 149.844 501.434 149.844 502.307 149.898V149.619L501.902 149.565C501.524 149.502 501.506 149.376 501.506 148.314V147.513C503.432 147.513 504.404 146.766 504.404 145.524C504.404 144.282 503.378 143.742 501.731 143.742C501.155 143.742 500.633 143.796 499.832 143.742V144.03L500.156 144.084C500.498 144.138 500.516 144.273 500.516 145.353V148.314C500.516 149.367 500.498 149.511 500.156 149.565L499.832 149.619V149.898ZM501.506 144.102C502.775 144.12 503.378 144.633 503.378 145.65C503.378 146.649 502.775 147.144 501.506 147.153V144.102ZM507.646 149.619L507.268 149.565C506.881 149.511 506.863 149.403 506.863 148.377V146.991C507.124 146.397 507.439 146.235 507.772 146.235C507.997 146.235 508.186 146.307 508.492 146.415L508.627 146.325C508.69 146.226 508.726 146.127 508.726 145.983C508.726 145.713 508.555 145.416 508.141 145.416C507.592 145.416 507.214 145.839 506.854 146.667C506.854 146.199 506.854 145.884 506.872 145.488L506.8 145.416C506.332 145.533 505.963 145.578 505.27 145.578V145.857L505.477 145.884C505.954 145.947 505.954 146.082 505.954 147.45V148.377C505.954 149.421 505.936 149.52 505.594 149.565L505.27 149.619V149.898C506.035 149.844 506.827 149.844 507.646 149.898V149.619ZM511.458 150.006C512.7 150.006 513.735 149.115 513.735 147.738C513.735 146.226 512.664 145.443 511.548 145.443C510.315 145.443 509.28 146.352 509.28 147.729C509.28 149.241 510.342 150.006 511.458 150.006ZM511.728 149.637C510.891 149.637 510.261 148.692 510.261 147.396C510.261 146.433 510.639 145.821 511.287 145.821C512.124 145.821 512.754 146.793 512.754 148.08C512.754 149.043 512.367 149.637 511.728 149.637ZM517.036 149.619L516.658 149.556C516.127 149.457 516.082 149.358 516.082 148.287V145.974H517.171V145.578H516.082V144.66C516.082 143.913 516.253 143.58 516.577 143.58C516.919 143.58 517.081 143.895 517.306 144.48L517.45 144.525C517.693 144.507 517.891 144.372 517.891 144.075C517.891 143.724 517.432 143.265 516.73 143.265C515.803 143.265 515.173 144.066 515.173 145.317V145.578L514.597 145.632V145.974H515.173V148.287C515.173 149.376 515.155 149.502 514.813 149.565L514.489 149.619V149.898C515.263 149.853 516.271 149.844 517.036 149.898V149.619ZM521.755 148.818L521.602 148.701C521.278 149.034 520.819 149.25 520.324 149.25C519.442 149.25 518.83 148.575 518.722 147.54H521.584C521.602 147.414 521.602 147.27 521.602 147.18C521.602 146.307 521.017 145.443 519.901 145.443C518.83 145.443 517.84 146.334 517.84 147.774C517.84 149.034 518.668 150.006 519.928 150.006C520.693 150.006 521.323 149.655 521.755 148.818ZM518.704 147.207C518.704 146.217 519.163 145.83 519.676 145.83C520.243 145.83 520.639 146.244 520.729 147.117L518.704 147.243V147.207ZM524.244 149.664C523.713 149.664 523.182 149.412 522.804 148.512H522.606C522.615 148.917 522.606 149.277 522.588 149.628C522.903 149.835 523.497 150.006 524.109 150.006C525.099 150.006 525.819 149.457 525.819 148.683C525.819 147.117 523.389 147.441 523.389 146.37C523.389 146.055 523.596 145.794 524.001 145.794C524.532 145.794 524.865 146.091 525.324 146.874H525.549C525.513 146.469 525.495 146.154 525.495 145.785C525.108 145.578 524.676 145.443 524.127 145.443C523.128 145.443 522.561 145.992 522.561 146.667C522.561 148.197 525 147.9 525 149.034C525 149.394 524.748 149.664 524.244 149.664ZM528.304 149.664C527.773 149.664 527.242 149.412 526.864 148.512H526.666C526.675 148.917 526.666 149.277 526.648 149.628C526.963 149.835 527.557 150.006 528.169 150.006C529.159 150.006 529.879 149.457 529.879 148.683C529.879 147.117 527.449 147.441 527.449 146.37C527.449 146.055 527.656 145.794 528.061 145.794C528.592 145.794 528.925 146.091 529.384 146.874H529.609C529.573 146.469 529.555 146.154 529.555 145.785C529.168 145.578 528.736 145.443 528.187 145.443C527.188 145.443 526.621 145.992 526.621 146.667C526.621 148.197 529.06 147.9 529.06 149.034C529.06 149.394 528.808 149.664 528.304 149.664ZM532.266 144.021C532.266 143.67 531.996 143.4 531.636 143.4C531.285 143.4 531.015 143.67 531.015 144.021C531.015 144.372 531.285 144.651 531.636 144.651C531.996 144.651 532.266 144.372 532.266 144.021ZM531.24 148.377C531.24 149.475 531.213 149.493 530.817 149.565L530.556 149.619V149.898C531.312 149.844 532.104 149.844 532.842 149.898V149.619L532.599 149.565C532.176 149.484 532.149 149.466 532.149 148.377V147.216C532.149 146.775 532.158 145.956 532.185 145.488L532.113 145.416C531.663 145.533 531.249 145.578 530.556 145.578V145.857L530.763 145.884C531.24 145.947 531.24 146.082 531.24 147.45V148.377ZM535.698 150.006C536.94 150.006 537.975 149.115 537.975 147.738C537.975 146.226 536.904 145.443 535.788 145.443C534.555 145.443 533.52 146.352 533.52 147.729C533.52 149.241 534.582 150.006 535.698 150.006ZM535.968 149.637C535.131 149.637 534.501 148.692 534.501 147.396C534.501 146.433 534.879 145.821 535.527 145.821C536.364 145.821 536.994 146.793 536.994 148.08C536.994 149.043 536.607 149.637 535.968 149.637ZM544.048 149.619L543.796 149.565C543.391 149.493 543.364 149.457 543.364 148.377V146.928C543.364 145.83 542.716 145.443 542.05 145.443C541.276 145.443 540.718 145.857 540.358 146.298C540.367 146.001 540.376 145.704 540.385 145.488L540.313 145.416C539.863 145.533 539.449 145.578 538.756 145.578V145.857L538.963 145.884C539.431 145.947 539.44 146.091 539.44 147.459V148.377C539.44 149.457 539.413 149.493 539.017 149.565L538.756 149.619V149.898C539.503 149.844 540.295 149.844 541.024 149.898V149.619L540.781 149.565C540.376 149.493 540.349 149.457 540.349 148.377V147.225C540.349 147.054 540.349 146.82 540.358 146.568C540.664 146.307 541.123 146.127 541.555 146.127C542.05 146.127 542.455 146.406 542.455 147.09V148.377C542.455 149.457 542.428 149.493 542.032 149.565L541.789 149.61V149.898C542.536 149.844 543.31 149.844 544.048 149.898V149.619ZM549.001 149.367L548.875 149.232C548.722 149.376 548.578 149.439 548.425 149.439C548.236 149.439 548.182 149.34 548.182 149.025V147.027C548.182 145.983 547.741 145.443 546.769 145.443C545.887 145.443 544.96 146.136 544.96 146.721C544.96 147.036 545.23 147.135 545.572 147.144L545.725 147.099C545.653 146.217 545.905 145.821 546.391 145.821C546.976 145.821 547.273 146.388 547.273 147.234V147.504L546.139 147.621C545.212 147.72 544.717 148.152 544.717 148.854C544.717 149.547 545.23 150.006 546.004 150.006C546.67 150.006 547.021 149.745 547.309 149.34V149.367C547.309 149.799 547.57 150.006 547.93 150.006C548.326 150.006 548.668 149.808 549.001 149.367ZM546.454 149.448C545.959 149.448 545.608 149.115 545.608 148.629C545.608 148.125 545.905 147.864 546.616 147.864H547.273V149.106C547.057 149.349 546.76 149.448 546.454 149.448ZM551.001 148.395V145.137C551.001 144.669 551.01 143.796 551.037 143.301L550.956 143.22C550.506 143.355 550.101 143.391 549.399 143.391V143.679L549.606 143.706C550.092 143.769 550.092 143.958 550.092 145.335V148.395C550.092 149.448 550.065 149.493 549.66 149.565L549.399 149.619V149.898C550.164 149.853 550.938 149.844 551.685 149.898V149.619L551.424 149.565C551.019 149.493 551.001 149.448 551.001 148.395ZM556.059 145.353C556.059 144.273 556.077 144.138 556.419 144.084L556.743 144.03V143.742C556.032 143.787 555.096 143.787 554.385 143.742V144.03L554.709 144.084C555.042 144.138 555.069 144.273 555.069 145.353V148.323C555.069 149.385 555.042 149.511 554.709 149.565L554.385 149.619V149.898C555.096 149.853 556.032 149.853 556.743 149.898V149.619L556.419 149.565C556.077 149.511 556.059 149.385 556.059 148.323V145.353ZM560.316 149.619L560.127 149.592C559.857 149.556 559.65 149.412 559.002 148.638L557.076 146.307L558.075 145.29C558.984 144.39 559.425 144.111 559.812 144.039L560.001 144.003V143.742C559.191 143.796 558.525 143.796 557.769 143.742V144.003L557.958 144.039C558.291 144.102 558.426 144.381 557.823 145.02L556.203 146.748L558.75 149.898C559.236 149.862 559.857 149.862 560.316 149.898V149.619ZM562.483 144.021C562.483 143.67 562.213 143.4 561.853 143.4C561.502 143.4 561.232 143.67 561.232 144.021C561.232 144.372 561.502 144.651 561.853 144.651C562.213 144.651 562.483 144.372 562.483 144.021ZM561.457 148.377C561.457 149.475 561.43 149.493 561.034 149.565L560.773 149.619V149.898C561.529 149.844 562.321 149.844 563.059 149.898V149.619L562.816 149.565C562.393 149.484 562.366 149.466 562.366 148.377V147.216C562.366 146.775 562.375 145.956 562.402 145.488L562.33 145.416C561.88 145.533 561.466 145.578 560.773 145.578V145.857L560.98 145.884C561.457 145.947 561.457 146.082 561.457 147.45V148.377ZM563.575 145.632V145.974H564.178V148.539C564.178 149.466 564.394 150.006 565.159 150.006C565.582 150.006 565.915 149.808 566.338 149.223L566.185 149.07C566.023 149.241 565.825 149.385 565.591 149.385C565.249 149.385 565.087 149.124 565.087 148.494V145.974H566.194V145.578H565.087V144.309L564.862 144.282C564.628 145.047 564.322 145.542 563.575 145.632ZM568.719 145.821C569.304 145.821 569.619 146.253 569.853 147.036L569.997 147.09C570.303 147.054 570.51 146.883 570.51 146.559C570.51 146.028 569.889 145.443 568.962 145.443C567.873 145.443 566.883 146.334 566.883 147.774C566.883 149.079 567.756 150.006 568.962 150.006C569.673 150.006 570.285 149.61 570.69 148.791L570.546 148.674C570.204 149.088 569.817 149.259 569.403 149.259C568.422 149.259 567.756 148.485 567.756 147.153C567.756 146.289 568.161 145.821 568.719 145.821ZM576.514 149.619L576.262 149.565C575.857 149.493 575.83 149.466 575.83 148.377V146.928C575.83 145.83 575.182 145.443 574.525 145.443C573.742 145.443 573.184 145.857 572.824 146.298V145.137C572.824 144.669 572.833 143.796 572.86 143.301L572.779 143.22C572.329 143.355 571.924 143.391 571.222 143.391V143.679L571.429 143.706C571.906 143.769 571.915 143.931 571.915 145.371V148.377C571.915 149.457 571.888 149.493 571.483 149.565L571.222 149.619V149.898C571.978 149.844 572.752 149.844 573.49 149.898V149.619L573.247 149.565C572.842 149.493 572.824 149.466 572.824 148.377V146.568C573.13 146.307 573.589 146.127 574.021 146.127C574.516 146.127 574.921 146.406 574.921 147.09V148.377C574.921 149.457 574.894 149.493 574.498 149.565L574.255 149.61V149.898C575.002 149.844 575.785 149.844 576.514 149.898V149.619ZM581.099 148.818L580.946 148.701C580.622 149.034 580.163 149.25 579.668 149.25C578.786 149.25 578.174 148.575 578.066 147.54H580.928C580.946 147.414 580.946 147.27 580.946 147.18C580.946 146.307 580.361 145.443 579.245 145.443C578.174 145.443 577.184 146.334 577.184 147.774C577.184 149.034 578.012 150.006 579.272 150.006C580.037 150.006 580.667 149.655 581.099 148.818ZM578.048 147.207C578.048 146.217 578.507 145.83 579.02 145.83C579.587 145.83 579.983 146.244 580.073 147.117L578.048 147.243V147.207ZM587.071 149.619L586.819 149.565C586.414 149.493 586.387 149.457 586.387 148.377V146.928C586.387 145.83 585.739 145.443 585.073 145.443C584.299 145.443 583.741 145.857 583.381 146.298C583.39 146.001 583.399 145.704 583.408 145.488L583.336 145.416C582.886 145.533 582.472 145.578 581.779 145.578V145.857L581.986 145.884C582.454 145.947 582.463 146.091 582.463 147.459V148.377C582.463 149.457 582.436 149.493 582.04 149.565L581.779 149.619V149.898C582.526 149.844 583.318 149.844 584.047 149.898V149.619L583.804 149.565C583.399 149.493 583.372 149.457 583.372 148.377V147.225C583.372 147.054 583.372 146.82 583.381 146.568C583.687 146.307 584.146 146.127 584.578 146.127C585.073 146.127 585.478 146.406 585.478 147.09V148.377C585.478 149.457 585.451 149.493 585.055 149.565L584.812 149.61V149.898C585.559 149.844 586.333 149.844 587.071 149.898V149.619Z" fill="#B3CBE6"/>
<path d="M481.221 262.13C480.349 262.13 479.845 261.546 479.645 260.506L479.429 260.554C479.437 261.05 479.437 261.65 479.413 262.002C479.773 262.274 480.341 262.45 481.069 262.45C482.397 262.45 483.061 261.786 483.061 260.874C483.061 258.978 480.181 259.37 480.181 257.962C480.181 257.474 480.525 257.098 481.093 257.098C481.765 257.098 482.165 257.578 482.429 258.53L482.645 258.482C482.637 258.042 482.645 257.578 482.669 257.234C482.301 256.962 481.781 256.778 481.173 256.778C480.021 256.778 479.381 257.458 479.381 258.306C479.381 260.114 482.261 259.77 482.261 261.25C482.261 261.762 481.845 262.13 481.221 262.13ZM483.71 258.562V258.866H484.246V261.146C484.246 261.97 484.438 262.45 485.118 262.45C485.494 262.45 485.79 262.274 486.166 261.754L486.03 261.618C485.886 261.77 485.71 261.898 485.502 261.898C485.198 261.898 485.054 261.666 485.054 261.106V258.866H486.038V258.514H485.054V257.386L484.854 257.362C484.646 258.042 484.374 258.482 483.71 258.562ZM490.459 261.882L490.347 261.762C490.211 261.89 490.083 261.946 489.947 261.946C489.779 261.946 489.731 261.858 489.731 261.578V259.802C489.731 258.874 489.339 258.394 488.475 258.394C487.691 258.394 486.867 259.01 486.867 259.53C486.867 259.81 487.107 259.898 487.411 259.906L487.547 259.866C487.483 259.082 487.707 258.73 488.139 258.73C488.659 258.73 488.923 259.234 488.923 259.986V260.226L487.915 260.33C487.091 260.418 486.651 260.802 486.651 261.426C486.651 262.042 487.107 262.45 487.795 262.45C488.387 262.45 488.699 262.218 488.955 261.858V261.882C488.955 262.266 489.187 262.45 489.507 262.45C489.859 262.45 490.163 262.274 490.459 261.882ZM488.195 261.954C487.755 261.954 487.443 261.658 487.443 261.226C487.443 260.778 487.707 260.546 488.339 260.546H488.923V261.65C488.731 261.866 488.467 261.954 488.195 261.954ZM495.628 262.106L495.292 262.05C494.82 261.962 494.788 261.874 494.788 260.922V258.866H495.748V258.514H494.788V257.698C494.788 257.034 494.932 256.738 495.22 256.738C495.532 256.738 495.668 257.018 495.868 257.538L496.004 257.578C496.22 257.562 496.396 257.442 496.396 257.178C496.396 256.866 495.98 256.458 495.356 256.458C494.532 256.458 493.98 257.186 493.98 258.314V258.514H492.244V257.698C492.244 257.034 492.388 256.738 492.652 256.738C492.932 256.738 493.052 257.01 493.236 257.506L493.364 257.538C493.564 257.522 493.724 257.41 493.724 257.162C493.724 256.874 493.364 256.458 492.78 256.458C491.98 256.458 491.436 257.17 491.436 258.282V258.514L490.924 258.562V258.866H491.436V260.922C491.436 261.882 491.42 261.994 491.116 262.05L490.828 262.106V262.354C491.428 262.314 492.228 262.306 492.812 262.354V262.106L492.58 262.05C492.26 261.97 492.244 261.874 492.244 260.922V258.866H493.98V260.922C493.98 261.882 493.956 262.002 493.7 262.05L493.404 262.106V262.354C494.076 262.314 494.972 262.306 495.628 262.354V262.106Z" fill="#B3CBE6"/>
<path d="M615.066 292.168L614.778 292.12C614.474 292.072 614.458 291.952 614.458 291.008V287.264C615.49 287.28 615.986 287.624 615.986 288.376C615.986 289.12 615.602 289.464 614.602 289.72L616.466 292.408C616.866 292.392 617.354 292.392 617.754 292.408V292.16L617.57 292.112C617.306 292.056 617.25 292.016 616.786 291.384L615.522 289.656C616.41 289.44 616.898 288.992 616.898 288.328C616.898 287.368 616.026 286.944 614.642 286.944C614.138 286.944 613.682 286.992 612.97 286.944V287.2L613.258 287.248C613.562 287.296 613.578 287.416 613.578 288.376V291.008C613.578 291.944 613.562 292.072 613.258 292.12L612.97 292.168V292.416C613.634 292.368 614.33 292.368 615.066 292.416V292.168ZM620.093 292.512C621.197 292.512 622.117 291.72 622.117 290.496C622.117 289.152 621.165 288.456 620.173 288.456C619.077 288.456 618.157 289.264 618.157 290.488C618.157 291.832 619.101 292.512 620.093 292.512ZM620.333 292.184C619.589 292.184 619.029 291.344 619.029 290.192C619.029 289.336 619.365 288.792 619.941 288.792C620.685 288.792 621.245 289.656 621.245 290.8C621.245 291.656 620.901 292.184 620.333 292.184ZM624.835 292.512C625.939 292.512 626.859 291.72 626.859 290.496C626.859 289.152 625.907 288.456 624.915 288.456C623.819 288.456 622.899 289.264 622.899 290.488C622.899 291.832 623.843 292.512 624.835 292.512ZM625.075 292.184C624.331 292.184 623.771 291.344 623.771 290.192C623.771 289.336 624.107 288.792 624.683 288.792C625.427 288.792 625.987 289.656 625.987 290.8C625.987 291.656 625.643 292.184 625.075 292.184ZM634.674 292.168L634.45 292.12C634.09 292.056 634.066 292.008 634.066 291.064V289.768C634.066 288.792 633.514 288.448 632.962 288.448C632.322 288.448 631.778 288.856 631.458 289.24C631.29 288.664 630.858 288.448 630.41 288.448C629.786 288.448 629.282 288.824 628.978 289.2C628.986 288.944 628.994 288.688 629.002 288.496L628.938 288.432C628.538 288.536 628.17 288.576 627.554 288.576V288.824L627.738 288.848C628.162 288.896 628.162 289.064 628.162 290.248V291.064C628.162 292.008 628.146 292.056 627.786 292.12L627.554 292.168V292.416C628.218 292.368 628.906 292.368 629.554 292.416V292.168L629.338 292.128C628.994 292.056 628.97 292.008 628.97 291.064V290.04C628.97 289.888 628.97 289.68 628.978 289.456C629.266 289.232 629.594 289.056 629.962 289.056C630.37 289.056 630.714 289.304 630.714 289.928V291.064C630.714 292.008 630.69 292.056 630.354 292.12L630.13 292.168V292.416C630.786 292.368 631.466 292.368 632.098 292.416V292.168L631.89 292.12C631.538 292.056 631.522 292.008 631.522 291.064V289.768C631.522 289.656 631.514 289.56 631.498 289.464C631.81 289.224 632.146 289.056 632.506 289.056C632.922 289.056 633.258 289.304 633.258 289.928V291.064C633.258 292.016 633.234 292.064 632.898 292.128L632.682 292.168V292.416C633.346 292.368 634.026 292.368 634.674 292.416V292.168ZM637.267 292.192C636.395 292.192 635.891 291.608 635.691 290.568L635.475 290.616C635.483 291.112 635.483 291.712 635.459 292.064C635.819 292.336 636.387 292.512 637.115 292.512C638.443 292.512 639.107 291.848 639.107 290.936C639.107 289.04 636.227 289.432 636.227 288.024C636.227 287.536 636.571 287.16 637.139 287.16C637.811 287.16 638.211 287.64 638.475 288.592L638.691 288.544C638.683 288.104 638.691 287.64 638.715 287.296C638.347 287.024 637.827 286.84 637.219 286.84C636.067 286.84 635.427 287.52 635.427 288.368C635.427 290.176 638.307 289.832 638.307 291.312C638.307 291.824 637.891 292.192 637.267 292.192ZM643.379 291.456L643.243 291.352C642.955 291.648 642.547 291.84 642.107 291.84C641.323 291.84 640.779 291.24 640.683 290.32H643.227C643.243 290.208 643.243 290.08 643.243 290C643.243 289.224 642.723 288.456 641.731 288.456C640.779 288.456 639.899 289.248 639.899 290.528C639.899 291.648 640.635 292.512 641.755 292.512C642.435 292.512 642.995 292.2 643.379 291.456ZM640.667 290.024C640.667 289.144 641.075 288.8 641.531 288.8C642.035 288.8 642.387 289.168 642.467 289.944L640.667 290.056V290.024ZM646.095 292.168L645.759 292.12C645.415 292.072 645.399 291.976 645.399 291.064V289.832C645.631 289.304 645.911 289.16 646.207 289.16C646.407 289.16 646.575 289.224 646.847 289.32L646.967 289.24C647.023 289.152 647.055 289.064 647.055 288.936C647.055 288.696 646.903 288.432 646.535 288.432C646.047 288.432 645.711 288.808 645.391 289.544C645.391 289.128 645.391 288.848 645.407 288.496L645.343 288.432C644.927 288.536 644.599 288.576 643.983 288.576V288.824L644.167 288.848C644.591 288.904 644.591 289.024 644.591 290.24V291.064C644.591 291.992 644.575 292.08 644.271 292.12L643.983 292.168V292.416C644.663 292.368 645.367 292.368 646.095 292.416V292.168ZM650.737 290.056C651.073 289.176 651.313 288.912 651.545 288.848L651.673 288.808V288.56C651.177 288.592 650.673 288.592 650.185 288.56V288.808L650.377 288.856C650.673 288.928 650.673 289.304 650.433 289.992L649.841 291.672L648.977 289.56C648.769 289.056 648.841 288.928 649.081 288.864L649.297 288.808V288.56C648.697 288.6 647.953 288.592 647.361 288.56V288.808L647.553 288.856C647.785 288.904 647.849 289.064 648.089 289.608L649.305 292.408C649.481 292.392 649.657 292.392 649.825 292.408L650.737 290.056ZM653.589 287.192C653.589 286.88 653.349 286.64 653.029 286.64C652.717 286.64 652.477 286.88 652.477 287.192C652.477 287.504 652.717 287.752 653.029 287.752C653.349 287.752 653.589 287.504 653.589 287.192ZM652.677 291.064C652.677 292.04 652.653 292.056 652.301 292.12L652.069 292.168V292.416C652.741 292.368 653.445 292.368 654.101 292.416V292.168L653.885 292.12C653.509 292.048 653.485 292.032 653.485 291.064V290.032C653.485 289.64 653.493 288.912 653.517 288.496L653.453 288.432C653.053 288.536 652.685 288.576 652.069 288.576V288.824L652.253 288.848C652.677 288.904 652.677 289.024 652.677 290.24V291.064ZM656.336 288.792C656.856 288.792 657.136 289.176 657.344 289.872L657.472 289.92C657.744 289.888 657.928 289.736 657.928 289.448C657.928 288.976 657.376 288.456 656.552 288.456C655.584 288.456 654.704 289.248 654.704 290.528C654.704 291.688 655.48 292.512 656.552 292.512C657.184 292.512 657.728 292.16 658.088 291.432L657.96 291.328C657.656 291.696 657.312 291.848 656.944 291.848C656.072 291.848 655.48 291.16 655.48 289.976C655.48 289.208 655.84 288.792 656.336 288.792ZM662.168 291.456L662.032 291.352C661.744 291.648 661.336 291.84 660.896 291.84C660.112 291.84 659.568 291.24 659.472 290.32H662.016C662.032 290.208 662.032 290.08 662.032 290C662.032 289.224 661.512 288.456 660.52 288.456C659.568 288.456 658.688 289.248 658.688 290.528C658.688 291.648 659.424 292.512 660.544 292.512C661.224 292.512 661.784 292.2 662.168 291.456ZM659.456 290.024C659.456 289.144 659.864 288.8 660.32 288.8C660.824 288.8 661.176 289.168 661.256 289.944L659.456 290.056V290.024Z" fill="#B3CBE6"/>
<path d="M611.817 369.347C612.513 369.299 613.241 369.299 614.017 369.347V369.099L613.657 369.051C613.321 368.995 613.305 368.883 613.305 367.939V367.227C615.017 367.227 615.881 366.563 615.881 365.459C615.881 364.355 614.969 363.875 613.505 363.875C612.993 363.875 612.529 363.923 611.817 363.875V364.131L612.105 364.179C612.409 364.227 612.425 364.347 612.425 365.307V367.939C612.425 368.875 612.409 369.003 612.105 369.051L611.817 369.099V369.347ZM613.305 364.195C614.433 364.211 614.969 364.667 614.969 365.571C614.969 366.459 614.433 366.899 613.305 366.907V364.195ZM620.39 368.875L620.278 368.755C620.142 368.883 620.014 368.939 619.878 368.939C619.71 368.939 619.662 368.851 619.662 368.571V366.795C619.662 365.867 619.27 365.387 618.406 365.387C617.622 365.387 616.798 366.003 616.798 366.523C616.798 366.803 617.038 366.891 617.342 366.899L617.478 366.859C617.414 366.075 617.638 365.723 618.07 365.723C618.59 365.723 618.854 366.227 618.854 366.979V367.219L617.846 367.323C617.022 367.411 616.582 367.795 616.582 368.419C616.582 369.035 617.038 369.443 617.726 369.443C618.318 369.443 618.63 369.211 618.886 368.851V368.875C618.886 369.259 619.118 369.443 619.438 369.443C619.79 369.443 620.094 369.267 620.39 368.875ZM618.126 368.947C617.686 368.947 617.374 368.651 617.374 368.219C617.374 367.771 617.638 367.539 618.27 367.539H618.854V368.643C618.662 368.859 618.398 368.947 618.126 368.947ZM625.487 369.099L625.263 369.051C624.903 368.987 624.879 368.955 624.879 367.995V366.707C624.879 365.731 624.303 365.387 623.711 365.387C623.023 365.387 622.527 365.755 622.207 366.147C622.215 365.883 622.223 365.619 622.231 365.427L622.167 365.363C621.767 365.467 621.399 365.507 620.783 365.507V365.755L620.967 365.779C621.383 365.835 621.391 365.963 621.391 367.179V367.995C621.391 368.955 621.367 368.987 621.015 369.051L620.783 369.099V369.347C621.447 369.299 622.151 369.299 622.799 369.347V369.099L622.583 369.051C622.223 368.987 622.199 368.955 622.199 367.995V366.971C622.199 366.819 622.199 366.611 622.207 366.387C622.479 366.155 622.887 365.995 623.271 365.995C623.711 365.995 624.071 366.243 624.071 366.851V367.995C624.071 368.955 624.047 368.987 623.695 369.051L623.479 369.091V369.347C624.143 369.299 624.831 369.299 625.487 369.347V369.099ZM625.938 365.555V365.859H626.474V368.139C626.474 368.963 626.666 369.443 627.346 369.443C627.722 369.443 628.018 369.267 628.394 368.747L628.258 368.611C628.114 368.763 627.938 368.891 627.73 368.891C627.426 368.891 627.282 368.659 627.282 368.099V365.859H628.266V365.507H627.282V364.379L627.082 364.355C626.874 365.035 626.602 365.475 625.938 365.555ZM630.903 369.099L630.567 369.051C630.223 369.003 630.207 368.907 630.207 367.995V366.763C630.439 366.235 630.719 366.091 631.015 366.091C631.215 366.091 631.383 366.155 631.655 366.251L631.775 366.171C631.831 366.083 631.863 365.995 631.863 365.867C631.863 365.627 631.711 365.363 631.343 365.363C630.855 365.363 630.519 365.739 630.199 366.475C630.199 366.059 630.199 365.779 630.215 365.427L630.151 365.363C629.735 365.467 629.407 365.507 628.791 365.507V365.755L628.975 365.779C629.399 365.835 629.399 365.955 629.399 367.171V367.995C629.399 368.923 629.383 369.011 629.079 369.051L628.791 369.099V369.347C629.471 369.299 630.175 369.299 630.903 369.347V369.099ZM634.553 369.307L635.505 366.963C635.873 366.059 636.057 365.835 636.297 365.771L636.425 365.739V365.491C635.961 365.523 635.465 365.523 634.985 365.491V365.739L635.193 365.795C635.457 365.867 635.497 366.131 635.217 366.883L634.609 368.507L633.753 366.483C633.561 366.019 633.561 365.867 633.873 365.787L634.073 365.739V365.491C633.457 365.531 632.769 365.523 632.169 365.491V365.739C632.545 365.803 632.633 365.931 632.897 366.531L634.081 369.251H634.329L634.305 369.323C633.953 370.243 633.473 370.363 632.609 370.403L632.545 370.523C632.545 370.819 632.681 371.123 633.073 371.123C633.521 371.123 633.929 370.843 634.553 369.307Z" fill="#B3CBE6"/>
<path d="M565.488 456.767L565.164 456.713C564.822 456.659 564.804 456.524 564.804 455.462V451.25C565.965 451.268 566.523 451.655 566.523 452.501C566.523 453.338 566.091 453.725 564.966 454.013L567.063 457.037C567.513 457.019 568.062 457.019 568.512 457.037V456.758L568.305 456.704C568.008 456.641 567.945 456.596 567.423 455.885L566.001 453.941C567 453.698 567.549 453.194 567.549 452.447C567.549 451.367 566.568 450.89 565.011 450.89C564.444 450.89 563.931 450.944 563.13 450.89V451.178L563.454 451.232C563.796 451.286 563.814 451.421 563.814 452.501V455.462C563.814 456.515 563.796 456.659 563.454 456.713L563.13 456.767V457.046C563.877 456.992 564.66 456.992 565.488 457.046V456.767ZM572.881 455.966L572.728 455.849C572.404 456.182 571.945 456.398 571.45 456.398C570.568 456.398 569.956 455.723 569.848 454.688H572.71C572.728 454.562 572.728 454.418 572.728 454.328C572.728 453.455 572.143 452.591 571.027 452.591C569.956 452.591 568.966 453.482 568.966 454.922C568.966 456.182 569.794 457.154 571.054 457.154C571.819 457.154 572.449 456.803 572.881 455.966ZM569.83 454.355C569.83 453.365 570.289 452.978 570.802 452.978C571.369 452.978 571.765 453.392 571.855 454.265L569.83 454.391V454.355ZM575.369 456.812C574.838 456.812 574.307 456.56 573.929 455.66H573.731C573.74 456.065 573.731 456.425 573.713 456.776C574.028 456.983 574.622 457.154 575.234 457.154C576.224 457.154 576.944 456.605 576.944 455.831C576.944 454.265 574.514 454.589 574.514 453.518C574.514 453.203 574.721 452.942 575.126 452.942C575.657 452.942 575.99 453.239 576.449 454.022H576.674C576.638 453.617 576.62 453.302 576.62 452.933C576.233 452.726 575.801 452.591 575.252 452.591C574.253 452.591 573.686 453.14 573.686 453.815C573.686 455.345 576.125 455.048 576.125 456.182C576.125 456.542 575.873 456.812 575.369 456.812ZM577.558 452.78V453.122H578.161V455.687C578.161 456.614 578.377 457.154 579.142 457.154C579.565 457.154 579.898 456.956 580.321 456.371L580.168 456.218C580.006 456.389 579.808 456.533 579.574 456.533C579.232 456.533 579.07 456.272 579.07 455.642V453.122H580.177V452.726H579.07V451.457L578.845 451.43C578.611 452.195 578.305 452.69 577.558 452.78ZM583.143 456.767L582.765 456.713C582.378 456.659 582.36 456.551 582.36 455.525V454.139C582.621 453.545 582.936 453.383 583.269 453.383C583.494 453.383 583.683 453.455 583.989 453.563L584.124 453.473C584.187 453.374 584.223 453.275 584.223 453.131C584.223 452.861 584.052 452.564 583.638 452.564C583.089 452.564 582.711 452.987 582.351 453.815C582.351 453.347 582.351 453.032 582.369 452.636L582.297 452.564C581.829 452.681 581.46 452.726 580.767 452.726V453.005L580.974 453.032C581.451 453.095 581.451 453.23 581.451 454.598V455.525C581.451 456.569 581.433 456.668 581.091 456.713L580.767 456.767V457.046C581.532 456.992 582.324 456.992 583.143 457.046V456.767ZM586.955 457.154C588.197 457.154 589.232 456.263 589.232 454.886C589.232 453.374 588.161 452.591 587.045 452.591C585.812 452.591 584.777 453.5 584.777 454.877C584.777 456.389 585.839 457.154 586.955 457.154ZM587.225 456.785C586.388 456.785 585.758 455.84 585.758 454.544C585.758 453.581 586.136 452.969 586.784 452.969C587.621 452.969 588.251 453.941 588.251 455.228C588.251 456.191 587.864 456.785 587.225 456.785ZM592.29 457.154C593.532 457.154 594.567 456.263 594.567 454.886C594.567 453.374 593.496 452.591 592.38 452.591C591.147 452.591 590.112 453.5 590.112 454.877C590.112 456.389 591.174 457.154 592.29 457.154ZM592.56 456.785C591.723 456.785 591.093 455.84 591.093 454.544C591.093 453.581 591.471 452.969 592.119 452.969C592.956 452.969 593.586 453.941 593.586 455.228C593.586 456.191 593.199 456.785 592.56 456.785ZM603.358 456.767L603.106 456.713C602.701 456.641 602.674 456.587 602.674 455.525V454.067C602.674 452.969 602.053 452.582 601.432 452.582C600.712 452.582 600.1 453.041 599.74 453.473C599.551 452.825 599.065 452.582 598.561 452.582C597.859 452.582 597.292 453.005 596.95 453.428C596.959 453.14 596.968 452.852 596.977 452.636L596.905 452.564C596.455 452.681 596.041 452.726 595.348 452.726V453.005L595.555 453.032C596.032 453.086 596.032 453.275 596.032 454.607V455.525C596.032 456.587 596.014 456.641 595.609 456.713L595.348 456.767V457.046C596.095 456.992 596.869 456.992 597.598 457.046V456.767L597.355 456.722C596.968 456.641 596.941 456.587 596.941 455.525V454.373C596.941 454.202 596.941 453.968 596.95 453.716C597.274 453.464 597.643 453.266 598.057 453.266C598.516 453.266 598.903 453.545 598.903 454.247V455.525C598.903 456.587 598.876 456.641 598.498 456.713L598.246 456.767V457.046C598.984 456.992 599.749 456.992 600.46 457.046V456.767L600.226 456.713C599.83 456.641 599.812 456.587 599.812 455.525V454.067C599.812 453.941 599.803 453.833 599.785 453.725C600.136 453.455 600.514 453.266 600.919 453.266C601.387 453.266 601.765 453.545 601.765 454.247V455.525C601.765 456.596 601.738 456.65 601.36 456.722L601.117 456.767V457.046C601.864 456.992 602.629 456.992 603.358 457.046V456.767Z" fill="#B3CBE6"/>
<path d="M5.67285 325.436V383.099" stroke="#CCCABC" stroke-width="0.5" stroke-linecap="round" stroke-linejoin="round"/>
<path d="M0.515625 383.099V325.436" stroke="#CCCABC" stroke-width="0.5" stroke-linecap="round" stroke-linejoin="round"/>
<path d="M431.524 490.466H373.873" stroke="#CCCABC" stroke-width="0.5" stroke-linecap="round" stroke-linejoin="round"/>
<path d="M373.873 485.311H431.524" stroke="#CCCABC" stroke-width="0.5" stroke-linecap="round" stroke-linejoin="round"/>
<path d="M5.67285 261.585V319.249" stroke="#CCCABC" stroke-width="0.5" stroke-linecap="round" stroke-linejoin="round"/>
<path d="M0.515625 319.249V261.585" stroke="#CCCABC" stroke-width="0.5" stroke-linecap="round" stroke-linejoin="round"/>
<path d="M5.67285 197.735V255.399" stroke="#CCCABC" stroke-width="0.5" stroke-linecap="round" stroke-linejoin="round"/>
<path d="M0.515625 255.399V197.735" stroke="#CCCABC" stroke-width="0.5" stroke-linecap="round" stroke-linejoin="round"/>
<path d="M5.67285 133.886V191.549" stroke="#CCCABC" stroke-width="0.5" stroke-linecap="round" stroke-linejoin="round"/>
<path d="M0.515625 191.549V133.886" stroke="#CCCABC" stroke-width="0.5" stroke-linecap="round" stroke-linejoin="round"/>
<path d="M5.67285 70.0356V127.699" stroke="#CCCABC" stroke-width="0.5" stroke-linecap="round" stroke-linejoin="round"/>
<path d="M0.515625 127.699V70.0356" stroke="#CCCABC" stroke-width="0.5" stroke-linecap="round" stroke-linejoin="round"/>
<path d="M5.67285 6.18555V63.8487" stroke="#CCCABC" stroke-width="0.5" stroke-linecap="round" stroke-linejoin="round"/>
<path d="M0.515625 63.8487V6.18555" stroke="#CCCABC" stroke-width="0.5" stroke-linecap="round" stroke-linejoin="round"/>
<path d="M325.515 6.18555V39.2785" stroke="#CCCABC" stroke-width="0.5" stroke-linecap="round" stroke-linejoin="round"/>
<path d="M320.359 39.2785V6.18555" stroke="#CCCABC" stroke-width="0.5" stroke-linecap="round" stroke-linejoin="round"/>
<path d="M325.515 45.4653V78.5583" stroke="#CCCABC" stroke-width="0.5" stroke-linecap="round" stroke-linejoin="round"/>
<path d="M320.359 78.5583V45.4653" stroke="#CCCABC" stroke-width="0.5" stroke-linecap="round" stroke-linejoin="round"/>
<path d="M63.9687 5.66992H6.18604" stroke="#CCCABC" stroke-width="0.5" stroke-linecap="round" stroke-linejoin="round"/>
<path d="M6.18604 0.514648H63.9687" stroke="#CCCABC" stroke-width="0.5" stroke-linecap="round" stroke-linejoin="round"/>
<path d="M127.937 5.66992H70.1548" stroke="#CCCABC" stroke-width="0.5" stroke-linecap="round" stroke-linejoin="round"/>
<path d="M70.1553 0.514648H127.938" stroke="#CCCABC" stroke-width="0.5" stroke-linecap="round" stroke-linejoin="round"/>
<path d="M191.907 5.66992H134.125" stroke="#CCCABC" stroke-width="0.5" stroke-linecap="round" stroke-linejoin="round"/>
<path d="M134.125 0.514648H191.907" stroke="#CCCABC" stroke-width="0.5" stroke-linecap="round" stroke-linejoin="round"/>
<path d="M255.877 5.66992H198.094" stroke="#CCCABC" stroke-width="0.5" stroke-linecap="round" stroke-linejoin="round"/>
<path d="M198.094 0.514648H255.876" stroke="#CCCABC" stroke-width="0.5" stroke-linecap="round" stroke-linejoin="round"/>
<path d="M344.184 369.779H192.445C155.995 369.779 147.069 360.852 147.069 324.405C147.069 287.956 155.996 279.029 192.445 279.029H344.184C380.634 279.029 389.56 287.956 389.56 324.405C389.56 360.852 380.634 369.779 344.184 369.779Z" stroke="#B3CBE6" stroke-width="0.5" stroke-linecap="round" stroke-linejoin="round"/>
<path d="M237.306 216.995H188.668C152.221 216.995 143.293 208.07 143.293 171.621C143.293 135.171 152.221 126.247 188.668 126.247H237.306C273.755 126.247 282.681 135.171 282.681 171.621C282.682 208.07 273.758 216.995 237.306 216.995Z" stroke="#B3CBE6" stroke-width="0.5" stroke-linecap="round" stroke-linejoin="round"/>
<path d="M416.1 157.787V185.457C416.1 221.904 407.173 230.831 370.726 230.831C334.277 230.831 325.351 221.904 325.351 185.457V157.787C325.351 121.34 334.278 112.413 370.726 112.413C407.173 112.414 416.1 121.341 416.1 157.787Z" stroke="#B3CBE6" stroke-width="0.5" stroke-linecap="round" stroke-linejoin="round"/>
<path d="M665.574 387.701V404.304H595.263V262.897C595.262 262.35 595.045 261.826 594.659 261.439C594.272 261.053 593.748 260.835 593.201 260.835H591.139C590.592 260.835 590.068 261.052 589.681 261.439C589.295 261.826 589.077 262.35 589.077 262.897V298.398H587.331V303.561C587.332 303.827 587.436 304.082 587.621 304.272C587.806 304.463 588.057 304.574 588.322 304.584H589.081V404.303H587.335V415.649C587.336 415.919 587.443 416.178 587.633 416.37C587.822 416.561 588.08 416.671 588.349 416.675H589.085V439.139C589.085 439.686 589.303 440.211 589.689 440.597C590.076 440.984 590.6 441.201 591.147 441.201H593.209C593.756 441.201 594.28 440.984 594.667 440.597C595.053 440.21 595.27 439.686 595.271 439.139V416.677H665.582V445.328H677.954V387.704L665.574 387.701Z" fill="#CCCABC"/>
<path d="M538.879 227.841H552.272C552.819 227.841 553.344 227.624 553.73 227.238C554.117 226.851 554.334 226.326 554.334 225.78V215.469H447.03V196.366H440.844V334.521C440.845 335.068 441.062 335.592 441.449 335.979C441.835 336.366 442.359 336.583 442.906 336.583H447.03V304.585H552.272C552.819 304.585 553.344 304.368 553.73 303.981C554.117 303.594 554.334 303.07 554.334 302.523V298.399H548.968V262.898C548.968 262.627 548.915 262.359 548.811 262.109C548.708 261.859 548.556 261.632 548.364 261.44C548.173 261.249 547.946 261.097 547.695 260.993C547.445 260.89 547.177 260.836 546.906 260.836H542.783V298.399H447.03V227.841H538.879Z" fill="#CCCABC"/>
<path d="M469.132 404.305H447.03V369.577H442.907C442.36 369.577 441.836 369.795 441.449 370.181C441.063 370.568 440.845 371.092 440.845 371.639V404.305H307.102V416.682H437.751V424.712H448.062C448.609 424.712 449.133 424.494 449.52 424.108C449.906 423.721 450.123 423.197 450.124 422.65V416.682H471.194V406.366C471.193 405.82 470.976 405.295 470.589 404.909C470.203 404.522 469.678 404.305 469.132 404.305Z" fill="#CCCABC"/>
</svg>
