<svg width="326" height="379" viewBox="0 0 326 379" fill="none" xmlns="http://www.w3.org/2000/svg">
<path d="M193.535 49.609C192.835 48.4566 192.299 47.2104 191.557 46.0465C189.288 42.5434 186.581 39.4734 183.393 36.8251L183.405 36.7823C183.405 36.7823 183.405 36.7823 183.393 36.8251C182.832 36.3527 182.259 35.9231 181.687 35.4935C177.538 32.4948 173.467 29.3791 169.253 26.4545C164.805 23.3752 159.99 20.9776 154.727 19.5616C154.214 19.4234 153.735 19.1568 153.333 18.7733C151.217 16.9183 149.155 15.032 147.051 13.1342C145.102 11.508 142.803 10.8435 140.289 10.8096C137.087 10.7744 134.011 11.4619 130.892 12.1379C130.753 12.1462 130.609 12.3373 130.575 12.4657C130.382 13.0108 130.014 13.187 129.466 13.1773C129.1 13.1709 128.735 13.1644 128.432 13.2665C128.172 13.3802 127.952 13.6882 127.883 13.9451C127.848 14.0735 128.187 14.3484 128.389 14.4488C129.059 14.8586 129.806 15.1514 130.422 15.5925C130.687 15.8015 130.808 16.2016 130.996 16.5276C130.693 16.6297 130.39 16.7319 130.111 16.7485C128.658 16.8625 127.122 16.7708 125.72 17.0363C123.607 17.386 121.565 17.9843 119.449 18.5168C115.519 19.4795 111.617 20.6794 108.025 22.6052C98.8653 27.4867 92.8307 34.9078 89.6758 44.7566C88.2753 49.1088 87.6564 53.6255 87.811 58.1666C87.8439 58.7264 87.9739 59.2664 88.1581 59.7751C88.507 60.6954 88.7044 61.6668 88.4082 62.5972C88.0198 63.8701 87.5031 65.1084 86.955 66.2925C86.3725 67.6049 85.7899 68.9174 85.8606 70.3597C85.9445 72.2647 86.1567 74.2043 86.4348 76.0697C86.7128 77.9352 87.4451 79.6474 89.112 80.7846C89.4198 81.0051 89.7703 81.2372 90.0895 81.4149C90.2179 81.4495 90.3462 81.484 90.4318 81.507C91.0473 80.7544 91.0621 80.5288 90.5619 79.6596C90.3743 79.3336 90.1011 78.9846 89.9678 78.6274C89.8658 78.3245 89.8724 77.9589 89.879 77.5934C89.8592 77.4962 90.0567 77.2739 90.1423 77.2969C90.8812 77.4498 90.8598 76.8472 90.975 76.4191C91.0787 76.0338 91.1593 75.7341 91.6843 75.8294C91.8126 75.8639 92.0644 75.6103 92.1105 75.439C92.3327 74.4428 92.5186 74.2633 93.5866 74.0456C93.608 73.4545 93.9339 73.2667 94.5131 73.3308C94.8669 73.3801 95.1895 73.375 95.3474 72.9584C95.382 72.83 95.619 72.8019 95.7704 72.7508C96.2789 72.5662 96.7874 72.3817 97.2959 72.1971C98.9185 71.6236 100.549 71.1901 102.327 71.5765C102.455 71.611 102.661 71.5286 102.781 71.4232C103.141 71.107 103.483 71.1991 103.768 71.5053C104.232 71.9974 104.68 72.2097 105.16 71.7881C105.767 72.0892 106.332 72.3788 106.854 72.6569C107.364 72.9778 108.037 73.2049 108.372 73.6625C108.856 74.2518 109.463 74.5529 110.071 74.8541C110.316 74.966 110.716 74.844 110.953 74.8159C110.443 73.3013 109.983 71.9381 109.524 70.5749C108.904 68.6174 108.012 66.8163 106.686 65.2657C105.453 63.878 104.101 62.5958 102.791 61.325C101.079 59.6708 99.3138 58.0478 97.6139 56.3508C97.2552 55.9788 97.0281 55.4585 96.8866 54.9613C96.3715 53.124 96.4045 51.2963 96.76 49.4636C97.1583 47.6424 97.6619 45.9414 99.1265 44.5908C101.017 42.8498 103.107 41.392 105.706 40.9434C106.094 40.8642 106.459 40.8707 106.848 40.7916C106.9 41.4485 106.7 41.8536 106.285 42.2012C106.165 42.3066 106.087 42.4235 105.999 42.5832C105.864 42.9142 105.74 43.2024 105.648 43.5449C105.579 43.8018 105.467 44.0472 105.452 44.2728C105.53 45.3496 105.661 46.3951 105.77 47.5262C108.217 47.1287 110.628 46.3541 112.772 44.8649C113.392 44.435 113.962 43.8536 114.582 43.4237C116.126 42.4616 117.747 42.5764 119.369 43.1967C121.653 44.0868 123.722 45.6075 126.322 45.6644C126.284 45.9756 126.3 46.2555 126.243 46.4696C125.968 48.0026 125.214 49.269 124.289 50.4893C124.146 50.6804 124.089 50.8944 124 51.0542C124.062 51.1628 124.179 51.2402 124.242 51.3488C124.385 51.1578 124.528 50.9668 124.702 50.83C125.509 50.2206 126.284 49.5568 127.164 49.0132C127.99 48.5009 128.902 48.0116 129.822 47.6622C130.288 47.4661 130.898 47.5845 131.415 47.5399C131.359 49.4532 131.295 51.2265 131.23 52.9999C131.68 52.5239 132.152 51.9623 132.656 51.455C133.38 50.6397 134.092 49.8673 134.89 49.1179C135.088 48.8955 135.519 48.8279 135.83 48.8657C138.521 49.2683 141.2 49.7137 143.933 50.1278C144.94 50.3069 145.959 50.4433 147.106 50.6142C146.622 51.2186 146.215 51.7061 145.809 52.1936C145.027 53.2229 144.203 54.2407 143.452 55.3244C143.077 55.8662 142.936 56.5627 142.284 56.9383C142.284 56.9383 142.304 57.0355 142.312 57.1754C142.56 57.1045 142.797 57.0765 143.003 56.9941C144.055 56.4965 145.044 55.8903 146.115 55.4899C147.446 54.9758 148.883 54.5818 150.288 54.1335C150.44 54.0824 150.591 54.0313 150.708 54.1087C151.284 54.3555 151.718 54.1051 152.176 53.7691C152.459 53.5698 152.816 53.4363 153.204 53.3571C154.035 53.1675 154.886 53.0751 155.748 52.9398C155.942 52.9002 156.183 52.6894 156.24 52.4753C156.433 51.9303 156.775 52.0224 157.183 52.0403C160.142 52.4692 162.986 53.3262 165.841 54.1404C168.342 54.9053 170.878 55.5417 173.457 56.1897C174.141 56.3739 174.892 56.484 175.634 56.4541C177.569 56.4239 179.496 56.2537 181.408 56.3091C184.276 56.3922 187.105 56.281 189.7 54.8214C191.058 54.0389 192.447 53.3107 193.395 52.0048C193.844 51.5288 194.183 50.6099 193.535 49.609Z" fill="#182B34"/>
<path d="M71.4544 213.85C67.9693 214.519 64.0757 214.073 59.6983 213.243C53.8976 218.401 54.9267 217.361 46.6927 215.125C39.6151 216.271 40.6958 223.874 16.1763 224.163C15.1196 226.099 35.5915 228.545 35.0041 230.848C34.4011 233.212 40.6205 258.729 48.8373 242.874C49.083 246.797 52.55 250.089 53.2095 253.927C54.3437 260.527 59.8224 247.855 61.2739 254.343C62.1485 258.253 63.1361 262.036 64.3102 265.816C65.7116 270.328 66.3147 275.145 67.8416 279.615C71.4564 290.195 75.5812 301.009 82.4543 308.972C86.6698 313.855 92.1846 316.433 97.688 318.357L98.2042 318.538C103.286 320.316 108.347 322.086 113.555 323.29C120.41 324.874 127.352 326.914 134.357 327.247C142.393 327.629 150.499 327.534 158.546 327.056C178.394 325.877 197.809 320.075 216.879 313.2C226.426 309.759 235.709 306.265 244.516 300.335C250.632 296.219 256.86 291.619 262.137 285.966C271.717 275.7 279.863 263.643 285.664 249.734C289.132 241.418 308.866 243.361 307.442 234.16C305.825 223.71 307.311 226.655 294.759 223.29C279.743 223.467 251.091 219.437 233.87 206.932C232.149 205.682 230.136 205.135 228.415 203.859C226.585 202.502 224.794 202.867 222.75 203.448L216.961 205.093C215.366 205.546 212.047 206.349 210.828 204.738C210.278 204.011 208.982 203.714 208.224 203.36C207.378 202.967 206.32 202.237 205.349 202.448C203.781 202.789 202.187 203.363 201.287 205.079C199.09 209.268 200.441 214.694 197.148 217.988C195.684 219.453 192.614 217.317 191.614 216.491C189.863 215.044 187.187 214.384 185.697 212.578C184.294 210.878 182.682 209.469 181.392 207.507C180.75 206.53 179.782 205.344 178.972 204.524C178.588 204.134 178.432 203.167 177.973 202.962C177.56 202.778 177.107 202.833 176.707 202.623C175.541 202.011 173.025 203.241 171.788 203.593C169.947 204.116 168.115 203.046 166.432 202.395C165.111 201.884 163.224 199.428 162.775 197.762C162.512 196.786 161.926 196.149 161.743 195.083C161.595 194.226 161.141 192.769 160.713 192.054C159.664 190.296 159.794 188.818 157.625 189.435C156.048 189.883 154.962 190.537 153.718 191.672C152.607 192.685 149.801 192.848 148.624 191.993C147.147 190.92 145.442 189.531 143.8 188.895C142.65 188.45 140.928 188.576 139.898 187.829C139.486 187.53 137.896 185.584 138.825 185.006C138.928 184.941 138.43 185.085 138.186 184.896C137.865 184.647 137.638 184.259 137.256 184.111C136.111 183.668 134.648 180.588 134.418 179.246C134.031 176.994 133.557 174.867 133.272 172.578C132.788 168.698 136.358 165.611 137.824 162.815C138.246 162.012 139.353 160.847 139.362 159.833C139.374 158.649 138.47 158.82 137.924 158.396C137.001 157.681 135.897 155.91 134.931 155.595C133.232 155.04 131.947 154.294 130.771 152.659C130.156 151.804 129.577 151.22 128.78 150.602C127.946 149.955 126.749 150.654 125.83 150.915C124.27 151.359 122.192 153.053 122.572 155.26C122.699 156 122.844 157.524 123.452 157.885C123.749 158.062 124.743 159.572 124.808 159.948C125.157 161.983 125.109 164.173 123.802 165.75C122.858 166.888 121.449 168.851 121.111 170.439C120.74 172.184 120.015 174.858 120.236 176.632C120.431 178.195 120.47 181.866 119.888 183.297C119.214 184.952 118.48 186.419 117.248 187.543C116.079 188.61 114.348 188.795 112.893 189.208C111.782 189.524 109.002 189.721 108.3 190.785C107.884 191.416 107.278 191.637 106.938 192.474C106.603 193.296 106.28 194.196 105.873 194.971C105.07 196.502 104.242 199.07 103.745 200.899C103.259 202.681 101.491 204.193 100.274 205.304C99.1386 206.34 97.5109 206.582 96.3796 207.615C95.3616 208.544 93.4236 209.426 92.1744 209.781C88.8228 210.733 85.6991 212.79 82.3551 211.998C80.6335 211.59 78.6578 212.657 76.9047 212.924L76.8777 212.928C76.1563 213.038 73.9032 213.38 71.4544 213.85Z" fill="#182B34"/>
<path d="M109.255 166.165C109.813 166.006 110.542 165.512 111.112 165.35C111.502 165.239 112.392 164.495 112.29 163.901C112.195 163.346 112.159 162.217 111.782 161.865C111.473 161.577 111.323 161.109 110.97 160.835C110.653 160.589 110.293 160.48 109.965 160.292C109.319 159.922 108.359 159.833 107.661 160.031C106.555 160.346 105.627 160.71 104.888 161.788C104.341 162.587 104.264 164.767 105.051 165.376C105.809 165.964 106.734 166.476 107.663 166.502C108.26 166.519 108.688 166.326 109.255 166.165Z" fill="#182B34"/>
<path d="M101.698 162.501C102.365 163.018 103.157 162.523 103.8 162.216C104.023 162.11 104.159 161.921 104.348 161.748C104.626 161.494 104.965 160.954 104.892 160.528C104.731 159.595 104.355 158.451 103.392 158.725C102.387 159.011 101.404 159.799 101.229 161.132C101.167 161.607 101.369 162.246 101.698 162.501Z" fill="#182B34"/>
<path d="M116.687 159.496C116.942 160.982 118.56 161.088 119.591 160.655C119.98 160.242 120.358 159.634 120.236 158.924C120.074 157.983 119.706 156.803 118.729 157.08C117.663 157.383 116.39 157.769 116.687 159.496Z" fill="#182B34"/>
<path d="M104.63 171.359C105.221 172.393 106.267 171.94 106.705 171.544C107.195 171.18 106.934 170.501 106.757 170.027C106.545 169.458 105.86 169.459 105.455 169.574C104.854 169.744 104.186 170.584 104.63 171.359Z" fill="#182B34"/>
<path d="M101.799 191.878C102.113 192.815 103.488 191.783 103.953 191.514C104.411 191.173 104.094 189.961 103.711 189.645C103.357 189.353 103.317 189.272 102.892 189.393C102.61 189.473 102.369 189.579 102.102 189.719C101.336 190.123 101.563 191.171 101.799 191.878Z" fill="#182B34"/>
<path d="M129.924 147.94C130.27 149.955 131.513 150.469 132.517 149.087C132.959 148.645 133.287 147.702 133.175 147.053C133.035 146.235 131.979 146.198 131.377 146.24C130.704 146.287 129.756 146.959 129.924 147.94Z" fill="#182B34"/>
<path d="M133.231 145.035C133.473 146.221 134.717 147.231 135.577 146.37C136.033 145.914 136.165 145.175 136.336 144.923C136.548 144.61 136.629 144.293 136.81 143.948C137.116 143.365 137.573 142.174 138.125 141.884C138.706 141.578 139.892 140.655 139.702 139.783C139.502 138.862 138.791 138.103 138.007 138.326C137.176 138.562 136.756 139.529 136.17 140.248C135.905 140.573 135.569 140.974 135.216 141.159C134.894 141.329 134.333 141.5 134.132 141.796C133.996 141.998 133.72 142.125 133.602 142.35C133.477 142.589 133.383 142.897 133.287 143.156C133.033 143.838 133.089 144.339 133.231 145.035Z" fill="#182B34"/>
<path d="M134.506 148.409C135.074 147.326 137.582 147.008 137.876 148.539C138.049 149.54 137.68 150.145 136.887 150.37C136.24 150.554 135.274 150.551 134.673 150.176C134.128 149.835 134.23 148.936 134.506 148.409Z" fill="#182B34"/>
<path d="M144.652 151.313C145.529 152.128 147.076 151.52 147.941 150.815C148.666 150.275 149.061 148.729 148.4 147.949C148.029 147.513 147.438 147.237 146.942 147.104C146.404 146.96 145.758 147.462 145.248 147.607C144.636 147.781 144.131 148.598 143.918 149.298C143.837 149.564 144.007 150.195 144.078 150.459C144.192 150.881 144.375 151.055 144.652 151.313Z" fill="#182B34"/>
<path d="M151.228 152.153C151.748 152.793 152.485 152.491 153.088 152.163C153.57 152.026 153.747 150 153.65 149.435C153.476 148.424 153.443 147.166 152.544 146.793C151.996 146.566 151.156 146.856 150.854 147.467C150.589 148.005 150.444 149.236 150.547 149.832C150.672 150.563 150.777 151.599 151.228 152.153Z" fill="#182B34"/>
<path d="M149.559 154.232C149.762 155.415 150.434 157.262 151.65 156.254C152.083 155.7 152.149 155 152.022 154.264C151.913 153.63 151.319 152.665 150.707 152.839C150.016 153.036 149.381 153.195 149.559 154.232Z" fill="#182B34"/>
<path d="M156.976 171.096C157.201 172.404 158.607 172.014 159.362 171.602C159.735 171.23 159.632 170.192 159.447 169.786C159.081 168.985 158.75 169.063 158.082 169.253C157.16 169.515 156.776 169.932 156.976 171.096Z" fill="#182B34"/>
<path d="M157.333 179.738C157.8 179.195 158.678 179.014 159.196 179.402C159.475 179.485 159.648 180.444 159.539 180.705C159.3 181.275 158.924 181.749 158.463 182.055C158.211 182.222 158.03 182.522 157.779 182.691C157.595 182.814 157.375 182.927 157.226 183.112C156.981 183.415 156.848 183.778 156.726 184.174C156.444 185.089 155.882 185.965 155.09 186.19C154.564 186.339 153.65 186.737 153.235 186.135C152.949 185.721 152.966 184.633 153.203 184.206C153.616 183.462 154.227 183.063 154.839 182.627C155.542 182.125 156.149 181.644 156.665 180.848C156.903 180.482 157.048 180.07 157.333 179.738Z" fill="#182B34"/>
<path d="M124.37 136.381C124.835 136.314 125.203 136.066 125.624 135.837C126.393 135.265 126 133.444 125.484 132.921C124.802 132.229 123.905 132.191 123.067 132.493C122.764 132.602 122.2 133.451 122.196 133.855C122.192 134.302 122.198 134.857 122.468 135.231C122.723 135.587 122.988 136.324 123.476 136.253C123.758 136.212 124.064 136.426 124.37 136.381Z" fill="#182B34"/>
<path d="M84.9557 142.435C85.7627 143.557 85.1198 145.21 84.7649 146.39C84.4284 146.726 85.3109 149.134 85.5324 149.505C86.1133 150.478 86.1791 152.02 85.9897 153.142C85.8817 153.781 85.6742 154.642 85.0774 154.812L83.8418 155.163C83.2812 155.322 82.8169 154.975 82.3749 154.618C81.7807 154.137 81.8175 153.404 81.5 152.715C81.2906 152.261 81.3983 151.501 81.1399 151.108C80.7239 150.475 80.1304 149.889 79.6425 149.335C78.8458 148.429 77.7032 146.706 78.2494 145.318C78.7619 144.015 79.9649 143.31 80.4783 142.005C80.713 141.409 80.4076 140.991 80.1794 140.49C79.9549 139.999 79.8314 138.973 79.9773 138.452C80.607 136.203 81.7103 134.973 83.6037 134.38C84.8252 133.997 86.0195 133.551 87.2565 133.2C88.1152 132.956 88.9739 132.299 89.6142 131.537C89.991 131.089 90.2977 130.687 90.6201 130.187C90.954 129.67 91.1543 128.918 91.5492 128.466C91.9188 128.043 92.201 127.301 92.5392 126.797C92.9699 126.155 93.1102 126.005 93.7883 125.812C95.3385 125.372 96.8714 125.253 98.3437 124.407C99.2744 123.873 100.243 122.391 99.0721 121.442C98.6814 121.126 98.0566 120.774 97.7575 120.358C97.4739 119.964 97.4639 118.896 97.5056 118.405C97.6039 117.245 97.3469 114.588 95.957 114.983C95.2065 115.197 94.4578 115.555 93.6985 115.31C93.2371 115.161 93.3509 114.364 93.3416 113.946C93.3127 112.638 94.7469 112.367 95.2962 111.475C95.7987 110.659 95.0272 108.859 94.877 107.985C94.6279 106.536 95.3049 106.091 96.3692 105.788C97.2269 105.545 98.5234 105.357 99.3486 105.793C99.9637 106.118 99.9941 107.373 100.111 108.051C100.279 109.034 100.333 110.021 100.501 110.997C100.619 111.682 100.753 112.426 101.412 112.582C102.593 112.862 103.803 114.237 104.307 115.589C105.02 117.501 107.314 117.552 107.694 119.765C107.878 120.838 107.784 121.707 107.562 122.749C107.339 123.799 106.261 124.286 105.539 124.632C103.345 125.684 101.127 126.697 98.9492 127.781C97.8083 128.35 96.6596 129.264 95.678 130.169C94.9761 130.815 94.1423 131.732 93.2999 132.05C92.9236 132.192 92.6624 132.515 92.2645 132.628L91.1027 132.958C90.4604 133.141 89.7949 133.188 89.1431 133.373C88.0226 133.691 87.9078 135.932 87.7105 137.042C87.3909 138.84 85.5399 139.259 84.8312 140.697C84.6265 141.113 84.7023 142.083 84.9557 142.435Z" fill="#182B34"/>
<path d="M94.6014 139.623C95.3192 140.715 96.05 140.061 96.798 139.425C97.471 138.924 97.2971 137.975 96.8429 137.284C96.592 136.903 96.4043 136.571 95.9535 136.686C95.5828 136.78 94.8886 136.902 94.6311 137.282C94.2028 137.914 94.1576 138.948 94.6014 139.623Z" fill="#182B34"/>
<path d="M105.476 134.547C105.93 134.877 106.658 134.079 106.979 133.837C107.553 133.41 107.791 133.194 108.212 132.572C108.633 131.951 109.578 132.108 110.084 131.646L110.085 131.645C110.602 131.173 110.987 130.822 110.841 129.974C110.714 129.236 110.36 129.046 109.781 129.211C109.008 129.43 108.394 130.172 107.606 130.396C106.915 130.593 106.255 130.679 105.559 130.978C104.959 131.236 104.874 132.394 104.977 132.995C105.043 133.38 105.2 134.347 105.476 134.547Z" fill="#182B34"/>
<path d="M74.121 129.021C73.6616 130.282 73.8459 130.793 74.6857 130.956C75.7712 131.462 76.6779 129.036 75.6799 128.263C75.1624 127.861 74.3582 128.369 74.121 129.021Z" fill="#182B34"/>
<path d="M90.2473 161.098C90.9162 161.145 91.3078 161.41 91.9565 161.226C93.1301 160.353 92.5575 159.32 92.342 158.066C92.199 157.234 90.6342 155.979 89.9538 155.987C88.9328 155.999 87.3368 156.661 87.2489 157.993C87.1959 158.795 87.7985 159.714 88.2884 160.14C88.9712 160.735 89.3611 161.036 90.2473 161.098Z" fill="#182B34"/>
<path d="M150.375 131.103C150.751 132.403 151.976 132.387 152.861 132.136C153.533 131.636 154.07 131.247 153.887 130.179C153.783 129.572 153.391 127.843 152.737 127.851C151.842 127.861 150.75 128.36 150.261 129.294C150.016 129.761 150.23 130.603 150.375 131.103Z" fill="#182B34"/>
<path d="M136.827 122.075C137.027 123.512 137.577 123.99 138.734 123.661C139.23 123.52 140.169 123.291 140.013 122.382C139.908 121.773 139.617 120.601 138.959 120.609C138.351 120.616 136.677 120.998 136.827 122.075Z" fill="#182B34"/>
<path d="M130.383 128.541C130.739 129.39 130.98 129.528 131.67 129.332C132.348 129.139 132.921 128.884 133.144 127.997C133.239 127.615 132.88 126.185 132.505 126.264C131.899 126.391 130.819 126.507 130.404 127.12C130.081 127.596 130.17 128.03 130.383 128.541Z" fill="#182B34"/>
</svg>
