<svg width="57" height="56" viewBox="0 0 57 56" fill="none" xmlns="http://www.w3.org/2000/svg">
<circle cx="35.5" cy="22.4432" r="11.5" fill="#FFB900"/>
<line x1="55" y1="21.9432" x2="51" y2="21.9432" stroke="#F25022" stroke-width="2" stroke-linecap="round" stroke-linejoin="round"/>
<line x1="21" y1="21.9432" x2="17" y2="21.9432" stroke="#F25022" stroke-width="2" stroke-linecap="round" stroke-linejoin="round"/>
<line x1="55" y1="21.9432" x2="51" y2="21.9432" stroke="#FFB900" stroke-width="2" stroke-linecap="round" stroke-linejoin="round"/>
<line x1="21" y1="21.9432" x2="17" y2="21.9432" stroke="#FFB900" stroke-width="2" stroke-linecap="round" stroke-linejoin="round"/>
<g clip-path="url(#clip0)">
<line x1="52.4543" y1="31.4432" x2="48.9902" y2="29.4432" stroke="#FFB900" stroke-width="2" stroke-linecap="round" stroke-linejoin="round"/>
</g>
<g clip-path="url(#clip1)">
<line x1="23.0095" y1="14.4432" x2="19.5454" y2="12.4432" stroke="#FFB900" stroke-width="2" stroke-linecap="round" stroke-linejoin="round"/>
</g>
<g clip-path="url(#clip2)">
<line x1="45.4997" y1="38.3976" x2="43.4997" y2="34.9335" stroke="#FFB900" stroke-width="2" stroke-linecap="round" stroke-linejoin="round"/>
</g>
<g clip-path="url(#clip3)">
<line x1="28.4997" y1="8.95282" x2="26.4997" y2="5.48872" stroke="#FFB900" stroke-width="2" stroke-linecap="round" stroke-linejoin="round"/>
</g>
<g clip-path="url(#clip4)">
<line x1="36" y1="40.9432" x2="36" y2="36.9432" stroke="#FFB900" stroke-width="2" stroke-linecap="round" stroke-linejoin="round"/>
</g>
<g clip-path="url(#clip5)">
<line x1="36" y1="6.94324" x2="36" y2="2.94324" stroke="#FFB900" stroke-width="2" stroke-linecap="round" stroke-linejoin="round"/>
</g>
<g clip-path="url(#clip6)">
<line x1="26.4997" y1="38.3976" x2="28.4997" y2="34.9335" stroke="#FFB900" stroke-width="2" stroke-linecap="round" stroke-linejoin="round"/>
</g>
<g clip-path="url(#clip7)">
<line x1="43.4997" y1="8.95282" x2="45.4997" y2="5.48872" stroke="#FFB900" stroke-width="2" stroke-linecap="round" stroke-linejoin="round"/>
</g>
<g clip-path="url(#clip8)">
<line x1="19.5457" y1="31.4433" x2="23.0098" y2="29.4433" stroke="#FFB900" stroke-width="2" stroke-linecap="round" stroke-linejoin="round"/>
</g>
<g clip-path="url(#clip9)">
<line x1="48.9905" y1="14.4433" x2="52.4546" y2="12.4433" stroke="#FFB900" stroke-width="2" stroke-linecap="round" stroke-linejoin="round"/>
</g>
<path fill-rule="evenodd" clip-rule="evenodd" d="M12.9848 43.9432C12.4478 44.0213 11.8986 44.0617 11.34 44.0617C5.07708 44.0617 0 38.9846 0 32.7217C0 26.4588 5.07708 21.3817 11.34 21.3817C11.8228 21.3817 12.2985 21.4119 12.7654 21.4704C14.4269 16.5143 19.1084 12.9432 24.624 12.9432C31.5299 12.9432 37.1283 18.5416 37.1283 25.4476C37.1283 26.0649 37.0836 26.6717 36.9972 27.265C41.3664 27.5672 44.8169 31.2073 44.8169 35.6532C44.8169 40.2971 41.0523 44.0617 36.4085 44.0617C35.9265 44.0617 35.454 44.0211 34.9941 43.9432H12.9848Z" fill="white"/>
<line x1="6.64009" y1="49.5756" x2="12.6323" y2="39.3031" stroke="white" stroke-width="2" stroke-linecap="round"/>
<line x1="26.6401" y1="49.5756" x2="32.6324" y2="39.3031" stroke="white" stroke-width="2" stroke-linecap="round"/>
<line x1="13.6401" y1="54.5756" x2="19.6323" y2="44.3031" stroke="white" stroke-width="2" stroke-linecap="round"/>
<defs>
<clipPath id="clip0">
<rect x="48.2583" y="26.7112" width="8" height="4" rx="2" transform="rotate(30 48.2583 26.7112)" fill="white"/>
</clipPath>
<clipPath id="clip1">
<rect x="18.8135" y="9.71118" width="8" height="4" rx="2" transform="rotate(30 18.8135 9.71118)" fill="white"/>
</clipPath>
<clipPath id="clip2">
<rect x="44.2319" y="32.2015" width="8" height="4" rx="2" transform="rotate(60 44.2319 32.2015)" fill="white"/>
</clipPath>
<clipPath id="clip3">
<rect x="27.2319" y="2.75671" width="8" height="4" rx="2" transform="rotate(60 27.2319 2.75671)" fill="white"/>
</clipPath>
<clipPath id="clip4">
<rect x="38" y="34.9432" width="8" height="4" rx="2" transform="rotate(90 38 34.9432)" fill="white"/>
</clipPath>
<clipPath id="clip5">
<rect x="38" y="0.943237" width="8" height="4" rx="2" transform="rotate(90 38 0.943237)" fill="white"/>
</clipPath>
<clipPath id="clip6">
<rect x="31.2319" y="34.2015" width="8" height="4" rx="2" transform="rotate(120 31.2319 34.2015)" fill="white"/>
</clipPath>
<clipPath id="clip7">
<rect x="48.2319" y="4.75671" width="8" height="4" rx="2" transform="rotate(120 48.2319 4.75671)" fill="white"/>
</clipPath>
<clipPath id="clip8">
<rect x="25.7417" y="30.1753" width="8" height="4" rx="2" transform="rotate(150 25.7417 30.1753)" fill="white"/>
</clipPath>
<clipPath id="clip9">
<rect x="55.1865" y="13.1753" width="8" height="4" rx="2" transform="rotate(150 55.1865 13.1753)" fill="white"/>
</clipPath>
</defs>
</svg>
