<svg width="253" height="128" viewBox="0 0 253 128" fill="none" xmlns="http://www.w3.org/2000/svg">
<g clip-path="url(#clip0)">
<path d="M206.238 61.1813C203.058 60.4644 201.287 61.269 200.926 63.5951C200.965 63.1543 187.065 64.3586 187.282 64.2768C186.966 64.4173 186.617 64.4645 186.276 64.4127C185.935 64.3609 185.615 64.2122 185.355 63.9842C184.605 63.3349 183.41 63.2133 182.207 63.4917C181.512 64.6995 180.643 65.7974 179.629 66.7501C178.62 67.1558 169.353 69.2963 169.191 66.0952" stroke="#F93C00" stroke-width="2" stroke-linecap="round" stroke-linejoin="round"/>
<path d="M251.683 27.2197C251.683 30.1987 251.598 33.18 251.725 36.1562C251.776 37.3491 250.83 37.9547 249.767 38.258C247.741 38.8318 246.828 40.0429 246.032 41.3529C245.738 41.9894 245.219 42.4926 244.576 42.764C244.105 42.9279 243.685 43.2136 243.358 43.5925C243.031 43.9714 242.809 44.4301 242.714 44.9227C241.849 45.9218 241.003 46.931 240.175 47.9505C239.789 48.8344 239.01 49.5877 238.502 50.4455C238.084 51.4131 237.619 52.3673 237.106 53.308C236.377 53.9413 235.757 54.6912 235.271 55.5275C235.028 55.9949 234.833 56.4859 234.689 56.9931C234.407 57.8367 233.946 58.2997 232.75 58.4428C231.983 58.5194 231.263 58.848 230.701 59.3779C229.637 60.4067 223.186 63.9225 223.165 65.3841C223.16 65.7727 222.899 66.1522 223.097 66.5459" stroke="#F93C00" stroke-width="2" stroke-linecap="round" stroke-linejoin="round"/>
<path d="M206.25 61.7178C206.184 62.6142 205.404 63.3828 205.517 64.3099C205.587 64.7268 205.739 65.1256 205.962 65.4835C206.684 67.0085 207.019 68.6897 206.938 70.3769C205.725 71.1154 206.172 72.138 206.133 73.0679C205.924 73.3963 205.642 73.6714 205.31 73.8719C204.978 74.0724 204.604 74.1927 204.218 74.2233C202.297 74.9255 200.365 75.6109 198.423 76.2798C197.642 76.6293 196.796 76.8103 195.941 76.8109C194.875 76.7746 190.594 79.432 190.551 80.3943C190.541 80.6182 190.003 81.2504 189.169 80.6852C187.295 80.4652 185.487 79.849 183.866 78.877" stroke="#F93C00" stroke-linecap="round" stroke-linejoin="round"/>
<path d="M222.806 66.0964C220.939 65.4209 219.067 64.7648 218.641 62.9719C218.562 62.6391 218.174 62.4039 217.598 62.4215C216.546 62.6348 215.46 62.605 214.422 62.334C213.516 61.3047 211.962 61.4251 210.717 61.2586C208.987 60.5451 207.498 60.6984 206.25 61.7183" stroke="#F93C00" stroke-width="2" stroke-linecap="round" stroke-linejoin="round"/>
<path d="M141.144 45.0937C141.488 46.0901 141.666 46.152 142.558 45.5351C142.904 45.306 143.268 45.1046 143.645 44.9329C145.591 44.008 145.563 42.3095 146.457 40.9773C146.636 40.7109 146.252 40.6848 145.999 40.6212C145.02 40.404 144 40.4817 143.065 40.8445C141.915 41.0675 140.767 41.2991 139.623 41.5392C137.884 41.5199 136.146 41.4875 134.409 41.4421C133.366 41.8216 128.94 42.4567 128.01 42.055" stroke="#F93C00" stroke-linecap="round" stroke-linejoin="round"/>
<path d="M84.3358 24.002C84.3533 24.1184 84.3488 24.286 84.2151 24.3064C77.6236 26.8504 70.5347 27.8151 63.509 27.1241C62.1361 27.2323 60.8217 27.7305 59.7188 28.5608" stroke="#F93C00" stroke-width="2" stroke-linecap="round" stroke-linejoin="round"/>
<path d="M150.375 31.3308C150.714 32.8436 151.986 33.9696 153.236 35.0716C154.234 36.0646 155.176 37.1133 156.057 38.213C160.374 42.9366 170.539 39.0084 174.635 42.4168C176.683 44.121 180.579 43.5564 181.874 46.0741C181.909 46.1422 196.355 55.4763 197.239 55.6558C200.28 56.3561 203.194 57.5296 205.876 59.1341C206.525 59.5511 207.137 60.0221 207.186 60.7356" stroke="#F93C00" stroke-width="2" stroke-linecap="round" stroke-linejoin="round"/>
<path d="M136.528 59.2148C135.643 59.7909 135.645 60.4192 136.146 61.1906C136.537 61.7922 137.162 62.3836 136.884 63.1471C136.823 63.3175 136.966 63.4226 137.122 63.5021C137.687 64.7409 137.094 65.5766 135.345 66.0091C133.128 65.8074 130.645 66.8947 130.091 68.4341C129.531 68.9593 129.106 69.6135 128.852 70.3404C128.599 71.0674 128.524 71.8455 128.635 72.6078C129.277 73.6764 129.763 74.8176 131.284 75.526C132.573 77.0219 132.188 78.2234 130.129 79.1304C129.893 79.165 129.653 79.1368 129.431 79.0486C129.225 78.9653 129.005 78.9239 128.783 78.9269C128.562 78.93 128.343 78.9773 128.139 79.0663C127.775 79.2574 127.375 79.3719 126.965 79.4027C126.555 79.4336 126.143 79.3802 125.754 79.2457C124.874 79.052 123.767 79.3963 123.558 80.0462C122.635 80.6926 121.72 81.3465 120.815 82.0077C120.42 83.4541 118.953 83.5705 117.474 83.5915C116.625 83.5563 115.779 83.7221 115.005 84.0755C114.657 84.2432 114.281 84.3402 113.896 84.361C113.511 84.3819 113.126 84.3262 112.763 84.1971C111.904 83.9868 111.023 83.8757 110.139 83.8659C106.133 83.5404 109.472 89.7097 103.85 88.5656C100.308 88.4082 96.7716 88.9804 93.4568 90.2471C92.0136 91.2117 90.5924 92.1943 89.1932 93.1948C88.3108 93.3158 87.6766 93.2784 87.4159 92.5484C87.2467 92.0724 86.8179 91.9865 86.2311 91.9996C85.8363 92.0474 85.4362 91.9838 85.0751 91.8161C84.1357 91.0129 82.6941 91.248 81.6007 90.7816C81.3485 90.6737 80.9057 90.8209 80.5508 90.851" stroke="#F93C00" stroke-linecap="round" stroke-linejoin="round"/>
<path d="M183.751 78.519C183.113 78.7034 182.443 78.7436 181.788 78.6367C181.133 78.5297 180.509 78.2783 179.962 77.9004C179.048 78.1719 178.688 78.7059 178.882 79.5023C178.898 81.0265 177.707 82.0786 175.582 82.2558C173.002 83.1089 170.541 84.2904 168.258 85.7716C166.994 86.3841 165.922 87.3379 165.164 88.5268C164.815 89.0529 159.379 91.2161 159.372 91.2172C159.365 91.2184 159.372 91.3308 159.372 91.3876" stroke="#F93C00" stroke-linecap="round" stroke-linejoin="round"/>
<path d="M19.064 28.2915C19.4708 28.6471 27.0936 31.1319 27.9862 31.5262C31.0907 32.1166 34.2986 31.7888 37.2221 30.5826C37.8912 30.4552 38.579 30.4662 39.2436 30.615C41.2634 31.4563 43.4709 31.7343 45.6343 31.4199" stroke="#F93C00" stroke-linecap="round" stroke-linejoin="round"/>
<path d="M46.1053 31.4199C43.3197 37.729 38.7828 43.031 32.4946 47.326" stroke="#F93C00" stroke-linecap="round" stroke-linejoin="round"/>
<path d="M128.954 73.5148C128.502 73.6683 128.021 73.7174 127.547 73.6584C127.073 73.5994 126.618 73.4339 126.217 73.174C124.646 72.4076 122.976 71.8654 121.257 71.5629C120.354 71.3925 119.655 71.8583 119.019 72.2685C117.075 72.8332 115.09 73.2421 113.082 73.4915C112.442 73.719 111.757 73.7893 111.084 73.6964C110.411 73.6036 109.77 73.3502 109.215 72.9576C108.583 72.5031 101.343 71.5135 100.075 71.1494C99.7697 71.076 99.4521 71.0745 99.1466 71.1453C98.8411 71.2161 98.5561 71.357 98.3137 71.5572C98.523 71.4129 88.3477 74.9214 89.0828 74.6992C87.5724 75.2247 86.2285 76.1464 85.1899 77.3692C83.0459 78.199 82.4039 79.2416 83.2637 80.497C83.5857 80.7051 83.9564 80.8242 84.3385 80.8425" stroke="#F93C00" stroke-linecap="round" stroke-linejoin="round"/>
<path d="M212.629 78.519C213.062 79.8256 212.984 79.8091 211.463 80.5073C210.488 81.004 209.603 81.6621 208.845 82.4541C208.738 82.5564 208.724 82.7529 208.599 82.8001C206.511 83.5749 206.486 85.6291 204.499 86.5198C203.895 86.7902 203.589 87.356 202.724 87.6157C201.8 87.5813 200.879 87.7403 200.019 88.0825C199.159 88.4247 198.379 88.9428 197.728 89.6039C196.517 94.1167 188.819 93.3674 187.065 96.5691" stroke="#F93C00" stroke-linecap="round" stroke-linejoin="round"/>
<path d="M104.929 88.8865C104.714 90.0982 106.318 91.6957 104.214 92.3637C103.142 92.7046 102.361 93.2419 102.102 94.1168C101.747 94.6691 101.528 95.2984 101.462 95.9528C101.052 98.2251 99.5698 100.074 97.0159 101.498C96.6011 101.887 96.1135 102.189 95.5816 102.386C94.6733 102.707 93.7763 102.977 93.1664 103.7C92.706 104.245 91.7085 104.419 90.843 104.516C86.3166 105.446 84.3359 107.507 84.9009 110.699C84.9893 110.846 85.0176 111.021 84.9799 111.188C84.9422 111.355 84.8414 111.5 84.6989 111.594C83.8181 111.537 82.9347 111.649 82.0956 111.925C81.0549 112.492 80.1584 113.293 79.4761 114.267C78.4406 115.402 77.5946 116.698 76.971 118.105C76.8914 118.304 76.7666 118.48 76.6066 118.621C76.4467 118.762 76.2561 118.863 76.0503 118.916" stroke="#F93C00" stroke-linecap="round" stroke-linejoin="round"/>
<path d="M48.4752 29.5429C45.0211 22.6851 45.4138 22.538 36.877 22.259" stroke="#F93C00" stroke-linecap="round" stroke-linejoin="round"/>
<path d="M73.8029 55.908C71.9012 56.5677 69.8805 56.8062 67.8788 56.6073C66.1963 56.8551 64.4943 56.9428 62.7954 56.8692C60.5754 57.2389 58.4482 58.0406 56.5328 59.2295C56.1641 59.4713 55.883 59.8269 55.7317 60.2429C55.5803 60.659 55.5669 61.1132 55.6933 61.5376" stroke="#F93C00" stroke-linecap="round" stroke-linejoin="round"/>
<path d="M100.195 23.0186C99.8244 23.3296 99.4901 23.682 99.1985 24.0689C98.4696 24.8463 97.5265 25.3864 96.4904 25.6198C93.9927 26.2481 93.244 27.8291 92.146 29.2742C91.1305 30.6092 86.5735 33.1939 85.5195 35.0839" stroke="#F93C00" stroke-linecap="round" stroke-linejoin="round"/>
<path d="M89.543 18.1038C89.543 18.1038 100.237 22.7052 101.752 23.8982C104.103 24.1926 106.404 24.7983 108.597 25.6995" stroke="#F93C00" stroke-width="2" stroke-linecap="round" stroke-linejoin="round"/>
<path d="M148.482 29.9009C147.476 29.8105 148.128 29.0658 147.687 28.7153C147.517 28.5789 147.601 28.2421 147.314 28.0131C146.637 27.4769 146.121 26.8611 146.355 26.0578C145.753 25.1978 145.168 24.332 144.6 23.4606C144.277 22.6216 143.817 21.8433 143.238 21.1582C141.512 20.4454 139.753 19.7817 137.962 19.1671C137.573 18.9035 137.124 18.7435 136.657 18.7018C135.232 18.3911 133.635 18.6853 132.348 17.7764C130.921 16.7692 122.002 19.7079 121.444 18.0241C120.21 17.5682 118.901 17.355 117.588 17.3959C116.234 16.9465 113.477 21.1923 113.439 21.2241C113.032 21.756 112.68 22.329 112.39 22.934C112.477 22.8715 108.151 27.1497 108.247 26.5941C107.714 29.6828 100.058 35.7572 96.9985 38.3908" stroke="#F93C00" stroke-width="2" stroke-linecap="round" stroke-linejoin="round"/>
<path d="M41.0181 37.1398C39.8089 36.0964 38.2605 35.777 36.3731 36.1815C34.6139 36.6359 33.4731 37.7533 31.7879 38.2151C22.6558 40.7181 30.7311 42.078 21.4907 38.3901C19.5172 37.8549 17.4188 38.0455 15.5723 38.9275" stroke="#F93C00" stroke-linecap="round" stroke-linejoin="round"/>
<path d="M147.769 96.9304C144.619 96.5531 141.425 96.8927 138.423 97.924C138.27 97.9529 138.09 98.1904 137.959 98.083C137.179 97.4434 136.271 98.1529 135.458 97.9188C135.055 97.8052 134.92 98.1211 134.763 98.2784C133.052 99.9827 130.588 101.028 128.469 102.374C127.478 102.715 127.156 103.289 127.503 104.097C127.672 104.274 127.794 104.49 127.858 104.727C127.922 104.963 127.927 105.212 127.871 105.451C127.814 105.689 127.7 105.91 127.537 106.092C127.374 106.274 127.168 106.413 126.938 106.494" stroke="#F93C00" stroke-linecap="round" stroke-linejoin="round"/>
<path d="M94.9873 0.98877C96.4763 1.73905 97.8432 2.71313 99.0411 3.87748C102.16 7.29331 107.062 17.2391 114.633 17.3209C115.124 17.3953 115.602 17.5384 116.054 17.7459" stroke="#F93C00" stroke-linecap="round" stroke-linejoin="round"/>
<path d="M170.259 66.0964C169.357 65.9907 168.474 65.7613 167.634 65.4147C167.363 65.2712 167.063 65.1928 166.757 65.1857C166.451 65.1786 166.148 65.243 165.87 65.3738C165.463 65.5452 165.017 65.6028 164.579 65.5408C163.365 65.4931 162.379 65.6209 161.707 66.5315C161.632 66.6346 161.533 66.7171 161.419 66.7714C161.304 66.8257 161.178 66.8502 161.051 66.8423C160.925 66.8345 160.803 66.7948 160.696 66.7267C160.589 66.6587 160.5 66.5646 160.439 66.4532C160.243 66.2443 160.087 66.0019 159.976 65.7374C158.979 64.7308 158.257 64.8209 157.809 66.0078C157.818 66.7247 156.973 67.0156 155.701 67.0099C154.449 67.0048 153.524 66.4276 152.533 66.0555C150.88 65.4951 149.316 64.6965 147.89 63.6844C147.125 63.097 146.62 63.085 145.875 63.5917C145.357 63.9439 145.009 64.4819 144.102 64.4098C143.414 64.3688 142.755 64.1135 142.216 63.6792C141.752 63.3054 141.317 63.1066 140.791 63.5952C140.708 63.657 140.61 63.6965 140.508 63.71C140.405 63.7235 140.3 63.7106 140.204 63.6724C139.252 63.3708 138.511 63.7996 137.712 64.0411" stroke="#F93C00" stroke-width="2" stroke-linecap="round" stroke-linejoin="round"/>
<path d="M176.65 115.385C177.314 116.094 176.675 116.719 176.137 117.096C175.284 118.739 173.799 119.674 171.68 119.9C170.31 119.384 169.062 119.98 167.779 120.178C167.241 120.796 166.645 121.361 166 121.865" stroke="#F93C00" stroke-linecap="round" stroke-linejoin="round"/>
<path d="M60.7832 28.7385C60.9017 28.8277 60.9998 28.9658 61.1409 28.9987C63.3413 29.4855 63.8163 30.9756 64.1312 32.3242C64.3399 33.2229 64.8951 34.0148 65.0559 34.9039C65.2278 35.9811 65.1506 37.0837 64.8302 38.126C64.7492 38.4608 64.76 38.8116 64.8614 39.1407C64.9629 39.4699 65.1512 39.7651 65.4063 39.995C65.75 40.2875 66.0159 40.6617 66.1799 41.0838C66.3439 41.5058 66.4009 41.9624 66.3456 42.4121" stroke="#F93C00" stroke-linecap="round" stroke-linejoin="round"/>
<path d="M78.418 59.6612C80.3179 59.6485 82.2156 59.7909 84.0927 60.0872C88.5882 59.5877 91.2794 60.8166 92.1664 63.774C92.1009 64.191 98.491 69.7661 99.2487 71.1022" stroke="#F93C00" stroke-linecap="round" stroke-linejoin="round"/>
<path d="M184.105 97.4659C184.932 97.4262 185.772 97.4222 186.241 96.753C186.416 96.5019 186.775 96.607 187.063 96.5678C187.852 96.4604 188.073 95.9645 187.796 95.4044C186.075 94.2303 184.422 93.0054 182.838 91.7295C181.424 89.0152 179.362 88.097 176.651 88.9749" stroke="#F93C00" stroke-linecap="round" stroke-linejoin="round"/>
<path d="M120.729 60.9126C121.39 61.5608 122.995 63.2508 123.031 64.1302C123.078 65.2664 123.721 65.948 125.175 66.2565C125.375 66.299 125.568 66.3698 125.748 66.4667C127.115 67.2654 128.677 67.6634 130.257 67.6159" stroke="#F93C00" stroke-linecap="round" stroke-linejoin="round"/>
<path d="M178.01 22.4824C177.928 23.134 177.194 23.5357 176.953 24.1697C176.43 25.5472 176.769 26.9214 176.664 28.2927C176.623 28.8415 177.289 29.2795 177.657 29.5908C179.084 30.8123 180.203 32.3569 180.923 34.0979C181.481 34.6288 181.895 35.2941 182.126 36.031C182.357 36.7679 182.398 37.5518 182.244 38.309C181.849 39.3838 181.25 40.5541 182.685 41.5198" stroke="#F93C00" stroke-linecap="round" stroke-linejoin="round"/>
<path d="M175.229 78.787C174.047 78.8467 172.848 78.9989 172.024 78.077C170.809 78.0303 169.61 78.374 168.601 79.0585C168.42 79.0283 168.233 79.0555 168.068 79.1364C167.903 79.2173 167.767 79.348 167.679 79.5102C167.057 80.3434 166.174 80.9404 165.173 81.2042C163.983 82.3025 162.798 83.4034 161.618 84.507" stroke="#F93C00" stroke-linecap="round" stroke-linejoin="round"/>
<path d="M59.6002 28.9177C59.7661 25.6382 51.763 27.9104 50.6859 28.8921C49.9558 29.5567 48.6937 29.5567 47.6455 29.801C46.5323 30.0617 45.8451 30.5719 45.7554 31.3291" stroke="#F93C00" stroke-linecap="round" stroke-linejoin="round"/>
<path d="M183.929 108.191C182.28 109.31 181.382 110.68 181.236 112.3C181.189 112.608 180.911 112.864 180.327 112.957C179.496 113.091 178.733 113.425 178.892 114.269C178.964 114.647 178.553 114.794 178.189 114.789C177.936 114.779 177.685 114.833 177.457 114.944C177.23 115.056 177.034 115.223 176.887 115.43" stroke="#F93C00" stroke-linecap="round" stroke-linejoin="round"/>
<path d="M159.252 91.0316C158.674 90.7096 157.999 90.6087 157.353 90.7475C155.791 91.0111 148.919 90.4981 148.035 91.8484C147.929 92.0121 147.8 92.159 147.651 92.2841C146.181 93.5237 146.154 93.9742 147.025 95.5148C147.285 95.9749 147.262 96.5333 147.772 96.935" stroke="#F93C00" stroke-linecap="round" stroke-linejoin="round"/>
<path d="M176.65 104.438C176.158 104.272 175.681 104.064 175.224 103.817C174.133 103.13 172.685 103.176 171.424 102.987C170.379 102.831 169.668 103.692 169.181 104.433C169.082 104.584 168.974 104.744 168.858 104.893C167.735 106.335 167.748 106.345 165.525 105.954C164.561 106.071 163.68 106.559 163.067 107.317C161.782 108.45 160.063 108.574 158.305 108.632C157.925 108.636 157.55 108.718 157.202 108.871C156.854 109.025 156.54 109.248 156.279 109.526C155.514 110.196 154.577 110.636 153.574 110.794C151.651 111.566 149.756 112.376 147.891 113.225C147.768 113.216 147.646 113.236 147.532 113.283C147.418 113.33 147.317 113.402 147.236 113.495C147.155 113.587 147.096 113.697 147.063 113.817C147.031 113.936 147.027 114.061 147.05 114.182C147.114 115.505 147.547 116.849 146.612 118.124C145.851 119.162 148.118 121.301 149.192 121.6" stroke="#F93C00" stroke-linecap="round" stroke-linejoin="round"/>
<path d="M184.461 87.2753C185.483 88.0377 186.03 87.0077 186.823 86.8998C187.011 86.8742 187.141 86.6157 187.302 86.4715C188.105 86.0481 188.549 86.1965 188.633 86.9168C188.69 87.9268 190.721 89.3704 192.035 89.4204C192.287 89.4503 192.542 89.3899 192.754 89.2499C193.275 88.9128 193.867 88.7035 194.482 88.639C195.098 88.5746 195.72 88.6568 196.298 88.879C196.713 89.0051 197.163 89.0636 197.596 89.1528" stroke="#F93C00" stroke-linecap="round" stroke-linejoin="round"/>
<path d="M125.048 36.2906C123.638 35.8043 123.167 36.0895 123.126 37.2285C123.086 38.3379 124.093 38.8839 124.919 39.5576C124.961 39.5911 124.933 39.6752 125.047 39.6389C125.132 39.6127 127.972 41.6555 127.843 42.0441C127.88 43.4181 126.877 44.0105 124.833 43.8215C124.638 43.6909 118.394 41.9793 118.243 41.5169" stroke="#F93C00" stroke-linecap="round" stroke-linejoin="round"/>
<path d="M77.4709 106.94C75.1013 107.363 73.8786 108.815 72.6668 110.181C71.4413 110.899 70.1048 111.405 68.7129 111.677" stroke="#F93C00" stroke-linecap="round" stroke-linejoin="round"/>
<path d="M15.3366 38.838C16.6624 32.855 -0.861549 31.2377 8.23557 35.7993C9.52251 35.2364 11.1987 36.1402 12.3779 35.1745" stroke="#F93C00" stroke-linecap="round" stroke-linejoin="round"/>
<path d="M81.495 8.09366C79.1496 4.59943 102.76 9.32016 102.088 9.61329" stroke="#F93C00" stroke-linecap="round" stroke-linejoin="round"/>
<path d="M220.203 65.2029C219.298 66.0061 218.172 66.6464 217.342 67.515C215.351 69.5975 220.509 74.8892 220.171 78.167C220.097 79.008 220.167 79.8554 220.377 80.6727C220.459 82.263 220.911 83.8116 221.697 85.1935C222.428 86.27 222.446 87.409 222.528 88.5304C222.578 89.2223 222.948 89.8307 223.043 90.4948" stroke="#F93C00" stroke-linecap="round" stroke-linejoin="round"/>
<path d="M137.712 8.18353C138.4 7.90517 139.038 7.64217 139.179 6.93719C139.257 6.54579 142.692 4.81258 142.993 5.95554C143.359 7.34335 144.587 8.37385 145.317 9.60316C145.753 10.7806 146.34 11.8957 147.062 12.9201" stroke="#F93C00" stroke-linecap="round" stroke-linejoin="round"/>
<path d="M123.806 18.5503C124.061 18.8508 124.271 19.2167 124.081 19.5263C123.517 20.4465 123.986 21.2396 124.845 21.735C126.056 22.4331 127.466 22.9012 128.661 23.68C129.962 23.8731 131.248 24.159 132.508 24.5355C132.831 24.7639 133.201 24.915 133.59 24.9774C133.979 25.0398 134.377 25.0119 134.754 24.8957" stroke="#F93C00" stroke-linecap="round" stroke-linejoin="round"/>
<path d="M161.383 84.6862C161.343 84.6862 161.278 84.6976 161.27 84.6862C159.819 84.0426 158.215 83.8353 156.649 84.0893C155.084 84.3433 153.626 85.0478 152.449 86.1178" stroke="#F93C00" stroke-linecap="round" stroke-linejoin="round"/>
<path d="M124.576 43.9319C122.654 44.4832 120.66 44.7293 118.663 44.6613C117.239 44.9766 112.6 48.0987 112.409 47.9374C111.1 47.9344 109.834 47.4651 108.836 46.6126C108.83 46.1059 108.836 45.5998 108.836 45.0931" stroke="#F93C00" stroke-linecap="round" stroke-linejoin="round"/>
<path d="M64.0975 106.225C63.8927 106.917 64.2775 108.611 64.9534 108.966C65.4383 109.876 66.1655 110.633 67.0534 111.15C67.6446 111.264 68.5124 111.356 68.426 111.94C68.3448 112.488 67.4223 112.293 66.9303 112.349C66.2014 112.433 65.3083 112.623 64.69 112.033" stroke="#F93C00" stroke-linecap="round" stroke-linejoin="round"/>
<path d="M187.775 112.928C188.039 113.231 187.815 113.439 187.539 113.643C187.125 113.946 186.796 114.353 186.586 114.823C186.375 115.293 186.29 115.811 186.34 116.324C185.745 118.062 184.742 119.63 183.414 120.892C182.866 121.46 182.477 122.098 181.633 122.505C181.283 122.656 180.996 122.924 180.819 123.263C180.642 123.603 180.587 123.993 180.662 124.368C180.675 124.456 180.664 124.546 180.631 124.628C180.598 124.71 180.543 124.782 180.473 124.835C180.157 125.135 179.94 125.525 179.849 125.952C179.758 126.379 179.799 126.824 179.965 127.228" stroke="#F93C00" stroke-linecap="round" stroke-linejoin="round"/>
<path d="M182.57 97.1086C183.706 97.1923 184.372 97.6703 184.567 98.5425C184.599 98.61 184.615 98.6839 184.614 98.7586C184.613 98.8334 184.595 98.9069 184.561 98.9735C184.527 99.0401 184.479 99.098 184.42 99.1429C184.36 99.1877 184.292 99.2182 184.219 99.2321C183.253 99.6563 182.466 99.576 181.855 98.9913C180.522 98.2755 179.69 98.602 179.357 99.9707C179.428 100.322 179.424 100.684 179.484 101.042C179.173 101.991 178.637 102.848 177.922 103.542C177.894 103.717 177.815 103.879 177.694 104.008C177.573 104.137 177.417 104.227 177.245 104.265C176.608 104.429 176.742 104.796 176.888 105.154" stroke="#F93C00" stroke-linecap="round" stroke-linejoin="round"/>
<path d="M60.4282 93.4446C62.4951 94.5667 63.4789 95.9059 63.3796 97.462C62.5897 98.2119 63.1099 98.8658 63.6238 99.5225" stroke="#F93C00" stroke-linecap="round" stroke-linejoin="round"/>
<path d="M171.087 106.851C170.303 107.439 169.712 108.25 169.39 109.18C168.994 110.531 168.534 111.87 168.01 113.198" stroke="#F93C00" stroke-linecap="round" stroke-linejoin="round"/>
<path d="M192.509 101.577C192.765 102.526 193.165 103.43 193.694 104.257C194.766 104.841 195.52 105.701 196.754 106.16C197.288 106.359 197.826 110.218 197.861 110.072C197.697 110.738 198.212 111.265 198.9 111.677" stroke="#F93C00" stroke-linecap="round" stroke-linejoin="round"/>
<path d="M152.387 34.8159C152.925 34.4512 145.66 41.1329 147.285 40.1649C147.086 40.2837 146.917 40.4286 146.707 40.5359" stroke="#F93C00" stroke-linecap="round" stroke-linejoin="round"/>
<path d="M79.365 41.9658C77.9542 42.6771 76.7541 43.7495 75.8851 45.0755C75.4395 45.5554 74.8964 45.933 74.2927 46.1824C73.689 46.4317 73.0391 46.5471 72.3871 46.5207C72.3673 46.5059 72.3825 46.4639 72.3825 46.4349" stroke="#F93C00" stroke-linecap="round" stroke-linejoin="round"/>
<path d="M133.57 53.3607C134.269 53.7999 134.87 54.3798 135.336 55.0641C135.802 55.7484 136.123 56.5223 136.278 57.3373C135.98 58.0422 136.617 58.5739 136.842 59.1551C136.948 59.2627 137.073 59.3481 137.212 59.4062C137.351 59.4642 137.5 59.4938 137.65 59.4932C137.8 59.4926 137.948 59.4619 138.087 59.4028C138.225 59.3436 138.35 59.2573 138.455 59.1488C140.313 58.78 141.559 57.911 142.192 56.5419C141.736 55.8494 141.456 55.0548 141.376 54.2278C141.297 53.4008 141.42 52.5668 141.735 51.7991" stroke="#F93C00" stroke-linecap="round" stroke-linejoin="round"/>
<path d="M91.7173 19.0513C91.258 19.8738 90.212 21.5008 90.8022 22.4097C91.9616 24.1969 85.686 24.6309 84.3364 24.2702" stroke="#F93C00" stroke-width="2" stroke-linecap="round" stroke-linejoin="round"/>
<path d="M120.314 55.908C119.844 55.9767 119.365 55.7819 118.887 55.9886C117.614 56.4848 117.577 57.1123 118.774 57.8712C119.472 57.9672 121.065 60.8792 120.312 60.8253" stroke="#F93C00" stroke-linecap="round" stroke-linejoin="round"/>
<path d="M105.165 0.943848C105.205 1.27163 105.269 1.59888 105.278 1.92723C105.316 3.1929 102.934 5.54247 101.969 6.66385" stroke="#F93C00" stroke-linecap="round" stroke-linejoin="round"/>
<path d="M69.0679 91.3895C68.3474 87.1954 64.9002 91.3514 63.3887 89.6012C62.9125 89.0496 62.091 88.9882 61.37 88.8098C59.8314 88.4292 59.3609 92.2109 60.298 92.6574C60.6546 92.8279 60.4441 93.2255 60.1801 93.3391C59.3626 93.6799 59.0026 94.3799 58.1812 94.698" stroke="#F93C00" stroke-linecap="round" stroke-linejoin="round"/>
<path d="M190.497 37.676C188.638 38.2106 184.256 38.6537 183.65 40.2716C183.049 40.7356 182.561 41.3319 182.224 42.0148C181.887 42.6977 181.71 43.4492 181.706 44.2117C181.796 44.3968 181.812 44.6093 181.752 44.8062C181.693 45.0032 181.561 45.1699 181.384 45.2729" stroke="#F93C00" stroke-linecap="round" stroke-linejoin="round"/>
<path d="M135.7 110.381C137.005 110.741 137.744 111.711 139.115 112.072C140.447 112.422 141.565 113.233 143.168 112.772C144.449 112.906 145.714 113.168 146.943 113.553" stroke="#F93C00" stroke-linecap="round" stroke-linejoin="round"/>
<path d="M52.854 110.604C55.8279 109.78 58.5135 110.499 61.1308 111.509C61.3664 111.562 61.6071 111.588 61.8484 111.587" stroke="#F93C00" stroke-linecap="round" stroke-linejoin="round"/>
<path d="M166.826 26.4153C164.98 27.4526 163.97 28.8539 163.795 30.6191C164.401 31.9319 165.428 33.0013 166.711 33.6548C166.905 34.399 168.448 34.4814 168.173 35.5386C167.951 36.3958 168.541 37.2593 168.687 38.1273C168.72 38.3227 169.169 38.7948 168.365 38.8391" stroke="#F93C00" stroke-linecap="round" stroke-linejoin="round"/>
<path d="M57.9429 83.3452C58.5212 84.6967 59.0476 86.0816 60.1128 87.257C60.572 87.7637 60.3949 88.3307 60.783 88.7971" stroke="#F93C00" stroke-linecap="round" stroke-linejoin="round"/>
<path d="M197.716 108.996C196.588 109.521 195.44 110.024 194.274 110.506C193.023 111.074 192.662 111.645 193.109 112.522C193.138 112.579 193.335 112.585 193.453 112.615" stroke="#F93C00" stroke-linecap="round" stroke-linejoin="round"/>
<path d="M85.2822 13.8135C85.7951 13.1989 86.4022 13.5909 86.7943 13.8374C87.8749 15.0785 88.6896 16.5307 89.1876 18.1031" stroke="#F93C00" stroke-linecap="round" stroke-linejoin="round"/>
<path d="M219.611 76.4633C218.43 76.2245 217.206 76.3209 216.075 76.7416C214.025 78.3839 211.064 79.0997 208.132 79.3286C207.289 79.5911 206.49 79.9811 205.763 80.4852" stroke="#F93C00" stroke-linecap="round" stroke-linejoin="round"/>
<path d="M184.698 101.935C184.219 102.28 183.831 102.737 183.567 103.266C183.302 103.795 183.169 104.381 183.178 104.974C183.157 105.742 184.028 108.01 184.652 108.578C185.694 109.527 186.768 110.545 186.477 111.945C186.364 112.487 186.816 112.714 187.42 112.839C187.641 112.885 187.673 112.771 187.716 112.659" stroke="#F93C00" stroke-linecap="round" stroke-linejoin="round"/>
<path d="M72.3819 46.613C72.0998 47.0601 71.8279 47.5135 72.3875 47.9497C72.4232 47.9722 72.454 48.0015 72.4782 48.0361C72.5024 48.0706 72.5195 48.1097 72.5286 48.151C72.5376 48.1924 72.5383 48.2351 72.5308 48.2767C72.5232 48.3183 72.5075 48.358 72.4846 48.3934C72.1293 49.5562 72.0938 50.7942 72.3819 51.9757" stroke="#F93C00" stroke-linecap="round" stroke-linejoin="round"/>
<path d="M116.527 49.4734C115.997 50.4726 115.784 51.5089 116.987 52.3439C117.513 52.7086 112.622 57.7792 111.599 54.2918C111.472 53.8595 111.267 53.8373 110.846 53.8527" stroke="#F93C00" stroke-linecap="round" stroke-linejoin="round"/>
<path d="M64.4522 98.6284C63.8473 99.5941 64.1402 100.844 62.8053 101.588C62.4943 102.072 62.2932 102.62 62.2163 103.191C61.0845 104.931 62.8211 104.952 63.8603 106.225" stroke="#F93C00" stroke-linecap="round" stroke-linejoin="round"/>
<path d="M110.018 35.4419C108.743 36.8774 106.71 37.7829 105.404 39.1963C105.014 39.6184 104.47 39.9774 104.396 40.5364" stroke="#F93C00" stroke-linecap="round" stroke-linejoin="round"/>
<path d="M90.4898 56.4443C90.4452 58.0675 90.6042 59.6899 90.9631 61.273" stroke="#F93C00" stroke-linecap="round" stroke-linejoin="round"/>
<path d="M129.427 45.8984C129.682 46.3921 129.191 46.9971 129.991 47.4482C130.371 47.6623 129.519 48.7025 128.959 48.6519C127.867 48.5548 127.243 48.8678 126.936 49.65C126.707 50.2351 126.028 50.2834 125.413 50.1732C124.434 49.9982 123.749 50.0398 123.371 50.8964C123.052 51.6162 122.12 51.623 121.266 51.6184" stroke="#F93C00" stroke-linecap="round" stroke-linejoin="round"/>
<path d="M84.5723 108.191C83.8872 107.958 83.1627 107.867 82.4419 107.923C81.176 107.349 79.7474 107.254 78.4175 107.654" stroke="#F93C00" stroke-linecap="round" stroke-linejoin="round"/>
<path d="M193.575 112.749C194.401 113.569 195.171 114.412 194.985 115.519C194.914 115.951 195.214 116.299 195.361 116.678C195.525 117.099 195.937 117.281 196.531 117.128" stroke="#F93C00" stroke-linecap="round" stroke-linejoin="round"/>
<path d="M113.213 29.007C113.059 28.9933 112.818 29.007 112.814 29.0962C112.801 30.1494 112.086 31.1617 112.398 32.2206C112.776 33.5004 112.398 34.5587 110.254 35.2614" stroke="#F93C00" stroke-linecap="round" stroke-linejoin="round"/>
<path d="M131.439 50.0987C127.551 48.6939 135.249 55.5136 133.335 53.047C133.37 53.0816 133.409 53.112 133.451 53.1374" stroke="#F93C00" stroke-linecap="round" stroke-linejoin="round"/>
<path d="M94.8685 51.9758C93.7247 53.7487 92.235 55.269 90.4897 56.4444" stroke="#F93C00" stroke-linecap="round" stroke-linejoin="round"/>
<path d="M184.697 28.8279C186.041 28.9267 185.874 29.9004 186.328 30.4924C186.723 31.0036 186.595 31.6916 187.272 32.158C187.427 32.2648 187.403 32.6857 187.183 32.9385" stroke="#F93C00" stroke-linecap="round" stroke-linejoin="round"/>
<path d="M146.707 13.0093C145.735 14.0284 144.667 15.0169 144.928 16.4058C144.956 16.5518 145.013 16.7467 144.92 16.8455C143.993 17.8334 144.898 18.7685 145.075 19.7092C145.221 20.4823 145.325 21.1765 144.342 21.6781" stroke="#F93C00" stroke-linecap="round" stroke-linejoin="round"/>
<path d="M181.857 35.1734C185.968 34.1383 187.366 30.9559 191.681 35.8885" stroke="#F93C00" stroke-linecap="round" stroke-linejoin="round"/>
<path d="M216.061 72.4419C215.992 73.3072 216.255 74.1664 216.795 74.8432C217.17 75.2829 217.037 75.7589 217.246 76.1952" stroke="#F93C00" stroke-linecap="round" stroke-linejoin="round"/>
<path d="M146.234 82.988C146.475 83.7386 146.602 84.5212 146.613 85.3098C146.768 86.438 147.137 86.8674 148.719 86.7868" stroke="#F93C00" stroke-linecap="round" stroke-linejoin="round"/>
<path d="M171.795 103.097C171.635 103.641 171.44 104.181 171.258 104.716C170.996 105.485 170.702 106.395 171.8 107.025C172.499 107.425 172.143 108.06 172.458 108.565C172.824 109.154 172.906 109.842 173.56 110.344C173.639 110.404 173.571 110.574 173.571 110.693" stroke="#F93C00" stroke-linecap="round" stroke-linejoin="round"/>
<path d="M80.3704 60.9133L80.1927 61.2707C79.4846 60.9906 78.6214 60.8162 78.3173 60.1913C77.3255 59.5545 76.1478 59.2769 74.9784 59.4045C74.7985 59.377 74.6263 59.3119 74.473 59.2132C74.3197 59.1145 74.1886 58.9846 74.0883 58.8317C73.9879 58.6789 73.9205 58.5066 73.8905 58.3259C73.8604 58.1452 73.8683 57.9601 73.9137 57.7827C74.0925 56.2353 74.2697 54.6867 74.3808 53.1352C74.4485 52.1934 73.7433 51.8168 72.3813 51.9741" stroke="#F93C00" stroke-linecap="round" stroke-linejoin="round"/>
<path d="M180.022 23.9121C179.919 24.2564 180.177 24.5637 180.2 24.8949C180.209 25.0352 180.18 25.1753 180.115 25.2997C180.049 25.4241 179.951 25.5278 179.831 25.5991C179.711 25.6705 179.573 25.7068 179.433 25.7039C179.294 25.701 179.157 25.6591 179.04 25.5828C178.194 25.1596 177.517 25.4436 176.768 25.6101" stroke="#F93C00" stroke-linecap="round" stroke-linejoin="round"/>
<path d="M0.660645 26.3254C1.20622 27.6616 2.84466 27.9519 2.3177 29.5431" stroke="#F93C00" stroke-linecap="round" stroke-linejoin="round"/>
<path d="M110.728 25.0745C111.405 26.4566 111.684 27.8337 110.609 29.1851C110.716 30.6156 110.677 32.0534 110.492 33.4758C109.444 34.6687 110.047 35.9185 111.912 36.4252" stroke="#F93C00" stroke-linecap="round" stroke-linejoin="round"/>
<path d="M119.249 55.8187C118.953 55.1944 118.739 54.5344 118.61 53.8549C118.558 53.347 118.015 52.9073 117.237 52.78" stroke="#F93C00" stroke-linecap="round" stroke-linejoin="round"/>
<path d="M1.96289 29.543C3.48702 29.958 4.84933 30.831 5.86826 32.0454" stroke="#F93C00" stroke-linecap="round" stroke-linejoin="round"/>
<path d="M192.982 35.084C191.553 35.6702 190.883 36.5341 190.971 37.6755" stroke="#F93C00" stroke-linecap="round" stroke-linejoin="round"/>
<path d="M148.009 29.99C147.811 31.4164 148.145 31.7169 150.495 32.2242" stroke="#F93C00" stroke-linecap="round" stroke-linejoin="round"/>
<path d="M175.229 78.519C175.738 79.3165 176.475 79.94 177.343 80.3074C177.343 80.4739 177.388 80.6373 177.475 80.7792C177.562 80.9211 177.686 81.036 177.833 81.1112" stroke="#F93C00" stroke-linecap="round" stroke-linejoin="round"/>
<path d="M83.3882 10.7749C84.3511 11.4175 85.0299 12.4104 85.2822 13.5454" stroke="#F93C00" stroke-linecap="round" stroke-linejoin="round"/>
<path d="M64.5117 112.034C64.1376 110.598 62.4778 110.511 61.2568 111.141" stroke="#F93C00" stroke-linecap="round" stroke-linejoin="round"/>
<path d="M195.815 91.7427C194.5 92.6243 192.689 97.4166 193.575 98.8965" stroke="#F93C00" stroke-linecap="round" stroke-linejoin="round"/>
<path d="M203.634 109.487C203.935 109.557 204.409 109.5 204.332 109.888C204.27 110.128 204.135 110.343 203.946 110.503C203.757 110.662 203.523 110.758 203.277 110.777C201.952 111.005 200.646 111.335 199.372 111.764C199.106 111.86 198.244 113.268 198.439 113.355C199.193 113.704 199.183 114.502 199.971 114.792C200.283 114.905 200.539 115.273 201.052 114.909C201.412 114.654 201.663 114.473 201.512 114.085C201.446 113.914 201.562 113.699 201.266 113.595" stroke="#F93C00" stroke-linecap="round" stroke-linejoin="round"/>
<path d="M251.566 34.1014C249.648 34.0838 248.05 34.8286 246.359 35.3512" stroke="#F93C00" stroke-linecap="round" stroke-linejoin="round"/>
<path d="M147.181 86.7415C146.837 87.1647 146.625 87.6802 146.571 88.2239C146.517 88.7676 146.623 89.3154 146.875 89.7989C147.193 90.4488 147.295 91.035 148.305 91.21" stroke="#F93C00" stroke-linecap="round" stroke-linejoin="round"/>
<path d="M182.567 122.223C182.849 122.919 183.131 123.591 182.237 124.211C182.116 124.302 182.019 124.42 181.953 124.557C181.887 124.693 181.854 124.843 181.857 124.995" stroke="#F93C00" stroke-linecap="round" stroke-linejoin="round"/>
<path d="M92.3833 2.68674C92.4743 2.67111 92.5675 2.67386 92.6574 2.69485C92.7473 2.71584 92.8322 2.75464 92.9071 2.80899C92.982 2.86335 93.0454 2.93214 93.0936 3.01141C93.1418 3.09068 93.1738 3.17883 93.1879 3.27069C93.3251 3.94637 93.3245 4.64306 93.1862 5.31852C93.0479 5.99398 92.7747 6.63412 92.3833 7.20006" stroke="#F93C00" stroke-linecap="round" stroke-linejoin="round"/>
<path d="M193.93 98.8965C193.239 99.6257 192.82 100.573 192.745 101.578" stroke="#F93C00" stroke-linecap="round" stroke-linejoin="round"/>
<path d="M36.7582 22.5722C35.932 21.7156 34.8528 21.1512 33.6816 20.9634" stroke="#F93C00" stroke-linecap="round" stroke-linejoin="round"/>
<path d="M127.534 42.3237C126.3 42.2907 125.212 42.4895 124.575 43.3962" stroke="#F93C00" stroke-linecap="round" stroke-linejoin="round"/>
<path d="M186.354 22.6614C186.116 23.9063 185.943 25.163 185.834 26.4261C186.187 27.264 185.841 28.1303 185.289 28.9171" stroke="#F93C00" stroke-linecap="round" stroke-linejoin="round"/>
<path d="M127.061 49.7415C128.254 49.7157 129.446 49.8357 130.611 50.0988" stroke="#F93C00" stroke-linecap="round" stroke-linejoin="round"/>
<path d="M50.96 92.5505C53.3767 93.0208 55.7233 93.8018 57.9425 94.874" stroke="#F93C00" stroke-linecap="round" stroke-linejoin="round"/>
<path d="M96.7626 38.5698C96.7453 39.6223 96.503 40.6587 96.0522 41.6085" stroke="#F93C00" stroke-linecap="round" stroke-linejoin="round"/>
<path d="M144.34 2.01636C144.987 2.58898 145.273 3.13548 144.479 3.81774C143.979 4.2472 144.171 4.95391 143.626 5.40837C143.457 5.54755 143.422 5.79007 143.097 5.81279" stroke="#F93C00" stroke-linecap="round" stroke-linejoin="round"/>
<path d="M168.838 38.927C169.227 39.6024 169.955 40.1768 169.904 40.9823" stroke="#F93C00" stroke-linecap="round" stroke-linejoin="round"/>
<path d="M204.463 109.979C204.924 110.125 205.401 110.215 205.883 110.246C207.583 110.282 208.013 110.624 208.013 111.945" stroke="#F93C00" stroke-linecap="round" stroke-linejoin="round"/>
<path d="M112.858 29.0074C112.576 28.4257 112.458 27.7661 111.557 27.4878" stroke="#F93C00" stroke-linecap="round" stroke-linejoin="round"/>
<path d="M199.432 116.324C199.098 117.199 198.841 117.326 197.243 117.397" stroke="#F93C00" stroke-linecap="round" stroke-linejoin="round"/>
<path d="M77.9442 105.51C76.8124 105.583 76.9094 105.562 77.2017 106.322C77.4581 106.819 77.8928 107.2 78.4175 107.387" stroke="#F93C00" stroke-linecap="round" stroke-linejoin="round"/>
<path d="M2.67236 33.4751C3.58328 33.8234 4.54037 34.034 5.51253 34.1" stroke="#F93C00" stroke-linecap="round" stroke-linejoin="round"/>
<path d="M182.922 99.6111C183.521 100.342 184.202 101.044 184.342 101.935" stroke="#F93C00" stroke-linecap="round" stroke-linejoin="round"/>
<path d="M118.184 41.8765C118.097 41.9573 118.018 42.0476 117.951 42.1457C117.406 43.1683 117.354 43.1763 116.172 42.4128" stroke="#F93C00" stroke-linecap="round" stroke-linejoin="round"/>
<path d="M94.987 0.98877C94.486 1.12568 93.0004 0.892803 92.6201 1.21206" stroke="#F93C00" stroke-linecap="round" stroke-linejoin="round"/>
<path d="M181.147 127.317H178.778" stroke="#F93C00" stroke-linecap="round" stroke-linejoin="round"/>
<path d="M125.286 34.7266C125.052 35.4755 124.735 36.1952 124.339 36.8716" stroke="#F93C00" stroke-linecap="round" stroke-linejoin="round"/>
<path d="M27.7637 39.9104C27.7603 40.2109 28.4255 40.0064 28.3555 40.3575" stroke="#F93C00" stroke-linecap="round" stroke-linejoin="round"/>
</g>
<defs>
<clipPath id="clip0">
<rect width="252" height="127" fill="white" transform="translate(0.292969 0.601318)"/>
</clipPath>
</defs>
</svg>
