<svg width="1380" height="904" viewBox="0 0 1380 904" fill="none" xmlns="http://www.w3.org/2000/svg">
<path d="M693.881 745.519C682.536 725.134 706.647 708.714 732.17 708.714C759.112 698.497 736.424 681.817 754.861 661.999C773.298 642.181 791.732 669.077 810.167 650.674C842.559 618.339 814.421 561.492 868.309 547.336C898.975 539.281 922.053 510.584 929.288 492.128C942.051 459.57 980.34 439.751 1015.79 388.79C1051.24 337.829 1056.92 353.403 1102.3 252.895C1150.59 145.947 1165.82 163.712 1171.79 173.622C1195.59 213.127 1168.28 261.904 1146.26 301.025L1145.28 302.763C1123.66 341.171 1104.45 375.306 1096.63 419.933C1088.69 465.232 1085.28 523.271 1052.67 527.518C1020.05 531.765 999.913 536.578 987.433 567.155C971.834 605.375 925.379 589.817 900.929 611.038C868.309 639.35 922.197 646.428 909.434 690.311C896.671 734.194 862.637 725.701 830.021 725.701C797.404 725.701 794.568 732.779 795.986 745.519C797.404 758.259 786.063 783.74 771.882 792.233C757.701 800.727 737.841 787.987 732.17 776.662C726.499 765.337 708.062 771 693.881 745.519Z" stroke="white" stroke-width="1.6"/>
<path d="M668.393 715.538L668.16 715.755C646.947 724.268 644.964 705.824 614.415 705.824C595.179 714.904 560.675 687.381 546.531 674.613C525.316 655.461 489.957 630.377 450.355 644.82C422.953 654.814 381.052 657.588 355.589 637.726C326.393 614.953 303.101 568.889 291.943 552.604C276.39 529.904 252.344 514.299 225.474 498.693C198.603 483.087 143.696 482.708 129.291 470.318C109.497 453.294 140.606 420.664 164.65 410.733C183.885 402.788 225.467 414.043 243.853 420.664C272.142 430.85 300.144 464.644 315.985 470.318C364.075 487.546 371.147 529.904 419.232 552.604C456.544 570.217 495.609 561.116 532.382 580.978C567.741 600.076 579.054 572.465 629.97 602.258C680.887 632.051 669.572 654.751 679.472 678.869C687.3 697.938 675.052 709.34 668.393 715.538Z" stroke="white" stroke-width="1.6"/>
</svg>
