<svg width="516" height="345" viewBox="0 0 516 345" fill="none" xmlns="http://www.w3.org/2000/svg">
<path d="M238.432 332.379C239.905 332.379 240.976 332.646 241.645 333.179C242.324 333.703 242.663 334.439 242.663 335.389C242.663 335.981 242.522 336.509 242.241 336.974C241.97 337.44 241.558 337.808 241.005 338.079C240.453 338.341 239.774 338.472 238.97 338.472C238.243 338.472 237.549 338.356 236.89 338.123C236.241 337.881 235.717 337.561 235.32 337.163L235.829 336.335C236.168 336.683 236.614 336.969 237.167 337.192C237.719 337.406 238.315 337.512 238.955 337.512C239.798 337.512 240.448 337.323 240.904 336.945C241.369 336.567 241.602 336.063 241.602 335.433C241.602 334.735 241.34 334.207 240.816 333.848C240.303 333.489 239.43 333.31 238.199 333.31H236.032L236.556 328.206H242.125V329.137H237.472L237.123 332.379H238.432ZM250.872 337.454V338.385H243.732V337.643L247.963 333.499C248.497 332.976 248.855 332.525 249.039 332.147C249.233 331.759 249.33 331.371 249.33 330.984C249.33 330.383 249.122 329.917 248.705 329.588C248.298 329.248 247.711 329.079 246.946 329.079C245.753 329.079 244.827 329.457 244.168 330.213L243.427 329.573C243.824 329.108 244.328 328.749 244.939 328.497C245.559 328.245 246.257 328.119 247.033 328.119C248.07 328.119 248.889 328.366 249.49 328.861C250.101 329.345 250.406 330.014 250.406 330.867C250.406 331.391 250.29 331.895 250.057 332.379C249.825 332.864 249.384 333.422 248.734 334.052L245.273 337.454H250.872ZM259.51 334.546L257.707 336.204V338.385H256.674V327.596H257.707V334.91L262.273 330.736H263.552L260.281 333.863L263.858 338.385H262.593L259.51 334.546ZM274.833 330.678C275.792 330.678 276.544 330.954 277.086 331.507C277.639 332.06 277.915 332.874 277.915 333.95V338.385H276.883V334.052C276.883 333.257 276.689 332.651 276.301 332.234C275.923 331.817 275.385 331.609 274.687 331.609C273.892 331.609 273.267 331.856 272.811 332.35C272.356 332.835 272.128 333.509 272.128 334.372V338.385H271.096V334.052C271.096 333.257 270.902 332.651 270.514 332.234C270.136 331.817 269.593 331.609 268.885 331.609C268.1 331.609 267.475 331.856 267.01 332.35C266.554 332.835 266.326 333.509 266.326 334.372V338.385H265.294V330.736H266.283V332.132C266.554 331.667 266.932 331.308 267.417 331.056C267.901 330.804 268.459 330.678 269.089 330.678C269.729 330.678 270.281 330.814 270.747 331.085C271.222 331.357 271.575 331.759 271.808 332.292C272.089 331.788 272.492 331.396 273.015 331.114C273.548 330.824 274.154 330.678 274.833 330.678Z" fill="#C7D4DB"/>
<line x1="515.123" y1="300.332" x2="515.123" y2="333.41" stroke="#F93C00" stroke-width="0.727037"/>
<path d="M1 316.872H515.692" stroke="#F93C00" stroke-width="0.727037"/>
<line x1="0.363519" y1="300.332" x2="0.363517" y2="333.41" stroke="#F93C00" stroke-width="0.727037"/>
<g clip-path="url(#clip0)">
<path d="M420.849 123.852C414.351 122.387 410.732 124.032 409.994 128.787C410.073 127.886 381.668 130.348 382.112 130.181C381.467 130.468 380.755 130.565 380.057 130.459C379.36 130.353 378.707 130.049 378.175 129.583C376.642 128.255 374.201 128.007 371.743 128.576C370.321 131.045 368.545 133.29 366.474 135.238C364.412 136.067 345.474 140.443 345.145 133.899" stroke="#B3CBE6" stroke-opacity="0.5" stroke-width="2.02164" stroke-linecap="round" stroke-linejoin="round"/>
<path d="M513.713 54.4186C513.713 60.5089 513.54 66.604 513.799 72.6886C513.902 75.1275 511.97 76.3655 509.797 76.9857C505.658 78.1587 503.791 80.6348 502.164 83.313C501.564 84.6143 500.503 85.643 499.19 86.1979C498.227 86.5331 497.369 87.1172 496.701 87.8918C496.034 88.6664 495.58 89.6043 495.385 90.6113C493.617 92.6538 491.888 94.7172 490.197 96.8015C489.407 98.6086 487.816 100.149 486.779 101.902C485.924 103.881 484.973 105.831 483.925 107.755C482.436 109.049 481.169 110.582 480.174 112.292C479.679 113.248 479.281 114.252 478.987 115.289C478.41 117.013 477.469 117.96 475.023 118.252C473.457 118.409 471.985 119.081 470.836 120.164C468.662 122.267 455.48 129.455 455.437 132.444C455.426 133.238 454.893 134.014 455.299 134.819" stroke="#B3CBE6" stroke-opacity="0.5" stroke-width="2.02164" stroke-linecap="round" stroke-linejoin="round"/>
<path d="M420.873 124.948C420.739 126.781 419.144 128.352 419.375 130.248C419.519 131.1 419.828 131.915 420.285 132.647C421.76 135.765 422.445 139.202 422.279 142.651C419.8 144.161 420.714 146.252 420.634 148.153C420.207 148.824 419.631 149.387 418.952 149.797C418.273 150.206 417.51 150.452 416.721 150.515C412.794 151.951 408.847 153.352 404.879 154.719C403.282 155.434 401.554 155.804 399.806 155.805C397.629 155.731 388.881 161.164 388.793 163.131C388.772 163.589 387.672 164.882 385.968 163.726C382.138 163.276 378.445 162.016 375.131 160.029" stroke="#B3CBE6" stroke-opacity="0.5" stroke-width="1.01082" stroke-linecap="round" stroke-linejoin="round"/>
<path d="M454.696 133.9C450.88 132.519 447.054 131.177 446.185 127.512C446.024 126.831 445.23 126.351 444.053 126.387C441.904 126.823 439.685 126.762 437.562 126.208C435.711 124.103 432.536 124.349 429.991 124.009C426.455 122.55 423.413 122.864 420.863 124.949" stroke="#B3CBE6" stroke-opacity="0.5" stroke-width="2.02164" stroke-linecap="round" stroke-linejoin="round"/>
<path d="M287.825 90.9623C288.527 92.9994 288.89 93.1259 290.714 91.8647C291.421 91.3964 292.164 90.9847 292.935 90.6335C296.911 88.7428 296.855 85.2702 298.681 82.5467C299.046 82.002 298.262 81.9486 297.745 81.8185C295.745 81.3745 293.66 81.5334 291.749 82.275C289.399 82.7311 287.055 83.2044 284.716 83.6953C281.163 83.6558 277.611 83.5897 274.061 83.4968C271.929 84.2726 262.886 85.5711 260.984 84.75" stroke="#B3CBE6" stroke-opacity="0.5" stroke-width="1.01082" stroke-linecap="round" stroke-linejoin="round"/>
<path d="M171.74 47.8396C171.776 48.0777 171.767 48.4203 171.494 48.4621C158.024 53.6631 143.538 55.6354 129.181 54.2227C126.375 54.4439 123.689 55.4623 121.436 57.1598" stroke="#B3CBE6" stroke-opacity="0.5" stroke-width="2.02164" stroke-linecap="round" stroke-linejoin="round"/>
<path d="M306.697 62.8236C307.389 65.9164 309.989 68.2184 312.543 70.4715C314.582 72.5015 316.507 74.6456 318.307 76.8939C327.128 86.5509 347.901 78.5199 356.272 85.4883C360.457 88.9725 368.418 87.818 371.064 92.9653C371.136 93.1047 400.657 112.188 402.463 112.555C408.677 113.986 414.632 116.386 420.111 119.666C421.439 120.518 422.688 121.481 422.79 122.94" stroke="#B3CBE6" stroke-opacity="0.5" stroke-width="2.02164" stroke-linecap="round" stroke-linejoin="round"/>
<path d="M278.396 119.83C276.587 121.008 276.59 122.292 277.615 123.87C278.414 125.099 279.69 126.308 279.123 127.869C278.998 128.218 279.29 128.433 279.61 128.595C280.762 131.128 279.552 132.836 275.977 133.721C271.448 133.308 266.374 135.531 265.241 138.679C264.096 139.752 263.228 141.09 262.71 142.576C262.192 144.062 262.039 145.653 262.266 147.211C263.578 149.396 264.572 151.729 267.679 153.177C270.312 156.236 269.526 158.692 265.319 160.546C264.837 160.617 264.345 160.56 263.893 160.379C263.472 160.209 263.022 160.124 262.569 160.13C262.116 160.137 261.668 160.233 261.253 160.415C260.507 160.806 259.691 161.04 258.853 161.103C258.015 161.166 257.174 161.057 256.379 160.782C254.579 160.386 252.318 161.09 251.892 162.419C250.004 163.74 248.135 165.077 246.285 166.429C245.478 169.386 242.48 169.624 239.459 169.667C237.723 169.595 235.994 169.934 234.412 170.656C233.702 170.999 232.932 171.197 232.146 171.24C231.36 171.283 230.574 171.169 229.832 170.905C228.075 170.475 226.276 170.248 224.469 170.228C216.283 169.562 223.105 182.175 211.619 179.836C204.38 179.514 197.153 180.684 190.379 183.274C187.43 185.246 184.526 187.255 181.667 189.3C179.863 189.548 178.567 189.471 178.035 187.979C177.689 187.005 176.813 186.83 175.614 186.857C174.807 186.954 173.989 186.825 173.251 186.482C171.332 184.839 168.386 185.32 166.151 184.367C165.636 184.146 164.731 184.447 164.006 184.508" stroke="#B3CBE6" stroke-opacity="0.5" stroke-width="1.01082" stroke-linecap="round" stroke-linejoin="round"/>
<path d="M374.895 159.297C373.592 159.674 372.221 159.757 370.883 159.538C369.544 159.319 368.27 158.805 367.152 158.033C365.284 158.588 364.548 159.679 364.944 161.308C364.978 164.424 362.544 166.575 358.202 166.937C352.929 168.681 347.9 171.097 343.235 174.125C340.651 175.377 338.462 177.327 336.912 179.758C336.199 180.833 325.09 185.256 325.076 185.258C325.063 185.26 325.076 185.49 325.076 185.606" stroke="#B3CBE6" stroke-opacity="0.5" stroke-width="1.01082" stroke-linecap="round" stroke-linejoin="round"/>
<path d="M38.3555 56.6118C39.1867 57.3389 54.7641 62.4189 56.588 63.2249C62.9321 64.4319 69.4875 63.7619 75.4616 61.2958C76.8288 61.0353 78.2343 61.0579 79.5925 61.362C83.7199 63.082 88.231 63.6505 92.6518 63.0077" stroke="#B3CBE6" stroke-opacity="0.5" stroke-width="1.01082" stroke-linecap="round" stroke-linejoin="round"/>
<path d="M93.62 63.0054C87.9276 75.9038 78.6565 86.7435 65.8066 95.5245" stroke="#B3CBE6" stroke-opacity="0.5" stroke-width="1.01082" stroke-linecap="round" stroke-linejoin="round"/>
<path d="M262.919 149.067C261.995 149.38 261.012 149.481 260.044 149.36C259.075 149.24 258.146 148.901 257.325 148.37C254.115 146.803 250.704 145.694 247.19 145.076C245.345 144.728 243.917 145.68 242.617 146.519C238.645 147.673 234.588 148.509 230.485 149.019C229.177 149.484 227.777 149.628 226.402 149.438C225.027 149.248 223.718 148.73 222.582 147.927C221.29 146.998 206.496 144.975 203.904 144.231C203.281 144.08 202.632 144.078 202.008 144.222C201.384 144.367 200.801 144.655 200.306 145.064C200.734 144.769 179.94 151.942 181.443 151.488C178.356 152.562 175.61 154.447 173.487 156.947C169.106 158.643 167.794 160.775 169.551 163.341C170.209 163.767 170.967 164.01 171.748 164.048" stroke="#B3CBE6" stroke-opacity="0.5" stroke-width="1.01082" stroke-linecap="round" stroke-linejoin="round"/>
<path d="M433.903 159.298C434.789 161.969 434.629 161.936 431.52 163.363C429.529 164.378 427.721 165.724 426.172 167.343C425.953 167.552 425.925 167.954 425.668 168.05C421.402 169.634 421.35 173.834 417.29 175.655C416.057 176.208 415.431 177.365 413.664 177.895C411.776 177.825 409.893 178.15 408.136 178.85C406.379 179.55 404.785 180.609 403.454 181.96C400.98 191.186 385.249 189.655 381.664 196.2" stroke="#B3CBE6" stroke-opacity="0.5" stroke-width="1.01082" stroke-linecap="round" stroke-linejoin="round"/>
<path d="M213.818 180.493C213.378 182.97 216.657 186.236 212.357 187.602C210.166 188.299 208.571 189.397 208.041 191.186C207.316 192.315 206.868 193.602 206.733 194.94C205.895 199.585 202.867 203.364 197.648 206.277C196.8 207.072 195.804 207.689 194.717 208.091C192.861 208.747 191.028 209.3 189.781 210.778C188.841 211.892 186.802 212.249 185.033 212.446C175.784 214.348 171.736 218.562 172.891 225.088C173.071 225.387 173.129 225.745 173.052 226.087C172.975 226.428 172.769 226.725 172.478 226.916C170.678 226.8 168.873 227.03 167.158 227.593C165.032 228.753 163.2 230.392 161.805 232.382C159.689 234.702 157.96 237.352 156.686 240.229C156.524 240.635 156.268 240.996 155.942 241.284C155.615 241.571 155.225 241.778 154.805 241.886" stroke="#B3CBE6" stroke-opacity="0.5" stroke-width="1.01082" stroke-linecap="round" stroke-linejoin="round"/>
<path d="M98.4587 59.1685C91.4004 45.1482 92.2029 44.8473 74.7578 44.2771" stroke="#B3CBE6" stroke-opacity="0.5" stroke-width="1.01082" stroke-linecap="round" stroke-linejoin="round"/>
<path d="M150.223 113.07C146.337 114.419 142.208 114.907 138.118 114.5C134.679 115.007 131.201 115.186 127.73 115.035C123.193 115.791 118.846 117.43 114.932 119.861C114.179 120.355 113.604 121.082 113.295 121.933C112.986 122.784 112.958 123.712 113.216 124.58" stroke="#B3CBE6" stroke-opacity="0.5" stroke-width="1.01082" stroke-linecap="round" stroke-linejoin="round"/>
<path d="M204.149 45.8304C203.392 46.4664 202.709 47.1868 202.113 47.9779C200.624 49.5671 198.696 50.6714 196.579 51.1486C191.475 52.4331 189.945 55.6653 187.701 58.6198C185.626 61.3491 176.314 66.6334 174.16 70.4974" stroke="#B3CBE6" stroke-opacity="0.5" stroke-width="1.01082" stroke-linecap="round" stroke-linejoin="round"/>
<path d="M182.381 35.7816C182.381 35.7816 204.235 45.189 207.33 47.6279C212.133 48.23 216.837 49.4683 221.318 51.3108" stroke="#B3CBE6" stroke-opacity="0.5" stroke-width="2.02164" stroke-linecap="round" stroke-linejoin="round"/>
<path d="M302.82 59.9004C300.763 59.7158 302.097 58.1931 301.194 57.4766C300.848 57.1978 301.02 56.5092 300.432 56.0411C299.049 54.9448 297.995 53.6858 298.472 52.0436C297.242 50.2852 296.047 48.5152 294.886 46.7336C294.227 45.0185 293.286 43.4273 292.103 42.0265C288.577 40.5694 284.983 39.2125 281.321 37.9558C280.526 37.417 279.609 37.0898 278.655 37.0047C275.743 36.3694 272.48 36.971 269.849 35.1127C266.934 33.0536 248.707 39.0615 247.567 35.6191C245.046 34.6871 242.371 34.2511 239.687 34.3347C236.92 33.416 231.287 42.0963 231.21 42.1614C230.377 43.2489 229.658 44.4202 229.065 45.657C229.244 45.5293 220.403 54.2759 220.599 53.14C219.511 59.4546 203.866 71.8734 197.613 77.2576" stroke="#B3CBE6" stroke-opacity="0.5" stroke-width="2.02164" stroke-linecap="round" stroke-linejoin="round"/>
<path d="M83.229 74.7002C80.7579 72.5671 77.5938 71.914 73.7369 72.7409C70.142 73.67 67.8108 75.9545 64.367 76.8987C45.7056 82.0158 62.2075 84.7961 43.3247 77.2564C39.2919 76.1622 35.0039 76.5518 31.2305 78.3551" stroke="#B3CBE6" stroke-opacity="0.5" stroke-width="1.01082" stroke-linecap="round" stroke-linejoin="round"/>
<path d="M301.364 196.939C294.927 196.167 288.4 196.862 282.265 198.97C281.954 199.029 281.585 199.515 281.317 199.295C279.724 197.987 277.868 199.438 276.206 198.96C275.383 198.727 275.108 199.373 274.786 199.695C271.289 203.179 266.254 205.317 261.924 208.067C259.9 208.764 259.242 209.939 259.95 211.591C260.295 211.952 260.545 212.394 260.676 212.878C260.807 213.361 260.816 213.87 260.701 214.358C260.587 214.846 260.352 215.297 260.019 215.669C259.687 216.042 259.266 216.324 258.797 216.491" stroke="#B3CBE6" stroke-opacity="0.5" stroke-width="1.01082" stroke-linecap="round" stroke-linejoin="round"/>
<path d="M193.512 0.79187C196.554 2.32577 199.348 4.31723 201.796 6.69767C208.169 13.6811 218.187 34.0148 233.658 34.182C234.661 34.3341 235.638 34.6266 236.561 35.0508" stroke="#B3CBE6" stroke-opacity="0.5" stroke-width="1.01082" stroke-linecap="round" stroke-linejoin="round"/>
<path d="M347.326 133.899C345.483 133.683 343.678 133.214 341.961 132.506C341.408 132.212 340.795 132.052 340.17 132.037C339.544 132.023 338.924 132.155 338.358 132.422C337.525 132.772 336.613 132.89 335.719 132.763C333.239 132.666 331.223 132.927 329.85 134.789C329.697 135 329.495 135.168 329.261 135.279C329.027 135.39 328.769 135.44 328.511 135.424C328.252 135.408 328.003 135.327 327.784 135.188C327.565 135.049 327.385 134.857 327.259 134.629C326.86 134.202 326.539 133.706 326.312 133.165C324.276 131.107 322.8 131.292 321.884 133.718C321.904 135.184 320.176 135.778 317.578 135.767C315.018 135.756 313.129 134.576 311.104 133.816C307.725 132.67 304.529 131.037 301.615 128.968C300.052 127.767 299.019 127.743 297.498 128.779C296.439 129.499 295.729 130.599 293.875 130.451C292.468 130.367 291.121 129.845 290.021 128.958C289.073 128.193 288.184 127.787 287.109 128.786C286.939 128.912 286.739 128.993 286.529 129.02C286.319 129.048 286.106 129.022 285.909 128.944C283.963 128.327 282.45 129.204 280.816 129.697" stroke="#B3CBE6" stroke-opacity="0.5" stroke-width="2.02164" stroke-linecap="round" stroke-linejoin="round"/>
<path d="M360.383 234.668C361.741 236.116 360.433 237.395 359.336 238.166C357.593 241.525 354.557 243.436 350.228 243.899C347.428 242.843 344.877 244.061 342.255 244.467C341.155 245.73 339.938 246.885 338.621 247.916" stroke="#B3CBE6" stroke-opacity="0.5" stroke-width="1.01082" stroke-linecap="round" stroke-linejoin="round"/>
<path d="M123.611 57.5243C123.853 57.7066 124.054 57.9889 124.342 58.0562C128.839 59.0515 129.81 62.0979 130.453 64.855C130.879 66.6924 132.014 68.3114 132.343 70.129C132.694 72.3313 132.536 74.5856 131.881 76.7164C131.716 77.401 131.738 78.118 131.945 78.791C132.153 79.4639 132.537 80.0675 133.059 80.5374C133.761 81.1356 134.304 81.9006 134.64 82.7634C134.975 83.6262 135.091 84.5597 134.978 85.4792" stroke="#B3CBE6" stroke-opacity="0.5" stroke-width="1.01082" stroke-linecap="round" stroke-linejoin="round"/>
<path d="M159.645 120.745C163.527 120.718 167.405 121.01 171.241 121.616C180.427 120.594 185.927 123.107 187.739 129.153C187.606 130.005 200.664 141.403 202.212 144.135" stroke="#B3CBE6" stroke-opacity="0.5" stroke-width="1.01082" stroke-linecap="round" stroke-linejoin="round"/>
<path d="M375.619 198.033C377.31 197.952 379.025 197.944 379.983 196.576C380.342 196.063 381.075 196.277 381.663 196.197C383.277 195.978 383.728 194.964 383.162 193.819C379.645 191.419 376.267 188.914 373.03 186.306C370.141 180.756 365.926 178.879 360.387 180.674" stroke="#B3CBE6" stroke-opacity="0.5" stroke-width="1.01082" stroke-linecap="round" stroke-linejoin="round"/>
<path d="M246.109 123.302C247.461 124.628 250.741 128.083 250.815 129.881C250.91 132.203 252.225 133.597 255.196 134.228C255.604 134.314 255.998 134.459 256.366 134.657C259.16 136.29 262.352 137.104 265.581 137.007" stroke="#B3CBE6" stroke-opacity="0.5" stroke-width="1.01082" stroke-linecap="round" stroke-linejoin="round"/>
<path d="M363.163 44.7335C362.996 46.0656 361.496 46.8869 361.004 48.183C359.934 50.9994 360.628 53.8087 360.413 56.6123C360.328 57.7342 361.69 58.6297 362.443 59.2661C365.358 61.7635 367.645 64.9212 369.116 68.4806C370.255 69.566 371.101 70.9263 371.574 72.4328C372.046 73.9393 372.13 75.5421 371.816 77.09C371.009 79.2874 369.783 81.68 372.716 83.6543" stroke="#B3CBE6" stroke-opacity="0.5" stroke-width="1.01082" stroke-linecap="round" stroke-linejoin="round"/>
<path d="M357.483 159.845C355.067 159.967 352.616 160.279 350.933 158.394C348.449 158.298 345.998 159.001 343.937 160.401C343.567 160.339 343.186 160.394 342.849 160.56C342.511 160.725 342.233 160.992 342.053 161.324C340.783 163.027 338.978 164.248 336.932 164.787C334.5 167.033 332.079 169.283 329.668 171.54" stroke="#B3CBE6" stroke-opacity="0.5" stroke-width="1.01082" stroke-linecap="round" stroke-linejoin="round"/>
<path d="M121.194 57.8896C121.533 51.1848 105.179 55.8304 102.978 57.8373C101.486 59.1961 98.9069 59.1961 96.7647 59.6955C94.49 60.2285 93.0857 61.2716 92.9023 62.8197" stroke="#B3CBE6" stroke-opacity="0.5" stroke-width="1.01082" stroke-linecap="round" stroke-linejoin="round"/>
<path d="M375.26 219.959C371.89 222.248 370.056 225.048 369.757 228.36C369.661 228.99 369.093 229.513 367.9 229.705C366.2 229.978 364.641 230.661 364.967 232.386C365.113 233.16 364.275 233.46 363.53 233.45C363.014 233.43 362.5 233.538 362.035 233.767C361.571 233.996 361.17 234.337 360.869 234.76" stroke="#B3CBE6" stroke-opacity="0.5" stroke-width="1.01082" stroke-linecap="round" stroke-linejoin="round"/>
<path d="M324.833 184.878C323.651 184.22 322.273 184.014 320.953 184.298C317.761 184.836 303.717 183.788 301.911 186.548C301.695 186.883 301.431 187.183 301.128 187.439C298.123 189.973 298.068 190.894 299.847 194.044C300.378 194.985 300.332 196.126 301.373 196.947" stroke="#B3CBE6" stroke-opacity="0.5" stroke-width="1.01082" stroke-linecap="round" stroke-linejoin="round"/>
<path d="M360.387 212.286C359.381 211.947 358.407 211.522 357.473 211.017C355.243 209.612 352.285 209.707 349.708 209.321C347.572 209.002 346.119 210.761 345.125 212.277C344.922 212.584 344.702 212.913 344.465 213.217C342.17 216.165 342.196 216.186 337.654 215.386C335.685 215.625 333.883 216.624 332.63 218.173C330.006 220.489 326.493 220.743 322.899 220.861C322.123 220.87 321.356 221.036 320.645 221.35C319.934 221.664 319.293 222.12 318.76 222.689C317.196 224.059 315.281 224.958 313.233 225.282C309.302 226.859 305.431 228.515 301.618 230.251C301.368 230.233 301.117 230.274 300.885 230.369C300.653 230.465 300.446 230.614 300.28 230.803C300.114 230.992 299.993 231.217 299.927 231.461C299.862 231.705 299.852 231.961 299.9 232.209C300.032 234.912 300.916 237.66 299.004 240.268C297.449 242.389 302.082 246.763 304.278 247.374" stroke="#B3CBE6" stroke-opacity="0.5" stroke-width="1.01082" stroke-linecap="round" stroke-linejoin="round"/>
<path d="M376.35 177.2C378.439 178.758 379.556 176.653 381.177 176.432C381.56 176.38 381.826 175.851 382.155 175.556C383.796 174.691 384.703 174.994 384.876 176.467C384.991 178.532 389.141 181.483 391.827 181.585C392.342 181.646 392.862 181.523 393.297 181.237C394.36 180.547 395.57 180.12 396.828 179.988C398.086 179.856 399.358 180.024 400.539 180.478C401.387 180.736 402.307 180.856 403.191 181.038" stroke="#B3CBE6" stroke-opacity="0.5" stroke-width="1.01082" stroke-linecap="round" stroke-linejoin="round"/>
<path d="M254.936 72.9631C252.054 71.969 251.092 72.552 251.008 74.8806C250.927 77.1488 252.985 78.2649 254.673 79.6423C254.757 79.7108 254.701 79.8828 254.935 79.8085C255.108 79.755 260.912 83.9314 260.647 84.7258C260.723 87.5349 258.674 88.7461 254.497 88.3597C254.099 88.0926 241.338 84.5933 241.029 83.6479" stroke="#B3CBE6" stroke-opacity="0.5" stroke-width="1.01082" stroke-linecap="round" stroke-linejoin="round"/>
<path d="M157.717 217.402C152.875 218.266 150.376 221.235 147.9 224.029C145.396 225.497 142.665 226.53 139.82 227.086" stroke="#B3CBE6" stroke-opacity="0.5" stroke-width="1.01082" stroke-linecap="round" stroke-linejoin="round"/>
<path d="M30.738 78.1712C33.4474 65.9394 -2.36276 62.6329 16.2272 71.9589C18.857 70.8079 22.2824 72.6558 24.692 70.6814" stroke="#B3CBE6" stroke-opacity="0.5" stroke-width="1.01082" stroke-linecap="round" stroke-linejoin="round"/>
<path d="M165.938 15.3163C161.146 8.17259 209.393 17.8238 208.021 18.4231" stroke="#B3CBE6" stroke-opacity="0.5" stroke-width="1.01082" stroke-linecap="round" stroke-linejoin="round"/>
<path d="M449.384 132.073C447.534 133.716 445.233 135.025 443.536 136.8C439.469 141.058 450.008 151.876 449.317 158.578C449.168 160.297 449.31 162.03 449.739 163.701C449.907 166.952 450.831 170.118 452.437 172.943C453.93 175.144 453.967 177.472 454.134 179.765C454.237 181.18 454.993 182.424 455.188 183.781" stroke="#B3CBE6" stroke-opacity="0.5" stroke-width="1.01082" stroke-linecap="round" stroke-linejoin="round"/>
<path d="M280.816 15.5001C282.223 14.931 283.527 14.3933 283.814 12.9521C283.973 12.1519 290.993 8.6084 291.609 10.9451C292.356 13.7824 294.865 15.8892 296.357 18.4025C297.248 20.8097 298.447 23.0895 299.924 25.1839" stroke="#B3CBE6" stroke-opacity="0.5" stroke-width="1.01082" stroke-linecap="round" stroke-linejoin="round"/>
<path d="M252.396 36.6947C252.919 37.3091 253.347 38.057 252.959 38.69C251.806 40.5715 252.764 42.1928 254.52 43.2056C256.994 44.6329 259.877 45.5899 262.318 47.1821C264.976 47.5769 267.604 48.1614 270.181 48.9312C270.839 49.398 271.595 49.7069 272.39 49.8346C273.186 49.9622 273.999 49.9051 274.769 49.6676" stroke="#B3CBE6" stroke-opacity="0.5" stroke-width="1.01082" stroke-linecap="round" stroke-linejoin="round"/>
<path d="M329.189 171.906C329.109 171.906 328.976 171.929 328.959 171.906C325.994 170.59 322.715 170.166 319.517 170.685C316.318 171.204 313.338 172.645 310.934 174.832" stroke="#B3CBE6" stroke-opacity="0.5" stroke-width="1.01082" stroke-linecap="round" stroke-linejoin="round"/>
<path d="M253.974 88.5865C250.049 89.7136 245.973 90.2168 241.893 90.0778C238.982 90.7224 229.503 97.1054 229.111 96.7756C226.436 96.7695 223.85 95.8101 221.81 94.0672C221.798 93.0312 221.81 91.9965 221.81 90.9605" stroke="#B3CBE6" stroke-opacity="0.5" stroke-width="1.01082" stroke-linecap="round" stroke-linejoin="round"/>
<path d="M130.38 215.939C129.962 217.355 130.748 220.817 132.129 221.543C133.12 223.404 134.606 224.951 136.42 226.009C137.629 226.242 139.402 226.43 139.225 227.624C139.059 228.745 137.174 228.345 136.169 228.46C134.679 228.631 132.854 229.021 131.591 227.814" stroke="#B3CBE6" stroke-opacity="0.5" stroke-width="1.01082" stroke-linecap="round" stroke-linejoin="round"/>
<path d="M383.118 229.645C383.656 230.264 383.198 230.691 382.636 231.107C381.789 231.727 381.117 232.558 380.687 233.52C380.257 234.481 380.084 235.539 380.185 236.588C378.97 240.142 376.919 243.346 374.207 245.927C373.086 247.088 372.292 248.393 370.566 249.224C369.851 249.534 369.264 250.081 368.903 250.775C368.542 251.469 368.428 252.267 368.581 253.035C368.608 253.214 368.586 253.397 368.519 253.565C368.451 253.733 368.34 253.88 368.196 253.989C367.551 254.602 367.106 255.398 366.921 256.272C366.735 257.145 366.818 258.055 367.159 258.88" stroke="#B3CBE6" stroke-opacity="0.5" stroke-width="1.01082" stroke-linecap="round" stroke-linejoin="round"/>
<path d="M372.488 197.303C374.81 197.474 376.17 198.451 376.568 200.234C376.633 200.372 376.666 200.523 376.664 200.676C376.662 200.829 376.625 200.979 376.557 201.115C376.488 201.252 376.389 201.37 376.268 201.462C376.147 201.553 376.006 201.616 375.857 201.644C373.885 202.511 372.275 202.347 371.027 201.152C368.303 199.688 366.602 200.356 365.923 203.154C366.067 203.872 366.059 204.613 366.181 205.344C365.545 207.284 364.45 209.038 362.99 210.455C362.933 210.813 362.771 211.145 362.524 211.409C362.278 211.673 361.958 211.856 361.607 211.934C360.305 212.269 360.578 213.02 360.877 213.752" stroke="#B3CBE6" stroke-opacity="0.5" stroke-width="1.01082" stroke-linecap="round" stroke-linejoin="round"/>
<path d="M122.881 189.812C127.104 192.106 129.115 194.844 128.912 198.026C127.298 199.559 128.361 200.896 129.411 202.238" stroke="#B3CBE6" stroke-opacity="0.5" stroke-width="1.01082" stroke-linecap="round" stroke-linejoin="round"/>
<path d="M349.018 217.221C347.416 218.424 346.207 220.082 345.549 221.983C344.74 224.745 343.8 227.483 342.73 230.198" stroke="#B3CBE6" stroke-opacity="0.5" stroke-width="1.01082" stroke-linecap="round" stroke-linejoin="round"/>
<path d="M392.791 206.438C393.314 208.379 394.13 210.226 395.212 211.916C397.403 213.11 398.944 214.869 401.464 215.807C402.556 216.213 403.655 224.103 403.728 223.804C403.392 225.168 404.444 226.243 405.85 227.086" stroke="#B3CBE6" stroke-opacity="0.5" stroke-width="1.01082" stroke-linecap="round" stroke-linejoin="round"/>
<path d="M310.811 69.9479C311.91 69.2023 297.064 82.8627 300.384 80.8837C299.977 81.1264 299.633 81.4226 299.203 81.6421" stroke="#B3CBE6" stroke-opacity="0.5" stroke-width="1.01082" stroke-linecap="round" stroke-linejoin="round"/>
<path d="M161.585 84.5663C158.702 86.0204 156.249 88.213 154.474 90.9238C153.563 91.9049 152.453 92.6769 151.22 93.1867C149.986 93.6966 148.658 93.9325 147.325 93.8784C147.285 93.8482 147.316 93.7623 147.316 93.7031" stroke="#B3CBE6" stroke-opacity="0.5" stroke-width="1.01082" stroke-linecap="round" stroke-linejoin="round"/>
<path d="M272.355 107.864C273.784 108.762 275.013 109.947 275.966 111.346C276.918 112.745 277.573 114.328 277.89 115.994C277.281 117.435 278.581 118.522 279.043 119.71C279.258 119.93 279.515 120.105 279.798 120.224C280.082 120.342 280.386 120.403 280.693 120.401C281 120.4 281.303 120.337 281.586 120.217C281.868 120.096 282.124 119.919 282.338 119.697C286.135 118.943 288.681 117.167 289.975 114.368C289.043 112.952 288.471 111.327 288.308 109.637C288.145 107.946 288.397 106.241 289.042 104.671" stroke="#B3CBE6" stroke-opacity="0.5" stroke-width="1.01082" stroke-linecap="round" stroke-linejoin="round"/>
<path d="M186.827 37.7194C185.888 39.4011 183.751 42.7273 184.957 44.5855C187.326 48.2393 174.502 49.1266 171.744 48.3891" stroke="#B3CBE6" stroke-opacity="0.5" stroke-width="2.02164" stroke-linecap="round" stroke-linejoin="round"/>
<path d="M245.261 113.07C244.302 113.21 243.322 112.812 242.346 113.235C239.745 114.249 239.668 115.532 242.115 117.083C243.541 117.28 246.797 123.233 245.258 123.123" stroke="#B3CBE6" stroke-opacity="0.5" stroke-width="1.01082" stroke-linecap="round" stroke-linejoin="round"/>
<path d="M214.311 0.699463C214.391 1.36959 214.523 2.03865 214.541 2.70993C214.618 5.29752 209.751 10.1011 207.779 12.3937" stroke="#B3CBE6" stroke-opacity="0.5" stroke-width="1.01082" stroke-linecap="round" stroke-linejoin="round"/>
<path d="M140.54 185.61C139.068 177.036 132.023 185.532 128.935 181.954C127.961 180.826 126.283 180.701 124.809 180.336C121.665 179.558 120.704 187.29 122.619 188.202C123.347 188.551 122.917 189.364 122.378 189.596C120.707 190.293 119.972 191.724 118.293 192.374" stroke="#B3CBE6" stroke-opacity="0.5" stroke-width="1.01082" stroke-linecap="round" stroke-linejoin="round"/>
<path d="M388.687 75.7972C384.889 76.8901 375.933 77.7961 374.695 81.1038C373.467 82.0524 372.47 83.2714 371.782 84.6676C371.093 86.0639 370.731 87.6002 370.723 89.1591C370.906 89.5375 370.94 89.9719 370.818 90.3745C370.696 90.7772 370.426 91.1181 370.064 91.3287" stroke="#B3CBE6" stroke-opacity="0.5" stroke-width="1.01082" stroke-linecap="round" stroke-linejoin="round"/>
<path d="M276.705 224.436C279.372 225.172 280.881 227.156 283.683 227.893C286.406 228.61 288.69 230.267 291.965 229.325C294.583 229.6 297.167 230.134 299.681 230.921" stroke="#B3CBE6" stroke-opacity="0.5" stroke-width="1.01082" stroke-linecap="round" stroke-linejoin="round"/>
<path d="M107.408 224.895C113.485 223.21 118.973 224.679 124.322 226.745C124.803 226.852 125.295 226.905 125.788 226.904" stroke="#B3CBE6" stroke-opacity="0.5" stroke-width="1.01082" stroke-linecap="round" stroke-linejoin="round"/>
<path d="M340.311 52.7739C336.538 54.8946 334.474 57.7594 334.117 61.3683C335.355 64.0524 337.454 66.2386 340.075 67.5748C340.472 69.0962 343.624 69.2647 343.064 71.426C342.61 73.1786 343.814 74.9439 344.113 76.7185C344.181 77.118 345.098 78.0831 343.456 78.1737" stroke="#B3CBE6" stroke-opacity="0.5" stroke-width="1.01082" stroke-linecap="round" stroke-linejoin="round"/>
<path d="M117.812 169.165C118.994 171.928 120.07 174.759 122.247 177.162C123.185 178.198 122.823 179.358 123.616 180.311" stroke="#B3CBE6" stroke-opacity="0.5" stroke-width="1.01082" stroke-linecap="round" stroke-linejoin="round"/>
<path d="M403.432 221.605C401.127 222.678 398.782 223.707 396.4 224.693C393.841 225.854 393.104 227.021 394.019 228.815C394.078 228.931 394.48 228.944 394.721 229.005" stroke="#B3CBE6" stroke-opacity="0.5" stroke-width="1.01082" stroke-linecap="round" stroke-linejoin="round"/>
<path d="M173.68 27.0114C174.728 25.7548 175.968 26.5562 176.77 27.0602C178.978 29.5976 180.643 32.5664 181.66 35.7812" stroke="#B3CBE6" stroke-opacity="0.5" stroke-width="1.01082" stroke-linecap="round" stroke-linejoin="round"/>
<path d="M448.175 155.094C445.76 154.606 443.258 154.803 440.948 155.663C436.759 159.021 430.709 160.484 424.717 160.952C422.994 161.489 421.361 162.286 419.875 163.317" stroke="#B3CBE6" stroke-opacity="0.5" stroke-width="1.01082" stroke-linecap="round" stroke-linejoin="round"/>
<path d="M376.832 207.171C375.855 207.877 375.062 208.81 374.521 209.892C373.98 210.974 373.708 212.172 373.728 213.383C373.685 214.954 375.465 219.591 376.739 220.751C378.869 222.692 381.064 224.775 380.469 227.636C380.238 228.743 381.16 229.208 382.395 229.464C382.847 229.558 382.913 229.325 383.001 229.096" stroke="#B3CBE6" stroke-opacity="0.5" stroke-width="1.01082" stroke-linecap="round" stroke-linejoin="round"/>
<path d="M147.317 94.0671C146.74 94.9812 146.185 95.908 147.328 96.7999C147.401 96.8458 147.464 96.9058 147.514 96.9764C147.563 97.0471 147.598 97.127 147.617 97.2115C147.635 97.296 147.636 97.3833 147.621 97.4684C147.606 97.5535 147.574 97.6346 147.527 97.707C146.801 100.084 146.728 102.615 147.317 105.031" stroke="#B3CBE6" stroke-opacity="0.5" stroke-width="1.01082" stroke-linecap="round" stroke-linejoin="round"/>
<path d="M237.525 99.9159C236.442 101.959 236.005 104.077 238.465 105.785C239.54 106.53 229.546 116.897 227.455 109.767C227.196 108.883 226.775 108.838 225.916 108.869" stroke="#B3CBE6" stroke-opacity="0.5" stroke-width="1.01082" stroke-linecap="round" stroke-linejoin="round"/>
<path d="M131.11 200.41C129.874 202.384 130.473 204.939 127.745 206.461C127.11 207.451 126.699 208.57 126.541 209.738C124.229 213.294 127.777 213.339 129.901 215.941" stroke="#B3CBE6" stroke-opacity="0.5" stroke-width="1.01082" stroke-linecap="round" stroke-linejoin="round"/>
<path d="M224.228 71.228C221.622 74.1629 217.468 76.0142 214.799 78.9037C214.002 79.7666 212.891 80.5006 212.74 81.6435" stroke="#B3CBE6" stroke-opacity="0.5" stroke-width="1.01082" stroke-linecap="round" stroke-linejoin="round"/>
<path d="M184.32 114.167C184.229 117.485 184.554 120.802 185.287 124.039" stroke="#B3CBE6" stroke-opacity="0.5" stroke-width="1.01082" stroke-linecap="round" stroke-linejoin="round"/>
<path d="M263.882 92.6071C264.402 93.6163 263.399 94.8532 265.035 95.7754C265.81 96.2132 264.07 98.3398 262.925 98.2364C260.693 98.0378 259.419 98.6777 258.792 100.277C258.323 101.473 256.936 101.572 255.679 101.347C253.678 100.989 252.279 101.074 251.506 102.825C250.854 104.297 248.949 104.311 247.205 104.301" stroke="#B3CBE6" stroke-opacity="0.5" stroke-width="1.01082" stroke-linecap="round" stroke-linejoin="round"/>
<path d="M172.222 219.959C170.822 219.484 169.341 219.298 167.868 219.411C165.281 218.239 162.362 218.044 159.645 218.863" stroke="#B3CBE6" stroke-opacity="0.5" stroke-width="1.01082" stroke-linecap="round" stroke-linejoin="round"/>
<path d="M394.973 229.279C396.661 230.956 398.235 232.678 397.855 234.942C397.709 235.826 398.323 236.537 398.623 237.312C398.957 238.173 399.8 238.543 401.014 238.232" stroke="#B3CBE6" stroke-opacity="0.5" stroke-width="1.01082" stroke-linecap="round" stroke-linejoin="round"/>
<path d="M230.753 58.0724C230.438 58.0445 229.946 58.0724 229.938 58.2547C229.91 60.4079 228.45 62.4775 229.088 64.6424C229.86 67.259 229.088 69.4226 224.707 70.8592" stroke="#B3CBE6" stroke-opacity="0.5" stroke-width="1.01082" stroke-linecap="round" stroke-linejoin="round"/>
<path d="M267.999 101.193C260.054 98.3213 275.784 112.264 271.873 107.221C271.945 107.292 272.025 107.354 272.111 107.406" stroke="#B3CBE6" stroke-opacity="0.5" stroke-width="1.01082" stroke-linecap="round" stroke-linejoin="round"/>
<path d="M193.262 105.031C190.925 108.656 187.881 111.764 184.314 114.167" stroke="#B3CBE6" stroke-opacity="0.5" stroke-width="1.01082" stroke-linecap="round" stroke-linejoin="round"/>
<path d="M376.832 57.7054C379.577 57.9075 379.237 59.8982 380.165 61.1084C380.972 62.1537 380.71 63.5601 382.094 64.5136C382.41 64.732 382.362 65.5926 381.911 66.1094" stroke="#B3CBE6" stroke-opacity="0.5" stroke-width="1.01082" stroke-linecap="round" stroke-linejoin="round"/>
<path d="M299.198 25.3657C297.213 27.4493 295.031 29.4701 295.563 32.3097C295.62 32.6082 295.736 33.0066 295.546 33.2087C293.653 35.2284 295.501 37.14 295.864 39.0633C296.163 40.644 296.374 42.0631 294.365 43.0886" stroke="#B3CBE6" stroke-opacity="0.5" stroke-width="1.01082" stroke-linecap="round" stroke-linejoin="round"/>
<path d="M371.033 70.6798C379.433 68.5637 382.29 62.0575 391.107 72.1419" stroke="#B3CBE6" stroke-opacity="0.5" stroke-width="1.01082" stroke-linecap="round" stroke-linejoin="round"/>
<path d="M440.926 146.874C440.786 148.643 441.322 150.399 442.425 151.783C443.193 152.682 442.92 153.655 443.348 154.547" stroke="#B3CBE6" stroke-opacity="0.5" stroke-width="1.01082" stroke-linecap="round" stroke-linejoin="round"/>
<path d="M298.234 168.435C298.726 169.97 298.987 171.57 299.009 173.182C299.325 175.488 300.08 176.366 303.313 176.201" stroke="#B3CBE6" stroke-opacity="0.5" stroke-width="1.01082" stroke-linecap="round" stroke-linejoin="round"/>
<path d="M350.468 209.545C350.141 210.656 349.743 211.762 349.371 212.855C348.834 214.427 348.235 216.288 350.477 217.575C351.906 218.393 351.18 219.691 351.823 220.724C352.571 221.927 352.737 223.334 354.075 224.361C354.236 224.484 354.098 224.831 354.098 225.075" stroke="#B3CBE6" stroke-opacity="0.5" stroke-width="1.01082" stroke-linecap="round" stroke-linejoin="round"/>
<path d="M163.64 123.304L163.277 124.035C161.83 123.462 160.066 123.106 159.445 121.828C157.418 120.526 155.011 119.959 152.621 120.219C152.254 120.163 151.902 120.03 151.589 119.828C151.275 119.627 151.008 119.361 150.803 119.048C150.598 118.736 150.46 118.384 150.398 118.014C150.337 117.645 150.353 117.266 150.446 116.904C150.811 113.74 151.173 110.574 151.4 107.402C151.539 105.477 150.098 104.707 147.314 105.028" stroke="#B3CBE6" stroke-opacity="0.5" stroke-width="1.01082" stroke-linecap="round" stroke-linejoin="round"/>
<path d="M367.28 47.6572C367.069 48.361 367.596 48.9895 367.643 49.6666C367.662 49.9534 367.602 50.2398 367.469 50.4941C367.335 50.7483 367.135 50.9603 366.889 51.1063C366.643 51.2522 366.361 51.3264 366.076 51.3205C365.791 51.3146 365.513 51.2289 365.273 51.0729C363.543 50.2077 362.16 50.7884 360.629 51.1287" stroke="#B3CBE6" stroke-opacity="0.5" stroke-width="1.01082" stroke-linecap="round" stroke-linejoin="round"/>
<path d="M0.751953 52.5913C1.86684 55.3229 5.21498 55.9165 4.13814 59.1695" stroke="#B3CBE6" stroke-opacity="0.5" stroke-width="1.01082" stroke-linecap="round" stroke-linejoin="round"/>
<path d="M225.676 50.0331C227.059 52.8588 227.628 55.6741 225.431 58.437C225.652 61.3615 225.571 64.3011 225.193 67.2091C223.052 69.648 224.283 72.2031 228.095 73.239" stroke="#B3CBE6" stroke-opacity="0.5" stroke-width="1.01082" stroke-linecap="round" stroke-linejoin="round"/>
<path d="M243.088 112.887C242.483 111.611 242.044 110.261 241.782 108.872C241.676 107.834 240.566 106.935 238.977 106.675" stroke="#B3CBE6" stroke-opacity="0.5" stroke-width="1.01082" stroke-linecap="round" stroke-linejoin="round"/>
<path d="M3.41602 59.1687C6.53058 60.0173 9.31444 61.8019 11.3966 64.2847" stroke="#B3CBE6" stroke-opacity="0.5" stroke-width="1.01082" stroke-linecap="round" stroke-linejoin="round"/>
<path d="M393.76 70.498C390.839 71.6966 389.469 73.4627 389.648 75.7963" stroke="#B3CBE6" stroke-opacity="0.5" stroke-width="1.01082" stroke-linecap="round" stroke-linejoin="round"/>
<path d="M301.857 60.0829C301.451 62.9992 302.134 63.6135 306.935 64.6506" stroke="#B3CBE6" stroke-opacity="0.5" stroke-width="1.01082" stroke-linecap="round" stroke-linejoin="round"/>
<path d="M357.484 159.298C358.524 160.928 360.03 162.203 361.803 162.954C361.803 163.295 361.896 163.629 362.073 163.919C362.25 164.209 362.503 164.444 362.805 164.597" stroke="#B3CBE6" stroke-opacity="0.5" stroke-width="1.01082" stroke-linecap="round" stroke-linejoin="round"/>
<path d="M169.799 20.7976C171.767 22.1114 173.154 24.1412 173.669 26.4618" stroke="#B3CBE6" stroke-opacity="0.5" stroke-width="1.01082" stroke-linecap="round" stroke-linejoin="round"/>
<path d="M131.227 227.817C130.463 224.881 127.071 224.702 124.576 225.99" stroke="#B3CBE6" stroke-opacity="0.5" stroke-width="1.01082" stroke-linecap="round" stroke-linejoin="round"/>
<path d="M399.544 186.332C396.858 188.135 393.157 197.932 394.966 200.958" stroke="#B3CBE6" stroke-opacity="0.5" stroke-width="1.01082" stroke-linecap="round" stroke-linejoin="round"/>
<path d="M415.523 222.61C416.138 222.753 417.107 222.637 416.951 223.429C416.824 223.921 416.548 224.36 416.161 224.686C415.774 225.012 415.296 225.208 414.793 225.248C412.086 225.713 409.418 226.388 406.814 227.266C406.27 227.461 404.508 230.339 404.908 230.518C406.448 231.232 406.428 232.863 408.037 233.455C408.676 233.687 409.199 234.44 410.247 233.696C410.983 233.173 411.496 232.804 411.188 232.009C411.053 231.661 411.288 231.222 410.685 231.008" stroke="#B3CBE6" stroke-opacity="0.5" stroke-width="1.01082" stroke-linecap="round" stroke-linejoin="round"/>
<path d="M513.478 68.4877C509.558 68.4517 506.291 69.9744 502.836 71.0428" stroke="#B3CBE6" stroke-opacity="0.5" stroke-width="1.01082" stroke-linecap="round" stroke-linejoin="round"/>
<path d="M300.167 176.108C299.465 176.973 299.032 178.027 298.921 179.138C298.81 180.25 299.026 181.37 299.543 182.358C300.192 183.687 300.4 184.886 302.464 185.243" stroke="#B3CBE6" stroke-opacity="0.5" stroke-width="1.01082" stroke-linecap="round" stroke-linejoin="round"/>
<path d="M372.485 248.647C373.062 250.071 373.638 251.445 371.811 252.712C371.564 252.898 371.365 253.14 371.23 253.419C371.095 253.698 371.028 254.005 371.034 254.315" stroke="#B3CBE6" stroke-opacity="0.5" stroke-width="1.01082" stroke-linecap="round" stroke-linejoin="round"/>
<path d="M188.186 4.26198C188.371 4.23003 188.562 4.23565 188.746 4.27857C188.929 4.32148 189.103 4.4008 189.256 4.51192C189.409 4.62304 189.538 4.7637 189.637 4.92575C189.735 5.08781 189.801 5.26803 189.83 5.45584C190.11 6.83723 190.109 8.26158 189.826 9.64251C189.544 11.0234 188.985 12.3322 188.186 13.4892" stroke="#B3CBE6" stroke-opacity="0.5" stroke-width="1.01082" stroke-linecap="round" stroke-linejoin="round"/>
<path d="M395.701 200.957C394.29 202.448 393.434 204.385 393.279 206.439" stroke="#B3CBE6" stroke-opacity="0.5" stroke-width="1.01082" stroke-linecap="round" stroke-linejoin="round"/>
<path d="M74.5194 44.9169C72.8311 43.1657 70.6256 42.0118 68.2324 41.6278" stroke="#B3CBE6" stroke-opacity="0.5" stroke-width="1.01082" stroke-linecap="round" stroke-linejoin="round"/>
<path d="M260.013 85.2971C257.491 85.2298 255.268 85.6362 253.967 87.4898" stroke="#B3CBE6" stroke-opacity="0.5" stroke-width="1.01082" stroke-linecap="round" stroke-linejoin="round"/>
<path d="M380.212 45.0985C379.725 47.6438 379.371 50.2128 379.149 52.7952C379.869 54.5082 379.163 56.2794 378.035 57.8879" stroke="#B3CBE6" stroke-opacity="0.5" stroke-width="1.01082" stroke-linecap="round" stroke-linejoin="round"/>
<path d="M259.047 100.464C261.486 100.411 263.922 100.657 266.302 101.194" stroke="#B3CBE6" stroke-opacity="0.5" stroke-width="1.01082" stroke-linecap="round" stroke-linejoin="round"/>
<path d="M103.537 187.984C108.476 188.946 113.271 190.542 117.806 192.734" stroke="#B3CBE6" stroke-opacity="0.5" stroke-width="1.01082" stroke-linecap="round" stroke-linejoin="round"/>
<path d="M197.131 77.623C197.096 79.7748 196.601 81.8936 195.68 83.8354" stroke="#B3CBE6" stroke-opacity="0.5" stroke-width="1.01082" stroke-linecap="round" stroke-linejoin="round"/>
<path d="M294.36 2.89136C295.684 4.06205 296.267 5.17933 294.645 6.57417C293.623 7.45219 294.015 8.89702 292.902 9.82614C292.556 10.1107 292.484 10.6065 291.82 10.653" stroke="#B3CBE6" stroke-opacity="0.5" stroke-width="1.01082" stroke-linecap="round" stroke-linejoin="round"/>
<path d="M344.422 78.3545C345.215 79.7354 346.703 80.9096 346.599 82.5565" stroke="#B3CBE6" stroke-opacity="0.5" stroke-width="1.01082" stroke-linecap="round" stroke-linejoin="round"/>
<path d="M417.223 223.614C418.164 223.914 419.139 224.098 420.125 224.161C423.598 224.236 424.478 224.935 424.478 227.634" stroke="#B3CBE6" stroke-opacity="0.5" stroke-width="1.01082" stroke-linecap="round" stroke-linejoin="round"/>
<path d="M230.021 58.0742C229.445 56.8849 229.203 55.5365 227.361 54.9674" stroke="#B3CBE6" stroke-opacity="0.5" stroke-width="1.01082" stroke-linecap="round" stroke-linejoin="round"/>
<path d="M406.939 236.586C406.256 238.376 405.731 238.634 402.465 238.779" stroke="#B3CBE6" stroke-opacity="0.5" stroke-width="1.01082" stroke-linecap="round" stroke-linejoin="round"/>
<path d="M158.679 214.479C156.366 214.627 156.564 214.585 157.162 216.138C157.686 217.155 158.574 217.934 159.646 218.316" stroke="#B3CBE6" stroke-opacity="0.5" stroke-width="1.01082" stroke-linecap="round" stroke-linejoin="round"/>
<path d="M4.86328 67.2079C6.72473 67.9199 8.68055 68.3505 10.6672 68.4855" stroke="#B3CBE6" stroke-opacity="0.5" stroke-width="1.01082" stroke-linecap="round" stroke-linejoin="round"/>
<path d="M373.205 202.418C374.428 203.912 375.82 205.347 376.107 207.168" stroke="#B3CBE6" stroke-opacity="0.5" stroke-width="1.01082" stroke-linecap="round" stroke-linejoin="round"/>
<path d="M240.912 84.3838C240.734 84.5491 240.574 84.7337 240.436 84.9343C239.323 87.0248 239.217 87.0412 236.801 85.4803" stroke="#B3CBE6" stroke-opacity="0.5" stroke-width="1.01082" stroke-linecap="round" stroke-linejoin="round"/>
<path d="M193.51 0.79187C192.487 1.07177 189.451 0.595671 188.674 1.24838" stroke="#B3CBE6" stroke-opacity="0.5" stroke-width="1.01082" stroke-linecap="round" stroke-linejoin="round"/>
<path d="M369.577 259.062H364.734" stroke="#B3CBE6" stroke-opacity="0.5" stroke-width="1.01082" stroke-linecap="round" stroke-linejoin="round"/>
<path d="M255.425 69.7662C254.948 71.2975 254.299 72.7688 253.49 74.1517" stroke="#B3CBE6" stroke-opacity="0.5" stroke-width="1.01082" stroke-linecap="round" stroke-linejoin="round"/>
<path d="M56.1367 80.3639C56.1298 80.9783 57.4891 80.5602 57.3461 81.2779" stroke="#B3CBE6" stroke-opacity="0.5" stroke-width="1.01082" stroke-linecap="round" stroke-linejoin="round"/>
</g>
<defs>
<clipPath id="clip0">
<rect width="514.961" height="259.644" fill="white"/>
</clipPath>
</defs>
</svg>
