<svg width="619" height="389" viewBox="0 0 619 389" fill="none" xmlns="http://www.w3.org/2000/svg">
<path d="M297.895 369.292C298.564 369.292 299.155 369.418 299.669 369.67C300.192 369.922 300.599 370.281 300.89 370.746C301.181 371.202 301.326 371.735 301.326 372.346C301.326 372.966 301.176 373.514 300.876 373.989C300.575 374.464 300.158 374.832 299.625 375.094C299.102 375.346 298.51 375.472 297.851 375.472C296.504 375.472 295.471 375.031 294.754 374.149C294.037 373.257 293.678 372.002 293.678 370.383C293.678 369.249 293.872 368.289 294.26 367.504C294.647 366.718 295.19 366.127 295.888 365.73C296.586 365.323 297.4 365.119 298.331 365.119C299.339 365.119 300.144 365.303 300.745 365.672L300.323 366.515C299.838 366.195 299.179 366.035 298.346 366.035C297.221 366.035 296.339 366.394 295.699 367.111C295.059 367.819 294.739 368.851 294.739 370.208C294.739 370.451 294.754 370.727 294.783 371.037C295.035 370.485 295.437 370.058 295.99 369.757C296.543 369.447 297.177 369.292 297.895 369.292ZM297.808 374.585C298.544 374.585 299.14 374.386 299.596 373.989C300.061 373.582 300.294 373.044 300.294 372.375C300.294 371.706 300.061 371.173 299.596 370.775C299.14 370.378 298.52 370.179 297.735 370.179C297.221 370.179 296.765 370.276 296.368 370.47C295.98 370.664 295.675 370.93 295.452 371.27C295.229 371.609 295.118 371.987 295.118 372.404C295.118 372.792 295.219 373.15 295.423 373.48C295.636 373.81 295.946 374.076 296.353 374.28C296.761 374.483 297.245 374.585 297.808 374.585ZM306.596 375.472C305.81 375.472 305.108 375.264 304.487 374.847C303.877 374.43 303.397 373.834 303.048 373.058C302.708 372.273 302.539 371.352 302.539 370.296C302.539 369.239 302.708 368.323 303.048 367.547C303.397 366.762 303.877 366.161 304.487 365.744C305.108 365.327 305.81 365.119 306.596 365.119C307.381 365.119 308.079 365.327 308.69 365.744C309.31 366.161 309.795 366.762 310.144 367.547C310.493 368.323 310.667 369.239 310.667 370.296C310.667 371.352 310.493 372.273 310.144 373.058C309.795 373.834 309.31 374.43 308.69 374.847C308.079 375.264 307.381 375.472 306.596 375.472ZM306.596 374.512C307.187 374.512 307.706 374.348 308.151 374.018C308.607 373.688 308.961 373.209 309.213 372.578C309.465 371.948 309.591 371.187 309.591 370.296C309.591 369.404 309.465 368.643 309.213 368.013C308.961 367.383 308.607 366.903 308.151 366.573C307.706 366.243 307.187 366.079 306.596 366.079C306.004 366.079 305.481 366.243 305.025 366.573C304.579 366.903 304.23 367.383 303.978 368.013C303.726 368.643 303.6 369.404 303.6 370.296C303.6 371.187 303.726 371.948 303.978 372.578C304.23 373.209 304.579 373.688 305.025 374.018C305.481 374.348 306.004 374.512 306.596 374.512ZM319.491 371.546L317.688 373.204V375.385H316.655V364.596H317.688V371.91L322.254 367.736H323.533L320.261 370.863L323.838 375.385H322.573L319.491 371.546ZM334.813 367.678C335.773 367.678 336.524 367.954 337.067 368.507C337.62 369.06 337.896 369.874 337.896 370.95V375.385H336.864V371.052C336.864 370.257 336.67 369.651 336.282 369.234C335.904 368.817 335.366 368.609 334.668 368.609C333.873 368.609 333.248 368.856 332.792 369.35C332.337 369.835 332.109 370.509 332.109 371.372V375.385H331.076V371.052C331.076 370.257 330.883 369.651 330.495 369.234C330.117 368.817 329.574 368.609 328.866 368.609C328.081 368.609 327.456 368.856 326.991 369.35C326.535 369.835 326.307 370.509 326.307 371.372V375.385H325.275V367.736H326.263V369.132C326.535 368.667 326.913 368.308 327.398 368.056C327.882 367.804 328.44 367.678 329.07 367.678C329.71 367.678 330.262 367.814 330.727 368.085C331.202 368.357 331.556 368.759 331.789 369.292C332.07 368.788 332.472 368.396 332.996 368.114C333.529 367.824 334.135 367.678 334.813 367.678Z" fill="#C7D4DB"/>
<line x1="618.124" y1="337.332" x2="618.124" y2="370.41" stroke="#F93C00" stroke-width="0.727037"/>
<path d="M2.84863 353.872H618.193" stroke="#F93C00" stroke-width="0.727037"/>
<line x1="3.21215" y1="337.332" x2="3.21215" y2="370.41" stroke="#F93C00" stroke-width="0.727037"/>
<path d="M11.2832 173.467C19.124 173.111 14.4879 173.875 18.8301 177.039C21.1122 178.705 38.5192 170.599 43.6031 177.981C44.7706 181.91 47.4922 183.832 51.7678 183.748C55.2361 180.54 59.3152 178.063 63.7616 176.465" stroke="#B3CBE6" stroke-opacity="0.5" stroke-width="1.16644" stroke-linecap="round" stroke-linejoin="round"/>
<path d="M607.591 18.1741C606.15 20.5907 605.234 23.2836 604.903 26.0775C604.64 27.8365 603.947 29.5035 602.886 30.9308C601.825 32.358 600.428 33.5014 598.819 34.2598C595.264 34.8446 591.763 35.718 588.35 36.8712C584.281 38.6135 579.888 39.4667 575.463 39.3737C570.507 38.045 566.274 34.8187 563.679 30.3926C562.299 28.9134 561.511 26.9906 559.674 25.7958C558.729 24.915 558.12 23.7329 557.951 22.4523C554.673 7.01153 527.21 25.6515 515.061 14.1107" stroke="#B3CBE6" stroke-opacity="0.5" stroke-width="2.33289" stroke-linecap="round" stroke-linejoin="round"/>
<path d="M2.07298 179.46C1.79398 181.781 2.32009 184.127 3.56316 186.106C4.32928 187.212 4.92383 188.44 5.72941 189.516C10.5151 191.783 15.5428 193.499 20.7158 194.63C26.5372 195.901 31.104 198.602 37.1935 197.416C38.4375 196.659 39.827 196.174 41.2713 195.991C42.7157 195.807 44.1825 195.931 45.5759 196.353C46.1217 196.772 46.7931 196.993 47.4809 196.982C50.7223 197.692 51.3718 199.209 49.4296 201.533C47.4619 204.635 44.2763 205.259 41.0526 205.544C38.1432 205.801 36.6981 207.598 35.4884 209.875" stroke="#B3CBE6" stroke-opacity="0.5" stroke-width="2.33289" stroke-linecap="round" stroke-linejoin="round"/>
<path d="M291.874 68.2939C292.945 69.2928 294.077 70.2358 295.06 71.3177C295.509 71.8116 296.041 72.7084 295.876 73.1969C297.141 76.4375 297.165 80.0311 295.944 83.2885C293.655 85.3296 293.933 86.9285 296.801 88.2145C297.44 88.5279 298.01 88.9672 298.475 89.506C298.94 90.0447 299.292 90.6719 299.508 91.3498C299.725 92.0277 299.803 92.7426 299.737 93.4513C299.671 94.16 299.463 94.848 299.124 95.4742C298.717 96.0155 298.513 96.6827 298.548 97.3592C298.582 98.0357 298.853 98.6786 299.313 99.1756C302.609 102.153 306.144 104.856 309.881 107.256C310.56 107.789 311.37 108.128 312.226 108.237C312.573 108.237 313.124 107.097 313.26 106.411C315.736 104.728 318.335 103.234 321.034 101.941C322.332 100.147 323.915 100.018 325.244 101.741C326.838 103.802 329.262 103.616 331.278 104.51C334.891 107.367 339.343 108.954 343.948 109.026C344.434 108.713 345.208 108.845 345.853 108.775" stroke="#B3CBE6" stroke-opacity="0.5" stroke-width="2.33289" stroke-linecap="round" stroke-linejoin="round"/>
<path d="M509.705 53.73C509.253 56.8274 507.904 59.7246 505.824 62.0634C503.795 64.5809 500.952 66.6384 499.578 69.4416C497.863 72.9442 495.278 76.1013 494.8 80.2748C494.75 81.2433 494.465 82.185 493.971 83.0193C493.476 83.8536 492.787 84.5556 491.961 85.0648C491.338 85.3926 490.809 85.8728 490.422 86.4608C490.035 87.0489 489.804 87.7255 489.75 88.4272C487.041 90.9739 483.612 92.6208 479.931 93.1423" stroke="#B3CBE6" stroke-opacity="0.5" stroke-width="1.16644" stroke-linecap="round" stroke-linejoin="round"/>
<path d="M442.234 148.187C441.055 150.654 441.759 153.184 442.043 155.681C442.2 157.051 442.71 158.384 442.852 159.755C443.099 162.173 441.853 163.965 440.725 166.072C439.051 169.202 435.89 172.406 438.105 176.704C437.864 177.66 437.277 178.493 436.459 179.042C435.64 179.592 434.647 179.819 433.67 179.68C431.142 180.632 428.432 181.002 425.741 180.761C422.011 180.605 418.356 179.66 415.018 177.987C413.838 177.454 411.833 179.295 411.857 180.956C411.939 186.101 407.685 186.722 409.88 192.523C413.112 201.073 405.097 198.646 402.26 202.267C401.518 203.22 399.402 203.084 397.896 203.443" stroke="#B3CBE6" stroke-opacity="0.5" stroke-width="1.16644" stroke-linecap="round" stroke-linejoin="round"/>
<path d="M534.122 17.9602C534.336 18.8161 534.626 19.6626 534.752 20.5321C533.911 23.9518 532.378 27.163 530.248 29.9679C528.119 32.7727 525.437 35.1118 522.369 36.841C521.418 37.5916 520.551 38.4435 519.784 39.3817C518.764 40.4734 517.983 41.7666 517.493 43.1782C516.21 46.2131 514.591 49.0951 512.667 51.7703C511.217 53.9353 509.157 54.0292 507.395 51.9826C504.553 48.6813 501.159 48.5003 497.282 49.4107C493.851 49.561 490.462 50.2265 487.23 51.3851C483.207 51.0941 479.164 51.376 475.221 52.2221C474.259 53.1802 473.048 53.8487 471.724 54.1516C470.401 54.4545 469.019 54.3795 467.737 53.9352C463.913 52.9309 460.286 52.8125 456.752 55.1408C455.856 55.7314 454.239 55.2769 452.956 55.2103C452.372 55.129 451.798 54.9924 451.241 54.8021" stroke="#B3CBE6" stroke-opacity="0.5" stroke-width="2.33289" stroke-linecap="round" stroke-linejoin="round"/>
<path d="M256.528 209.66C257.319 211.433 257.674 213.369 257.562 215.307C257.45 217.245 256.875 219.128 255.884 220.797C252.715 224.801 252.624 229.17 255.612 233.904C255.402 236.341 254.76 238.722 253.717 240.934C253.885 243.068 253.97 245.216 253.936 247.357C253.885 250.458 251.984 252.354 249.461 253.786C247.811 254.724 246.083 258.706 246.46 260.637C246.762 262.178 247.792 262.798 249.672 262.565" stroke="#B3CBE6" stroke-opacity="0.5" stroke-width="1.16644" stroke-linecap="round" stroke-linejoin="round"/>
<path d="M249.249 62.8332C248.685 60.0055 246.862 58.9645 244.108 59.0693C240.115 57.3551 236.25 55.3589 232.541 53.0956C232.289 52.9595 231.887 53.0356 231.703 52.8587C233.171 54.2712 215.892 42.2991 216.054 42.3808" stroke="#B3CBE6" stroke-opacity="0.5" stroke-width="1.16644" stroke-linecap="round" stroke-linejoin="round"/>
<path d="M229.115 105.137C228.412 108.805 228.786 112.598 230.192 116.058C230.726 116.745 231.218 117.465 231.663 118.213C235.756 121.376 239.684 124.737 243.446 128.294C246.675 131.12 249.569 134.363 252.963 136.956C254.819 138.374 257.112 139.34 259.102 140.693" stroke="#B3CBE6" stroke-opacity="0.5" stroke-width="1.16644" stroke-linecap="round" stroke-linejoin="round"/>
<path d="M353.56 56.3016C354.319 58.1307 354.559 60.1339 354.252 62.0904C354.03 62.8862 354.021 63.7266 354.228 64.5268C354.434 65.3269 354.847 66.0585 355.427 66.6477C356.288 67.4383 355.39 70.6919 354.418 71.7234C352.604 73.6489 352.033 76.1268 351.425 78.5776C350.804 80.0931 350.777 81.7871 351.35 83.3214C352.331 85.3177 349.117 96.9673 350.125 101.284" stroke="#B3CBE6" stroke-opacity="0.5" stroke-width="1.16644" stroke-linecap="round" stroke-linejoin="round"/>
<path d="M349.062 103.851C349.729 104.865 350.289 105.946 350.73 107.076C350.979 107.959 340.763 126.735 342.186 123.973C341.882 124.579 341.434 125.101 340.882 125.494C340.329 125.887 339.689 126.138 339.017 126.226C335.079 127.062 332.967 130.456 332.708 134.689C332.563 136.369 331.974 137.98 331 139.357C329.709 141.177 329.657 143.797 327.426 144.967C325.818 145.58 324.462 146.714 323.575 148.188C323 149.262 322.654 150.443 322.56 151.657C321.366 153.289 322.059 154.717 323.988 155.508C324.444 155.694 325.033 156.342 325.016 156.755C324.903 158.052 324.706 159.341 324.425 160.612C324.398 160.763 324.188 160.964 324.232 161.031C325.84 163.489 323.588 164.638 322.504 166.182" stroke="#B3CBE6" stroke-opacity="0.5" stroke-width="2.33289" stroke-linecap="round" stroke-linejoin="round"/>
<path d="M111.953 163.396C112.454 163.967 112.948 164.543 113.45 165.107C115.807 165.505 118.224 165.366 120.519 164.699C124.704 164.114 128.783 172.895 133.373 174.523C142.888 177.895 143.133 174.77 149.127 185.817C153.357 186.201 157.596 186.39 161.842 186.386C162.895 186.692 163.852 187.265 164.619 188.049C166.526 187.705 168.489 187.88 170.305 188.554C172.121 189.229 173.722 190.379 174.942 191.884C174.825 193.733 174.884 195.596 174.931 197.45C174.945 199.086 174.598 200.705 173.915 202.191C171.917 206.935 171.046 211.921 172.847 216.918C173.604 218.734 174.686 220.398 176.039 221.828C177.163 223.115 178.116 222.794 178.989 221.226C180.233 218.997 179.67 218.93 182.629 219.945C185.691 220.996 192.106 242.385 194.797 246.528C194.123 255.328 198.066 258.747 206.624 256.786C207.466 256.397 208.341 256.082 209.191 255.708C212.98 254.037 213.573 250.762 213.475 247.144" stroke="#B3CBE6" stroke-opacity="0.5" stroke-width="2.33289" stroke-linecap="round" stroke-linejoin="round"/>
<path d="M148.898 185.886C145.883 186.555 139.672 183.858 137.458 185.069C131.782 185.365 128.269 187.924 126.916 192.747C127.086 193.327 127.08 193.945 126.898 194.521C126.716 195.098 126.367 195.608 125.894 195.985C123.427 197.777 123.479 197.843 125.653 199.819C125.822 200.013 125.967 200.227 126.086 200.455" stroke="#B3CBE6" stroke-opacity="0.5" stroke-width="1.16644" stroke-linecap="round" stroke-linejoin="round"/>
<path d="M281.591 187.385C279.745 188.4 277.845 189.315 275.9 190.125C271.89 190.617 268.046 192.021 264.663 194.231C260.841 197.732 258.52 202.576 258.186 207.749C258.246 207.961 258.253 208.184 258.207 208.399C258.16 208.615 258.062 208.815 257.919 208.983C257.777 209.151 257.596 209.282 257.391 209.363C257.186 209.444 256.965 209.474 256.746 209.45C252.373 207.559 247.528 207.047 242.857 207.98C242.057 208.884 241.05 209.58 239.923 210.008C238.795 210.436 237.58 210.584 236.382 210.439C235.428 210.24 234.435 210.427 233.62 210.96C232.804 211.493 232.234 212.328 232.034 213.282C231.814 214.252 230.687 215.014 229.973 215.867" stroke="#B3CBE6" stroke-opacity="0.5" stroke-width="1.16644" stroke-linecap="round" stroke-linejoin="round"/>
<path d="M549.972 98.7087C547.827 99.415 545.16 98.551 543.54 100.847C540.401 100.858 537.91 102.721 536.066 106.435C535.023 107.633 533.809 108.669 532.462 109.511C530.737 110.745 529.139 112.147 527.691 113.695C527.01 114.301 526.194 114.77 525.568 115.427C523.297 117.822 519.914 118.53 517.692 121.29C516.638 122.493 515.284 123.396 513.768 123.906C512.253 124.417 510.629 124.517 509.062 124.196" stroke="#B3CBE6" stroke-opacity="0.5" stroke-width="1.16644" stroke-linecap="round" stroke-linejoin="round"/>
<path d="M380.12 55.8713C382.492 55.6508 384.864 55.9285 387.076 54.2969C387.866 53.7158 390.141 54.3159 391.19 55.1052C392.915 56.4455 395.077 57.0968 397.255 56.9327C397.849 56.8434 398.455 56.967 398.966 57.2816C399.477 57.5961 399.861 58.0812 400.049 58.6513C402.464 64.6143 411.542 66.9658 413.319 74.0772" stroke="#B3CBE6" stroke-opacity="0.5" stroke-width="1.16644" stroke-linecap="round" stroke-linejoin="round"/>
<path d="M336.21 128.268C337.838 129.81 339.622 131.178 341.533 132.351C342.35 134.205 343.996 135.01 345.583 136.056C346.888 137.173 348.058 138.438 349.069 139.827C352.108 143.121 359.558 144.546 363.839 145.406" stroke="#B3CBE6" stroke-opacity="0.5" stroke-width="1.16644" stroke-linecap="round" stroke-linejoin="round"/>
<path d="M566.038 69.902C565.149 70.9022 564.128 71.777 563.003 72.5024C562.474 72.6734 561.989 72.9609 561.585 73.3438C561.181 73.7267 560.868 74.1953 560.669 74.715C559.64 77.7995 558.569 80.8695 557.458 83.9249C557.089 85.118 556.58 86.2634 555.943 87.3376C553.713 90.6974 553.569 95.0711 550.65 98.0975C550.535 98.3221 550.476 98.5706 550.476 98.8227C550.476 99.0749 550.535 99.3234 550.65 99.548C551.69 101.41 550.714 102.832 549.76 104.275C548.198 106.636 546.525 108.933 545.087 111.366C544.271 112.759 543.337 114.217 543.93 116.072C543.658 119.285 541.537 121.225 537.567 121.891C535.189 122.517 532.313 122.929 532.607 126.553C532.618 126.689 532.366 126.881 532.199 126.973C529.982 128.175 529.478 130.424 528.782 132.552C528.443 133.361 527.877 134.054 527.153 134.548C526.428 135.042 525.576 135.315 524.7 135.335C523.883 135.304 523.883 135.304 523.629 133.622" stroke="#B3CBE6" stroke-opacity="0.5" stroke-width="1.16644" stroke-linecap="round" stroke-linejoin="round"/>
<path d="M232.971 168.75C230.282 169.625 227.392 170.068 225.276 172.193C214.993 185.971 204.073 199.211 192.514 211.914C189.665 214.753 186.729 217.5 183.707 220.157" stroke="#B3CBE6" stroke-opacity="0.5" stroke-width="2.33289" stroke-linecap="round" stroke-linejoin="round"/>
<path d="M453.587 55.8716C451.84 58.204 439.653 64.8406 440.251 70.2279C440.238 70.5185 440.156 70.8019 440.013 71.055C439.869 71.308 439.668 71.5235 439.425 71.6839C436.758 73.2592 433.96 74.6019 431.062 75.6969C428.45 76.5243 410.48 74.132 412.244 79.1125" stroke="#B3CBE6" stroke-opacity="0.5" stroke-width="2.33289" stroke-linecap="round" stroke-linejoin="round"/>
<path d="M176.422 137.478C175.186 138.848 174.326 140.515 173.926 142.316C173.526 144.117 173.599 145.991 174.138 147.755C174.487 154.609 189.935 152.885 194.2 154.831" stroke="#B3CBE6" stroke-opacity="0.5" stroke-width="1.16644" stroke-linecap="round" stroke-linejoin="round"/>
<path d="M516.552 77.0765C518.434 79.1395 518.274 83.8479 516.345 85.6495C515.851 86.087 515.421 86.5907 515.067 87.1464C513.495 89.7822 512.05 92.3405 508.893 93.6782C507.109 94.4375 505.969 96.5875 504.311 97.7972C499.752 99.7246 495.84 102.917 493.037 106.996C494.696 102.05 486.945 120.207 487.289 119.515C486.152 122 485.207 124.569 484.463 127.198C484.666 130.704 485.385 134.161 486.598 137.457C486.919 138.226 487.34 138.949 487.85 139.609" stroke="#B3CBE6" stroke-opacity="0.5" stroke-width="1.16644" stroke-linecap="round" stroke-linejoin="round"/>
<path d="M165.072 120.772C162.971 121.379 160.88 122.02 158.8 122.695C159.183 125.393 160.417 126.535 162.503 126.121C179.002 124.72 167.816 129.954 174.925 136.837" stroke="#B3CBE6" stroke-opacity="0.5" stroke-width="1.16644" stroke-linecap="round" stroke-linejoin="round"/>
<path d="M200.628 132.552C218.874 135.41 193.6 152.574 194.576 156.342C193.974 157.021 193.645 157.9 193.655 158.808C193.666 159.717 194.013 160.588 194.631 161.254C197.216 162.58 197.988 163.748 197.597 165.961C197.552 166.217 197.053 166.395 196.772 166.61" stroke="#B3CBE6" stroke-opacity="0.5" stroke-width="1.16644" stroke-linecap="round" stroke-linejoin="round"/>
<path d="M109.811 119.915C115.001 118.922 112.331 132.418 111.888 134.033C111.72 134.644 110.887 135.216 110.226 135.519C108.578 136.274 119.17 154.999 116.022 158.254C115.39 158.907 114.71 159.515 114.103 160.19C113.118 161.279 113.028 163.261 110.883 163.253C110.528 163.253 110.203 164.215 109.803 164.674C109.268 165.279 108.695 165.851 108.09 166.386C106.414 167.582 104.704 168.728 102.958 169.823C101.607 171.973 98.8758 172.047 97.1748 173.678" stroke="#B3CBE6" stroke-opacity="0.5" stroke-width="2.33289" stroke-linecap="round" stroke-linejoin="round"/>
<path d="M94.8174 128.481C94.7248 128.716 97.0042 139.705 97.3743 139.863C97.7444 140.02 98.2806 140.694 98.1907 140.882C94.1234 149.841 95.8556 161.579 93.5273 170.891" stroke="#B3CBE6" stroke-opacity="0.5" stroke-width="1.16644" stroke-linecap="round" stroke-linejoin="round"/>
<path d="M303.224 21.6017C303.01 22.0303 302.808 22.4644 302.58 22.8849C301.874 24.1831 301.195 25.0623 299.544 23.794C299.228 23.609 298.879 23.4888 298.516 23.4407C298.153 23.3926 297.785 23.4175 297.431 23.5138C297.078 23.6101 296.748 23.7759 296.46 24.0017C296.171 24.2274 295.931 24.5084 295.753 24.8282C292.784 30.1543 285.262 29.7841 280.306 28.8847" stroke="#B3CBE6" stroke-opacity="0.5" stroke-width="1.16644" stroke-linecap="round" stroke-linejoin="round"/>
<path d="M143.759 111.562C142.535 112.332 141.405 112.096 141.261 110.698C140.998 108.147 139.321 106.214 138.741 103.847C138.605 103.142 138.529 102.426 138.515 101.708C138.297 98.4805 139.243 95.3003 138.923 92.0725C138.878 91.6262 138.598 90.9145 138.29 90.8328C118.514 85.5911 119.592 79.9997 102.962 91.2139" stroke="#B3CBE6" stroke-opacity="0.5" stroke-width="1.16644" stroke-linecap="round" stroke-linejoin="round"/>
<path d="M405.826 90.9996C410.57 94.9205 412.053 99.5568 410.275 104.908C409.891 105.804 409.857 106.811 410.18 107.73C410.504 108.649 411.161 109.413 412.021 109.871C414.206 111.467 415.269 114.031 416.967 116.056C418.102 117.362 418.713 119.041 418.684 120.771C418.453 123.072 417.659 125.282 416.371 127.203C416.006 129.898 394.463 132.411 393.035 130.782C391.634 129.9 389.993 129.477 388.34 129.571C386.688 129.666 385.106 130.273 383.814 131.309C383.356 131.815 382.778 132.199 382.133 132.424C381.488 132.65 380.797 132.71 380.123 132.6C379.299 132.741 378.503 133.014 377.766 133.407" stroke="#B3CBE6" stroke-opacity="0.5" stroke-width="1.16644" stroke-linecap="round" stroke-linejoin="round"/>
<path d="M254.389 161.254C254.747 160.396 255.088 159.534 255.464 158.685C254.801 160.181 272.513 151.419 274.76 149.065C274.9 148.948 275.067 148.868 275.247 148.833C275.426 148.797 275.611 148.806 275.786 148.86C277.466 150.166 280.584 149.967 280.358 153.331C280.426 154.304 280.704 155.25 281.174 156.104C282.33 158.865 295.382 153.05 297.866 152.703C302.815 151.998 308.333 151.377 313.28 150.518C314.697 148.891 316.516 147.664 318.557 146.96C320.597 146.257 322.786 146.102 324.904 146.511" stroke="#B3CBE6" stroke-opacity="0.5" stroke-width="2.33289" stroke-linecap="round" stroke-linejoin="round"/>
<path d="M323.162 179.912C324.166 182.77 325.611 187.918 327.451 189.934C329.034 190.52 330.693 190.875 332.377 190.989C333.46 191.636 334.749 191.847 335.981 191.577C337.214 191.308 338.297 190.579 339.011 189.538C339.746 188.586 340.508 187.852 342.021 188.614C344.02 189.62 352.793 186.339 355.493 186.745C357.349 187.025 359.206 187.314 361.062 187.599" stroke="#B3CBE6" stroke-opacity="0.5" stroke-width="1.16644" stroke-linecap="round" stroke-linejoin="round"/>
<path d="M514.417 13.4636C512.775 11.7504 511.104 10.0617 509.505 8.31038C506.957 7.56195 504.954 8.56619 503.496 11.3231C503.342 11.4524 503.224 11.7027 503.063 11.7313C498.543 12.628 496.242 16.6424 492.785 19.0279" stroke="#B3CBE6" stroke-opacity="0.5" stroke-width="1.16644" stroke-linecap="round" stroke-linejoin="round"/>
<path d="M409.462 105.778C401.615 107.287 395.537 108.27 388.668 112.174C387.716 112.711 387.645 113.409 387.586 114.351C388.429 118.219 387.295 121.155 384.184 123.159C383.096 123.233 382.271 123.716 382.897 125.065" stroke="#B3CBE6" stroke-opacity="0.5" stroke-width="1.16644" stroke-linecap="round" stroke-linejoin="round"/>
<path d="M310.937 256.997C310.08 254.855 309.19 252.726 308.403 250.558C308.373 250.332 308.394 250.103 308.465 249.886C308.535 249.67 308.654 249.472 308.812 249.307C309.191 247.793 309.167 246.206 308.742 244.704C308.316 243.202 307.504 241.838 306.387 240.748C305.32 239.115 302.39 238.979 301.511 240.291C301.375 240.488 301.163 240.751 301.206 240.926C299.796 243.252 299.204 245.982 299.523 248.683C299.716 249.03 299.834 249.414 299.871 249.809C299.908 250.204 299.862 250.603 299.737 250.98C296.936 258.204 300.65 259.094 300.65 265.781" stroke="#B3CBE6" stroke-opacity="0.5" stroke-width="1.16644" stroke-linecap="round" stroke-linejoin="round"/>
<path d="M318.219 184.172C318.293 186.69 318.577 189.264 315.884 190.84C315.591 191.013 315.572 191.657 315.436 192.091C315.241 193.052 314.832 193.956 314.24 194.738C313.648 195.52 312.888 196.158 312.017 196.607C311.144 196.999 311.098 197.865 311.136 198.731C311.172 199.168 311.098 199.607 310.921 200.008C311.361 203.459 311.074 206.963 310.08 210.297C309.656 211.793 309.208 213.29 308.805 214.798C308.68 215.288 308.608 215.79 308.592 216.295C308.708 217.432 308.642 218.581 308.396 219.697C309.83 221.051 308.94 222.189 308.166 223.371C308.078 223.491 308.014 223.627 307.979 223.771C307.944 223.915 307.937 224.065 307.96 224.212C309.018 226.996 306.463 228.733 305.964 231.065C305.867 231.356 305.704 231.62 305.488 231.836C305.271 232.053 305.007 232.215 304.716 232.311C302.403 232.769 302.084 238.447 301.516 240.287" stroke="#B3CBE6" stroke-opacity="0.5" stroke-width="1.16644" stroke-linecap="round" stroke-linejoin="round"/>
<path d="M440.521 72.1517C442.279 73.895 443.654 75.9864 444.556 78.2917C447.828 81.1332 450.937 84.1576 453.868 87.3504C454.158 89.7372 455.909 90.8394 458.729 91" stroke="#B3CBE6" stroke-opacity="0.5" stroke-width="1.16644" stroke-linecap="round" stroke-linejoin="round"/>
<path d="M246.893 36.3801C247.943 39.6524 249.763 42.6249 252.2 45.0483C253.207 45.5599 253.545 47.0323 253.696 48.5713C253.91 52.0716 253.927 55.5814 253.745 59.0835" stroke="#B3CBE6" stroke-opacity="0.5" stroke-width="1.16644" stroke-linecap="round" stroke-linejoin="round"/>
<path d="M307.722 50.5167C304.301 52.5592 301.134 54.9984 298.285 57.7834C296.788 58.9047 295.48 59.8014 295.137 62.0589C294.865 63.8919 293.156 65.5111 292.085 67.2298" stroke="#B3CBE6" stroke-opacity="0.5" stroke-width="1.16644" stroke-linecap="round" stroke-linejoin="round"/>
<path d="M159.503 92.0704C159.075 94.7825 158.551 97.485 158.249 100.213C157.654 105.628 159.503 115.401 159.503 121.201" stroke="#B3CBE6" stroke-opacity="0.5" stroke-width="1.16644" stroke-linecap="round" stroke-linejoin="round"/>
<path d="M546.331 55.2299C549.339 57.028 551.674 59.7628 552.978 63.015C553.922 65.6603 556.293 66.6156 557.303 68.5942C558.229 70.4531 559.613 72.0454 561.326 73.2208" stroke="#B3CBE6" stroke-opacity="0.5" stroke-width="1.16644" stroke-linecap="round" stroke-linejoin="round"/>
<path d="M311.364 108.562C311.221 109.561 311.076 110.561 310.937 111.556C310.813 112.439 300.228 117.46 299.37 117.428C296.953 118.823 294.889 120.757 293.341 123.079C291.854 124.199 290.292 125.215 288.665 126.121" stroke="#B3CBE6" stroke-opacity="0.5" stroke-width="1.16644" stroke-linecap="round" stroke-linejoin="round"/>
<path d="M253.748 161.147C254.106 161.539 254.771 161.934 254.767 162.324C253.628 163.916 252.13 165.216 250.393 166.119C248.657 167.023 246.732 167.503 244.775 167.522C243.202 168.317 241.691 169.226 240.252 170.244C237.666 171.789 233.618 170.188 233.187 167.465" stroke="#B3CBE6" stroke-opacity="0.5" stroke-width="2.33289" stroke-linecap="round" stroke-linejoin="round"/>
<path d="M217.973 76.6484C217.095 80.7117 207.825 90.0087 202.765 90.5707" stroke="#B3CBE6" stroke-opacity="0.5" stroke-width="1.16644" stroke-linecap="round" stroke-linejoin="round"/>
<path d="M569.249 37.4508C567.159 39.2235 564.768 40.6092 562.191 41.5428C557.397 43.5595 546.358 47.1219 546.16 53.7298C546.075 56.5412 544.271 58.2204 542.447 59.9105C539.526 62.6117 533.451 56.6528 530.058 60.8019C528.969 62.1395 528.016 63.6132 526.808 64.8352C523.234 67.6085 519.687 70.4171 516.168 73.2612C514.727 74.573 514.943 75.2003 516.559 76.7543" stroke="#B3CBE6" stroke-opacity="0.5" stroke-width="1.16644" stroke-linecap="round" stroke-linejoin="round"/>
<path d="M295.513 153.971C296.324 155.357 296.787 156.92 296.863 158.524C296.938 160.128 296.624 161.727 295.947 163.184C294.926 165.726 295.932 169.123 295.701 171.747C295.498 174.038 295.637 176.544 294.709 178.528C294.042 179.952 291.988 180.977 290.344 181.636C288.105 182.537 285.64 182.861 283.319 183.578C282.985 183.694 282.683 183.887 282.437 184.14C282.19 184.393 282.006 184.701 281.899 185.038C281.84 185.679 281.104 186.796 282.443 187.172" stroke="#B3CBE6" stroke-opacity="0.5" stroke-width="1.16644" stroke-linecap="round" stroke-linejoin="round"/>
<path d="M433.881 139.943C431.181 140.182 430.464 141.361 430.022 143.481C429.404 146.444 428.058 148.95 425.084 150.078C423.753 150.411 422.401 150.65 421.037 150.793C420.637 150.882 420.316 151.338 419.959 151.621" stroke="#B3CBE6" stroke-opacity="0.5" stroke-width="1.16644" stroke-linecap="round" stroke-linejoin="round"/>
<path d="M172.852 216.918C171.072 220.969 162.276 221.001 159.06 221.817C157.954 222.089 157.037 221.891 156.414 223.334C155.666 224.9 154.58 226.28 153.235 227.376C152.792 227.776 152.265 228.074 151.694 228.246C151.122 228.419 150.519 228.463 149.928 228.375C148.755 227.851 147.186 226.316 147.254 225.313C144.351 219.917 145.436 214.809 150.508 209.988" stroke="#B3CBE6" stroke-opacity="0.5" stroke-width="1.16644" stroke-linecap="round" stroke-linejoin="round"/>
<path d="M335.676 59.5139C334.566 61.9375 335.162 63.8549 337.02 65.7736C338.799 67.5336 340.292 69.5617 341.442 71.7842C340.876 76.0321 340.916 80.3387 341.561 84.5754C341.736 84.9182 341.881 85.2757 341.994 85.6437C343.105 88.7735 345.591 90.0472 348.636 90.5697" stroke="#B3CBE6" stroke-opacity="0.5" stroke-width="1.16644" stroke-linecap="round" stroke-linejoin="round"/>
<path d="M563.677 41.5214C564.086 45.0762 564.309 48.65 564.347 52.228C564.669 55.4027 563.372 57.0398 560.037 57.3705" stroke="#B3CBE6" stroke-opacity="0.5" stroke-width="1.16644" stroke-linecap="round" stroke-linejoin="round"/>
<path d="M364.054 58.6559C366.395 60.0972 368.394 62.0328 369.909 64.3271C371.425 66.6214 372.421 69.219 372.828 71.9384C372.999 72.3565 373.145 72.7841 373.266 73.219C373.793 74.656 373.477 75.5106 371.769 75.3555C369.128 77.3513 368.556 80.2806 370.055 84.1435C369.977 85.5042 371.328 85.5818 371.983 86.2853" stroke="#B3CBE6" stroke-opacity="0.5" stroke-width="1.16644" stroke-linecap="round" stroke-linejoin="round"/>
<path d="M214.979 289.983C212.795 285.406 208.97 281.817 204.263 279.928C204.096 279.838 203.675 279.974 203.651 279.908C202.569 276.843 200.143 277.816 197.854 277.647C196.899 277.794 196.013 278.232 195.316 278.901C194.62 279.57 194.147 280.438 193.962 281.385C191.649 283.413 191.657 286.219 191.171 288.906C190.843 290.722 190.204 292.481 189.704 294.267" stroke="#B3CBE6" stroke-opacity="0.5" stroke-width="1.16644" stroke-linecap="round" stroke-linejoin="round"/>
<path d="M411.819 79.0045C410.748 79.7176 409.628 80.3654 408.627 81.1709C407.182 82.6641 406.346 84.6423 406.282 86.7189C405.826 88.9247 404.597 90.895 402.816 92.275C402.471 92.6616 401.989 92.9002 401.472 92.9412C400.956 92.9823 400.443 92.8226 400.04 92.4954C398.66 90.671 396.893 89.1754 394.865 88.1165C392.838 87.0576 390.6 86.4617 388.314 86.3719C384.325 87.6109 380.011 87.2604 376.274 85.3935C374.541 84.9226 372.48 85.6384 372.263 87.3652C372.154 87.9731 371.918 88.5511 371.571 89.0617C371.223 89.5724 370.772 90.0042 370.247 90.329C365.994 92.0431 361.998 94.3348 358.37 97.1397C357.76 98.1811 356.942 99.0859 355.967 99.798C354.992 100.51 353.882 101.014 352.704 101.279" stroke="#B3CBE6" stroke-opacity="0.5" stroke-width="2.33289" stroke-linecap="round" stroke-linejoin="round"/>
<path d="M300.868 240.932C299.797 241.069 298.73 241.252 297.654 241.349C291.964 241.861 281.069 248.561 275.593 246.928" stroke="#B3CBE6" stroke-opacity="0.5" stroke-width="1.16644" stroke-linecap="round" stroke-linejoin="round"/>
<path d="M63.1166 146.689C55.6867 150.516 54.6103 155.451 59.8874 161.496C60.8854 162.191 61.8219 162.971 62.6865 163.827C62.9151 164.023 63.3426 164.349 63.2977 164.453C62.4812 166.338 64.0841 167.935 63.8418 169.832C63.597 172.037 63.6645 174.265 64.042 176.451C64.3046 178.11 67.1609 179.159 68.6414 178.11C69.0731 177.774 69.5964 177.576 70.1424 177.543C70.6885 177.511 71.2316 177.644 71.7004 177.926C69.1476 176.907 87.9794 187.027 79.1847 186.078C76.7611 185.817 74.1948 186.823 71.9168 185.429C71.503 185.162 71.0292 185.001 70.5381 184.962C70.047 184.922 69.5539 185.005 69.1027 185.203C65.9729 186.229 62.6036 186.495 59.6725 188.209C59.1622 188.507 58.4014 188.356 57.7673 188.464C57.1067 188.472 56.456 188.626 55.8622 188.915C53.088 190.864 50.9817 193.62 49.8299 196.808C49.7741 196.98 49.5577 197.098 49.4121 197.241" stroke="#B3CBE6" stroke-opacity="0.5" stroke-width="2.33289" stroke-linecap="round" stroke-linejoin="round"/>
<path d="M420.814 49.4461C424.221 48.9064 427.71 49.3614 430.864 50.7565C432.965 52.1567 434.761 53.7665 437.749 53.4236C444.395 52.5989 448.387 48.7742 449.724 41.9495" stroke="#B3CBE6" stroke-opacity="0.5" stroke-width="1.16644" stroke-linecap="round" stroke-linejoin="round"/>
<path d="M541.405 60.5847C540.326 64.286 539.668 68.0971 539.443 71.9459C539.536 72.2589 539.565 72.5876 539.527 72.912C539.49 73.2364 539.387 73.5499 539.225 73.8334C536.932 76.5903 535.52 80.3651 531.127 80.7611C530.333 80.7788 529.553 80.9771 528.848 81.3409C528.142 81.7047 527.528 82.2244 527.053 82.8607" stroke="#B3CBE6" stroke-opacity="0.5" stroke-width="1.16644" stroke-linecap="round" stroke-linejoin="round"/>
<path d="M250.32 98.0618C251.307 93.2868 269.099 94.4896 270.222 98.8686C272.707 101.262 275.212 103.635 277.736 105.987" stroke="#B3CBE6" stroke-opacity="0.5" stroke-width="1.16644" stroke-linecap="round" stroke-linejoin="round"/>
<path d="M284.805 11.5338C283.308 8.83132 282.356 5.68236 279.433 4.06847C276.763 2.99073 274.127 1.83771 271.525 0.609375" stroke="#B3CBE6" stroke-opacity="0.5" stroke-width="1.16644" stroke-linecap="round" stroke-linejoin="round"/>
<path d="M234.257 77.5056C231.025 75.5652 227.277 75.587 223.547 76.0088C219.457 76.4701 216.707 75.8658 212.619 75.4032C212.51 75.3909 212.337 75.9352 212.194 76.2196" stroke="#B3CBE6" stroke-opacity="0.5" stroke-width="1.16644" stroke-linecap="round" stroke-linejoin="round"/>
<path d="M87.321 157.399C87.0802 155.44 85.7031 155.132 84.1096 155.272C75.3679 156.043 86.4433 164.313 86.6556 164.492C89.5132 166.931 89.0546 168.501 93.0866 170.922C94.0273 172.139 95.1044 173.244 96.2967 174.215C96.6518 174.286 96.7471 175.675 96.9608 176.46" stroke="#B3CBE6" stroke-opacity="0.5" stroke-width="1.16644" stroke-linecap="round" stroke-linejoin="round"/>
<path d="M197.844 69.152C196.449 71.4422 189.081 77.5059 188.157 79.4097C187.811 80.1254 186.92 80.5758 186.277 81.1473" stroke="#B3CBE6" stroke-opacity="0.5" stroke-width="1.16644" stroke-linecap="round" stroke-linejoin="round"/>
<path d="M385.688 151.615C383.22 152.752 382.328 154.777 381.694 157.364C381.275 159.075 380.03 160.63 379.622 162.524C379.31 163.974 378.023 163.783 376.9 163.183" stroke="#B3CBE6" stroke-opacity="0.5" stroke-width="1.16644" stroke-linecap="round" stroke-linejoin="round"/>
<path d="M183.709 108.99C183.495 108.847 183.256 108.553 183.07 108.582C178.653 108.52 174.371 110.105 171.059 113.029C168.581 114.124 167.529 116.225 166.759 118.616C166.601 119.107 166.079 119.482 165.717 119.91" stroke="#B3CBE6" stroke-opacity="0.5" stroke-width="1.16644" stroke-linecap="round" stroke-linejoin="round"/>
<path d="M95.6749 174.32C92.9601 177.313 98.7761 185.733 95.8518 187.978C94.9519 191.418 94.6124 194.981 94.8461 198.529C92.902 201.9 93.5371 203.683 96.7513 203.877" stroke="#B3CBE6" stroke-opacity="0.5" stroke-width="2.33289" stroke-linecap="round" stroke-linejoin="round"/>
<path d="M274.738 11.1072C275.755 10.0117 286.528 11.3196 287.427 12.5688C287.747 13.0137 288.768 12.8911 289.282 13.2762C290.743 14.2848 292.1 15.4349 293.335 16.7096C294.832 18.3793 296.092 20.181 298.728 19.0325" stroke="#B3CBE6" stroke-opacity="0.5" stroke-width="1.16644" stroke-linecap="round" stroke-linejoin="round"/>
<path d="M416.963 116.056C422.274 115.602 424.907 118.036 424.864 123.356C425.383 125.959 425.535 128.622 425.314 131.267" stroke="#B3CBE6" stroke-opacity="0.5" stroke-width="1.16644" stroke-linecap="round" stroke-linejoin="round"/>
<path d="M56.9057 151.186C54.4563 149.677 52.3552 151.08 50.2882 152.087C49.3865 152.652 48.5854 153.364 47.9178 154.192C47.3595 154.867 46.6058 155.352 45.7605 155.581C44.9152 155.81 44.0197 155.771 43.1973 155.47" stroke="#B3CBE6" stroke-opacity="0.5" stroke-width="1.16644" stroke-linecap="round" stroke-linejoin="round"/>
<path d="M361.378 186.957C361.472 187.479 361.662 187.98 361.937 188.434C366.88 193.755 368.333 192.269 373.681 197.252C373.788 197.352 373.694 197.661 373.694 197.88" stroke="#B3CBE6" stroke-opacity="0.5" stroke-width="1.16644" stroke-linecap="round" stroke-linejoin="round"/>
<path d="M324.002 231.508C322.291 232.863 320.187 233.627 318.005 233.685C317.401 233.781 316.82 233.988 316.292 234.296C315.019 234.62 313.806 235.144 312.698 235.848C310.636 237.663 307.018 236.717 305.796 239.863" stroke="#B3CBE6" stroke-opacity="0.5" stroke-width="1.16644" stroke-linecap="round" stroke-linejoin="round"/>
<path d="M395.971 132.981C395.156 135.169 394.929 137.534 395.312 139.838C396.643 147.122 391.729 150.12 386.331 151.366C386.208 151.395 385.982 150.973 385.803 150.759" stroke="#B3CBE6" stroke-opacity="0.5" stroke-width="1.16644" stroke-linecap="round" stroke-linejoin="round"/>
<path d="M197.2 255.926C195.399 259.822 195.185 264.267 196.606 268.318C196.957 271.318 196.941 274.349 196.558 277.345" stroke="#B3CBE6" stroke-opacity="0.5" stroke-width="1.16644" stroke-linecap="round" stroke-linejoin="round"/>
<path d="M465.583 129.772C465.317 129.612 465.022 129.507 464.714 129.464C464.407 129.42 464.094 129.439 463.794 129.519C463.494 129.599 463.214 129.738 462.969 129.929C462.724 130.119 462.52 130.357 462.369 130.628C460.732 134.12 458.211 137.122 455.054 139.337C453.422 140.093 452.513 140.944 452.688 142.839C452.61 143.512 452.407 144.165 452.088 144.763" stroke="#B3CBE6" stroke-opacity="0.5" stroke-width="1.16644" stroke-linecap="round" stroke-linejoin="round"/>
<path d="M253.748 59.084C253.798 59.64 253.979 60.1763 254.275 60.6496C254.571 61.1228 254.975 61.5198 255.453 61.8082C255.931 62.0966 256.47 62.2685 257.027 62.3099C257.584 62.3512 258.142 62.261 258.658 62.0464C260.949 61.6894 263.293 62.1727 265.256 63.4072C266.824 65.496 267.927 64.2074 269.175 63.1555C271.675 62.1034 274.427 61.8036 277.095 62.2927" stroke="#B3CBE6" stroke-opacity="0.5" stroke-width="1.16644" stroke-linecap="round" stroke-linejoin="round"/>
<path d="M186.062 59.512C186.072 59.4398 175.238 51.0602 175.566 51.3732" stroke="#B3CBE6" stroke-opacity="0.5" stroke-width="1.16644" stroke-linecap="round" stroke-linejoin="round"/>
<path d="M189.061 163.824C189.537 164.933 189.669 166.158 189.44 167.342C189.211 168.526 188.631 169.614 187.777 170.465C186.205 172.035 184.634 173.604 183.063 175.175C182.998 175.221 182.926 175.258 182.851 175.284L182.958 175.391" stroke="#B3CBE6" stroke-opacity="0.5" stroke-width="1.16644" stroke-linecap="round" stroke-linejoin="round"/>
<path d="M303.015 114.131C305.721 116.195 278.057 105.79 280.133 104.781C279.483 105.043 278.913 105.469 278.477 106.018C278.042 106.567 277.757 107.219 277.649 107.911C276.8 109.659 275.614 111.223 274.16 112.512C272.705 113.801 271.011 114.79 269.173 115.422" stroke="#B3CBE6" stroke-opacity="0.5" stroke-width="1.16644" stroke-linecap="round" stroke-linejoin="round"/>
<path d="M63.331 129.767C65.0877 133.282 65.0713 142.593 61.834 145.831" stroke="#B3CBE6" stroke-opacity="0.5" stroke-width="1.16644" stroke-linecap="round" stroke-linejoin="round"/>
<path d="M535.837 39.8079C538.605 43.9821 542.262 47.4929 546.546 50.0886" stroke="#B3CBE6" stroke-opacity="0.5" stroke-width="1.16644" stroke-linecap="round" stroke-linejoin="round"/>
<path d="M186.277 59.9412C190.088 62.7988 194.216 64.7231 197.844 67.8665" stroke="#B3CBE6" stroke-opacity="0.5" stroke-width="1.16644" stroke-linecap="round" stroke-linejoin="round"/>
<path d="M175.46 59.2985C176.413 63.5046 183.721 61.6391 185.635 59.7272" stroke="#B3CBE6" stroke-opacity="0.5" stroke-width="1.16644" stroke-linecap="round" stroke-linejoin="round"/>
<path d="M197.63 166.822C198.968 168.085 202.289 173.283 203.617 173.899C203.875 174.02 204.249 174.33 204.234 174.524C205.023 177.488 207.032 178.123 210.259 176.43C210.568 176.391 210.839 176.032 211.119 175.812C213.253 174.129 214.079 174.334 215.404 176.884" stroke="#B3CBE6" stroke-opacity="0.5" stroke-width="1.16644" stroke-linecap="round" stroke-linejoin="round"/>
<path d="M517.63 55.3373C519.974 55.1786 522.325 55.5058 524.536 56.2982C526.748 57.0906 528.771 58.3312 530.481 59.9422" stroke="#B3CBE6" stroke-opacity="0.5" stroke-width="1.16644" stroke-linecap="round" stroke-linejoin="round"/>
<path d="M436.879 123.556C433.704 123.881 431.995 125.237 431.752 127.625C431.857 130.88 434.065 134.313 434.065 137.265C434.057 142.935 438.42 145.265 442.289 147.894C442.66 148.145 444.181 147.473 444.524 146.868C446.089 144.097 446.059 144.044 449.09 144.535C450.075 144.695 451.086 144.692 452.083 144.763" stroke="#B3CBE6" stroke-opacity="0.5" stroke-width="1.16644" stroke-linecap="round" stroke-linejoin="round"/>
<path d="M253.749 60.7975C251.202 62.8387 247.625 63.1108 245.379 65.7086C243.506 67.879 237.622 70.0359 238.074 73.6528C238.073 73.8951 238.016 74.1338 237.908 74.3508C237.8 74.5678 237.644 74.7572 237.452 74.9048C234.765 76.6221 233.823 79.33 233.215 82.2216C233.149 82.5346 233.515 82.9184 233.608 83.2886C234.053 85.0685 234.472 86.8565 234.899 88.6418" stroke="#B3CBE6" stroke-opacity="0.5" stroke-width="1.16644" stroke-linecap="round" stroke-linejoin="round"/>
<path d="M146.865 225.727C143.62 226.29 140.281 225.681 137.444 224.007C137.067 223.834 136.628 223.327 136.386 223.412C134.384 224.15 132.671 222.833 130.807 222.732" stroke="#B3CBE6" stroke-opacity="0.5" stroke-width="1.16644" stroke-linecap="round" stroke-linejoin="round"/>
<path d="M421.03 133.41C420.514 134.899 419.52 136.177 418.203 137.042C416.885 137.907 415.318 138.312 413.746 138.194C413.19 138.176 412.606 139.121 412.034 139.622" stroke="#B3CBE6" stroke-opacity="0.5" stroke-width="1.16644" stroke-linecap="round" stroke-linejoin="round"/>
<path d="M232.006 101.708C230.543 104.241 226.835 106.04 224.21 105.078C221.585 104.116 219.924 105.35 218.191 106.847" stroke="#B3CBE6" stroke-opacity="0.5" stroke-width="1.16644" stroke-linecap="round" stroke-linejoin="round"/>
<path d="M322.288 166.608C323.171 167.633 323.825 168.835 324.207 170.133C324.588 171.431 324.688 172.796 324.5 174.136C321.693 180.341 325.14 177.173 319.109 183.136C316.662 184.13 314.024 184.565 311.388 184.411C308.751 184.256 306.182 183.516 303.868 182.243" stroke="#B3CBE6" stroke-opacity="0.5" stroke-width="1.16644" stroke-linecap="round" stroke-linejoin="round"/>
<path d="M291.66 67.8653C287.17 68.1851 278.382 59.3305 276.881 61.8684" stroke="#B3CBE6" stroke-opacity="0.5" stroke-width="1.16644" stroke-linecap="round" stroke-linejoin="round"/>
<path d="M341.137 47.3043C343.471 47.8518 345.573 49.1236 347.14 50.9377C348.26 51.8902 352.418 55.3711 353.559 56.3006" stroke="#B3CBE6" stroke-opacity="0.5" stroke-width="1.16644" stroke-linecap="round" stroke-linejoin="round"/>
<path d="M560.04 77.2911C560.803 77.4776 561.479 77.919 561.956 78.5421C562.434 79.1652 562.685 79.9328 562.666 80.7177C562.666 81.36 563.288 82.0267 563.687 82.6404C564.811 84.3672 565.932 86.0968 567.127 87.7719C567.577 88.2515 568.071 88.6879 568.602 89.0755C569.19 89.628 569.963 90.122 570.258 90.8106C570.422 91.5767 570.443 92.3666 570.319 93.1403C569.605 93.0682 568.582 93.2763 568.228 92.8816C565.708 90.0662 563.385 91.3603 560.862 92.8694C559.986 93.3933 560.065 93.9376 560.046 94.6384" stroke="#B3CBE6" stroke-opacity="0.5" stroke-width="1.16644" stroke-linecap="round" stroke-linejoin="round"/>
<path d="M468.366 60.7975C468.509 61.154 468.802 61.5242 468.775 61.8657C468.436 65.6895 470.509 68.5023 472.653 71.2919" stroke="#B3CBE6" stroke-opacity="0.5" stroke-width="1.16644" stroke-linecap="round" stroke-linejoin="round"/>
<path d="M434.31 33.5958C435.881 34.8818 437.496 36.1174 438.989 37.4863C439.32 37.9808 439.476 38.5721 439.432 39.1655C439.517 41.0407 439.159 42.9525 440.072 44.7447C440.195 45.086 440.195 45.4594 440.072 45.8007C439.313 48.2351 438.516 50.6601 437.731 53.0878" stroke="#B3CBE6" stroke-opacity="0.5" stroke-width="1.16644" stroke-linecap="round" stroke-linejoin="round"/>
<path d="M469.008 59.7267C467.08 61.6549 465.242 63.6852 463.176 65.4515C462.496 66.0353 461.231 65.97 460.224 66.1319C459.727 66.1778 459.226 66.1828 458.728 66.1469" stroke="#B3CBE6" stroke-opacity="0.5" stroke-width="1.16644" stroke-linecap="round" stroke-linejoin="round"/>
<path d="M38.2709 149.045C41.8207 150.919 43.1589 153.541 42.2853 156.913C39.4524 159.049 36.7529 161.357 34.2021 163.823" stroke="#B3CBE6" stroke-opacity="0.5" stroke-width="1.16644" stroke-linecap="round" stroke-linejoin="round"/>
<path d="M297.228 30.1689C298.531 30.8574 299.964 31.2654 301.435 31.3666C302.905 31.4678 304.381 31.2601 305.766 30.7568C309.56 30.5999 311.35 32.4714 311.136 36.3714C310.519 37.5492 309.711 38.6162 308.744 39.5285C307.713 42.0942 307.099 44.8083 306.926 47.5679C306.349 48.2673 306.439 49.518 306.224 50.5182" stroke="#B3CBE6" stroke-opacity="0.5" stroke-width="1.16644" stroke-linecap="round" stroke-linejoin="round"/>
<path d="M102.528 91.2123C102.718 91.6316 102.819 92.0859 102.823 92.5463C102.828 93.0067 102.737 93.463 102.556 93.8862C102.374 94.3093 102.106 94.69 101.77 95.0039C101.433 95.3179 101.035 95.5583 100.6 95.7097C98.3055 96.3684 97.7094 97.3113 98.0292 99.7798" stroke="#B3CBE6" stroke-opacity="0.5" stroke-width="1.16644" stroke-linecap="round" stroke-linejoin="round"/>
<path d="M94.3878 173.249C91.989 174.295 89.6479 175.468 87.3744 176.764C86.6682 177.205 86.6055 178.669 86.249 179.675" stroke="#B3CBE6" stroke-opacity="0.5" stroke-width="2.33289" stroke-linecap="round" stroke-linejoin="round"/>
<path d="M363.198 86.502C363.134 86.4435 360.923 78.5236 359.985 76.6484" stroke="#B3CBE6" stroke-opacity="0.5" stroke-width="1.16644" stroke-linecap="round" stroke-linejoin="round"/>
<path d="M420.815 49.4459C420.951 49.5153 418.491 59.1919 413.747 56.7289" stroke="#B3CBE6" stroke-opacity="0.5" stroke-width="1.16644" stroke-linecap="round" stroke-linejoin="round"/>
<path d="M155.006 119.057C153.661 117.619 152.218 116.276 150.687 115.038C149.19 113.975 147.508 114.471 146.01 115.416" stroke="#B3CBE6" stroke-opacity="0.5" stroke-width="1.16644" stroke-linecap="round" stroke-linejoin="round"/>
<path d="M222.898 253.353C222.255 252.443 221.369 251.731 220.341 251.298C219.314 250.865 218.186 250.728 217.085 250.904C215.394 251.176 213.674 251.209 211.974 251.003" stroke="#B3CBE6" stroke-opacity="0.5" stroke-width="1.16644" stroke-linecap="round" stroke-linejoin="round"/>
<path d="M575.033 80.9323C574.638 80.6371 574.166 80.4614 573.673 80.426C573.181 80.3905 572.689 80.4969 572.255 80.7323C569.882 81.6848 567.537 82.7176 565.179 83.7178" stroke="#B3CBE6" stroke-opacity="0.5" stroke-width="1.16644" stroke-linecap="round" stroke-linejoin="round"/>
<path d="M147.081 123.021C145.839 123.877 144.396 124.395 142.893 124.526C141.39 124.657 139.88 124.396 138.508 123.768C138.36 123.713 138.164 123.526 138.088 123.571C135.638 124.993 133.597 122.549 131.218 122.859C129.928 123.028 129.385 122.074 129.721 120.772" stroke="#B3CBE6" stroke-opacity="0.5" stroke-width="1.16644" stroke-linecap="round" stroke-linejoin="round"/>
<path d="M266.592 133.194C265.378 134.765 264.279 136.437 262.918 137.879C259.898 139.999 257.414 142.795 255.665 146.044" stroke="#B3CBE6" stroke-opacity="0.5" stroke-width="1.16644" stroke-linecap="round" stroke-linejoin="round"/>
<path d="M254.604 146.046C255.485 145.898 256.392 146.049 257.178 146.475C257.965 146.9 258.586 147.577 258.944 148.396C259.216 151.268 259.744 154.112 260.169 156.969" stroke="#B3CBE6" stroke-opacity="0.5" stroke-width="1.16644" stroke-linecap="round" stroke-linejoin="round"/>
<path d="M506.92 95.7119C507.051 96.5575 507.03 97.4197 506.859 98.2581C506.59 99.0327 506.584 99.8743 506.841 100.653C507.057 101.51 507.063 102.406 506.858 103.266C506.653 104.125 506.244 104.923 505.664 105.59C503.623 107.903 503.705 107.982 505.848 109.848" stroke="#B3CBE6" stroke-opacity="0.5" stroke-width="1.16644" stroke-linecap="round" stroke-linejoin="round"/>
<path d="M310.721 237.506C312.721 239.79 314.702 242.089 316.737 244.344C317.118 244.634 317.547 244.857 318.004 245.002" stroke="#B3CBE6" stroke-opacity="0.5" stroke-width="1.16644" stroke-linecap="round" stroke-linejoin="round"/>
<path d="M183.706 99.1388C181.578 102.073 179.782 105.234 178.352 108.564" stroke="#B3CBE6" stroke-opacity="0.5" stroke-width="1.16644" stroke-linecap="round" stroke-linejoin="round"/>
<path d="M198.485 68.5092C197.567 68.2588 212.056 75.5635 212.194 75.5771" stroke="#B3CBE6" stroke-opacity="0.5" stroke-width="1.16644" stroke-linecap="round" stroke-linejoin="round"/>
<path d="M538.621 70.6509L530.909 76.2193" stroke="#B3CBE6" stroke-opacity="0.5" stroke-width="1.16644" stroke-linecap="round" stroke-linejoin="round"/>
<path d="M143.653 112.418C145.128 115.886 145.998 119.581 146.224 123.343" stroke="#B3CBE6" stroke-opacity="0.5" stroke-width="1.16644" stroke-linecap="round" stroke-linejoin="round"/>
<path d="M331.713 45.9117C333.117 47.3895 334.892 48.4617 336.854 49.0157C337.142 48.9545 337.425 48.8796 337.711 48.8034" stroke="#B3CBE6" stroke-opacity="0.5" stroke-width="1.16644" stroke-linecap="round" stroke-linejoin="round"/>
<path d="M581.03 81.3609C580.724 80.0872 580.646 78.8584 579.125 78.095C576.403 76.7206 575.153 77.2567 574.919 80.294" stroke="#B3CBE6" stroke-opacity="0.5" stroke-width="1.16644" stroke-linecap="round" stroke-linejoin="round"/>
<path d="M352.704 101.709C351.091 100.677 350.131 100.779 349.55 102.373C347.379 104.025 345.603 106.139 344.351 108.563" stroke="#B3CBE6" stroke-opacity="0.5" stroke-width="1.16644" stroke-linecap="round" stroke-linejoin="round"/>
<path d="M439.236 54.3727C439.594 56.1567 439.895 57.9557 440.333 59.7206C441.941 60.649 443.66 61.3709 445.448 61.8693" stroke="#B3CBE6" stroke-opacity="0.5" stroke-width="1.16644" stroke-linecap="round" stroke-linejoin="round"/>
<path d="M249.893 262.138C250.264 264.21 251.381 266.074 253.035 267.378C255.134 268.861 256.671 271.138 258.466 273.055C258.73 273.295 259.015 273.512 259.316 273.704" stroke="#B3CBE6" stroke-opacity="0.5" stroke-width="1.16644" stroke-linecap="round" stroke-linejoin="round"/>
<path d="M573.105 68.9383C570.697 67.1299 568.604 68.5941 566.465 69.5807" stroke="#B3CBE6" stroke-opacity="0.5" stroke-width="1.16644" stroke-linecap="round" stroke-linejoin="round"/>
<path d="M65.9023 178.817V185.458" stroke="#B3CBE6" stroke-opacity="0.5" stroke-width="1.16644" stroke-linecap="round" stroke-linejoin="round"/>
<path d="M170.32 102.779C170.249 103.46 160.377 106.726 160.574 106.634" stroke="#B3CBE6" stroke-opacity="0.5" stroke-width="1.16644" stroke-linecap="round" stroke-linejoin="round"/>
<path d="M155.434 46.2333C158.175 45.7264 160.964 45.5208 163.751 45.6197C168.002 46.3978 171.991 48.2289 175.353 50.9457" stroke="#B3CBE6" stroke-opacity="0.5" stroke-width="1.16644" stroke-linecap="round" stroke-linejoin="round"/>
<path d="M452.944 115.203C452.947 117.13 452.378 119.016 451.311 120.621C450.555 121.894 450.191 123.361 450.263 124.84C450.253 125.436 451.438 126.051 452.082 126.659" stroke="#B3CBE6" stroke-opacity="0.5" stroke-width="1.16644" stroke-linecap="round" stroke-linejoin="round"/>
<path d="M420.602 132.66C422.825 132.444 425.048 132.237 427.269 132.038C428.664 132.346 430.096 132.448 431.521 132.339" stroke="#B3CBE6" stroke-opacity="0.5" stroke-width="1.16644" stroke-linecap="round" stroke-linejoin="round"/>
<path d="M54.9775 140.263C56.4828 141.586 57.7192 143.186 58.619 144.976" stroke="#B3CBE6" stroke-opacity="0.5" stroke-width="1.16644" stroke-linecap="round" stroke-linejoin="round"/>
<path d="M459.37 113.917C459.76 115.785 459.845 117.584 458.31 119.068C458.113 119.32 457.965 119.608 457.875 119.916C458.036 122.744 459.249 123.886 461.514 123.342" stroke="#B3CBE6" stroke-opacity="0.5" stroke-width="1.16644" stroke-linecap="round" stroke-linejoin="round"/>
<path d="M301.939 24.8141L306.008 30.3825" stroke="#B3CBE6" stroke-opacity="0.5" stroke-width="1.16644" stroke-linecap="round" stroke-linejoin="round"/>
<path d="M365.768 183.316C365.379 184.172 364.816 184.937 364.116 185.564C363.415 186.191 362.592 186.666 361.698 186.958" stroke="#B3CBE6" stroke-opacity="0.5" stroke-width="1.16644" stroke-linecap="round" stroke-linejoin="round"/>
<path d="M452.302 126.983C452.588 127.768 453.254 128.642 453.095 129.324C452.264 132.908 453.615 136.027 454.872 139.192" stroke="#B3CBE6" stroke-opacity="0.5" stroke-width="1.16644" stroke-linecap="round" stroke-linejoin="round"/>
<path d="M87.536 179.888C86.3524 179.681 85.135 179.789 84.0068 180.203C82.8786 180.617 81.8795 181.32 81.1104 182.244" stroke="#B3CBE6" stroke-opacity="0.5" stroke-width="2.33289" stroke-linecap="round" stroke-linejoin="round"/>
<path d="M464.944 115.846L460.018 116.703" stroke="#B3CBE6" stroke-opacity="0.5" stroke-width="1.16644" stroke-linecap="round" stroke-linejoin="round"/>
<path d="M459.37 143.477C457.299 144.95 455.135 146.007 452.516 144.974" stroke="#B3CBE6" stroke-opacity="0.5" stroke-width="1.16644" stroke-linecap="round" stroke-linejoin="round"/>
<path d="M193.765 157.821C192.177 160.232 189.957 162.162 187.348 163.4" stroke="#B3CBE6" stroke-opacity="0.5" stroke-width="1.16644" stroke-linecap="round" stroke-linejoin="round"/>
<path d="M486.786 116.489L482.073 117.986" stroke="#B3CBE6" stroke-opacity="0.5" stroke-width="1.16644" stroke-linecap="round" stroke-linejoin="round"/>
<path d="M382.69 111.562C383.801 113.399 385.82 112.736 387.403 113.275" stroke="#B3CBE6" stroke-opacity="0.5" stroke-width="1.16644" stroke-linecap="round" stroke-linejoin="round"/>
<path d="M471.58 54.5881C472.235 56.6892 470.955 57.9983 469.651 59.3005" stroke="#B3CBE6" stroke-opacity="0.5" stroke-width="1.16644" stroke-linecap="round" stroke-linejoin="round"/>
<path d="M298.728 18.3875C299.622 19.2356 300.723 19.8349 301.921 20.1253C304.455 22.1202 306.14 21.7664 307.617 18.8149" stroke="#B3CBE6" stroke-opacity="0.5" stroke-width="1.16644" stroke-linecap="round" stroke-linejoin="round"/>
<path d="M265.101 112.846C266.724 113.566 268.022 114.864 268.742 116.488" stroke="#B3CBE6" stroke-opacity="0.5" stroke-width="1.16644" stroke-linecap="round" stroke-linejoin="round"/>
<path d="M74.6843 175.818C73.3371 176.146 71.6906 175.055 70.6143 176.676" stroke="#B3CBE6" stroke-opacity="0.5" stroke-width="1.16644" stroke-linecap="round" stroke-linejoin="round"/>
<path d="M186.596 95.4965C187.331 96.6708 186.835 103.178 183.704 100.209" stroke="#B3CBE6" stroke-opacity="0.5" stroke-width="1.16644" stroke-linecap="round" stroke-linejoin="round"/>
<path d="M483.998 128.056C483.181 128.331 482.4 128.703 481.672 129.165C481.144 129.727 480.7 130.364 480.356 131.055" stroke="#B3CBE6" stroke-opacity="0.5" stroke-width="1.16644" stroke-linecap="round" stroke-linejoin="round"/>
<path d="M377.334 133.838C377.121 134.338 376.918 134.844 376.689 135.335C375.59 137.717 373.754 138.004 372.213 135.964C371.508 134.933 370.858 133.866 370.267 132.766" stroke="#B3CBE6" stroke-opacity="0.5" stroke-width="1.16644" stroke-linecap="round" stroke-linejoin="round"/>
<path d="M500.924 92.9274C503.158 92.4634 505.203 92.6388 506.707 94.6406" stroke="#B3CBE6" stroke-opacity="0.5" stroke-width="1.16644" stroke-linecap="round" stroke-linejoin="round"/>
<path d="M364.911 88.858C366.511 89.6582 365.676 91.3184 366.197 92.4995" stroke="#B3CBE6" stroke-opacity="0.5" stroke-width="1.16644" stroke-linecap="round" stroke-linejoin="round"/>
<path d="M275.381 243.289C275.131 245.216 274.881 247.144 274.631 249.072" stroke="#B3CBE6" stroke-opacity="0.5" stroke-width="1.16644" stroke-linecap="round" stroke-linejoin="round"/>
<path d="M556.183 15.8187C556.113 16.6751 556.041 17.532 555.97 18.3893" stroke="#B3CBE6" stroke-opacity="0.5" stroke-width="1.16644" stroke-linecap="round" stroke-linejoin="round"/>
<path d="M340.496 46.8762C340.149 46.9872 339.79 47.0546 339.426 47.0764C337.562 46.9566 337.801 48.037 338.132 49.2345C338.324 49.9339 338.427 50.6593 338.569 51.3737" stroke="#B3CBE6" stroke-opacity="0.5" stroke-width="1.16644" stroke-linecap="round" stroke-linejoin="round"/>
<path d="M420.701 22.1201C419.313 22.1201 418.059 21.8132 416.939 21.1995C415.831 20.5859 414.957 19.7387 414.317 18.6581C413.69 17.5642 413.377 16.3435 413.377 14.996C413.377 13.6486 413.69 12.4346 414.317 11.354C414.957 10.26 415.838 9.40622 416.959 8.79254C418.079 8.17886 419.333 7.87202 420.721 7.87202C421.761 7.87202 422.722 8.04545 423.602 8.39231C424.483 8.73917 425.23 9.24613 425.844 9.91317L424.903 10.8537C423.809 9.74641 422.428 9.19276 420.761 9.19276C419.653 9.19276 418.646 9.44624 417.739 9.95319C416.832 10.4601 416.118 11.1539 415.598 12.0344C415.091 12.9149 414.837 13.9021 414.837 14.996C414.837 16.09 415.091 17.0772 415.598 17.9577C416.118 18.8382 416.832 19.5319 417.739 20.0389C418.646 20.5458 419.653 20.7993 420.761 20.7993C422.442 20.7993 423.822 20.239 424.903 19.1184L425.844 20.0589C425.23 20.7259 424.476 21.2396 423.582 21.5998C422.702 21.9466 421.741 22.1201 420.701 22.1201ZM432.226 11.394C433.6 11.394 434.654 11.7409 435.388 12.4346C436.121 13.115 436.488 14.1289 436.488 15.4763V22H435.128V20.3591C434.807 20.906 434.334 21.333 433.707 21.6398C433.093 21.9466 432.359 22.1001 431.506 22.1001C430.332 22.1001 429.398 21.8199 428.704 21.2596C428.01 20.6993 427.663 19.9588 427.663 19.0383C427.663 18.1445 427.984 17.4241 428.624 16.8771C429.278 16.3301 430.312 16.0566 431.726 16.0566H435.068V15.4163C435.068 14.5091 434.814 13.822 434.307 13.3551C433.8 12.8748 433.06 12.6347 432.086 12.6347C431.419 12.6347 430.778 12.7481 430.165 12.9749C429.551 13.1884 429.024 13.4885 428.584 13.8754L427.944 12.8148C428.477 12.3612 429.118 12.0144 429.865 11.7742C430.612 11.5207 431.399 11.394 432.226 11.394ZM431.726 20.9794C432.526 20.9794 433.213 20.7993 433.787 20.4391C434.36 20.0656 434.787 19.5319 435.068 18.8382V17.1172H431.766C429.965 17.1172 429.064 17.7443 429.064 18.9983C429.064 19.612 429.298 20.0989 429.765 20.4591C430.231 20.806 430.885 20.9794 431.726 20.9794ZM453.475 11.394C454.796 11.394 455.829 11.7742 456.577 12.5347C457.337 13.2951 457.717 14.4157 457.717 15.8966V22H456.296V16.0366C456.296 14.9427 456.03 14.1089 455.496 13.5352C454.976 12.9616 454.235 12.6747 453.275 12.6747C452.181 12.6747 451.32 13.0149 450.693 13.6953C450.066 14.3624 449.753 15.2895 449.753 16.4769V22H448.332V16.0366C448.332 14.9427 448.065 14.1089 447.531 13.5352C447.011 12.9616 446.264 12.6747 445.29 12.6747C444.21 12.6747 443.349 13.0149 442.709 13.6953C442.082 14.3624 441.768 15.2895 441.768 16.4769V22H440.347V11.4741H441.708V13.3951C442.082 12.7548 442.602 12.2612 443.269 11.9143C443.936 11.5674 444.703 11.394 445.57 11.394C446.451 11.394 447.211 11.5808 447.852 11.9543C448.505 12.3279 448.992 12.8815 449.312 13.6153C449.699 12.9215 450.253 12.3812 450.973 11.9943C451.707 11.5941 452.541 11.394 453.475 11.394ZM466.993 11.394C467.981 11.394 468.874 11.6208 469.675 12.0744C470.475 12.5146 471.102 13.1417 471.556 13.9555C472.01 14.7692 472.236 15.6964 472.236 16.737C472.236 17.791 472.01 18.7248 471.556 19.5386C471.102 20.3524 470.475 20.9861 469.675 21.4397C468.888 21.8799 467.994 22.1001 466.993 22.1001C466.14 22.1001 465.366 21.9266 464.672 21.5798C463.992 21.2196 463.431 20.6993 462.991 20.0189V25.8822H461.57V11.4741H462.931V13.5552C463.358 12.8615 463.918 12.3279 464.612 11.9543C465.319 11.5808 466.113 11.394 466.993 11.394ZM466.893 20.8393C467.627 20.8393 468.294 20.6726 468.894 20.3391C469.495 19.9922 469.962 19.5053 470.295 18.8782C470.642 18.2512 470.816 17.5375 470.816 16.737C470.816 15.9366 470.642 15.2295 470.295 14.6158C469.962 13.9888 469.495 13.5019 468.894 13.155C468.294 12.8081 467.627 12.6347 466.893 12.6347C466.146 12.6347 465.473 12.8081 464.872 13.155C464.285 13.5019 463.818 13.9888 463.471 14.6158C463.138 15.2295 462.971 15.9366 462.971 16.737C462.971 17.5375 463.138 18.2512 463.471 18.8782C463.818 19.5053 464.285 19.9922 464.872 20.3391C465.473 20.6726 466.146 20.8393 466.893 20.8393Z" fill="#F93C00"/>
<path d="M505.873 41.2485L495.589 23.437L516.156 23.437L505.873 41.2485Z" fill="#F93C00"/>
</svg>
