<svg width="153" height="49" viewBox="0 0 153 49" fill="none" xmlns="http://www.w3.org/2000/svg">
<path d="M9.98099 19.5562V19.4214L4.26187 13.4225L9.54019 7.72769V7.66028H6.75645L2.24047 12.6919V7.66028H0V19.5595H2.24047V14.2873L7.21277 19.5568L9.98099 19.5562Z" fill="white"/>
<path d="M11.2358 13.6908C11.2358 16.8189 13.1703 19.8244 17.3452 19.8244C21.5201 19.8244 23.4034 16.7475 23.4377 13.6706C23.4714 10.5593 21.4352 7.41492 17.3452 7.41492C13.2384 7.41829 11.2358 10.5633 11.2358 13.6908ZM21.2316 13.7083C21.1979 15.663 20.1458 17.7707 17.3452 17.7707C14.5446 17.7707 13.4925 15.6812 13.4419 13.7265C13.3907 11.7206 14.5453 9.45925 17.3452 9.45925C20.1451 9.45925 21.266 11.7017 21.2303 13.7097L21.2316 13.7083Z" fill="white"/>
<path d="M35.1299 17.4822H29.0205V7.65686H26.78V19.5561H35.1299V17.4822Z" fill="white"/>
<path d="M40.6269 17.3117H46.8381L47.8396 19.5555H50.2837L44.9548 7.65625H42.5115L37.1826 19.5555H39.6091L40.6269 17.3117ZM43.7328 10.1555L45.9389 15.2209H41.5267L43.7328 10.1555Z" fill="white"/>
<path d="M10.702 37.9645L7.104 33.9015C7.98379 33.7714 8.78202 33.3139 9.33902 32.6205C9.89601 31.9272 10.1707 31.0492 10.1081 30.162C10.1081 28.1049 8.63202 26.2351 5.83144 26.2183C3.94821 26.2183 2.06432 26.2014 0.18042 26.2014V38.1175H2.42087V34.1408H4.57776L8.04023 38.1175H10.702V37.9645ZM2.42021 32.1167V28.3091H5.83144C6.09231 28.2914 6.35405 28.3275 6.60039 28.4151C6.84673 28.5028 7.07241 28.6401 7.26346 28.8187C7.4545 28.9972 7.60683 29.213 7.71097 29.4529C7.81511 29.6927 7.86884 29.9514 7.86884 30.2129C7.86884 30.4744 7.81511 30.733 7.71097 30.9729C7.60683 31.2127 7.4545 31.4286 7.26346 31.6071C7.07241 31.7856 6.84673 31.923 6.60039 32.0106C6.35405 32.0983 6.09231 32.1344 5.83144 32.1167H2.42021Z" fill="white"/>
<path d="M22.1761 28.394V26.2183H13.2837V38.1175H22.1761V35.9074H15.5066V33.2221H21.9389V31.1326H15.5066V28.396L22.1761 28.394Z" fill="white"/>
<path d="M30.4902 36.4169C29.0478 36.4169 27.6728 35.8393 27.1463 34.5296L25.2793 35.4982C26.1616 37.674 28.0286 38.4222 30.4558 38.4222C33.1034 38.4222 35.4436 37.283 35.4436 34.6314C35.4436 31.7924 33.1357 31.1467 30.658 30.8407C29.2324 30.6709 28.0105 30.3817 28.0105 29.345C28.0105 28.4614 28.8085 27.7638 30.4713 27.7638C31.0126 27.7446 31.5505 27.855 32.0406 28.0855C32.5306 28.3161 32.9585 28.6603 33.2888 29.0896L35.0702 28.1715C34.1704 26.3355 32.2534 25.8091 30.4032 25.8091C28.214 25.8259 25.8044 26.8289 25.8044 29.277C25.8044 31.9461 28.0448 32.5918 30.4713 32.8803C32.0492 33.0502 33.2207 33.5092 33.2207 34.6328C33.2227 35.9255 31.8989 36.4169 30.4902 36.4169Z" fill="white"/>
<path d="M47.732 28.394V26.2183H38.8389V38.1175H47.732V35.9074H41.0591V33.2221H47.4913V31.1326H41.0591V28.396L47.732 28.394Z" fill="white"/>
<path d="M59.0331 38.1175H61.6976V37.9645L58.0996 33.9015C58.9794 33.7714 59.7776 33.3139 60.3346 32.6205C60.8916 31.9272 61.1663 31.0492 61.1038 30.162C61.1038 28.1049 59.6276 26.2351 56.827 26.2183C54.9431 26.2183 53.0599 26.2014 51.176 26.2014V38.1175H53.4165V34.1408H55.5734L59.0331 38.1175ZM53.4158 28.3098H56.827C57.0879 28.2921 57.3496 28.3281 57.596 28.4158C57.8423 28.5035 58.068 28.6408 58.2591 28.8193C58.4501 28.9979 58.6024 29.2137 58.7066 29.4536C58.8107 29.6934 58.8645 29.9521 58.8645 30.2135C58.8645 30.475 58.8107 30.7337 58.7066 30.9735C58.6024 31.2134 58.4501 31.4293 58.2591 31.6078C58.068 31.7863 57.8423 31.9236 57.596 32.0113C57.3496 32.099 57.0879 32.1351 56.827 32.1174H53.4158V28.3098Z" fill="white"/>
<path d="M69.5872 35.4814L66.0061 26.2169H63.4946L68.4332 38.1667H70.7586L75.6972 26.2169H73.1858L69.5872 35.4814Z" fill="white"/>
<path d="M78.7327 38.1174H87.6251V35.9073H80.9556V33.222H87.3878V31.1325H80.9556V28.396H87.6251V26.2202H78.7327V38.1174Z" fill="white"/>
<path d="M108.943 29.5419C109.17 29.3202 109.385 29.0864 109.587 28.8416C109.674 28.715 109.74 28.5747 109.781 28.4264V28.4169C109.807 28.3211 109.819 28.2218 109.817 28.1224C109.907 27.2725 110.054 24.8803 108.994 24.0378C108.853 23.9097 108.681 23.8203 108.494 23.7783C108.406 23.7568 108.316 23.7446 108.225 23.7419C107.868 23.7402 107.521 23.8526 107.233 24.0627C107.52 21.887 108.842 14.6156 114.092 9.5395C112.574 10.8869 111.263 12.4508 110.202 14.1808C110.663 13.3734 111.172 12.5944 111.726 11.848C114.035 8.60535 117.337 6.20281 121.132 5.00397C121.05 5.01294 120.966 5.01631 120.883 5.01408C120.836 5.01444 120.789 5.01941 120.744 5.02891C120.633 5.05385 120.514 5.1017 120.407 5.13743C120.158 5.21696 119.91 5.30459 119.665 5.40031C119.166 5.59383 118.678 5.81502 118.203 6.06286C117.226 6.57676 116.3 7.18421 115.44 7.87668C114.551 8.59021 113.722 9.37417 112.96 10.2209C112.706 10.5022 112.457 10.79 112.215 11.0844C112.094 11.2313 111.975 11.3796 111.857 11.5292C111.735 11.6683 111.623 11.8151 111.52 11.9687C110.174 13.735 109.081 15.68 108.271 17.7478C107.983 18.3821 107.704 19.0534 107.442 19.7631C108.134 17.2943 109.207 14.9483 110.621 12.8092C112.858 9.33662 116.1 6.62774 119.915 5.04306C120.426 4.80534 120.982 4.6827 121.545 4.68381C121.716 4.68547 121.883 4.72757 122.034 4.80667C122.186 4.88576 122.316 4.99958 122.414 5.13878C122.484 5.26439 122.521 5.40564 122.521 5.54926C122.521 5.69288 122.484 5.83413 122.414 5.95974C122.319 5.99083 122.219 6.00985 122.119 6.01636C122.168 5.98194 122.209 5.93652 122.238 5.88366C122.267 5.8308 122.283 5.77194 122.286 5.7117C122.285 5.70125 122.283 5.69089 122.281 5.6807C122.222 5.41716 121.8 5.52634 121.587 5.6052C121.366 5.68675 121.15 5.78129 120.94 5.8883H120.936C120.84 5.93683 120.744 5.9867 120.651 6.03995C120.537 6.10735 120.425 6.17476 120.314 6.24216C110.992 11.7375 112.785 19.1578 112.785 19.1578C113.164 17.579 113.7 16.0421 114.385 14.5704L116.885 12.9811L115.244 12.8914C115.792 11.8948 116.436 10.9549 117.169 10.0855C117.518 9.60638 118.005 9.24592 118.565 9.05285C118.604 9.04938 118.642 9.03812 118.677 9.01971C118.712 9.00131 118.742 8.97613 118.767 8.94568C118.773 8.93492 118.776 8.92292 118.776 8.9107C118.776 8.89849 118.774 8.88644 118.768 8.87557C118.762 8.8647 118.754 8.85534 118.744 8.84829C118.734 8.84125 118.723 8.83674 118.711 8.83514C118.803 8.76164 118.873 8.66353 118.913 8.55205C119.745 8.361 120.616 8.42225 121.414 8.72797C121.18 7.95556 120.673 7.29486 119.987 6.86968C120.022 6.8407 120.057 6.81306 120.093 6.78543C122.421 7.32952 124.853 7.22508 127.126 6.48346L124.273 3.27105L124.071 0C123.026 0.842064 122.039 1.75433 121.117 2.73048C120.389 3.52348 119.573 4.23084 118.684 4.83884C118.608 4.86041 118.532 4.88535 118.456 4.90624C118.51 4.85776 118.545 4.7921 118.555 4.72052C118.566 4.64894 118.552 4.57588 118.514 4.51385C118.477 4.45181 118.419 4.40467 118.351 4.38046C118.283 4.35626 118.209 4.35651 118.14 4.38117C117.811 4.53045 117.527 4.76273 117.315 5.0552C116.465 5.84073 115.503 6.49501 114.46 6.9964C113.392 7.58723 112.387 8.28555 111.46 9.08049L111.131 7.48305C109.884 8.1094 108.534 8.50405 107.146 8.64776C106.885 10.3446 106.98 12.0772 107.425 13.7353C105.51 16.6435 104.487 20.0482 104.483 23.5303C104.53 26.7447 105.483 29.8807 107.231 32.5784C107.446 32.9154 107.78 33.274 108.072 33.0799C108.398 32.8642 108.307 32.2501 108.27 31.7783C108.194 30.9737 108.436 30.1712 108.943 29.5419ZM107.113 27.7483C107.368 27.7483 107.551 27.8959 107.634 28.2201C107.656 28.3051 107.666 28.3961 107.682 28.4844C107.682 28.4972 107.686 28.5194 107.682 28.5214C107.667 28.5315 107.667 28.5134 107.665 28.5005C107.609 28.4321 107.539 28.3762 107.46 28.3367C107.381 28.2972 107.295 28.2749 107.207 28.2713C107.118 28.2676 107.03 28.2828 106.948 28.3157C106.866 28.3486 106.792 28.3985 106.731 28.4621C106.668 28.5254 106.612 28.596 106.565 28.6724C106.573 28.1723 106.841 27.7477 107.113 27.7483ZM107.727 29.1132C107.71 29.318 107.623 29.5105 107.479 29.6572C107.415 29.7021 107.369 29.768 107.349 29.8432C107.47 29.7828 107.577 29.6989 107.664 29.5965C107.647 29.7778 107.607 29.9563 107.545 30.1276C107.507 30.2721 107.419 30.3986 107.297 30.4855C107.132 30.5738 106.943 30.4599 106.82 30.2941C106.685 30.1069 106.603 29.8873 106.582 29.6578C106.657 29.7551 106.759 29.8286 106.874 29.8697C106.99 29.9109 107.116 29.9178 107.235 29.8897C107.269 29.8844 107.3 29.8676 107.322 29.8424C107.345 29.8171 107.358 29.7848 107.36 29.7509C107.306 29.7778 107.246 29.7913 107.185 29.7902C107.124 29.7891 107.065 29.7736 107.012 29.7448C107.111 29.7037 107.128 29.5284 107.2 29.428C107.234 29.3874 107.272 29.3491 107.312 29.3134C107.355 29.2644 107.385 29.2056 107.4 29.1423C107.416 29.0789 107.416 29.0127 107.4 28.9494C107.386 28.9028 107.36 28.8607 107.325 28.8276C107.289 28.7945 107.245 28.7716 107.198 28.7614C107.137 28.7505 107.075 28.7603 107.02 28.7893C106.966 28.8183 106.923 28.8647 106.898 28.9211C106.869 28.999 106.846 29.0793 106.831 29.1611C106.825 29.1994 106.811 29.2359 106.789 29.268C106.768 29.3002 106.739 29.3272 106.706 29.3471C106.654 29.1531 106.667 28.9473 106.743 28.7614C106.906 28.3765 107.324 28.2491 107.566 28.5376C107.617 28.6008 107.657 28.673 107.682 28.7506C107.722 28.8671 107.737 28.9906 107.727 29.1132Z" fill="white"/>
<path d="M145.294 34.5776C144.935 34.4212 144.464 34.8283 144.081 35.1168C143.439 35.6139 142.629 35.8436 141.821 35.7578C141.51 35.6873 141.195 35.6335 140.877 35.5967C140.723 35.5918 140.569 35.6128 140.421 35.6587L140.412 35.6628C140.317 35.6924 140.226 35.7357 140.143 35.7915C139.364 36.1797 137.213 37.3707 137.118 38.7323C137.096 38.904 137.115 39.0783 137.174 39.2412C137.203 39.3265 137.242 39.4085 137.288 39.4858C137.48 39.7859 137.764 40.0161 138.097 40.1423C136.098 41.0765 129.221 43.8946 122.086 42.2433C124.049 42.786 126.082 43.038 128.119 42.9914C127.186 43.0416 126.251 43.0362 125.318 42.9753C121.336 42.7995 117.519 41.3353 114.441 38.803C114.494 38.8671 114.541 38.9347 114.584 39.0052C114.61 39.0442 114.64 39.0806 114.673 39.1138C114.754 39.1926 114.858 39.2661 114.948 39.3396C115.15 39.5049 115.358 39.6654 115.573 39.8208C116.006 40.1339 116.456 40.4226 116.921 40.6856C117.886 41.2267 118.9 41.6731 119.951 42.0188C121.036 42.3768 122.148 42.6473 123.276 42.8277C123.652 42.8888 124.029 42.9411 124.41 42.9847C124.599 43.0067 124.789 43.0265 124.98 43.044C125.164 43.0711 125.349 43.0864 125.535 43.0898C127.76 43.2611 129.998 43.125 132.187 42.6854C132.879 42.585 133.602 42.4556 134.343 42.2918C131.878 43.0445 129.311 43.4132 126.733 43.3851C122.594 43.3916 118.55 42.143 115.135 39.804C114.659 39.5065 114.254 39.1074 113.951 38.6352C113.86 38.4915 113.805 38.3282 113.791 38.159C113.776 37.9898 113.803 37.8196 113.867 37.6626C113.937 37.5364 114.038 37.4298 114.16 37.3528C114.281 37.2757 114.421 37.2307 114.565 37.2218C114.643 37.2851 114.713 37.3581 114.772 37.4388C114.716 37.416 114.656 37.4063 114.595 37.4105C114.535 37.4147 114.476 37.4327 114.424 37.4631C114.416 37.4694 114.408 37.4764 114.4 37.484C114.209 37.6761 114.528 37.9693 114.711 38.1054C114.9 38.2463 115.096 38.3759 115.3 38.4937H115.304C115.397 38.5476 115.491 38.6002 115.587 38.65C115.703 38.7107 115.822 38.7673 115.941 38.8219C125.63 43.652 130.952 38.1479 130.952 38.1479C129.409 38.6832 127.818 39.0641 126.2 39.285L123.504 38.0522L124.313 39.473C123.173 39.553 122.028 39.5209 120.895 39.3773C120.303 39.3451 119.735 39.1322 119.267 38.7673C119.242 38.736 119.212 38.7099 119.177 38.6906C119.142 38.6714 119.104 38.6594 119.065 38.6554C119.052 38.6563 119.041 38.6601 119.03 38.6665C119.02 38.6729 119.011 38.6818 119.005 38.6923C118.998 38.7029 118.995 38.7148 118.994 38.7271C118.994 38.7393 118.996 38.7515 119.001 38.7626C118.888 38.7239 118.767 38.7176 118.651 38.7444C118.04 38.1528 117.622 37.3911 117.45 36.5585C116.924 37.1686 116.639 37.9497 116.648 38.7552C116.603 38.7417 116.56 38.7255 116.516 38.71C115.719 36.467 114.317 34.488 112.465 32.9916L111.282 37.1106L108.617 39.0437C109.896 39.4639 111.202 39.7969 112.527 40.0406C113.591 40.221 114.631 40.5217 115.627 40.937C115.686 40.9889 115.748 41.0395 115.806 41.092C115.736 41.0717 115.662 41.0764 115.595 41.1055C115.528 41.1346 115.474 41.1861 115.441 41.2512C115.408 41.3163 115.399 41.3907 115.416 41.4616C115.432 41.5325 115.473 41.5954 115.531 41.6393C115.835 41.8338 116.183 41.9469 116.542 41.9676C117.665 42.2533 118.739 42.7047 119.729 43.3069C120.807 43.8821 121.942 44.346 123.114 44.6914L121.937 45.8284C123.139 46.5312 124.202 47.4474 125.074 48.532C126.652 47.836 128.069 46.822 129.236 45.5534C132.737 45.585 136.171 44.604 139.127 42.7286C141.821 40.9613 143.964 38.4735 145.314 35.5482C145.495 35.1889 145.617 34.7164 145.294 34.5776ZM141.291 38.2537C141.222 38.1449 141.195 38.0143 141.217 37.887C141.238 37.7597 141.306 37.6449 141.407 37.5649C141.467 37.4975 141.542 37.4429 141.605 37.3822C141.616 37.3748 141.632 37.36 141.636 37.3613C141.653 37.3681 141.636 37.3788 141.628 37.3869C141.561 37.827 141.704 38.0771 142.1 38.1883C142.189 38.2075 142.279 38.2161 142.37 38.2139C141.942 38.4748 141.438 38.4802 141.291 38.253V38.2537ZM143.608 37.1247C143.521 37.3375 143.379 37.5235 143.197 37.6639C143.239 37.5485 143.247 37.4233 143.219 37.3036C143.191 37.1839 143.129 37.0749 143.04 36.9899C143.017 36.9648 142.987 36.9483 142.953 36.943C142.92 36.9378 142.885 36.9441 142.856 36.9609C142.908 36.9916 142.952 37.0344 142.984 37.0857C143.015 37.137 143.034 37.1952 143.039 37.2555C142.951 37.1948 142.792 37.2743 142.669 37.269C142.616 37.2619 142.563 37.2513 142.511 37.2373C142.446 37.2277 142.38 37.2338 142.318 37.2552C142.256 37.2765 142.201 37.3125 142.155 37.36C142.123 37.3961 142.102 37.4402 142.093 37.4877C142.083 37.5351 142.087 37.5841 142.103 37.6296C142.127 37.6864 142.17 37.7335 142.224 37.7633C142.278 37.793 142.34 37.8036 142.401 37.7934C142.483 37.7759 142.563 37.7513 142.641 37.7199C142.676 37.7043 142.715 37.6966 142.754 37.6973C142.793 37.698 142.831 37.7071 142.866 37.7239C142.729 37.8725 142.548 37.9726 142.35 38.0091C141.935 38.0805 141.602 37.8001 141.717 37.4422C141.742 37.3647 141.782 37.2927 141.835 37.2299C141.939 37.1033 142.075 37.0071 142.229 36.9515C142.383 36.8959 142.55 36.8828 142.711 36.9138C142.783 36.9427 142.864 36.9455 142.938 36.9218C142.821 36.8535 142.692 36.8093 142.558 36.7917C142.721 36.7082 142.894 36.6453 143.073 36.6043C143.216 36.5586 143.37 36.5637 143.51 36.6185C143.676 36.7116 143.681 36.9313 143.608 37.1241V37.1247Z" fill="white"/>
<path d="M151.606 27.3453C151.149 26.3742 150.806 25.3537 150.582 24.3041C150.591 24.2259 150.598 24.147 150.608 24.0695C150.634 24.1361 150.681 24.1921 150.743 24.2283C150.804 24.2645 150.876 24.2787 150.947 24.2686C151.017 24.2585 151.082 24.2246 151.131 24.1727C151.18 24.1207 151.209 24.0536 151.215 23.9826C151.203 23.6233 151.098 23.2734 150.909 22.9675C150.506 21.8879 150.268 20.7539 150.203 19.6034C150.064 18.3956 149.802 17.2053 149.42 16.0513L151.032 16.364C150.929 14.981 151.082 13.591 151.483 12.2633C150.005 11.3706 148.359 10.7915 146.647 10.562C144.672 7.68029 141.903 5.43405 138.676 4.09608C135.671 2.9029 132.394 2.57009 129.21 3.13492C128.813 3.20232 128.353 3.37015 128.42 3.71255C128.495 4.09473 129.1 4.24773 129.554 4.39467C130.33 4.63402 130.983 5.16578 131.374 5.87753C131.493 6.1715 131.628 6.45883 131.778 6.73827C131.862 6.86722 131.968 6.98113 132.09 7.07528L132.098 7.07999C132.177 7.14107 132.265 7.19035 132.358 7.22626C133.113 7.63607 135.279 8.69091 136.469 8.04317C136.642 7.9633 136.792 7.84001 136.903 7.68528C136.956 7.61228 137.001 7.53387 137.038 7.45138C137.176 7.12505 137.206 6.76251 137.121 6.4181C139.033 7.51811 145.282 11.5272 147.979 18.2931C147.309 16.3799 146.36 14.5764 145.162 12.9413C145.735 13.6742 146.263 14.4408 146.744 15.2371C148.866 18.5875 149.829 22.5422 149.486 26.4933C149.509 26.4142 149.538 26.3367 149.572 26.2614C149.59 26.2179 149.603 26.1728 149.612 26.1266C149.631 26.0161 149.632 25.8887 149.642 25.7734C149.664 25.5142 149.678 25.2529 149.684 24.9895C149.697 24.4574 149.679 23.925 149.631 23.3948C149.53 22.2986 149.321 21.215 149.009 20.1595C148.687 19.0697 148.277 18.0077 147.784 16.9841C147.62 16.6426 147.448 16.3043 147.268 15.969C147.178 15.8019 147.086 15.6354 146.992 15.4696C146.91 15.304 146.817 15.1439 146.714 14.9904C145.588 13.0742 144.201 11.3236 142.593 9.78889C142.115 9.28023 141.597 8.76797 141.039 8.25211C143.064 9.83372 144.831 11.7196 146.279 13.8425C148.64 17.2162 149.91 21.2328 149.918 25.3508C149.943 25.91 149.843 26.4676 149.626 26.9833C149.558 27.1394 149.454 27.2772 149.322 27.3853C149.19 27.4934 149.035 27.5689 148.869 27.6054C148.725 27.6205 148.58 27.5992 148.447 27.5435C148.314 27.4878 148.197 27.3995 148.106 27.2866C148.114 27.1867 148.135 27.0882 148.168 26.9934C148.181 27.0521 148.208 27.1069 148.246 27.1537C148.283 27.2004 148.332 27.2379 148.386 27.263C148.396 27.2663 148.407 27.2688 148.417 27.2704C148.687 27.317 148.745 26.8896 148.754 26.6638C148.764 26.4296 148.759 26.1951 148.74 25.9615C148.732 25.855 148.722 25.7485 148.709 25.642C148.693 25.5126 148.672 25.3832 148.649 25.2544C147.128 14.594 139.542 13.3842 139.542 13.3842C140.863 14.3374 142.085 15.4201 143.19 16.6161L143.705 19.5198L144.42 18.0498C145.134 18.9339 145.76 19.8867 146.287 20.8942C146.597 21.3961 146.745 21.9819 146.709 22.5711C146.697 22.6084 146.693 22.6478 146.696 22.6868C146.7 22.7259 146.711 22.7638 146.73 22.7983C146.738 22.8078 146.748 22.8153 146.759 22.8202C146.77 22.825 146.783 22.8271 146.795 22.8261C146.807 22.8252 146.819 22.8213 146.829 22.8149C146.84 22.8084 146.849 22.7994 146.855 22.7889C146.887 22.9031 146.951 23.006 147.039 23.0854C146.895 23.923 146.503 24.6981 145.913 25.3097C146.719 25.3928 147.527 25.1819 148.189 24.7159C148.203 24.759 148.214 24.8028 148.226 24.846C146.826 26.7671 145.986 29.0394 145.8 31.4097L149.883 30.0299L153 31.1043C152.622 29.821 152.156 28.565 151.606 27.3453ZM133.744 4.88671C133.693 5.00581 133.6 5.102 133.483 5.15694C133.366 5.21187 133.232 5.22172 133.108 5.18462C133.02 5.17249 132.932 5.14621 132.844 5.12734C132.832 5.12262 132.81 5.1179 132.809 5.11318C132.805 5.09566 132.822 5.1024 132.835 5.1051C133.239 4.90694 133.363 4.65012 133.23 4.2639C133.195 4.18106 133.149 4.10275 133.095 4.03068C133.559 4.22952 133.851 4.63867 133.746 4.88671H133.744ZM131.366 4.36838C131.247 4.27801 131.164 4.14912 131.129 4.00374C131.111 3.81838 131.29 3.68896 131.49 3.63908C131.716 3.58813 131.952 3.59743 132.173 3.66605C132.054 3.69706 131.947 3.7617 131.864 3.85222C131.781 3.94274 131.727 4.05527 131.706 4.17628C131.698 4.20919 131.702 4.24374 131.717 4.27417C131.732 4.30459 131.756 4.32905 131.787 4.34345C131.783 4.2832 131.793 4.22286 131.818 4.16758C131.842 4.11229 131.879 4.0637 131.926 4.02597C131.926 4.13247 132.083 4.21606 132.149 4.32053C132.173 4.36806 132.194 4.41714 132.212 4.46746C132.241 4.52617 132.284 4.57695 132.337 4.61546C132.39 4.65397 132.451 4.67905 132.516 4.68854C132.571 4.69634 132.627 4.68662 132.675 4.66077C132.724 4.63493 132.763 4.59429 132.788 4.5447C132.812 4.49511 132.82 4.43912 132.81 4.38479C132.8 4.33046 132.774 4.2806 132.734 4.24235C132.673 4.18523 132.607 4.13358 132.536 4.08799C132.469 4.03677 132.408 3.96801 132.411 3.90196C132.611 3.92845 132.797 4.01929 132.942 4.16079C133.237 4.45871 133.194 4.89009 132.833 5.00063C132.754 5.02376 132.672 5.03221 132.59 5.02556C132.467 5.01643 132.347 4.98227 132.238 4.92514C132.055 4.83164 131.91 4.67718 131.828 4.48836C131.81 4.41253 131.767 4.34527 131.705 4.29828C131.715 4.43211 131.752 4.56254 131.813 4.6818C131.652 4.59621 131.503 4.49093 131.368 4.36838H131.366Z" fill="white"/>
</svg>
