<svg width="111" height="55" viewBox="0 0 111 55" fill="none" xmlns="http://www.w3.org/2000/svg">
<path d="M2.40674 32.1981C3.82187 32.1338 2.98512 32.2718 3.76883 32.8428C4.18069 33.1434 7.32236 31.6804 8.23991 33.0128C8.45063 33.7219 8.94183 34.0688 9.7135 34.0536C10.3395 33.4746 11.0757 33.0275 11.8782 32.7392" stroke="#F93C00" stroke-width="0.461182" stroke-linecap="round" stroke-linejoin="round"/>
<path d="M110.03 4.17039C109.77 4.60653 109.605 5.09255 109.545 5.59681C109.498 5.91428 109.373 6.21514 109.181 6.47274C108.99 6.73034 108.737 6.9367 108.447 7.07357C107.805 7.17912 107.173 7.33675 106.557 7.54489C105.823 7.85934 105.03 8.01333 104.232 7.99654C103.337 7.75674 102.573 7.17444 102.105 6.3756C101.856 6.10864 101.714 5.7616 101.382 5.54596C101.211 5.387 101.102 5.17366 101.071 4.94252C100.479 2.15573 95.5228 5.51992 93.3301 3.43701" stroke="#F93C00" stroke-width="0.922363" stroke-linecap="round" stroke-linejoin="round"/>
<path d="M0.744617 33.2795C0.694262 33.6984 0.789217 34.1218 1.01357 34.479C1.15184 34.6787 1.25915 34.9002 1.40454 35.0945C2.26827 35.5036 3.17569 35.8132 4.10932 36.0175C5.15998 36.2469 5.98421 36.7344 7.08326 36.5202C7.30778 36.3837 7.55856 36.2961 7.81924 36.263C8.07992 36.23 8.34465 36.2522 8.59614 36.3284C8.69465 36.404 8.81582 36.444 8.93996 36.4419C9.52497 36.5701 9.6422 36.8439 9.29165 37.2634C8.93652 37.8231 8.36157 37.9358 7.77975 37.9872C7.25467 38.0336 6.99385 38.358 6.77551 38.7689" stroke="#F93C00" stroke-width="0.922363" stroke-linecap="round" stroke-linejoin="round"/>
<path d="M53.0483 13.2158C53.2416 13.3961 53.4459 13.5663 53.6233 13.7615C53.7043 13.8507 53.8004 14.0125 53.7707 14.1007C53.999 14.6856 54.0033 15.3342 53.7829 15.9221C53.3698 16.2905 53.4199 16.579 53.9376 16.8111C54.053 16.8677 54.1557 16.947 54.2397 17.0442C54.3236 17.1415 54.3871 17.2546 54.4262 17.377C54.4654 17.4994 54.4794 17.6284 54.4675 17.7563C54.4556 17.8842 54.418 18.0084 54.3569 18.1214C54.2834 18.2191 54.2466 18.3395 54.2528 18.4616C54.259 18.5837 54.308 18.6997 54.391 18.7894C54.9859 19.3269 55.6238 19.8146 56.2983 20.2478C56.4207 20.344 56.567 20.4052 56.7215 20.4248C56.7841 20.4248 56.8836 20.219 56.9081 20.0952C57.355 19.7916 57.824 19.5219 58.3112 19.2885C58.5455 18.9648 58.8312 18.9415 59.0711 19.2524C59.3587 19.6245 59.7961 19.5908 60.1601 19.7521C60.8121 20.2678 61.6157 20.5542 62.4468 20.5673C62.5345 20.5108 62.6743 20.5346 62.7907 20.5219" stroke="#F93C00" stroke-width="0.922363" stroke-linecap="round" stroke-linejoin="round"/>
<path d="M92.3634 10.5872C92.2819 11.1462 92.0384 11.6691 91.663 12.0912C91.2968 12.5456 90.7837 12.9169 90.5357 13.4228C90.2262 14.055 89.7596 14.6248 89.6734 15.378C89.6643 15.5528 89.6129 15.7228 89.5237 15.8734C89.4345 16.0239 89.31 16.1506 89.1611 16.2426C89.0486 16.3017 88.9531 16.3884 88.8833 16.4945C88.8135 16.6006 88.7717 16.7228 88.762 16.8494C88.2731 17.309 87.6541 17.6063 86.9897 17.7004" stroke="#F93C00" stroke-width="0.461182" stroke-linecap="round" stroke-linejoin="round"/>
<path d="M80.1859 27.6355C79.9732 28.0808 80.1002 28.5374 80.1515 28.988C80.1797 29.2353 80.2718 29.4758 80.2974 29.7233C80.3421 30.1598 80.1171 30.4832 79.9135 30.8634C79.6114 31.4283 79.0409 32.0067 79.4407 32.7822C79.3972 32.9548 79.2914 33.1052 79.1436 33.2043C78.9958 33.3035 78.8165 33.3445 78.6403 33.3194C78.184 33.4912 77.6949 33.558 77.2093 33.5146C76.536 33.4864 75.8764 33.3157 75.2739 33.0138C75.061 32.9176 74.699 33.2499 74.7034 33.5497C74.7182 34.4783 73.9504 34.5903 74.3466 35.6373C74.9299 37.1804 73.4833 36.7425 72.9712 37.396C72.8374 37.568 72.4555 37.5434 72.1836 37.6082" stroke="#F93C00" stroke-width="0.461182" stroke-linecap="round" stroke-linejoin="round"/>
<path d="M96.7701 4.13184C96.8087 4.28632 96.861 4.43908 96.8838 4.59602C96.7319 5.21322 96.4553 5.79278 96.0709 6.29901C95.6865 6.80524 95.2026 7.2274 94.6489 7.5395C94.4771 7.67496 94.3207 7.82872 94.1823 7.99804C93.9981 8.19508 93.8573 8.42848 93.7689 8.68324C93.5372 9.23099 93.245 9.75114 92.8978 10.234C92.6362 10.6247 92.2644 10.6417 91.9463 10.2723C91.4333 9.67646 90.8208 9.64379 90.1211 9.80809C89.5019 9.83523 88.8903 9.95534 88.3068 10.1644C87.5808 10.1119 86.8511 10.1628 86.1394 10.3155C85.9659 10.4884 85.7472 10.6091 85.5084 10.6638C85.2695 10.7184 85.0202 10.7049 84.7886 10.6247C84.0985 10.4434 83.444 10.4221 82.8062 10.8423C82.6443 10.9489 82.3525 10.8669 82.1209 10.8548C82.0157 10.8401 81.9121 10.8155 81.8115 10.7812" stroke="#F93C00" stroke-width="0.922363" stroke-linecap="round" stroke-linejoin="round"/>
<path d="M46.6694 38.73C46.8122 39.0499 46.8762 39.3994 46.856 39.7491C46.8358 40.0989 46.732 40.4387 46.5532 40.74C45.9811 41.4627 45.9648 42.2512 46.5041 43.1056C46.4662 43.5454 46.3504 43.975 46.162 44.3743C46.1924 44.7594 46.2077 45.1472 46.2015 45.5335C46.1924 46.0932 45.8494 46.4353 45.394 46.694C45.0961 46.8632 44.7842 47.5818 44.8522 47.9303C44.9067 48.2086 45.0926 48.3203 45.4321 48.2783" stroke="#F93C00" stroke-width="0.461182" stroke-linecap="round" stroke-linejoin="round"/>
<path d="M45.3555 12.2302C45.2539 11.7198 44.9248 11.532 44.4277 11.5509C43.7071 11.2415 43.0095 10.8812 42.3401 10.4727C42.2947 10.4482 42.222 10.4619 42.1888 10.43C42.4538 10.6849 39.3352 8.52416 39.3645 8.53889" stroke="#F93C00" stroke-width="0.461182" stroke-linecap="round" stroke-linejoin="round"/>
<path d="M41.7216 19.8652C41.5947 20.5272 41.6622 21.2117 41.9159 21.8362C42.0123 21.9602 42.101 22.0902 42.1814 22.2252C42.9201 22.7961 43.629 23.4026 44.308 24.0446C44.8908 24.5547 45.4132 25.1399 46.0257 25.608C46.3607 25.864 46.7745 26.0383 47.1336 26.2825" stroke="#F93C00" stroke-width="0.461182" stroke-linecap="round" stroke-linejoin="round"/>
<path d="M64.1821 11.0515C64.3191 11.3816 64.3623 11.7432 64.3071 12.0963C64.2669 12.2399 64.2654 12.3916 64.3026 12.536C64.3398 12.6804 64.4144 12.8125 64.519 12.9188C64.6745 13.0615 64.5124 13.6487 64.337 13.8349C64.0096 14.1824 63.9065 14.6296 63.7967 15.0719C63.6846 15.3455 63.6798 15.6512 63.7832 15.9281C63.9603 16.2884 63.3802 18.3909 63.5622 19.17" stroke="#F93C00" stroke-width="0.461182" stroke-linecap="round" stroke-linejoin="round"/>
<path d="M63.37 19.6333C63.4904 19.8163 63.5913 20.0114 63.6711 20.2154C63.716 20.3748 61.8721 23.7635 62.129 23.2649C62.0741 23.3743 61.9933 23.4686 61.8936 23.5395C61.7939 23.6104 61.6783 23.6558 61.557 23.6717C60.8462 23.8225 60.4651 24.435 60.4184 25.199C60.3922 25.5022 60.2858 25.793 60.1102 26.0414C59.8771 26.37 59.8678 26.8428 59.465 27.054C59.1749 27.1647 58.9302 27.3694 58.7699 27.6354C58.6662 27.8291 58.6039 28.0423 58.5867 28.2614C58.3714 28.5561 58.4963 28.8137 58.8446 28.9564C58.9269 28.9901 59.0332 29.107 59.03 29.1816C59.0097 29.4157 58.9741 29.6482 58.9234 29.8777C58.9185 29.9049 58.8807 29.9413 58.8886 29.9533C59.1789 30.3969 58.7724 30.6044 58.5767 30.8829" stroke="#F93C00" stroke-width="0.922363" stroke-linecap="round" stroke-linejoin="round"/>
<path d="M20.5762 30.3801C20.6666 30.4833 20.7557 30.5872 20.8463 30.6891C21.2717 30.7609 21.7079 30.7357 22.1222 30.6154C22.8774 30.5098 23.6137 32.0946 24.4421 32.3884C26.1593 32.997 26.2035 32.4331 27.2854 34.4268C28.0489 34.4961 28.8138 34.5303 29.5803 34.5295C29.7704 34.5848 29.943 34.6882 30.0815 34.8296C30.4256 34.7676 30.78 34.7991 31.1077 34.9209C31.4354 35.0426 31.7245 35.2501 31.9446 35.5217C31.9235 35.8555 31.9341 36.1917 31.9427 36.5264C31.945 36.8217 31.8824 37.1138 31.7592 37.3821C31.3987 38.2383 31.2415 39.1381 31.5664 40.04C31.7031 40.3678 31.8984 40.6681 32.1426 40.9261C32.3454 41.1584 32.5173 41.1005 32.675 40.8175C32.8995 40.4152 32.7978 40.4032 33.332 40.5864C33.8846 40.776 35.0423 44.6363 35.5281 45.3842C35.4065 46.9724 36.118 47.5895 37.6626 47.2355C37.8147 47.1652 37.9726 47.1085 38.1258 47.041C38.8098 46.7394 38.9169 46.1482 38.8992 45.4952" stroke="#F93C00" stroke-width="0.922363" stroke-linecap="round" stroke-linejoin="round"/>
<path d="M27.2437 34.4387C26.6995 34.5595 25.5785 34.0728 25.1789 34.2913C24.1546 34.3447 23.5204 34.8066 23.2763 35.677C23.3071 35.7817 23.3059 35.8932 23.2731 35.9973C23.2402 36.1014 23.1772 36.1934 23.0919 36.2615C22.6466 36.585 22.6559 36.5968 23.0484 36.9534C23.0789 36.9885 23.1051 37.0271 23.1265 37.0683" stroke="#F93C00" stroke-width="0.461182" stroke-linecap="round" stroke-linejoin="round"/>
<path d="M51.1927 34.71C50.8595 34.8931 50.5166 35.0583 50.1656 35.2046C49.4418 35.2933 48.748 35.5468 48.1375 35.9456C47.4476 36.5775 47.0288 37.4517 46.9684 38.3853C46.9793 38.4236 46.9806 38.4639 46.9722 38.5027C46.9639 38.5416 46.9461 38.5778 46.9204 38.6081C46.8947 38.6385 46.862 38.662 46.825 38.6767C46.7881 38.6914 46.7481 38.6968 46.7086 38.6923C45.9194 38.3511 45.0449 38.2586 44.2018 38.4271C44.0575 38.5902 43.8758 38.7158 43.6722 38.7931C43.4687 38.8704 43.2494 38.8971 43.0332 38.8709C42.8611 38.8349 42.6818 38.8687 42.5347 38.965C42.3875 39.0612 42.2846 39.2119 42.2485 39.3839C42.2088 39.559 42.0054 39.6966 41.8765 39.8506" stroke="#F93C00" stroke-width="0.461182" stroke-linecap="round" stroke-linejoin="round"/>
<path d="M99.6307 18.7056C99.2436 18.833 98.7623 18.6771 98.4698 19.0914C97.9033 19.0935 97.4536 19.4298 97.1209 20.1001C96.9327 20.3163 96.7135 20.5033 96.4704 20.6551C96.1592 20.8779 95.8707 21.1309 95.6093 21.4103C95.4865 21.5196 95.3391 21.6044 95.2262 21.723C94.8163 22.1552 94.2057 22.2829 93.8047 22.781C93.6145 22.9982 93.3702 23.1612 93.0966 23.2533C92.823 23.3455 92.5299 23.3635 92.2471 23.3056" stroke="#F93C00" stroke-width="0.461182" stroke-linecap="round" stroke-linejoin="round"/>
<path d="M68.9756 10.9735C69.4037 10.9337 69.8317 10.9838 70.2311 10.6893C70.3735 10.5845 70.7842 10.6928 70.9735 10.8352C71.2849 11.0771 71.675 11.1947 72.0682 11.1651C72.1753 11.149 72.2846 11.1713 72.3769 11.228C72.4692 11.2848 72.5384 11.3724 72.5724 11.4752C73.0083 12.5514 74.6467 12.9759 74.9674 14.2593" stroke="#F93C00" stroke-width="0.461182" stroke-linecap="round" stroke-linejoin="round"/>
<path d="M61.0508 24.0403C61.3446 24.3186 61.6666 24.5655 62.0116 24.7771C62.1589 25.1118 62.4561 25.257 62.7424 25.4458C62.978 25.6474 63.1892 25.8758 63.3717 26.1264C63.9201 26.721 65.2647 26.9781 66.0374 27.1333" stroke="#F93C00" stroke-width="0.461182" stroke-linecap="round" stroke-linejoin="round"/>
<path d="M102.531 13.5061C102.37 13.6866 102.186 13.8445 101.983 13.9754C101.887 14.0063 101.8 14.0582 101.727 14.1273C101.654 14.1964 101.598 14.281 101.562 14.3748C101.376 14.9315 101.183 15.4855 100.982 16.037C100.915 16.2523 100.824 16.4591 100.709 16.6529C100.306 17.2593 100.28 18.0487 99.7533 18.5949C99.7326 18.6354 99.7218 18.6803 99.7218 18.7258C99.7218 18.7713 99.7326 18.8162 99.7533 18.8567C99.9409 19.1927 99.7648 19.4493 99.5927 19.7099C99.3107 20.136 99.0089 20.5506 98.7493 20.9897C98.6019 21.241 98.4335 21.5042 98.5405 21.839C98.4914 22.4189 98.1086 22.769 97.3921 22.8892C96.9628 23.0021 96.4439 23.0765 96.4969 23.7306C96.4989 23.7551 96.4534 23.7898 96.4232 23.8065C96.0232 24.0233 95.932 24.4293 95.8065 24.8134C95.7454 24.9594 95.6432 25.0845 95.5125 25.1736C95.3817 25.2627 95.2279 25.3121 95.0697 25.3157C94.9224 25.31 94.9224 25.31 94.8765 25.0065" stroke="#F93C00" stroke-width="0.461182" stroke-linecap="round" stroke-linejoin="round"/>
<path d="M42.4177 31.3462C41.9324 31.5041 41.4108 31.5839 41.0289 31.9676C39.173 34.4541 37.202 36.8438 35.1159 39.1366C34.6016 39.6489 34.0718 40.1447 33.5264 40.6241" stroke="#F93C00" stroke-width="0.922363" stroke-linecap="round" stroke-linejoin="round"/>
<path d="M82.2352 10.9739C81.9198 11.3948 79.7202 12.5926 79.8283 13.5649C79.8259 13.6174 79.8112 13.6685 79.7853 13.7142C79.7594 13.7599 79.723 13.7988 79.6792 13.8277C79.1978 14.112 78.6928 14.3544 78.1698 14.552C77.6985 14.7013 74.4551 14.2696 74.7734 15.1685" stroke="#F93C00" stroke-width="0.922363" stroke-linecap="round" stroke-linejoin="round"/>
<path d="M32.2116 25.7024C31.9886 25.9497 31.8335 26.2505 31.7612 26.5755C31.689 26.9005 31.7022 27.2387 31.7995 27.5571C31.8624 28.7942 34.6506 28.4831 35.4203 28.8343" stroke="#F93C00" stroke-width="0.461182" stroke-linecap="round" stroke-linejoin="round"/>
<path d="M93.5991 14.801C93.9387 15.1734 93.91 16.0231 93.5617 16.3483C93.4727 16.4272 93.3951 16.5182 93.3311 16.6185C93.0474 17.0942 92.7866 17.5559 92.2168 17.7973C91.8948 17.9344 91.6891 18.3224 91.3899 18.5407C90.5671 18.8886 89.861 19.4647 89.3551 20.201C89.6545 19.3082 88.2556 22.5852 88.3177 22.4605C88.1124 22.9089 87.9419 23.3725 87.8076 23.8471C87.8443 24.4799 87.9741 25.1038 88.193 25.6987C88.2509 25.8375 88.3269 25.968 88.4189 26.087" stroke="#F93C00" stroke-width="0.461182" stroke-linecap="round" stroke-linejoin="round"/>
<path d="M30.1632 22.6875C29.784 22.797 29.4067 22.9127 29.0312 23.0345C29.1003 23.5215 29.3231 23.7276 29.6995 23.653C32.6774 23.4 30.6586 24.3448 31.9416 25.587" stroke="#F93C00" stroke-width="0.461182" stroke-linecap="round" stroke-linejoin="round"/>
<path d="M36.5801 24.8132C39.8734 25.329 35.3119 28.4267 35.488 29.1068C35.3792 29.2294 35.32 29.3881 35.3218 29.552C35.3236 29.7159 35.3864 29.8732 35.4978 29.9934C35.9644 30.2326 36.1037 30.4436 36.0332 30.8429C36.0251 30.8891 35.935 30.9213 35.8844 30.9601" stroke="#F93C00" stroke-width="0.461182" stroke-linecap="round" stroke-linejoin="round"/>
<path d="M20.1893 22.5324C21.126 22.3531 20.6442 24.7889 20.5641 25.0804C20.5339 25.1907 20.3836 25.2939 20.2642 25.3486C19.9668 25.4849 21.8785 28.8643 21.3102 29.4518C21.1962 29.5697 21.0735 29.6795 20.9639 29.8013C20.7861 29.9978 20.7699 30.3556 20.3828 30.3542C20.3187 30.3542 20.26 30.5278 20.1878 30.6105C20.0912 30.7198 19.988 30.823 19.8786 30.9195C19.5762 31.1355 19.2675 31.3423 18.9525 31.5399C18.7086 31.9279 18.2157 31.9412 17.9087 32.2357" stroke="#F93C00" stroke-width="0.922363" stroke-linecap="round" stroke-linejoin="round"/>
<path d="M17.4833 24.0786C17.4666 24.1211 17.878 26.1043 17.9448 26.1328C18.0116 26.1613 18.1084 26.2829 18.0922 26.3167C17.3581 27.9338 17.6707 30.0523 17.2505 31.7329" stroke="#F93C00" stroke-width="0.461182" stroke-linecap="round" stroke-linejoin="round"/>
<path d="M55.0973 4.78882C55.0587 4.86618 55.0221 4.94453 54.9811 5.02041C54.8537 5.25471 54.7311 5.41339 54.4332 5.1845C54.3762 5.1511 54.3131 5.12941 54.2476 5.12073C54.1821 5.11204 54.1156 5.11653 54.0518 5.13392C53.9881 5.15131 53.9285 5.18123 53.8764 5.22197C53.8244 5.26271 53.7811 5.31344 53.749 5.37115C53.2131 6.33242 51.8554 6.26561 50.9609 6.10327" stroke="#F93C00" stroke-width="0.461182" stroke-linecap="round" stroke-linejoin="round"/>
<path d="M26.3164 21.0251C26.0953 21.1641 25.8915 21.1216 25.8655 20.8691C25.8181 20.4089 25.5152 20.0599 25.4106 19.6328C25.3861 19.5055 25.3724 19.3763 25.3698 19.2467C25.3305 18.6642 25.5012 18.0902 25.4435 17.5076C25.4354 17.4271 25.3848 17.2986 25.3293 17.2839C21.76 16.3378 21.9546 15.3287 18.9531 17.3527" stroke="#F93C00" stroke-width="0.461182" stroke-linecap="round" stroke-linejoin="round"/>
<path d="M73.6153 17.3137C74.4714 18.0214 74.739 18.8581 74.4181 19.824C74.3488 19.9856 74.3427 20.1674 74.4011 20.3333C74.4594 20.4991 74.578 20.6371 74.7332 20.7197C75.1277 21.0078 75.3195 21.4705 75.626 21.8359C75.8307 22.0717 75.9411 22.3747 75.9359 22.6869C75.8942 23.1023 75.7508 23.501 75.5184 23.8479C75.4526 24.3341 71.5643 24.7877 71.3066 24.4938C71.0538 24.3346 70.7576 24.2582 70.4593 24.2752C70.1611 24.2923 69.8755 24.4019 69.6425 24.5888C69.5597 24.6802 69.4554 24.7494 69.339 24.7901C69.2226 24.8308 69.0979 24.8418 68.9762 24.8219C68.8275 24.8474 68.6839 24.8965 68.5508 24.9675" stroke="#F93C00" stroke-width="0.461182" stroke-linecap="round" stroke-linejoin="round"/>
<path d="M46.2832 29.9936C46.3478 29.8388 46.4094 29.6831 46.4772 29.5299C46.3576 29.8 49.5543 28.2186 49.9598 27.7938C49.9852 27.7727 50.0154 27.7583 50.0477 27.7518C50.08 27.7453 50.1135 27.747 50.145 27.7567C50.4483 27.9925 51.0109 27.9566 50.9702 28.5637C50.9824 28.7393 51.0327 28.91 51.1175 29.0642C51.326 29.5625 53.6818 28.5129 54.13 28.4502C55.0233 28.323 56.0192 28.211 56.9121 28.0561C57.1678 27.7623 57.4962 27.5408 57.8644 27.4139C58.2326 27.2869 58.6276 27.259 59.01 27.3328" stroke="#F93C00" stroke-width="0.922363" stroke-linecap="round" stroke-linejoin="round"/>
<path d="M58.6958 33.3616C58.8771 33.8773 59.1379 34.8064 59.4699 35.1704C59.7556 35.2761 60.055 35.3402 60.359 35.3607C60.5544 35.4776 60.787 35.5156 61.0095 35.4669C61.2319 35.4183 61.4275 35.2867 61.5563 35.0989C61.6889 34.927 61.8264 34.7946 62.0995 34.9322C62.4603 35.1137 64.0437 34.5215 64.531 34.5947C64.8659 34.6453 65.2012 34.6974 65.5362 34.749" stroke="#F93C00" stroke-width="0.461182" stroke-linecap="round" stroke-linejoin="round"/>
<path d="M93.2138 3.32001C92.9174 3.01081 92.6158 2.70602 92.3272 2.38994C91.8673 2.25486 91.5058 2.43611 91.2427 2.93369C91.2149 2.95702 91.1935 3.00219 91.1646 3.00735C90.3487 3.1692 89.9334 3.89373 89.3096 4.32426" stroke="#F93C00" stroke-width="0.461182" stroke-linecap="round" stroke-linejoin="round"/>
<path d="M74.2711 19.9812C72.8547 20.2536 71.7579 20.4309 70.5181 21.1355C70.3462 21.2325 70.3335 21.3585 70.3229 21.5285C70.475 22.2266 70.2703 22.7565 69.7089 23.1182C69.5124 23.1315 69.3636 23.2187 69.4766 23.4621" stroke="#F93C00" stroke-width="0.461182" stroke-linecap="round" stroke-linejoin="round"/>
<path d="M56.489 47.2732C56.3342 46.8866 56.1736 46.5022 56.0317 46.111C56.0262 46.0702 56.0299 46.0288 56.0427 45.9897C56.0555 45.9506 56.0769 45.915 56.1053 45.8853C56.1739 45.612 56.1695 45.3255 56.0927 45.0545C56.0159 44.7834 55.8694 44.5372 55.6677 44.3405C55.4751 44.0458 54.9464 44.0212 54.7877 44.258C54.7631 44.2936 54.7248 44.341 54.7327 44.3726C54.4782 44.7924 54.3713 45.2851 54.4289 45.7726C54.4637 45.8352 54.4851 45.9044 54.4917 45.9758C54.4983 46.0472 54.4901 46.1191 54.4675 46.1871C53.962 47.491 54.6323 47.6516 54.6323 48.8585" stroke="#F93C00" stroke-width="0.461182" stroke-linecap="round" stroke-linejoin="round"/>
<path d="M57.8038 34.1296C57.817 34.584 57.8684 35.0487 57.3823 35.3331C57.3295 35.3643 57.3261 35.4804 57.3015 35.5588C57.2662 35.7322 57.1924 35.8954 57.0856 36.0365C56.9788 36.1776 56.8416 36.2929 56.6843 36.3739C56.5269 36.4447 56.5185 36.6009 56.5254 36.7573C56.5318 36.8361 56.5185 36.9153 56.4866 36.9877C56.5659 37.6105 56.5142 38.243 56.3348 38.8446C56.2582 39.1148 56.1774 39.3849 56.1047 39.657C56.0821 39.7454 56.0692 39.836 56.0662 39.9272C56.0872 40.1325 56.0753 40.3398 56.0308 40.5412C56.2897 40.7856 56.129 40.9909 55.9893 41.2043C55.9734 41.2259 55.9619 41.2505 55.9556 41.2765C55.9492 41.3026 55.9481 41.3296 55.9522 41.3561C56.143 41.8586 55.682 42.172 55.5919 42.5929C55.5745 42.6454 55.5451 42.693 55.506 42.7321C55.4669 42.7712 55.4192 42.8006 55.3667 42.8179C54.9492 42.9004 54.8917 43.9253 54.7891 44.2573" stroke="#F93C00" stroke-width="0.461182" stroke-linecap="round" stroke-linejoin="round"/>
<path d="M79.877 13.9121C80.1942 14.2267 80.4422 14.6042 80.6051 15.0203C81.1957 15.5331 81.7568 16.079 82.2858 16.6552C82.3381 17.086 82.6542 17.2849 83.163 17.3139" stroke="#F93C00" stroke-width="0.461182" stroke-linecap="round" stroke-linejoin="round"/>
<path d="M44.9302 7.45581C45.1197 8.04639 45.4482 8.58288 45.888 9.02026C46.0698 9.11261 46.1309 9.37834 46.1582 9.65611C46.1968 10.2879 46.1997 10.9213 46.167 11.5534" stroke="#F93C00" stroke-width="0.461182" stroke-linecap="round" stroke-linejoin="round"/>
<path d="M55.9091 10.0078C55.2917 10.3765 54.72 10.8167 54.2059 11.3193C53.9357 11.5217 53.6997 11.6835 53.6378 12.091C53.5886 12.4218 53.2802 12.714 53.0869 13.0242" stroke="#F93C00" stroke-width="0.461182" stroke-linecap="round" stroke-linejoin="round"/>
<path d="M29.1579 17.5073C29.0805 17.9968 28.9859 18.4846 28.9314 18.977C28.8241 19.9542 29.1579 21.7181 29.1579 22.7648" stroke="#F93C00" stroke-width="0.461182" stroke-linecap="round" stroke-linejoin="round"/>
<path d="M98.9736 10.8579C99.5164 11.1825 99.9379 11.676 100.173 12.263C100.344 12.7404 100.772 12.9128 100.954 13.2699C101.121 13.6054 101.371 13.8928 101.68 14.105" stroke="#F93C00" stroke-width="0.461182" stroke-linecap="round" stroke-linejoin="round"/>
<path d="M56.5665 20.4834C56.5408 20.6637 56.5145 20.8442 56.4894 21.0237C56.4671 21.1831 54.5566 22.0894 54.4018 22.0835C53.9655 22.3353 53.5931 22.6843 53.3136 23.1035C53.0452 23.3056 52.7633 23.489 52.4697 23.6524" stroke="#F93C00" stroke-width="0.461182" stroke-linecap="round" stroke-linejoin="round"/>
<path d="M46.1675 29.9744C46.2321 30.0451 46.3522 30.1166 46.3515 30.1868C46.1459 30.4741 45.8755 30.7088 45.5621 30.8719C45.2487 31.0349 44.9013 31.1216 44.548 31.125C44.2642 31.2684 43.9914 31.4326 43.7317 31.6162C43.2651 31.8952 42.5344 31.6061 42.4565 31.1147" stroke="#F93C00" stroke-width="0.922363" stroke-linecap="round" stroke-linejoin="round"/>
<path d="M39.7111 14.7234C39.5527 15.4567 37.8797 17.1347 36.9663 17.2361" stroke="#F93C00" stroke-width="0.461182" stroke-linecap="round" stroke-linejoin="round"/>
<path d="M103.11 7.64893C102.732 7.96886 102.301 8.21896 101.836 8.38746C100.971 8.75143 98.9784 9.39439 98.9425 10.587C98.9273 11.0944 98.6016 11.3975 98.2725 11.7025C97.7453 12.19 96.6489 11.1146 96.0364 11.8634C95.8399 12.1048 95.668 12.3708 95.4499 12.5913C94.8048 13.0919 94.1647 13.5988 93.5296 14.1121C93.2695 14.3488 93.3086 14.4621 93.6001 14.7425" stroke="#F93C00" stroke-width="0.461182" stroke-linecap="round" stroke-linejoin="round"/>
<path d="M53.7057 28.679C53.8521 28.9292 53.9356 29.2111 53.9493 29.5007C53.9629 29.7902 53.9062 30.0788 53.7841 30.3417C53.5996 30.8004 53.7814 31.4137 53.7396 31.8872C53.703 32.3008 53.7281 32.7529 53.5606 33.111C53.4402 33.3681 53.0694 33.5531 52.7727 33.672C52.3687 33.8346 51.9237 33.893 51.5049 34.0224C51.4447 34.0434 51.3901 34.0782 51.3456 34.1239C51.3011 34.1697 51.2679 34.2251 51.2485 34.286C51.238 34.4016 51.1051 34.6033 51.3468 34.6711" stroke="#F93C00" stroke-width="0.461182" stroke-linecap="round" stroke-linejoin="round"/>
<path d="M78.6787 26.147C78.1914 26.1902 78.062 26.4029 77.9822 26.7855C77.8707 27.3205 77.6278 27.7726 77.0909 27.9762C76.8508 28.0364 76.6067 28.0795 76.3605 28.1054C76.2883 28.1213 76.2304 28.2036 76.166 28.2547" stroke="#F93C00" stroke-width="0.461182" stroke-linecap="round" stroke-linejoin="round"/>
<path d="M31.5672 40.0401C31.2459 40.7713 29.6584 40.7769 29.078 40.9243C28.8783 40.9734 28.7128 40.9375 28.6003 41.1981C28.4653 41.4807 28.2694 41.7298 28.0266 41.9275C27.9466 41.9998 27.8517 42.0535 27.7485 42.0847C27.6453 42.1158 27.5364 42.1237 27.4298 42.1078C27.2181 42.0133 26.9349 41.7362 26.9472 41.5552C26.4233 40.5813 26.619 39.6594 27.5344 38.7893" stroke="#F93C00" stroke-width="0.461182" stroke-linecap="round" stroke-linejoin="round"/>
<path d="M60.9541 11.6313C60.7539 12.0688 60.8615 12.4148 61.1967 12.7611C61.5179 13.0788 61.7872 13.4448 61.9949 13.8459C61.8928 14.6126 61.9 15.3899 62.0163 16.1545C62.0479 16.2164 62.074 16.2809 62.0944 16.3473C62.2951 16.9122 62.7438 17.1421 63.2932 17.2364" stroke="#F93C00" stroke-width="0.461182" stroke-linecap="round" stroke-linejoin="round"/>
<path d="M102.104 8.38403C102.178 9.02562 102.218 9.67062 102.225 10.3164C102.283 10.8894 102.049 11.1848 101.447 11.2445" stroke="#F93C00" stroke-width="0.461182" stroke-linecap="round" stroke-linejoin="round"/>
<path d="M66.0757 11.4761C66.4983 11.7362 66.859 12.0855 67.1325 12.4996C67.4061 12.9137 67.5859 13.3825 67.6593 13.8733C67.6901 13.9488 67.7165 14.026 67.7384 14.1045C67.8334 14.3638 67.7765 14.5181 67.4682 14.4901C66.9914 14.8503 66.8883 15.379 67.1588 16.0761C67.1448 16.3217 67.3887 16.3357 67.5068 16.4627" stroke="#F93C00" stroke-width="0.461182" stroke-linecap="round" stroke-linejoin="round"/>
<path d="M39.1706 53.2271C38.7764 52.401 38.0861 51.7532 37.2365 51.4124C37.2063 51.3962 37.1304 51.4207 37.126 51.4087C36.9308 50.8556 36.4929 51.0312 36.0798 51.0007C35.9075 51.0272 35.7475 51.1062 35.6218 51.2269C35.4961 51.3477 35.4107 51.5043 35.3774 51.6754C34.9599 52.0414 34.9613 52.5478 34.8736 53.0328C34.8145 53.3605 34.699 53.678 34.6089 54.0002" stroke="#F93C00" stroke-width="0.461182" stroke-linecap="round" stroke-linejoin="round"/>
<path d="M74.6966 15.1489C74.5033 15.2776 74.3012 15.3945 74.1204 15.5399C73.8597 15.8094 73.7088 16.1664 73.6973 16.5412C73.6149 16.9393 73.393 17.295 73.0717 17.544C73.0093 17.6138 72.9225 17.6568 72.8292 17.6643C72.7359 17.6717 72.6433 17.6428 72.5707 17.5838C72.3216 17.2545 72.0027 16.9846 71.6367 16.7935C71.2707 16.6024 70.8669 16.4948 70.4544 16.4786C69.7344 16.7022 68.9558 16.639 68.2813 16.302C67.9685 16.217 67.5966 16.3462 67.5573 16.6579C67.5377 16.7676 67.4951 16.8719 67.4324 16.9641C67.3698 17.0562 67.2884 17.1342 67.1936 17.1928C66.426 17.5022 65.7047 17.9158 65.05 18.422C64.9398 18.61 64.7922 18.7733 64.6163 18.9018C64.4404 19.0303 64.2399 19.1213 64.0273 19.1691" stroke="#F93C00" stroke-width="0.922363" stroke-linecap="round" stroke-linejoin="round"/>
<path d="M54.6721 44.374C54.4788 44.3986 54.2862 44.4317 54.092 44.4492C53.0651 44.5415 51.0986 45.7508 50.1104 45.4561" stroke="#F93C00" stroke-width="0.461182" stroke-linecap="round" stroke-linejoin="round"/>
<path d="M11.762 27.3647C10.421 28.0554 10.2268 28.9461 11.1792 30.0371C11.3593 30.1626 11.5283 30.3034 11.6844 30.4578C11.7256 30.4932 11.8028 30.5521 11.7947 30.5708C11.6473 30.9109 11.9366 31.1993 11.8929 31.5416C11.8487 31.9396 11.8609 32.3417 11.929 32.7362C11.9764 33.0356 12.4919 33.225 12.7591 33.0356C12.837 32.975 12.9315 32.9393 13.03 32.9334C13.1286 32.9275 13.2266 32.9516 13.3112 33.0025C12.8505 32.8185 16.2493 34.645 14.662 34.4738C14.2246 34.4267 13.7614 34.6081 13.3503 34.3567C13.2756 34.3084 13.1901 34.2794 13.1014 34.2723C13.0128 34.2652 12.9238 34.2802 12.8424 34.3159C12.2775 34.5011 11.6694 34.549 11.1404 34.8584C11.0483 34.9122 10.911 34.885 10.7965 34.9044C10.6773 34.9058 10.5599 34.9336 10.4527 34.9859C9.95201 35.3375 9.57185 35.8349 9.36397 36.4104C9.3539 36.4413 9.31485 36.4627 9.28857 36.4884" stroke="#F93C00" stroke-width="0.922363" stroke-linecap="round" stroke-linejoin="round"/>
<path d="M76.3203 9.81418C76.9351 9.71678 77.5648 9.79891 78.1341 10.0507C78.5133 10.3034 78.8374 10.5939 79.3768 10.5321C80.5763 10.3832 81.2967 9.69293 81.538 8.46118" stroke="#F93C00" stroke-width="0.461182" stroke-linecap="round" stroke-linejoin="round"/>
<path d="M98.0849 11.8245C97.8902 12.4925 97.7714 13.1803 97.7308 13.875C97.7476 13.9314 97.7528 13.9908 97.746 14.0493C97.7393 14.1079 97.7207 14.1644 97.6915 14.2156C97.2777 14.7132 97.0227 15.3945 96.23 15.4659C96.0867 15.4691 95.946 15.5049 95.8186 15.5706C95.6912 15.6363 95.5804 15.73 95.4946 15.8449" stroke="#F93C00" stroke-width="0.461182" stroke-linecap="round" stroke-linejoin="round"/>
<path d="M45.5488 18.5885C45.7269 17.7267 48.9381 17.9438 49.1407 18.7342C49.5893 19.1661 50.0414 19.5943 50.4969 20.0189" stroke="#F93C00" stroke-width="0.461182" stroke-linecap="round" stroke-linejoin="round"/>
<path d="M51.7728 2.97167C51.5026 2.48392 51.3307 1.91558 50.8032 1.62431C50.3213 1.42979 49.8456 1.22169 49.376 1" stroke="#F93C00" stroke-width="0.461182" stroke-linecap="round" stroke-linejoin="round"/>
<path d="M42.6498 14.8788C42.0665 14.5285 41.3902 14.5325 40.717 14.6086C39.9787 14.6919 39.4824 14.5828 38.7446 14.4993C38.725 14.4971 38.6938 14.5953 38.668 14.6467" stroke="#F93C00" stroke-width="0.461182" stroke-linecap="round" stroke-linejoin="round"/>
<path d="M16.1306 29.2976C16.0871 28.9442 15.8385 28.8884 15.551 28.9137C13.9732 29.053 15.9721 30.5455 16.0105 30.5779C16.5262 31.018 16.4434 31.3014 17.1711 31.7383C17.3409 31.9579 17.5353 32.1574 17.7505 32.3327C17.8146 32.3455 17.8318 32.5962 17.8704 32.7379" stroke="#F93C00" stroke-width="0.461182" stroke-linecap="round" stroke-linejoin="round"/>
<path d="M36.0778 13.3711C35.8261 13.7844 34.4962 14.8788 34.3294 15.2224C34.267 15.3516 34.1062 15.4329 33.9902 15.536" stroke="#F93C00" stroke-width="0.461182" stroke-linecap="round" stroke-linejoin="round"/>
<path d="M69.9806 28.2542C69.5351 28.4595 69.3742 28.8249 69.2598 29.2918C69.1841 29.6005 68.9594 29.8813 68.8857 30.2231C68.8295 30.4847 68.5971 30.4503 68.3945 30.342" stroke="#F93C00" stroke-width="0.461182" stroke-linecap="round" stroke-linejoin="round"/>
<path d="M33.5266 20.5608C33.488 20.535 33.4448 20.482 33.4112 20.4872C32.614 20.4761 31.8412 20.7622 31.2435 21.2898C30.7963 21.4875 30.6064 21.8667 30.4674 22.2982C30.4389 22.3869 30.3446 22.4544 30.2793 22.5318" stroke="#F93C00" stroke-width="0.461182" stroke-linecap="round" stroke-linejoin="round"/>
<path d="M17.638 32.3518C17.148 32.8921 18.1977 34.4116 17.6699 34.8169C17.5075 35.4378 17.4462 36.0808 17.4884 36.7212C17.1375 37.3297 17.2521 37.6514 17.8322 37.6864" stroke="#F93C00" stroke-width="0.922363" stroke-linecap="round" stroke-linejoin="round"/>
<path d="M49.9561 2.89462C50.1395 2.69692 52.0839 2.93296 52.2462 3.15842C52.304 3.23873 52.4882 3.2166 52.581 3.2861C52.8445 3.46813 53.0895 3.6757 53.3124 3.90576C53.5825 4.20711 53.81 4.53229 54.2857 4.32501" stroke="#F93C00" stroke-width="0.461182" stroke-linecap="round" stroke-linejoin="round"/>
<path d="M75.625 21.8358C76.5835 21.754 77.0588 22.1932 77.0509 23.1534C77.1447 23.6232 77.172 24.1038 77.1322 24.5811" stroke="#F93C00" stroke-width="0.461182" stroke-linecap="round" stroke-linejoin="round"/>
<path d="M10.6411 28.177C10.1991 27.9046 9.81985 28.1578 9.44678 28.3396C9.28404 28.4415 9.13946 28.5699 9.01897 28.7195C8.91819 28.8413 8.78218 28.9288 8.62962 28.9701C8.47705 29.0114 8.31543 29.0044 8.16699 28.9501" stroke="#F93C00" stroke-width="0.461182" stroke-linecap="round" stroke-linejoin="round"/>
<path d="M65.5928 34.6318C65.6098 34.7262 65.644 34.8166 65.6937 34.8986C66.5857 35.8589 66.848 35.5907 67.8132 36.49C67.8326 36.508 67.8157 36.5637 67.8157 36.6033" stroke="#F93C00" stroke-width="0.461182" stroke-linecap="round" stroke-linejoin="round"/>
<path d="M58.8469 42.6731C58.5381 42.9176 58.1583 43.0555 57.7645 43.0661C57.6555 43.0834 57.5507 43.1207 57.4553 43.1763C57.2257 43.2348 57.0068 43.3293 56.8067 43.4563C56.4346 43.784 55.7816 43.6132 55.561 44.1811" stroke="#F93C00" stroke-width="0.461182" stroke-linecap="round" stroke-linejoin="round"/>
<path d="M71.8361 24.8909C71.689 25.2859 71.648 25.7126 71.7172 26.1284C71.9574 27.4431 71.0705 27.9842 70.0963 28.2091C70.0741 28.2143 70.0334 28.1382 70.001 28.0996" stroke="#F93C00" stroke-width="0.461182" stroke-linecap="round" stroke-linejoin="round"/>
<path d="M35.9617 47.0801C35.6365 47.7832 35.598 48.5854 35.8544 49.3165C35.9178 49.8579 35.9149 50.405 35.8458 50.9458" stroke="#F93C00" stroke-width="0.461182" stroke-linecap="round" stroke-linejoin="round"/>
<path d="M84.3999 24.3115C84.352 24.2827 84.2987 24.2637 84.2432 24.2558C84.1877 24.248 84.1313 24.2514 84.0771 24.2658C84.023 24.2802 83.9723 24.3054 83.9281 24.3398C83.8839 24.3742 83.8471 24.4171 83.8199 24.466C83.5245 25.0962 83.0694 25.6381 82.4998 26.0379C82.2051 26.1742 82.041 26.3279 82.0727 26.6698C82.0586 26.7913 82.0219 26.9091 81.9644 27.017" stroke="#F93C00" stroke-width="0.461182" stroke-linecap="round" stroke-linejoin="round"/>
<path d="M46.1675 11.5537C46.1766 11.6541 46.2092 11.7509 46.2626 11.8363C46.3161 11.9217 46.3889 11.9933 46.4752 12.0454C46.5614 12.0974 46.6588 12.1285 46.7593 12.1359C46.8597 12.1434 46.9606 12.1271 47.0536 12.0884C47.4672 12.0239 47.8901 12.1112 48.2445 12.334C48.5274 12.711 48.7266 12.4784 48.9518 12.2886C49.403 12.0987 49.8997 12.0445 50.3812 12.1328" stroke="#F93C00" stroke-width="0.461182" stroke-linecap="round" stroke-linejoin="round"/>
<path d="M33.9513 11.6311C33.9532 11.6181 31.9978 10.1057 32.057 10.1622" stroke="#F93C00" stroke-width="0.461182" stroke-linecap="round" stroke-linejoin="round"/>
<path d="M34.493 30.4578C34.5788 30.6578 34.6026 30.879 34.5613 31.0927C34.52 31.3064 34.4154 31.5027 34.2611 31.6563C33.9775 31.9395 33.694 32.2229 33.4104 32.5063C33.3986 32.5147 33.3857 32.5213 33.3721 32.5259L33.3915 32.5453" stroke="#F93C00" stroke-width="0.461182" stroke-linecap="round" stroke-linejoin="round"/>
<path d="M55.0597 21.4885C55.5479 21.8611 50.5552 19.983 50.9297 19.801C50.8124 19.8483 50.7095 19.9252 50.6309 20.0242C50.5524 20.1233 50.5009 20.241 50.4815 20.3659C50.3283 20.6814 50.1142 20.9636 49.8517 21.1963C49.5892 21.4289 49.2833 21.6074 48.9517 21.7216" stroke="#F93C00" stroke-width="0.461182" stroke-linecap="round" stroke-linejoin="round"/>
<path d="M11.8009 24.311C12.118 24.9454 12.115 26.6258 11.5308 27.2103" stroke="#F93C00" stroke-width="0.461182" stroke-linecap="round" stroke-linejoin="round"/>
<path d="M97.0796 8.07446C97.5793 8.82785 98.2393 9.46147 99.0124 9.92996" stroke="#F93C00" stroke-width="0.461182" stroke-linecap="round" stroke-linejoin="round"/>
<path d="M33.9902 11.708C34.6779 12.2238 35.423 12.5711 36.0778 13.1384" stroke="#F93C00" stroke-width="0.461182" stroke-linecap="round" stroke-linejoin="round"/>
<path d="M32.0381 11.592C32.21 12.3512 33.5291 12.0145 33.8744 11.6694" stroke="#F93C00" stroke-width="0.461182" stroke-linecap="round" stroke-linejoin="round"/>
<path d="M36.0391 30.9983C36.2805 31.2262 36.88 32.1644 37.1197 32.2754C37.1661 32.2973 37.2337 32.3533 37.231 32.3884C37.3734 32.9233 37.7359 33.0379 38.3185 32.7322C38.3742 32.7253 38.4231 32.6605 38.4737 32.6207C38.8588 32.3169 39.0078 32.354 39.2471 32.8142" stroke="#F93C00" stroke-width="0.461182" stroke-linecap="round" stroke-linejoin="round"/>
<path d="M93.7935 10.8774C94.2165 10.8488 94.6408 10.9078 95.0399 11.0508C95.4391 11.1938 95.8043 11.4177 96.1129 11.7085" stroke="#F93C00" stroke-width="0.461182" stroke-linecap="round" stroke-linejoin="round"/>
<path d="M79.2198 23.1897C78.6468 23.2483 78.3383 23.4931 78.2944 23.924C78.3133 24.5115 78.7119 25.1312 78.7119 25.6639C78.7105 26.6873 79.4979 27.1077 80.1961 27.5822C80.2632 27.6276 80.5377 27.5063 80.5996 27.397C80.882 26.897 80.8766 26.8874 81.4236 26.9761C81.6014 27.0048 81.7839 27.0043 81.9639 27.0171" stroke="#F93C00" stroke-width="0.461182" stroke-linecap="round" stroke-linejoin="round"/>
<path d="M46.1674 11.8633C45.7077 12.2317 45.0622 12.2808 44.6567 12.7496C44.3188 13.1414 43.2568 13.5306 43.3384 14.1834C43.3381 14.2272 43.3279 14.2703 43.3084 14.3094C43.289 14.3486 43.2608 14.3828 43.2262 14.4094C42.7411 14.7193 42.5711 15.2081 42.4614 15.73C42.4496 15.7865 42.5156 15.8557 42.5323 15.9225C42.6126 16.2438 42.6883 16.5665 42.7654 16.8887" stroke="#F93C00" stroke-width="0.461182" stroke-linecap="round" stroke-linejoin="round"/>
<path d="M26.8773 41.6297C26.2917 41.7314 25.6889 41.6213 25.177 41.3192C25.109 41.288 25.0297 41.1964 24.9859 41.2119C24.6247 41.345 24.3155 41.1073 23.979 41.0891" stroke="#F93C00" stroke-width="0.461182" stroke-linecap="round" stroke-linejoin="round"/>
<path d="M76.359 24.968C76.2659 25.2369 76.0864 25.4674 75.8486 25.6236C75.6108 25.7798 75.328 25.8529 75.0443 25.8315C74.9439 25.8283 74.8385 25.9988 74.7354 26.0892" stroke="#F93C00" stroke-width="0.461182" stroke-linecap="round" stroke-linejoin="round"/>
<path d="M42.2438 19.2471C41.9798 19.7041 41.3105 20.0288 40.8368 19.8552C40.363 19.6816 40.0631 19.9043 39.7505 20.1744" stroke="#F93C00" stroke-width="0.461182" stroke-linecap="round" stroke-linejoin="round"/>
<path d="M58.5378 30.96C58.6972 31.145 58.8153 31.3619 58.8841 31.5962C58.953 31.8305 58.9711 32.0768 58.9371 32.3186C58.4305 33.4385 59.0526 32.8668 57.9641 33.943C57.5225 34.1223 57.0464 34.201 56.5705 34.1731C56.0947 34.1452 55.631 34.0116 55.2134 33.7819" stroke="#F93C00" stroke-width="0.461182" stroke-linecap="round" stroke-linejoin="round"/>
<path d="M53.0102 13.1386C52.1997 13.1963 50.6137 11.5982 50.3428 12.0563" stroke="#F93C00" stroke-width="0.461182" stroke-linecap="round" stroke-linejoin="round"/>
<path d="M61.9399 9.42798C62.3613 9.52679 62.7405 9.75632 63.0235 10.0837C63.2256 10.2557 63.9759 10.8839 64.182 11.0516" stroke="#F93C00" stroke-width="0.461182" stroke-linecap="round" stroke-linejoin="round"/>
<path d="M101.448 14.8394C101.585 14.873 101.707 14.9527 101.794 15.0651C101.88 15.1776 101.925 15.3161 101.922 15.4578C101.922 15.5737 102.034 15.694 102.106 15.8048C102.309 16.1165 102.511 16.4286 102.727 16.731C102.808 16.8175 102.897 16.8963 102.993 16.9662C103.099 17.0659 103.239 17.1551 103.292 17.2794C103.322 17.4176 103.325 17.5602 103.303 17.6998C103.174 17.6868 102.989 17.7244 102.926 17.6532C102.471 17.145 102.051 17.3786 101.596 17.651C101.438 17.7455 101.452 17.8438 101.449 17.9702" stroke="#F93C00" stroke-width="0.461182" stroke-linecap="round" stroke-linejoin="round"/>
<path d="M84.9023 11.8633C84.9281 11.9276 84.9809 11.9944 84.976 12.0561C84.9149 12.7462 85.2892 13.2539 85.676 13.7573" stroke="#F93C00" stroke-width="0.461182" stroke-linecap="round" stroke-linejoin="round"/>
<path d="M78.7559 6.95361C79.0395 7.1857 79.331 7.40871 79.6005 7.65578C79.6602 7.74502 79.6884 7.85174 79.6803 7.95885C79.6958 8.29728 79.6312 8.64234 79.796 8.96579C79.8181 9.02738 79.8181 9.09478 79.796 9.15637C79.6589 9.59575 79.515 10.0334 79.3733 10.4716" stroke="#F93C00" stroke-width="0.461182" stroke-linecap="round" stroke-linejoin="round"/>
<path d="M85.0186 11.6697C84.6706 12.0177 84.3388 12.3841 83.966 12.7029C83.8432 12.8083 83.615 12.7965 83.4332 12.8257C83.3434 12.834 83.2531 12.8349 83.1631 12.8284" stroke="#F93C00" stroke-width="0.461182" stroke-linecap="round" stroke-linejoin="round"/>
<path d="M7.27779 27.7898C7.91847 28.1279 8.15999 28.6012 8.00232 29.2098C7.49103 29.5954 7.00382 30.0119 6.54346 30.457" stroke="#F93C00" stroke-width="0.461182" stroke-linecap="round" stroke-linejoin="round"/>
<path d="M54.0151 6.33496C54.2504 6.45921 54.5091 6.53284 54.7745 6.55112C55.0399 6.56939 55.3062 6.5319 55.5563 6.44106C56.241 6.41274 56.564 6.75051 56.5254 7.45439C56.4141 7.66697 56.2682 7.85955 56.0936 8.02419C55.9076 8.48726 55.7968 8.9771 55.7655 9.47517C55.6614 9.60141 55.6776 9.82713 55.6388 10.0076" stroke="#F93C00" stroke-width="0.461182" stroke-linecap="round" stroke-linejoin="round"/>
<path d="M18.8752 17.3521C18.9095 17.4277 18.9277 17.5097 18.9286 17.5928C18.9294 17.6759 18.9129 17.7583 18.8802 17.8346C18.8474 17.911 18.7991 17.9797 18.7384 18.0364C18.6776 18.093 18.6057 18.1364 18.5272 18.1638C18.1131 18.2826 18.0055 18.4528 18.0633 18.8983" stroke="#F93C00" stroke-width="0.461182" stroke-linecap="round" stroke-linejoin="round"/>
<path d="M17.4068 32.1587C16.9736 32.3476 16.5508 32.5594 16.1403 32.7935C16.0127 32.8731 16.0014 33.1375 15.937 33.3191" stroke="#F93C00" stroke-width="0.922363" stroke-linecap="round" stroke-linejoin="round"/>
<path d="M65.9216 16.5018C65.9101 16.4912 65.511 15.0618 65.3418 14.7234" stroke="#F93C00" stroke-width="0.461182" stroke-linecap="round" stroke-linejoin="round"/>
<path d="M76.3213 9.81421C76.3459 9.82674 75.9016 11.5743 75.0449 11.1295" stroke="#F93C00" stroke-width="0.461182" stroke-linecap="round" stroke-linejoin="round"/>
<path d="M28.3463 22.3778C28.1036 22.1183 27.8431 21.8759 27.5668 21.6524C27.2966 21.4605 26.9931 21.5502 26.7227 21.7206" stroke="#F93C00" stroke-width="0.461182" stroke-linecap="round" stroke-linejoin="round"/>
<path d="M40.5996 46.6159C40.4835 46.4516 40.3236 46.323 40.1382 46.2449C39.9527 46.1668 39.7491 46.1421 39.5504 46.1738C39.2452 46.2229 38.9347 46.2289 38.6279 46.1918" stroke="#F93C00" stroke-width="0.461182" stroke-linecap="round" stroke-linejoin="round"/>
<path d="M104.154 15.4971C104.083 15.4439 103.997 15.4121 103.909 15.4057C103.82 15.3993 103.731 15.4185 103.653 15.461C103.224 15.6329 102.801 15.8193 102.375 15.9999" stroke="#F93C00" stroke-width="0.461182" stroke-linecap="round" stroke-linejoin="round"/>
<path d="M26.9158 23.0935C26.6916 23.2478 26.4311 23.3414 26.1599 23.365C25.8888 23.3887 25.6161 23.3415 25.3685 23.2283C25.3418 23.2182 25.3064 23.1846 25.2926 23.1927C24.8506 23.4493 24.4822 23.0083 24.0529 23.0643C23.8201 23.0947 23.722 22.9225 23.7827 22.6875" stroke="#F93C00" stroke-width="0.461182" stroke-linecap="round" stroke-linejoin="round"/>
<path d="M48.4858 24.9292C48.2667 25.2126 48.0683 25.5145 47.8227 25.7748C47.2776 26.1574 46.8294 26.662 46.5137 27.2484" stroke="#F93C00" stroke-width="0.461182" stroke-linecap="round" stroke-linejoin="round"/>
<path d="M46.3223 27.2488C46.4814 27.222 46.645 27.2492 46.787 27.3261C46.9289 27.4029 47.0411 27.525 47.1057 27.6729C47.1548 28.1911 47.2501 28.7044 47.3267 29.2202" stroke="#F93C00" stroke-width="0.461182" stroke-linecap="round" stroke-linejoin="round"/>
<path d="M91.8608 18.1643C91.8843 18.3169 91.8806 18.4725 91.8497 18.6238C91.8012 18.7637 91.8001 18.9155 91.8465 19.0561C91.8855 19.2107 91.8866 19.3725 91.8496 19.5277C91.8126 19.6828 91.7387 19.8267 91.6341 19.9471C91.2657 20.3646 91.2804 20.3789 91.6673 20.7156" stroke="#F93C00" stroke-width="0.461182" stroke-linecap="round" stroke-linejoin="round"/>
<path d="M56.4502 43.7551C56.8115 44.1677 57.1693 44.5828 57.5367 44.99C57.6056 45.0425 57.683 45.0827 57.7655 45.109" stroke="#F93C00" stroke-width="0.461182" stroke-linecap="round" stroke-linejoin="round"/>
<path d="M33.526 18.7827C33.1419 19.3122 32.8178 19.8827 32.5596 20.4837" stroke="#F93C00" stroke-width="0.461182" stroke-linecap="round" stroke-linejoin="round"/>
<path d="M36.1936 13.2548C36.0278 13.2096 38.6429 14.528 38.6677 14.5304" stroke="#F93C00" stroke-width="0.461182" stroke-linecap="round" stroke-linejoin="round"/>
<path d="M97.5831 13.6414L96.1904 14.647" stroke="#F93C00" stroke-width="0.461182" stroke-linecap="round" stroke-linejoin="round"/>
<path d="M26.2974 21.1792C26.5635 21.8051 26.7205 22.472 26.7613 23.1509" stroke="#F93C00" stroke-width="0.461182" stroke-linecap="round" stroke-linejoin="round"/>
<path d="M60.2388 9.17676C60.4923 9.44363 60.813 9.63727 61.1672 9.73732C61.2193 9.72626 61.2704 9.71274 61.322 9.69898" stroke="#F93C00" stroke-width="0.461182" stroke-linecap="round" stroke-linejoin="round"/>
<path d="M105.237 15.5749C105.182 15.3448 105.168 15.1229 104.893 14.985C104.401 14.7368 104.176 14.8337 104.133 15.3822" stroke="#F93C00" stroke-width="0.461182" stroke-linecap="round" stroke-linejoin="round"/>
<path d="M64.0273 19.2463C63.736 19.0601 63.5628 19.0786 63.458 19.3662C63.0661 19.6643 62.7455 20.0459 62.5195 20.4834" stroke="#F93C00" stroke-width="0.461182" stroke-linecap="round" stroke-linejoin="round"/>
<path d="M79.645 10.7031C79.7097 11.0253 79.764 11.3502 79.8431 11.6689C80.1335 11.8366 80.4439 11.967 80.7669 12.057" stroke="#F93C00" stroke-width="0.461182" stroke-linecap="round" stroke-linejoin="round"/>
<path d="M45.4717 48.2012C45.5386 48.5752 45.7404 48.9117 46.0388 49.147C46.4177 49.4147 46.695 49.8256 47.019 50.1716C47.0667 50.2149 47.1181 50.2541 47.1725 50.2887" stroke="#F93C00" stroke-width="0.461182" stroke-linecap="round" stroke-linejoin="round"/>
<path d="M103.807 13.3328C103.372 13.0062 102.994 13.2706 102.607 13.4488" stroke="#F93C00" stroke-width="0.461182" stroke-linecap="round" stroke-linejoin="round"/>
<path d="M12.2646 33.1636V34.3628" stroke="#F93C00" stroke-width="0.461182" stroke-linecap="round" stroke-linejoin="round"/>
<path d="M31.1101 19.4402C31.0973 19.563 29.3155 20.1524 29.3511 20.136" stroke="#F93C00" stroke-width="0.461182" stroke-linecap="round" stroke-linejoin="round"/>
<path d="M28.4233 9.23424C28.9182 9.14276 29.4215 9.10564 29.9244 9.12349C30.6918 9.26393 31.4117 9.5944 32.0184 10.0847" stroke="#F93C00" stroke-width="0.461182" stroke-linecap="round" stroke-linejoin="round"/>
<path d="M82.1187 21.6819C82.1193 22.0298 82.0167 22.3702 81.824 22.6599C81.6876 22.8896 81.6219 23.1544 81.6349 23.4212C81.6332 23.5288 81.8471 23.6398 81.9633 23.7496" stroke="#F93C00" stroke-width="0.461182" stroke-linecap="round" stroke-linejoin="round"/>
<path d="M76.2817 24.8332C76.683 24.7942 77.0842 24.7568 77.4852 24.7209C77.7369 24.7765 77.9954 24.7948 78.2524 24.7752" stroke="#F93C00" stroke-width="0.461182" stroke-linecap="round" stroke-linejoin="round"/>
<path d="M10.293 26.2051C10.5648 26.4439 10.7881 26.7328 10.9506 27.0561" stroke="#F93C00" stroke-width="0.461182" stroke-linecap="round" stroke-linejoin="round"/>
<path d="M83.2787 21.45C83.3489 21.7872 83.3644 22.1118 83.0874 22.3795C83.0517 22.4251 83.025 22.477 83.0088 22.5326C83.0379 23.0431 83.2568 23.2492 83.6655 23.151" stroke="#F93C00" stroke-width="0.461182" stroke-linecap="round" stroke-linejoin="round"/>
<path d="M54.8652 5.36865L55.6 6.37428" stroke="#F93C00" stroke-width="0.461182" stroke-linecap="round" stroke-linejoin="round"/>
<path d="M66.3859 33.9753C66.3156 34.1299 66.214 34.2682 66.0875 34.3814C65.961 34.4946 65.8123 34.5803 65.6509 34.633" stroke="#F93C00" stroke-width="0.461182" stroke-linecap="round" stroke-linejoin="round"/>
<path d="M82.0034 23.8083C82.055 23.9501 82.1753 24.1078 82.1466 24.2308C81.9965 24.8777 82.2404 25.4406 82.4674 26.0119" stroke="#F93C00" stroke-width="0.461182" stroke-linecap="round" stroke-linejoin="round"/>
<path d="M16.1697 33.3569C15.956 33.3194 15.7361 33.3391 15.5324 33.4138C15.3286 33.4884 15.1482 33.6156 15.0093 33.7823" stroke="#F93C00" stroke-width="0.922363" stroke-linecap="round" stroke-linejoin="round"/>
<path d="M84.2851 21.7979L83.3955 21.9527" stroke="#F93C00" stroke-width="0.461182" stroke-linecap="round" stroke-linejoin="round"/>
<path d="M83.2794 26.7849C82.9053 27.0511 82.5146 27.2418 82.0415 27.0553" stroke="#F93C00" stroke-width="0.461182" stroke-linecap="round" stroke-linejoin="round"/>
<path d="M35.3425 29.3743C35.0557 29.8098 34.6548 30.1583 34.1836 30.3818" stroke="#F93C00" stroke-width="0.461182" stroke-linecap="round" stroke-linejoin="round"/>
<path d="M88.2275 21.9141L87.3765 22.1844" stroke="#F93C00" stroke-width="0.461182" stroke-linecap="round" stroke-linejoin="round"/>
<path d="M69.4395 21.0249C69.64 21.3567 70.0047 21.237 70.2905 21.3343" stroke="#F93C00" stroke-width="0.461182" stroke-linecap="round" stroke-linejoin="round"/>
<path d="M85.4825 10.7424C85.601 11.1219 85.3697 11.3583 85.1343 11.5935" stroke="#F93C00" stroke-width="0.461182" stroke-linecap="round" stroke-linejoin="round"/>
<path d="M54.2856 4.2085C54.4471 4.36158 54.6458 4.46974 54.8621 4.52215C55.3194 4.88219 55.6234 4.81834 55.8901 4.28563" stroke="#F93C00" stroke-width="0.461182" stroke-linecap="round" stroke-linejoin="round"/>
<path d="M48.2163 21.2568C48.5097 21.3869 48.7443 21.6215 48.8744 21.9149" stroke="#F93C00" stroke-width="0.461182" stroke-linecap="round" stroke-linejoin="round"/>
<path d="M13.8503 32.6219C13.607 32.6811 13.3096 32.484 13.1152 32.7767" stroke="#F93C00" stroke-width="0.461182" stroke-linecap="round" stroke-linejoin="round"/>
<path d="M34.0481 18.1255C34.1808 18.3376 34.0914 19.5128 33.5259 18.9765" stroke="#F93C00" stroke-width="0.461182" stroke-linecap="round" stroke-linejoin="round"/>
<path d="M87.7245 24.002C87.5768 24.0516 87.4357 24.1189 87.3042 24.2024C87.2087 24.304 87.1286 24.4191 87.0664 24.544" stroke="#F93C00" stroke-width="0.461182" stroke-linecap="round" stroke-linejoin="round"/>
<path d="M68.4737 25.0452C68.4351 25.1354 68.3985 25.2268 68.3572 25.3156C68.1586 25.7456 67.8271 25.7975 67.5487 25.4291C67.4214 25.243 67.304 25.0502 67.1973 24.8516" stroke="#F93C00" stroke-width="0.461182" stroke-linecap="round" stroke-linejoin="round"/>
<path d="M90.7783 17.6618C91.1818 17.578 91.5512 17.6097 91.8228 17.9712" stroke="#F93C00" stroke-width="0.461182" stroke-linecap="round" stroke-linejoin="round"/>
<path d="M66.2305 16.9275C66.5197 17.0721 66.3687 17.3721 66.4628 17.5855" stroke="#F93C00" stroke-width="0.461182" stroke-linecap="round" stroke-linejoin="round"/>
<path d="M50.0719 44.7996C50.0269 45.1477 49.9817 45.4959 49.9365 45.844" stroke="#F93C00" stroke-width="0.461182" stroke-linecap="round" stroke-linejoin="round"/>
<path d="M100.752 3.74512C100.739 3.90018 100.726 4.05533 100.713 4.21056" stroke="#F93C00" stroke-width="0.461182" stroke-linecap="round" stroke-linejoin="round"/>
<path d="M61.824 9.35034C61.7613 9.37039 61.6965 9.38255 61.6308 9.38649C61.2941 9.36486 61.3374 9.55998 61.3971 9.77624C61.4317 9.90255 61.4504 10.0335 61.476 10.1626" stroke="#F93C00" stroke-width="0.461182" stroke-linecap="round" stroke-linejoin="round"/>
</svg>
