<svg width="47" height="63" viewBox="0 0 47 63" fill="none" xmlns="http://www.w3.org/2000/svg">
<path d="M29.2939 56.1458C29.2939 56.1458 29.7717 56.3213 30.1391 56.3557C30.5066 56.39 30.9347 55.7758 31.0571 55.7872C31.1796 55.7987 31.4234 54.5129 31.2027 54.2305C30.982 53.9482 31.1409 53.5704 31.153 53.4407C31.1652 53.311 30.9566 52.8989 30.993 52.5097C31.0294 52.1205 30.9312 51.8496 31.0779 51.6016C31.2247 51.3536 31.6528 50.7394 31.6649 50.6097C31.677 50.4799 31.7741 49.4421 31.6637 49.3009C31.5534 49.1598 31.0259 48.1944 31.0502 47.935C31.0744 47.6755 31.0987 47.4161 31.0987 47.4161C31.0987 47.4161 30.8538 47.3931 30.6331 47.1108C30.4124 46.8284 30.3384 46.2981 30.3384 46.2981" stroke="#F93C00" stroke-width="0.325729" stroke-miterlimit="10" stroke-linecap="round"/>
<path d="M26.3962 22.7934C26.0068 22.8617 24.863 22.8071 24.6969 23.3935C24.5138 24.0307 23.3739 23.008 23.3739 23.008C23.3739 23.008 22.7979 22.5616 22.6391 22.9393C22.4802 23.317 22.6402 24.248 23.2162 24.6945C23.7922 25.1409 24.2712 26.6252 24.2712 26.6252C24.2712 26.6252 23.7945 27.7583 23.415 27.8537C23.0354 27.9491 22.7916 29.2349 22.7916 29.2349C22.7916 29.2349 22.0822 30.2154 21.9476 30.3337C21.813 30.452 21.152 30.9136 21.0914 31.5622C21.0307 32.2108 20.7384 34.0155 20.4692 34.2521C20.2 34.4886 19.2953 36.2361 19.271 36.4955C19.2467 36.755 18.9908 38.1705 18.4645 38.5139C17.9382 38.8572 17.7308 39.7539 18.2947 40.33C18.8585 40.9062 19.1532 41.7189 19.0925 42.3675C19.0319 43.0162 19.1312 44.5958 19.7072 45.0422C20.2832 45.4887 20.8095 45.1453 20.2468 45.8779C19.6841 46.6104 19.8684 47.2819 19.7217 47.5299C19.5749 47.7779 18.3126 46.7439 18.0555 46.8507C17.7984 46.9575 17.7632 48.6554 17.3958 48.621C17.0283 48.5867 16.3056 48.3882 16.1092 47.8464C15.9127 47.3046 15.3379 48.1668 15.3379 48.1668C15.3379 48.1668 14.5303 48.8765 14.2853 48.8536C14.0404 48.8307 13.8052 46.0606 13.3274 45.8851C12.8497 45.7095 11.7231 45.8659 11.4781 45.843C11.2332 45.8201 10.7918 45.2554 10.388 45.6102C9.98416 45.965 8.39311 47.1248 8.13603 47.2316C7.87894 47.3384 7.90437 48.3877 8.00258 48.6586C8.10079 48.9295 7.81945 49.2958 7.79518 49.5552C7.77092 49.8147 6.85292 50.3831 6.69405 50.7609C6.53518 51.1386 6.31565 52.1649 5.77721 52.638" stroke="#F93C00" stroke-width="0.521167" stroke-miterlimit="10" stroke-linecap="round"/>
<path d="M26.4114 22.6373C26.2213 22.2923 25.7538 21.3457 25.8218 20.6192C25.9067 19.7112 25.2822 19.7836 25.2203 19.1235C25.1585 18.4634 25.2313 17.6851 24.6189 17.6278C24.0065 17.5706 24.5814 16.7083 24.3728 16.2962C24.1642 15.8841 23.2087 15.533 23.4404 14.377" stroke="#F93C00" stroke-width="0.325729" stroke-miterlimit="10" stroke-linecap="round"/>
<path d="M41.6094 1.74751L41.1449 2.75095C41.1449 2.75095 41.4517 3.43394 41.5499 3.70485C41.6481 3.97575 41.8203 4.77702 41.9428 4.78847C42.0652 4.79992 42.5794 4.58629 42.5794 4.58629C42.5794 4.58629 42.9601 5.79963 43.193 5.95227C43.4258 6.1049 42.7527 6.69626 42.7527 6.69626C42.7527 6.69626 42.1404 6.63899 42.1161 6.89844C42.0918 7.15789 41.0028 8.2338 40.9907 8.36352C40.9786 8.49325 40.9058 9.2716 41.1386 9.42423C41.3714 9.57687 41.4575 9.9775 41.3108 10.2255C41.164 10.4735 40.1854 11.6906 40.0508 11.8088C39.9161 11.9271 39.4141 12.011 39.2674 12.259C39.1206 12.507 38.8393 12.8733 38.8393 12.8733L38.9254 13.2739C38.9254 13.2739 38.7544 13.7814 38.3748 13.8767C37.9952 13.9721 37.2482 14.0331 36.9911 14.1399C36.7341 14.2467 36.1823 13.5408 36.0599 13.5294L35.6312 13.4893C35.4842 13.4756 35.3472 13.6198 35.3694 13.7789C35.4076 14.0311 35.425 14.373 35.3382 14.5088C35.1914 14.7568 34.7876 15.1116 34.7633 15.371C34.7391 15.6305 34.6906 16.1494 34.2989 16.3745C33.9072 16.5996 33.4051 16.6835 33.2584 16.9315C33.1116 17.1795 32.1209 18.5263 32.0481 19.3046C31.9753 20.083 32.1232 21.1437 32.0989 21.4032C32.0746 21.6626 31.6466 22.2769 31.7569 22.4181C31.8672 22.5592 31.4028 23.5627 31.3785 23.8221C31.3542 24.0816 30.903 26.264 30.8788 26.5235C30.8545 26.7829 30.7939 27.4315 30.7939 27.4315C30.7939 27.4315 30.39 27.7864 30.5004 27.9275C30.6107 28.0687 30.5015 29.2363 30.7222 29.5186C30.9429 29.801 29.7921 30.2168 29.7921 30.2168C29.7921 30.2168 29.3143 30.0412 29.1797 30.1595C29.0451 30.2778 28.6291 30.7623 28.7274 31.0332C28.8256 31.3041 28.0664 31.4949 28.0422 31.7543C28.0179 32.0138 28.3247 32.6968 28.3004 32.9562C28.2762 33.2157 27.7256 33.8185 27.8117 34.2191C27.8978 34.6197 28.2409 34.9136 28.2045 35.3027C28.1681 35.6919 27.4708 36.5427 27.6794 36.9548C27.888 37.3669 28.6349 37.3059 28.9042 37.0693C29.1734 36.8328 29.7372 37.409 29.6887 37.9279C29.6402 38.4468 29.8984 39.6487 30.1191 39.931C30.3398 40.2134 30.7812 40.7781 30.2913 40.7323C29.8014 40.6865 29.1029 40.2286 29.0665 40.6178C29.0301 41.0069 29.2762 42.3385 29.3623 42.7392C29.4484 43.1398 29.572 44.46 29.572 44.46C29.572 44.46 29.9031 44.8835 30.0013 45.1544C30.0995 45.4253 30.2595 46.3563 30.382 46.3678C30.5045 46.3792 30.7604 44.9637 31.1278 44.9981C31.4953 45.0324 32.0216 44.6891 32.1441 44.7005C32.2665 44.712 32.7079 45.2767 32.6837 45.5361C32.6594 45.7956 33.0765 46.6197 33.0765 46.6197C33.0765 46.6197 33.2123 47.8102 33.5554 48.104C33.8986 48.3978 34.2793 49.6112 34.3776 49.8821C34.4758 50.153 34.5012 51.2022 34.7219 51.4846C34.9426 51.7669 35.7271 52.6255 35.6907 53.0147" stroke="#F93C00" stroke-width="0.651459" stroke-miterlimit="10" stroke-linecap="round"/>
<path d="M31.5668 23.264C31.5668 23.264 30.6384 24.6035 29.9036 24.5348C29.8546 24.5302 29.8056 24.5257 29.7566 24.5211C29.5117 24.4982 29.3019 24.0991 29.0826 24.0655C28.6552 24.0124 28.5563 24.4088 28.201 24.2447C28.0589 24.1791 26.9421 22.91 26.5709 22.7837" stroke="#F93C00" stroke-width="0.651459" stroke-miterlimit="10" stroke-linecap="round"/>
<path d="M10.7893 28.112C10.7893 28.112 11.3896 28.2989 11.9159 27.9556C12.4422 27.6122 12.4665 27.3528 12.5028 26.9636C12.5392 26.5744 11.9511 26.2577 11.7304 25.9753C11.5097 25.693 11.7911 25.3267 11.46 24.9032C11.129 24.4796 11.642 22.9573 11.7027 22.3087C11.7633 21.66 11.1013 20.813 10.7824 20.2597C10.4635 19.7064 11.4797 19.4089 11.8714 19.1838C12.2631 18.9587 12.4716 19.3708 12.9979 19.0274C13.5242 18.6841 15.0061 18.6918 15.2268 18.9741C15.4475 19.2565 15.9859 18.7834 16.819 19.123C17.6521 19.4627 18.0316 19.3673 18.6925 18.9057C19.3534 18.444 20.3587 19.5849 20.8243 19.8902C21.29 20.1955 21.119 20.7029 21.2172 20.9738C21.3154 21.2447 21.8296 21.0311 22.1849 21.1952C22.5402 21.3593 23.7285 21.863 24.3409 21.9202C24.8676 21.9695 26.2765 22.6247 26.6073 22.7865" stroke="#F93C00" stroke-width="0.651459" stroke-miterlimit="10" stroke-linecap="round"/>
<path d="M0.479126 16.8101C0.479126 16.8101 0.785899 17.493 0.5785 18.3897C0.371101 19.2863 0.567529 19.8281 1.04531 20.0037C1.52308 20.1792 1.10712 20.6637 2.05055 21.1445C2.99397 21.6253 3.26203 20.0801 3.86228 20.2671C4.46253 20.4541 5.73583 20.0497 6.12753 19.8246C6.51922 19.5995 7.09521 20.046 7.42625 20.4695C7.75728 20.8931 8.19867 21.4578 8.72497 21.1144C9.25127 20.7711 9.2634 20.6413 9.60657 20.9351C9.94974 21.229 10.9644 20.5518 10.9644 20.5518" stroke="#F93C00" stroke-width="0.325729" stroke-miterlimit="10" stroke-linecap="round"/>
<path d="M16.4856 30.6075C16.4856 30.6075 17.5758 30.8403 17.7468 30.3329C17.9178 29.8254 18.2113 29.3294 18.4684 29.2226C18.7255 29.1158 18.6382 27.4065 18.6382 27.4065C18.6382 27.4065 18.9681 26.5213 18.8941 25.9909C18.8202 25.4606 18.7826 24.541 18.9051 24.5525C19.0276 24.5639 18.4395 24.2472 18.3412 23.9763C18.243 23.7054 19.1853 22.8775 19.1974 22.7478C19.2096 22.6181 18.7439 22.3128 19.0131 22.0763C19.2823 21.8397 19.6862 21.4849 19.6001 21.0843C19.514 20.6836 18.4288 19.0772 18.4288 19.0772" stroke="#F93C00" stroke-width="0.325729" stroke-miterlimit="10" stroke-linecap="round"/>
<path d="M15.9933 27.9447C15.9933 27.9447 16.3474 26.8001 16.6045 26.6932C16.8616 26.5864 17.1793 25.831 16.9708 25.4189C16.7622 25.0068 16.8592 23.969 17.0799 24.2514C17.3006 24.5337 18.3411 23.9767 18.3411 23.9767" stroke="#F93C00" stroke-width="0.325729" stroke-miterlimit="10" stroke-linecap="round"/>
<path d="M19.7506 52.5049C19.7506 52.5049 18.7355 54.1111 18.111 54.1836C17.4865 54.2561 16.691 54.836 16.4703 54.5536C16.2496 54.2712 15.8446 53.3173 15.6239 53.035C15.4032 52.7526 15.4021 51.4439 15.1935 51.0318C14.985 50.6197 14.3781 49.8433 14.3781 49.8433" stroke="#F93C00" stroke-width="0.325729" stroke-miterlimit="10" stroke-linecap="round"/>
<path d="M24.0182 58.4004C24.0182 58.4004 24.3117 57.9044 24.1638 56.8437C24.0159 55.783 24.8236 55.0733 24.3579 54.7681C23.8923 54.4628 23.6583 53.0015 23.6826 52.742C23.7068 52.4826 23.7796 51.7042 23.4243 51.5401C23.069 51.376 22.9465 51.3646 22.8605 50.9639C22.7744 50.5633 22.835 49.9147 22.3694 49.6094C21.9037 49.3042 21.5606 49.0103 21.6212 48.3617C21.6819 47.7131 21.2538 48.3273 21.1313 48.3159C21.0088 48.3044 20.5906 46.1716 20.5906 46.1716L20.3893 45.6816" stroke="#F93C00" stroke-width="0.325729" stroke-miterlimit="10" stroke-linecap="round"/>
<path d="M27.2466 54.2528C27.2466 54.2528 26.2547 54.2909 26.8417 53.2989C27.4286 52.3069 28.383 51.3493 28.383 51.3493C28.383 51.3493 28.9336 50.7464 28.9821 50.2275C29.0306 49.7086 29.7765 48.3389 29.7765 48.3389L30.4744 46.8208" stroke="#F93C00" stroke-width="0.325729" stroke-miterlimit="10" stroke-linecap="round"/>
<path d="M27.0692 46.9084C27.0692 46.9084 27.5955 46.5651 27.6441 46.0462C27.6926 45.5273 27.7168 45.2678 28.0843 45.3022C28.4517 45.3365 27.7532 44.8786 28.3899 44.6764C29.0265 44.4743 29.5504 44.1569 29.5504 44.1569" stroke="#F93C00" stroke-width="0.325729" stroke-miterlimit="10" stroke-linecap="round"/>
<path d="M32.1104 41.8832C32.1104 41.8832 31.5356 42.7455 31.07 42.4402C30.6043 42.1349 30.58 42.3944 30.58 42.3944C30.58 42.3944 30.7014 41.0971 30.4928 40.6851" stroke="#F93C00" stroke-width="0.325729" stroke-miterlimit="10" stroke-linecap="round"/>
<path d="M25.9384 28.613C25.9384 28.613 26.1579 27.5866 26.5981 26.8427C27.0384 26.0987 27.2215 25.4615 27.846 25.389C28.4705 25.3166 28.7022 24.1605 28.7022 24.1605" stroke="#F93C00" stroke-width="0.325729" stroke-miterlimit="10" stroke-linecap="round"/>
<path d="M21.0483 20.134C21.0483 20.134 21.252 19.2763 21.1781 18.746C21.1041 18.2156 21.2751 17.7081 21.2751 17.7081C21.2751 17.7081 20.271 17.876 20.1728 17.6051C20.0746 17.3342 20.4784 16.9793 20.0492 16.2849C19.6199 15.5905 20.624 15.4226 20.2687 15.2585C19.9134 15.0945 19.6563 15.2013 19.6563 15.2013C19.6563 15.2013 19.7534 14.1635 19.2514 14.2474C18.7493 14.3313 18.2715 14.1558 18.2715 14.1558" stroke="#F93C00" stroke-width="0.325729" stroke-miterlimit="10" stroke-linecap="round"/>
<path d="M3.13946 33.2854C3.13946 33.2854 3.23652 32.2476 3.65247 31.763C4.06843 31.2785 4.36191 30.7825 4.15335 30.3704C3.9448 29.9583 3.24633 29.5004 3.89511 29.1685C4.54389 28.8366 4.95985 28.3521 4.95985 28.3521C4.95985 28.3521 4.81195 27.2914 5.06903 27.1845C5.32612 27.0777 5.59534 26.8412 5.00721 26.5245C4.41909 26.2077 3.81884 26.0207 3.85523 25.6316C3.89163 25.2424 4.16084 25.0058 3.94015 24.7235C3.71946 24.4411 3.43695 23.4987 3.14231 22.686C2.34563 21.9572 2.37561 21.2402 2.37561 21.2402" stroke="#F93C00" stroke-width="0.325729" stroke-miterlimit="10" stroke-linecap="round"/>
<path d="M10.0073 44.3969C10.0073 44.3969 10.3614 43.2523 10.8756 43.0387C11.3898 42.825 11.6954 42.1993 11.6954 42.1993L13.0415 41.0166C13.0415 41.0166 13.6902 40.6847 14.0698 40.5893C14.4494 40.4939 15.0727 39.1128 14.9745 38.8419C14.8763 38.571 14.7405 37.3805 15.4633 37.579C16.186 37.7774 16.3449 37.3997 16.6383 36.9037C16.9318 36.4077 17.7528 36.8771 17.5818 37.3845C17.4108 37.892 17.3501 38.5406 17.6933 38.8344C18.0364 39.1282 17.914 39.1168 17.914 39.1168" stroke="#F93C00" stroke-width="0.325729" stroke-miterlimit="10" stroke-linecap="round"/>
<path d="M8.68495 58.5367C8.68495 58.5367 8.27996 57.5828 8.4631 56.9456C8.64623 56.3084 8.14303 55.0836 8.06908 54.5532C7.99513 54.0229 8.1904 53.256 7.61441 52.8095C7.03842 52.3631 9.08181 50.3296 9.08181 50.3296C9.08181 50.3296 9.99865 48.4524 10.3418 48.7462C10.685 49.04 11.0634 47.636 11.2841 47.9183C11.5048 48.2007 10.6729 49.1698 10.8814 49.5818C11.09 49.9939 11.4828 51.0775 11.752 50.841C12.0213 50.6045 12.7186 49.7537 12.7186 49.7537C12.7186 49.7537 12.4118 49.0707 12.7914 48.9753C13.1709 48.8799 14.2854 48.8533 14.2854 48.8533C14.2854 48.8533 14.5812 50.9747 14.1773 51.3295C13.7735 51.6843 14.2028 52.3788 14.3507 53.4395C14.4986 54.5002 13.714 53.6417 14.0341 55.5037C14.3541 57.3656 13.0433 56.8505 13.4483 57.8044C13.8533 58.7583 13.7938 60.7156 13.145 61.0475C12.4962 61.3794 12.0438 62.2531 12.0438 62.2531" stroke="#F93C00" stroke-width="0.325729" stroke-miterlimit="10" stroke-linecap="round"/>
<path d="M9.45214 60.244C9.45214 60.244 11.0068 59.4734 11.1535 59.2254C11.3003 58.9774 11.7659 59.2826 11.7902 59.0232C11.8144 58.7637 11.2506 58.1876 11.6665 57.703C12.0825 57.2185 12.4366 56.0739 12.4366 56.0739C12.4366 56.0739 12.889 55.2001 13.2928 54.8453C13.6966 54.4905 14.1357 52.4378 14.1357 52.4378" stroke="#F93C00" stroke-width="0.325729" stroke-miterlimit="10" stroke-linecap="round"/>
<path d="M40.9342 8.2926C40.9342 8.2926 40.4807 7.8576 40.1861 7.04489C39.8914 6.23217 39.2802 7.48361 39.2802 7.48361C39.2802 7.48361 38.1051 8.15888 37.9705 8.27716C37.8359 8.39543 36.9301 8.83415 36.9301 8.83415C36.9301 8.83415 36.1467 9.28433 35.9017 9.26143C35.6568 9.23852 35.4858 9.74597 34.9958 9.70015C34.5059 9.65434 34.4199 9.25371 34.4199 9.25371" stroke="#F93C00" stroke-width="0.325729" stroke-miterlimit="10" stroke-linecap="round"/>
<path d="M37.1042 10.944C37.1042 10.944 36.5282 10.4975 36.43 10.2266C36.3318 9.9557 36.5404 9.04611 36.5404 9.04611" stroke="#F93C00" stroke-width="0.325729" stroke-miterlimit="10" stroke-linecap="round"/>
<path d="M31.0253 5.92627C31.0253 5.92627 32.4211 5.53336 32.5932 6.33462C32.7654 7.13589 32.9133 8.1966 32.2645 8.52851C31.6157 8.86042 32.216 9.04741 32.1796 9.43659C32.1432 9.82576 31.2252 10.3942 31.1888 10.7834C31.1524 11.1726 30.8468 11.7983 31.0675 12.0806C31.2882 12.363 31.766 12.5385 32.0352 12.302C32.3044 12.0655 32.8804 12.5119 33.1253 12.5348C33.3703 12.5577 33.9209 11.9549 34.1294 12.367C34.338 12.7791 34.7054 12.8134 34.9625 12.7066C35.2196 12.5998 35.3178 12.8707 35.5628 12.8936C35.8077 12.9165 35.8756 13.5117 35.8756 13.5117" stroke="#F93C00" stroke-width="0.325729" stroke-miterlimit="10" stroke-linecap="round"/>
<path d="M42.1058 16.908C42.1058 16.908 42.6576 17.6139 43.0735 17.1294C43.4895 16.6449 43.5501 15.9962 43.4398 15.855C43.3295 15.7139 43.4144 14.8058 43.1937 14.5234C42.973 14.2411 42.8141 14.6188 42.7038 14.4776C42.5934 14.3364 42.8869 13.8404 42.6541 13.6878C42.4213 13.5352 41.7967 13.6076 41.9556 13.2299C42.1145 12.8522 42.1994 11.9441 41.9787 11.6617C41.758 11.3794 41.5616 10.8376 41.7083 10.5896C41.8551 10.3416 41.3771 9.9043 41.3771 9.9043" stroke="#F93C00" stroke-width="0.325729" stroke-miterlimit="10" stroke-linecap="round"/>
<path d="M45.9333 10.33C45.9333 10.33 45.5295 10.6848 45.0396 10.639C44.5497 10.5932 44.5011 11.1121 44.158 10.8183C43.8148 10.5245 43.5444 9.45232 43.5444 9.45232C43.5444 9.45232 43.3359 9.04024 43.6051 8.8037C43.8743 8.56715 43.4329 8.00243 43.4329 8.00243L43.359 7.47208C43.359 7.47208 43.0037 7.30799 42.8933 7.16681C42.783 7.02563 42.6969 6.625 42.6969 6.625" stroke="#F93C00" stroke-width="0.325729" stroke-miterlimit="10" stroke-linecap="round"/>
<path d="M46.3482 8.53731C46.3482 8.53731 45.503 8.32741 45.2459 8.43423C44.9888 8.54104 44.83 8.91877 44.4747 8.75468C44.1194 8.59059 43.6883 8.57645 43.6883 8.57645" stroke="#F93C00" stroke-width="0.325729" stroke-miterlimit="10" stroke-linecap="round"/>
<path d="M29.1691 33.0371C29.1691 33.0371 29.2795 33.1783 29.5729 32.6823C29.8664 32.1863 30.0496 31.5491 30.3067 31.4423C30.5637 31.3355 30.2934 30.2633 30.5504 30.1565C30.8075 30.0497 30.7166 29.701 30.7166 29.701" stroke="#F93C00" stroke-width="0.325729" stroke-miterlimit="10" stroke-linecap="round"/>
<path d="M24.0446 33.0161C24.0446 33.0161 25.1105 33.5084 25.5021 33.2833C25.8938 33.0582 25.3311 33.7907 25.7968 34.096C26.2624 34.4013 26.2503 34.531 26.8991 34.1991C27.5479 33.8672 27.7686 34.1495 27.7686 34.1495" stroke="#F93C00" stroke-width="0.325729" stroke-miterlimit="10" stroke-linecap="round"/>
<path d="M25.3027 43.3403C25.3027 43.3403 23.6244 42.7908 23.0981 43.1342C22.5718 43.4775 22.6931 42.1803 23.2194 41.8369C23.7457 41.4936 24.2963 40.8907 24.5898 40.3948C24.8833 39.8988 25.3246 40.4635 25.5332 40.8756C25.7418 41.2876 26.1092 41.322 26.3905 40.9557C26.6719 40.5895 27.0636 40.3644 27.1861 40.3758C27.3085 40.3873 27.6263 39.6318 27.9694 39.9257C28.3126 40.2195 29.1457 40.5591 29.1457 40.5591" stroke="#F93C00" stroke-width="0.521167" stroke-miterlimit="10" stroke-linecap="round"/>
<path d="M21.6521 55.9543C21.6521 55.9543 21.6763 55.6948 22.2027 55.3515C22.729 55.0081 21.9565 54.0198 21.8583 53.7489C21.7601 53.478 21.5394 53.1957 21.8208 52.8294C22.1021 52.4631 21.9918 52.3219 21.7711 52.0396C21.5504 51.7572 21.8439 51.2612 21.611 51.1086C21.3782 50.956 20.9247 50.521 20.7901 50.6392C20.6555 50.7575 20.2759 50.8529 20.1656 50.7117C20.0552 50.5705 20.2262 50.0631 20.2384 49.9333C20.2505 49.8036 19.6624 49.4869 19.7109 48.968C19.7594 48.4491 19.8444 47.541 19.8444 47.541" stroke="#F93C00" stroke-width="0.325729" stroke-miterlimit="10" stroke-linecap="round"/>
<path d="M22.0326 57.1678C22.0326 57.1678 22.5347 57.0839 22.4607 56.5535C22.3868 56.0231 22.6438 55.9163 22.9131 55.6798C23.1823 55.4432 23.9903 55.1262 24.0508 54.3467" stroke="#F93C00" stroke-width="0.325729" stroke-miterlimit="10" stroke-linecap="round"/>
<path d="M25.5276 48.8575C25.5276 48.8575 25.3809 49.1055 25.0013 49.2009C24.6218 49.2963 24.5114 49.1551 24.3525 49.5328C24.1937 49.9105 23.6916 49.9944 23.5813 49.8532C23.4709 49.7121 23.5934 49.7235 23.0914 49.8074C22.5893 49.8913 22.5721 49.8112 22.5721 49.8112" stroke="#F93C00" stroke-width="0.325729" stroke-miterlimit="10" stroke-linecap="round"/>
<path d="M24.2766 46.3856C24.2766 46.3856 24.8271 45.7828 24.6064 45.5004C24.3857 45.2181 24.1165 45.4546 24.0183 45.1837C23.9201 44.9128 23.4059 45.1265 23.2834 45.115C23.161 45.1035 22.1326 45.5308 21.7895 45.237C21.4463 44.9432 20.611 44.8913 20.2513 45.3025" stroke="#F93C00" stroke-width="0.325729" stroke-miterlimit="10" stroke-linecap="round"/>
<path d="M7.4842 58.1627C7.4842 58.1627 6.85968 58.2352 6.52864 57.8117C6.19761 57.3881 5.84231 57.224 5.84231 57.224C5.84231 57.224 5.64588 56.6822 5.93936 56.1862C6.23284 55.6902 5.92607 55.0072 5.82785 54.7363C5.72964 54.4654 6.15773 53.8512 6.68403 53.5078C7.21034 53.1644 7.01391 52.6226 7.61416 52.8096" stroke="#F93C00" stroke-width="0.325729" stroke-miterlimit="10" stroke-linecap="round"/>
<path d="M14.5259 43.6419C14.5259 43.6419 13.6322 43.9509 13.4854 44.1989C13.3387 44.4469 12.8366 44.5308 12.873 44.1416C12.9094 43.7524 12.6269 42.81 13.0307 42.4552C13.4346 42.1004 13.9182 40.6276 13.9182 40.6276" stroke="#F93C00" stroke-width="0.325729" stroke-miterlimit="10" stroke-linecap="round"/>
<path d="M2.46127 41.8588C2.46127 41.8588 2.76804 42.5417 3.13547 42.5761C3.50291 42.6105 3.19729 43.2362 3.56472 43.2705C3.93216 43.3049 4.87442 42.477 4.87442 42.477C4.87442 42.477 4.55551 41.9237 4.94721 41.6987C5.3389 41.4736 5.53417 40.7067 5.66878 40.5884C5.80339 40.4701 5.99865 39.7032 6.47643 39.8788C6.95421 40.0543 7.10095 39.8063 7.49264 39.5812C7.88434 39.3561 8.38638 39.2722 8.53312 39.0242C8.67986 38.7762 8.90055 39.0586 8.87629 39.318C8.85202 39.5775 8.91384 40.2376 9.17093 40.1307C9.42801 40.0239 9.48867 39.3753 9.70936 39.6577C9.93005 39.94 9.89366 40.3292 10.4078 40.1156C10.922 39.9019 11.4604 39.4288 11.7793 39.9821C12.0982 40.5354 12.0861 40.6651 12.0619 40.9245C12.0376 41.184 12.0967 41.6083 12.2879 41.6785" stroke="#F93C00" stroke-width="0.325729" stroke-miterlimit="10" stroke-linecap="round"/>
<path d="M6.05038 43.1107C6.05038 43.1107 5.48768 43.8432 5.96546 44.0188C6.44323 44.1943 6.41897 44.4538 6.51718 44.7247C6.6154 44.9956 6.71361 45.2665 7.19139 45.442C7.66917 45.6176 7.65703 45.7473 7.62064 46.1365C7.58424 46.5256 8.13597 47.2315 8.13597 47.2315" stroke="#F93C00" stroke-width="0.325729" stroke-miterlimit="10" stroke-linecap="round"/>
<path d="M4.50153 50.4247C4.50153 50.4247 3.82733 49.7073 4.23116 49.3525C4.63498 48.9977 4.97699 47.9828 5.19768 48.2651C5.41837 48.5475 5.40624 48.6772 5.68759 48.3109C5.96894 47.9447 6.22602 47.8379 6.48311 47.731C6.7402 47.6242 6.77659 47.235 7.03368 47.1282C7.29076 47.0214 7.82203 46.757 7.82203 46.757" stroke="#F93C00" stroke-width="0.325729" stroke-miterlimit="10" stroke-linecap="round"/>
<path d="M11.4001 54.6031C11.4001 54.6031 11.3625 53.6836 11.2886 53.1533C11.2146 52.6229 11.1407 52.0925 11.2874 51.8445C11.4341 51.5965 11.262 50.7953 11.1395 50.7838C11.017 50.7724 10.8537 50.2729 11.2113 50.2802" stroke="#F93C00" stroke-width="0.325729" stroke-miterlimit="10" stroke-linecap="round"/>
<path d="M21.2018 59.4455C21.2018 59.4455 20.9933 59.0335 20.9315 58.3734C20.8696 57.7133 20.917 55.8857 20.7084 55.4736C20.4999 55.0615 19.5079 55.0996 19.5201 54.9699C19.5322 54.8401 19.6911 54.4624 19.2133 54.2869C18.7355 54.1113 18.111 54.1838 18.111 54.1838C18.111 54.1838 17.5968 54.3974 17.2791 55.1529C16.9613 55.9083 17.1699 56.3204 17.8684 56.7783C18.5668 57.2362 19.0082 57.8009 18.8008 58.6976C18.5934 59.5942 17.9932 59.4072 17.9932 59.4072" stroke="#F93C00" stroke-width="0.325729" stroke-miterlimit="10" stroke-linecap="round"/>
<path d="M33.2595 53.3761C33.2595 53.3761 33.0509 52.964 33.0995 52.4451C33.148 51.9262 33.1601 51.7965 32.817 51.5027C32.4738 51.2089 32.442 51.2844 32.2531 50.9265C32.0445 50.5144 31.6528 50.7395 31.6528 50.7395" stroke="#F93C00" stroke-width="0.325729" stroke-miterlimit="10" stroke-linecap="round"/>
<path d="M31.2564 10.7243C31.2564 10.7243 30.7168 9.88869 30.4354 10.255C30.1541 10.6212 29.9831 11.1287 29.5792 11.4835C29.1754 11.8383 28.9801 12.6052 29.2008 12.8876C29.4215 13.1699 30.1685 13.1089 30.0097 13.4866C29.8508 13.8644 30.2061 14.0285 30.4389 14.1811C30.6717 14.3337 30.3661 14.9594 30.4643 15.2303C30.5625 15.5013 30.0605 15.5852 30.012 16.1041C29.9634 16.623 29.67 17.119 29.3147 16.9549C28.9594 16.7908 28.2488 16.4626 28.2488 16.4626C28.2488 16.4626 27.3793 16.5122 27.5624 15.875" stroke="#F93C00" stroke-width="0.325729" stroke-miterlimit="10" stroke-linecap="round"/>
<path d="M21.9659 16.2675C21.9659 16.2675 22.4425 15.1343 22.7857 15.4281C23.1288 15.7219 23.4639 16.4992 24.0549 15.9917" stroke="#F93C00" stroke-width="0.130292" stroke-miterlimit="10"/>
<path d="M30.7849 18.4009C30.7849 18.4009 30.3446 19.1449 29.8669 18.9693C29.3891 18.7938 29.0846 20.7282 29.3175 20.8809C29.5503 21.0335 30.3215 20.713 30.5422 20.9954C30.7629 21.2778 31.9306 21.8711 31.9306 21.8711" stroke="#F93C00" stroke-width="0.325729" stroke-miterlimit="10" stroke-linecap="round"/>
<path d="M41.3214 16.0495C41.3214 16.0495 41.6513 15.1643 40.9407 14.8362C40.2301 14.508 39.397 14.1684 40.4011 14.0005C41.4052 13.8327 42.0782 13.2414 42.0782 13.2414" stroke="#F93C00" stroke-width="0.325729" stroke-miterlimit="10" stroke-linecap="round"/>
<path d="M38.6344 10.4329C38.6344 10.4329 37.8643 12.0621 37.6315 11.9095C37.3987 11.7568 37.0191 11.8522 36.9948 12.1117C36.9706 12.3711 36.7135 12.4779 36.4928 12.1956C36.25 11.885 35.7244 13.0136 35.7244 13.0136" stroke="#F93C00" stroke-width="0.325729" stroke-miterlimit="10" stroke-linecap="round"/>
<path d="M3.2312 12.4874C3.48829 12.3806 3.84359 12.5447 4.06428 12.827C4.28497 13.1094 4.76275 13.2849 4.86096 13.5558C4.95917 13.8268 5.49877 14.6624 4.71538 15.1126C3.93199 15.5627 3.56456 15.5284 3.74886 16.1999C3.93315 16.8714 4.55767 16.799 4.87657 17.3523C5.19548 17.9055 4.59522 17.7185 4.81592 18.0009C5.03661 18.2832 5.49012 18.7182 5.33125 19.096C5.17238 19.4737 6.15219 19.5653 6.2868 19.447C6.42141 19.3288 6.56267 19.8 6.56267 19.8" stroke="#F93C00" stroke-width="0.325729" stroke-miterlimit="10" stroke-linecap="round"/>
<path d="M8.08946 35.8417C8.08946 35.8417 7.83237 35.9485 8.0288 36.4904C8.22523 37.0322 8.18883 37.4213 8.42166 37.574C8.65448 37.7266 8.49561 38.1043 8.60595 38.2455C8.7163 38.3867 8.54529 38.8941 8.54529 38.8941" stroke="#F93C00" stroke-width="0.325729" stroke-miterlimit="10" stroke-linecap="round"/>
<path d="M12.4079 26.6536C12.4079 26.6536 13.2616 26.7727 13.4326 26.2652C13.6036 25.7578 13.9832 25.6624 14.0208 26.5819C14.0583 27.5015 13.1403 28.0699 13.435 28.8826C13.7296 29.6954 14.0849 29.8595 13.6568 30.4737C13.2287 31.088 14.1103 30.9087 14.4292 31.462C14.7481 32.0152 14.8221 32.5456 15.1531 32.9691C15.4842 33.3927 15.0803 33.7475 15.4235 34.0413C15.7667 34.3351 15.7788 34.2054 16.122 34.4992C16.4651 34.793 16.6483 34.1558 17.0036 34.3199C17.3589 34.484 17.8973 34.0109 17.9094 33.8812C17.9216 33.7515 18.2272 33.1258 18.2272 33.1258" stroke="#F93C00" stroke-width="0.521167" stroke-miterlimit="10" stroke-linecap="round"/>
<path d="M5.50163 31.8055C5.50163 31.8055 5.43 33.8925 6.20126 33.5721C6.97251 33.2516 6.65361 32.6983 7.42487 32.3779C8.19613 32.0574 9.18807 32.0193 9.22447 31.6302C9.26086 31.241 9.26086 31.241 9.6283 31.2753C9.99573 31.3097 10.2771 30.9434 10.2771 30.9434C10.2771 30.9434 11.4036 30.7871 11.6607 30.6803C11.9178 30.5734 12.0767 30.1957 12.4441 30.2301C12.8115 30.2644 13.8278 29.9669 13.8278 29.9669" stroke="#F93C00" stroke-width="0.325729" stroke-miterlimit="10" stroke-linecap="round"/>
<path d="M11.3703 35.1021C11.3703 35.1021 11.1981 34.3008 11.7123 34.0872C12.2265 33.8736 12.2629 33.4844 12.2993 33.0952C12.3357 32.706 12.5806 32.7289 12.8498 32.4924C13.1191 32.2558 13.1312 32.1261 13.1797 31.6072C13.2282 31.0883 13.6163 30.9021 13.6163 30.9021" stroke="#F93C00" stroke-width="0.325729" stroke-miterlimit="10" stroke-linecap="round"/>
<path d="M4.07532 39.1312C4.07532 39.1312 5.2504 38.4559 5.85066 38.6429C6.45091 38.8299 6.85474 38.4751 6.68373 38.9826C6.51273 39.49 6.47633 39.8792 6.47633 39.8792" stroke="#F93C00" stroke-width="0.325729" stroke-miterlimit="10" stroke-linecap="round"/>
<path d="M18.7339 38.2772C18.7339 38.2772 18.5629 38.7846 19.0286 39.0899C19.4942 39.3951 19.2371 39.502 19.4093 40.3032C19.5815 41.1045 20.4024 41.5738 20.366 41.963C20.3296 42.3522 20.5139 43.0237 20.5139 43.0237" stroke="#F93C00" stroke-width="0.325729" stroke-miterlimit="10" stroke-linecap="round"/>
<path d="M10.1681 46.6362C10.1681 46.6362 10.658 46.682 10.7441 47.0827C10.8302 47.4833 11.2837 47.9183 11.2837 47.9183" stroke="#F93C00" stroke-width="0.325729" stroke-miterlimit="10" stroke-linecap="round"/>
<path d="M31.5487 16.1826C31.5487 16.1826 31.9901 16.7473 32.1368 16.4993C32.2836 16.2513 32.3321 15.7324 32.4789 15.4844C32.6256 15.2364 32.7966 14.729 32.5759 14.4466C32.3552 14.1642 32.3795 13.9048 32.6366 13.798C32.688 13.7766 32.4633 13.1406 32.9097 12.4626" stroke="#F93C00" stroke-width="0.325729" stroke-miterlimit="10" stroke-linecap="round"/>
<path d="M4.9935 18.2139C4.9935 18.2139 4.96248 17.753 5.21956 17.6462C5.47665 17.5394 6.10117 17.4669 6.24791 17.2189C6.39465 16.9709 5.34088 16.3489 5.72044 16.2536C6.10001 16.1582 6.45531 16.3223 6.98161 15.9789C7.50791 15.6356 7.54431 15.2464 7.54431 15.2464" stroke="#F93C00" stroke-width="0.325729" stroke-miterlimit="10" stroke-linecap="round"/>
<path d="M5.85468 29.3519C5.85468 29.3519 5.63399 29.0695 5.90321 28.833C6.17242 28.5965 6.09847 28.0661 5.84139 28.1729C5.5843 28.2797 5.4133 28.7872 4.95978 28.3522" stroke="#F93C00" stroke-width="0.325729" stroke-miterlimit="10" stroke-linecap="round"/>
<path d="M6.22965 24.0218C6.22965 24.0218 6.14357 23.6211 5.75187 23.8462C5.36018 24.0713 5.27409 23.6707 5.12735 23.9187C4.98061 24.1667 5.20131 24.449 4.80961 24.6741C4.56235 24.808 3.94014 24.7237 3.94014 24.7237" stroke="#F93C00" stroke-width="0.325729" stroke-miterlimit="10" stroke-linecap="round"/>
</svg>
