<svg width="46" height="48" viewBox="0 0 46 48" fill="none" xmlns="http://www.w3.org/2000/svg">
<path fill-rule="evenodd" clip-rule="evenodd" d="M13.9848 31C13.4478 31.078 12.8986 31.1184 12.34 31.1184C6.07708 31.1184 1 26.0413 1 19.7785C1 13.5156 6.07708 8.43848 12.34 8.43848C12.8228 8.43848 13.2985 8.46865 13.7654 8.5272C15.4269 3.57105 20.1084 0 25.624 0C32.5299 0 38.1283 5.59839 38.1283 12.5043C38.1283 13.1216 38.0836 13.7285 37.9972 14.3218C42.3664 14.624 45.8169 18.264 45.8169 22.71C45.8169 27.3538 42.0523 31.1184 37.4085 31.1184C36.9265 31.1184 36.454 31.0779 35.9941 31H13.9848Z" fill="white"/>
<path d="M8.87121 31.3695C9.1473 30.4021 10.5183 30.4021 10.7944 31.3695L11.445 33.6493C11.5931 34.1682 12.1263 34.476 12.6498 34.3448L14.9494 33.7684C15.9253 33.5238 16.6108 34.7111 15.911 35.4339L14.262 37.1373C13.8866 37.525 13.8866 38.1406 14.262 38.5284L15.911 40.2317C16.6108 40.9545 15.9253 42.1419 14.9494 41.8973L12.6498 41.3208C12.1263 41.1896 11.5931 41.4974 11.445 42.0164L10.7944 44.2962C10.5183 45.2636 9.1473 45.2636 8.87121 44.2962L8.2206 42.0164C8.0725 41.4974 7.53933 41.1896 7.01585 41.3208L4.71622 41.8973C3.74036 42.1419 3.05484 40.9545 3.75461 40.2317L5.40363 38.5284C5.77901 38.1406 5.77901 37.525 5.40363 37.1373L3.75461 35.4339C3.05484 34.7111 3.74035 33.5238 4.71621 33.7684L7.01585 34.3448C7.53933 34.476 8.0725 34.1682 8.2206 33.6492L8.87121 31.3695Z" fill="white"/>
<line x1="19.6401" y1="36.6324" x2="25.6323" y2="26.3599" stroke="white" stroke-width="2" stroke-linecap="round"/>
<path d="M25.6406 41.6324L33.0004 29" stroke="white" stroke-width="2" stroke-linecap="round"/>
</svg>
