<svg width="105" height="105" viewBox="0 0 105 105" fill="none" xmlns="http://www.w3.org/2000/svg">
<g id="adobe">
<path id="bg" d="M52.2014 6.52545C27.0071 6.52545 6.52344 27.0092 6.52344 52.2034C6.52344 77.3977 27.0071 97.8814 52.2014 97.8814C77.3956 97.8814 97.8794 77.3977 97.8794 52.2034C97.8794 27.0092 77.3956 6.52545 52.2014 6.52545Z" fill="#E6001F"/>
<path id="adobe_2" d="M22.8379 75.0424C22.8379 75.0424 43.1342 26.1145 43.086 26.1017H43.086C43.086 26.1017 43.086 26.1017 43.086 26.1017H58.4997L81.5667 75.0424L64.1443 75.0423C64.1571 75.0682 51.0808 45.0133 50.9168 44.7112C50.8882 44.9733 42.2458 65.0882 42.1415 65.1129H51.4552C51.4129 65.164 55.5049 74.949 55.5049 75.0423L22.8379 75.0424Z" fill="white"/>
</g>
</svg>
