<svg width="105" height="105" viewBox="0 0 105 105" fill="none" xmlns="http://www.w3.org/2000/svg">
<path fill-rule="evenodd" clip-rule="evenodd" d="M52.2031 52.2033C52.2031 44.9955 58.0462 39.1525 65.254 39.1525C72.4618 39.1525 78.3048 44.9955 78.3048 52.2033C78.3048 59.4111 72.4618 65.2542 65.254 65.2542C58.0462 65.2542 52.2031 59.4111 52.2031 52.2033Z" fill="#1ABCFE"/>
<path fill-rule="evenodd" clip-rule="evenodd" d="M26.1035 78.305C26.1035 71.0972 31.9466 65.2542 39.1544 65.2542H52.2052V78.305C52.2052 85.5128 46.3621 91.3558 39.1544 91.3558C31.9466 91.3558 26.1035 85.5128 26.1035 78.305Z" fill="#0ACF83"/>
<path fill-rule="evenodd" clip-rule="evenodd" d="M52.2031 13.0508V39.1525H65.254C72.4618 39.1525 78.3048 33.3094 78.3048 26.1016C78.3048 18.8938 72.4618 13.0508 65.254 13.0508H52.2031Z" fill="#FF7262"/>
<path fill-rule="evenodd" clip-rule="evenodd" d="M26.1035 26.1016C26.1035 33.3094 31.9466 39.1525 39.1544 39.1525H52.2052V13.0508H39.1544C31.9466 13.0508 26.1035 18.8938 26.1035 26.1016Z" fill="#F24E1E"/>
<path fill-rule="evenodd" clip-rule="evenodd" d="M26.1035 52.2033C26.1035 59.4111 31.9466 65.2542 39.1544 65.2542H52.2052V39.1525H39.1544C31.9466 39.1525 26.1035 44.9955 26.1035 52.2033Z" fill="#A259FF"/>
</svg>
