<svg width="70" height="49" viewBox="0 0 70 49" fill="none" xmlns="http://www.w3.org/2000/svg">
<path fill-rule="evenodd" clip-rule="evenodd" d="M20.2812 48.4192C19.4424 48.5411 18.5846 48.6042 17.712 48.6042C7.92994 48.6042 0 40.6742 0 30.8922C0 21.1101 7.92994 13.1801 17.712 13.1801C18.4661 13.1801 19.2091 13.2273 19.9384 13.3187C22.5335 5.57766 29.8456 0 38.4604 0C49.2469 0 57.9911 8.74418 57.9911 19.5307C57.9911 20.4948 57.9212 21.4426 57.7863 22.3694C64.6106 22.8414 70 28.5268 70 35.4709C70 42.7242 64.12 48.6042 56.8667 48.6042C56.1139 48.6042 55.3759 48.5409 54.6577 48.4192H20.2812Z" fill="white"/>
</svg>
