<svg width="12" height="14" viewBox="0 0 12 14" fill="none" xmlns="http://www.w3.org/2000/svg">
<path fill-rule="evenodd" clip-rule="evenodd" d="M4.04435 2.2521C4.04435 1.05819 5.0122 0.090332 6.20611 0.090332C7.40002 0.090332 8.36788 1.05819 8.36788 2.2521V2.61239C8.36788 4.00529 7.23871 5.13445 5.84582 5.13445H1.16199C0.764025 5.13445 0.441406 4.81183 0.441406 4.41386C0.441406 4.01589 0.764025 3.69327 1.16199 3.69327H5.84582C6.44277 3.69327 6.9267 3.20935 6.9267 2.61239V2.2521C6.9267 1.85413 6.60408 1.53151 6.20611 1.53151C5.80814 1.53151 5.48552 1.85413 5.48552 2.2521V2.44862C5.48552 2.84659 5.16291 3.16921 4.76494 3.16921C4.36697 3.16921 4.04435 2.84659 4.04435 2.44862V2.2521ZM6.92647 11.2595C6.92647 12.6524 8.05563 13.7815 9.44853 13.7815C10.8414 13.7815 11.9706 12.6524 11.9706 11.2595V10.8992C11.9706 9.30728 10.6801 8.01681 9.08824 8.01681H1.88235C1.48438 8.01681 1.16176 8.33943 1.16176 8.7374C1.16176 9.13537 1.48438 9.45799 1.88235 9.45799H9.08824C9.88418 9.45799 10.5294 10.1032 10.5294 10.8992V11.2595C10.5294 11.8564 10.0455 12.3403 9.44853 12.3403C8.85157 12.3403 8.36765 11.8564 8.36765 11.2595V10.8992C8.36765 10.5012 8.04503 10.1786 7.64706 10.1786C7.24909 10.1786 6.92647 10.5012 6.92647 10.8992V11.2595ZM2.60294 5.85505C2.20497 5.85505 1.88235 6.17766 1.88235 6.57563C1.88235 6.9736 2.20497 7.29622 2.60294 7.29622H9.80882C10.2068 7.29622 10.5294 6.9736 10.5294 6.57563C10.5294 6.17766 10.2068 5.85505 9.80882 5.85505H2.60294Z" fill="white"/>
</svg>
