<svg width="14" height="17" viewBox="0 0 14 17" fill="none" xmlns="http://www.w3.org/2000/svg">
<path d="M7 16.5C6.73478 16.5 6.48043 16.3946 6.29289 16.2071L0.292894 10.2071C-0.0976309 9.81658 -0.0976308 9.18342 0.292894 8.79289C0.683418 8.40237 1.31658 8.40237 1.70711 8.79289L6 13.0858L6 1.5C6 0.947714 6.44772 0.499999 7 0.499999C7.55229 0.499999 8 0.947715 8 1.5L8 13.0858L12.2929 8.79289C12.6834 8.40237 13.3166 8.40237 13.7071 8.79289C14.0976 9.18342 14.0976 9.81658 13.7071 10.2071L7.70711 16.2071C7.51957 16.3946 7.26521 16.5 7 16.5Z" fill="#C7D4DB"/>
</svg>
