<svg width="48" height="47" viewBox="0 0 48 47" fill="none" xmlns="http://www.w3.org/2000/svg">
<path d="M40.7328 0H7.57819C3.83492 0 0.98291 2.85202 0.98291 6.59528V39.7499C0.98291 43.4932 3.83492 46.3452 7.57819 46.3452H40.7328C44.4761 46.3452 47.3281 43.4932 47.3281 39.7499V6.59528C47.3281 2.85202 44.4761 0 40.7328 0ZM24.1555 37.0762C31.8203 37.0762 38.0591 31.0156 38.0591 23.7074C38.0591 22.4596 37.8808 21.0336 37.5243 19.9641H41.4458V38.8587C41.4458 39.7499 40.7328 40.6412 39.6633 40.6412H8.6477C7.75645 40.6412 6.86519 39.9282 6.86519 38.8587V19.7858H10.965C10.6085 21.0336 10.4302 22.2814 10.4302 23.5291C10.252 31.0156 16.4907 37.0762 24.1555 37.0762ZM24.1555 31.7286C19.1645 31.7286 15.243 27.8071 15.243 22.9944C15.243 18.1816 19.1645 14.2601 24.1555 14.2601C29.1465 14.2601 33.0681 18.1816 33.0681 22.9944C33.0681 27.9854 29.1465 31.7286 24.1555 31.7286ZM41.2676 12.6558C41.2676 13.7253 40.3763 14.6166 39.3068 14.6166H34.3158C33.2463 14.6166 32.3551 13.7253 32.3551 12.6558V7.84304C32.3551 6.77353 33.2463 5.88228 34.3158 5.88228H39.3068C40.3763 5.88228 41.2676 6.77353 41.2676 7.84304V12.6558Z" fill="#6A828E"/>
</svg>
