<svg width="40" height="40" viewBox="0 0 40 40" fill="none" xmlns="http://www.w3.org/2000/svg">
<path d="M13.4011 15.4305C13.9616 15.991 14.8702 15.991 15.4307 15.4305C15.9911 14.8701 15.9911 13.9614 15.4307 13.401L13.4011 15.4305ZM1.50005 0.0648305C0.707465 0.0648298 0.0649519 0.707343 0.0649526 1.49992V14.4158C0.0649526 15.2084 0.707466 15.8509 1.50005 15.8509C2.29263 15.8509 2.93514 15.2084 2.93514 14.4158V2.93502H14.4159C15.2085 2.93502 15.851 2.29251 15.851 1.49992C15.851 0.707344 15.2085 0.0648305 14.4159 0.0648305H1.50005ZM15.4307 13.401L2.51481 0.48516L0.485282 2.51469L13.4011 15.4305L15.4307 13.401Z" fill="white"/>
<path d="M23.9251 13.1586C23.3646 13.719 23.3646 14.6277 23.9251 15.1881C24.4855 15.7485 25.3941 15.7485 25.9546 15.1881L23.9251 13.1586ZM39.0483 1.49996C39.0483 0.707375 38.4058 0.0648619 37.6132 0.0648626H24.6974C23.9048 0.0648626 23.2623 0.707376 23.2623 1.49996C23.2623 2.29254 23.9048 2.93505 24.6974 2.93505H36.1781V14.4158C36.1781 15.2084 36.8206 15.8509 37.6132 15.8509C38.4058 15.8509 39.0483 15.2084 39.0483 14.4158V1.49996ZM25.9546 15.1881L38.628 2.51472L36.5984 0.485192L23.9251 13.1586L25.9546 15.1881Z" fill="white"/>
<path d="M15.1882 25.9547C15.7487 25.3943 15.7487 24.4856 15.1882 23.9252C14.6278 23.3647 13.7191 23.3647 13.1587 23.9252L15.1882 25.9547ZM0.0649836 37.6133C0.0649829 38.4059 0.707496 39.0484 1.50008 39.0484L14.4159 39.0484C15.2085 39.0484 15.851 38.4059 15.851 37.6133C15.851 36.8207 15.2085 36.1782 14.4159 36.1782L2.93517 36.1782L2.93517 24.6975C2.93517 23.9049 2.29266 23.2624 1.50008 23.2624C0.707498 23.2624 0.0649848 23.9049 0.0649847 24.6975L0.0649836 37.6133ZM13.1587 23.9252L0.485313 36.5986L2.51484 38.6281L15.1882 25.9547L13.1587 23.9252Z" fill="white"/>
<path d="M25.7122 23.9252C25.1517 23.3647 24.2431 23.3647 23.6826 23.9252C23.1222 24.4856 23.1222 25.3943 23.6826 25.9547L25.7122 23.9252ZM37.6132 39.2909C38.4058 39.2909 39.0483 38.6484 39.0483 37.8558L39.0483 24.9399C39.0483 24.1474 38.4058 23.5048 37.6132 23.5048C36.8207 23.5048 36.1781 24.1474 36.1781 24.9399L36.1781 36.4207L24.6974 36.4207C23.9048 36.4207 23.2623 37.0632 23.2623 37.8558C23.2623 38.6484 23.9048 39.2909 24.6974 39.2909L37.6132 39.2909ZM23.6826 25.9547L36.5985 38.8706L38.628 36.841L25.7122 23.9252L23.6826 25.9547Z" fill="white"/>
</svg>
