<svg width="130" height="26" viewBox="0 0 130 26" fill="none" xmlns="http://www.w3.org/2000/svg">
<g clip-path="url(#clip0)">
<path d="M4.83643 18.6533C5.55913 19.5748 6.2169 20.5454 6.80495 21.5583C7.30702 22.5109 7.5163 23.1568 7.88328 24.3046C8.10829 24.9386 8.31167 25.1279 8.7489 25.1279C9.22543 25.1279 9.44159 24.8059 9.60862 24.308C9.95546 23.2241 10.2276 22.3969 10.657 21.6153C11.4995 20.1063 12.5464 18.7653 13.5751 17.4765C13.8537 17.1118 15.6542 14.9868 16.4648 13.3102C16.4648 13.3102 17.4611 11.4683 17.4611 8.89608C17.4611 6.48996 16.4785 4.82117 16.4785 4.82117L13.6498 5.57913L11.9318 10.1063L11.5069 10.7305L11.4219 10.8436L11.3089 10.9851L11.1104 11.2113L10.827 11.4949L9.29716 12.7419L5.47262 14.9514L4.83643 18.6533Z" fill="#34A853"/>
<path d="M0.88916 13.0004C1.82257 15.1337 3.62259 17.009 4.84045 18.6546L11.309 10.988C11.309 10.988 10.3977 12.1805 8.74457 12.1805C6.90329 12.1805 5.41572 10.7093 5.41572 8.85422C5.41572 7.5821 6.18063 6.70813 6.18063 6.70813L1.78966 7.88538L0.88916 13.0004Z" fill="#FBBC04"/>
<path d="M11.3812 0.526001C13.5296 1.21908 15.3684 2.67405 16.4806 4.81965L11.311 10.9836C11.311 10.9836 12.0759 10.0939 12.0759 8.82968C12.0759 6.93133 10.4783 5.51322 8.75245 5.51322C7.12045 5.51322 6.18311 6.70374 6.18311 6.70374V2.82053L11.3812 0.526001Z" fill="#4285F4"/>
<path d="M2.07422 3.24971C3.35742 1.71363 5.61529 0.131836 8.72798 0.131836C10.2381 0.131836 11.3759 0.528513 11.3759 0.528513L6.17829 6.70724H2.49573L2.07422 3.24971Z" fill="#1A73E8"/>
<path d="M0.889502 13.0005C0.889502 13.0005 0.0307617 11.318 0.0307617 8.88041C0.0307617 6.57654 0.925856 4.56267 2.07445 3.24976L6.18146 6.70778L0.889502 13.0005Z" fill="#EA4335"/>
<path d="M89.2591 20.4056V7.26808H90.9461L95.5125 15.268H95.5862L100.153 7.26808H101.84V20.4056H100.153V12.6073L100.226 10.4051H100.153L96.0455 17.6161H95.0556L90.9486 10.4051H90.8749L90.9486 12.6073V20.4051L89.2591 20.4056ZM106.772 20.6809C105.819 20.6809 105.021 20.4056 104.379 19.8551C103.738 19.3046 103.417 18.5771 103.417 17.6716C103.417 16.6886 103.795 15.9257 104.553 15.3688C105.312 14.8118 106.246 14.5341 107.354 14.5341C108.344 14.5341 109.157 14.7175 109.793 15.0846V14.8276C109.793 14.1669 109.567 13.638 109.115 13.2409C108.663 12.8437 108.106 12.6446 107.445 12.6446C106.957 12.6446 106.514 12.7606 106.117 12.9887C105.719 13.2168 105.447 13.5392 105.301 13.9423L103.76 13.2821C103.968 12.7439 104.378 12.2499 104.989 11.7869C105.599 11.3238 106.406 11.0987 107.409 11.0987C108.559 11.0987 109.512 11.4354 110.27 12.1078C111.028 12.7803 111.407 13.729 111.407 14.9524V20.3884H109.793V19.1399H109.72C109.046 20.1721 108.062 20.6809 106.772 20.6809ZM107.047 19.1399C107.744 19.1399 108.376 18.8794 108.945 18.3603C109.514 17.8412 109.798 17.2297 109.798 16.517C109.321 16.1252 108.606 15.9296 107.652 15.9296C106.833 15.9296 106.215 16.1066 105.8 16.462C105.385 16.8173 105.176 17.2327 105.176 17.7095C105.176 18.1499 105.366 18.4984 105.745 18.7555C106.123 19.0126 106.558 19.1409 107.047 19.1409L107.047 19.1399ZM117.728 20.6809C117.044 20.6809 116.429 20.5334 115.886 20.2405C115.343 19.9475 114.935 19.5798 114.668 19.1394H114.594L114.668 20.3869V24.3503H112.981V11.3971H114.595V12.6446H114.669C114.937 12.2042 115.344 11.8375 115.887 11.5435C116.43 11.2496 117.045 11.1031 117.729 11.1031C118.891 11.1031 119.893 11.5617 120.737 12.4794C121.58 13.3972 122.002 14.5341 122.002 15.8923C122.002 17.2504 121.58 18.3878 120.737 19.305C119.894 20.2223 118.891 20.6814 117.729 20.6814L117.728 20.6809ZM117.453 19.1399C118.236 19.1399 118.907 18.843 119.47 18.2551C120.033 17.6672 120.314 16.8758 120.314 15.8972C120.314 14.9185 120.033 14.1276 119.47 13.5392C118.908 12.9508 118.235 12.6544 117.453 12.6544C116.659 12.6544 115.983 12.9479 115.427 13.5353C114.87 14.1227 114.593 14.9116 114.593 15.9021C114.593 16.8925 114.871 17.6815 115.427 18.2689C115.982 18.8563 116.658 19.1497 117.453 19.1497V19.1399ZM126.485 20.6809C125.483 20.6809 124.655 20.4361 124 19.947C123.346 19.4579 122.87 18.8459 122.561 18.1121L124.064 17.4878C124.541 18.6184 125.354 19.1753 126.504 19.1753C127.029 19.1753 127.461 19.0593 127.797 18.8312C128.133 18.6031 128.301 18.293 128.301 17.914C128.301 17.3271 127.892 16.9289 127.072 16.7215L125.257 16.2816C124.682 16.1351 124.138 15.8564 123.625 15.4469C123.112 15.0375 122.855 14.4835 122.855 13.787C122.855 12.9921 123.206 12.3467 123.909 11.8503C124.612 11.3538 125.447 11.1071 126.412 11.1071C127.206 11.1071 127.915 11.2875 128.539 11.6478C129.151 11.9948 129.623 12.5424 129.878 13.1981L128.41 13.8037C128.081 13.0088 127.396 12.6112 126.357 12.6112C125.856 12.6112 125.433 12.7154 125.092 12.9228C124.75 13.1303 124.578 13.4124 124.578 13.7673C124.578 14.281 124.971 14.6295 125.77 14.8133L127.549 15.2351C128.392 15.4307 129.016 15.7674 129.419 16.2442C129.822 16.721 130.024 17.2597 130.024 17.8594C130.024 18.6665 129.694 19.3341 129.034 19.8777C128.374 20.4213 127.524 20.6848 126.479 20.6848L126.485 20.6809ZM39.2654 12.5728H32.3454V14.6275H37.2581C37.0159 17.508 34.62 18.7368 32.3587 18.7368C31.6421 18.7401 30.9321 18.6005 30.2701 18.3261C29.6081 18.0518 29.0073 17.6482 28.5029 17.139C27.9985 16.6298 27.6005 16.0251 27.3322 15.3603C27.064 14.6954 26.9308 13.9838 26.9405 13.2669C26.9405 10.1569 29.3467 7.7616 32.3641 7.7616C34.6927 7.7616 36.0633 9.24705 36.0633 9.24705L37.5013 7.75766C37.5013 7.75766 35.6556 5.703 32.2904 5.703C28.005 5.703 24.689 9.32225 24.689 13.2315C24.689 17.0616 27.8085 20.7979 32.3999 20.7979C36.4382 20.7979 39.3956 18.0295 39.3956 13.9359C39.3956 13.0727 39.2704 12.5733 39.2704 12.5733L39.2654 12.5728Z" fill="white"/>
<path d="M44.9467 11.1115C42.1071 11.1115 40.0723 13.3323 40.0723 15.9227C40.0723 18.5515 42.0462 20.8136 44.985 20.8136C47.6413 20.8136 49.8171 18.7825 49.8171 15.9787C49.8171 12.7655 47.2856 11.1105 44.9516 11.1105L44.9467 11.1115ZM44.9747 13.0172C46.3713 13.0172 47.6943 14.1467 47.6943 15.9665C47.6943 17.7478 46.3762 18.9108 44.9678 18.9108C43.4203 18.9108 42.1995 17.6706 42.1995 15.9532C42.1995 14.2731 43.4055 13.0177 44.9742 13.0177L44.9747 13.0172Z" fill="white"/>
<path d="M55.4969 11.1115C52.6574 11.1115 50.6226 13.3323 50.6226 15.9227C50.6226 18.5515 52.5965 20.8136 55.5353 20.8136C58.1916 20.8136 60.3674 18.7825 60.3674 15.9787C60.3674 12.7655 57.8359 11.1105 55.5019 11.1105L55.4969 11.1115ZM55.5249 13.0172C56.9216 13.0172 58.2446 14.1467 58.2446 15.9665C58.2446 17.7478 56.9265 18.9108 55.5181 18.9108C53.9706 18.9108 52.7498 17.6706 52.7498 15.9532C52.7498 14.2731 53.9558 13.0177 55.5245 13.0177L55.5249 13.0172Z" fill="white"/>
<path d="M65.8853 11.1115C63.2791 11.1115 61.23 13.3957 61.23 15.9591C61.23 18.8789 63.6048 20.8156 65.8396 20.8156C67.2215 20.8156 67.956 20.2665 68.4993 19.6359V20.5924C68.4993 22.2662 67.4834 23.2689 65.9447 23.2689C64.4635 23.2689 63.7212 22.1669 63.4628 21.5416L61.5994 22.3212C62.2607 23.7197 63.591 25.1786 65.9609 25.1786C68.5524 25.1786 70.5278 23.5456 70.5278 20.1156V11.4005H68.4949V12.2224C67.87 11.549 67.0152 11.1091 65.8813 11.1091L65.8853 11.1115ZM66.0739 13.0138C67.3522 13.0138 68.6639 14.105 68.6639 15.9695C68.6639 17.8649 67.3546 18.9089 66.0454 18.9089C64.6561 18.9089 63.3631 17.7803 63.3631 15.9871C63.3631 14.1193 64.7052 13.0133 66.0739 13.0133V13.0138ZM79.6005 11.1115C77.1422 11.1115 75.0774 13.0679 75.0774 15.9567C75.0774 19.0121 77.378 20.8249 79.8363 20.8249C81.8879 20.8249 83.1475 19.7018 83.8981 18.6956L82.2278 17.5798C81.7931 18.2551 81.0655 18.9158 79.8525 18.9158C78.4893 18.9158 77.8629 18.1686 77.4748 17.4451L83.9763 14.7416L83.6388 13.9551C83.0099 12.4057 81.545 11.112 79.6103 11.112L79.6005 11.1115ZM79.685 12.9774C80.5713 12.9774 81.208 13.4493 81.4796 14.0136L77.1378 15.8294C76.9511 14.4235 78.2815 12.9774 79.6855 12.9774H79.685ZM71.9721 20.5359H74.1071V6.23193H71.9721V20.5359Z" fill="white"/>
</g>
<defs>
<clipPath id="clip0">
<rect width="130" height="25" fill="white" transform="translate(0 0.136719)"/>
</clipPath>
</defs>
</svg>
