<svg width="77" height="77" viewBox="0 0 77 77" fill="none" xmlns="http://www.w3.org/2000/svg">
<path fill-rule="evenodd" clip-rule="evenodd" d="M1.02513 71.0251C-0.341709 72.392 -0.341709 74.608 1.02513 75.9749C2.39196 77.3417 4.60804 77.3417 5.97487 75.9749L38.5 43.4498L71.0251 75.9749C72.392 77.3417 74.608 77.3417 75.9749 75.9749C77.3417 74.608 77.3417 72.392 75.9749 71.0251L43.4497 38.5L75.9749 5.97488C77.3417 4.60804 77.3417 2.39196 75.9749 1.02513C74.608 -0.341709 72.392 -0.341709 71.0251 1.02513L38.5 33.5503L5.97487 1.02513C4.60804 -0.341702 2.39196 -0.341702 1.02513 1.02513C-0.341709 2.39197 -0.341709 4.60805 1.02513 5.97488L33.5502 38.5L1.02513 71.0251Z" fill="#F93C00" fill-opacity="0.4"/>
</svg>
