<svg width="33" height="38" viewBox="0 0 33 38" fill="none" xmlns="http://www.w3.org/2000/svg">
<path d="M22.5692 0H3.74878C1.68312 0 0 1.68548 0 3.75403V34.2306C0 36.3145 1.68312 38 3.74878 38H28.9803C31.046 38 32.7291 36.3145 32.7291 34.246V10.1895L22.5692 0Z" fill="#E2574C"/>
<path d="M22.5698 0V6.48145C22.5698 8.55 24.2529 10.2355 26.3186 10.2355H32.791L22.5698 0Z" fill="#B53629"/>
<path d="M12.0254 18.4484C12.0254 20.2411 10.6483 21.375 8.4908 21.375H7.37382V23.2903H4.75732V15.5218H8.4908C10.6483 15.5218 12.0254 16.6557 12.0254 18.4484ZM9.39357 18.4484C9.39357 17.8815 9.05694 17.5444 8.33779 17.5444H7.38912V19.3678H8.33779C9.04164 19.3678 9.39357 19.0153 9.39357 18.4484Z" fill="white"/>
<path d="M12.8818 15.5218H16.7071C19.293 15.5218 21.0832 16.9928 21.0832 19.3984C21.0832 21.804 19.293 23.2903 16.7071 23.2903H12.8818V15.5218ZM16.5847 21.2524C17.6864 21.2524 18.4361 20.5936 18.4361 19.4137C18.4361 18.2339 17.6864 17.575 16.5847 17.575H15.483V21.2524H16.5847Z" fill="white"/>
<path d="M24.648 17.4984V18.8315H27.8765V20.8081H24.648V23.2903H22.0315V15.5218H28.3356V17.4984H24.648Z" fill="white"/>
</svg>
