<svg width="105" height="105" viewBox="0 0 105 105" fill="none" xmlns="http://www.w3.org/2000/svg">
<path fill-rule="evenodd" clip-rule="evenodd" d="M52.2024 97.8813C77.4296 97.8813 97.8803 77.4306 97.8803 52.2034C97.8803 26.9761 77.4296 6.52542 52.2024 6.52542C26.9751 6.52542 6.52441 26.9761 6.52441 52.2034C6.52441 77.4306 26.9751 97.8813 52.2024 97.8813Z" fill="#1FB6FF"/>
<path fill-rule="evenodd" clip-rule="evenodd" d="M47.6507 42.1581C50.9955 42.1944 45.1069 59.5571 45.739 67.1052C46.3767 74.7204 54.8029 72.5278 54.2681 68.1439C53.3581 60.6912 58.3227 37.3379 63.3576 37.3379C66.8902 37.3379 59.4449 53.4372 60.9099 63.7465C61.8792 70.5672 70.6768 68.2012 69.7828 64.1569C66.8253 50.7726 75.9883 37.9096 74.9615 28.7959C74.5123 24.8084 72.1142 22.8582 69.7155 22.8392C61.3168 22.7746 54.8292 39.9981 54.8292 39.9981C54.8292 39.9981 55.5047 30.2088 48.9774 29.8495C38.9834 29.2987 29.0898 54.3104 29.3701 76.6434C29.4594 83.7682 38.3268 82.5547 37.8605 76.8742C36.9934 66.3101 42.8832 42.107 47.6507 42.1581Z" fill="white"/>
</svg>
