<svg width="105" height="105" viewBox="0 0 105 105" fill="none" xmlns="http://www.w3.org/2000/svg">
<path d="M6.52832 39.5876C6.52832 28.0147 6.52832 22.2283 8.78054 17.8081C10.7617 13.9199 13.9228 10.7587 17.811 8.77764C22.2312 6.52541 28.0176 6.52541 39.5905 6.52541H64.8221C76.3949 6.52541 82.1814 6.52541 86.6016 8.77764C90.4897 10.7587 93.6509 13.9199 95.632 17.8081C97.8842 22.2283 97.8842 28.0147 97.8842 39.5876V64.8192C97.8842 76.392 97.8842 82.1784 95.632 86.5987C93.6509 90.4868 90.4897 93.648 86.6016 95.6291C82.1814 97.8813 76.3949 97.8813 64.8221 97.8813H39.5905C28.0176 97.8813 22.2312 97.8813 17.811 95.6291C13.9228 93.648 10.7617 90.4868 8.78054 86.5987C6.52832 82.1784 6.52832 76.392 6.52832 64.8192V39.5876Z" fill="#242424"/>
<path d="M32.1919 53.5085C19.4673 62.8737 16.9658 76.565 16.9658 87.9845C17.5459 84.5768 20.2068 76.5867 26.2102 71.8884C35.1283 64.9091 51.4417 67.2083 69.278 55.3574C87.1142 43.5064 88.8543 28.0593 86.5704 16.2048C84.9835 27.6435 79.5681 32.6287 72.1057 37.0862C55.9009 46.7656 45.7865 43.5028 32.1919 53.5085Z" fill="url(#paint0_linear)"/>
<path d="M32.1919 53.5085C19.4673 62.8737 16.9658 76.565 16.9658 87.9845C17.5459 84.5768 20.2068 76.5867 26.2102 71.8884C35.1283 64.9091 51.4417 67.2083 69.278 55.3574C87.1142 43.5064 88.8543 28.0593 86.5704 16.2048C84.9835 27.6435 79.5681 32.6287 72.1057 37.0862C55.9009 46.7656 45.7865 43.5028 32.1919 53.5085Z" fill="url(#paint1_linear)"/>
<path d="M17.1182 83.3034C17.8164 72.9852 21.1668 61.6229 32.192 53.5084C39.2791 48.2923 45.4205 46.6821 51.9719 44.9644C55.7952 43.962 59.7582 42.923 64.1304 41.1093C62.5353 42.6328 54.9556 46.1891 49.2383 48.5653C43.536 50.9353 37.524 53.434 32.5183 56.7711C22.475 63.4666 18.3914 75.1158 17.1182 83.3034Z" fill="url(#paint2_linear)"/>
<path d="M17.1182 83.3034C17.8164 72.9852 21.1668 61.6229 32.192 53.5084C39.2791 48.2923 45.4205 46.6821 51.9719 44.9644C55.7952 43.962 59.7582 42.923 64.1304 41.1093C62.5353 42.6328 54.9556 46.1891 49.2383 48.5653C43.536 50.9353 37.524 53.434 32.5183 56.7711C22.475 63.4666 18.3914 75.1158 17.1182 83.3034Z" fill="url(#paint3_linear)"/>
<path d="M79.0152 46.888C77.7645 48.1131 76.3702 49.2097 74.8247 50.137C67.8642 54.3133 60.4659 55.6601 53.267 56.9706C47.5304 58.0149 41.9205 59.0362 36.7597 61.4477C25.1235 66.8852 17.9457 78.1948 16.9661 87.9825C16.9661 87.9829 16.966 87.9834 16.9659 87.9838C16.9659 87.982 16.9659 87.9803 16.9658 87.9785C16.9659 87.2314 16.9766 86.4745 17.0003 85.7098C17.0596 84.4966 17.185 83.1523 17.3926 81.7188C18.9288 73.6694 23.1069 63.0453 32.5182 56.7711C36.5022 54.1151 41.1236 51.9902 45.7191 50.0386C49.7604 48.7118 53.4027 47.886 56.873 47.0992C62.3356 45.8608 67.3719 44.719 72.8671 41.8715C84.3978 35.8965 87.4188 23.6181 86.6067 16.3956C88.3307 25.5471 87.6338 36.8031 79.0152 46.888Z" fill="url(#paint4_linear)"/>
<path d="M79.016 46.8883C77.7654 48.1132 76.3711 49.2098 74.8258 50.1371C67.8653 54.3133 60.4669 55.6602 53.268 56.9707C47.5315 58.015 41.9215 59.0362 36.7608 61.4478C30.0688 64.5749 24.8514 69.6442 21.4395 75.2492C24.4499 71.019 29.0361 66.2934 34.6944 64.493C40.2157 62.7362 45.4821 62.5547 50.9535 62.3661C52.5217 62.312 54.1066 62.2574 55.7193 62.1649C60.0655 60.5828 64.6203 58.4528 69.279 55.3574C73.2946 52.6893 76.4943 49.8389 79.016 46.8883Z" fill="url(#paint5_linear)"/>
<path d="M79.016 46.8883C77.7654 48.1132 76.3711 49.2098 74.8258 50.1371C67.8653 54.3133 60.4669 55.6602 53.268 56.9707C47.5315 58.015 41.9215 59.0362 36.7608 61.4478C30.0688 64.5749 24.8514 69.6442 21.4395 75.2492C24.4499 71.019 29.0361 66.2934 34.6944 64.493C40.2157 62.7362 45.4821 62.5547 50.9535 62.3661C52.5217 62.312 54.1066 62.2574 55.7193 62.1649C60.0655 60.5828 64.6203 58.4528 69.279 55.3574C73.2946 52.6893 76.4943 49.8389 79.016 46.8883Z" fill="url(#paint6_linear)"/>
<path d="M86.6131 16.3956C86.6011 16.3319 86.589 16.2683 86.5768 16.2048C84.9899 27.6435 79.5746 32.6287 72.1121 37.0862C69.2852 38.7748 66.6436 40.0695 64.1365 41.1095C62.5411 42.633 54.9617 46.1892 49.2446 48.5653L49.2437 48.5657C48.0801 49.0493 46.9037 49.5382 45.7256 50.0386C49.7669 48.7118 53.4092 47.886 56.8793 47.0993C62.342 45.8608 67.3783 44.719 72.8735 41.8715C84.4042 35.8965 87.4252 23.6181 86.6131 16.3956Z" fill="url(#paint7_linear)"/>
<path d="M86.6131 16.3956C86.6011 16.3319 86.589 16.2683 86.5768 16.2048C84.9899 27.6435 79.5746 32.6287 72.1121 37.0862C69.2852 38.7748 66.6436 40.0695 64.1365 41.1095C62.5411 42.633 54.9617 46.1892 49.2446 48.5653L49.2437 48.5657C48.0801 49.0493 46.9037 49.5382 45.7256 50.0386C49.7669 48.7118 53.4092 47.886 56.8793 47.0993C62.342 45.8608 67.3783 44.719 72.8735 41.8715C84.4042 35.8965 87.4252 23.6181 86.6131 16.3956Z" fill="url(#paint8_linear)"/>
<defs>
<linearGradient id="paint0_linear" x1="56.7709" y1="59.3814" x2="19.141" y2="86.3531" gradientUnits="userSpaceOnUse">
<stop stop-color="#FE5004"/>
<stop offset="0.602538" stop-color="#FFB915"/>
<stop offset="1" stop-color="#FFFC41"/>
</linearGradient>
<linearGradient id="paint1_linear" x1="41.8712" y1="61.6653" x2="42.0887" y2="65.5805" gradientUnits="userSpaceOnUse">
<stop stop-color="#FD3E00"/>
<stop offset="1" stop-color="#FD4400" stop-opacity="0"/>
</linearGradient>
<linearGradient id="paint2_linear" x1="64.1665" y1="39.1525" x2="11.0931" y2="86.3531" gradientUnits="userSpaceOnUse">
<stop stop-color="#005FC6"/>
<stop offset="0.279756" stop-color="#23A4DF"/>
<stop offset="0.465158" stop-color="#3AC2B7"/>
<stop offset="0.640642" stop-color="#60EC7A"/>
<stop offset="0.818668" stop-color="#CFFDBD"/>
<stop offset="1" stop-color="#D0FCB6"/>
</linearGradient>
<linearGradient id="paint3_linear" x1="53.3996" y1="48.1794" x2="48.8318" y2="44.0466" gradientUnits="userSpaceOnUse">
<stop stop-color="#0061CB"/>
<stop offset="1" stop-color="#067EEA" stop-opacity="0"/>
</linearGradient>
<linearGradient id="paint4_linear" x1="86.7878" y1="16.3136" x2="16.9658" y2="87.8757" gradientUnits="userSpaceOnUse">
<stop stop-color="#8E55F1"/>
<stop offset="0.140795" stop-color="#8B48DF"/>
<stop offset="0.274905" stop-color="#E04DD9"/>
<stop offset="0.492309" stop-color="#F496C8"/>
<stop offset="0.633104" stop-color="#FAD2BA"/>
<stop offset="0.856964" stop-color="#FEF7E5"/>
<stop offset="1" stop-color="#FFF5BF"/>
</linearGradient>
<linearGradient id="paint5_linear" x1="79.9371" y1="46.2218" x2="22.9485" y2="71.9972" gradientUnits="userSpaceOnUse">
<stop stop-color="#F41A73"/>
<stop offset="0.399909" stop-color="#FC50A3"/>
<stop offset="0.584511" stop-color="#FE9485"/>
<stop offset="0.703104" stop-color="#FFAF88"/>
<stop offset="1" stop-color="#FFC385"/>
</linearGradient>
<linearGradient id="paint6_linear" x1="59.3821" y1="54.1611" x2="59.4908" y2="59.3814" gradientUnits="userSpaceOnUse">
<stop stop-color="#9B0008"/>
<stop offset="1" stop-color="#EA115A" stop-opacity="0"/>
</linearGradient>
<linearGradient id="paint7_linear" x1="86.7943" y1="22.1865" x2="35.3522" y2="55.7924" gradientUnits="userSpaceOnUse">
<stop stop-color="#231283"/>
<stop offset="0.362865" stop-color="#7053C6"/>
<stop offset="0.466353" stop-color="#7272DB"/>
<stop offset="0.634311" stop-color="#399EE9"/>
<stop offset="1" stop-color="#00CFFF"/>
</linearGradient>
<linearGradient id="paint8_linear" x1="73.9609" y1="39.1526" x2="76.2448" y2="42.089" gradientUnits="userSpaceOnUse">
<stop stop-color="#3F259D" stop-opacity="0"/>
<stop offset="1" stop-color="#412DAA"/>
</linearGradient>
</defs>
</svg>
