<svg width="45" height="43" viewBox="0 0 45 43" fill="none" xmlns="http://www.w3.org/2000/svg">
<path fill-rule="evenodd" clip-rule="evenodd" d="M12.9848 31C12.4478 31.078 11.8986 31.1184 11.34 31.1184C5.07708 31.1184 0 26.0413 0 19.7785C0 13.5156 5.07708 8.43848 11.34 8.43848C11.8228 8.43848 12.2985 8.46865 12.7654 8.5272C14.4269 3.57105 19.1084 0 24.624 0C31.5299 0 37.1283 5.59839 37.1283 12.5043C37.1283 13.1216 37.0836 13.7285 36.9972 14.3218C41.3664 14.624 44.8169 18.264 44.8169 22.71C44.8169 27.3538 41.0523 31.1184 36.4085 31.1184C35.9265 31.1184 35.454 31.0779 34.9941 31H12.9848Z" fill="white"/>
<line x1="7.64009" y1="36.6324" x2="13.6323" y2="26.3599" stroke="white" stroke-width="2" stroke-linecap="round"/>
<line x1="27.6401" y1="36.6324" x2="33.6324" y2="26.3599" stroke="white" stroke-width="2" stroke-linecap="round"/>
<line x1="14.6401" y1="41.6324" x2="20.6323" y2="31.3599" stroke="white" stroke-width="2" stroke-linecap="round"/>
</svg>
