<svg width="45" height="48" viewBox="0 0 45 48" fill="none" xmlns="http://www.w3.org/2000/svg">
<path fill-rule="evenodd" clip-rule="evenodd" d="M12.9848 31C12.4478 31.078 11.8986 31.1184 11.34 31.1184C5.07708 31.1184 0 26.0413 0 19.7785C0 13.5156 5.07708 8.43848 11.34 8.43848C11.8228 8.43848 12.2985 8.46865 12.7654 8.5272C14.4269 3.57105 19.1084 0 24.624 0C31.5299 0 37.1283 5.59839 37.1283 12.5043C37.1283 13.1216 37.0836 13.7285 36.9972 14.3218C41.3664 14.624 44.8169 18.264 44.8169 22.71C44.8169 27.3538 41.0523 31.1184 36.4085 31.1184C35.9265 31.1184 35.454 31.0779 34.9941 31H12.9848Z" fill="white"/>
<path d="M13.8712 31.3695C14.1473 30.4021 15.5183 30.4021 15.7944 31.3695L16.445 33.6493C16.5931 34.1682 17.1263 34.476 17.6498 34.3448L19.9494 33.7684C20.9253 33.5238 21.6108 34.7111 20.911 35.4339L19.262 37.1373C18.8866 37.525 18.8866 38.1406 19.262 38.5284L20.911 40.2317C21.6108 40.9545 20.9253 42.1419 19.9494 41.8973L17.6498 41.3208C17.1263 41.1896 16.5931 41.4974 16.445 42.0164L15.7944 44.2962C15.5183 45.2636 14.1473 45.2636 13.8712 44.2962L13.2206 42.0164C13.0725 41.4974 12.5393 41.1896 12.0159 41.3208L9.71622 41.8973C8.74036 42.1419 8.05484 40.9545 8.75461 40.2317L10.4036 38.5284C10.779 38.1406 10.779 37.525 10.4036 37.1373L8.75461 35.4339C8.05484 34.7111 8.74035 33.5238 9.71621 33.7684L12.0159 34.3448C12.5393 34.476 13.0725 34.1682 13.2206 33.6492L13.8712 31.3695Z" fill="white"/>
<path d="M27.8712 27.3695C28.1473 26.4021 29.5183 26.4021 29.7944 27.3695L30.445 29.6493C30.5931 30.1682 31.1263 30.476 31.6498 30.3448L33.9494 29.7684C34.9253 29.5238 35.6108 30.7111 34.911 31.4339L33.262 33.1373C32.8866 33.525 32.8866 34.1406 33.262 34.5284L34.911 36.2317C35.6108 36.9545 34.9253 38.1419 33.9494 37.8973L31.6498 37.3208C31.1263 37.1896 30.5931 37.4974 30.445 38.0164L29.7944 40.2962C29.5183 41.2636 28.1473 41.2636 27.8712 40.2962L27.2206 38.0164C27.0725 37.4974 26.5393 37.1896 26.0159 37.3208L23.7162 37.8973C22.7404 38.1419 22.0548 36.9545 22.7546 36.2317L24.4036 34.5284C24.779 34.1406 24.779 33.525 24.4036 33.1373L22.7546 31.4339C22.0548 30.7111 22.7404 29.5238 23.7162 29.7684L26.0159 30.3448C26.5393 30.476 27.0725 30.1682 27.2206 29.6492L27.8712 27.3695Z" fill="white"/>
</svg>
