<svg width="105" height="105" viewBox="0 0 105 105" fill="none" xmlns="http://www.w3.org/2000/svg">
<path fill-rule="evenodd" clip-rule="evenodd" d="M20.61 65.8033L15.8308 67.5195L15.5742 81.4946L32.118 75.554C26.4437 73.6804 22.2999 70.3841 20.61 65.8033Z" fill="#FDBD39"/>
<path fill-rule="evenodd" clip-rule="evenodd" d="M23.1094 51.0222L6.52734 56.9766L15.8292 67.5195L20.6084 65.8033C18.9233 61.2359 19.9625 56.073 23.1094 51.0222Z" fill="#F69833"/>
<path fill-rule="evenodd" clip-rule="evenodd" d="M51.0112 30.8569C29.8955 38.4392 16.2824 54.0853 20.6055 65.8035L97.0723 38.3455C92.7491 26.6273 72.1269 23.2746 51.0112 30.8569Z" fill="#FECF33"/>
<path fill-rule="evenodd" clip-rule="evenodd" d="M66.6704 73.2919C87.7861 65.7095 101.425 50.1328 97.0762 38.3453L20.6094 65.8033C24.958 77.5908 45.5547 80.8741 66.6704 73.2919Z" fill="#EE6723"/>
<path fill-rule="evenodd" clip-rule="evenodd" d="M97.0762 38.3453L20.6094 65.8033C22.1067 69.8619 27.8166 71.8615 35.8283 71.8615C43.639 71.8615 53.6374 69.9624 64.0612 66.2193C85.1769 58.637 100.033 46.3608 97.0762 38.3453Z" fill="#F69833"/>
<path fill-rule="evenodd" clip-rule="evenodd" d="M81.8515 32.2871C74.0407 32.2871 64.0424 34.1862 53.6185 37.9293C32.5028 45.5116 17.6464 57.7877 20.6036 65.8033L97.0704 38.3453C95.5731 34.2867 89.8631 32.2871 81.8515 32.2871Z" fill="#FDBD39"/>
<path fill-rule="evenodd" clip-rule="evenodd" d="M77.6295 82.2347H77.6289C75.3791 82.2347 72.06 80.2372 67.7637 76.2977C62.6808 71.6369 56.8584 64.8103 51.3688 57.0756C45.8794 49.3412 41.3687 41.6087 38.6676 35.3022C35.7247 28.4297 35.3051 24.2041 37.4204 22.7426C37.8843 22.4224 38.4434 22.2603 39.0821 22.2603C40.8028 22.2603 44.1554 23.5195 50.355 29.5187L50.4906 29.6498L50.4723 29.8363C50.4299 30.2672 50.3908 30.7021 50.356 31.1289L50.2869 31.9764L49.6787 31.374C42.9988 24.7591 40.0583 24.045 39.104 24.045C38.8319 24.045 38.6152 24.0994 38.4598 24.2067C37.5423 24.8404 37.4832 27.9443 40.3364 34.6064C42.9892 40.8005 47.4343 48.4161 52.8529 56.0503C58.2716 63.6853 64.0049 70.411 68.9969 74.9884C74.3799 79.9243 76.8057 80.4573 77.5988 80.4573C77.8727 80.4573 78.0952 80.3995 78.2602 80.2854C79.2282 79.6169 79.2293 76.2918 76.0475 69.1212L75.9015 68.792L76.2212 68.62C76.541 68.4479 76.8503 68.2784 77.1403 68.1164L77.5234 67.9024L77.7 68.3001C79.956 73.381 82.0649 79.8388 79.2996 81.7496C78.8334 82.0715 78.2715 82.2347 77.6295 82.2347ZM77.6289 81.451H77.6295L77.6291 81.8428L77.6289 81.451Z" fill="#EE6723"/>
<path fill-rule="evenodd" clip-rule="evenodd" d="M67.188 73.0782L67.1559 73.4687C66.622 79.9616 65.2164 87.7675 61.5516 88.0834C61.4778 88.0899 61.4014 88.0933 61.3249 88.0933C58.8352 88.0933 56.4798 84.587 54.3242 77.6716C52.2846 71.1293 50.702 62.3451 49.8677 52.9374C49.0334 43.5317 49.046 34.6099 49.9029 27.8158C50.837 20.4123 52.6153 16.546 55.1882 16.324C55.2642 16.3172 55.3431 16.3136 55.4209 16.3136C57.227 16.3136 59.949 18.3238 62.7356 27.687L60.9161 28.0322C59.9857 24.9033 58.9718 22.3584 57.9652 20.6098C57.0341 18.9923 56.1287 18.1016 55.4158 18.1016C55.3923 18.1016 55.3688 18.1025 55.3455 18.1045C54.2303 18.2007 52.6062 20.8597 51.7008 28.0366C50.859 34.7088 50.8489 43.4968 51.6722 52.7819C52.4959 62.0683 54.0527 70.7211 56.0557 77.1462C56.9527 80.0239 57.9366 82.3954 58.901 84.0047C59.7903 85.4887 60.651 86.306 61.3244 86.306C61.3475 86.306 61.3706 86.305 61.3936 86.3031C62.4606 86.2111 64.4715 83.4442 65.3178 73.709L67.188 73.0782Z" fill="#EE6723"/>
</svg>
