<svg width="1382" height="719" fill="none" xmlns="http://www.w3.org/2000/svg"><path d="M960.833 584.902l.081.035.086.02c12.633 2.954 24.192 3.694 36.82 2.588 19.73-1.115 37.78-8.891 55.22-18.109 5.5-2.907 10.93-5.951 16.33-8.98 11.79-6.614 23.46-13.156 35.45-18.04 6.71-2.71 13.53-4.253 20.45-5.577 1.67-.322 3.36-.631 5.06-.941 5.26-.963 10.58-1.937 15.89-3.33 12.25-2.95 23.77-7.37 35.25-12.51 11.14-4.778 21.19-9.922 31.94-15.79l.02-.012.03-.014c3.5-2.152 17.03-8.709 27.69-11.983 7.64-2.235 14.49-3.969 21.07-5.635 12.7-3.216 24.39-6.173 38.81-11.979v-.002c21.59-8.836 37.86-18.445 55.53-39.846 1.26-1.474 3-3.296 5-5.378.94-.988 1.94-2.035 2.98-3.131 3.19-3.384 6.63-7.198 9.47-11.049 2.82-3.832 5.11-7.798 5.87-11.482.39-1.857.4-3.682-.14-5.393-.54-1.72-1.61-3.256-3.28-4.558-3.04-2.434-7.3-3.965-12.01-4.786-4.73-.825-9.99-.951-15.14-.51-5.15.441-10.21 1.451-14.52 2.918-4.29 1.458-7.94 3.402-10.16 5.775-6.19 6.608-11.54 10.903-17.84 15.956-2.02 1.622-4.14 3.323-6.41 5.203-5.24 4.284-10.21 6.339-15.45 7.871-1.97.577-3.97 1.076-6.05 1.595-.7.175-1.41.353-2.13.537-2.85.723-5.83 1.533-9.01 2.647-4.48 1.573-9.26 3.368-14.11 5.193-8.81 3.312-17.88 6.721-25.94 9.077l-.01.004c-10.84 3.326-21.01 4.107-31.96 4.946-3.4.261-6.87.527-10.45.876l-.01.001c-6.26.674-12.8 3.161-18.95 5.503-.69.264-1.38.526-2.07.784-3.31 1.248-7.52 2.15-11.83 2.975-.87.169-1.75.334-2.63.498-3.38.634-6.69 1.254-9.43 1.992l-.01.002-.01.002c-7.76 2.218-14.35 4.988-20.81 7.927-1.69.768-3.37 1.546-5.05 2.328-4.78 2.215-9.63 4.464-15.03 6.619-3.15 1.072-7.37 1.973-11.53 2.845-.21.042-.41.084-.61.126-3.91.817-7.74 1.617-10.37 2.508-8.99 2.58-18.83 6.663-25.81 13.417-4.74 4.41-9.16 8.991-13.48 13.471-2.86 2.956-5.67 5.869-8.5 8.659-7.18 7.071-14.62 13.498-23.63 18.378-7.463 3.999-13.817 6.521-20.411 7.916-6.594 1.394-13.477 1.671-22.011 1.125a302.395 302.395 0 01-4.949-.426c-6.302-.574-13.449-1.225-19.273-.531-3.72.444-7.091 1.451-9.396 3.53-2.37 2.137-3.459 5.261-2.891 9.54.394 3.305 2.127 6.197 4.577 8.722 2.449 2.524 5.663 4.731 9.129 6.678 5.188 2.914 11.085 5.318 16.018 7.329 1.636.667 3.167 1.291 4.53 1.876zm-809.134-439.85c.634 0 1.293-.016 1.982-.032 4.04-.096 9.099-.215 16.243 2.558l.01.004.011.004c3.491 1.265 6.827 3.079 10.224 5.022.55.315 1.102.633 1.657.953 2.848 1.642 5.761 3.322 8.798 4.736 7.083 3.3 13.438 7.323 19.08 12.433l.001.001c11.109 10.016 24.488 20.52 38.666 25.036l.006.001c9.726 3.04 18.701 2.173 27.452-.221 4.368-1.195 8.69-2.773 13.02-4.437 1.162-.446 2.323-.899 3.485-1.351 3.185-1.241 6.384-2.486 9.648-3.635l.007-.003c8.126-2.926 16.23-4.382 25.034-4.017 4.151.179 8.244 1.344 12.406 2.642l1.412.442c3.663 1.153 7.393 2.327 11.127 2.833l.652.11c1.247.208 3.257.543 5.456 1.036 2.668.598 5.516 1.41 7.544 2.459l.011.006c5.741 2.881 9.757 6.756 13.521 11.065a204.265 204.265 0 013.409 4.04c2.612 3.148 5.337 6.432 8.6 9.549l.002.003c2.255 2.139 5.713 4.271 9.297 5.198 3.587.928 7.512.69 10.366-2.265 3.686-3.815 4.243-8.345 3.44-12.598-.794-4.206-2.926-8.218-4.728-11.203a683.931 683.931 0 01-3.485-6.294c-6.415-11.684-13.329-24.276-22.838-32.849l-.006-.006-.007-.005c-3.511-3.061-9.357-6.457-15.552-8.532-6.126-2.051-12.839-2.892-18.013-.553-3.63.947-6.979 2.355-10.304 3.778l-.483.207c-3.206 1.373-6.407 2.743-9.922 3.783l-.015.004-.016.005c-3.674 1.218-7.218 1.925-10.809 2.642-.712.142-1.425.284-2.142.431-4.313.884-8.698 1.921-13.278 4.007l-.009.004-.008.003c-4.548 2.173-9.022 3.358-13.592 4.276-1.782.358-3.608.681-5.463 1.008-2.834.5-5.735 1.012-8.651 1.683-16.819 3.625-30.801-1.064-43.111-13.079l-.005-.005c-10.098-9.706-23.433-19.035-36.427-25.013l-.013-.005c-3.812-1.692-6.721-2.632-9.611-3.474-.683-.199-1.362-.391-2.05-.586-2.224-.631-4.542-1.288-7.389-2.271-1.032-.355-6.291-2.534-7.714-3.263-4.493-2.701-9.698-3.086-14.619-3.45l-.085-.006c-3.003-.383-6.689.006-9.536.374l-.009.001-.009.002c-1.356.2-2.691.694-3.91 1.144l-.048.018c-1.274.471-2.427.893-3.558 1.061l-.008.001-.007.001c-6.446 1.054-12.668-.831-19.201-2.81l-.259-.078c-6.542-1.981-13.39-4.012-20.642-2.668-9.29 1.543-17.357 8.43-23.454 14.741-.99 1.024-1.942 2.095-2.873 3.143l-.788.885c-1.194 1.333-2.373 2.61-3.63 3.754-2.5 2.275-5.27 3.997-8.937 4.518-6.613.718-13.598-.361-19.546-2.529-1.193-.531-2.308-1.152-3.468-1.798l-.017-.01c-1.152-.642-2.349-1.309-3.643-1.884-2.174-.964-4.386-1.157-6.967-1.383-.62-.054-1.26-.11-1.927-.179l-.05-.006h-.053c-1.128 0-2.284-.067-3.48-.137h-.002c-1.186-.069-2.412-.141-3.632-.141-2.44 0-4.952.284-7.305 1.502-4.786 2.477-6.279 7.408-5.907 12.439.724 13.089 5.087 25.848 18.178 30.881l.008.003.008.003c5.322 1.945 11.44 2.236 17.051 2.504.992.047 1.968.094 2.921.149h.007l.008.001c4.405.19 8.518-.382 12.519-1.08.929-.162 1.85-.33 2.765-.498 3.056-.558 6.064-1.109 9.188-1.39h0l.014-.001.282-.029c3.484-.362 6.475-.672 9.785.012.675.15 1.355.308 2.042.468 4.307 1.002 8.859 2.06 13.675 1.4 8.088-.765 15.778-4.189 22.346-9.477h0l.011-.009c2.937-2.433 5.413-5.242 7.806-7.958.583-.662 1.161-1.319 1.74-1.963 2.983-3.318 6.02-6.358 9.978-8.496l.005-.003c6.089-3.336 13.411-6.922 20.307-7.287zM457.131 301c2.1 2 7.598 9.1 7.998 9.5 2.5 3.2 5.5 6.5 8.5 9 6 4.3 10.1 6 16.5 8.5 1.1.5 9.5 3.34 15.9 5.1 4 1.1 8.1 2.3 11.6 4.4 3 1.9 5.5 4.5 7.8 7.1.5.5 4.4 5.3 6.2 6.9 2.5 2 5.6 3.7 8.5 5.5.7.4 9.1 5.7 12 9 5.5 6.1 10.447 16.575 9.347 25.475-.2 1.4-.7 3-1.3 4.5-.4.9-4.7 9.7-3.7 12.8 1.5 3.3 7.2 3.9 10.4 4.5 1.6.4 3.8 1.5 6.3 3s11.9 7.7 13.7 8.8c3.8 2.5 11.2 7.1 11.2 7.1 13.6 7.8 23.4 15 35.2 26.1 0 0 11.701 12.725 18.9 20.1 7.4 7.1 14.901 11.625 26.301 14.625 21.3 5.5 37.452 14.1 42.652 19 7.6 7.1 16.247 18.975 20.847 31.075 4.653 13.425-3.747 17.425-8.347 16.425-5.4-1.3-20.5-14.5-20.5-14.5s-14.7-11.1-25.5-14c-10.8-2.9-22.5-9-29-14-9-8-29-17.5-29-17.5s-11.263-4-19-14.5c-7-9.5-21.7-25.2-27-30-5.3-4.8-13.9-11.3-21-14.5-3.1-1.4-5.2-2.3-7-2.5-.7-.1-2.7-.5-3.5-.5-1.9 0-7.5-1-12-5-4.7-5-9.053-9.825-9.853-19.225-.6-7.1 2.5-14.8 2.5-14.8s2.553-8.775-2.147-14.475c-4.7-5.7-9.3-7.7-13-12.5-2.2-2.9-3.5-7.5-12.5-9-5.747-.575-14.5-2.4-18.5-4.5-2.2-1.2-7.3-4.2-9-6-1.7-1.8-6.9-6.5-13-9.5s-11.3-5.4-15-10c-2-2.5-8.805-11.55-11.153-20.025-2.347-8.475-1.846-12.975 1.155-15.975 3.676-2.5 11.3-1.4 17.5 4.5z" stroke="#F93C00" stroke-width="2"/></svg>