<svg width="326" height="379" fill="none" xmlns="http://www.w3.org/2000/svg"><path d="M193.535 49.609c-.7-1.152-1.236-2.399-1.978-3.563a40.533 40.533 0 00-8.164-9.22l.012-.044-.012.043c-.561-.472-1.134-.902-1.706-1.332-4.149-2.998-8.22-6.114-12.434-9.039-4.448-3.079-9.263-5.476-14.526-6.892a3.238 3.238 0 01-1.394-.789c-2.116-1.855-4.178-3.741-6.282-5.639-1.949-1.626-4.248-2.29-6.762-2.324-3.202-.036-6.278.652-9.397 1.328-.139.008-.283.2-.317.328-.193.545-.561.721-1.109.711-.366-.006-.731-.013-1.034.09-.26.113-.48.421-.549.678-.035.128.304.403.506.504.67.41 1.417.702 2.033 1.143.265.21.386.61.574.936-.303.102-.606.204-.885.22-1.453.114-2.989.023-4.391.288-2.113.35-4.155.948-6.271 1.48-3.93.964-7.832 2.163-11.424 4.09-9.16 4.88-15.194 12.302-18.35 22.15a39.304 39.304 0 00-1.864 13.41c.033.56.163 1.1.347 1.61.349.92.546 1.89.25 2.821-.388 1.273-.905 2.511-1.453 3.696-.582 1.312-1.165 2.624-1.094 4.067a55.71 55.71 0 00.574 5.71c.278 1.865 1.01 3.577 2.677 4.715.308.22.658.452.978.63l.342.092c.615-.753.63-.978.13-1.847-.188-.326-.46-.675-.594-1.033-.102-.302-.096-.668-.089-1.034-.02-.097.178-.32.263-.296.74.153.718-.45.833-.878.104-.385.184-.685.71-.59.128.035.38-.219.425-.39.223-.996.409-1.176 1.477-1.393.021-.592.347-.78.926-.715.354.05.676.044.834-.373.035-.128.272-.156.423-.207l1.526-.554c1.622-.573 3.253-1.007 5.031-.62.128.034.334-.048.454-.154.36-.316.702-.224.987.082.464.492.912.705 1.392.283.607.301 1.172.59 1.694.869.51.32 1.183.548 1.518 1.005.484.59 1.091.89 1.699 1.192.245.112.645-.01.882-.038l-1.429-4.241c-.62-1.958-1.512-3.759-2.838-5.31-1.233-1.387-2.585-2.67-3.895-3.94-1.712-1.654-3.477-3.277-5.177-4.974-.359-.372-.586-.892-.727-1.39-.516-1.837-.483-3.665-.127-5.497.398-1.822.902-3.523 2.366-4.873 1.891-1.741 3.981-3.199 6.58-3.648.388-.079.753-.072 1.142-.151.052.657-.148 1.062-.563 1.41a1.3 1.3 0 00-.286.381c-.135.331-.259.62-.351.962-.069.257-.181.502-.196.728.078 1.077.209 2.122.318 3.253 2.447-.397 4.858-1.172 7.002-2.661.62-.43 1.19-1.011 1.81-1.441 1.544-.962 3.165-.848 4.787-.227 2.284.89 4.353 2.41 6.953 2.467-.038.312-.022.591-.079.806-.275 1.533-1.029 2.799-1.954 4.02-.143.19-.2.404-.289.564.062.109.179.186.242.295.143-.191.286-.382.46-.519.807-.61 1.582-1.273 2.462-1.817.826-.512 1.738-1.001 2.658-1.35.466-.197 1.076-.078 1.593-.123-.056 1.913-.12 3.687-.185 5.46.45-.476.922-1.038 1.426-1.545.724-.815 1.436-1.588 2.234-2.337.198-.223.629-.29.94-.252 2.691.402 5.37.848 8.103 1.262 1.007.179 2.026.315 3.173.486-.484.605-.891 1.092-1.297 1.58-.782 1.029-1.606 2.047-2.357 3.13-.375.542-.516 1.239-1.168 1.614 0 0 .02.097.028.237.248-.07.485-.098.691-.18 1.052-.498 2.041-1.105 3.112-1.505 1.331-.514 2.768-.908 4.173-1.357.152-.05.303-.102.42-.024.576.246 1.01-.004 1.468-.34.283-.2.64-.333 1.028-.412.831-.19 1.682-.282 2.544-.417.194-.04.435-.25.492-.465.193-.545.535-.453.943-.435 2.959.43 5.803 1.286 8.658 2.1 2.501.765 5.037 1.402 7.616 2.05a7.343 7.343 0 002.177.264c1.935-.03 3.862-.2 5.774-.145 2.868.083 5.697-.028 8.292-1.488 1.358-.782 2.747-1.51 3.695-2.816.449-.476.788-1.395.14-2.396zM71.454 213.85c-3.485.669-7.378.223-11.756-.607-5.8 5.158-4.771 4.118-13.005 1.882-7.078 1.146-5.997 8.749-30.517 9.038-1.056 1.936 19.416 4.382 18.828 6.685-.603 2.364 5.617 27.881 13.833 12.026.246 3.923 3.713 7.215 4.372 11.053 1.135 6.6 6.613-6.072 8.065.416a145.29 145.29 0 003.036 11.473c1.402 4.512 2.005 9.329 3.532 13.799 3.614 10.58 7.74 21.394 14.612 29.357 4.216 4.883 9.73 7.461 15.234 9.385l.516.181c5.082 1.778 10.143 3.548 15.351 4.752 6.855 1.584 13.797 3.624 20.802 3.957 8.036.382 16.142.287 24.189-.191 19.848-1.179 39.263-6.981 58.333-13.856 9.547-3.441 18.83-6.935 27.637-12.865 6.116-4.116 12.344-8.716 17.621-14.369 9.58-10.266 17.726-22.323 23.527-36.232 3.468-8.316 23.202-6.373 21.778-15.574-1.617-10.45-.131-7.505-12.683-10.87-15.016.177-43.668-3.853-60.889-16.358-1.721-1.25-3.734-1.797-5.455-3.073-1.83-1.357-3.621-.992-5.665-.411l-5.789 1.645c-1.595.453-4.914 1.256-6.133-.355-.55-.727-1.846-1.024-2.604-1.378-.846-.393-1.904-1.123-2.875-.912-1.568.341-3.162.915-4.062 2.631-2.197 4.189-.846 9.615-4.139 12.909-1.464 1.465-4.534-.671-5.534-1.497-1.751-1.447-4.427-2.107-5.917-3.913-1.403-1.7-3.015-3.109-4.305-5.071a21.484 21.484 0 00-2.42-2.983c-.384-.39-.54-1.357-.999-1.562-.413-.184-.866-.129-1.266-.339-1.166-.612-3.682.618-4.919.97-1.841.523-3.673-.547-5.356-1.198-1.321-.511-3.208-2.967-3.657-4.633-.263-.976-.849-1.613-1.032-2.679-.148-.857-.602-2.314-1.03-3.029-1.049-1.758-.919-3.236-3.088-2.619-1.577.448-2.663 1.102-3.907 2.237-1.111 1.013-3.917 1.176-5.094.321-1.477-1.073-3.182-2.462-4.824-3.098-1.15-.445-2.872-.319-3.902-1.066-.412-.299-2.002-2.245-1.073-2.823.103-.065-.395.079-.639-.11-.321-.249-.548-.637-.93-.785-1.145-.443-2.608-3.523-2.838-4.865-.387-2.252-.861-4.379-1.146-6.668-.484-3.88 3.086-6.967 4.552-9.763.422-.803 1.529-1.968 1.538-2.982.012-1.184-.892-1.013-1.438-1.437-.923-.715-2.027-2.486-2.993-2.801-1.699-.555-2.984-1.301-4.16-2.936a9.296 9.296 0 00-1.991-2.057c-.834-.647-2.031.052-2.95.313-1.56.444-3.638 2.138-3.258 4.345.127.74.272 2.264.88 2.625.297.177 1.291 1.687 1.356 2.063.349 2.035.301 4.225-1.006 5.802-.944 1.138-2.353 3.101-2.691 4.689-.371 1.745-1.096 4.419-.875 6.193.195 1.563.234 5.234-.348 6.665-.674 1.655-1.408 3.122-2.64 4.246-1.169 1.067-2.9 1.252-4.355 1.665-1.111.316-3.891.513-4.593 1.577-.416.631-1.022.852-1.362 1.689-.335.822-.658 1.722-1.065 2.497-.803 1.531-1.631 4.099-2.128 5.928-.486 1.782-2.254 3.294-3.471 4.405-1.135 1.036-2.763 1.278-3.894 2.311-1.018.929-2.956 1.811-4.206 2.166-3.351.952-6.475 3.009-9.819 2.217-1.722-.408-3.697.659-5.45.926l-.027.004c-.722.11-2.975.452-5.424.922z" fill="#182B34"/><path d="M109.255 166.165c.558-.159 1.287-.653 1.857-.815.39-.111 1.28-.855 1.178-1.449-.095-.555-.131-1.684-.508-2.036-.309-.288-.459-.756-.812-1.03-.317-.246-.677-.355-1.005-.543-.646-.37-1.606-.459-2.304-.261-1.106.315-2.034.679-2.773 1.757-.547.799-.624 2.979.163 3.588.758.588 1.683 1.1 2.612 1.126.597.017 1.025-.176 1.592-.337zm-7.557-3.664c.667.517 1.459.022 2.102-.285.223-.106.359-.295.548-.468.278-.254.617-.794.544-1.22-.161-.933-.537-2.077-1.5-1.803-1.005.286-1.988 1.074-2.163 2.407-.062.475.14 1.114.469 1.369zm14.989-3.005c.255 1.486 1.873 1.592 2.904 1.159.389-.413.767-1.021.645-1.731-.162-.941-.53-2.121-1.507-1.844-1.066.303-2.339.689-2.042 2.416zm-12.057 11.863c.591 1.034 1.637.581 2.075.185.49-.364.229-1.043.052-1.517-.212-.569-.897-.568-1.302-.453-.601.17-1.269 1.01-.825 1.785zm-2.831 20.519c.314.937 1.689-.095 2.154-.364.458-.341.141-1.553-.242-1.869-.354-.292-.394-.373-.819-.252a3.99 3.99 0 00-.79.326c-.766.404-.539 1.452-.303 2.159zm28.125-43.938c.346 2.015 1.589 2.529 2.593 1.147.442-.442.77-1.385.658-2.034-.14-.818-1.196-.855-1.798-.813-.673.047-1.621.719-1.453 1.7zm3.307-2.905c.242 1.186 1.486 2.196 2.346 1.335.456-.456.588-1.195.759-1.447.212-.313.293-.63.474-.975.306-.583.763-1.774 1.315-2.064.581-.306 1.767-1.229 1.577-2.101-.2-.921-.911-1.68-1.695-1.457-.831.236-1.251 1.203-1.837 1.922-.265.325-.601.726-.954.911-.322.17-.883.341-1.084.637-.136.202-.412.329-.53.554-.125.239-.219.547-.315.806-.254.682-.198 1.183-.056 1.879zm1.275 3.374c.568-1.083 3.076-1.401 3.37.13.173 1.001-.196 1.606-.989 1.831-.647.184-1.613.181-2.214-.194-.545-.341-.443-1.24-.167-1.767zm10.146 2.904c.877.815 2.424.207 3.289-.498.725-.54 1.12-2.086.459-2.866-.371-.436-.962-.712-1.458-.845-.538-.144-1.184.358-1.694.503-.612.174-1.117.991-1.33 1.691-.081.266.089.897.16 1.161.114.422.297.596.574.854zm6.576.84c.52.64 1.257.338 1.86.01.482-.137.659-2.163.562-2.728-.174-1.011-.207-2.269-1.106-2.642-.548-.227-1.388.063-1.69.674-.265.538-.41 1.769-.307 2.365.125.731.23 1.767.681 2.321zm-1.669 2.079c.203 1.183.875 3.03 2.091 2.022.433-.554.499-1.254.372-1.99-.109-.634-.703-1.599-1.315-1.425-.691.197-1.326.356-1.148 1.393zm7.417 16.864c.225 1.308 1.631.918 2.386.506.373-.372.27-1.41.085-1.816-.366-.801-.697-.723-1.365-.533-.922.262-1.306.679-1.106 1.843zm.357 8.642c.467-.543 1.345-.724 1.863-.336.279.083.452 1.042.343 1.303-.239.57-.615 1.044-1.076 1.35-.252.167-.433.467-.684.636-.184.123-.404.236-.553.421-.245.303-.378.666-.5 1.062-.282.915-.844 1.791-1.636 2.016-.526.149-1.44.547-1.855-.055-.286-.414-.269-1.502-.032-1.929.413-.744 1.024-1.143 1.636-1.579.703-.502 1.31-.983 1.826-1.779.238-.366.383-.778.668-1.11zm-32.963-43.357c.465-.067.833-.315 1.254-.544.769-.572.376-2.393-.14-2.916-.682-.692-1.579-.73-2.417-.428-.303.109-.867.958-.871 1.362-.004.447.002 1.002.272 1.376.255.356.52 1.093 1.008 1.022.282-.041.588.173.894.128zm-39.414 6.054c.807 1.122.164 2.775-.191 3.955-.337.336.546 2.744.767 3.115.581.973.647 2.515.458 3.637-.108.639-.316 1.5-.913 1.67l-1.235.351c-.56.159-1.025-.188-1.467-.545-.594-.481-.558-1.214-.875-1.903-.21-.454-.102-1.214-.36-1.607-.416-.633-1.01-1.219-1.498-1.773-.796-.906-1.939-2.629-1.393-4.017.513-1.303 1.716-2.008 2.23-3.313.234-.596-.071-1.014-.3-1.515-.224-.491-.348-1.517-.202-2.038.63-2.249 1.733-3.479 3.627-4.072 1.221-.383 2.415-.829 3.653-1.18.858-.244 1.717-.901 2.357-1.663.377-.448.684-.85 1.006-1.35.334-.517.534-1.269.93-1.721.369-.423.651-1.165.99-1.669.43-.642.57-.792 1.248-.985 1.55-.44 3.083-.559 4.556-1.405.93-.534 1.899-2.016.728-2.965-.39-.316-1.015-.668-1.315-1.084-.283-.394-.293-1.462-.251-1.953.098-1.16-.16-3.817-1.549-3.422-.75.214-1.5.572-2.258.327-.462-.149-.348-.946-.357-1.364-.03-1.308 1.405-1.579 1.954-2.471.503-.816-.269-2.616-.419-3.49-.25-1.449.428-1.894 1.492-2.197.858-.243 2.154-.431 2.98.005.615.325.645 1.58.762 2.258.168.983.222 1.97.39 2.946.118.685.252 1.429.911 1.585 1.181.28 2.391 1.655 2.895 3.007.713 1.912 3.007 1.963 3.387 4.176.184 1.073.09 1.942-.132 2.984-.223 1.05-1.301 1.537-2.023 1.883-2.194 1.052-4.412 2.065-6.59 3.149-1.14.569-2.29 1.483-3.271 2.388-.702.646-1.536 1.563-2.378 1.881-.376.142-.638.465-1.035.578l-1.162.33c-.643.183-1.308.23-1.96.415-1.12.318-1.235 2.559-1.433 3.669-.32 1.798-2.17 2.217-2.879 3.655-.205.416-.129 1.386.125 1.738z" fill="#182B34"/><path d="M94.601 139.623c.718 1.092 1.449.438 2.197-.198.673-.501.5-1.45.045-2.141-.251-.381-.439-.713-.89-.598-.37.094-1.064.216-1.322.596-.428.632-.473 1.666-.03 2.341zm10.875-5.076c.454.33 1.182-.468 1.503-.71.574-.427.812-.643 1.233-1.265.421-.621 1.366-.464 1.872-.926l.001-.001c.517-.472.902-.823.756-1.671-.127-.738-.481-.928-1.06-.763-.773.219-1.387.961-2.175 1.185-.691.197-1.351.283-2.047.582-.6.258-.685 1.416-.582 2.017.066.385.223 1.352.499 1.552zm-31.355-5.526c-.46 1.261-.275 1.772.565 1.935 1.085.506 1.992-1.92.994-2.693-.518-.402-1.322.106-1.559.758zm16.126 32.077c.67.047 1.06.312 1.71.128 1.173-.873.6-1.906.385-3.16-.143-.832-1.708-2.087-2.388-2.079-1.021.012-2.617.674-2.705 2.006-.053.802.55 1.721 1.04 2.147.682.595 1.072.896 1.958.958zm60.128-29.995c.376 1.3 1.601 1.284 2.486 1.033.672-.5 1.209-.889 1.026-1.957-.104-.607-.496-2.336-1.15-2.328-.895.01-1.987.509-2.476 1.443-.245.467-.031 1.309.114 1.809zm-13.548-9.028c.2 1.437.75 1.915 1.907 1.586.496-.141 1.435-.37 1.279-1.279-.105-.609-.396-1.781-1.054-1.773-.608.007-2.282.389-2.132 1.466zm-6.444 6.466c.356.849.597.987 1.287.791.678-.193 1.251-.448 1.474-1.335.095-.382-.264-1.812-.639-1.733-.606.127-1.686.243-2.101.856-.323.476-.234.91-.021 1.421z" fill="#182B34"/></svg>