<svg width="57" height="56" fill="none" xmlns="http://www.w3.org/2000/svg"><circle cx="35.5" cy="22.443" r="11.5" fill="#FFB900"/><path stroke="#F25022" stroke-width="2" stroke-linecap="round" stroke-linejoin="round" d="M55 21.943h-4m-30 0h-4"/><path stroke="#FFB900" stroke-width="2" stroke-linecap="round" stroke-linejoin="round" d="M55 21.943h-4m-30 0h-4"/><g clip-path="url(#clip0)"><path stroke="#FFB900" stroke-width="2" stroke-linecap="round" stroke-linejoin="round" d="M52.454 31.443l-3.464-2"/></g><g clip-path="url(#clip1)"><path stroke="#FFB900" stroke-width="2" stroke-linecap="round" stroke-linejoin="round" d="M23.009 14.443l-3.464-2"/></g><g clip-path="url(#clip2)"><path stroke="#FFB900" stroke-width="2" stroke-linecap="round" stroke-linejoin="round" d="M45.5 38.398l-2-3.464"/></g><g clip-path="url(#clip3)"><path stroke="#FFB900" stroke-width="2" stroke-linecap="round" stroke-linejoin="round" d="M28.5 8.953l-2-3.464"/></g><g clip-path="url(#clip4)"><path stroke="#FFB900" stroke-width="2" stroke-linecap="round" stroke-linejoin="round" d="M36 40.943v-4"/></g><g clip-path="url(#clip5)"><path stroke="#FFB900" stroke-width="2" stroke-linecap="round" stroke-linejoin="round" d="M36 6.943v-4"/></g><g clip-path="url(#clip6)"><path stroke="#FFB900" stroke-width="2" stroke-linecap="round" stroke-linejoin="round" d="M26.5 38.398l2-3.464"/></g><g clip-path="url(#clip7)"><path stroke="#FFB900" stroke-width="2" stroke-linecap="round" stroke-linejoin="round" d="M43.5 8.953l2-3.464"/></g><g clip-path="url(#clip8)"><path stroke="#FFB900" stroke-width="2" stroke-linecap="round" stroke-linejoin="round" d="M19.546 31.443l3.464-2"/></g><g clip-path="url(#clip9)"><path stroke="#FFB900" stroke-width="2" stroke-linecap="round" stroke-linejoin="round" d="M48.99 14.443l3.465-2"/></g><path fill-rule="evenodd" clip-rule="evenodd" d="M12.985 43.943c-.537.078-1.086.119-1.645.119C5.077 44.062 0 38.985 0 32.722s5.077-11.34 11.34-11.34c.483 0 .959.03 1.425.088 1.662-4.956 6.343-8.527 11.859-8.527 6.906 0 12.504 5.599 12.504 12.505 0 .617-.044 1.224-.13 1.817a8.41 8.41 0 11-2.004 16.678h-22.01z" fill="#fff"/><path stroke="#fff" stroke-width="2" stroke-linecap="round" d="M6.64 49.576l5.992-10.273M26.64 49.576l5.992-10.273M13.64 54.576l5.992-10.273"/><defs><clipPath id="clip0"><rect x="48.258" y="26.711" width="8" height="4" rx="2" transform="rotate(30 48.258 26.711)" fill="#fff"/></clipPath><clipPath id="clip1"><rect x="18.814" y="9.711" width="8" height="4" rx="2" transform="rotate(30 18.814 9.711)" fill="#fff"/></clipPath><clipPath id="clip2"><rect x="44.232" y="32.202" width="8" height="4" rx="2" transform="rotate(60 44.232 32.202)" fill="#fff"/></clipPath><clipPath id="clip3"><rect x="27.232" y="2.757" width="8" height="4" rx="2" transform="rotate(60 27.232 2.757)" fill="#fff"/></clipPath><clipPath id="clip4"><rect x="38" y="34.943" width="8" height="4" rx="2" transform="rotate(90 38 34.943)" fill="#fff"/></clipPath><clipPath id="clip5"><rect x="38" y=".943" width="8" height="4" rx="2" transform="rotate(90 38 .943)" fill="#fff"/></clipPath><clipPath id="clip6"><rect x="31.232" y="34.202" width="8" height="4" rx="2" transform="rotate(120 31.232 34.202)" fill="#fff"/></clipPath><clipPath id="clip7"><rect x="48.232" y="4.757" width="8" height="4" rx="2" transform="rotate(120 48.232 4.757)" fill="#fff"/></clipPath><clipPath id="clip8"><rect x="25.742" y="30.175" width="8" height="4" rx="2" transform="rotate(150 25.742 30.175)" fill="#fff"/></clipPath><clipPath id="clip9"><rect x="55.187" y="13.175" width="8" height="4" rx="2" transform="rotate(150 55.187 13.175)" fill="#fff"/></clipPath></defs></svg>