<svg width="1380" height="904" fill="none" xmlns="http://www.w3.org/2000/svg"><path d="M693.881 745.519c-11.345-20.385 12.766-36.805 38.289-36.805 26.942-10.217 4.254-26.897 22.691-46.715 18.437-19.818 36.871 7.078 55.306-11.325 32.392-32.335 4.254-89.182 58.142-103.338 30.666-8.055 53.744-36.752 60.979-55.208 12.763-32.558 51.052-52.377 86.502-103.338 35.45-50.961 41.13-35.387 86.51-135.895 48.29-106.948 63.52-89.183 69.49-79.273 23.8 39.505-3.51 88.282-25.53 127.403l-.98 1.738c-21.62 38.408-40.83 72.543-48.65 117.17-7.94 45.299-11.35 103.338-43.96 107.585-32.62 4.247-52.757 9.06-65.237 39.637-15.599 38.22-62.054 22.662-86.504 43.883-32.62 28.312 21.268 35.39 8.505 79.273-12.763 43.883-46.797 35.39-79.413 35.39-32.617 0-35.453 7.078-34.035 19.818 1.418 12.74-9.923 38.221-24.104 46.714-14.181 8.494-34.041-4.246-39.712-15.571-5.671-11.325-24.108-5.662-38.289-31.143zm-25.488-29.981l-.233.217c-21.213 8.513-23.196-9.931-53.745-9.931-19.236 9.08-53.74-18.443-67.884-31.211-21.215-19.152-56.574-44.236-96.176-29.793-27.402 9.994-69.303 12.768-94.766-7.094-29.196-22.773-52.488-68.837-63.646-85.122-15.553-22.7-39.599-38.305-66.469-53.911-26.871-15.606-81.778-15.985-96.183-28.375-19.794-17.024 11.315-49.654 35.359-59.585 19.235-7.945 60.817 3.31 79.203 9.931 28.289 10.186 56.291 43.98 72.132 49.654 48.09 17.228 55.162 59.586 103.247 82.286 37.312 17.613 76.377 8.512 113.15 28.374 35.359 19.098 46.672-8.513 97.588 21.28 50.917 29.793 39.602 52.493 49.502 76.611 7.828 19.069-4.42 30.471-11.079 36.669z" stroke="#fff" stroke-width="1.6"/></svg>