<svg width="516" height="345" fill="none" xmlns="http://www.w3.org/2000/svg"><path d="M238.432 332.379c1.473 0 2.544.267 3.213.8.679.524 1.018 1.26 1.018 2.21 0 .592-.141 1.12-.422 1.585-.271.466-.683.834-1.236 1.105-.552.262-1.231.393-2.035.393a6.196 6.196 0 01-2.08-.349c-.649-.242-1.173-.562-1.57-.96l.509-.828c.339.348.785.634 1.338.857.552.214 1.148.32 1.788.32.843 0 1.493-.189 1.949-.567.465-.378.698-.882.698-1.512 0-.698-.262-1.226-.786-1.585-.513-.359-1.386-.538-2.617-.538h-2.167l.524-5.104h5.569v.931h-4.653l-.349 3.242h1.309zm12.44 5.075v.931h-7.14v-.742l4.231-4.144c.534-.523.892-.974 1.076-1.352.194-.388.291-.776.291-1.163 0-.601-.208-1.067-.625-1.396-.407-.34-.994-.509-1.759-.509-1.193 0-2.119.378-2.778 1.134l-.741-.64a3.911 3.911 0 011.512-1.076c.62-.252 1.318-.378 2.094-.378 1.037 0 1.856.247 2.457.742.611.484.916 1.153.916 2.006 0 .524-.116 1.028-.349 1.512-.232.485-.673 1.043-1.323 1.673l-3.461 3.402h5.599zm8.638-2.908l-1.803 1.658v2.181h-1.033v-10.789h1.033v7.314l4.566-4.174h1.279l-3.271 3.127 3.577 4.522h-1.265l-3.083-3.839zm15.323-3.868c.959 0 1.711.276 2.253.829.553.553.829 1.367.829 2.443v4.435h-1.032v-4.333c0-.795-.194-1.401-.582-1.818-.378-.417-.916-.625-1.614-.625-.795 0-1.42.247-1.876.741-.455.485-.683 1.159-.683 2.022v4.013h-1.032v-4.333c0-.795-.194-1.401-.582-1.818-.378-.417-.921-.625-1.629-.625-.785 0-1.41.247-1.875.741-.456.485-.684 1.159-.684 2.022v4.013h-1.032v-7.649h.989v1.396a2.756 2.756 0 011.134-1.076c.484-.252 1.042-.378 1.672-.378.64 0 1.192.136 1.658.407.475.272.828.674 1.061 1.207a2.953 2.953 0 011.207-1.178c.533-.29 1.139-.436 1.818-.436z" fill="#C7D4DB"/><path stroke="#F93C00" stroke-width=".727" d="M515.123 300.332v33.078M1 316.872h514.692M.364 300.332v33.078"/><g clip-path="url(#clip0)" stroke="#B3CBE6" stroke-opacity=".5" stroke-linecap="round" stroke-linejoin="round"><path d="M420.849 123.852c-6.498-1.465-10.117.18-10.855 4.935.079-.901-28.326 1.561-27.882 1.394a3.69 3.69 0 01-3.937-.598c-1.533-1.328-3.974-1.576-6.432-1.007a29.052 29.052 0 01-5.269 6.662c-2.062.829-21 5.205-21.329-1.339m168.568-79.48c0 6.09-.173 12.185.086 18.27.103 2.439-1.829 3.677-4.002 4.297-4.139 1.173-6.006 3.649-7.633 6.327a5.737 5.737 0 01-2.974 2.885 5.808 5.808 0 00-2.489 1.694 5.882 5.882 0 00-1.316 2.72 253.26 253.26 0 00-5.188 6.19c-.79 1.807-2.381 3.347-3.418 5.1a71.573 71.573 0 01-2.854 5.853 18.008 18.008 0 00-3.751 4.537c-.495.956-.893 1.96-1.187 2.997-.577 1.724-1.518 2.671-3.964 2.963a7.145 7.145 0 00-4.187 1.912c-2.174 2.103-15.356 9.291-15.399 12.28-.011.794-.544 1.57-.138 2.375" stroke-width="2.022"/><path d="M420.873 124.948c-.134 1.833-1.729 3.404-1.498 5.3a6.61 6.61 0 00.91 2.399 21.033 21.033 0 011.994 10.004c-2.479 1.51-1.565 3.601-1.645 5.502a5.111 5.111 0 01-3.913 2.362 668.481 668.481 0 01-11.842 4.204 12.43 12.43 0 01-5.073 1.086c-2.177-.074-10.925 5.359-11.013 7.326-.021.458-1.121 1.751-2.825.595a27.26 27.26 0 01-10.837-3.697" stroke-width="1.011"/><path d="M454.696 133.9c-3.816-1.381-7.642-2.723-8.511-6.388-.161-.681-.955-1.161-2.132-1.125a14.378 14.378 0 01-6.491-.179c-1.851-2.105-5.026-1.859-7.571-2.199-3.536-1.459-6.578-1.145-9.128.94" stroke-width="2.022"/><path d="M287.825 90.962c.702 2.037 1.065 2.164 2.889.903.707-.469 1.45-.88 2.221-1.231 3.976-1.891 3.92-5.364 5.746-8.087.365-.545-.419-.598-.936-.728a10.35 10.35 0 00-5.996.456c-2.35.456-4.694.93-7.033 1.42-3.553-.04-7.105-.105-10.655-.198-2.132.776-11.175 2.074-13.077 1.253" stroke-width="1.011"/><path d="M171.74 47.84c.036.238.027.58-.246.622a92.345 92.345 0 01-42.313 5.76 14.803 14.803 0 00-7.745 2.938m185.261 5.664c.692 3.092 3.292 5.394 5.846 7.648a76.753 76.753 0 015.764 6.422c8.821 9.657 29.594 1.626 37.965 8.594 4.185 3.484 12.146 2.33 14.792 7.477.072.14 29.593 19.223 31.399 19.59a61.022 61.022 0 0117.648 7.111c1.328.852 2.577 1.815 2.679 3.274" stroke-width="2.022"/><path d="M278.396 119.83c-1.809 1.178-1.806 2.462-.781 4.04.799 1.229 2.075 2.438 1.508 3.999-.125.349.167.564.487.726 1.152 2.533-.058 4.241-3.633 5.126-4.529-.413-9.603 1.81-10.736 4.958a9.727 9.727 0 00-2.531 3.897 9.796 9.796 0 00-.444 4.635c1.312 2.185 2.306 4.518 5.413 5.966 2.633 3.059 1.847 5.515-2.36 7.369a2.755 2.755 0 01-1.426-.167 3.408 3.408 0 00-2.64.036 6.163 6.163 0 01-4.874.367c-1.8-.396-4.061.308-4.487 1.637a334.737 334.737 0 00-5.607 4.01c-.807 2.957-3.805 3.195-6.826 3.238a11.053 11.053 0 00-5.047.989 5.956 5.956 0 01-4.58.249 23.66 23.66 0 00-5.363-.677c-8.186-.666-1.364 11.947-12.85 9.608a52.884 52.884 0 00-21.24 3.438 336.278 336.278 0 00-8.712 6.026c-1.804.248-3.1.171-3.632-1.321-.346-.974-1.222-1.149-2.421-1.122a4.368 4.368 0 01-2.363-.375c-1.919-1.643-4.865-1.162-7.1-2.115-.515-.221-1.42.08-2.145.141m210.889-25.211a9.131 9.131 0 01-7.743-1.264c-1.868.555-2.604 1.646-2.208 3.275.034 3.116-2.4 5.267-6.742 5.629a64.95 64.95 0 00-14.967 7.188 15.537 15.537 0 00-6.323 5.633c-.713 1.075-11.822 5.498-11.836 5.5-.013.002 0 .232 0 .348M38.355 56.612c.832.727 16.41 5.807 18.233 6.613a33.192 33.192 0 0018.874-1.93 10.182 10.182 0 014.13.067 24.702 24.702 0 0013.06 1.646m.968-.003c-5.692 12.899-14.964 23.738-27.813 32.52" stroke-width="1.011"/><path d="M262.919 149.067a6.463 6.463 0 01-5.594-.697 38.176 38.176 0 00-10.135-3.294c-1.845-.348-3.273.604-4.573 1.443a77.948 77.948 0 01-12.132 2.5 8.652 8.652 0 01-7.903-1.092c-1.292-.929-16.086-2.952-18.678-3.696a4.117 4.117 0 00-3.598.833c.428-.295-20.366 6.878-18.863 6.424a18.352 18.352 0 00-7.956 5.459c-4.381 1.696-5.693 3.828-3.936 6.394a4.439 4.439 0 002.197.707m262.155-4.75c.886 2.671.726 2.638-2.383 4.065a19.934 19.934 0 00-5.348 3.98c-.219.209-.247.611-.504.707-4.266 1.584-4.318 5.784-8.378 7.605-1.233.553-1.859 1.71-3.626 2.24a13.577 13.577 0 00-5.528.955 13.682 13.682 0 00-4.682 3.11c-2.474 9.226-18.205 7.695-21.79 14.24m-167.846-15.707c-.44 2.477 2.839 5.743-1.461 7.109-2.191.697-3.786 1.795-4.316 3.584a8.533 8.533 0 00-1.308 3.754c-.838 4.645-3.866 8.424-9.085 11.337a8.697 8.697 0 01-2.931 1.814c-1.856.656-3.689 1.209-4.936 2.687-.94 1.114-2.979 1.471-4.748 1.668-9.249 1.902-13.297 6.116-12.142 12.642.18.299.238.657.161.999a1.346 1.346 0 01-.574.829c-1.8-.116-3.605.114-5.32.677a15.756 15.756 0 00-5.353 4.789 29.173 29.173 0 00-5.119 7.847 2.773 2.773 0 01-1.881 1.657M98.459 59.169c-7.059-14.02-6.256-14.322-23.701-14.892m75.465 68.793a28.347 28.347 0 01-12.105 1.43 54.87 54.87 0 01-10.388.535 35.23 35.23 0 00-12.798 4.826 4.187 4.187 0 00-1.637 2.072 4.227 4.227 0 00-.079 2.647m90.933-78.75a13.1 13.1 0 00-2.036 2.148 10.857 10.857 0 01-5.534 3.17c-5.104 1.285-6.634 4.517-8.878 7.472-2.075 2.73-11.387 8.013-13.541 11.877" stroke-width="1.011"/><path d="M182.381 35.782s21.854 9.407 24.949 11.846a54.663 54.663 0 0113.988 3.683M302.82 59.9c-2.057-.184-.723-1.707-1.626-2.423-.346-.28-.174-.968-.762-1.436-1.383-1.096-2.437-2.355-1.96-3.997a195.052 195.052 0 01-3.586-5.31 16.427 16.427 0 00-2.783-4.708 188.026 188.026 0 00-10.782-4.07 5.645 5.645 0 00-2.666-.951c-2.912-.636-6.175-.034-8.806-1.892-2.915-2.06-21.142 3.949-22.282.506a20.85 20.85 0 00-7.88-1.284c-2.767-.919-8.4 7.761-8.477 7.826a19.89 19.89 0 00-2.145 3.496c.179-.128-8.662 8.619-8.466 7.483-1.088 6.315-16.733 18.733-22.986 24.118" stroke-width="2.022"/><path d="M83.229 74.7c-2.471-2.133-5.635-2.786-9.492-1.96-3.595.93-5.926 3.215-9.37 4.159-18.661 5.117-2.16 7.897-21.042.357a17.444 17.444 0 00-12.095 1.1m270.134 118.583a43.007 43.007 0 00-19.099 2.031c-.311.059-.68.545-.948.325-1.593-1.308-3.449.143-5.111-.335-.823-.233-1.098.413-1.42.735-3.497 3.484-8.532 5.622-12.862 8.372-2.024.697-2.682 1.872-1.974 3.524a3.014 3.014 0 01.069 4.078 2.969 2.969 0 01-1.222.822M193.512.792a33.557 33.557 0 018.284 5.906c6.373 6.983 16.391 27.317 31.862 27.484a10.85 10.85 0 012.903.869" stroke-width="1.011"/><path d="M347.326 133.899a20.26 20.26 0 01-5.365-1.393 4.02 4.02 0 00-3.603-.084 4.998 4.998 0 01-2.639.341c-2.48-.097-4.496.164-5.869 2.026a1.545 1.545 0 01-1.339.635 1.53 1.53 0 01-1.252-.795 4.95 4.95 0 01-.947-1.464c-2.036-2.058-3.512-1.873-4.428.553.02 1.466-1.708 2.06-4.306 2.049-2.56-.011-4.449-1.191-6.474-1.951a36.815 36.815 0 01-9.489-4.848c-1.563-1.201-2.596-1.225-4.117-.189-1.059.72-1.769 1.82-3.623 1.672a6.785 6.785 0 01-3.854-1.493c-.948-.765-1.837-1.171-2.912-.172a1.241 1.241 0 01-1.2.158c-1.946-.617-3.459.26-5.093.753" stroke-width="2.022"/><path d="M360.383 234.668c1.358 1.448.05 2.727-1.047 3.498-1.743 3.359-4.779 5.27-9.108 5.733-2.8-1.056-5.351.162-7.973.568a26.4 26.4 0 01-3.634 3.449M123.611 57.524c.242.183.443.465.731.532 4.497.995 5.468 4.042 6.111 6.799.426 1.837 1.561 3.456 1.89 5.274a14.602 14.602 0 01-.462 6.587 3.928 3.928 0 00.064 2.075 3.895 3.895 0 001.114 1.746 5.587 5.587 0 011.919 4.942m24.667 35.266a71.14 71.14 0 0111.596.871c9.186-1.022 14.686 1.491 16.498 7.537-.133.852 12.925 12.25 14.473 14.982m173.407 53.898c1.691-.081 3.406-.089 4.364-1.457.359-.513 1.092-.299 1.68-.379 1.614-.219 2.065-1.233 1.499-2.378a158.911 158.911 0 01-10.132-7.513c-2.889-5.55-7.104-7.427-12.643-5.632m-114.278-57.372c1.352 1.326 4.632 4.781 4.706 6.579.095 2.322 1.41 3.716 4.381 4.347.408.086.802.231 1.17.429a17.234 17.234 0 009.215 2.35m97.582-92.274c-.167 1.333-1.667 2.154-2.159 3.45-1.07 2.816-.376 5.626-.591 8.43-.085 1.121 1.277 2.017 2.03 2.653a24.407 24.407 0 016.673 9.215 9.312 9.312 0 012.458 3.952 9.358 9.358 0 01.242 4.657c-.807 2.197-2.033 4.59.9 6.564m-15.233 76.191c-2.416.122-4.867.434-6.55-1.451a11.65 11.65 0 00-6.996 2.007 1.808 1.808 0 00-1.884.923 9.369 9.369 0 01-5.121 3.463 1466.784 1466.784 0 00-7.264 6.753M121.194 57.89c.339-6.705-16.015-2.06-18.216-.053-1.492 1.36-4.071 1.36-6.213 1.858-2.275.533-3.68 1.577-3.863 3.125M375.26 219.959c-3.37 2.289-5.204 5.089-5.503 8.401-.096.63-.664 1.153-1.857 1.345-1.7.273-3.259.956-2.933 2.681.146.774-.692 1.074-1.437 1.064a3.11 3.11 0 00-2.661 1.31m-36.036-49.882a5.567 5.567 0 00-3.88-.58c-3.192.538-17.236-.51-19.042 2.25-.216.335-.48.635-.783.891-3.005 2.534-3.06 3.455-1.281 6.605.531.941.485 2.082 1.526 2.903m59.014 15.339a18.644 18.644 0 01-2.914-1.269c-2.23-1.405-5.188-1.31-7.765-1.696-2.136-.319-3.589 1.44-4.583 2.956-.203.307-.423.636-.66.94-2.295 2.948-2.269 2.969-6.811 2.169a7.65 7.65 0 00-5.024 2.787c-2.624 2.316-6.137 2.57-9.731 2.688a5.745 5.745 0 00-4.139 1.828 10.996 10.996 0 01-5.527 2.593 276.257 276.257 0 00-11.615 4.969 1.627 1.627 0 00-1.691 1.21c-.065.244-.075.5-.027.748.132 2.703 1.016 5.451-.896 8.059-1.555 2.121 3.078 6.495 5.274 7.106M376.35 177.2c2.089 1.558 3.206-.547 4.827-.768.383-.052.649-.581.978-.876 1.641-.865 2.548-.562 2.721.911.115 2.065 4.265 5.016 6.951 5.118a2.203 2.203 0 001.47-.348 8.022 8.022 0 017.242-.759c.848.258 1.768.378 2.652.56M254.936 72.963c-2.882-.994-3.844-.411-3.928 1.918-.081 2.268 1.977 3.384 3.665 4.761.084.069.028.24.262.166.173-.053 5.977 4.123 5.712 4.918.076 2.809-1.973 4.02-6.15 3.634-.398-.267-13.159-3.767-13.468-4.712m-83.312 133.754c-4.842.864-7.341 3.833-9.817 6.627a25.733 25.733 0 01-8.08 3.057M30.738 78.171c2.71-12.232-33.1-15.538-14.51-6.212 2.629-1.151 6.054.697 8.464-1.278m141.246-55.365c-4.792-7.143 43.455 2.508 42.083 3.107m241.363 113.65c-1.85 1.643-4.151 2.952-5.848 4.727-4.067 4.258 6.472 15.076 5.781 21.778a15.295 15.295 0 00.422 5.123 20.883 20.883 0 002.698 9.242c1.493 2.201 1.53 4.529 1.697 6.822.103 1.415.859 2.659 1.054 4.016M280.816 15.5c1.407-.569 2.711-1.107 2.998-2.548.159-.8 7.179-4.344 7.795-2.007.747 2.837 3.256 4.944 4.748 7.457a29.587 29.587 0 003.567 6.782m-47.528 11.511c.523.614.951 1.362.563 1.995-1.153 1.882-.195 3.503 1.561 4.516 2.474 1.427 5.357 2.384 7.798 3.976a56.45 56.45 0 017.863 1.75 5.26 5.26 0 004.588.736m54.42 122.238c-.08 0-.213.023-.23 0a16.681 16.681 0 00-9.442-1.221 16.739 16.739 0 00-8.583 4.147m-56.96-86.245a38.96 38.96 0 01-12.081 1.49c-2.911.645-12.39 7.028-12.782 6.699a11.277 11.277 0 01-7.301-2.709c-.012-1.036 0-2.07 0-3.106m-91.43 124.978c-.418 1.416.368 4.878 1.749 5.604a11.336 11.336 0 004.291 4.466c1.209.233 2.982.421 2.805 1.615-.166 1.121-2.051.721-3.056.836-1.49.171-3.315.561-4.578-.646m251.527 1.831c.538.619.08 1.046-.482 1.462a6.048 6.048 0 00-1.949 2.413 6.086 6.086 0 00-.502 3.068 23.29 23.29 0 01-5.978 9.339c-1.121 1.161-1.915 2.466-3.641 3.297a3.398 3.398 0 00-1.663 1.551 3.442 3.442 0 00-.322 2.26 1.002 1.002 0 01-.385.954 4.42 4.42 0 00-1.037 4.891m5.329-61.577c2.322.171 3.682 1.148 4.08 2.931a1.006 1.006 0 01-.3 1.228.99.99 0 01-.411.182c-1.972.867-3.582.703-4.83-.492-2.724-1.464-4.425-.796-5.104 2.002.144.718.136 1.459.258 2.19a12.583 12.583 0 01-3.191 5.111c-.057.358-.219.69-.466.954a1.783 1.783 0 01-.917.525c-1.302.335-1.029 1.086-.73 1.818m-237.996-23.94c4.223 2.294 6.234 5.032 6.031 8.214-1.614 1.533-.551 2.87.499 4.212" stroke-width="1.011"/><path d="M349.018 217.221a10.076 10.076 0 00-3.469 4.762 95.973 95.973 0 01-2.819 8.215m50.061-23.76a19.628 19.628 0 002.421 5.478c2.191 1.194 3.732 2.953 6.252 3.891 1.092.406 2.191 8.296 2.264 7.997-.336 1.364.716 2.439 2.122 3.282M310.811 69.948c1.099-.746-13.747 12.915-10.427 10.936-.407.242-.751.539-1.181.758m-137.618 2.924a18.417 18.417 0 00-7.111 6.358 9.281 9.281 0 01-3.254 2.263 9.217 9.217 0 01-3.895.691c-.04-.03-.009-.116-.009-.175m125.039 14.161a12.267 12.267 0 013.611 3.482 12.375 12.375 0 011.924 4.648c-.609 1.441.691 2.528 1.153 3.716a2.294 2.294 0 003.295-.013c3.797-.754 6.343-2.53 7.637-5.329a10.427 10.427 0 01-.933-9.697" stroke-width="1.011"/><path d="M186.827 37.72c-.939 1.681-3.076 5.007-1.87 6.866 2.369 3.653-10.455 4.54-13.213 3.803" stroke-width="2.022"/><path d="M245.261 113.07c-.959.14-1.939-.258-2.915.165-2.601 1.014-2.678 2.297-.231 3.848 1.426.197 4.682 6.15 3.143 6.04M214.311.7c.08.67.212 1.339.23 2.01.077 2.588-4.79 7.391-6.762 9.684M140.54 185.61c-1.472-8.574-8.517-.078-11.605-3.656-.974-1.128-2.652-1.253-4.126-1.618-3.144-.778-4.105 6.954-2.19 7.866.728.349.298 1.162-.241 1.394-1.671.697-2.406 2.128-4.085 2.778M388.687 75.797c-3.798 1.093-12.754 2-13.992 5.307a10.2 10.2 0 00-2.913 3.564 10.27 10.27 0 00-1.059 4.491c.183.378.217.813.095 1.215a1.661 1.661 0 01-.754.955m-93.359 133.107c2.667.736 4.176 2.72 6.978 3.457 2.723.717 5.007 2.374 8.282 1.432 2.618.275 5.202.809 7.716 1.596m-192.273-6.026c6.077-1.685 11.565-.216 16.914 1.85.481.107.973.16 1.466.159m214.523-174.13c-3.773 2.12-5.837 4.985-6.194 8.594a13.138 13.138 0 005.958 6.207c.397 1.521 3.549 1.69 2.989 3.851-.454 1.753.75 3.518 1.049 5.293.068.399.985 1.364-.657 1.455" stroke-width="1.011"/><path d="M117.812 169.165c1.182 2.763 2.258 5.594 4.435 7.997.938 1.036.576 2.196 1.369 3.149m279.816 41.294a177.762 177.762 0 01-7.032 3.088c-2.559 1.161-3.296 2.328-2.381 4.122.059.116.461.129.702.19M173.68 27.011c1.048-1.256 2.288-.455 3.09.05a24.578 24.578 0 014.89 8.72m266.515 119.313a13.21 13.21 0 00-7.227.569c-4.189 3.358-10.239 4.821-16.231 5.289a17.77 17.77 0 00-4.842 2.365m-43.043 43.854a7.487 7.487 0 00-2.311 2.721 7.53 7.53 0 00-.793 3.491c-.043 1.571 1.737 6.208 3.011 7.368 2.13 1.941 4.325 4.024 3.73 6.885-.231 1.107.691 1.572 1.926 1.828.452.094.518-.139.606-.368M147.317 94.067c-.577.914-1.132 1.841.011 2.733a.656.656 0 01.289.412.673.673 0 01-.09.495 13.85 13.85 0 00-.21 7.324m90.208-5.115c-1.083 2.043-1.52 4.161.94 5.869 1.075.745-8.919 11.112-11.01 3.982-.259-.884-.68-.929-1.539-.898M131.11 200.41c-1.236 1.974-.637 4.529-3.365 6.051a8.075 8.075 0 00-1.204 3.277c-2.312 3.556 1.236 3.601 3.36 6.203m94.327-144.713c-2.606 2.935-6.76 4.786-9.429 7.676-.797.863-1.908 1.597-2.059 2.74m-28.42 32.523a39.767 39.767 0 00.967 9.872m78.595-31.432c.52 1.01-.483 2.246 1.153 3.168.775.438-.965 2.565-2.11 2.461-2.232-.198-3.506.442-4.133 2.041-.469 1.196-1.856 1.295-3.113 1.07-2.001-.358-3.4-.273-4.173 1.478-.652 1.472-2.557 1.486-4.301 1.476m-74.983 115.658a10.945 10.945 0 00-4.354-.548 11.72 11.72 0 00-8.223-.548m235.328 10.416c1.688 1.677 3.262 3.399 2.882 5.663-.146.884.468 1.595.768 2.37.334.861 1.177 1.231 2.391.92M230.753 58.072c-.315-.028-.807 0-.815.183-.028 2.153-1.488 4.222-.85 6.387.772 2.617 0 4.78-4.381 6.217m43.292 30.334c-7.945-2.872 7.785 11.071 3.874 6.028.072.071.152.133.238.185m-78.849-2.375a31.765 31.765 0 01-8.948 9.136m192.518-56.462c2.745.203 2.405 2.193 3.333 3.403.807 1.046.545 2.452 1.929 3.406.316.218.268 1.079-.183 1.595m-82.713-40.743c-1.985 2.083-4.167 4.104-3.635 6.944.057.298.173.697-.017.899-1.893 2.02-.045 3.931.318 5.854.299 1.581.51 3-1.499 4.026m76.668 27.591c8.4-2.116 11.257-8.623 20.074 1.462m49.819 74.732a6.993 6.993 0 001.499 4.909c.768.899.495 1.872.923 2.764m-145.114 13.888c.492 1.535.753 3.135.775 4.747.316 2.306 1.071 3.184 4.304 3.019m47.155 33.344c-.327 1.111-.725 2.217-1.097 3.31-.537 1.572-1.136 3.433 1.106 4.72 1.429.818.703 2.116 1.346 3.149.748 1.203.914 2.61 2.252 3.637.161.123.023.47.023.714" stroke-width="1.011"/><path d="M163.64 123.304l-.363.731c-1.447-.573-3.211-.929-3.832-2.207a10.518 10.518 0 00-6.824-1.609 2.645 2.645 0 01-1.818-1.171 2.693 2.693 0 01-.357-2.144c.365-3.164.727-6.33.954-9.502.139-1.925-1.302-2.695-4.086-2.374M367.28 47.657c-.211.704.316 1.333.363 2.01a1.552 1.552 0 01-.754 1.44 1.533 1.533 0 01-1.616-.034c-1.73-.865-3.113-.285-4.644.056M.752 52.591c1.115 2.732 4.463 3.325 3.386 6.578m221.538-9.136c1.383 2.826 1.952 5.641-.245 8.404.221 2.925.14 5.864-.238 8.772-2.141 2.439-.91 4.994 2.902 6.03m14.993 39.648a16.521 16.521 0 01-1.306-4.015c-.106-1.038-1.216-1.937-2.805-2.197M3.416 59.169a15.86 15.86 0 017.98 5.116m382.364 6.213c-2.921 1.199-4.291 2.965-4.112 5.298m-87.791-15.713c-.406 2.916.277 3.53 5.078 4.568m50.549 94.647a9.54 9.54 0 004.319 3.656c0 .341.093.675.27.965.177.29.43.525.732.678M169.799 20.798a9.206 9.206 0 013.87 5.664m-42.442 201.355c-.764-2.936-4.156-3.115-6.651-1.827m274.968-39.658c-2.686 1.803-6.387 11.6-4.578 14.626m20.557 21.652c.615.143 1.584.027 1.428.819a2.44 2.44 0 01-.79 1.257 2.42 2.42 0 01-1.368.562 53.126 53.126 0 00-7.979 2.018c-.544.195-2.306 3.073-1.906 3.252 1.54.714 1.52 2.345 3.129 2.937.639.232 1.162.985 2.21.241.736-.523 1.249-.892.941-1.687-.135-.348.1-.787-.503-1.001m102.793-162.52c-3.92-.036-7.187 1.486-10.642 2.555M300.167 176.108a5.72 5.72 0 00-.624 6.25c.649 1.329.857 2.528 2.921 2.885m70.021 63.404c.577 1.424 1.153 2.798-.674 4.065a1.945 1.945 0 00-.581.707 1.97 1.97 0 00-.196.896M188.186 4.262a1.412 1.412 0 011.451.664c.098.162.164.342.193.53a10.483 10.483 0 01-1.644 8.033m207.515 187.468a8.957 8.957 0 00-2.422 5.482M74.52 44.917a11.198 11.198 0 00-6.288-3.29m191.781 43.67c-2.522-.067-4.745.34-6.046 2.193m126.245-42.391a75.253 75.253 0 00-1.063 7.696c.72 1.713.014 3.484-1.114 5.093m-118.988 42.576a30 30 0 017.255.73m-162.765 86.79a58.474 58.474 0 0114.269 4.75m79.325-115.111a15.07 15.07 0 01-1.451 6.212m98.68-80.944c1.324 1.171 1.907 2.288.285 3.683-1.022.878-.63 2.323-1.743 3.252-.346.285-.418.78-1.082.827m52.602 67.702c.793 1.38 2.281 2.555 2.177 4.201m70.624 141.058c.941.3 1.916.484 2.902.547 3.473.075 4.353.774 4.353 3.473M230.021 58.074c-.576-1.19-.818-2.538-2.66-3.107m179.578 181.619c-.683 1.79-1.208 2.048-4.474 2.193m-243.786-24.3c-2.313.148-2.115.106-1.517 1.659a4.495 4.495 0 002.484 2.178M4.863 67.208a20.05 20.05 0 005.804 1.278m362.538 133.932c1.223 1.494 2.615 2.929 2.902 4.75M240.912 84.384a3.32 3.32 0 00-.476.55c-1.113 2.09-1.219 2.107-3.635.546M193.51.792c-1.023.28-4.059-.196-4.836.456m180.903 257.814h-4.843M255.425 69.766a21.13 21.13 0 01-1.935 4.386M56.137 80.364c-.007.614 1.352.196 1.21.914" stroke-width="1.011"/></g><defs><clipPath id="clip0"><path fill="#fff" d="M0 0h514.961v259.644H0z"/></clipPath></defs></svg>