<svg width="703" height="439" fill="none" xmlns="http://www.w3.org/2000/svg"><path d="M566.85 218.522c13.668-.024 27.336-.051 41.005-.08m-318.888.294c32.496.012 64.993-.004 97.491-.049m-327.14-.356c22.075.047 44.15.089 66.226.126m447.144 2.906c16.73-.025 33.461-.055 50.194-.088m-329.044.346c31.069 0 62.137-.022 93.205-.065m-293.529-.221c11.738.036 23.476.067 35.213.093m-71.434-.214l6.036.023m515.142 2.987c18.442-.031 36.884-.064 55.327-.102m-338.882.375c30.856 0 61.711-.017 92.567-.052m-293.405-.225c12.77.034 25.54.065 38.309.093m-74.6-.207l5.04.018m541.392 3.125c12.683-.056 25.367-.141 38.052-.256m-347.261.383c33.287.023 66.575.014 99.864-.027m-301.272-.25c14.012.039 28.025.073 42.036.102m474.098 1.878c13.73.083 27.454.207 41.175.372m-349.319-.568c34.193-.029 68.387-.013 102.582.05m-311.549.334c15.304-.058 30.609-.107 45.913-.147m489.638 2.951c9.405.067 18.81.154 28.214.26m-350.693-.568c35.71-.029 71.423-.01 107.138.055m-292.405.234l20.999-.059m506.149 3.127c4.015.035 8.029.074 12.044.116m-352.474-.591c37.44-.028 74.879-.015 112.316.041m-297.64.249c7.683-.021 15.364-.042 23.046-.061m505.204 3.169c4.691.022 9.383.045 14.075.071m-355.128-.511c39.052-.039 78.104-.06 117.157-.061m-302.791.347c8.318-.019 16.637-.037 24.956-.054m502.719 2.935c5.673.063 11.346.135 17.019.217m-357.104-.505c40.754-.04 81.508-.059 122.263-.057m-307.734.337l26.167-.055m-61.425-42.278l12.078.01m-21.529 2.86l23.015.022m-27.849 2.629l31.115.062m-34.164 2.811c12.323.026 24.647.05 36.972.073m130.688 3.072l18.07.018m-189.162-.285c14.785.031 29.569.06 44.352.087m125.084 3.058c12.336.013 24.672.025 37.007.035m-209.991-.307c17.657.038 35.314.072 52.971.102m444.855 2.973c2.343 0 4.685-.004 7.027-.012m-316.045.213c19.036 0 38.071-.021 57.107-.065m-249.064-.332c19.672.042 39.343.079 59.015.113m529.61 28.024c5.693.052 11.386.113 17.078.182m-127.588-.363c2.012-.009 4.023-.016 6.033-.021m-233.913-.026c42.223-.041 84.445-.06 126.667-.058m-313.591.333c10.368-.022 20.736-.042 31.104-.062m494.734 2.789c5.711.036 11.423.078 17.136.126m-129.199-.262l8.882-.019m-232.29-.017c42.565-.024 85.129-.034 127.694-.031m-318.087.205c11.686-.015 23.373-.03 35.059-.043m490.31 2.893c6.358.036 12.713.077 19.067.124m-131.75-.241c5.613-.012 11.224-.021 16.833-.029m-236.435.005c42.531-.026 85.06-.037 127.589-.034m-321.042.219l37.193-.048m488.606 2.906c6.391.039 12.782.085 19.174.14m-133.662-.277c8.974-.021 17.948-.036 26.921-.045m-242.812.015c42.478-.024 84.957-.034 127.437-.031m-321.363.216l37.284-.049m487.515 2.891c6.7.036 13.4.079 20.1.13m-136.43-.252c10.016-.019 20.033-.034 30.051-.044m-244.235.02c43.653-.069 86.904-.069 130.259-.032m-314.122.201c9.401-.013 18.802-.024 28.203-.034m484.2 2.908c7.361.045 14.722.098 22.083.161m-80.302-.355c6.023.007 12.046.017 18.068.031m-76.779-.024c10.588-.01 21.176-.017 31.764-.02m-153.346.008c13.978-.007 27.957-.011 41.936-.013m-74.997.02h7.011m-64.028.026l19.991-.01m-197.927.171l23.075-.028m424.238 2.71c26.888.029 53.776.133 80.665.311m-140.845-.299c11.481-.01 22.962-.016 34.444-.017m-152.378.008c14.698-.005 29.395-.009 44.092-.011m-135.402.047l18.111-.01m-41.215.023h6.029m-121.349.099l6.046-.006m-41.249.048l21.121-.026m420.475 2.696c27.244.012 54.488.052 81.733.121m-143.849-.121c12.462-.005 24.924-.007 37.387-.006m-151.912.004h48.665m-164.202.014l41.2-.009m-105.476.03h11.012m-93.474.028l39.227-.015m399.776 2.861c26.697.019 53.393.048 80.088.086m-256.939-.113c50.579-.014 101.037-.014 150.921.013m-268.429-.001l44.156-.009m-109.556.03h14.082m-90.514.027l38.236-.016m-91.58.041h5.039m484.453 2.825c26.096.019 52.19.048 78.285.088m-255.935-.117c49.98-.015 100.492-.01 151.535.014m-272.035-.003l47.294-.01m-108.704.029h13.087m-86.548.026l46.288-.017m-104.561.044h7.015m485.086 2.822c24.981.017 49.962.043 74.942.079m-254.397-.109c50.977-.012 101.51-.007 151.6.014m-234.213.001h11.098m-51.141.002h22.014m-79.926.017h12.921m-85.492.026c15.455-.007 30.909-.013 46.362-.017m-108.668.047h5.014m489.558 2.825c24.067.017 48.134.043 72.202.079m-250.884-.114c50.534-.011 100.991-.011 150.752.017m-232.711-.003h11.015m-53.978.003h18.992m-74.945.015h14.009m-85.397.027c15.082-.008 30.163-.013 45.245-.017m-113.545.048h6.047m493.405 2.821c23.119.015 46.236.038 69.352.07m-247.741-.101c50.033-.011 99.049-.011 149.274.014m-231.76 0h11.058m-55.986.002h15.964m-70.175.018l16.053-.006m-87.115.03c15.007-.007 30.015-.013 45.022-.017m-138.688.063l29.236-.016m494.649 2.741c22.637-.014 45.273-.035 67.909-.062m-244.997.091c49.586.01 100.044.01 149.055-.013m-231.321.004h10.021m-70.05-.01h23.993m-65.073-.01h20.036m-90.958-.022l45.928.014m-153.049-.058l43.014.02m494.699 2.928c22.359-.014 44.718-.033 67.078-.058m-243.203.085c49.417.01 99.874.01 149.182-.014m-234.184.003h11.981m-113.329-.02c21.734.006 43.469.011 65.204.015m-132.315-.035l47.065.016m-154.618-.062c14.067.008 28.135.015 42.202.021m493.894 2.927c21.411-.013 42.823-.032 64.233-.056m-239.46.083c33.362.007 66.722.007 100.082 0m-188.832-.012h15.921m-179.694-.035c42.58.058 87.271.058 130.75.032m-239.213-.078l41.16.018m473.666 2.943c27.077-.013 54.154-.033 81.231-.061m-234.944.072c33.275.004 66.55.004 99.825 0m-194.198-.011h21.074m-180.119-.037c43.356.059 88.048.059 131.912.032m-238.728-.076c13.441.008 26.883.014 40.324.02m476.617 2.943c24.987-.011 49.973-.031 74.959-.06m-198.068.068h65.619m-98.711 0h15.126m-115.98-.011h28.239m-180.746-.036c42.792.058 87.483.058 131.422.033m-237.112-.074l39.287.017m476.578 2.942c23.63-.009 47.26-.026 70.89-.052m-195.028.047c22.051.009 44.103.014 66.155.016m-99.282-.01h15.036m-75.935.01h26.917m-218.649-.049c62.695.058 123.248.058 184.761.048m-287.523-.089l37.277.017m475.012 2.896c22.915-.031 45.831-.086 68.747-.167m-192.389.149c22.224.029 44.449.046 66.673.051m-98.886-.032l14.115-.01m-267.932-.106c72.932.181 146.456.181 219.56.138M60.02 297.65c11.74.018 23.479.034 35.218.049m473.623 3.075c22.606-.027 45.211-.077 67.816-.151m-191.878.129c23.731.032 47.462.049 71.192.052m-102.28-.035l12.997-.01m-268.02-.126c73.815.202 147.339.202 221.001.16m-315.712-.288l34.257.054m469.411 3.093c22.758-.029 45.516-.083 68.274-.162m-191.476.141c25.071.034 50.14.051 75.209.051m-106.386-.033l13.102-.011m-268.358-.126c73.049.203 148.012.203 222.038.158m-311.677-.278c11.75.019 23.5.036 35.248.053m465.162 50.758c15.544.015 31.088.034 46.631.055m-98.125-.104c9.202.008 18.405.019 27.608.03m-175.881-.007c38.603-.044 77.205-.058 115.806-.044m-194.086.175c20.065-.047 40.13-.084 60.195-.11m-123.71.107l9.029.024m-42.129-.097c1.671.004 3.343.008 5.015.01M87.48 354.13c15.256 0 30.512.007 45.768.021m437.111 2.929c14.623.015 29.246.031 43.869.051m-94.81-.098c8.353.007 16.706.015 25.058.025m-173.085-.008c38.336-.041 76.672-.054 115.008-.038m-194.467.165c19.508-.045 39.016-.079 58.525-.102m-123.305.133c3.021.009 6.041.018 9.06.029m-43.282-.115l8.053.017m-115.963-.124c16.126-.008 32.251-.001 48.377.02m437.853 2.932c13.932.014 27.864.031 41.796.05m-91.808-.101l23.076.024m-172.021-.004c38.334-.045 76.667-.06 115-.044m-194.361.185c19.087-.047 38.175-.085 57.262-.112m-123.204.125l8.991.027m-42.954-.112l8.991.02m-119.944-.13c16.963-.007 33.924 0 50.884.021m439.944 2.928c13.102.013 26.204.028 39.307.045m-90.393-.097c7.295.006 14.59.015 21.886.025m-155.958-.016c33.717-.035 67.434-.045 101.15-.032m-195.57.191c19.091-.049 38.181-.087 57.273-.113m-125.882.112c3.954.011 7.911.024 11.869.037m-41.535-.11l9.888.021m-123.923-.133c18.074-.012 36.148-.006 54.221.021m436.878 2.825h38.929m-88.73.005h20.82m-153.339-.002h99.59m-195.112-.012c18.918.004 37.836.007 56.754.008m-154.15-.002l40.072-.009m-155.679.017h56.607m435.402 2.875h35.924m-86.584.004h20.676m-153.969-.002h99.661m-194.692-.011c20.032.004 40.064.008 60.097.009m-157.355-.004l39.545-.009m-133.092.018h38.158m432.028 2.874h33.863m-85.478.005h20.683m-153.629-.002h99.216m-193.489-.012c20.47.005 40.94.008 61.41.01m-158.314-.005l39.123-.007m-109.871.015h17.789m429.826 2.876h31.184m-84.007.004h22.71m-155.321-.001h96.839m-145.142-.005h15.719m-60.986-.008h26.188m-123.966.006l37.086-.008m-95.336.014h8.029m428.204 2.877h24.806m-80.414.004h26.772m-161.25-.001h95.586m-138.9-.005h14.709m-62.108-.007h25.624m-122.296.007l39.014-.007m342.432 2.889h14.975m-75.925.004h30.967m-167.871-.001h94.143m-134.317-.004h18.08m-64.228-.008h25.112m-122.019.007l41.315-.007m278.307 2.839l34.042-.039m-210.531-.033c43.29.128 87.981.128 130.602.102m-155.514-.153l4.978.011m-117.751.015c12.048-.026 24.095-.058 36.142-.096m276.744 3.074c11.679-.01 23.358-.022 35.036-.037m-211.141-.045c42.749.137 87.441.137 130.088.113m-259.496-.158c8.889-.023 17.779-.049 26.669-.079m280.61 3.108c10.731.006 21.461.009 32.19.008m-225.879-.077c36.244.097 72.489.104 108.733.02m-216.444-.111l16.108-.044m288.153 3.082c9.353.006 18.705.009 28.058.011m-220.46-.061c19.151.042 38.302.058 57.454.047m140.171 2.881c7.295.006 14.59.009 21.885.011m-209.205-.027c11.685.014 23.368.02 35.051.017m156.91 2.88l16.028.008m-207.149-.021c7.368.008 14.737.012 22.106.013m241.651-90.796c9.942-.021 19.887-.049 29.834-.082m-67.537.148c6.256-.008 12.512-.017 18.768-.028m-141.406.001c25.129.044 50.259.064 75.388.062m-105.361-.046l11.917-.008m-269.444-.13c74.544.203 148.069.203 222.706.161m-305.294-.272c10.077.017 20.154.032 30.231.045m501.331 3.016c9.373-.024 18.746-.052 28.119-.083m-68.289.157l19.082-.03m-141.043.006c22.947.031 45.894.048 68.842.052m-98.92-.034l11.957-.01m-270.982-.129c75.362.202 151.766.202 226.192.161m-300.675-.26l25.16.037m501.219 3.019c9.063-.02 18.129-.045 27.197-.075m-70.513.149c6.715-.008 13.43-.018 20.145-.029m-139.768-.001c22.432.03 44.864.048 67.296.053m-359.185-.18c91.269.212 183.533.212 273.781.134m-339.208-.22l21.155.03m500.173 2.911c8.682-.037 17.365-.081 26.049-.131m-75.141.282c4.008-.007 8.015-.016 12.021-.026m-127.568.042c22.465.024 44.93.036 67.396.035m-206.252-.107c39.961.046 79.923.071 119.885.076m-276.765-.295c46.727.362 94.302.362 140.821.203m-199.116-.334l23.114.056m503.52 3.058c5.704-.025 11.408-.053 17.113-.083m-78.513.266c5.034-.009 10.067-.018 15.1-.029m-127.715.027c23.135.028 46.27.042 69.404.041m-204.195-.135c38.923.054 77.845.086 116.766.095m-332.827-.242c65.773.317 130.647.317 197.007.135m329.587 2.783c5.347-.026 10.694-.054 16.041-.085m-79.203.287c5.013-.009 10.026-.02 15.04-.032m-127.847.034c23.293.028 46.586.041 69.877.038m-202.301-.133c37.473.051 74.947.082 112.421.093m-329.485-.224c64.634.304 130.951.304 195.997.12m329.606 2.798c5.047-.023 10.091-.047 15.134-.073m-77.688.26c4.708-.008 9.417-.017 14.125-.028m-128.268.028c23.422.028 46.845.042 70.268.041m-200.031-.139c36.56.052 73.121.084 109.682.096m-219.21.035c28.793 0 57.586-.047 86.378-.141m-161.774.027c16.834.048 33.669.082 50.505.101m440.919 2.645c5.039-.025 10.078-.051 15.115-.079m-77.615.286c4.703-.009 9.407-.019 14.112-.031m-126.677.042c22.716.027 45.433.038 68.15.035m-110.189-.046h11.073m-58.389-.034l17.114.018m-57.378-.07l16.106.022m-55.047-.006c4.941-.008 9.882-.018 14.822-.028m-53.746.096c5.377-.009 10.754-.019 16.13-.032m-100.829.052c8.401.013 16.804.021 25.207.024m440.408 2.659c5.371-.023 10.742-.049 16.113-.078m-78.555.263c5.372-.008 10.743-.019 16.115-.031m-68.822.073h11.007m-68.046-.034c12.009.012 24.017.022 36.025.028m-166.515-.131l15.068.02m-50.13-.003l12.941-.025m-140.174.121c8.026.011 16.053.018 24.08.02m440.5 1.699c5.324.019 10.648.04 15.972.063m-77.87-.218l16.971.028m-68.657-.066h10.082m-67.554.025c11.429-.009 22.856-.016 34.281-.021m-165.026.101l15.109-.016m-49.357.003c4.366.008 8.732.014 13.097.019m-141.085-.096c7.734-.008 15.469-.012 23.205-.014m439.676 3.052c5.324.018 10.648.039 15.972.061m-79.865-.198c6.657.008 13.312.017 19.967.027m-65.07-.033h11.044m-71.284.088c11.045-.025 22.089-.046 33.133-.062m-166.137.431c5.711-.024 11.423-.047 17.135-.069m-47.178-.003l14 .072M150.531 334c8.009 0 16.016.004 24.024.011m438.341 3.029c4.919.019 9.838.039 14.757.062m-120.862-.241c21.152-.009 42.304.008 63.456.052m-121.874.035c10.073-.025 20.146-.044 30.217-.058m-197.274.457c16.122-.063 32.245-.119 48.368-.167m-179.272-.288c8.37.004 16.74.017 25.11.038m-84.084.038c11.69-.032 23.38-.054 35.071-.068m484.946 3.001c4.941.018 9.882.038 14.824.059m-117.601-.221c25.331-.009 50.663.018 75.995.082m-133.15 0c8.907-.023 17.814-.041 26.722-.053m-196.977.458c17.682-.068 35.364-.127 53.045-.178m-146.762-.101c3.692.011 7.384.025 11.076.04m-35.24-.115l6.04.019m-78.237-.123c18.357-.014 36.716.005 55.074.059m464.615 2.97c4.299.016 8.598.034 12.896.055m-113.689-.233c24.319-.004 48.638.025 72.958.089m-129.394-.02c8.228-.019 16.455-.034 24.682-.044m-192.094.435c32.289-.122 64.577-.214 96.865-.277m-194.703.031l11.073.043m-109.438-.228c18.58-.012 37.16.009 55.74.062m464.075 2.954c3.692.014 7.383.029 11.075.045m-110.421-.211c24.117-.004 48.235.025 72.353.086m-129.228-.02c8.626-.019 17.253-.034 25.879-.045m-190.213.42c31.157-.113 62.313-.199 93.471-.257m-191.118.037l7.026.028m-109.964-.223c17.662-.015 35.325.002 52.989.051m466.266 2.873l10.969.023m-106.661-.11c23.586 0 47.172.016 70.758.047m-129.207-.021c8.978-.008 17.955-.014 26.932-.019m-65.18.052l12.079-.011m-137.079.143c30.677-.049 61.353-.085 92.029-.11m-188.976.034l5.026.009m-110.124-.109c16.51-.005 33.019.003 49.528.024m466.892 2.92l11.911.024m-101.903-.103c22.703 0 45.406.015 68.109.045m-130.17-.02c10.01-.009 20.023-.015 30.04-.02m-77.012.06l25.97-.026m-141.476.151c31.134-.049 62.267-.086 93.4-.11m-190.242.032l5.029.01M88.9 351.256c15.119-.005 30.238.001 45.357.018" stroke="#B7B48F" stroke-width=".502" stroke-linecap="round" stroke-linejoin="round"/><path d="M701.992 123.18c-5.139 1.71-7.879 1.196-11.133 2.735-3.255 1.54-2.569 4.106-6.851 3.591-4.282-.515-6.508-5.301-10.104-3.933-3.597 1.368-4.797 4.965-8.05 7.7-3.254 2.736 5.478 6.5-.171 12.658-5.648 6.158-5.478 12.451-8.906 11.356-3.428-1.094-5.138-4.174-8.391-2.634-3.254 1.54-6.507 3.249-8.735-1.54-2.228-4.789-3.254-4.618-9.248-4.618-5.995 0-25.86.513-33.054-1.539-7.193-2.052-13.872-9.067-20.55-10.263-6.678-1.197-22.607-.856-24.491-2.566-1.883-1.71-11.159-3.529-11.159-3.529s-16.099.343-20.552-.684c-4.454-1.026-8.217 2.395-13.015 2.395-4.797 0-11.304-3.078-14.729-3.078-3.425 0-4.795-6.842-11.474-4.277-4.722 1.815-8.217 0-14.386-3.078-6.169-3.078-11.818 2.052-16.443 4.617-4.625 2.565-13.358-.513-18.496-2.565-5.137-2.053-2.055-11.288-13.358-11.803-11.304-.515-2.569-7.7-13.873-5.06-11.305 2.641-10.789-5.203-17.469-5.203-6.679 0-5.138-4.617-13.358-4.617-8.221 0-11.818-2.053-9.248-6.671 2.569-4.618-3.084-9.236-11.305-10.264-8.22-1.027-8.734 0-19.524-1.539-10.79-1.539-11.818-5.131-19.525-5.645-7.707-.514-7.71 9.75-15.413 4.62-7.703-5.133-11.304-3.593-18.497-2.566-7.192 1.026-12.338 1.027-20.555-2.566-8.217-3.592-14.901-2.565-22.093.513-7.193 3.078-3.082 7.184-9.762 7.7-6.679.516-9.763 2.566-11.304 7.7-1.541 5.135 3.594 17.442-4.116 18.468-7.71 1.027-12.845-9.236-21.58-10.262-8.734-1.026-3.595-5.644-11.302-13.464-7.707-7.82-6.679-1.925-13.359-2.957-6.679-1.031-10.791 2.566-16.441 2.945-5.651.379-5.651-9.103-12.846-9.103-7.194 0-7.71 11.29-13.358 8.724-5.649-2.567-7.71-6.158-15.414-5.132-7.704 1.026-11.885-3.546-14.9-7.7-3.68-5.071-8.768-1.902-23.12-5.132-5.783-1.302-8.458-3.04-12.892-3.04-4.013.01-23.202 7.516-27.045 1.296s2.703-9.538 1.713-16.376c-.99-6.838-11.984-7.38-11.444-13.228.541-5.85-4.401-7.666-4.793-14.325C15.359 10.52 2 1.161 2 1.161m.002 123.964c13.359 2.052 5.31 12.815 13.531 15.893 8.22 3.078-2.56 17.028.342 33.71a37.16 37.16 0 0013.601 22.824 37.247 37.247 0 0025.381 7.929c21.237-1.025 22.473-19.473 34.2-27.436 11.728-7.964 39.339-.237 51.669 2.842 12.33 3.079 51.379 4.445 62.339 4.788 10.961.342 17.469-2.394 30.142-5.816 12.674-3.421 42.818-4.448 55.147-4.788 12.33-.34 24.662 6.156 42.811 7.867 18.149 1.712 27.098-5.137 34.135-7.511 7.036-2.375 19.606.649 26.836-4.458 7.229-5.108 21.644 2.195 30.175 1.439 8.531-.756 16.123 2.971 18.864 6.049 2.742 3.078 8.85.38 16.726 1.064 7.876.684 14.045 4.79 20.552 6.5 6.508 1.711 24.866 1.477 30.345.791 5.48-.686 9.248 3.592 12.332 4.619 3.084 1.026 12.844.341 16.27.341s6.934 5.142 13.701 5.762c6.768.62 7.944 5.652 16.849 5.309 8.905-.342 14.266-4.55 22.318-3.029 8.052 1.52 14.034 11.963 28.592 11.279 14.558-.684 59.663 20.705 83.127 19.85" stroke="#B3CBE6" stroke-width="2.009" stroke-linecap="round" stroke-linejoin="round"/><path d="M3.777 132.907c7.761 4.723-1.51 8.633 6.71 11.711 8.22 3.078-5.73 21.312-3.947 39.811 1.783 18.5 18.724 37.589 47.918 28.039 29.193-9.55 30.016-18.109 42.889-24.476 12.872-6.367 31.049-4.826 43.379-1.748 12.33 3.078 51.379 4.448 62.339 4.79 10.961.343 20.367 4.154 33.04.737 12.673-3.417 41.371 1.782 53.701 1.44 12.33-.343 23.21-6.624 41.365-4.914 18.154 1.71 29.328-6.222 36.366-8.595 7.037-2.373 19.702-.055 28.231-4.01 8.53-3.956 16.698 4.762 25.229 4.01 8.532-.752 10.82 1.275 15.866 4.844 5.046 3.569 13.167-.354 21.044.329 7.878.683 14.045 4.788 20.552 6.5 6.508 1.711 22.845 1.667 28.325.984 5.48-.684 8.443 3.425 11.526 4.451 3.083 1.027 13.034-.72 16.459-.72 3.425 0 6.208 6.698 12.975 7.318 6.768.62 11.308 5.132 20.213 4.789 8.905-.344 13.545-2.229 21.596-.71 8.051 1.52 15.356 8.217 29.914 7.533 14.558-.684 56.1 25.342 82.526 21.277" stroke="#61937E" stroke-width=".502" stroke-linecap="round" stroke-linejoin="round"/><path d="M7.879 120.667c13.358 2.053 6.213 13.873 26.396 15.672 20.183 1.8-1.802 21.378.72 35.275 2.522 13.897 16.218 16.42 26.31 7.199 10.092-9.222-2.454-28.562 5.767-30.956 8.22-2.394 61.324 21.5 73.651 24.578 12.327 3.078 54.143-.495 65.105-.151 10.961.343 17.241-3.368 29.914-6.789 12.673-3.42 40.274 1.467 52.61 1.125a342.565 342.565 0 0143.98 1.395c18.153 1.71 22.156-4.106 29.194-6.479 7.037-2.373 21.405 2.95 28.64-2.16 7.234-5.111 23.617 5.333 32.147 4.578 8.531-.755 18.865 5.071 21.388 4.661 2.523-.41 6.326 1.768 14.202 2.452 7.877.684 14.045 4.788 20.553 6.499 6.507 1.712 24.865 1.475 30.345.792 5.479-.684 9.248 3.592 12.332 4.617 3.084 1.024 12.843.342 16.269.342 3.426 0 4.672 3.627 12.16 4.965 7.488 1.337 7.156 5.307 16.062 4.964 8.907-.342 16.173-6.144 24.223-4.623s13.374 10.673 27.933 9.989c14.559-.684 60.744 24.732 84.207 23.876" stroke="#8DA1B2" stroke-width=".502" stroke-linecap="round" stroke-linejoin="round"/><path d="M2.002 109.194c13.359 2.053 12.09 17.865 32.273 19.665 20.183 1.799 23.426 10.079 44.69 7.48 21.265-2.599 40.266 23.98 61.761 28.616 21.494 4.636 54.143-.494 65.105-.151 10.961.344 17.241-3.368 29.914-6.788 12.673-3.421 40.274 1.467 52.609 1.124a342.762 342.762 0 0143.981 1.396c18.153 1.71 22.156-4.105 29.194-6.48 7.037-2.375 19.072 1.52 28.639-2.16 9.568-3.68 20.853 3.642 32.148 4.579 11.295.937 27.713 6.428 35.59 7.112 7.878.684 14.045 4.79 20.553 6.5 6.507 1.71 24.865 1.475 30.345.791 5.479-.684 25.175 4.965 28.601 4.965 3.426 0 19.316 10.268 28.222 9.929 8.907-.34 13.47-9.242 21.521-7.721 8.05 1.522 91.379 37.819 114.838 36.964" stroke="#768693" stroke-width=".502" stroke-linecap="round" stroke-linejoin="round"/><path d="M8.842 61.043c3.705 4.316 9.803 7.946 14.621 13.273 5.55 5.454 19.196 1.405 24.103 7.046 3.842 4.938 19.174 1.409 24.81 2.339 3.961.653 6.84 2.051 11.88 3.337 11.607 2.959 17.067 1.498 21.514 5.644 3.485 3.25 7.73 6.825 14.427 6.61 6.629-.239 9.378 2.576 14.569 4.667 5.311 2.128 7.067-5.03 13.341-4.724 6.391.334 7.769 6.889 12.912 6.824 5.506-.067 9.761-2.362 15.505-1.847 5.918.533 5.985-3.599 11.928.578 5.889 4.135 3.301 5.786 10.1 5.02 7.117-.8 11.856 4.233 18.954 2.515 6.567-1.591 4.926-10.125 7.692-14.054 2.418-3.433 5.502-5.017 11.459-5.348 5.478-.304 3.582-3.119 9.593-4.928a31.095 31.095 0 0120.843.574 44.633 44.633 0 0019.288 2.851c6.486-.283 10.55-.964 17.428 2.893 6.731 3.772 8.166-2.682 14.894-1.934 6.961.777 7.467 8.162 16.519 6.714 9.01-1.44 2.954-5.26 9.73-7.92 5.046-1.979 10.166.671 10.426 4.12.747 9.919 15.167 17.607 21.939 17.89 6.936.288 7.086 3.618 12.763 3.85 2.88.117 4.566 1.456 6.542 2.563 2.319 1.303 1.989-4.469 7.078-5.382 9.029-1.621 1.126 7.883 10.361 8.214 9.283.332 3.981 6.282 9.19 7.614 5.098 1.302 23.972 5.549 28.78 3.757 4.684-1.745 10.09-5.282 15.826-3.234 5.537 1.979 9.232 3.258 13.727 1.97 5.732-1.643 7.758 2.837 11.196 2.846 3.666.014 9.415 2.103 13.939 2.17 4.47.064 8.181-2.095 12.316-1.317 5.121.961 18.021 1.058 19.535 1.593.798.283 8.051 1.892 10.397 3.379 2.93 1.858 15.835 2.387 22.538 4.008 6.265 1.513 12.661 6.86 19.442 8.986 7.47 2.345 23.683 3.29 30.422 3.98 5.003.513 6.64.524 9.046 4.032 2.382 3.471 5.438 2.634 8.484 1.85 2.987-.769 9.971 6.56 13.046 7.497 3.619 1.101 4.712-2.787 9.767-6.606 5.086-3.843.261-6.115 3.551-7.801 3.265-1.692 4.721-4.762 8.028-5.681 3.565-.992 1.251-2.079 4.831-2.41 4.831-.448 6.218-3.936 9.98-6.672 5.986-4.357 10.369-7.926 13.899-9.066" stroke="#8DA1B2" stroke-width=".502" stroke-linecap="round" stroke-linejoin="round"/><path d="M2.002 67.421c3.705 4.316 16.637 12.656 21.46 17.978 5.55 5.455 19.196 1.405 24.103 7.047 3.842 4.938 19.174 1.408 24.81 2.338 3.96.653 6.839 2.052 11.88 3.337 11.606 2.959 22.205 3.796 27.868 6.423 5.664 2.627 19.495 7.174 26.191 6.958 6.628-.239 11.292-6.383 15.137-2.308 3.845 4.075 29.053 2.501 35 6.678 5.889 4.135 4.574 1.569 11.373.803 7.116-.801 11.885 3.748 18.982 2.026 6.568-1.591 7.564-5.572 10.332-9.507 2.417-3.43 1.561-4.858 7.518-5.189 5.478-.304 3.582-3.118 9.593-4.93a31.094 31.094 0 0120.843.575 44.631 44.631 0 0019.287 2.851c6.486-.282 10.551-.963 17.429 2.893 6.731 3.774 8.166-2.683 14.894-1.934 6.961.776 7.467 8.161 16.518 6.714 9.011-1.44 2.954-5.259 9.731-7.919 5.046-1.98 6.786-.321 7.046 3.128.748 9.919 38.517 18.594 43.578 21.265 5.06 2.672 4.7-6.328 8.484-6.328s8.658 17.54 23.066 19.258c14.407 1.717 42.321-.848 48.055 1.199 5.537 1.979 28.352.241 52.62 2.4 24.267 2.159 36.998 11.493 43.7 13.113 6.266 1.515 12.662 6.86 19.443 8.987 7.469 2.343 20.282-.832 27.021-.143 5.003.513 6.473.756 8.879 4.263 2.382 3.471 8.623.978 11.666.193 2.988-.769 10.621 8.64 13.696 9.581 3.62 1.102 4.45.68 9.505-3.14 5.085-3.843.26-6.115 3.55-7.802 3.266-1.693 2.379-8.295 5.681-9.215 3.565-.992 4.53-5.248 8.109-5.579 4.831-.447 5.248-1.942 9.011-4.68 5.985-4.357 10.402-3.218 13.927-4.357" stroke="#768693" stroke-width=".502" stroke-linecap="round" stroke-linejoin="round"/><path d="M2.002 223.234c15.694 7.532 30.59 5.132 30.59 26.249 0 21.117-5.352 34.795 11.5 50.633 16.853 15.838 37.036 7.918 44.965 22.318 7.93 14.399-43.002 93.669-87.055 49.673" stroke="#527A68" stroke-width=".502" stroke-linecap="round" stroke-linejoin="round"/><path d="M701.992 324.957c-8.891-2.305-43.842 26.315-61.502 13.678-17.66-12.638-24.869-41.034-56.946-34.384-32.076 6.649-58.387-17.809-71.357-18.529-12.97-.721-28.838 7.198-13.695 49.839 15.142 42.64-2.163 112.858-59.108 101.341-56.945-11.518-55.984-70.791-22.826-93.222 33.158-22.43 31.235-71.631 11.534-91.313-19.701-19.682-60.549-5.37-80.795-5.37-20.246 0-33.579-6.148-49.436-20.546-15.856-14.398-52.111-1.723-78.386-1.723s-39.948-1.272-39.948 22.845c0 24.116-11.839-6.658-21.985-16.601-10.146-9.944-47.579-30.193-47.579-36.313 0-6.119 32.678 3.96 53.985 10.823 21.307 6.863 49.811-.625 73.74-5.16 23.928-4.535 32.299 14.614 58.728 5.16 26.429-9.454 33.064.709 50.877-3.023 28.654-6 36.583-14.995 53.158-11.759 16.576 3.236 13.696 17.707 30.996 24.331 17.3 6.625 30.275-.279 34.96 17.934 4.684 18.212-7.929 56.364.36 59.963 8.289 3.6 11.533-48.233 24.508-51.469 12.974-3.236 17.66 24.572 29.913 16.785 12.254-7.786 10.705-43.352 35.987-43.207 25.282.146 26.725 5.827 35.736 7.486 9.011 1.658 23.426-3.098 31.355 0 7.93 3.098 24.145 5.905 37.483 14.221 13.339 8.316 27.134 21.512 40.239 19.233" stroke="#62A58A" stroke-width=".502" stroke-linecap="round" stroke-linejoin="round"/><path d="M347.293 302.27l-.321-9.302a1.436 1.436 0 00-1.49-1.389l-1.441.048a1.437 1.437 0 00-1.39 1.489l.171 4.987a1.438 1.438 0 01-1.391 1.488l-76.622 2.649a1.444 1.444 0 01-1.491-1.389l-.661-19.272a1.439 1.439 0 00-1.49-1.389l-1.441.048a1.443 1.443 0 00-1.391 1.489l.662 19.274a1.438 1.438 0 01-1.391 1.489l-35.99 1.244a1.458 1.458 0 01-1.033-.387 1.442 1.442 0 01-.457-1.003l-.664-19.286a1.436 1.436 0 00-1.49-1.389l-1.44.048a1.442 1.442 0 00-1.392 1.49l.661 19.287a1.437 1.437 0 01-1.391 1.488l-35.555 1.228a1.459 1.459 0 01-.645-.127 1.463 1.463 0 01-.522-.4l-16.018-19.571a1.443 1.443 0 01-.326-.863l-1.283-37.343a1.444 1.444 0 00-.599-1.115l-55.593-40.04a1.434 1.434 0 00-.893-.271l-24.887.852a1.442 1.442 0 00-1.39 1.489l.317 9.239a1.442 1.442 0 001.49 1.389l1.44-.049a1.441 1.441 0 001.391-1.488l-.168-4.924a1.436 1.436 0 01.387-1.031c.26-.279.622-.443 1.004-.457l19.087-.653c.32-.012.634.083.893.27l52.675 37.938a1.444 1.444 0 01.598 1.114l1.26 36.686c.012.315.126.618.326.862l35.039 42.81a1.442 1.442 0 01-.051 1.882l-9.01 9.86a1.435 1.435 0 00.093 2.034l1.065.971a1.443 1.443 0 002.036-.093l32.538-35.606a1.437 1.437 0 011.015-.468l37.628-1.3a1.444 1.444 0 011.49 1.389l.575 16.762a1.437 1.437 0 00.935 1.299c.178.066.366.096.556.09l1.44-.049a1.442 1.442 0 001.391-1.488l-.575-16.765a1.437 1.437 0 011.39-1.488l80.947-2.797a1.44 1.44 0 001.392-1.49zm-152.172 23.708l-11.695-14.286a1.439 1.439 0 011.067-2.349l25.558-.884a1.448 1.448 0 011.359.835c.119.258.16.544.117.825a1.45 1.45 0 01-.36.751l-13.863 15.171a1.445 1.445 0 01-1.708.321 1.453 1.453 0 01-.481-.386l.006.002z" fill="#CCCABC"/><path d="M11.295 1.358c4.955 5.309 9.281 20.162 12.524 23.396 3.244 3.234-.36 7.56 2.163 9 2.523 1.439 9.01 5.039 10.45 8.278 1.438 3.239 11.893 10.436 26.31 10.798 14.417.363 32.617 1.44 35.23 7.199 2.614 5.759 16.669 10.104 26.04 7.396 9.371-2.708 16.579-4.872 19.463-1.633 2.884 3.239 6.127 9.718 11.894 9.718 5.766 0 13.154.72 15.498-1.8 2.343-2.519 5.766-6.298 11.894-.54 6.127 5.76 8.649 11.34 11.533 13.859 2.884 2.52 9.371 5.4 11.173 3.96 1.801-1.44 8.826-7.02 11.533-9.179 2.708-2.159 6.128-4.5 8.29-4.5 2.161 0 3.423 1.08 3.964-.36.541-1.439 3.246-6.838 6.488-7.738 3.241-.9 10.993-4.14 15.677-3.242 4.685.898 13.155 4.863 16.942 5.4 3.787.535 8.65.72 12.435-.54 3.785-1.261 12.072-3.06 14.596-1.08 2.524 1.979 5.766 5.579 7.569 4.678 1.803-.9 3.784-4.32 7.569-5.04 3.71-.63 7.522-.192 10.993 1.261 2.702 1.26 10.812 5.04 15.858 5.04 5.046 0 18.024-1.081 23.426 1.981 5.403 3.063 7.93 5.01 8.65 7.544.72 2.535-.541 5.464 2.523 6.16 3.064.697 8.649 1.775 12.614 5.194 3.965 3.42 3.965-.18 7.749 2.16 3.784 2.339 5.046 5.398 9.73 4.499 4.685-.9 8.826-4.32 11.534-1.621 2.708 2.698 1.081 7.019 5.406 6.658 4.325-.361 8.11-.18 9.551 2.52 1.442 2.7 4.506 7.739 8.11 7.739 3.605 0 9.731 3.599 13.876.899s9.552-5.399 13.516-3.959c3.965 1.439 10.092 5.248 13.335 4.964 3.244-.283 7.029-4.964 9.731-2.623 2.703 2.342 3.424 5.043 6.848 5.761s10.092 4.318 13.515 3.419c3.423-.9 6.668-5.219 10.633-4.5 3.964.719 5.585 5.325 12.434 4.643 6.849-.681 11.534-5.72 18.381-3.562 6.848 2.158 9.912 8.815 19.102 8.457 9.19-.358 14.417.36 19.282 4.319 4.866 3.96 10.272 6.479 15.858 6.479 5.587 0 19.463-2.519 23.067-1.08 3.603 1.44 11.713.72 13.876 3.96 2.163 3.24 8.469-3.06 12.253-.9 3.784 2.16 9.011-3.419 5.047-9.178-3.965-5.759 3.063-7.488 5.946-10.494 2.884-3.005 11.534-6.244 14.597-3.546 3.062 2.698 5.586 4.682 7.388 1.981 1.802-2.701 7.208-3.601 10.812-3.96a11.743 11.743 0 005.818-2.161" stroke="#61937E" stroke-width=".502" stroke-linecap="round" stroke-linejoin="round"/><path d="M17.413 3.395c2.163 1.26 2.264 2.461 2.445 4.98.18 2.52 1.982 9.9 3.604 11.159 1.622 1.26 3.246 4.14 4.145 5.58.899 1.44-1.623 5.939 0 6.298 1.623.36 9.551 2.88 10.632 6.12 1.08 3.24 4.145 7.02 6.127 7.56 1.983.54 12.254 3.778 20.003 1.979 7.748-1.8 25.408-6.839 30.995-1.98 5.587 4.86 3.965 7.38 6.307 8.46 2.343 1.08 1.082 4.499 4.87 6.118 3.788 1.619 14.416 3.242 20.183 0 5.766-3.242 16.039-7.02 18.741-1.26 2.703 5.76 9.011 12.959 14.057 10.98 5.046-1.98 6.487-12.618 13.516-13.059 7.028-.44 15.677 6.425 17.119 11.092 1.441 4.666 9.594 18.845 13.335 20.503 3.742 1.659 8.47-5.525 11.713-7.891 3.244-2.367 5.587-6.507 8.826-5.967 3.24.54 3.965.046 5.226-2.588 1.261-2.633 8.47-5.152 11.353-6.232 2.883-1.08 9.19-4.5 12.614-2.52 3.424 1.98 7.929 5.04 13.516 5.58s10.632 2.16 14.417.54 12.434-6.299 14.957-4.14c2.523 2.16 4.505 7.56 6.667 5.58 2.162-1.98 6.128-5.4 9.912-4.679 3.784.72 10.993-.514 12.614 1.813 1.621 2.326 6.847 4.846 11.533 5.206 4.686.361 17.3-2.16 23.788.9 6.487 3.06 11.353 5.759 12.434 8.1 1.082 2.34-1.623 5.891 1.802 6.544 3.425.654 9.731 1.734 11.172 4.073 1.442 2.34 3.424 2.34 6.128 1.98 2.703-.36 4.324 6.119 9.37 5.04 5.047-1.08 11.173-5.58 13.516-2.34 2.344 3.24 2.162 8.999 5.046 8.639 2.885-.361 11.173-3.42 12.795 1.799 1.622 5.219 1.982 7.919 5.046 8.099 3.064.181 6.668 2.605 10.632 1.216 3.963-1.389 7.929-9.132 14.056-5.712 6.128 3.419 11.713 6.343 14.056 6.141 2.342-.203 10.632-7.221 12.254-4.341 1.622 2.881 1.982 8.099 6.668 8.459 4.686.361 9.731 3.6 12.615 1.26 2.884-2.341 7.929-9.179 11.532-6.839 3.604 2.339 6.128 7.922 10.092 7.92 3.965-.002 10.993-11.16 18.201-7.741 7.208 3.42 10.272 10.079 15.137 11.339 4.866 1.259 14.597-1.622 19.643 0 5.046 1.621 10.092 10.978 14.776 11.518 4.685.54 22.522-4.863 26.491-2.519 3.968 2.343 3.063 3.316 9.551 2.558 6.487-.758 7.388 3.021 9.911 1.761 2.523-1.261 9.731 3.06 10.272-.9.541-3.959-6.128-7.559-.901-10.436 5.227-2.876 5.587-5.039 8.47-7.738 2.883-2.699 6.127-2.52 9.551-3.779 3.424-1.26 7.568-1.26 9.731 1.621 2.163 2.88 1.982 1.08 5.046 0s6.667.359 8.11-1.26c1.442-1.619 8.161-3.951 8.161-3.951" stroke="#62A58A" stroke-width=".502" stroke-linecap="round" stroke-linejoin="round"/><path d="M22.922 1.167c8.65.72 4.506 5.95 6.669 9.909 2.162 3.96 7.207 6.839 7.929 10.436.721 3.596 9.01 3.242 10.449 6.838 1.438 3.597 7.569 11.518 16.578 10.08 9.01-1.44 26.13-18.358 33.43-11.879 7.299 6.48 7.297 13.318 10.181 14.758 2.884 1.44 2.883 9.359 11.172 8.999 8.29-.36 18.742-40.314 32.077-34.195 13.335 6.12 4.685 24.114 10.449 25.557 5.765 1.442 7.929-17.278 16.219-15.118 8.289 2.16 15.137 20.162 20.188 22.317 5.051 2.155 5.046 34.915 8.289 32.756 3.243-2.159 11.534-7.693 14.057-10.146 2.523-2.453 4.686-.112 6.127-1.912 1.442-1.799 1.802-7.378 3.965-7.918s10.631-9.719 5.406-17.998a82.808 82.808 0 00-9.19-12.598c-1.983-2.34-1.802-4.864-1.623-7.02.178-2.156 2.883-1.259 1.261-6.299-1.623-5.039-5.407-2.52-4.146-6.66 1.261-4.139.901-1.439 3.605-2.339 2.703-.9 4.505-3.242 6.668-4.14 2.163-.897 0 14.939 3.965 17.098 3.964 2.159-1.983 10.798.36 11.878 2.342 1.08.721 3.78 3.604 5.94 2.883 2.16 12.795 4.14 8.289 7.379-4.505 3.239-6.127 6.66-2.342 7.379 3.785.719 6.483 4.5 8.107 5.76 1.623 1.262 8.47 6.753 11.353 6.525 2.883-.228 10.092 1.06 11.893.868 1.802-.193 11.173-3.973 11.894-6.132.721-2.16-1.982-9.178-4.869-8.279-2.888.9-19.283 3.42-17.66-.72 1.622-4.14 5.947-.72 5.586-4.139-.36-3.418-1.623-12.238 2.523-14.398 4.147-2.16 9.552-9.179 6.668-16.017-2.885-6.84-1.442-14.318 1.623-15.079 3.064-.76 5.046 2.66 4.505 7.16-.541 4.499-2.523 10.435 0 10.618 2.523.182 2.704-6.3 4.325-5.76s3.063 1.26 1.801 4.32c-1.262 3.06-7.207 6.299-6.487 8.815.72 2.515 6.307 10.435 6.127 16.017-.179 5.581 4.506 11.159 4.685 14.398.18 3.24 2.343 10.825 3.424 9.192 1.081-1.634 3.784-6.853 7.028-6.853 3.245 0 7.569 3.06 9.371 2.16 1.802-.9 5.046 0 5.947-3.6.901-3.6-3.784-14.757-2.703-18.357 1.082-3.6 4.144-4.68 7.208-8.638 3.064-3.959 6.307-2.7 5.587-.18-.72 2.518-7.389 10.435-5.587 12.597 1.802 2.162 1.802 11.519 3.784 15.118 1.982 3.599 1.082 10.079 5.766 9.898 4.685-.18 18.921-3.6 22.346-4.68 3.425-1.08 5.046 6.48 7.569 7.56 2.523 1.08 13.876-6.253 12.795-.968-1.081 5.286-6.127 12.636-3.246 13.732a10.662 10.662 0 008.47 0c2.703-1.245 1.055 5.413 3.771 4.694a12.88 12.88 0 005.688-3.749 12.853 12.853 0 002.975-6.122c.901-5.787 5.406-6.327 5.587-4.708.18 1.62 1.801 8.612-1.082 9.885-2.883 1.272-5.406 9.017-3.246 9.553 2.16.536 12.795-1.08 13.335-4.5.541-3.419 5.046-5.399 7.389-11.157 2.342-5.76 9.01-4.864 8.109-2.7-.9 2.162-6.307 7.198-4.684 11.338 1.622 4.14-6.848 2.88-5.947 6.299.901 3.42.721 8.099 3.246 7.738 2.525-.36 11.173-2.34 9.011-5.759-2.163-3.419-5.226-9.748-1.082-10.812s9.731-.526 10.272-6.825c.54-6.299-2.703-12.238 2.342-12.958 5.045-.72 9.19 8.814 5.587 11.698-3.603 2.883-10.272 10.978-10.272 13.318s6.488 10.798 3.247 13.858c-3.242 3.06-3.605 6.299-1.442 7.559 2.163 1.261 7.028 3.986 8.289 2.174 1.261-1.813 8.65-7.573 5.587-12.969-3.063-5.396.36-18.663 4.87-21.03 4.509-2.366 8.649-1.823 7.748-5.966-.901-4.143 1.442-8.545 2.883-7.513 1.442 1.033 8.826 9.493 4.145 11.472-4.68 1.98-12.794 2.88-11.533 6.3 1.261 3.419-4.87 6.479-3.965 10.258.905 3.779-.179 7.919 5.406 11.519 5.586 3.599 9.912 5.939 12.976 6.119 3.063.181 12.072-2.339 11.713-7.919s5.766-21.956 9.551-19.978c3.785 1.98-8.289 12.598-4.505 20.163 3.784 7.564-.541 9.443 2.703 12.19 3.245 2.747 7.569 2.026 9.731 2.208 2.162.181 7.749-4.68 6.668-7.559-1.08-2.88-3.063-9.899 1.261-13.138 4.325-3.24 5.046-6.12 4.146-10.08-.901-3.959 2.342-12.183 5.585-8.071 3.244 4.111-2.702 6.99 0 11.854 2.703 4.863-5.766 7.738-3.424 11.698 2.343 3.959 2.355 6.299 4.421 8.999 2.065 2.7 3.688 5.949 6.032 6.303 2.343.354 5.406-1.984 7.569-5.584 2.162-3.6 7.208-9.898 11.173-5.939 3.965 3.96 6.488 9.98 11.533 11.558 5.045 1.579 7.208.68 14.777 1.04 7.569.36 7.388.36 8.825 2.52 1.438 2.16 5.767 5.289 9.371 2.645 3.605-2.644 3.965-7.505 8.826-4.985 4.862 2.52 5.587 8.279 10.272 6.839 4.685-1.44 6.668 1.174 11.532.227 4.865-.947 3.064 7.512 5.406 8.052 2.343.54 8.47-.54 12.254 1.26 3.784 1.801 8.11 1.8 7.029 0-1.082-1.799-14.597-6.659-13.696-9.899.901-3.239 6.307-10.052-2.342-12.584-8.65-2.532-24.689-3.433-23.247-9.912 1.442-6.48 2.883-6.12-.541-10.258-3.424-4.14-4.685-7.41-2.342-8.654 2.342-1.244 1.803 1.454 4.145 3.254 2.342 1.8 2.342 7.739 6.307 6.119 3.965-1.62 1.982-11.158 7.028-12.598 5.046-1.44 8.826-3.78 8.826 1.26 0 5.038-7.929 5.218-5.766 9.538 2.163 4.32-4.686 3.78-2.704 9.899 1.983 6.12 10.092 1.98 13.696 3.42 3.603 1.439 6.307 4.863 5.766 6.839-.541 1.975-3.604 10.869.901 12.183s8.11 1.498 9.55-1.563c1.441-3.061-.36-5.915.722-9.524 1.081-3.609 5.766-3.252 10.092-3.433 4.325-.18 5.586-3.242 10.092-8.459 4.505-5.217 6.307-3.242 7.207-.899.901 2.342-.72 9.539.901 9.718 1.621.179 3.064-3.535 4.87-1.768 1.806 1.767 14.468-3.631 14.468-3.631" stroke="#527A68" stroke-width=".502" stroke-linecap="round" stroke-linejoin="round"/><path d="M516.869 438.155c7.208-12.056 1.082-49.132 20.904-48.052 19.823 1.081 25.474 17.999 39.949 6.839 14.474-11.159 2.219-40.491 19.519-42.022 17.3-1.531 39.964 36.647 54.782 32.664 18.741-5.04 34.702-28.436 49.969-25.557m-336.861 76.129c-16.579-28.616 19.462-75.315-5.046-78.96-24.509-3.646-12.976-28.619-25.229-32.691-12.254-4.072-25.229-2.619-23.067 17.171 2.163 19.79 7.93 27.882 19.463 32.118 11.534 4.236 12.975 17.776-1.441 20.723-14.417 2.947-26.671-19.577-33.884-11.194-7.213 8.383-14.898 13.303-33.038 9.762-18.141-3.54-47.428-15.197-65.581 1.432-18.153 16.629-33.369 41.642-33.369 41.642" stroke="#61937E" stroke-width=".502" stroke-linecap="round" stroke-linejoin="round"/><path d="M460.283 343.676c-9.621-.701-20.188 1.407-22.587 11.199-2.398 9.791-12.013 40.027 0 44.347 12.014 4.32 32.198-1.068 33.64-17.811 1.441-16.744 3.843-36.648-11.053-37.735z" stroke="#527A68" stroke-width=".502" stroke-linecap="round" stroke-linejoin="round"/><path d="M701.993 76.064c-8.642 4.357-13.928 7.232-16.333 1.953-2.406-5.28-11.534-11.044-14.417-8.16-2.883 2.885 1.319 16.259-6.427 17.518-7.745 1.26-12.434 3.06-14.417 5.4-1.982 2.339-11.533 3.778-12.253 0-.721-3.78-6.307-3.6-3.965-6.12 2.343-2.52 9.551-7.38 7.568-11.339-1.983-3.96-8.289-15.204-12.254-12.731-3.964 2.473-7.748 8.053-11.894 6.253-4.145-1.8-4.324 1.98-4.869 3.42-.545 1.44-3.424 3.96-7.569 1.98s-6.307-2.16-7.749-.54c-1.441 1.62-8.109 7.378-4.324 10.978 3.785 3.6 11.172 8.25 7.569 10.425-3.604 2.174-4.87 7.817-4.145 10.124.724 2.307-.541 7.708-5.407 5.908-4.865-1.799-4.685-13.678-11.533-12.598s-12.073 3.06-14.958.9-10.993-3.78-16.399-3.242c-5.406.537-9.37 5.039-10.993 3.242-1.622-1.797.181-11.102-3.063-12.57-3.245-1.469.36-13.881-4.87-16.225-5.229-2.345-4.869-2.88-8.649-1.621-3.78 1.258-7.208 7.433-11.534 7.046-4.326-.387-6.848-.027-10.449-1.824-3.601-1.796-1.802.595-4.686 1.824-2.884 1.23-7.929 5.552-9.371 3.573-1.441-1.98-5.946-7.02-5.766-8.639.181-1.619.541-6.565-2.703-8.41-3.245-1.843-7.93-3.105-10.092-5.084-2.163-1.98-3.424-.451-5.046 1.124-1.623 1.576-.181 6.795-2.523 6.975-2.343.18-6.307 1.824-8.11-2.147-1.803-3.97-4.87-7.469-6.848-6.89-1.978.58-10.632 2.559-10.993 5.259a4.714 4.714 0 01-2.186 3.517 4.73 4.73 0 01-4.121.442c-3.424-1.08-4.505-1.98-8.47 0-3.964 1.98-7.748 2.34-8.826.54-1.077-1.799-6.847-6.298-9.01-5.04-2.163 1.26-2.883 5.76-7.208 4.68s-7.569.633-8.289-3.374c-.721-4.007-2.704-4.185-5.947-2.566-3.244 1.62-8.47 4.954-9.19 2.566-.721-2.388-2.703-6.908-7.028-6.087-4.324.82-11.353 2.622-12.072.821-.719-1.8-1.623-11.158-5.587-11.698-3.963-.54-5.947-7.559-5.225-8.814.721-1.256 1.623-6.66 1.081-8.46-.542-1.799-3.424-5.399-4.325-7.559-.9-2.16-3.604 1.26-5.946 0-2.343-1.259-20.364.54-20.189-2.52.176-3.06-6.487-13.498-9.911-13.498-3.424 0-5.587-2.34-5.226-3.6M61.005 7.117c-.96 3.12-1.922 5.04 1.202 7.199a11.216 11.216 0 009.309 1.2c1.927-.721 6.487-5.04 7.929-1.2 1.442 3.84 0 10.558 2.644 9.598 2.643-.96 9.37-8.88 12.493-6.24 3.122 2.64 9.371 1.44 10.332 3.84.962 2.4 7.45 15.118 12.014 12.238 4.564-2.88 3.123-10.798 7.69-12.238 4.566-1.44 8.888-5.76 4.324-7.198-4.564-1.44-16.339 2.879-17.3-2.16-.96-5.04 1.681-6.48 5.046-5.52 3.365.961 19.222 2.88 18.981.72-.24-2.16 3.845-6 3.845-6m34.545 9.246c-3.358-.052-8.877 1.418-9.245 4.11-.368 2.69.49 10.172 1.915 7.283 1.425-2.889 10.688-11.338 7.33-11.393zm18.318-6.184c-2.163 6.72-8.169 3.674-9.13 6.186-.961 2.513 6.248-.127 9.13 2.272 2.882 2.399 2.638 22.076 7.208 23.516 4.57 1.44 3.363-6.719 6.006-5.52 2.642 1.2 7.929 17.038 6.487 21.598-1.441 4.559-6.005 20.502-4.324 21.529 1.681 1.026 5.526-11.45 7.689-12.65 2.163-1.202 7.208 2.879 7.929 1.439.722-1.44-3.844-18.478-2.403-21.118 1.442-2.64 4.325.48 5.287-1.2.961-1.678-6.249-5.758-7.45-9.84-1.201-4.08-2.403-6.847-.48-7.981 1.924-1.134 5.286-4.073 3.363-4.884-1.922-.81-11.533-1.291-9.85-5.131 1.683-3.84.721-11.278.721-11.278m39.645.002c1.201 3.359-6.249 11.277-2.884 12.478 3.365 1.2 6.033-.298 3.016 3.931-3.016 4.23-7.101 16.707-2.536 18.625 4.565 1.92 8.409 2.64 8.17 4.56-.24 1.919 2.423 4.319.01 5.28-2.413.96-.835 5.76 1.014 4.799 1.85-.96 5.938-5.04 8.341-5.04 2.404 0 .96-2.88 0-5.04-.959-2.16-3.844-10.077-1.682-11.518 2.163-1.44 11.534-7.256 8.409-11.667-3.124-4.41-5.285-11.37-8.888-9.929-3.604 1.44-4.086-3.12-.722-6.48" stroke="#B7B48F" stroke-width=".502" stroke-linecap="round" stroke-linejoin="round"/><path d="M379.448 3.634c.137.3.324.573.553.81 3.369 4.357 20.023 8.166 18.29 10.59-1.802 2.52 11.71 3.35 13.064 7.615 1.354 4.264-11.261 9.422-7.298 11.523 3.962 2.102 7.746 5.698 7.298 7.858-.448 2.16 7.479 8.638 10.002 3.6 2.523-5.04-.721-19.671 3.964-19.375 4.686.297 13.696-10.08 18.021-8.49 4.324 1.59 6.487 13.827 10.449 13.107 3.961-.72 16.941-21.238 22.346-16.92 5.404 4.317 22.706 11.269 27.03 8.694 4.325-2.574 5.407 5.704 10.813 6.063 5.406.36 31.716-16.973 34.599-12.087 2.884 4.887 12.976 12.087 17.3 12.087 4.325 0 5.046 6.473 7.208 8.996 2.162 2.524 8.289 6.842 14.417 3.963 6.127-2.88 3.604-14.272 11.172-15.415 7.568-1.142 14.057-3.536 15.859 0 1.801 3.536 0 13.256 3.603 13.615 3.604.36 7.929-1.806 12.614-2.162 4.685-.355 8.808 7.69 9.011 9.797.72 7.484 14.055 12.324 16.941 8.825 2.887-3.5 7.208-15.019 11.173-12.14 3.964 2.88 16.218 9.36 19.102 1.8 2.883-7.56 15.009-19.734 15.009-19.734" stroke="#B7B48F" stroke-width=".502" stroke-linecap="round" stroke-linejoin="round"/><path d="M496.989 4.094c4.325 4.87 9.786 5.674 14.471 6.51 4.686.836 3.965 9.055 9.731 6.022 5.767-3.032 25.654-13.469 29.406-10.233 3.751 3.236 6.636 5.4 11.682 6.839 5.046 1.44 18.741 11.989 21.264 9.416 2.523-2.574 18.02-6.592 24.508-6.025 6.487.567 10.092 1.648 14.055-1.59 3.964-3.24 9.371 1.44 9.011 5.039-.36 3.6-10.092 8.26-5.766 9.349 4.326 1.088 13.335-3.968 14.416 0 1.082 3.967 5.047 9.361 7.57 8.285 2.523-1.076 4.682 9.005 7.929 5.763 3.246-3.242 7.207-14.398 10.092-12.238 2.884 2.16 5.406 4.443 7.929 2.938 2.523-1.504 3.246-17.395 7.569-17.548 4.323-.153 21.136-15.459 21.136-15.459" stroke="#527A68" stroke-width=".502" stroke-linecap="round" stroke-linejoin="round"/><path d="M650.01 236.984l-96.334-13.75-1.543 10.758-1.539 10.752 17.641 2.518-.01.007-5.488 38.352 10.767 1.537 10.766 1.537 5.489-38.352-.007-.009 57.177 8.161 1.539-10.753 1.542-10.758zm-101.017 87.965l1.539-10.753-35.268-5.034-1.539 10.753-1.537 10.753 35.267 5.033 1.538-10.752zm-2.388 37.072l-1.539 10.753 21.149 3.018 1.539-10.752 1.539-10.753-21.149-3.018-1.539 10.752z" stroke="#B3CBE6" stroke-width="2.009" stroke-linecap="round" stroke-linejoin="round"/><path d="M411.353 310.913l-1.858-54.069-28.192.966-39.869 1.367.583 16.994.584 16.994 39.869-1.367.69 20.081 28.193-.966z" fill="#F93C00"/><path d="M181.521 362.666l11.485-12.285-7.95-7.413-7.949-7.412-11.485 12.286-12.681-11.825-9.625 10.297-9.627 10.295 41.262 38.475 9.626-10.297 9.625-10.297-12.681-11.824zm-29.396-61.805l-.211-6.138 6.946-.238-.374-10.855-.373-10.855-6.946.238-.211-6.138-12.497.428-.268-7.784-14.102.483-14.101.484.479 13.923-12.496.428.373 10.856.373 10.855 12.497-.428.479 13.923 28.192-.966-.268-7.785 12.508-.431zm132.92-39.752l-.484-14.083-.484-14.083-93.749 3.219.968 28.156 14.406-.493.675 19.676 10.869-.373 10.869-.373-.676-19.676 21.455-.736.676 19.675 10.869-.372 10.869-.372-.676-19.676 14.413-.489zm-10.798 110.985l13.941-.478-.484-14.084-.484-14.078-7.795.268-.43-12.482-6.146.211-.239-6.937-10.869.373-10.869.373.239 6.937-6.147.21.429 12.48-7.795.267.968 28.157 13.94-.479.43 12.482 10.869-.373 10.869-.373-.429-12.481.002.007zM93.345 266.563l-.452-13.144-.348-10.131-.859-25.01-13.16.451-13.162.452.756 22-22.028.756.451 13.144.452 13.144 22.03-.756 26.32-.906z" stroke="#F93C00" stroke-width="2.009" stroke-linecap="round" stroke-linejoin="round"/><path d="M427.069 386.776c8.124 0 14.71-6.577 14.71-14.691s-6.586-14.691-14.71-14.691-14.71 6.577-14.71 14.691 6.586 14.691 14.71 14.691z" stroke="#B3CBE6" stroke-width="2.009"/><path d="M422.879 366.852v10.47m8.385-10.47v10.47" stroke="#B3CBE6" stroke-width="2.009" stroke-linecap="round"/><path d="M431.266 372.085h-8.387" stroke="#B3CBE6" stroke-width="2.009"/><path opacity=".3" d="M578.903 406.915h-4.508a2.72 2.72 0 00-1.623.534l-3.878 2.869a1.364 1.364 0 01-1.624 0l-3.878-2.869a2.72 2.72 0 00-1.623-.534h-4.508a1.346 1.346 0 01-1.353-1.336v-17.346a1.344 1.344 0 011.353-1.334h4.508c.584 0 1.153-.187 1.623-.534l3.878-2.87a1.371 1.371 0 011.624 0l3.878 2.87c.47.347 1.039.534 1.623.534h4.508a1.346 1.346 0 011.353 1.334v17.346a1.342 1.342 0 01-1.353 1.336v0z" stroke="#B3CBE6" stroke-width="1.004"/><path d="M571.734 399.272c0-1.575-1.317-2.346-2.635-3.117 1.301-.515 2.153-1.398 2.153-2.652 0-1.334-1.189-2.378-2.989-2.378-2.169 0-3.31 1.253-3.31 2.78 0 1.221.852 1.992 1.864 2.683-1.173.45-2.458 1.415-2.458 2.957 0 1.768 1.398 2.957 3.599 2.957 2.105 0 3.776-1.221 3.776-3.23zm-5.206-6.106c0-.932.723-1.479 1.478-1.479.932 0 1.704.659 1.704 1.88 0 1.013-.306 1.752-1.077 2.314-1.125-.674-2.105-1.414-2.105-2.715zm-.546 6.235c0-1.238.498-1.897 1.253-2.539 1.398.883 2.941 1.703 2.941 3.326 0 1.173-.949 1.767-1.961 1.767-1.35 0-2.233-1.06-2.233-2.554z" fill="#fff"/><path opacity=".3" d="M518.034 300.531h-4.508a2.715 2.715 0 00-1.623.534l-3.879 2.869a1.368 1.368 0 01-1.623 0l-3.878-2.869a2.72 2.72 0 00-1.623-.534h-4.509a1.343 1.343 0 01-1.352-1.336v-17.346a1.345 1.345 0 011.352-1.335h4.509a2.72 2.72 0 001.623-.534l3.878-2.869a1.364 1.364 0 011.623 0l3.879 2.869a2.717 2.717 0 001.623.534h4.508a1.347 1.347 0 011.353 1.335v17.346a1.344 1.344 0 01-1.353 1.336v0z" stroke="#B3CBE6" stroke-width="1.004"/><path d="M510.604 285.512v-.579c-2.218.08-4.644.08-6.749 0 .08.932.048 2.523-.032 3.358h.401l.129-.417c.337-1.093.723-1.559 3.455-1.559h1.687l-4.628 9.384.129.193h2.105c.578-3.278 1.671-7.215 3.503-10.38z" fill="#fff"/><path opacity=".3" d="M639.771 286.346h-4.509a2.726 2.726 0 00-1.623.534l-3.878 2.869a1.364 1.364 0 01-1.623 0l-3.879-2.869a2.724 2.724 0 00-1.623-.534h-4.508a1.346 1.346 0 01-1.353-1.335v-17.347a1.346 1.346 0 011.353-1.334h4.508a2.73 2.73 0 001.623-.534l3.879-2.87a1.366 1.366 0 011.623 0l3.878 2.87c.47.347 1.039.534 1.623.534h4.509a1.344 1.344 0 011.352 1.334v17.347a1.342 1.342 0 01-1.352 1.335z" fill="#B3CBE6"/><path d="M632.631 277.184c0-2.169-1.639-3.439-3.503-3.439-.884 0-1.542.273-2.04.643.61-1.993 1.735-3.567 4.483-4.194l-.048-.563c-4.516.595-6.283 3.905-6.283 6.782 0 2.812 1.719 4.515 3.776 4.515 2.105 0 3.615-1.511 3.615-3.744zm-3.953-2.828c1.206 0 2.17 1.317 2.17 3.471 0 1.751-.756 2.555-1.672 2.555-1.205 0-2.185-1.398-2.185-3.519 0-1.848.723-2.507 1.687-2.507z" fill="#fff"/><path opacity=".3" d="M70.647 300.531H66.14a2.718 2.718 0 00-1.623.534l-3.878 2.869a1.37 1.37 0 01-1.623 0l-3.879-2.869a2.718 2.718 0 00-1.623-.534h-4.508a1.348 1.348 0 01-1.353-1.336v-17.346a1.343 1.343 0 011.353-1.335h4.508a2.718 2.718 0 001.623-.534l3.878-2.869a1.363 1.363 0 011.624 0l3.878 2.869a2.72 2.72 0 001.623.534h4.508A1.347 1.347 0 0172 281.849v17.346a1.348 1.348 0 01-1.352 1.336z" fill="#B3CBE6"/><path d="M63.139 291.465c0-2.314-2.137-3.873-5.287-3.374l.482-2.523c1.736-.129 3.342-.049 4.178.064a8.438 8.438 0 01.418-2.089l-.306-.161c-.546.595-1.478.675-4.756.595l-.69 4.58.272.016c2.346.16 3.937 1.446 3.937 3.728 0 1.398-.642 2.233-1.639 2.233-1.06 0-1.59-.803-2.153-2.362l-.273-.096c-.514.096-.98.401-.98.964 0 .964 1.382 2.073 3.117 2.073 2.201 0 3.68-1.479 3.68-3.648z" fill="#fff"/><path opacity=".3" d="M274.558 422.112h-4.509a2.726 2.726 0 00-1.623.534l-3.878 2.869a1.364 1.364 0 01-1.623 0l-3.879-2.869a2.722 2.722 0 00-1.623-.534h-4.508a1.346 1.346 0 01-1.353-1.336V403.43a1.346 1.346 0 011.353-1.334h4.508c.585 0 1.154-.187 1.623-.534l3.879-2.87a1.368 1.368 0 011.623 0l3.878 2.87c.47.347 1.039.534 1.623.534h4.509a1.344 1.344 0 011.352 1.334v17.346a1.345 1.345 0 01-1.352 1.336z" fill="#B3CBE6"/><path d="M263.995 414.726c0 1.993-.064 2.121-.739 2.218l-.707.08v.498a48.669 48.669 0 014.322 0v-.498l-.562-.08c-.675-.113-.739-.225-.739-2.202.675.016 1.06.032 1.703.048.048-.916.225-1.703.53-2.667l-.369-.097-.08.209c-.306.691-.691 1.206-1.784 1.254v-3.6c0-.835.016-2.394.064-3.278a5.474 5.474 0 01-1.044-.144l-5.094 7.665v.658c1.301-.048 3.117-.08 4.499-.064zm-.016-1.157l-3.374.016 3.374-5.029v5.013z" fill="#fff"/><path opacity=".3" d="M107.169 333.966h-4.508a2.72 2.72 0 00-1.624.534l-3.878 2.869a1.37 1.37 0 01-1.623 0l-3.878-2.869a2.718 2.718 0 00-1.624-.534h-4.508a1.347 1.347 0 01-1.352-1.336v-17.346a1.343 1.343 0 011.352-1.335h4.508a2.718 2.718 0 001.624-.534l3.878-2.869a1.37 1.37 0 011.623 0l3.878 2.869a2.72 2.72 0 001.624.534h4.508a1.343 1.343 0 011.352 1.335v17.346a1.347 1.347 0 01-1.352 1.336z" fill="#B3CBE6"/><path d="M95.602 325.575c0 1.993-.064 2.121-.74 2.217l-.706.081v.498a48.68 48.68 0 014.322 0v-.498l-.562-.081c-.675-.112-.74-.224-.74-2.201.676.016 1.061.032 1.704.048.048-.916.225-1.703.53-2.667l-.37-.097-.08.209c-.305.691-.69 1.205-1.783 1.254v-3.6c0-.835.016-2.394.064-3.278a5.478 5.478 0 01-1.044-.144l-5.094 7.664v.659c1.301-.048 3.117-.08 4.5-.064zm-.016-1.157l-3.374.016 3.374-5.03v5.014z" fill="#fff"/><path opacity=".3" d="M183.257 425.152h-4.508a2.72 2.72 0 00-1.624.534l-3.878 2.869a1.362 1.362 0 01-1.623 0l-3.878-2.869a2.72 2.72 0 00-1.624-.534h-4.508a1.347 1.347 0 01-1.352-1.336V406.47a1.343 1.343 0 011.352-1.334h4.508c.585 0 1.154-.187 1.624-.534l3.878-2.87a1.368 1.368 0 011.623 0l3.878 2.87c.47.347 1.039.534 1.624.534h4.508a1.344 1.344 0 011.352 1.334v17.346a1.345 1.345 0 01-1.352 1.336z" fill="#B3CBE6"/><path d="M175.802 417.155c0-1.864-1.43-3.069-3.696-2.956l3.181-3.423v-1.221c-1.639.064-3.792.08-5.72 0 .08.851.064 2.282-.032 3.069h.418l.144-.562c.193-.804.547-1.125 3.118-1.174l1.012-.032-3.101 3.664.353.096c1.736.515 2.571 1.607 2.571 3.423 0 1.35-.643 2.137-1.687 2.137-1.045 0-1.559-.819-2.105-2.394l-.273-.08c-.515.08-.981.401-.981.964 0 .964 1.366 2.073 3.086 2.073 2.33 0 3.712-1.655 3.712-3.584z" fill="#fff"/><path opacity=".3" d="M274.557 220.49h-4.508c-.585 0-1.154.187-1.623.534l-3.879 2.87a1.368 1.368 0 01-1.623 0l-3.878-2.87a2.733 2.733 0 00-1.623-.534h-4.509a1.345 1.345 0 01-1.352-1.335v-17.347a1.345 1.345 0 011.352-1.334h4.509a2.726 2.726 0 001.623-.534l3.878-2.869a1.363 1.363 0 011.623 0l3.879 2.869a2.722 2.722 0 001.623.534h4.508a1.34 1.34 0 011.352 1.334v17.347a1.343 1.343 0 01-1.352 1.335z" fill="#B3CBE6"/><path d="M267.164 212.687l-.386-.113-.144.354c-.386.916-.611 1.558-3.278 1.687l-1.993.08c2.186-2.346 5.431-4.017 5.431-6.909 0-1.864-1.285-3.086-3.085-3.086-2.105 0-3.455 1.495-3.455 2.7 0 .707.563 1.028 1.398 1.061l.274-.145c-.29-1.768.032-2.989 1.253-2.989 1.061 0 1.8.884 1.8 2.427 0 2.169-1.848 4.226-4.95 7.681v.482a97.327 97.327 0 016.541 0c.064-.916.305-2.186.594-3.23z" fill="#fff"/><path opacity=".3" d="M403.397 344.097h-4.508c-.584 0-1.153.187-1.623.534l-3.878 2.87a1.371 1.371 0 01-1.623 0l-3.879-2.87a2.733 2.733 0 00-1.623-.534h-4.508a1.341 1.341 0 01-1.353-1.335v-17.346a1.348 1.348 0 011.353-1.335h4.508a2.726 2.726 0 001.623-.534l3.879-2.869a1.364 1.364 0 011.623 0l3.878 2.869c.47.347 1.039.535 1.623.534h4.508a1.346 1.346 0 011.353 1.335v17.346a1.341 1.341 0 01-1.353 1.335z" fill="#B3CBE6"/><path d="M391.839 336.529c0 1.945-.048 2.153-.771 2.266l-.562.096v.499a48.633 48.633 0 014.354 0v-.499l-.562-.096c-.691-.113-.739-.321-.739-2.266v-4.933c0-.819.016-2.33.064-3.198l-.225-.209c-.852.595-1.719.932-3.053 1.206l.048.514.434-.032c1.012-.081 1.012.305 1.012 1.848v4.804z" fill="#fff"/><path opacity=".3" d="M437.89 419.072h-4.509c-.584 0-1.153.187-1.623.534l-3.878 2.87a1.371 1.371 0 01-1.623 0l-3.879-2.87a2.728 2.728 0 00-1.623-.534h-4.508a1.341 1.341 0 01-1.352-1.335V400.39a1.34 1.34 0 011.352-1.334h4.508a2.722 2.722 0 001.623-.534l3.879-2.869a1.362 1.362 0 011.623 0l3.878 2.869c.47.347 1.039.535 1.623.534h4.509a1.345 1.345 0 011.352 1.334v17.347a1.343 1.343 0 01-1.352 1.335z" fill="#B3CBE6"/><path d="M430.567 408.055c0-2.828-1.703-4.531-3.76-4.531-2.121 0-3.632 1.526-3.632 3.76 0 2.169 1.655 3.439 3.519 3.439.884 0 1.527-.274 2.025-.643-.611 2.025-1.736 3.647-4.483 4.274l.048.53c4.547-.546 6.283-3.92 6.283-6.829zm-3.439 2.057c-1.205 0-2.153-1.318-2.153-3.471 0-1.735.739-2.523 1.671-2.523 1.189 0 2.169 1.382 2.169 3.487 0 1.848-.707 2.507-1.687 2.507zM122.958 132.44h.843c2.644 0 3.797.661 4.795.661.759 0 1.097-.408 1.097-.886 0-.464-.338-.886-1.125-.886-.956 0-2.123.661-4.767.661h-.843c.014-.633.379-1.42.829-2.151l-.309-.211c-.928 1.237-2.222 2.025-3.614 2.404v.366c1.392.38 2.686 1.167 3.614 2.418l.309-.211c-.45-.745-.815-1.532-.829-2.165zm11.91-2.643v4.752c0 1.547-.042 1.744-.563 1.828l-.506.084v.436c1.716-.084 3.839-.084 6.552 0 .099-.956.366-2.137.633-3.107l-.309-.127-.225.38c-.928 1.617-1.533 2.306-2.348 2.306h-.422c-1.012 0-1.265-.267-1.265-1.561v-4.991c0-1.687.028-1.898.562-1.983l.506-.084v-.45a32.34 32.34 0 01-3.684 0v.45l.506.084c.521.085.563.296.563 1.983zm14.886 6.693l-.014-.436-.492-.043c-.52-.042-.576-.225-.576-1.687v-1.603c0-.703.014-1.982.056-2.713l-.113-.113c-.703.197-1.335.253-2.404.253v.436l.253.042c.788.099.788.38.788 2.447v1.912c0 .141 0 .281.014.422-.591.379-1.097.604-1.786.604-.759 0-1.308-.393-1.308-1.392v-1.687c0-.745.014-2.123.057-2.91l-.113-.127c-.689.197-1.308.253-2.376.253v.45l.323.028c.689.071.689.38.689 2.461v1.673c0 1.715.97 2.306 2.151 2.306 1.111 0 1.842-.562 2.391-1.237.042.492.126.928.211 1.237a10.149 10.149 0 012.249-.576zm13.389-.029l-.393-.084c-.633-.112-.675-.197-.675-1.856v-2.278c0-1.715-.97-2.32-1.941-2.32-1.124 0-2.08.717-2.643 1.392-.295-1.012-1.054-1.392-1.842-1.392-1.096 0-1.982.661-2.517 1.322.014-.45.029-.9.043-1.237l-.113-.113c-.703.183-1.35.253-2.432.253v.436l.323.042c.745.085.745.38.745 2.461v1.434c0 1.659-.028 1.744-.661 1.856l-.407.084v.436a24.545 24.545 0 013.515 0v-.436l-.38-.07c-.604-.126-.647-.211-.647-1.87v-1.8c0-.267 0-.632.014-1.026.507-.394 1.083-.703 1.73-.703.717 0 1.322.436 1.322 1.532v1.997c0 1.659-.043 1.744-.633 1.856l-.394.084v.436a23.769 23.769 0 013.459 0v-.436l-.366-.084c-.618-.112-.646-.197-.646-1.856v-2.278c0-.197-.014-.365-.043-.534.549-.422 1.139-.717 1.772-.717.731 0 1.322.436 1.322 1.532v1.997c0 1.673-.042 1.758-.633 1.87l-.38.07v.436a24.35 24.35 0 013.501 0v-.436zm4.656.605c1.73 0 3.375-1.294 3.375-3.768 0-1.898-1.055-3.361-2.827-3.361-.97 0-1.701.38-2.193 1.097v-1.139c0-.843.014-2.39.056-3.276l-.112-.155c-.703.225-1.35.268-2.433.268v.45l.324.028c.745.07.745.407.745 2.615v7.199l.253.07.633-.717c.59.464 1.392.689 2.179.689zm-1.645-2.84v-2.644c.352-.464.83-.689 1.462-.689 1.266 0 2.081 1.125 2.081 3.066 0 1.813-.815 2.587-1.785 2.587-.872 0-1.758-.478-1.758-2.32zm9.796 2.84c1.941 0 3.558-1.392 3.558-3.543 0-2.362-1.674-3.586-3.417-3.586-1.926 0-3.543 1.42-3.543 3.572 0 2.362 1.659 3.557 3.402 3.557zm.422-.576c-1.308 0-2.292-1.477-2.292-3.502 0-1.504.591-2.46 1.603-2.46 1.308 0 2.292 1.518 2.292 3.529 0 1.505-.605 2.433-1.603 2.433zm9.703-3.741c.591-1.546 1.013-2.01 1.421-2.123l.225-.07v-.436c-.872.056-1.758.056-2.616 0v.436l.338.084c.52.127.52.788.098 1.997l-1.04 2.953-1.519-3.712c-.365-.886-.239-1.111.183-1.224l.38-.098v-.436c-1.055.07-2.363.056-3.403 0v.436l.337.084c.408.085.521.366.942 1.322l2.138 4.921c.309-.028.618-.028.914 0l1.602-4.134zm4.637 1.856v-5.146c0-.731.014-2.095.056-2.868l-.126-.127c-.703.211-1.336.268-2.433.268v.45l.324.028c.759.07.759.407.759 2.559v4.836c0 1.575-.042 1.66-.675 1.772l-.408.084v.436a27.644 27.644 0 013.572 0v-.436l-.408-.084c-.633-.112-.661-.197-.661-1.772zm5.413 1.856c-.661-.112-1.125-.337-1.743-1.138l-2.236-2.77.661-.521c1.195-.97 1.912-1.209 2.489-1.378l.379-.098v-.422a23.355 23.355 0 01-3.304 0v.422c.422.098.591.211.591.45 0 .225-.239.478-.717.914l-1.364 1.223 2.966 3.754a20.608 20.608 0 012.278 0v-.436zm7.515-.393l-.197-.211c-.239.225-.464.323-.703.323-.295 0-.379-.154-.379-.647v-3.121c0-1.631-.689-2.475-2.208-2.475-1.378 0-2.826 1.083-2.826 1.997 0 .492.422.647.956.661l.239-.071c-.112-1.377.281-1.996 1.041-1.996.913 0 1.377.886 1.377 2.207v.422l-1.771.183c-1.448.155-2.222.83-2.222 1.926 0 1.083.802 1.8 2.011 1.8 1.04 0 1.589-.408 2.039-1.04v.042c0 .675.407.998.97.998.619 0 1.153-.309 1.673-.998zm-3.979.126c-.773 0-1.322-.52-1.322-1.279 0-.788.464-1.195 1.575-1.195h1.026v1.94c-.337.38-.801.534-1.279.534zm11.498.31c-1.533 0-2.419-1.027-2.77-2.855l-.38.085c.014.871.014 1.926-.028 2.545.633.478 1.631.787 2.911.787 2.334 0 3.501-1.167 3.501-2.77 0-3.332-5.062-2.643-5.062-5.118 0-.858.604-1.518 1.603-1.518 1.181 0 1.884.843 2.348 2.516l.379-.084c-.014-.773 0-1.589.043-2.193-.647-.478-1.561-.802-2.63-.802-2.024 0-3.149 1.195-3.149 2.686 0 3.177 5.062 2.573 5.062 5.174 0 .9-.732 1.547-1.828 1.547zm4.374-6.271v.534h.942v4.007c0 1.448.337 2.292 1.533 2.292.66 0 1.181-.309 1.841-1.223l-.239-.239c-.253.267-.562.492-.928.492-.534 0-.787-.408-.787-1.392v-3.937h1.729v-.619h-1.729v-1.982l-.351-.042c-.366 1.195-.844 1.968-2.011 2.109zm8.726 6.228l-.591-.084c-.604-.084-.632-.253-.632-1.856v-2.165c.407-.928.899-1.181 1.42-1.181.351 0 .646.112 1.125.281l.21-.141a.916.916 0 00.155-.534c0-.422-.267-.886-.914-.886-.857 0-1.448.661-2.01 1.955 0-.732 0-1.224.028-1.842l-.113-.113c-.731.183-1.307.253-2.39.253v.436l.323.042c.746.099.746.31.746 2.447v1.448c0 1.631-.029 1.786-.563 1.856l-.506.084v.436a27.363 27.363 0 013.712 0v-.436zm8.669-1.251l-.239-.183a2.807 2.807 0 01-1.997.858c-1.377 0-2.334-1.055-2.502-2.672h4.471c.028-.196.028-.421.028-.562 0-1.364-.914-2.714-2.657-2.714-1.674 0-3.22 1.392-3.22 3.642 0 1.968 1.293 3.487 3.262 3.487 1.195 0 2.179-.548 2.854-1.856zm-4.766-2.517c0-1.546.717-2.151 1.518-2.151.886 0 1.505.647 1.645 2.011l-3.163.196v-.056zm12.675 3.375l-.197-.211c-.239.225-.464.323-.703.323-.295 0-.38-.154-.38-.647v-3.121c0-1.631-.689-2.475-2.207-2.475-1.378 0-2.826 1.083-2.826 1.997 0 .492.421.647.956.661l.239-.071c-.113-1.377.281-1.996 1.04-1.996.914 0 1.378.886 1.378 2.207v.422l-1.771.183c-1.449.155-2.222.83-2.222 1.926 0 1.083.801 1.8 2.011 1.8 1.04 0 1.589-.408 2.038-1.04v.042c0 .675.408.998.971.998.618 0 1.153-.309 1.673-.998zm-3.979.126c-.774 0-1.322-.52-1.322-1.279 0-.788.464-1.195 1.575-1.195h1.026v1.94c-.337.38-.801.534-1.279.534zm17.183.267l-.393-.084c-.633-.112-.675-.197-.675-1.856v-2.278c0-1.715-.97-2.32-1.941-2.32-1.124 0-2.081.717-2.643 1.392-.295-1.012-1.054-1.392-1.842-1.392-1.097 0-1.982.661-2.517 1.322.014-.45.028-.9.043-1.237l-.113-.113c-.703.183-1.35.253-2.432.253v.436l.323.042c.745.085.745.38.745 2.461v1.434c0 1.659-.028 1.744-.661 1.856l-.407.084v.436a24.545 24.545 0 013.515 0v-.436l-.38-.07c-.605-.126-.647-.211-.647-1.87v-1.8c0-.267 0-.632.014-1.026.507-.394 1.083-.703 1.73-.703.717 0 1.321.436 1.321 1.532v1.997c0 1.659-.042 1.744-.632 1.856l-.394.084v.436a23.769 23.769 0 013.459 0v-.436l-.366-.084c-.618-.112-.646-.197-.646-1.856v-2.278c0-.197-.015-.365-.043-.534.549-.422 1.139-.717 1.772-.717.731 0 1.322.436 1.322 1.532v1.997c0 1.673-.043 1.758-.633 1.87l-.38.07v.436a24.35 24.35 0 013.501 0v-.436z" fill="#fff"/></svg>