<svg width="702" height="439" fill="none" xmlns="http://www.w3.org/2000/svg"><path d="M565.558 218.864c13.637-.024 27.274-.051 40.911-.08m-318.158.292c32.422.013 64.844-.003 97.268-.048m-326.393-.354c22.024.047 44.049.09 66.075.127m440.239 2.81c16.692-.025 39.264.034 55.958.001m-328.285.345c30.998 0 61.995-.022 92.992-.065m-292.861-.222c11.712.036 23.423.067 35.133.093m-71.272-.213l6.022.023M562 224.452c18.4-.03 51.949.037 70.35 0m-338.106.374c30.785 0 61.57-.017 92.355-.052M93.87 224.55c12.74.035 25.481.066 38.22.093m-74.431-.207l5.028.017M557 227.315c12.655-.056 71.149.114 83.805 0m-346.465.383c33.211.023 66.423.014 99.636-.027m-300.584-.248c13.981.038 27.961.072 41.941.101m417.167 1.873c13.698.083 83.238.206 96.927.371m-348.518-.567c34.115-.029 68.231-.012 102.347.05m-310.839.334c15.269-.057 30.539-.106 45.808-.147M549 232.382c9.384.067 96.508.154 105.89.26m-349.889-.565c35.628-.029 71.259-.011 106.893.054m-291.731.232l20.952-.058M545 235.425c4.005.036 109.111.074 113.117.116m-351.668-.589c37.354-.028 74.707-.015 112.059.04m-296.96.249c7.665-.022 15.329-.042 22.993-.062M543 238.342c4.68.021 114.955.045 119.637.071m-354.317-.511c38.962-.039 77.925-.059 116.889-.06m-302.101.345l24.899-.054M566 241.062c5.66.062 94.898.135 100.558.217m-356.288-.504c40.661-.041 81.322-.06 121.984-.058m-307.028.337l26.107-.055m-61.284-42.181l12.051.01m-21.482 2.855l22.962.021m-27.787 2.623l31.044.061m-34.086 2.804c12.295.026 24.591.05 36.887.073m130.391 3.065l18.028.018m-188.728-.284c14.75.031 29.5.059 44.25.086m124.797 3.052c12.308.013 24.615.024 36.922.035m-209.509-.306c17.617.037 35.233.071 52.849.101m443.841 2.965c2.337 0 4.674-.003 7.011-.011m-315.323.212c18.992 0 37.984-.021 56.976-.064m-248.496-.332c19.626.042 39.253.079 58.88.113M599 243.876c5.68.052 62.285.112 67.964.182m-127.298-.363c2.007-.009-.172-.016 1.834-.022m-229.193-.025c42.127-.041 84.253-.06 126.378-.058m-312.869.332c10.344-.022 20.688-.042 31.033-.062m465.651 2.783c5.698.035 39.345.077 45.045.125m-128.908-.26l2.863-.002m-225.757-.034c42.467-.024 84.935-.035 127.402-.031m-317.358.203c11.659-.015 23.318-.03 34.978-.043m489.189 2.886c6.343.036 12.684.077 19.023.124m-131.449-.24c5.6-.011-2.124-.021 3.472-.028m-222.575.004c42.433-.025 84.865-.037 127.297-.034m-320.304.218l37.108-.047M655 252.383c6.377.039 7.766.085 14.143.14m-133.356-.276c8.954-.021-3.74-.035 5.213-.045m-220.609.016c42.381-.024 84.763-.034 127.145-.031m-320.624.215l37.199-.048M655 255.237c6.684.036 8.871.079 15.556.13m-136.112-.251c9.994-.019-3.939-.034 6.056-.044m-219.749.02c43.553-.069 86.704-.069 129.961-.031m-313.406.199c9.379-.012 18.758-.024 28.138-.034M655 258.128c7.344.044 8.224.098 15.568.16m-138.693-.346c10.564-.011-2.439-.017 8.125-.021m-129.426.007c13.946-.006 27.893-.01 41.841-.012m-74.825.021h6.995m-63.888.026l19.945-.01m-197.474.17l23.023-.029M654 261c26.827.028-10.888-.069 15.939.109m-140.52-.298c11.455-.01-.874-.016 10.581-.017m-128.25.009c14.664-.005 29.328-.009 43.99-.011m-135.085.045l18.07-.01m-41.121.024h6.015m-121.074.099l6.033-.006m-41.155.048l21.073-.027M654 263.655c27.182.011-11.625.051 15.557.12m-143.523-.119c12.433-.005 1.032-.007 13.466-.006m-127.729.002h48.554m-163.826.015l41.106-.009m-105.238.03h10.986m-93.256.027l39.138-.015M654 266.555c26.636.019-12.635.047 13.999.086m-256.345-.112c50.463-.014 78.076-.014 127.846.013m-245.089-.002l44.055-.009m-109.308.03h14.05m-90.304.027l38.148-.016m-91.367.041h5.027m548.788 2.818c26.035.019-13.373.048 12.662.088m-255.353-.117c49.865-.014 77.265-.009 128.191.015m-248.417-.004l47.185-.01m-108.455.029h13.057m-86.348.027l46.182-.018m-104.322.045h6.999m548.619 2.816c24.924.017-14.797.043 10.126.079m-253.814-.11c50.861-.011 79.213-.007 129.188.014m-211.608.001h11.073m-51.029.002H309.4m-79.748.018h12.892m-85.288.026c15.42-.008 30.838-.014 46.256-.018m-108.422.046h5.004m488.436 2.82c24.012.017 48.024.043 72.037.079m-250.307-.114c50.418-.011 78.593-.011 128.24.016m-210.012-.002h10.989m-53.861.002h18.948m-74.766.015h13.977m-85.201.028c15.048-.008 30.095-.013 45.142-.017m-113.286.048h6.032m492.277 2.814c23.065.015 46.13.039 69.193.07m-247.178-.101c49.918-.011 77.636-.011 127.746.014m-210.042-.001h11.033m-55.858.003h15.927m-70.013.017l16.017-.006m-86.915.032c14.974-.008 29.947-.013 44.92-.017m-138.375.063l29.17-.017m493.517 2.734c22.585-.014 45.17-.035 67.754-.062m-244.438.091c49.473.01 87.405.01 136.303-.014m-218.38.006h9.998m-69.888-.01h23.939m-64.927-.011h19.99m-90.75-.021l45.823.014m-152.701-.058l42.915.02m493.571 2.92c22.308-.014 44.617-.033 66.925-.058m-242.646.085c49.304.01 100.936.01 150.131-.013m-234.941.004h11.953m-113.065-.021c21.684.006 43.369.011 65.054.014m-132.015-.034l46.958.017m-154.262-.062l42.105.021m492.761 2.92c21.363-.013 42.725-.032 64.087-.057m-238.908.083c33.285.007 66.569.007 99.853 0m-188.404-.011h15.885m-179.284-.038c42.484.059 87.072.059 130.451.033m-238.668-.077l41.066.019M584 289.476c27.015-.013 34.739-.033 61.754-.061m-234.401.071c33.198.004 66.397.004 99.596 0m-193.755-.011h21.026m-179.709-.036c43.257.059 87.846.059 131.61.032m-238.178-.076l40.232.019M584 292.352c24.929-.012 33.559-.032 58.488-.061m-197.62.068h65.47m-98.484 0h15.092m-115.714-.01h28.174m-180.334-.037c42.695.058 87.284.058 131.122.033m-236.564-.074l39.196.017m490.674 2.935c23.576-.008 31.963-.026 55.539-.051m-194.581.047c22.001.009 44.002.014 66.004.016m-99.051-.01h15.002m-75.766.01h26.856m-218.147-.049c62.552.058 122.966.058 184.339.048m-286.873-.088l37.191.017m489.487 2.888c22.863-.03 30.169-.086 53.033-.167m-191.95.15c22.174.029 44.348.046 66.521.051m-98.66-.032l14.083-.01m-267.321-.106c72.765.18 146.121.18 219.057.137m-318.373-.263c11.712.017 23.424.033 35.137.048m488.473 3.07c22.554-.027 29.174-.077 51.727-.151m-191.443.128c23.677.032 47.354.049 71.029.052m-102.042-.033l12.967-.01m-267.406-.128c73.646.202 147.002.202 220.496.16m-314.989-.286l34.18.053m468.33 3.085c22.706-.028 45.412-.081 68.118-.16m-191.034.139c25.013.035 50.025.052 75.036.052m-106.142-.033l13.072-.011m-267.741-.125c72.882.202 147.673.202 221.531.157M68.22 303.54c11.722.019 23.445.036 35.167.053M578.5 354.235c15.508.016 5.492.035 21 .056m-83.391-.105c9.181.008 18.362.018 27.545.03m-175.483-.007c38.515-.043 77.028-.058 115.542-.044m-193.641.176c20.019-.048 40.038-.084 60.058-.111m-123.428.107l9.008.024m-39.881-.096l5.003.01m-113.545-.113c15.221 0 48.457.007 63.678.02M588 357.107c14.589.014-1.59.031 13 .05m-82.766-.098c8.334.006 16.668.015 25.001.025m-172.692-.008c38.249-.041 76.498-.054 114.746-.038m-194.02.165c19.464-.045 38.928-.079 58.391-.101m-123.025.131l9.038.029m-36.735-.116l8.035.018m-122.146-.123c16.089-.008 53.364-.001 69.453.02m433.22 2.924c13.9.015 3.6.031 17.5.051m-84.95-.1l23.023.024m-171.626-.004c38.246-.046 76.492-.061 114.737-.045m-193.915.185c19.044-.047 38.088-.085 57.131-.113m-122.924.126c2.99.008 5.98.018 8.97.028m-34.259-.113l8.97.021m-128.263-.131c16.924-.007 59.726 0 76.647.021m428.959 2.921c13.072.013 10.244.028 23.317.045m-86.317-.096c7.278.006 10.684.015 17.963.025m-155.601-.017c33.64-.034 67.279-.044 100.918-.031m-195.122.189c19.047-.049 38.094-.087 57.142-.113m-125.596.113c3.945.011 7.893.024 11.842.037m-32.841-.11l9.866.022m-132.24-.133c18.033-.013 61.572-.006 79.604.02m427.065 2.818h22.149m-85.649.006h17.893m-152.989-.002h99.362m-194.662-.011c18.874.004 37.748.006 56.624.008m-149.453-.012h35.638m-155.331.018h82.574M587 368.5h20.814m-84.814.004h19.056m-153.617-.002h99.434m-194.248-.012c19.986.005 39.972.008 59.959.009m-156.996-.004l39.454-.009m-132.788.019h63.338M587 371.373h19.152m-83.652.004h19.006m-153.28-.002h98.989m-193.047-.012c20.424.005 40.847.008 61.27.009m-157.95-.004l39.034-.007m-103.457.015h37.031m416.404 2.871h18.104m-83.104.003h21.952m-154.971-.001h96.618m-144.807-.005h15.682m-60.847-.008h26.128m-123.684.005l37.001-.008m-86.543.015h25.192M576 377.118h23.442m-78.442.004h24.919m-160.877-.001h95.368m-138.587-.005h14.676m-61.966-.008h25.565m-122.012.008l38.924-.008m341.645 2.884h14.941m-72.096.003h27.241m-167.486-.001h93.928m-134.009-.005h18.039m-64.082-.006h25.055m-121.74.007h38.286M520 382.814c11.321-.011 19.982-.024 31.304-.038m-210.054-.034c43.19.128 87.779.128 130.303.101m-155.158-.151l4.967.011m-117.481.014c12.02-.025 20.473-.057 32.492-.095M519 385.69c11.652-.01 20.358-.023 32.01-.038m-210.66-.044c42.651.136 87.241.136 129.791.112m-258.908-.157c8.869-.023 17.739-.049 26.609-.079m279.97 3.101c10.706.006 21.411.009 32.117.008m-225.366-.078c36.162.097 72.323.104 108.485.02m-215.945-.11l16.071-.044m287.495 3.075c9.331.005 18.662.009 27.994.011m-219.954-.06c19.107.042 38.215.058 57.323.047m139.847 2.873c7.278.006 14.556.01 21.835.011m-208.724-.026c11.658.015 23.315.02 34.971.018m156.55 2.872l15.992.008m-206.676-.021c7.352.008 14.704.012 22.056.014m241.095-90.59c9.919-.022 19.841-.049 29.766-.082m-67.383.149c6.241-.008 12.483-.017 18.725-.029m-141.08.001c25.072.043 50.144.064 75.216.062m-105.121-.046l11.89-.008m-268.827-.13c74.374.202 147.73.202 222.197.16m-304.597-.27c10.054.016 20.108.031 30.162.044m500.181 3.01c9.351-.024 18.703-.051 28.055-.082m-68.131.156l19.037-.029m-140.714.005c22.894.03 45.789.047 68.684.051m-98.694-.034l11.929-.01m-270.364-.13c75.19.203 151.418.203 225.674.161m-299.99-.258l25.101.037m500.079 3.013c9.042-.021 18.087-.046 27.135-.075m-70.358.149c6.7-.009 13.399-.019 20.099-.03m-139.446-.001c22.38.031 44.761.048 67.142.053m-358.361-.179c91.06.211 183.113.211 273.155.133m-338.429-.219l21.107.03m499.019 2.905c8.663-.038 17.326-.082 25.99-.132m-74.967.282c3.999-.007 17.644-.016 21.641-.026m-136.921.041c22.414.024 44.828.036 67.242.035m-205.782-.107c39.87.046 79.74.071 119.611.076m-276.135-.293c46.621.361 94.087.361 140.5.202m-198.657-.333l23.061.055m502.367 3.053c5.69-.026 11.381-.054 17.073-.083m-78.331.264c5.023-.009 20.951-.018 25.972-.029m-138.331.026c23.083.029 46.164.042 69.246.041m-203.727-.133c38.834.054 77.668.086 116.499.095m-332.067-.241c65.622.316 130.348.316 196.556.135m328.834 2.774c5.335-.025 10.669-.054 16.004-.085m-79.023.285c5.001-.008 21.007-.019 26.009-.031m-138.557.036c23.24.028 46.479.04 69.718.038m-201.839-.134c37.387.051 74.775.082 112.163.093m-328.731-.221c64.486.303 130.651.303 195.549.119m328.857 2.79c5.035-.022 10.068-.047 15.099-.072m-77.511.259c4.698-.008 19.554-.017 24.252-.027m-138.134.026c23.368.029 46.737.042 70.107.041m-199.576-.136c36.477.052 72.954.083 109.431.095m-218.706.034c28.727 0 57.453-.046 86.18-.14m-161.405.025c16.796.049 33.593.083 50.391.101m439.901 2.638c5.029-.024 10.056-.051 15.082-.079m-77.435.287c4.693-.009 15.97-.019 20.664-.031m-132.969.042c22.664.027 45.329.038 67.994.035m-109.937-.046h11.048m-58.254-.034l17.075.018m-57.248-.069l16.069.021m-54.924-.006c4.931-.008 9.86-.018 14.789-.028m-53.623.096c5.365-.009 10.73-.019 16.093-.032m-100.598.053c8.383.013 16.766.021 25.15.023M624 329.46c5.359-.023.784-.049 6.142-.078m-78.142.649c5.359-.008 14.64-.019 20-.031m-72 0h10.982m-68.712-.349c11.981.013 23.962.023 35.942.029m-166.131-.131l15.034.021m-50.018-.005l12.912-.024m336.195 1.86c5.311.019-1.908.016 3.404.039m-186.598-.23c11.404-.009 22.805-.015 34.203-.02m-164.651.1l15.075-.017m-49.239.003c4.356.008 8.711.014 13.067.019m257.31 2.8c6.641.007 19.585.016 26.225.026m-71.222-.033h11.019m-71.121.088c11.019-.026 22.039-.046 33.058-.062m-165.761.43c5.698-.024 11.397-.047 17.096-.069m-47.072-.003l13.967.071m210.672 2.391c21.103-.009 48.761.008 69.864.051m-128.151.035c10.05-.025 20.1-.044 30.148-.058m-196.818.456c16.085-.063 32.17-.119 48.256-.167m-237.706-.211c11.663-.031 23.327-.054 34.991-.067m381.299 2.831a19824.5 19824.5 0 0164.981.082m-122.004 0c8.886-.023 17.772-.04 26.66-.053m-196.528.456c17.642-.067 35.284-.126 52.924-.178m-132.72-.257c3.683.012 7.367.025 11.05.041m-120.9-.061c18.316-.015 36.632.005 54.949.058m362.993 2.786c24.264-.004 22.812.025 47.076.089m-103.378-.021c8.208-.019 16.416-.034 24.624-.045m-191.659.435c32.215-.122 64.429-.214 96.643-.276m-181.36.032l11.048.043m-122.086-.228c18.537-.012 37.074.009 55.611.061m363.896 2.781c24.062-.004 22.598.025 46.661.086m-103.404-.02c8.607-.019 17.214-.033 25.82-.044m-189.779.42c31.086-.114 62.171-.199 93.257-.257m-182.082.037l7.009.027m-118.308-.223c17.621-.016 35.243.001 52.867.05m369.724 2.782c23.532 0 21.363.016 44.896.047m-103.207-.022c8.957-.008 17.913-.014 26.87-.019m-65.03.052l12.051-.011m-136.767.142c30.607-.048 61.213-.084 91.818-.109m-186.4.035l5.015.009m-112.016-.109c16.471-.005 40.383.003 56.854.024m368.594 2.833c22.652 0 19.067.015 41.718.046m-103.636-.02c9.987-.009 19.977-.016 29.971-.02m-76.835.061l25.912-.026m-141.149.149c31.062-.049 62.124-.085 93.186-.11m-187.656.033l5.018.01m-111.609-.106a51172.5 51172.5 0 0159.421.018" stroke="#B7B48F" stroke-width=".502" stroke-linecap="round" stroke-linejoin="round"/><path d="M700.39 123.741c-5.126 1.706-7.86 1.193-11.107 2.729-3.247 1.535-2.563 4.096-6.835 3.582-4.272-.513-6.493-5.288-10.081-3.924-3.588 1.365-4.786 4.953-8.032 7.683-3.246 2.729 5.466 6.484-.17 12.628-5.635 6.144-5.465 12.423-8.885 11.331-3.421-1.092-5.127-4.165-8.373-2.628-3.246 1.536-6.492 3.242-8.715-1.537-2.222-4.778-3.246-4.607-9.226-4.607-5.981 0-25.801.511-32.979-1.536-7.177-2.047-13.84-9.046-20.503-10.24-6.663-1.193-22.555-.853-24.434-2.559-1.88-1.706-11.134-3.521-11.134-3.521s-16.062.342-20.505-.682c-4.444-1.024-8.199 2.388-12.985 2.388-4.787 0-11.279-3.071-14.696-3.071s-4.783-6.826-11.447-4.266c-4.712 1.81-8.199 0-14.354-3.071-6.155-3.071-11.79 2.047-16.405 4.606-4.614 2.56-13.328-.511-18.453-2.559-5.126-2.048-2.051-11.262-13.328-11.776-11.278-.513-2.563-7.682-13.842-5.048-11.278 2.634-10.764-5.192-17.428-5.192-6.664 0-5.127-4.606-13.328-4.606-8.202 0-11.791-2.048-9.227-6.656 2.564-4.607-3.077-9.215-11.278-10.24-8.202-1.025-8.715 0-19.48-1.535-10.766-1.536-11.791-5.12-19.48-5.633-7.69-.512-7.693 9.729-15.378 4.609-7.685-5.12-11.279-3.584-18.455-2.56-7.176 1.024-12.31 1.025-20.508-2.56-8.199-3.584-14.867-2.559-22.043.512-7.176 3.071-3.075 7.168-9.739 7.683-6.664.514-9.741 2.56-11.278 7.682-1.538 5.123 3.586 17.402-4.107 18.426-7.692 1.024-12.816-9.215-21.53-10.239-8.715-1.024-3.587-5.631-11.277-13.433-7.689-7.802-6.664-1.92-13.328-2.95-6.664-1.029-10.766 2.56-16.404 2.938-5.637.378-5.637-9.082-12.816-9.082-7.178 0-7.692 11.264-13.328 8.704-5.635-2.56-7.692-6.144-15.379-5.12-7.686 1.024-11.857-3.538-14.865-7.683-3.671-5.06-8.748-1.897-23.068-5.12-5.77-1.299-8.438-3.032-12.862-3.032-4.004.01-23.149 7.498-26.983 1.292-3.834-6.205 2.697-9.517 1.709-16.339-.988-6.822-11.957-7.362-11.417-13.198.54-5.835-4.392-7.648-4.783-14.291C15.328 11.337 2 2 2 2m0 123.682c13.328 2.047 5.299 12.785 13.5 15.856 8.202 3.071-2.555 16.988.341 33.633a37.074 37.074 0 0013.57 22.771 37.167 37.167 0 0025.323 7.912c21.189-1.023 22.422-19.429 34.122-27.374 11.701-7.946 39.249-.237 51.55 2.835 12.302 3.072 51.262 4.436 62.198 4.777 10.935.342 17.428-2.388 30.073-5.802 12.645-3.413 42.719-4.437 55.021-4.777 12.301-.34 24.605 6.142 42.713 7.849 18.107 1.708 27.035-5.125 34.056-7.494 7.02-2.37 19.562.648 26.774-4.448 7.213-5.096 21.596 2.19 30.107 1.436s16.086 2.964 18.821 6.035c2.735 3.071 8.829.379 16.687 1.062 7.859.682 14.013 4.779 20.506 6.485 6.493 1.707 24.809 1.473 30.275.789 5.467-.685 9.227 3.584 12.304 4.608 3.077 1.024 12.814.341 16.232.341 3.418 0 6.918 5.13 13.67 5.749 6.752.618 7.926 5.638 16.81 5.296 8.885-.341 14.234-4.539 22.268-3.022 8.033 1.517 14.002 11.936 28.526 11.254 14.525-.682 59.526 20.657 82.938 19.804" stroke="#B3CBE6" stroke-width="2.009" stroke-linecap="round" stroke-linejoin="round"/><path d="M3.774 133.446c7.743 4.712-1.507 8.613 6.694 11.684 8.202 3.071-5.717 21.263-3.938 39.72 1.78 18.458 18.681 37.503 47.808 27.975 29.127-9.528 29.948-18.068 42.791-24.42 12.843-6.353 30.978-4.815 43.28-1.744 12.302 3.071 51.262 4.438 62.197 4.779 10.935.342 20.32 4.145 32.964.735 12.644-3.409 41.277 1.778 53.579 1.437 12.301-.342 23.157-6.609 41.269-4.903 18.113 1.706 29.262-6.208 36.283-8.575 7.021-2.368 19.657-.055 28.167-4.001 8.511-3.947 16.66 4.751 25.172 4.001s10.794 1.271 15.829 4.833c5.034 3.561 13.137-.353 20.996.328 7.859.682 14.012 4.777 20.505 6.485 6.493 1.707 22.792 1.664 28.26.981 5.467-.682 8.424 3.418 11.5 4.442 3.076 1.024 13.004-.719 16.421-.719s6.194 6.683 12.946 7.302c6.752.618 11.281 5.12 20.166 4.777 8.885-.343 13.514-2.224 21.547-.707 8.032 1.516 15.321 8.198 29.845 7.515 14.525-.682 55.972 25.284 82.337 21.228" stroke="#61937E" stroke-width=".502" stroke-linecap="round" stroke-linejoin="round"/><path d="M7.862 121.234c13.328 2.048 6.199 13.841 26.336 15.636 20.136 1.795-1.798 21.329.718 35.194 2.517 13.865 16.182 16.383 26.25 7.182 10.07-9.201-2.448-28.496 5.754-30.885 8.201-2.388 61.184 21.451 73.482 24.522 12.299 3.071 54.02-.494 64.956-.151 10.937.343 17.202-3.36 29.846-6.773 12.644-3.412 40.183 1.464 52.489 1.122a341.728 341.728 0 0143.88 1.392c18.112 1.707 22.106-4.097 29.127-6.464 7.022-2.368 21.357 2.943 28.575-2.155 7.217-5.099 23.563 5.321 32.074 4.568 8.511-.753 18.821 5.059 21.338 4.65 2.517-.41 6.312 1.764 14.17 2.446 7.859.682 14.013 4.777 20.506 6.485 6.493 1.707 24.809 1.471 30.275.789 5.467-.682 9.227 3.585 12.304 4.607 3.077 1.022 12.814.341 16.232.341 3.418 0 4.662 3.619 12.133 4.953 7.47 1.335 7.139 5.295 16.025 4.954 8.886-.342 16.136-6.13 24.168-4.613 8.031 1.517 13.343 10.649 27.868 9.966 14.526-.682 60.605 24.675 84.015 23.822" stroke="#8DA1B2" stroke-width=".502" stroke-linecap="round" stroke-linejoin="round"/><path d="M2 109.787c13.328 2.048 12.062 17.825 32.199 19.62 20.137 1.795 23.373 10.056 44.588 7.463 21.216-2.593 40.174 23.925 61.619 28.551 21.446 4.625 54.02-.494 64.957-.151 10.936.343 17.201-3.36 29.845-6.773 12.644-3.412 40.183 1.464 52.49 1.122a342.102 342.102 0 0143.88 1.392c18.111 1.707 22.105-4.095 29.127-6.464 7.021-2.37 19.028 1.516 28.574-2.155 9.545-3.672 20.805 3.633 32.074 4.568 11.269.935 27.649 6.414 35.508 7.096 7.86.682 14.013 4.778 20.506 6.485 6.493 1.706 24.809 1.471 30.275.789 5.467-.682 25.118 4.953 28.536 4.953 3.418 0 19.273 10.245 28.158 9.907 8.886-.339 13.439-9.221 21.471-7.703 8.033 1.518 91.17 37.732 114.577 36.879" stroke="#768693" stroke-width=".502" stroke-linecap="round" stroke-linejoin="round"/><path d="M8.825 61.746c3.696 4.306 9.78 7.928 14.588 13.242 5.537 5.442 19.152 1.402 24.048 7.03 3.833 4.927 19.13 1.405 24.752 2.333 3.953.652 6.824 2.047 11.854 3.33 11.58 2.952 17.027 1.494 21.464 5.632 3.477 3.242 7.713 6.809 14.394 6.594 6.614-.238 9.357 2.57 14.536 4.656 5.298 2.123 7.05-5.018 13.311-4.713 6.376.333 7.751 6.874 12.881 6.809 5.494-.068 9.739-2.357 15.47-1.843 5.905.532 5.972-3.591 11.901.576 5.876 4.126 3.294 5.773 10.077 5.009 7.1-.798 11.829 4.224 18.91 2.509 6.553-1.587 4.915-10.101 7.675-14.021 2.412-3.425 5.489-5.006 11.433-5.337 5.465-.303 3.574-3.111 9.571-4.917a31.023 31.023 0 0120.795.574 44.532 44.532 0 0019.244 2.844c6.471-.282 10.526-.961 17.389 2.886 6.715 3.764 8.146-2.676 14.859-1.929 6.945.775 7.45 8.143 16.481 6.698 8.99-1.436 2.947-5.247 9.709-7.9 5.034-1.976 10.141.669 10.402 4.11.744 9.896 15.131 17.566 21.888 17.848 6.921.287 7.07 3.61 12.734 3.842 2.873.116 4.555 1.452 6.527 2.557 2.314 1.3 1.985-4.459 7.062-5.37 9.008-1.617 1.123 7.865 10.337 8.195 9.262.331 3.972 6.268 9.169 7.597 5.086 1.299 23.917 5.537 28.715 3.748 4.673-1.74 10.066-5.269 15.789-3.226 5.525 1.974 9.211 3.251 13.696 1.965 5.719-1.639 7.74 2.83 11.17 2.839 3.658.014 9.394 2.099 13.907 2.166 4.46.063 8.162-2.091 12.288-1.315 5.109.96 17.98 1.056 19.49 1.59.796.283 8.033 1.888 10.373 3.372 2.923 1.853 15.799 2.381 22.486 3.998 6.252 1.51 12.633 6.844 19.399 8.966 7.452 2.339 23.628 3.282 30.352 3.971 4.991.511 6.625.522 9.025 4.022 2.377 3.463 5.426 2.628 8.465 1.846 2.98-.768 9.948 6.545 13.015 7.48 3.612 1.099 4.702-2.781 9.746-6.591 5.073-3.834.26-6.101 3.542-7.783 3.258-1.689 4.711-4.751 8.01-5.668 3.557-.99 1.248-2.075 4.82-2.405 4.82-.447 6.204-3.926 9.958-6.657 5.971-4.346 10.344-7.908 13.866-9.045" stroke="#8DA1B2" stroke-width=".502" stroke-linecap="round" stroke-linejoin="round"/><path d="M2 68.11c3.696 4.307 16.6 12.627 21.411 17.937 5.538 5.442 19.152 1.402 24.048 7.03 3.833 4.927 19.13 1.406 24.752 2.334 3.953.651 6.824 2.046 11.854 3.33 11.58 2.951 22.154 3.786 27.805 6.407s19.449 7.158 26.131 6.943c6.612-.239 11.266-6.369 15.102-2.303 3.836 4.066 28.986 2.495 34.919 6.663 5.876 4.125 4.564 1.564 11.348.8 7.099-.798 11.857 3.74 18.938 2.022 6.553-1.587 7.547-5.56 10.309-9.485 2.411-3.423 1.557-4.847 7.5-5.178 5.466-.303 3.574-3.11 9.571-4.917a31.023 31.023 0 0120.796.573 44.53 44.53 0 0019.243 2.844c6.471-.282 10.526-.961 17.389 2.886 6.715 3.766 8.147-2.677 14.859-1.929 6.946.774 7.451 8.142 16.481 6.698 8.99-1.436 2.948-5.247 9.709-7.9 5.034-1.976 6.77-.321 7.029 3.12.747 9.896 38.43 18.551 43.478 21.217 5.049 2.666 4.69-6.314 8.465-6.314 3.776 0 8.639 17.5 23.014 19.214 14.374 1.713 42.224-.846 47.944 1.196 5.525 1.975 28.288.241 52.5 2.395s36.913 11.466 43.601 13.083c6.251 1.511 12.632 6.844 19.398 8.966 7.452 2.338 20.236-.83 26.96-.143 4.991.512 6.457.755 8.858 4.254 2.376 3.463 8.603.976 11.64.192 2.981-.767 10.596 8.621 13.664 9.56 3.611 1.099 4.44.678 9.483-3.134 5.074-3.834.26-6.1 3.542-7.783 3.258-1.69 2.374-8.276 5.668-9.194 3.557-.99 4.52-5.236 8.091-5.567 4.819-.446 5.235-1.938 8.99-4.669 5.971-4.347 10.378-3.211 13.895-4.347" stroke="#768693" stroke-width=".502" stroke-linecap="round" stroke-linejoin="round"/><path d="M2 223.564c15.658 7.515 30.52 5.121 30.52 26.19 0 21.068-5.34 34.716 11.474 50.517 16.814 15.802 36.951 7.9 44.862 22.267C96.767 336.904 45.952 415.992 2 372.097" stroke="#527A68" stroke-width=".502" stroke-linecap="round" stroke-linejoin="round"/><path d="M700.389 325.056c-8.87-2.3-43.741 26.255-61.361 13.646-17.619-12.608-24.812-40.939-56.815-34.305s-58.254-17.768-71.194-18.487c-12.94-.719-28.772 7.182-13.664 49.725 3.624 10.207 5.385 21.997 5.184 33.865m197.846-113.267c-13.075 2.274-26.838-10.892-40.146-19.189s-29.486-11.097-37.397-14.188c-7.911-3.091-22.294 1.655-31.284 0-8.99-1.655-10.43-7.323-35.654-7.468-25.224-.146-23.678 35.339-35.904 43.108-12.226 7.768-16.901-19.976-29.846-16.747-12.944 3.229-16.181 54.943-24.451 51.351-8.271-3.591 4.314-41.655-.36-59.826s-17.619-11.283-34.88-17.892c-17.26-6.609-14.386-21.047-30.924-24.276-16.538-3.229-24.449 5.746-53.037 11.732-17.773 3.724-24.392-6.416-50.761 3.016-26.369 9.433-34.72-9.673-58.594-5.148-23.873 4.525-52.312 11.996-73.57 5.148-21.259-6.847-53.862-16.903-53.862-10.798 0 6.106 37.347 26.309 47.47 36.23 10.123 9.92 21.934 40.624 21.934 16.562 0-24.061 13.642-22.791 39.857-22.791s62.388-12.647 78.208 1.718 29.122 20.499 49.322 20.499c20.2 0 60.954-14.279 80.61 5.358s21.575 68.725-11.507 91.104c-33.082 22.38-34.041 81.517 22.773 93.008 34.054 6.888 53.9-15.522 61.082-43.744" stroke="#62A58A" stroke-width=".502" stroke-linecap="round" stroke-linejoin="round"/><path fill-rule="evenodd" clip-rule="evenodd" d="M264.203 302.391l47.542-1.385 5.116 3.985-52.514 1.708a1.438 1.438 0 00-1.386 1.484l1.27 29.333c.074 2.171-4.243 2.199-4.312.148l-1.27-29.331a1.435 1.435 0 00-1.487-1.386l-37.542 1.297a1.452 1.452 0 00-1.012.467l-22.131 24.164c-1.394 1.527-4.37-1.008-3.371-2.661l3.589-3.927a1.59 1.59 0 00.158-.149l13.831-15.137a1.434 1.434 0 00.242-1.572 1.436 1.436 0 00-1.356-.833l-19.182.663-14.678.458-18.672-22.813a1.441 1.441 0 01-.324-.86l-1.258-36.602a1.428 1.428 0 00-.597-1.112l-52.554-37.851a1.44 1.44 0 00-.891-.27l-19.043.652a1.437 1.437 0 00-1.388 1.484l.168 4.913a1.437 1.437 0 01-1.388 1.485l-1.437.048a1.435 1.435 0 01-1.487-1.385l-.317-9.218a1.437 1.437 0 011.388-1.485l24.83-.85c.319-.012.632.083.891.269l55.466 39.949a1.43 1.43 0 01.597 1.112l1.281 37.259c.011.314.125.616.325.86l15.982 19.527a1.431 1.431 0 001.164.525l35.474-1.225a1.435 1.435 0 001.387-1.485l-.66-19.243a1.437 1.437 0 011.389-1.486l1.437-.048a1.435 1.435 0 011.487 1.386l.662 19.242a1.445 1.445 0 00.456 1.001 1.445 1.445 0 001.031.385l35.907-1.241a1.44 1.44 0 001.388-1.485l-.66-19.23a1.438 1.438 0 011.388-1.485l1.437-.049a1.44 1.44 0 011.487 1.386l.66 19.229a1.435 1.435 0 001.487 1.385zm-72.167 28.995a4.414 4.414 0 01-.057.071l-.032.036.032-.036.224-.254-.167.183z" fill="#CCCABC"/><path fill-rule="evenodd" clip-rule="evenodd" d="M309.13 303.952l2.163-3.365 26.612 17.107 147.748-5.786 25.676-4.408h51.42l.768-5.764 3.965.528-1.231 9.236H511.67l-25.599 4.395-149.269 5.846-27.672-17.789z" fill="#CCCABC"/><path d="M11.276 2.198c4.945 5.297 9.26 20.116 12.497 23.343 3.235 3.226-.36 7.542 2.157 8.978 2.518 1.436 8.99 5.028 10.426 8.26 1.435 3.231 11.866 10.411 26.25 10.773 14.384.362 32.543 1.437 35.15 7.182 2.607 5.746 16.631 10.082 25.98 7.38 9.349-2.702 16.541-4.861 19.418-1.63 2.878 3.232 6.114 9.696 11.867 9.696 5.753 0 13.125.72 15.463-1.795 2.338-2.514 5.753-6.284 11.866-.539 6.114 5.746 8.63 11.313 11.507 13.827 2.878 2.514 9.35 5.387 11.147 3.95 1.798-1.436 8.806-7.003 11.507-9.157 2.702-2.154 6.114-4.49 8.271-4.49 2.157 0 3.416 1.078 3.955-.358.54-1.437 3.239-6.823 6.473-7.721 3.234-.898 10.968-4.13 15.642-3.235 4.674.896 13.125 4.852 16.903 5.387 3.778.535 8.63.719 12.406-.539 3.776-1.257 12.045-3.053 14.563-1.077 2.518 1.975 5.753 5.566 7.552 4.668 1.798-.899 3.775-4.31 7.551-5.028a19.81 19.81 0 0110.968 1.257c2.696 1.257 10.788 5.028 15.822 5.028 5.035 0 17.983-1.078 23.373 1.978 5.39 3.055 7.911 4.997 8.629 7.526.719 2.53-.539 5.452 2.518 6.147 3.056.694 8.629 1.77 12.585 5.181 3.955 3.412 3.955-.18 7.731 2.154 3.775 2.334 5.034 5.387 9.708 4.489 4.674-.897 8.806-4.309 11.508-1.617 2.701 2.692 1.078 7.003 5.393 6.643 4.315-.359 8.091-.179 9.53 2.514 1.438 2.694 4.495 7.721 8.091 7.721 3.596 0 9.709 3.592 13.844.898 4.136-2.694 9.53-5.387 13.485-3.95 3.956 1.436 10.069 5.236 13.305 4.953 3.236-.283 7.012-4.953 9.709-2.617 2.696 2.336 3.416 5.031 6.832 5.747 3.416.717 10.069 4.309 13.484 3.411 3.415-.898 6.653-5.207 10.608-4.489 3.956.718 5.573 5.313 12.406 4.633 6.833-.681 11.507-5.708 18.339-3.555 6.832 2.154 9.889 8.795 19.058 8.438 9.169-.357 14.384.359 19.238 4.309 4.855 3.951 10.248 6.465 15.822 6.465s19.419-2.514 23.014-1.078c3.595 1.437 11.686.718 13.844 3.951 2.158 3.232 8.451-3.053 12.226-.898 3.775 2.155 8.99-3.412 5.034-9.157-3.955-5.746 3.057-7.472 5.934-10.47 2.876-2.998 11.507-6.23 14.563-3.538 3.055 2.692 5.574 4.671 7.371 1.976 1.798-2.695 7.191-3.592 10.788-3.951a11.713 11.713 0 005.804-2.155" stroke="#61937E" stroke-width=".502" stroke-linecap="round" stroke-linejoin="round"/><path d="M17.377 4.23c2.158 1.258 2.26 2.456 2.44 4.97.18 2.514 1.977 9.876 3.596 11.132 1.618 1.257 3.238 4.13 4.135 5.567.897 1.437-1.62 5.926 0 6.285s9.53 2.873 10.608 6.105c1.078 3.233 4.135 7.004 6.113 7.542 1.978.54 12.226 3.77 19.957 1.976 7.73-1.796 25.35-6.824 30.924-1.976 5.574 4.848 3.956 7.362 6.293 8.44 2.337 1.078 1.079 4.49 4.858 6.105 3.779 1.615 14.384 3.234 20.137 0 5.753-3.235 16.002-7.004 18.698-1.257 2.697 5.747 8.99 12.929 14.025 10.954 5.034-1.975 6.473-12.588 13.485-13.028 7.012-.44 15.642 6.41 17.08 11.066 1.438 4.656 9.572 18.802 13.305 20.456 3.733 1.655 8.45-5.512 11.686-7.873 3.236-2.362 5.574-6.492 8.806-5.953 3.232.539 3.955.045 5.214-2.582 1.258-2.627 8.45-5.14 11.327-6.218 2.876-1.077 9.169-4.489 12.585-2.514 3.416 1.976 7.911 5.028 13.485 5.567 5.574.539 10.607 2.155 14.384.539 3.776-1.616 12.406-6.285 14.923-4.13 2.517 2.154 4.495 7.542 6.652 5.566 2.157-1.975 6.113-5.386 9.888-4.668 3.776.719 10.968-.512 12.586 1.809 1.617 2.32 6.832 4.835 11.507 5.195 4.675.36 17.26-2.156 23.733.897 6.473 3.053 11.327 5.746 12.406 8.08 1.079 2.336-1.62 5.879 1.797 6.531 3.417.652 9.709 1.73 11.147 4.064 1.439 2.334 3.416 2.334 6.114 1.975 2.697-.359 4.315 6.104 9.349 5.028 5.035-1.077 11.147-5.567 13.485-2.334 2.338 3.233 2.157 8.978 5.035 8.618 2.877-.359 11.146-3.411 12.765 1.796 1.618 5.207 1.978 7.901 5.034 8.08 3.057.18 6.653 2.599 10.608 1.214 3.954-1.386 7.911-9.111 14.024-5.7 6.114 3.412 11.686 6.329 14.024 6.127 2.337-.202 10.607-7.204 12.225-4.33 1.619 2.874 1.978 8.079 6.653 8.439 4.675.36 9.709 3.592 12.587 1.257 2.877-2.335 7.91-9.158 11.506-6.824 3.595 2.335 6.113 7.904 10.069 7.902 3.955-.002 10.967-11.134 18.159-7.723 7.191 3.412 10.248 10.056 15.102 11.313 4.854 1.256 14.563-1.617 19.597 0 5.035 1.617 10.069 10.954 14.744 11.492 4.674.539 22.47-4.852 26.429-2.514 3.96 2.338 3.057 3.309 9.529 2.553 6.473-.756 7.372 3.014 9.889 1.757 2.517-1.258 9.709 3.052 10.248-.898.54-3.95-6.113-7.542-.898-10.412 5.214-2.87 5.574-5.028 8.45-7.721 2.877-2.693 6.113-2.514 9.529-3.77 3.417-1.257 7.551-1.257 9.709 1.617 2.158 2.874 1.978 1.078 5.035 0 3.056-1.077 6.652.359 8.091-1.256 1.439-1.616 8.143-3.943 8.143-3.943" stroke="#62A58A" stroke-width=".502" stroke-linecap="round" stroke-linejoin="round"/><path d="M22.871 2.006c8.63.72 4.495 5.936 6.653 9.887 2.158 3.95 7.191 6.823 7.911 10.411.72 3.589 8.99 3.235 10.425 6.824 1.435 3.588 7.552 11.491 16.54 10.056 8.99-1.436 26.071-18.316 33.354-11.852 7.282 6.465 7.28 13.288 10.158 14.725 2.877 1.436 2.876 9.337 11.146 8.978 8.271-.359 18.699-40.222 32.004-34.116 13.305 6.105 4.674 24.058 10.425 25.497 5.751 1.44 7.911-17.238 16.181-15.083 8.271 2.156 15.103 20.117 20.142 22.267 5.04 2.15 5.035 34.835 8.271 32.68 3.236-2.154 11.507-7.675 14.024-10.122 2.517-2.447 4.675-.112 6.114-1.908 1.438-1.795 1.797-7.362 3.955-7.9 2.158-.54 10.607-9.697 5.394-17.957a82.63 82.63 0 00-9.169-12.57c-1.978-2.333-1.798-4.852-1.62-7.003.178-2.15 2.877-1.256 1.258-6.284-1.618-5.028-5.393-2.514-4.135-6.644 1.258-4.13.898-1.437 3.596-2.335 2.697-.897 4.495-3.234 6.653-4.13 2.158-.895 0 14.904 3.955 17.058 3.956 2.155-1.977 10.774.36 11.852 2.337 1.077.719 3.77 3.596 5.925 2.876 2.155 12.765 4.13 8.27 7.362-4.495 3.232-6.113 6.645-2.337 7.362 3.776.718 6.469 4.49 8.088 5.748 1.62 1.259 8.451 6.738 11.327 6.51 2.877-.227 10.069 1.057 11.867.865 1.797-.192 11.147-3.963 11.866-6.117.72-2.154-1.977-9.158-4.858-8.26-2.881.898-19.238 3.412-17.62-.719 1.619-4.13 5.934-.718 5.574-4.13-.359-3.41-1.619-12.21 2.518-14.364 4.136-2.156 9.529-9.158 6.651-15.981-2.877-6.823-1.438-14.284 1.62-15.044 3.058-.759 5.034 2.654 4.495 7.143-.54 4.49-2.517 10.412 0 10.594 2.517.182 2.697-6.285 4.315-5.746 1.617.539 3.056 1.257 1.797 4.31-1.259 3.052-7.191 6.284-6.472 8.794.718 2.51 6.292 10.412 6.113 15.98-.179 5.57 4.495 11.134 4.674 14.366.179 3.232 2.337 10.8 3.416 9.17 1.079-1.63 3.775-6.836 7.012-6.836 3.237 0 7.552 3.053 9.35 2.155 1.797-.898 5.034 0 5.933-3.591.899-3.592-3.775-14.725-2.696-18.316 1.079-3.592 4.134-4.67 7.191-8.619 3.057-3.95 6.293-2.693 5.574-.18-.719 2.513-7.372 10.412-5.574 12.57 1.798 2.156 1.798 11.492 3.775 15.082 1.978 3.59 1.079 10.056 5.753 9.876 4.675-.18 18.878-3.591 22.295-4.669 3.417-1.077 5.035 6.465 7.552 7.542 2.517 1.078 13.844-6.239 12.765-.965-1.079 5.273-6.113 12.606-3.239 13.7a10.643 10.643 0 008.451 0c2.697-1.242 1.052 5.401 3.763 4.683a12.844 12.844 0 008.643-9.849c.899-5.773 5.394-6.311 5.574-4.696.18 1.615 1.797 8.592-1.079 9.862-2.877 1.27-5.394 8.997-3.239 9.531 2.155.535 12.765-1.077 13.305-4.489.539-3.412 5.034-5.387 7.371-11.133 2.337-5.745 8.99-4.852 8.091-2.693-.898 2.158-6.292 7.182-4.674 11.312 1.619 4.13-6.832 2.873-5.933 6.285.899 3.411.72 8.08 3.239 7.721 2.519-.36 11.148-2.334 8.99-5.746-2.158-3.412-5.214-9.727-1.079-10.788 4.135-1.061 9.709-.525 10.248-6.81.54-6.284-2.696-12.21 2.337-12.928 5.034-.719 9.169 8.794 5.574 11.671-3.595 2.877-10.248 10.954-10.248 13.288 0 2.334 6.473 10.774 3.239 13.827-3.234 3.052-3.596 6.284-1.438 7.542 2.157 1.257 7.012 3.976 8.27 2.168 1.258-1.809 8.63-7.555 5.574-12.939-3.056-5.384.359-18.62 4.858-20.981 4.499-2.362 8.63-1.82 7.731-5.953-.899-4.134 1.438-8.526 2.877-7.496 1.438 1.03 8.805 9.47 4.135 11.446-4.67 1.975-12.765 2.873-11.507 6.285 1.258 3.411-4.858 6.464-3.955 10.234.902 3.771-.18 7.901 5.393 11.493 5.573 3.591 9.889 5.926 12.946 6.106 3.057.179 12.045-2.335 11.686-7.901-.358-5.567 5.753-21.907 9.53-19.932 3.776 1.974-8.271 12.569-4.495 20.116 3.775 7.547-.54 9.422 2.697 12.162 3.237 2.741 7.552 2.022 9.709 2.203 2.157.181 7.731-4.669 6.653-7.542-1.078-2.873-3.057-9.876 1.258-13.108 4.315-3.232 5.034-6.106 4.135-10.056-.898-3.95 2.337-12.155 5.573-8.053 3.236 4.102-2.696 6.975 0 11.827 2.697 4.852-5.753 7.721-3.416 11.671 2.337 3.95 2.35 6.285 4.41 8.978 2.061 2.694 3.68 5.936 6.019 6.289 2.338.353 5.393-1.979 7.551-5.571 2.158-3.591 7.193-9.876 11.148-5.926 3.956 3.951 6.473 9.957 11.506 11.532 5.034 1.575 7.192.679 14.744 1.037 7.551.359 7.371.359 8.805 2.515 1.434 2.155 5.753 5.277 9.35 2.639 3.596-2.638 3.955-7.488 8.805-4.974 4.851 2.514 5.574 8.26 10.248 6.824 4.675-1.437 6.653 1.171 11.507.226 4.853-.945 3.056 7.495 5.393 8.033 2.337.539 8.451-.538 12.226 1.258 3.776 1.796 8.091 1.795 7.012 0-1.079-1.795-14.562-6.644-13.664-9.876.899-3.232 6.293-10.03-2.337-12.556-8.629-2.526-24.632-3.425-23.193-9.889 1.438-6.465 2.876-6.106-.54-10.235-3.416-4.13-4.674-7.393-2.337-8.634 2.337-1.241 1.799 1.45 4.136 3.247 2.337 1.796 2.337 7.72 6.292 6.105 3.956-1.617 1.978-11.133 7.013-12.57 5.034-1.436 8.805-3.77 8.805 1.257s-7.911 5.207-5.753 9.517c2.158 4.31-4.675 3.77-2.697 9.876 1.978 6.106 10.069 1.976 13.664 3.412 3.595 1.436 6.293 4.852 5.753 6.823-.539 1.971-3.596 10.845.899 12.156s8.091 1.494 9.528-1.56c1.438-3.054-.359-5.901.72-9.502 1.079-3.601 5.753-3.245 10.069-3.425 4.316-.18 5.574-3.235 10.069-8.439 4.495-5.205 6.292-3.235 7.191-.898.899 2.337-.718 9.517.899 9.696 1.617.179 3.057-3.527 4.858-1.764 1.802 1.763 14.436-3.623 14.436-3.623" stroke="#527A68" stroke-width=".502" stroke-linecap="round" stroke-linejoin="round"/><path d="M515.695 437.996c7.191-12.029 1.079-49.019 20.856-47.942 19.778 1.078 25.416 17.957 39.857 6.823 6.106-4.707 7.444-12.654 8.26-20.377m115.726-14.458c-15.232-2.873-31.156 20.47-49.854 25.498-10.735 2.886-25.596-16.405-39.54-26.605m-23-1.14c1.535-2.698 3.939-4.495 7.883-4.844 1.342-.119 2.717.002 4.117.324m-235.699 82.721c-16.54-28.55 19.419-75.142-5.034-78.779-24.453-3.637-12.946-28.554-25.172-32.617-12.225-4.062-25.171-2.613-23.013 17.132 2.158 19.745 7.911 27.818 19.418 32.044 11.508 4.227 12.946 17.736-1.438 20.676-14.384 2.941-26.61-19.532-33.806-11.168-7.196 8.363-14.863 13.272-32.963 9.74-18.099-3.532-47.319-15.163-65.431 1.428-18.111 16.592-33.292 41.547-33.292 41.547" stroke="#61937E" stroke-width=".502" stroke-linecap="round" stroke-linejoin="round"/><path d="M459.239 343.732c-9.599-.699-20.142 1.404-22.535 11.173-2.392 9.769-11.986 39.936 0 44.246 11.986 4.311 32.124-1.065 33.563-17.77 1.438-16.706 3.835-36.564-11.028-37.649z" stroke="#527A68" stroke-width=".502" stroke-linecap="round" stroke-linejoin="round"/><path d="M700.39 76.732c-8.622 4.347-13.896 7.216-16.296 1.948-2.4-5.268-11.507-11.018-14.384-8.14-2.877 2.877 1.316 16.22-6.412 17.477-7.728 1.257-12.406 3.053-14.384 5.387-1.978 2.334-11.507 3.77-12.226 0-.718-3.77-6.292-3.591-3.955-6.105 2.337-2.514 9.529-7.362 7.551-11.313-1.979-3.95-8.271-15.17-12.226-12.702-3.956 2.467-7.731 8.034-11.867 6.239-4.135-1.796-4.315 1.975-4.858 3.411-.544 1.437-3.416 3.95-7.552 1.976-4.136-1.976-6.293-2.156-7.731-.54-1.438 1.617-8.091 7.363-4.315 10.954 3.777 3.592 11.147 8.232 7.552 10.401-3.595 2.17-4.858 7.8-4.136 10.102.723 2.301-.539 7.689-5.393 5.894-4.855-1.795-4.675-13.647-11.508-12.569-6.832 1.078-12.044 3.053-14.923.898-2.878-2.156-10.968-3.77-16.361-3.235-5.394.536-9.35 5.028-10.968 3.235-1.618-1.794.18-11.077-3.057-12.542-3.237-1.465.36-13.849-4.858-16.188-5.218-2.34-4.858-2.873-8.63-1.617-3.771 1.255-7.191 7.416-11.507 7.03-4.316-.386-6.832-.027-10.425-1.82-3.593-1.792-1.798.594-4.675 1.82-2.878 1.226-7.911 5.54-9.35 3.564-1.438-1.975-5.933-7.003-5.753-8.618.18-1.615.54-6.55-2.697-8.39-3.237-1.84-7.911-3.099-10.069-5.074-2.158-1.975-3.416-.45-5.035 1.122-1.618 1.572-.18 6.78-2.517 6.959-2.337.18-6.292 1.82-8.091-2.142-1.799-3.961-4.858-7.452-6.832-6.874-1.974.578-10.607 2.553-10.968 5.247a4.707 4.707 0 01-4.186 4.203 4.719 4.719 0 01-2.106-.253c-3.416-1.078-4.495-1.975-8.451 0-3.955 1.975-7.731 2.334-8.806.539-1.075-1.796-6.832-6.285-8.99-5.028-2.158 1.256-2.876 5.746-7.191 4.668-4.315-1.078-7.552.632-8.27-3.366-.719-3.998-2.698-4.176-5.934-2.56-3.235 1.617-8.45 4.942-9.169 2.56-.718-2.383-2.696-6.892-7.011-6.073-4.315.818-11.327 2.616-12.045.82-.717-1.797-1.619-11.133-5.574-11.672-3.954-.539-5.933-7.542-5.213-8.794.719-1.253 1.619-6.645 1.079-8.44-.541-1.795-3.416-5.387-4.315-7.542-.899-2.155-3.596 1.256-5.933 0-2.337-1.257-20.317.539-20.142-2.514.175-3.053-6.473-13.468-9.889-13.468-3.416 0-5.574-2.334-5.214-3.591M60.873 7.944c-.958 3.112-1.917 5.028 1.2 7.182a11.19 11.19 0 009.287 1.197c1.923-.72 6.472-5.029 7.91-1.197 1.439 3.83 0 10.534 2.638 9.577 2.638-.958 9.35-8.86 12.465-6.226 3.115 2.633 9.349 1.436 10.309 3.83.959 2.396 7.432 15.084 11.986 12.211 4.554-2.873 3.116-10.774 7.672-12.21 4.556-1.437 8.869-5.747 4.315-7.182-4.554-1.436-16.302 2.873-17.26-2.155-.959-5.028 1.677-6.465 5.034-5.507 3.357.959 19.177 2.873 18.937.718-.239-2.155 3.837-5.986 3.837-5.986m34.463 9.225c-3.35-.051-8.857 1.415-9.224 4.1-.367 2.685.489 10.15 1.911 7.267 1.422-2.882 10.663-11.311 7.313-11.367zm18.273-6.171c-2.158 6.705-8.151 3.666-9.11 6.173-.958 2.507 6.234-.127 9.11 2.266 2.875 2.394 2.631 22.026 7.191 23.462 4.56 1.437 3.355-6.703 5.992-5.506s7.911 16.999 6.473 21.548c-1.438 4.549-5.992 20.455-4.315 21.48 1.677 1.023 5.514-11.423 7.672-12.622 2.158-1.2 7.192 2.873 7.911 1.436.72-1.436-3.836-18.436-2.398-21.07 1.439-2.632 4.315.479 5.275-1.196.959-1.675-6.234-5.746-7.432-9.817-1.199-4.072-2.398-6.833-.479-7.964 1.919-1.131 5.273-4.064 3.355-4.872-1.918-.809-11.507-1.29-9.828-5.12 1.679-3.831.72-11.252.72-11.252m39.557.002c1.198 3.35-6.234 11.252-2.876 12.45 3.357 1.197 6.018-.298 3.009 3.922-3.009 4.219-7.085 16.668-2.531 18.582 4.555 1.915 8.39 2.634 8.151 4.55-.239 1.914 2.418 4.308.01 5.267-2.408.958-.833 5.746 1.012 4.788 1.846-.958 5.925-5.028 8.322-5.028 2.398 0 .958-2.873 0-5.028-.957-2.155-3.836-10.055-1.678-11.492 2.158-1.438 11.507-7.24 8.39-11.64-3.117-4.4-5.273-11.344-8.868-9.907-3.596 1.438-4.076-3.112-.72-6.464" stroke="#B7B48F" stroke-width=".502" stroke-linecap="round" stroke-linejoin="round"/><path d="M378.585 4.468c.138.298.324.572.552.808 3.361 4.347 19.978 8.147 18.248 10.565-1.797 2.514 11.684 3.343 13.035 7.598 1.351 4.254-11.235 9.4-7.282 11.497 3.954 2.097 7.729 5.684 7.282 7.84-.448 2.154 7.461 8.618 9.979 3.59 2.517-5.026-.72-19.625 3.955-19.329 4.675.296 13.664-10.057 17.979-8.47 4.315 1.585 6.473 13.794 10.425 13.076 3.953-.72 16.903-21.189 22.295-16.882 5.392 4.308 22.654 11.244 26.969 8.675 4.315-2.568 5.394 5.69 10.788 6.05 5.393.358 31.644-16.935 34.52-12.06 2.877 4.875 12.946 12.06 17.261 12.06 4.314 0 5.034 6.457 7.191 8.975s8.27 6.826 14.384 3.953c6.113-2.873 3.596-14.239 11.147-15.379 7.55-1.14 14.024-3.528 15.822 0 1.797 3.528 0 13.225 3.595 13.584s7.911-1.802 12.585-2.157c4.674-.355 8.788 7.672 8.99 9.774.719 7.467 14.023 12.296 16.903 8.805 2.88-3.492 7.191-14.984 11.147-12.112 3.955 2.873 16.181 9.338 19.058 1.796 2.876-7.542 14.975-19.689 14.975-19.689" stroke="#B7B48F" stroke-width=".502" stroke-linecap="round" stroke-linejoin="round"/><path d="M495.857 4.927c4.315 4.859 9.763 5.661 14.438 6.495 4.676.834 3.956 9.034 9.709 6.009 5.753-3.026 25.595-13.439 29.338-10.21 3.743 3.229 6.621 5.387 11.655 6.823 5.035 1.437 18.699 11.962 21.216 9.394 2.517-2.567 17.979-6.576 24.452-6.01 6.473.566 10.069 1.644 14.023-1.588 3.955-3.231 9.35 1.437 8.99 5.029-.359 3.591-10.069 8.241-5.753 9.327 4.316 1.085 13.305-3.959 14.384 0 1.079 3.958 5.034 9.34 7.552 8.267 2.517-1.074 4.672 8.984 7.911 5.75 3.239-3.235 7.191-14.366 10.069-12.21 2.877 2.154 5.393 4.432 7.911 2.93 2.517-1.5 3.239-17.355 7.551-17.507 4.313-.153 21.088-15.424 21.088-15.424" stroke="#527A68" stroke-width=".502" stroke-linecap="round" stroke-linejoin="round"/><path d="M410.415 311.045l-1.854-53.944-28.128.963-39.778 1.364.582 16.955.583 16.955 30.398-.957.85 14.513 8.909-.453.309 5.568 28.129-.964z" fill="#F93C00"/><path d="M191.551 351.329l11.458-12.258-7.931-7.395-7.931-7.396-11.459 12.258-12.652-11.798-9.603 10.274-9.604 10.272 41.167 38.386 9.603-10.273 9.604-10.273-12.652-11.797zm82.566 4.121l-.792-16.761-10.831.526-10.832.525.792 16.761-17.278.838.664 14.047.662 14.048 56.221-2.728-.664-14.048-.663-14.047-17.279.839zm-122.335-54.435l-.211-6.124 6.931-.238-.373-10.83-.372-10.83-6.931.237-.21-6.124-12.469.428-.267-7.766-14.069.482-14.069.482.478 13.891-12.468.428.372 10.83.373 10.83 12.468-.426.477 13.891 28.128-.964-.267-7.767 12.479-.43zm132.615-39.66l-.482-14.051-.483-14.051-93.535 3.212.966 28.092 14.373-.493.674 19.631 10.844-.372 10.844-.372-.675-19.631 21.406-.733.674 19.629 10.845-.371 10.844-.372-.674-19.631 14.379-.487zm-191.26 5.442l-.45-13.114-.347-10.109-.858-24.952-13.13.45-13.131.451.754 21.949-21.978.755.45 13.113.45 13.114 21.98-.754 26.26-.903z" stroke="#F93C00" stroke-width="2.009" stroke-linecap="round" stroke-linejoin="round"/><path d="M440.688 385.325c8.105 0 14.676-6.562 14.676-14.658 0-8.095-6.571-14.657-14.676-14.657s-14.676 6.562-14.676 14.657c0 8.096 6.571 14.658 14.676 14.658z" stroke="#B3CBE6" stroke-width="2.009"/><path d="M436.514 365.447v10.446m8.36-10.446v10.446" stroke="#B3CBE6" stroke-width="2.009" stroke-linecap="round"/><path d="M444.882 370.667h-8.368" stroke="#B3CBE6" stroke-width="2.009"/><path fill-rule="evenodd" clip-rule="evenodd" d="M380.259 306.527l.544 11.747-3.995.185-.545-11.746 3.996-.186z" fill="#CCCABC"/><path d="M565.568 396.394c.72.276 1.272.672 1.656 1.188.384.516.576 1.134.576 1.854 0 .756-.204 1.416-.612 1.98-.408.552-.99.978-1.746 1.278-.756.3-1.644.45-2.664.45-1.008 0-1.89-.15-2.646-.45-.744-.3-1.32-.726-1.728-1.278-.408-.564-.612-1.224-.612-1.98 0-.72.186-1.338.558-1.854.384-.516.936-.912 1.656-1.188-.576-.276-1.014-.642-1.314-1.098-.3-.456-.45-.996-.45-1.62 0-.696.186-1.302.558-1.818.384-.516.918-.912 1.602-1.188.684-.276 1.476-.414 2.376-.414.912 0 1.71.138 2.394.414.696.276 1.23.672 1.602 1.188.384.516.576 1.122.576 1.818 0 .612-.156 1.152-.468 1.62-.3.456-.738.822-1.314 1.098zm-2.79-4.68c-.852 0-1.524.186-2.016.558-.492.36-.738.852-.738 1.476s.24 1.116.72 1.476c.492.36 1.17.54 2.034.54.876 0 1.56-.18 2.052-.54.504-.36.756-.852.756-1.476s-.258-1.116-.774-1.476c-.504-.372-1.182-.558-2.034-.558zm0 9.972c.996 0 1.782-.204 2.358-.612.576-.42.864-.984.864-1.692 0-.696-.288-1.242-.864-1.638-.576-.408-1.362-.612-2.358-.612s-1.776.204-2.34.612c-.564.396-.846.942-.846 1.638 0 .708.282 1.272.846 1.692.564.408 1.344.612 2.34.612zm-51.734-.286v1.224L505.95 414h-1.908l4.986-11.034h-5.76v2.25h-1.728V401.4h9.504zM630.3 359.35c.828 0 1.566.156 2.214.468.66.312 1.176.762 1.548 1.35.372.576.558 1.242.558 1.998 0 .792-.198 1.488-.594 2.088-.384.6-.918 1.068-1.602 1.404-.672.324-1.428.486-2.268.486-1.692 0-3-.546-3.924-1.638-.912-1.092-1.368-2.64-1.368-4.644 0-1.404.246-2.598.738-3.582.504-.996 1.2-1.746 2.088-2.25.9-.516 1.944-.774 3.132-.774.612 0 1.188.066 1.728.198.54.12 1.008.3 1.404.54l-.684 1.404c-.6-.396-1.404-.594-2.412-.594-1.308 0-2.334.408-3.078 1.224-.744.804-1.116 1.98-1.116 3.528 0 .192.006.342.018.45.36-.54.852-.948 1.476-1.224.636-.288 1.35-.432 2.142-.432zm-.216 6.336c.828 0 1.5-.222 2.016-.666.516-.444.774-1.038.774-1.782s-.264-1.332-.792-1.764c-.516-.444-1.212-.666-2.088-.666-.564 0-1.068.108-1.512.324-.432.216-.774.51-1.026.882-.24.372-.36.786-.36 1.242 0 .444.114.852.342 1.224.24.36.582.654 1.026.882.456.216.996.324 1.62.324zm-210.62 20.736c1.8 0 3.12.342 3.96 1.026.852.672 1.278 1.596 1.278 2.772 0 .744-.18 1.416-.54 2.016-.348.588-.882 1.056-1.602 1.404-.708.336-1.584.504-2.628.504a8.422 8.422 0 01-2.574-.396c-.828-.276-1.512-.654-2.052-1.134l.828-1.422c.432.408.984.738 1.656.99.672.24 1.38.36 2.124.36.948 0 1.68-.198 2.196-.594.528-.408.792-.96.792-1.656 0-.756-.288-1.326-.864-1.71-.576-.396-1.56-.594-2.952-.594h-2.862l.666-6.588H424v1.566h-5.598l-.342 3.456h1.404zm192.362-103.518h-2.394V286h-1.746v-3.096h-7.002v-1.26l6.444-8.244h1.944l-6.174 7.956h4.842v-2.736h1.692v2.736h2.394v1.548zm-559.138 1.788c1.236.12 2.178.504 2.826 1.152.648.636.972 1.452.972 2.448 0 .72-.18 1.374-.54 1.962-.36.576-.9 1.038-1.62 1.386-.708.336-1.578.504-2.61.504a8.48 8.48 0 01-2.592-.396c-.828-.276-1.506-.654-2.034-1.134l.828-1.422c.432.408.984.738 1.656.99a6.32 6.32 0 002.142.36c.936 0 1.662-.198 2.178-.594.528-.396.792-.942.792-1.638s-.258-1.236-.774-1.62c-.516-.384-1.296-.576-2.34-.576h-1.008v-1.26l3.168-3.888h-6.066V279.4h8.316v1.224l-3.294 4.068zm189.032-58.258V228h-9.054v-1.224l5.13-4.95c.624-.6 1.044-1.116 1.26-1.548.216-.444.324-.888.324-1.332 0-.66-.234-1.17-.702-1.53-.456-.372-1.116-.558-1.98-.558-1.392 0-2.466.456-3.222 1.368l-1.224-1.062c.492-.6 1.134-1.068 1.926-1.404.804-.336 1.698-.504 2.682-.504 1.32 0 2.37.318 3.15.954.78.624 1.17 1.476 1.17 2.556 0 .672-.144 1.308-.432 1.908-.288.6-.834 1.284-1.638 2.052l-3.852 3.708h6.462zm-140 94V322h-9.054v-1.224l5.13-4.95c.624-.6 1.044-1.116 1.26-1.548.216-.444.324-.888.324-1.332 0-.66-.234-1.17-.702-1.53-.456-.372-1.116-.558-1.98-.558-1.392 0-2.466.456-3.222 1.368l-1.224-1.062c.492-.6 1.134-1.068 1.926-1.404.804-.336 1.698-.504 2.682-.504 1.32 0 2.37.318 3.15.954.78.624 1.17 1.476 1.17 2.556 0 .672-.144 1.308-.432 1.908-.288.6-.834 1.284-1.638 2.052l-3.852 3.708h6.462zm68 70V392h-9.054v-1.224l5.13-4.95c.624-.6 1.044-1.116 1.26-1.548.216-.444.324-.888.324-1.332 0-.66-.234-1.17-.702-1.53-.456-.372-1.116-.558-1.98-.558-1.392 0-2.466.456-3.222 1.368l-1.224-1.062c.492-.6 1.134-1.068 1.926-1.404.804-.336 1.698-.504 2.682-.504 1.32 0 2.37.318 3.15.954.78.624 1.17 1.476 1.17 2.556 0 .672-.144 1.308-.432 1.908-.288.6-.834 1.284-1.638 2.052l-3.852 3.708h6.462zm98 17V409h-9.054v-1.224l5.13-4.95c.624-.6 1.044-1.116 1.26-1.548.216-.444.324-.888.324-1.332 0-.66-.234-1.17-.702-1.53-.456-.372-1.116-.558-1.98-.558-1.392 0-2.466.456-3.222 1.368l-1.224-1.062c.492-.6 1.134-1.068 1.926-1.404.804-.336 1.698-.504 2.682-.504 1.32 0 2.37.318 3.15.954.78.624 1.17 1.476 1.17 2.556 0 .672-.144 1.308-.432 1.908-.288.6-.834 1.284-1.638 2.052l-3.852 3.708h6.462zm125.735-77.597v12.6h-1.782v-11.034h-2.844v-1.566h4.626zM128.606 136.568h-5.264l1.76 2.704h-1.072l-2.144-3.136 2.144-3.168h1.072l-1.76 2.72h5.264v.88zm7.19-7.28h1.184v10.176h6.272v1.024h-7.456v-11.2zm16.641 2.784v8.416h-1.088v-1.536c-.299.512-.71.912-1.232 1.2-.523.278-1.12.416-1.792.416-1.099 0-1.968-.304-2.608-.912-.63-.618-.944-1.52-.944-2.704v-4.88h1.136v4.768c0 .886.218 1.558.656 2.016.437.459 1.061.688 1.872.688.885 0 1.584-.266 2.096-.8.512-.544.768-1.296.768-2.256v-4.416h1.136zm13.677-.064c1.056 0 1.883.304 2.48.912.608.608.912 1.504.912 2.688v4.88h-1.136v-4.768c0-.874-.213-1.541-.64-2-.416-.458-1.008-.688-1.776-.688-.874 0-1.562.272-2.064.816-.501.534-.752 1.275-.752 2.224v4.416h-1.136v-4.768c0-.874-.213-1.541-.64-2-.416-.458-1.013-.688-1.792-.688-.864 0-1.552.272-2.064.816-.501.534-.752 1.275-.752 2.224v4.416h-1.136v-8.416h1.088v1.536a3.044 3.044 0 011.248-1.184c.534-.277 1.147-.416 1.84-.416.704 0 1.312.15 1.824.448.523.299.912.742 1.168 1.328.31-.554.752-.986 1.328-1.296.587-.32 1.254-.48 2-.48zm10.809 0a4.28 4.28 0 012.144.544c.64.352 1.141.854 1.504 1.504.363.651.544 1.392.544 2.224 0 .832-.181 1.574-.544 2.224a3.884 3.884 0 01-1.504 1.52c-.64.363-1.355.544-2.144.544-.704 0-1.339-.149-1.904-.448a3.466 3.466 0 01-1.344-1.296v1.664h-1.088v-11.872h1.136v5.056c.352-.544.8-.954 1.344-1.232a3.967 3.967 0 011.856-.432zm-.08 7.552c.587 0 1.12-.133 1.6-.4.48-.277.853-.666 1.12-1.168.277-.501.416-1.072.416-1.712 0-.64-.139-1.21-.416-1.712a2.784 2.784 0 00-1.12-1.152 3.143 3.143 0 00-1.6-.416c-.597 0-1.136.139-1.616.416a2.917 2.917 0 00-1.12 1.152c-.267.502-.4 1.072-.4 1.712 0 .64.133 1.211.4 1.712a3.02 3.02 0 001.12 1.168c.48.267 1.019.4 1.616.4zm10.028 1.008c-.811 0-1.542-.181-2.192-.544a4.074 4.074 0 01-1.536-1.536c-.374-.65-.56-1.386-.56-2.208 0-.821.186-1.557.56-2.208a3.97 3.97 0 011.536-1.52c.65-.362 1.381-.544 2.192-.544.81 0 1.541.182 2.192.544.65.363 1.157.87 1.52 1.52.373.651.56 1.387.56 2.208 0 .822-.187 1.558-.56 2.208a3.97 3.97 0 01-1.52 1.536c-.651.363-1.382.544-2.192.544zm0-1.008c.597 0 1.13-.133 1.6-.4.48-.277.853-.666 1.12-1.168.266-.501.4-1.072.4-1.712 0-.64-.134-1.21-.4-1.712a2.784 2.784 0 00-1.12-1.152 3.09 3.09 0 00-1.6-.416c-.598 0-1.136.139-1.616.416a2.91 2.91 0 00-1.12 1.152c-.267.502-.4 1.072-.4 1.712 0 .64.133 1.211.4 1.712.277.502.65.891 1.12 1.168.48.267 1.018.4 1.616.4zm13.429-7.488l-3.744 8.416h-1.168l-3.728-8.416h1.184l3.152 7.168 3.184-7.168h1.12zm4.719 4.192l-1.984 1.824v2.4h-1.136v-11.872h1.136v8.048l5.024-4.592h1.408l-3.6 3.44 3.936 4.976h-1.392l-3.392-4.224zm9.278-4.256c1.098 0 1.941.278 2.528.832.586.544.88 1.355.88 2.432v5.216h-1.088v-1.312c-.256.438-.635.779-1.136 1.024-.491.246-1.078.368-1.76.368-.939 0-1.686-.224-2.24-.672-.555-.448-.832-1.04-.832-1.776 0-.714.256-1.29.768-1.728.522-.437 1.349-.656 2.48-.656h2.672v-.512c0-.725-.203-1.274-.608-1.648-.406-.384-.998-.576-1.776-.576-.534 0-1.046.091-1.536.272a3.77 3.77 0 00-1.264.72l-.512-.848c.426-.362.938-.64 1.536-.832a5.85 5.85 0 011.888-.304zm-.4 7.664c.64 0 1.189-.144 1.648-.432.458-.298.8-.725 1.024-1.28v-1.376h-2.64c-1.44 0-2.16.502-2.16 1.504 0 .491.186.88.56 1.168.373.278.896.416 1.568.416zm14.409.912a7.256 7.256 0 01-2.4-.4c-.758-.266-1.344-.618-1.76-1.056l.464-.912c.405.406.944.736 1.616.992a6.002 6.002 0 002.08.368c1.002 0 1.754-.181 2.256-.544.501-.373.752-.853.752-1.44 0-.448-.139-.805-.416-1.072a2.615 2.615 0 00-.992-.608c-.395-.149-.944-.309-1.648-.48-.843-.213-1.515-.416-2.016-.608a3.43 3.43 0 01-1.296-.912c-.352-.405-.528-.954-.528-1.648 0-.565.149-1.077.448-1.536.298-.469.757-.842 1.376-1.12.618-.277 1.386-.416 2.304-.416.64 0 1.264.091 1.872.272a5.273 5.273 0 011.6.72l-.4.944a5.37 5.37 0 00-1.504-.688 5.444 5.444 0 00-1.568-.24c-.982 0-1.723.192-2.224.576-.491.374-.736.859-.736 1.456 0 .448.133.811.4 1.088.277.267.618.475 1.024.624.416.139.97.294 1.664.464.821.203 1.482.406 1.984.608.512.192.944.491 1.296.896.352.395.528.934.528 1.616 0 .566-.155 1.083-.464 1.552-.299.459-.763.827-1.392 1.104-.63.267-1.403.4-2.32.4zm10.947-.608c-.213.192-.48.342-.8.448a3.27 3.27 0 01-.976.144c-.789 0-1.397-.213-1.824-.64-.426-.426-.64-1.029-.64-1.808v-5.088h-1.504v-.96h1.504v-1.84h1.136v1.84h2.56v.96h-2.56v5.024c0 .502.123.886.368 1.152.256.256.619.384 1.088.384.235 0 .459-.037.672-.112.224-.074.416-.181.576-.32l.4.816zm3.156-6.256a2.77 2.77 0 011.184-1.28c.534-.288 1.19-.432 1.968-.432v1.104l-.272-.016c-.885 0-1.578.272-2.08.816-.501.544-.752 1.307-.752 2.288v4.288h-1.136v-8.416h1.088v1.648zm12.459 2.912h-7.04c.064.875.4 1.584 1.008 2.128.608.534 1.376.8 2.304.8.523 0 1.003-.09 1.44-.272a3.23 3.23 0 001.136-.832l.64.736c-.373.448-.843.79-1.408 1.024a4.671 4.671 0 01-1.84.352c-.864 0-1.632-.181-2.304-.544a4.047 4.047 0 01-1.552-1.536c-.373-.65-.56-1.386-.56-2.208 0-.821.176-1.557.528-2.208a3.962 3.962 0 011.472-1.52 4.158 4.158 0 012.112-.544c.779 0 1.477.182 2.096.544.619.363 1.104.87 1.456 1.52.352.64.528 1.376.528 2.208l-.016.352zm-4.064-3.648c-.811 0-1.493.262-2.048.784-.544.512-.853 1.184-.928 2.016h5.968c-.075-.832-.389-1.504-.944-2.016-.544-.522-1.227-.784-2.048-.784zm9.102-.976c1.099 0 1.941.278 2.528.832.587.544.88 1.355.88 2.432v5.216h-1.088v-1.312c-.256.438-.635.779-1.136 1.024-.491.246-1.077.368-1.76.368-.939 0-1.685-.224-2.24-.672-.555-.448-.832-1.04-.832-1.776 0-.714.256-1.29.768-1.728.523-.437 1.349-.656 2.48-.656h2.672v-.512c0-.725-.203-1.274-.608-1.648-.405-.384-.997-.576-1.776-.576-.533 0-1.045.091-1.536.272a3.77 3.77 0 00-1.264.72l-.512-.848c.427-.362.939-.64 1.536-.832a5.854 5.854 0 011.888-.304zm-.4 7.664c.64 0 1.189-.144 1.648-.432.459-.298.8-.725 1.024-1.28v-1.376h-2.64c-1.44 0-2.16.502-2.16 1.504 0 .491.187.88.56 1.168.373.278.896.416 1.568.416zm17.389-7.664c1.056 0 1.883.304 2.48.912.608.608.912 1.504.912 2.688v4.88h-1.136v-4.768c0-.874-.213-1.541-.64-2-.416-.458-1.008-.688-1.776-.688-.874 0-1.562.272-2.064.816-.501.534-.752 1.275-.752 2.224v4.416h-1.136v-4.768c0-.874-.213-1.541-.64-2-.416-.458-1.013-.688-1.792-.688-.864 0-1.552.272-2.064.816-.501.534-.752 1.275-.752 2.224v4.416h-1.136v-8.416h1.088v1.536a3.044 3.044 0 011.248-1.184c.534-.277 1.147-.416 1.84-.416.704 0 1.312.15 1.824.448.523.299.912.742 1.168 1.328.31-.554.752-.986 1.328-1.296.587-.32 1.254-.48 2-.48z" fill="#fff"/><path fill-rule="evenodd" clip-rule="evenodd" d="M432.687 356.992l-15.553-40.272 3.732-1.441 15.552 40.272-3.731 1.441z" fill="#CCCABC"/><path fill-rule="evenodd" clip-rule="evenodd" d="M419.498 281.779l1.374 33.884-3.997.162-1.212-29.897-6.097.234-.152-3.997 10.084-.386z" fill="#CCCABC"/><mask id="a" fill="#fff"><path fill-rule="evenodd" clip-rule="evenodd" d="M552.044 385.788l24.361 1.853.805-10.578 10.578.804 1.854-24.361-10.579-.805.805-10.577-24.362-1.853-.805 10.577-10.577-.805-1.853 24.362 10.577.804-.804 10.579z"/></mask><path d="M576.405 387.641l-.152 1.995 1.995.151.151-1.994-1.994-.152zm-24.361-1.853l-1.995-.151-.151 1.994 1.994.152.152-1.995zm25.166-8.725l.151-1.995-1.994-.151-.151 1.994 1.994.152zm10.578.804l-.151 1.995 1.994.151.152-1.994-1.995-.152zm1.854-24.361l1.994.152.152-1.995-1.995-.151-.151 1.994zm-10.579-.805l-1.994-.152-.152 1.995 1.994.151.152-1.994zm.805-10.577l1.994.151.151-1.994-1.994-.152-.151 1.995zm-24.362-1.853l.152-1.995-1.994-.151-.152 1.994 1.994.152zm-.805 10.577l-.151 1.994 1.994.152.152-1.994-1.995-.152zm-10.577-.805l.152-1.994-1.995-.152-.151 1.995 1.994.151zm-1.853 24.362l-1.995-.152-.151 1.994 1.994.152.152-1.994zm10.577.804l1.995.152.151-1.994-1.994-.152-.152 1.994zm23.709 10.438l-24.362-1.853-.303 3.989 24.361 1.853.304-3.989zm-1.341-8.736l-.805 10.579 3.988.303.805-10.579-3.988-.303zm12.724-1.038l-10.579-.805-.303 3.989 10.579.805.303-3.989zm-.293-22.519l-1.853 24.362 3.989.303 1.853-24.361-3.989-.304zm-8.736 1.341l10.579.805.303-3.988-10.578-.805-.304 3.988zm-1.038-12.723l-.804 10.577 3.988.304.805-10.578-3.989-.303zm-22.519.293l24.362 1.853.303-3.989-24.361-1.853-.304 3.989zm1.342 8.735l.804-10.578-3.988-.303-.805 10.577 3.989.304zm-12.724 1.038l10.578.804.303-3.988-10.577-.805-.304 3.989zm.293 22.519l1.853-24.362-3.988-.303-1.854 24.361 3.989.304zm8.735-1.342l-10.578-.804-.303 3.988 10.578.805.303-3.989zm1.038 12.725l.805-10.579-3.989-.303-.805 10.579 3.989.303z" fill="#B3CBE6" mask="url(#a)"/><path fill-rule="evenodd" clip-rule="evenodd" d="M560.962 283.14l-23.901-2.02 3.558-42.12 24.695 2.086 91.277 7.711-2.251 26.646-67.375-5.691-2.917 34.531-24.695-2.087 1.609-19.056z" fill="#B3CBE6"/><path fill-rule="evenodd" clip-rule="evenodd" d="M573.492 303.18l-3.5 38.688-3.984-.361 3.5-38.687 3.984.36z" fill="#CCCABC"/><path stroke="#B3CBE6" stroke-width="2" d="M516.585 397.062l-19.381-4.596 8.125-34.262 19.381 4.596zm90.923-33.491l-13.097-15.008 26.53-23.152 13.097 15.008z"/></svg>