<svg width="47" height="63" fill="none" xmlns="http://www.w3.org/2000/svg"><path d="M29.294 56.146s.478.175.845.21c.368.034.796-.58.918-.569.123.012.366-1.274.146-1.556-.221-.283-.062-.66-.05-.79.012-.13-.196-.542-.16-.931.036-.39-.062-.66.085-.908.147-.248.575-.863.587-.992.012-.13.11-1.168-.001-1.31-.11-.14-.638-1.106-.614-1.365l.049-.519s-.245-.023-.466-.305c-.22-.283-.295-.813-.295-.813" stroke="#F93C00" stroke-width=".326" stroke-miterlimit="10" stroke-linecap="round"/><path d="M26.396 22.793c-.39.069-1.533.014-1.7.6-.182.638-1.322-.385-1.322-.385s-.576-.446-.735-.069c-.159.378.001 1.309.577 1.756.576.446 1.055 1.93 1.055 1.93s-.477 1.133-.856 1.229c-.38.095-.623 1.38-.623 1.38s-.71.981-.844 1.1c-.135.118-.796.58-.857 1.228-.06.649-.353 2.454-.622 2.69-.269.237-1.174 1.984-1.198 2.243-.024.26-.28 1.675-.806 2.019-.527.343-.734 1.24-.17 1.816.563.576.858 1.389.797 2.038-.06.648.04 2.228.615 2.674.576.447 1.102.103.54.836-.563.732-.379 1.404-.525 1.652-.147.248-1.41-.786-1.667-.68-.257.108-.292 1.805-.66 1.771-.367-.034-1.09-.233-1.286-.775-.196-.541-.771.32-.771.32s-.808.71-1.053.688c-.245-.023-.48-2.793-.958-2.969-.477-.175-1.604-.02-1.849-.042-.245-.023-.686-.588-1.09-.233s-1.995 1.515-2.252 1.622c-.257.106-.232 1.156-.133 1.427.098.27-.184.637-.208.896-.024.26-.942.828-1.101 1.206-.159.378-.378 1.404-.917 1.877" stroke="#F93C00" stroke-width=".521" stroke-miterlimit="10" stroke-linecap="round"/><path d="M26.411 22.637c-.19-.345-.657-1.291-.59-2.018.086-.908-.539-.835-.6-1.495-.063-.66.01-1.439-.602-1.496-.613-.057-.038-.92-.246-1.332-.209-.412-1.164-.763-.933-1.919" stroke="#F93C00" stroke-width=".326" stroke-miterlimit="10" stroke-linecap="round"/><path d="M41.61 1.748l-.465 1.003s.307.683.405.954c.098.27.27 1.072.393 1.083.122.012.636-.202.636-.202s.381 1.214.614 1.366c.233.153-.44.744-.44.744s-.613-.057-.637.202c-.024.26-1.113 1.336-1.125 1.466-.012.13-.085.908.148 1.06.232.153.319.553.172.802-.147.247-1.126 1.465-1.26 1.583-.135.118-.637.202-.784.45a8.03 8.03 0 01-.428.614l.086.4s-.17.508-.55.604c-.38.095-1.127.156-1.384.263-.257.107-.809-.6-.931-.61l-.429-.04c-.147-.014-.284.13-.262.289.039.252.056.594-.03.73-.148.248-.551.603-.576.862-.024.26-.072.778-.464 1.004-.392.225-.894.308-1.04.556-.147.248-1.138 1.595-1.21 2.374-.074.778.074 1.839.05 2.098-.024.26-.452.874-.342 1.015.11.141-.354 1.145-.379 1.404-.024.26-.475 2.442-.5 2.701-.023.26-.084.909-.084.909s-.404.354-.294.495c.11.142.002 1.31.222 1.592.22.282-.93.698-.93.698s-.478-.176-.612-.057c-.135.118-.55.602-.453.873.099.271-.66.462-.685.721-.024.26.283.943.258 1.202-.024.26-.574.862-.488 1.263.086.4.429.695.392 1.084-.036.389-.733 1.24-.525 1.652.209.412.956.35 1.225.114.27-.236.833.34.785.859-.049.519.21 1.72.43 2.003.22.282.662.847.172.801-.49-.045-1.188-.503-1.224-.114-.037.389.21 1.72.295 2.121.086.4.21 1.721.21 1.721s.331.423.43.694c.098.271.258 1.202.38 1.214.122.011.378-1.404.746-1.37.367.034.894-.309 1.016-.297.123.011.564.576.54.835-.025.26.393 1.084.393 1.084s.135 1.19.478 1.484c.344.294.724 1.507.823 1.778.098.271.123 1.32.344 1.603.22.282 1.005 1.14.969 1.53" stroke="#F93C00" stroke-width=".651" stroke-miterlimit="10" stroke-linecap="round"/><path d="M31.567 23.264s-.929 1.34-1.663 1.27l-.147-.013c-.245-.023-.455-.422-.674-.456-.428-.053-.527.344-.882.18-.142-.066-1.259-1.335-1.63-1.461" stroke="#F93C00" stroke-width=".651" stroke-miterlimit="10" stroke-linecap="round"/><path d="M10.79 28.112s.6.187 1.126-.156c.526-.344.55-.603.587-.992.036-.39-.552-.706-.773-.989-.22-.282.061-.648-.27-1.072-.331-.423.182-1.946.243-2.594.06-.649-.602-1.496-.92-2.05-.32-.553.697-.85 1.088-1.075.392-.225.6.187 1.127-.157.526-.343 2.008-.335 2.229-.053.22.282.759-.19 1.592.149.833.34 1.213.244 1.873-.217.661-.462 1.667.679 2.132.984.466.305.295.813.393 1.084.098.27.613.057.968.221s1.544.668 2.156.725c.527.05 1.935.705 2.266.866" stroke="#F93C00" stroke-width=".651" stroke-miterlimit="10" stroke-linecap="round"/><path d="M.48 16.81s.306.683.099 1.58c-.208.896-.011 1.438.466 1.614.478.175.062.66 1.006 1.14.943.481 1.211-1.064 1.811-.877.6.187 1.874-.217 2.266-.442.391-.226.967.221 1.298.645.331.423.773.988 1.299.644.526-.343.538-.473.882-.179.343.294 1.357-.383 1.357-.383m5.522 10.056s1.09.232 1.26-.275c.172-.508.465-1.004.722-1.11.258-.107.17-1.816.17-1.816s.33-.886.256-1.416c-.074-.53-.111-1.45.011-1.439.123.012-.466-.305-.564-.576-.098-.27.844-1.098.856-1.228.013-.13-.453-.435-.184-.672.27-.236.673-.591.587-.992-.086-.4-1.171-2.007-1.171-2.007" stroke="#F93C00" stroke-width=".326" stroke-miterlimit="10" stroke-linecap="round"/><path d="M15.993 27.945s.354-1.145.612-1.252c.257-.107.574-.862.366-1.274-.209-.412-.112-1.45.109-1.168.22.283 1.261-.274 1.261-.274m1.409 28.528s-1.015 1.606-1.639 1.679c-.625.072-1.42.652-1.64.37-.221-.283-.626-1.237-.847-1.519-.22-.282-.222-1.591-.43-2.003-.209-.412-.816-1.189-.816-1.189m9.64 8.557s.294-.496.146-1.556c-.148-1.061.66-1.77.194-2.076-.466-.305-.7-1.767-.675-2.026.024-.26.097-1.038-.259-1.202-.355-.164-.477-.175-.564-.576-.086-.4-.025-1.05-.49-1.355-.466-.305-.81-.599-.749-1.247.06-.649-.367-.035-.49-.046-.122-.012-.54-2.144-.54-2.144l-.202-.49m6.858 8.571s-.992.038-.405-.954 1.541-1.95 1.541-1.95.55-.603.6-1.121c.048-.52.793-1.89.793-1.89l.698-1.517m-3.404.087s.526-.343.574-.862c.049-.519.073-.778.44-.744.368.035-.33-.423.306-.626a6.036 6.036 0 001.16-.52m2.56-2.273s-.574.862-1.04.557c-.466-.305-.49-.046-.49-.046s.121-1.297-.087-1.709m-4.555-12.072s.22-1.026.66-1.77c.44-.744.623-1.381 1.248-1.454.625-.072.856-1.229.856-1.229m-7.654-4.026s.204-.858.13-1.388c-.074-.53.097-1.038.097-1.038s-1.004.168-1.102-.103c-.098-.27.305-.626-.124-1.32-.43-.694.575-.862.22-1.027-.356-.163-.613-.057-.613-.057s.097-1.037-.405-.954c-.502.084-.98-.091-.98-.091M3.14 33.285s.097-1.037.512-1.522c.416-.485.71-.98.501-1.393-.208-.412-.907-.87-.258-1.201.649-.332 1.065-.817 1.065-.817s-.148-1.06.109-1.168c.257-.106.526-.343-.062-.66-.588-.316-1.188-.503-1.152-.892.037-.39.306-.626.085-.909-.22-.282-.503-1.224-.798-2.037-.796-.729-.766-1.446-.766-1.446m7.631 23.157s.354-1.145.869-1.358c.514-.214.82-.84.82-.84l1.345-1.182s.65-.332 1.029-.428c.38-.095 1.003-1.476.905-1.747-.099-.271-.234-1.462.488-1.263.723.198.882-.18 1.175-.675.294-.496 1.115-.027.944.48-.171.508-.232 1.157.111 1.45.343.294.221.283.221.283" stroke="#F93C00" stroke-width=".326" stroke-miterlimit="10" stroke-linecap="round"/><path d="M8.685 58.537s-.405-.954-.222-1.591c.183-.638-.32-1.862-.394-2.393-.074-.53.121-1.297-.455-1.743-.576-.447 1.468-2.48 1.468-2.48s.917-1.878 1.26-1.584c.343.294.721-1.11.942-.828.22.283-.611 1.252-.403 1.664.209.412.602 1.495.871 1.259.27-.236.967-1.087.967-1.087s-.307-.683.072-.779c.38-.095 1.494-.122 1.494-.122s.296 2.122-.108 2.477c-.403.354.026 1.049.174 2.11.148 1.06-.637.202-.317 2.064s-.99 1.346-.586 2.3c.405.954.346 2.912-.303 3.243-.649.332-1.101 1.206-1.101 1.206" stroke="#F93C00" stroke-width=".326" stroke-miterlimit="10" stroke-linecap="round"/><path d="M9.452 60.244s1.555-.77 1.701-1.019c.147-.248.613.058.637-.202.024-.26-.54-.835-.123-1.32.415-.485.77-1.63.77-1.63s.452-.873.856-1.228c.404-.355.843-2.407.843-2.407M40.934 8.293s-.453-.435-.748-1.248-.906.439-.906.439-1.175.675-1.31.793c-.134.118-1.04.557-1.04.557s-.783.45-1.028.427c-.245-.022-.416.485-.906.44-.49-.047-.576-.447-.576-.447" stroke="#F93C00" stroke-width=".326" stroke-miterlimit="10" stroke-linecap="round"/><path d="M37.104 10.944s-.576-.447-.674-.717c-.098-.271.11-1.18.11-1.18m-5.515-3.121s1.396-.393 1.568.409c.172.8.32 1.862-.329 2.194-.648.331-.048.518-.084.908-.037.389-.955.957-.991 1.346-.037.39-.342 1.015-.122 1.298.221.282.699.458.968.221.27-.236.845.21 1.09.233.245.023.796-.58 1.004-.168.209.412.576.446.834.34.257-.107.355.164.6.187.245.022.313.618.313.618m6.23 3.396s.552.706.968.221c.416-.484.476-1.133.366-1.274-.11-.141-.026-1.05-.246-1.332-.221-.282-.38.096-.49-.045-.11-.142.183-.638-.05-.79-.233-.153-.857-.08-.698-.458.158-.378.243-1.286.023-1.568-.221-.283-.417-.824-.27-1.072.146-.248-.332-.686-.332-.686m4.556.426s-.404.355-.893.309c-.49-.046-.539.473-.882.18-.343-.295-.614-1.367-.614-1.367s-.208-.412.061-.648c.27-.237-.172-.802-.172-.802l-.074-.53s-.355-.164-.466-.305c-.11-.141-.196-.542-.196-.542" stroke="#F93C00" stroke-width=".326" stroke-miterlimit="10" stroke-linecap="round"/><path d="M46.348 8.537s-.845-.21-1.102-.103c-.257.107-.416.485-.771.32a2.375 2.375 0 00-.787-.178M29.17 33.037s.11.141.403-.355c.293-.496.477-1.133.734-1.24.257-.107-.014-1.179.243-1.285.258-.107.167-.456.167-.456m-6.672 3.315s1.065.492 1.457.267c.392-.225-.17.508.295.813.465.305.453.435 1.102.103s.87-.05.87-.05" stroke="#F93C00" stroke-width=".326" stroke-miterlimit="10" stroke-linecap="round"/><path d="M25.303 43.34s-1.679-.55-2.205-.206c-.526.343-.405-.954.121-1.297.527-.343 1.077-.946 1.37-1.442.294-.496.736.069.944.48.209.413.576.447.857.08.282-.365.674-.59.796-.58.122.012.44-.743.783-.45.344.294 1.177.634 1.177.634" stroke="#F93C00" stroke-width=".521" stroke-miterlimit="10" stroke-linecap="round"/><path d="M21.652 55.954s.024-.26.55-.602c.527-.344-.246-1.332-.344-1.603-.098-.271-.319-.553-.037-.92.281-.366.17-.507-.05-.79-.22-.282.073-.778-.16-.93-.233-.153-.686-.588-.82-.47-.136.118-.515.214-.625.073-.11-.142.06-.649.072-.779.012-.13-.576-.446-.527-.965l.133-1.427m2.189 9.627s.502-.084.428-.614c-.074-.53.183-.638.452-.874.27-.237 1.077-.554 1.138-1.333m1.477-5.489s-.147.248-.527.343c-.38.095-.49-.046-.649.332-.158.377-.66.461-.77.32-.111-.14.011-.13-.49-.046-.503.084-.52.004-.52.004m1.705-3.425s.55-.603.33-.886c-.221-.282-.49-.045-.589-.316-.098-.271-.612-.057-.735-.069-.122-.012-1.15.416-1.494.122-.343-.294-1.178-.346-1.538.066M7.484 58.163s-.624.072-.955-.351c-.331-.424-.687-.588-.687-.588s-.196-.542.097-1.038c.294-.496-.013-1.179-.111-1.45-.098-.27.33-.885.856-1.228.526-.344.33-.885.93-.698m6.912-9.168s-.894.309-1.04.557c-.147.248-.65.332-.613-.057.036-.39-.246-1.332.158-1.687s.887-1.827.887-1.827M2.461 41.859s.307.683.674.717c.368.035.062.66.43.694.367.035 1.31-.793 1.31-.793s-.32-.553.072-.778c.392-.225.587-.992.722-1.11.134-.119.33-.886.807-.71.478.175.625-.073 1.017-.298.391-.225.893-.309 1.04-.557.147-.248.368.035.343.294-.024.26.038.92.295.813.257-.107.318-.756.538-.473.221.282.185.671.699.458.514-.214 1.052-.687 1.371-.134.32.553.307.683.283.943-.024.259.035.683.226.754M6.05 43.11s-.562.733-.085.909c.478.175.454.435.552.706.098.27.197.541.674.717.478.176.466.305.43.694-.037.39.515 1.095.515 1.095" stroke="#F93C00" stroke-width=".326" stroke-miterlimit="10" stroke-linecap="round"/><path d="M4.502 50.425s-.675-.718-.27-1.072c.403-.355.745-1.37.966-1.088.22.282.208.412.49.046.28-.366.538-.473.795-.58.257-.107.294-.496.55-.603.258-.107.789-.371.789-.371m3.578 7.846s-.037-.92-.111-1.45c-.074-.53-.148-1.06-.002-1.309.147-.248-.025-1.049-.148-1.06-.122-.012-.285-.511.072-.504m9.991 9.166s-.209-.413-.27-1.073c-.062-.66-.015-2.487-.224-2.9-.208-.411-1.2-.373-1.188-.503.012-.13.171-.508-.307-.683-.478-.176-1.102-.103-1.102-.103s-.514.213-.832.969c-.318.755-.11 1.167.59 1.625.698.458 1.14 1.023.932 1.92-.208.896-.808.71-.808.71m15.267-6.032s-.21-.412-.16-.93c.048-.52.06-.65-.283-.943-.343-.294-.375-.219-.564-.577-.209-.412-.6-.187-.6-.187m-.397-40.015s-.54-.835-.82-.469c-.282.366-.453.874-.857 1.228-.404.355-.599 1.122-.378 1.405.22.282.968.22.809.599-.16.377.196.541.429.694.233.153-.073.778.025 1.05.099.27-.403.354-.452.873-.049.519-.342 1.015-.697.85l-1.066-.491s-.87.05-.687-.588" stroke="#F93C00" stroke-width=".326" stroke-miterlimit="10" stroke-linecap="round"/><path d="M21.966 16.267s.476-1.133.82-.839c.343.294.678 1.071 1.269.564" stroke="#F93C00" stroke-width=".13" stroke-miterlimit="10"/><path d="M30.785 18.4s-.44.745-.918.57c-.478-.176-.782 1.758-.55 1.91.233.154 1.005-.167 1.225.115.22.283 1.389.876 1.389.876m9.39-5.821s.33-.886-.38-1.214c-.71-.328-1.544-.668-.54-.835a3.698 3.698 0 001.677-.76m-3.444-2.808s-.77 1.63-1.002 1.476c-.233-.152-.613-.057-.637.203-.024.26-.281.366-.502.084-.243-.311-.769.818-.769.818m-32.493-.527c.257-.106.613.058.833.34.221.282.699.458.797.729.098.27.638 1.106-.146 1.557-.783.45-1.15.415-.966 1.087.184.671.809.599 1.128 1.152.318.553-.282.366-.061.649.22.282.674.717.515 1.095-.159.378.821.47.956.351.134-.118.276.353.276.353M8.09 35.842s-.258.107-.061.648c.196.542.16.931.393 1.084.232.153.074.53.184.672.11.14-.06.648-.06.648" stroke="#F93C00" stroke-width=".326" stroke-miterlimit="10" stroke-linecap="round"/><path d="M12.408 26.654s.854.119 1.025-.389c.17-.507.55-.603.588.317.037.92-.88 1.488-.586 2.3.295.813.65.977.222 1.592-.428.614.453.435.772.988.32.553.393 1.084.724 1.507.331.424-.073.779.27 1.072.344.294.356.164.699.458.343.294.526-.343.882-.18.355.165.893-.308.905-.438.013-.13.318-.755.318-.755" stroke="#F93C00" stroke-width=".521" stroke-miterlimit="10" stroke-linecap="round"/><path d="M5.502 31.805s-.072 2.087.7 1.767c.77-.32.452-.874 1.223-1.194.771-.32 1.763-.359 1.8-.748.036-.389.036-.389.403-.355.368.035.65-.332.65-.332s1.126-.156 1.383-.263c.257-.107.416-.484.783-.45.367.034 1.384-.263 1.384-.263m-2.458 5.135s-.172-.801.342-1.015c.514-.213.55-.603.587-.992.037-.389.282-.366.55-.603.27-.236.282-.366.33-.885a.877.877 0 01.437-.705m-9.541 8.229s1.175-.675 1.776-.488c.6.187 1.004-.168.833.34a4.398 4.398 0 00-.208.896m12.258-1.602s-.171.508.295.813c.465.305.208.412.38 1.213.172.802.993 1.27.957 1.66-.036.39.148 1.06.148 1.06m-10.346 3.613s.49.046.576.447c.086.4.54.835.54.835m20.265-31.735s.441.564.588.316c.147-.248.195-.767.342-1.015.147-.248.318-.755.097-1.037-.22-.283-.197-.542.06-.649.052-.021-.173-.657.274-1.335M4.994 18.214s-.032-.461.226-.568c.257-.107.881-.18 1.028-.427.147-.248-.907-.87-.528-.965.38-.096.735.068 1.262-.275.526-.343.562-.733.562-.733M5.855 29.352s-.221-.282.048-.519c.27-.236.195-.767-.062-.66-.257.107-.428.614-.881.18m1.27-4.331s-.086-.4-.478-.176c-.392.225-.478-.175-.625.073-.146.248.074.53-.317.755-.248.134-.87.05-.87.05" stroke="#F93C00" stroke-width=".326" stroke-miterlimit="10" stroke-linecap="round"/></svg>