<svg width="478" height="206" fill="none" xmlns="http://www.w3.org/2000/svg"><path d="M37.08 201.094l.079.033.083.019c13.248 3 25.37 3.752 38.612 2.628 20.685-1.131 39.618-9.028 57.915-18.397 5.766-2.953 11.459-6.045 17.125-9.123 12.378-6.724 24.623-13.375 37.212-18.34 7.048-2.757 14.205-4.326 21.468-5.673 1.763-.327 3.535-.641 5.313-.956 5.52-.979 11.102-1.968 16.673-3.383 12.847-2.997 24.924-7.487 36.972-12.71 11.683-4.856 22.23-10.082 33.514-16.046l.022-.012.021-.012c3.684-2.19 17.879-8.857 29.072-12.186 8.029-2.273 15.219-4.036 22.122-5.729 13.325-3.267 25.575-6.272 40.704-12.17l.006-.003c22.646-8.977 39.704-18.738 58.244-40.483 1.323-1.499 3.154-3.351 5.246-5.468a613.541 613.541 0 003.127-3.181c3.346-3.439 6.962-7.314 9.936-11.227 2.958-3.893 5.358-7.923 6.163-11.67.406-1.889.415-3.746-.15-5.488-.568-1.749-1.692-3.307-3.43-4.625-3.187-2.466-7.641-4.018-12.576-4.852-4.952-.837-10.474-.964-15.87-.517-5.397.448-10.7 1.473-15.217 2.962-4.492 1.48-8.312 3.451-10.638 5.856-6.497 6.719-12.114 11.085-18.722 16.221a587.39 587.39 0 00-6.728 5.285c-5.5 4.36-10.72 6.453-16.228 8.012-2.072.587-4.171 1.094-6.35 1.622-.737.178-1.483.359-2.24.545-2.986.735-6.118 1.558-9.446 2.689-4.702 1.597-9.711 3.421-14.804 5.276-9.244 3.366-18.763 6.832-27.225 9.228l-.012.004c-11.378 3.383-22.067 4.177-33.559 5.03-3.561.265-7.199.535-10.958.89l-.01.001c-6.555.684-13.404 3.208-19.864 5.589-.727.268-1.449.534-2.166.795-3.481 1.271-7.912 2.19-12.425 3.028-.921.171-1.846.34-2.765.506-3.548.644-7.02 1.274-9.891 2.023l-.007.002-.007.002c-8.146 2.252-15.053 5.067-21.833 8.053-1.771.78-3.53 1.57-5.3 2.365-5.011 2.251-10.103 4.539-15.767 6.73-3.311 1.091-7.745 2.008-12.119 2.894l-.633.128c-4.108.83-8.123 1.642-10.87 2.547-9.436 2.621-19.753 6.767-27.062 13.625-4.974 4.481-9.613 9.135-14.151 13.688-2.995 3.005-5.946 5.965-8.92 8.802-7.533 7.187-15.344 13.723-24.804 18.686-7.833 4.066-14.506 6.632-21.434 8.051-6.929 1.419-14.16 1.7-23.12 1.145a348.326 348.326 0 01-5.199-.433c-6.611-.584-14.099-1.245-20.2-.54-3.895.45-7.417 1.471-9.825 3.574-2.478 2.165-3.626 5.339-3.028 9.695.414 3.363 2.233 6.301 4.8 8.863 2.566 2.561 5.934 4.802 9.568 6.779 5.44 2.96 11.621 5.401 16.798 7.444 1.718.679 3.325 1.313 4.758 1.909z" stroke="#F93C00" stroke-width="2"/></svg>