<svg width="332" height="280" fill="none" xmlns="http://www.w3.org/2000/svg"><g filter="url(#filter0_d)"><path d="M26.918 7.964h0c2.181 2.02 4.356 4.761 6.592 7.58l1.022 1.286c2.621 3.285 5.372 6.589 8.463 9.148 6.261 4.388 11.434 6.373 18.165 8.957 1.196.459 2.44.937 3.75 1.45 3.09 1.18 6.409 2.005 9.797 2.847.855.213 1.716.426 2.578.647 4.233 1.085 8.482 2.336 12.179 4.482l.014.008.015.01c3.124 1.957 5.734 4.583 8.137 7.181.511.553 1.011 1.102 1.505 1.644 1.851 2.034 3.607 3.963 5.482 5.556 2.676 2.084 5.644 3.803 8.69 5.568.72.417 1.445.837 2.172 1.265 3.767 2.22 7.535 4.633 10.644 7.944l.001.002c5.747 6.145 10.831 16.22 9.651 25.289l-.001.012c-.207 1.448-.764 3.026-1.416 4.602-.385.929-.827 1.913-1.266 2.889-.296.658-.591 1.313-.865 1.945-.7 1.613-1.304 3.16-1.647 4.584-.343 1.426-.399 2.632-.102 3.61.596 1.778 2.065 2.67 4.15 3.248 1.044.289 2.178.482 3.354.677l.111.019c1.116.185 2.275.378 3.33.665 1.648.416 3.98 1.562 6.575 3.027 2.632 1.485 5.632 3.357 8.641 5.29a812.498 812.498 0 015.686 3.696c3.937 2.574 7.47 4.885 9.751 6.155l.002.001-.487.874c14.273 7.908 26.292 15.816 38.686 27.113L26.917 7.965zm0 0l-.008-.006a28.937 28.937 0 00-7.05-4.69c-2.516-1.174-5.154-1.907-7.505-1.83-2.385.08-4.545 1.008-5.835 3.206-1.25 2.13-1.565 5.264-.796 9.503l21.194-6.183zm98.476 137.053c-15.399-.753-23.662-19.581-20.657-32.008l20.657 32.008zm0 0c7.663.35 11.449 2.642 17.95 6.577m-17.95-6.577l17.95 6.577m0 0c.509.308 1.035.627 1.581.955l-1.581-.955z" stroke="#fff" stroke-width="2"/></g><defs><filter id="filter0_d" x=".308" y=".433" width="331.474" height="278.973" filterUnits="userSpaceOnUse" color-interpolation-filters="sRGB"><feFlood flood-opacity="0" result="BackgroundImageFix"/><feColorMatrix in="SourceAlpha" values="0 0 0 0 0 0 0 0 0 0 0 0 0 0 0 0 0 0 127 0"/><feOffset dy="4"/><feGaussianBlur stdDeviation="2"/><feColorMatrix values="0 0 0 0 0 0 0 0 0 0 0 0 0 0 0 0 0 0 0.25 0"/><feBlend in2="BackgroundImageFix" result="effect1_dropShadow"/><feBlend in="SourceGraphic" in2="effect1_dropShadow" result="shape"/></filter></defs></svg>