<?xml version="1.0" encoding="utf-8"?><svg viewBox="0 0 48 47" xmlns="http://www.w3.org/2000/svg" xmlns:xlink="http://www.w3.org/1999/xlink"><style>:root>svg{display:none}:root>svg:target{display:block}</style><svg fill="none" viewBox="0 0 14 17" id="icon-arrow-down" xmlns="http://www.w3.org/2000/svg"><path d="M7 16.5a1 1 0 01-.707-.293l-6-6a1 1 0 111.414-1.414L6 13.086V1.5a1 1 0 012 0v11.586l4.293-4.293a1 1 0 111.414 1.414l-6 6A1 1 0 017 16.5z" fill="#C7D4DB"/></svg><svg fill="none" viewBox="0 0 23 14" id="icon-caret" xmlns="http://www.w3.org/2000/svg"><path d="M21.84 1.92l-9.92 9.92L2 1.92" stroke="#fff" stroke-opacity=".2" stroke-width="3" stroke-linejoin="round"/></svg><svg fill="none" viewBox="0 0 21 19" id="icon-checkbox-mark" xmlns="http://www.w3.org/2000/svg"><path d="M1.78 9.695l7.269 7.271L19.315 2.424" stroke="#273A43" stroke-width="3" stroke-linecap="round" stroke-linejoin="round"/></svg><svg fill="none" viewBox="0 0 47 47" id="icon-facebook" xmlns="http://www.w3.org/2000/svg"><path d="M46.345 8.339c0-4.082-3.602-7.684-7.684-7.684H7.684C3.602.655 0 4.257 0 8.339v30.977C0 43.398 3.602 47 7.684 47h15.609V29.47h-5.764v-7.684h5.764v-3.121c0-5.283 3.842-9.846 8.644-9.846h6.244v7.684h-6.244c-.72 0-1.44.72-1.44 2.162v3.121h7.684v7.684h-7.684V47h8.164c4.082 0 7.684-3.602 7.684-7.684V8.339z" fill="#6A828E"/></svg><svg fill="none" viewBox="0 0 26 22" id="icon-flag-russia" xmlns="http://www.w3.org/2000/svg"><path fill="#fff" d="M0 .135h25.642v7.05H0z"/><path fill="#00F" d="M0 7.184h25.642v7.754H0z"/><path fill="#FF0100" d="M0 14.939h25.642v7.05H0z"/></svg><svg fill="none" viewBox="0 0 48 47" id="icon-instagram" xmlns="http://www.w3.org/2000/svg"><path d="M40.733 0H7.578C3.835 0 .983 2.852.983 6.595V39.75c0 3.743 2.852 6.595 6.595 6.595h33.155c3.743 0 6.595-2.852 6.595-6.595V6.595C47.328 2.852 44.476 0 40.733 0zM24.156 37.076c7.664 0 13.903-6.06 13.903-13.369 0-1.247-.178-2.673-.535-3.743h3.922V38.86c0 .89-.713 1.782-1.783 1.782H8.648c-.892 0-1.783-.713-1.783-1.782V19.786h4.1a13.57 13.57 0 00-.535 3.743c-.178 7.487 6.06 13.547 13.726 13.547zm0-5.347c-4.991 0-8.913-3.922-8.913-8.735 0-4.812 3.921-8.734 8.912-8.734 4.991 0 8.913 3.922 8.913 8.734 0 4.991-3.921 8.735-8.912 8.735zm17.112-19.073c0 1.07-.892 1.96-1.961 1.96h-4.991c-1.07 0-1.96-.89-1.96-1.96V7.843c0-1.07.89-1.96 1.96-1.96h4.99c1.07 0 1.962.89 1.962 1.96v4.813z" fill="#6A828E"/></svg></svg>