<?xml version="1.0" encoding="utf-8"?><svg viewBox="0 0 105 105" xmlns="http://www.w3.org/2000/svg" xmlns:xlink="http://www.w3.org/1999/xlink"><style>:root>svg{display:none}:root>svg:target{display:block}</style><svg fill="none" viewBox="0 0 105 105" id="adobe" xmlns="http://www.w3.org/2000/svg"><path d="M52.201 6.525c-25.194 0-45.678 20.484-45.678 45.678 0 25.195 20.484 45.678 45.678 45.678 25.195 0 45.678-20.483 45.678-45.678 0-25.194-20.483-45.678-45.678-45.678z" fill="#E6001F"/><path d="M22.838 75.042s20.296-48.928 20.248-48.94H58.5l23.067 48.94H64.144c.013.026-13.063-30.029-13.227-30.33-.029.261-8.671 20.376-8.776 20.4h9.314c-.042.052 4.05 9.837 4.05 9.93H22.838z" fill="#fff"/></svg><svg fill="none" viewBox="0 0 14 17" id="arrow-down" xmlns="http://www.w3.org/2000/svg"><path d="M7 16.5a1 1 0 01-.707-.293l-6-6a1 1 0 111.414-1.414L6 13.086V1.5a1 1 0 012 0v11.586l4.293-4.293a1 1 0 111.414 1.414l-6 6A1 1 0 017 16.5z" fill="#C7D4DB"/></svg><svg fill="none" viewBox="0 0 67 77" id="arrow-left-red" xmlns="http://www.w3.org/2000/svg"><path fill-rule="evenodd" clip-rule="evenodd" d="M51.224 6.368L8.507 33.484c-3.788 2.404-3.788 7.628 0 10.032l42.717 27.116c4.3 2.73 10.11-.153 10.11-5.016V11.384c0-4.863-5.81-7.746-10.11-5.016zM5.327 29.094c-7.103 4.509-7.103 14.303 0 18.812l42.717 27.116C56.106 80.139 67 74.734 67 65.616V11.384c0-9.118-10.894-14.523-18.956-9.406L5.327 29.094z" fill="#F93C00" fill-opacity=".4"/></svg><svg fill="none" viewBox="0 0 26 45" id="arrow-next-red" xmlns="http://www.w3.org/2000/svg"><path d="M2 43.5l21-21-21-21" stroke="#F93C00" stroke-width="3" stroke-linecap="round"/></svg><svg fill="none" viewBox="0 0 26 45" id="arrow-prev-red" xmlns="http://www.w3.org/2000/svg"><path d="M24 1.5l-21 21 21 21" stroke="#F93C00" stroke-width="3" stroke-linecap="round"/></svg><svg fill="none" viewBox="0 0 67 77" id="arrow-right-red" xmlns="http://www.w3.org/2000/svg"><path fill-rule="evenodd" clip-rule="evenodd" d="M15.776 70.632l42.717-27.116c3.788-2.404 3.788-7.628 0-10.032L15.776 6.367c-4.3-2.73-10.11.153-10.11 5.016v54.232c0 4.863 5.81 7.746 10.11 5.016zm45.897-22.726c7.103-4.509 7.103-14.303 0-18.812L18.956 1.978C10.894-3.139 0 2.266 0 11.384v54.232c0 9.118 10.894 14.523 18.956 9.406l42.717-27.116z" fill="#F93C00" fill-opacity=".4"/></svg><svg fill="none" viewBox="0 0 105 105" id="figma" xmlns="http://www.w3.org/2000/svg"><path fill-rule="evenodd" clip-rule="evenodd" d="M52.203 52.203c0-7.208 5.843-13.05 13.051-13.05s13.05 5.843 13.05 13.05c0 7.208-5.842 13.051-13.05 13.051-7.208 0-13.05-5.843-13.05-13.05z" fill="#1ABCFE"/><path fill-rule="evenodd" clip-rule="evenodd" d="M26.104 78.305c0-7.208 5.843-13.05 13.05-13.05h13.051v13.05c0 7.208-5.843 13.05-13.05 13.05-7.208 0-13.052-5.842-13.052-13.05z" fill="#0ACF83"/><path fill-rule="evenodd" clip-rule="evenodd" d="M52.203 13.05v26.102h13.051c7.208 0 13.05-5.843 13.05-13.05 0-7.208-5.842-13.051-13.05-13.051h-13.05z" fill="#FF7262"/><path fill-rule="evenodd" clip-rule="evenodd" d="M26.104 26.102c0 7.207 5.843 13.05 13.05 13.05h13.051V13.052h-13.05c-7.208 0-13.052 5.843-13.052 13.05z" fill="#F24E1E"/><path fill-rule="evenodd" clip-rule="evenodd" d="M26.104 52.203c0 7.208 5.843 13.051 13.05 13.051h13.051V39.152h-13.05c-7.208 0-13.052 5.843-13.052 13.051z" fill="#A259FF"/></svg><svg fill="none" viewBox="0 0 105 105" id="framer" xmlns="http://www.w3.org/2000/svg"><path fill-rule="evenodd" clip-rule="evenodd" d="M52.203 97.881c25.228 0 45.678-20.45 45.678-45.678 0-25.227-20.45-45.678-45.678-45.678-25.227 0-45.678 20.451-45.678 45.678 0 25.228 20.451 45.678 45.678 45.678z" fill="#fff"/><path fill-rule="evenodd" clip-rule="evenodd" d="M29.365 66.342h22.84v21.751l-22.84-21.751z" fill="#05F"/><path d="M52.204 44.59H29.365v21.752h45.678L52.204 44.59z" fill="#0AF"/><path d="M29.365 22.839l22.84 21.751h22.838V22.84H29.365z" fill="#8DF"/></svg><svg fill="none" viewBox="0 0 23 14" id="icon-caret" xmlns="http://www.w3.org/2000/svg"><path d="M21.84 1.92l-9.92 9.92L2 1.92" stroke="#fff" stroke-opacity=".2" stroke-width="3" stroke-linejoin="round"/></svg><svg fill="none" viewBox="0 0 13 11" id="icon-caret-red" xmlns="http://www.w3.org/2000/svg"><path d="M8.59 9.723a2.333 2.333 0 01-3.845 0l-3.646-5.3C.034 2.875 1.143.768 3.022.768h7.29c1.88 0 2.988 2.107 1.923 3.655l-3.646 5.3z" fill="#F93C00"/></svg><svg fill="none" viewBox="0 0 21 19" id="icon-checkbox-mark" xmlns="http://www.w3.org/2000/svg"><path d="M1.78 9.695l7.269 7.271L19.315 2.424" stroke="#273A43" stroke-width="3" stroke-linecap="round" stroke-linejoin="round"/></svg><svg fill="none" viewBox="0 0 77 77" id="icon-close-red" xmlns="http://www.w3.org/2000/svg"><path fill-rule="evenodd" clip-rule="evenodd" d="M1.025 71.025a3.5 3.5 0 004.95 4.95L38.5 43.45l32.525 32.525a3.5 3.5 0 004.95-4.95L43.45 38.5 75.975 5.975a3.5 3.5 0 00-4.95-4.95L38.5 33.55 5.975 1.025a3.5 3.5 0 10-4.95 4.95L33.55 38.5 1.025 71.025z" fill="#F93C00" fill-opacity=".4"/></svg><svg fill="none" viewBox="0 0 52 52" id="icon-close-white" xmlns="http://www.w3.org/2000/svg"><path d="M2.295 2L50 49.705M2.295 49.705L50 2" stroke="#fff" stroke-width="4.77"/></svg><svg fill="none" viewBox="0 0 47 47" id="icon-facebook" xmlns="http://www.w3.org/2000/svg"><path d="M46.345 8.339c0-4.082-3.602-7.684-7.684-7.684H7.684C3.602.655 0 4.257 0 8.339v30.977C0 43.398 3.602 47 7.684 47h15.609V29.47h-5.764v-7.684h5.764v-3.121c0-5.283 3.842-9.846 8.644-9.846h6.244v7.684h-6.244c-.72 0-1.44.72-1.44 2.162v3.121h7.684v7.684h-7.684V47h8.164c4.082 0 7.684-3.602 7.684-7.684V8.339z" fill="#6A828E"/></svg><svg fill="none" viewBox="0 0 48 47" id="icon-instagram" xmlns="http://www.w3.org/2000/svg"><path d="M40.733 0H7.578C3.835 0 .983 2.852.983 6.595V39.75c0 3.743 2.852 6.595 6.595 6.595h33.155c3.743 0 6.595-2.852 6.595-6.595V6.595C47.328 2.852 44.476 0 40.733 0zM24.156 37.076c7.664 0 13.903-6.06 13.903-13.369 0-1.247-.178-2.673-.535-3.743h3.922V38.86c0 .89-.713 1.782-1.783 1.782H8.648c-.892 0-1.783-.713-1.783-1.782V19.786h4.1a13.57 13.57 0 00-.535 3.743c-.178 7.487 6.06 13.547 13.726 13.547zm0-5.347c-4.991 0-8.913-3.922-8.913-8.735 0-4.812 3.921-8.734 8.912-8.734 4.991 0 8.913 3.922 8.913 8.734 0 4.991-3.921 8.735-8.912 8.735zm17.112-19.073c0 1.07-.892 1.96-1.961 1.96h-4.991c-1.07 0-1.96-.89-1.96-1.96V7.843c0-1.07.89-1.96 1.96-1.96h4.99c1.07 0 1.962.89 1.962 1.96v4.813z" fill="#6A828E"/></svg><svg fill="none" viewBox="0 0 33 38" id="icon-pdf" xmlns="http://www.w3.org/2000/svg"><path d="M22.57 0H3.748A3.757 3.757 0 000 3.754v30.477C0 36.315 1.683 38 3.749 38H28.98a3.757 3.757 0 003.75-3.754V10.19L22.57 0z" fill="#E2574C"/><path d="M22.57 0v6.481a3.758 3.758 0 003.749 3.755h6.472L22.57 0z" fill="#B53629"/><path d="M12.025 18.448c0 1.793-1.377 2.927-3.534 2.927H7.374v1.915H4.757v-7.768h3.734c2.157 0 3.534 1.134 3.534 2.926zm-2.631 0c0-.567-.337-.904-1.056-.904h-.949v1.824h.949c.704 0 1.056-.353 1.056-.92zM12.882 15.522h3.825c2.586 0 4.376 1.47 4.376 3.876 0 2.406-1.79 3.892-4.376 3.892h-3.825v-7.768zm3.703 5.73c1.101 0 1.851-.658 1.851-1.838 0-1.18-.75-1.839-1.851-1.839h-1.102v3.677h1.102zM24.648 17.498v1.333h3.229v1.977h-3.229v2.482h-2.616v-7.768h6.304v1.976h-3.688z" fill="#fff"/></svg><svg fill="none" viewBox="0 0 105 105" id="marvel" xmlns="http://www.w3.org/2000/svg"><path fill-rule="evenodd" clip-rule="evenodd" d="M52.202 97.881c25.228 0 45.678-20.45 45.678-45.678 0-25.227-20.45-45.678-45.678-45.678-25.227 0-45.678 20.451-45.678 45.678 0 25.228 20.451 45.678 45.678 45.678z" fill="#1FB6FF"/><path fill-rule="evenodd" clip-rule="evenodd" d="M47.65 42.158c3.346.036-2.543 17.4-1.911 24.947.638 7.615 9.064 5.423 8.53 1.039-.91-7.453 4.054-30.806 9.089-30.806 3.532 0-3.913 16.1-2.448 26.408.97 6.821 9.767 4.455 8.873.41-2.958-13.383 6.205-26.246 5.178-35.36-.449-3.988-2.847-5.938-5.245-5.957C61.316 22.775 54.829 40 54.829 40s.676-9.79-5.852-10.15C38.983 29.3 29.09 54.31 29.37 76.643c.09 7.125 8.957 5.912 8.49.231-.867-10.564 5.023-34.767 9.79-34.716z" fill="#fff"/></svg><svg fill="none" viewBox="0 0 105 105" id="procreate" xmlns="http://www.w3.org/2000/svg"><path d="M6.528 39.588c0-11.573 0-17.36 2.253-21.78a20.663 20.663 0 019.03-9.03c4.42-2.253 10.207-2.253 21.78-2.253h25.231c11.573 0 17.36 0 21.78 2.253a20.664 20.664 0 019.03 9.03c2.252 4.42 2.252 10.207 2.252 21.78v25.231c0 11.573 0 17.36-2.252 21.78a20.664 20.664 0 01-9.03 9.03c-4.42 2.252-10.207 2.252-21.78 2.252H39.59c-11.572 0-17.359 0-21.779-2.252a20.664 20.664 0 01-9.03-9.03c-2.253-4.42-2.253-10.207-2.253-21.78V39.588z" fill="#242424"/><path d="M32.192 53.508c-12.725 9.366-15.226 23.057-15.226 34.476.58-3.407 3.24-11.397 9.244-16.096 8.918-6.979 25.232-4.68 43.068-16.53C87.114 43.505 88.854 28.058 86.57 16.204c-1.586 11.439-7.002 16.424-14.464 20.881-16.205 9.68-26.32 6.417-39.914 16.422z" fill="url(#rpaint0_linear)"/><path d="M32.192 53.508c-12.725 9.366-15.226 23.057-15.226 34.476.58-3.407 3.24-11.397 9.244-16.096 8.918-6.979 25.232-4.68 43.068-16.53C87.114 43.505 88.854 28.058 86.57 16.204c-1.586 11.439-7.002 16.424-14.464 20.881-16.205 9.68-26.32 6.417-39.914 16.422z" fill="url(#rpaint1_linear)"/><path d="M17.118 83.303c.698-10.318 4.049-21.68 15.074-29.795 7.087-5.216 13.228-6.826 19.78-8.544 3.823-1.002 7.786-2.041 12.158-3.855-1.595 1.524-9.174 5.08-14.892 7.456-5.702 2.37-11.714 4.869-16.72 8.206-10.043 6.696-14.127 18.345-15.4 26.532z" fill="url(#rpaint2_linear)"/><path d="M17.118 83.303c.698-10.318 4.049-21.68 15.074-29.795 7.087-5.216 13.228-6.826 19.78-8.544 3.823-1.002 7.786-2.041 12.158-3.855-1.595 1.524-9.174 5.08-14.892 7.456-5.702 2.37-11.714 4.869-16.72 8.206-10.043 6.696-14.127 18.345-15.4 26.532z" fill="url(#rpaint3_linear)"/><path d="M79.015 46.888a22.607 22.607 0 01-4.19 3.249c-6.96 4.176-14.36 5.523-21.558 6.834-5.737 1.044-11.347 2.065-16.507 4.477-11.636 5.437-18.814 16.747-19.794 26.535v-.005c0-.747.01-1.503.034-2.268.06-1.213.185-2.558.393-3.991 1.536-8.05 5.714-18.674 15.125-24.948 3.984-2.656 8.606-4.78 13.201-6.732 4.041-1.327 7.684-2.153 11.154-2.94 5.463-1.238 10.499-2.38 15.994-5.227 11.53-5.975 14.552-18.254 13.74-25.476 1.724 9.151 1.027 20.407-7.592 30.492z" fill="url(#rpaint4_linear)"/><path d="M79.016 46.888a22.616 22.616 0 01-4.19 3.25c-6.96 4.175-14.36 5.522-21.558 6.833-5.736 1.044-11.346 2.065-16.507 4.477-6.692 3.127-11.91 8.196-15.322 13.801 3.01-4.23 7.597-8.956 13.255-10.756 5.522-1.757 10.788-1.938 16.26-2.127 1.568-.054 3.153-.109 4.765-.201 4.346-1.582 8.901-3.712 13.56-6.808 4.016-2.668 7.215-5.518 9.737-8.469z" fill="url(#rpaint5_linear)"/><path d="M79.016 46.888a22.616 22.616 0 01-4.19 3.25c-6.96 4.175-14.36 5.522-21.558 6.833-5.736 1.044-11.346 2.065-16.507 4.477-6.692 3.127-11.91 8.196-15.322 13.801 3.01-4.23 7.597-8.956 13.255-10.756 5.522-1.757 10.788-1.938 16.26-2.127 1.568-.054 3.153-.109 4.765-.201 4.346-1.582 8.901-3.712 13.56-6.808 4.016-2.668 7.215-5.518 9.737-8.469z" fill="url(#rpaint6_linear)"/><path d="M86.613 16.396a53.769 53.769 0 00-.036-.191c-1.587 11.439-7.002 16.424-14.465 20.881a61.078 61.078 0 01-7.975 4.023c-1.596 1.524-9.175 5.08-14.892 7.456h-.001c-1.164.484-2.34.973-3.518 1.474 4.04-1.327 7.683-2.153 11.153-2.94 5.463-1.238 10.5-2.38 15.995-5.227 11.53-5.975 14.551-18.254 13.74-25.476z" fill="url(#rpaint7_linear)"/><path d="M86.613 16.396a53.769 53.769 0 00-.036-.191c-1.587 11.439-7.002 16.424-14.465 20.881a61.078 61.078 0 01-7.975 4.023c-1.596 1.524-9.175 5.08-14.892 7.456h-.001c-1.164.484-2.34.973-3.518 1.474 4.04-1.327 7.683-2.153 11.153-2.94 5.463-1.238 10.5-2.38 15.995-5.227 11.53-5.975 14.551-18.254 13.74-25.476z" fill="url(#rpaint8_linear)"/><defs><linearGradient id="rpaint0_linear" x1="56.771" y1="59.381" x2="19.141" y2="86.353" gradientUnits="userSpaceOnUse"><stop stop-color="#FE5004"/><stop offset=".603" stop-color="#FFB915"/><stop offset="1" stop-color="#FFFC41"/></linearGradient><linearGradient id="rpaint1_linear" x1="41.871" y1="61.665" x2="42.089" y2="65.581" gradientUnits="userSpaceOnUse"><stop stop-color="#FD3E00"/><stop offset="1" stop-color="#FD4400" stop-opacity="0"/></linearGradient><linearGradient id="rpaint2_linear" x1="64.166" y1="39.153" x2="11.093" y2="86.353" gradientUnits="userSpaceOnUse"><stop stop-color="#005FC6"/><stop offset=".28" stop-color="#23A4DF"/><stop offset=".465" stop-color="#3AC2B7"/><stop offset=".641" stop-color="#60EC7A"/><stop offset=".819" stop-color="#CFFDBD"/><stop offset="1" stop-color="#D0FCB6"/></linearGradient><linearGradient id="rpaint3_linear" x1="53.4" y1="48.179" x2="48.832" y2="44.047" gradientUnits="userSpaceOnUse"><stop stop-color="#0061CB"/><stop offset="1" stop-color="#067EEA" stop-opacity="0"/></linearGradient><linearGradient id="rpaint4_linear" x1="86.788" y1="16.314" x2="16.966" y2="87.876" gradientUnits="userSpaceOnUse"><stop stop-color="#8E55F1"/><stop offset=".141" stop-color="#8B48DF"/><stop offset=".275" stop-color="#E04DD9"/><stop offset=".492" stop-color="#F496C8"/><stop offset=".633" stop-color="#FAD2BA"/><stop offset=".857" stop-color="#FEF7E5"/><stop offset="1" stop-color="#FFF5BF"/></linearGradient><linearGradient id="rpaint5_linear" x1="79.937" y1="46.222" x2="22.948" y2="71.997" gradientUnits="userSpaceOnUse"><stop stop-color="#F41A73"/><stop offset=".4" stop-color="#FC50A3"/><stop offset=".585" stop-color="#FE9485"/><stop offset=".703" stop-color="#FFAF88"/><stop offset="1" stop-color="#FFC385"/></linearGradient><linearGradient id="rpaint6_linear" x1="59.382" y1="54.161" x2="59.491" y2="59.381" gradientUnits="userSpaceOnUse"><stop stop-color="#9B0008"/><stop offset="1" stop-color="#EA115A" stop-opacity="0"/></linearGradient><linearGradient id="rpaint7_linear" x1="86.794" y1="22.186" x2="35.352" y2="55.792" gradientUnits="userSpaceOnUse"><stop stop-color="#231283"/><stop offset=".363" stop-color="#7053C6"/><stop offset=".466" stop-color="#7272DB"/><stop offset=".634" stop-color="#399EE9"/><stop offset="1" stop-color="#00CFFF"/></linearGradient><linearGradient id="rpaint8_linear" x1="73.961" y1="39.153" x2="76.245" y2="42.089" gradientUnits="userSpaceOnUse"><stop stop-color="#3F259D" stop-opacity="0"/><stop offset="1" stop-color="#412DAA"/></linearGradient></defs></svg><svg fill="none" viewBox="0 0 105 105" id="zeplin" xmlns="http://www.w3.org/2000/svg"><path fill-rule="evenodd" clip-rule="evenodd" d="M20.61 65.803l-4.78 1.716-.256 13.976 16.544-5.941c-5.674-1.874-9.818-5.17-11.508-9.75z" fill="#FDBD39"/><path fill-rule="evenodd" clip-rule="evenodd" d="M23.11 51.022L6.526 56.977l9.302 10.542 4.78-1.716c-1.686-4.567-.647-9.73 2.5-14.78z" fill="#F69833"/><path fill-rule="evenodd" clip-rule="evenodd" d="M51.011 30.857c-21.116 7.582-34.729 23.228-30.406 34.947l76.467-27.459c-4.323-11.718-24.945-15.07-46.06-7.488z" fill="#FECF33"/><path fill-rule="evenodd" clip-rule="evenodd" d="M66.67 73.292c21.116-7.582 34.755-23.16 30.406-34.947L20.61 65.803c4.349 11.788 24.946 15.071 46.061 7.489z" fill="#EE6723"/><path fill-rule="evenodd" clip-rule="evenodd" d="M97.076 38.345L20.61 65.803c1.498 4.059 7.208 6.059 15.22 6.059 7.81 0 17.808-1.9 28.232-5.643 21.116-7.582 35.972-19.858 33.015-27.874z" fill="#F69833"/><path fill-rule="evenodd" clip-rule="evenodd" d="M81.852 32.287c-7.811 0-17.81 1.9-28.234 5.642-21.115 7.583-35.972 19.859-33.014 27.874L97.07 38.345c-1.497-4.058-7.207-6.058-15.218-6.058z" fill="#FDBD39"/><path fill-rule="evenodd" clip-rule="evenodd" d="M77.63 82.235h-.001c-2.25 0-5.569-1.998-9.865-5.937-5.083-4.661-10.906-11.488-16.395-19.222-5.49-7.735-10-15.467-12.701-21.774-2.943-6.872-3.363-11.098-1.248-12.56.464-.32 1.023-.482 1.662-.482 1.72 0 5.073 1.26 11.273 7.259l.136.13-.019.187c-.042.431-.081.866-.116 1.293l-.07.847-.607-.602c-6.68-6.615-9.62-7.329-10.575-7.329-.272 0-.489.054-.644.162-.918.633-.977 3.737 1.876 10.4 2.653 6.194 7.098 13.81 12.517 21.443 5.419 7.635 11.152 14.361 16.144 18.938 5.383 4.936 7.809 5.47 8.602 5.47.274 0 .496-.058.661-.173.968-.668.97-3.993-2.213-11.164l-.145-.329.32-.172c.319-.172.628-.342.918-.504l.383-.214.177.398c2.256 5.081 4.365 11.539 1.6 13.45-.467.322-1.028.485-1.67.485zm-.001-.784v.392-.392z" fill="#EE6723"/><path fill-rule="evenodd" clip-rule="evenodd" d="M67.188 73.078l-.032.39c-.534 6.494-1.94 14.3-5.604 14.615-.074.007-.15.01-.227.01-2.49 0-4.845-3.506-7-10.421-2.04-6.543-3.623-15.327-4.457-24.735-.835-9.405-.822-18.327.035-25.121.934-7.404 2.712-11.27 5.285-11.492.076-.007.155-.01.233-.01 1.806 0 4.528 2.01 7.315 11.373l-1.82.345c-.93-3.129-1.944-5.674-2.95-7.422-.932-1.618-1.837-2.508-2.55-2.508-.024 0-.047 0-.07.003-1.116.096-2.74 2.755-3.645 9.932-.842 6.672-.852 15.46-.029 24.745.824 9.286 2.38 17.94 4.384 24.364.897 2.878 1.88 5.25 2.845 6.859.89 1.484 1.75 2.301 2.423 2.301a.84.84 0 00.07-.003c1.067-.092 3.078-2.859 3.924-12.594l1.87-.63z" fill="#EE6723"/></svg></svg>