<?xml version="1.0" encoding="utf-8"?><svg viewBox="0 0 130 105" xmlns="http://www.w3.org/2000/svg" xmlns:xlink="http://www.w3.org/1999/xlink"><style>:root>svg{display:none}:root>svg:target{display:block}</style><svg fill="none" viewBox="0 0 105 105" id="adobe" xmlns="http://www.w3.org/2000/svg"><path d="M52.201 6.525c-25.194 0-45.678 20.484-45.678 45.678 0 25.195 20.484 45.678 45.678 45.678 25.195 0 45.678-20.483 45.678-45.678 0-25.194-20.483-45.678-45.678-45.678z" fill="#E6001F"/><path d="M22.838 75.042s20.296-48.928 20.248-48.94H58.5l23.067 48.94H64.144c.013.026-13.063-30.029-13.227-30.33-.029.261-8.671 20.376-8.776 20.4h9.314c-.042.052 4.05 9.837 4.05 9.93H22.838z" fill="#fff"/></svg><svg fill="none" viewBox="0 0 14 17" id="arrow-down" xmlns="http://www.w3.org/2000/svg"><path d="M7 16.5a1 1 0 01-.707-.293l-6-6a1 1 0 111.414-1.414L6 13.086V1.5a1 1 0 012 0v11.586l4.293-4.293a1 1 0 111.414 1.414l-6 6A1 1 0 017 16.5z" fill="#C7D4DB"/></svg><svg fill="none" viewBox="0 0 67 77" id="arrow-left-red" xmlns="http://www.w3.org/2000/svg"><path fill-rule="evenodd" clip-rule="evenodd" d="M51.224 6.368L8.507 33.484c-3.788 2.404-3.788 7.628 0 10.032l42.717 27.116c4.3 2.73 10.11-.153 10.11-5.016V11.384c0-4.863-5.81-7.746-10.11-5.016zM5.327 29.094c-7.103 4.509-7.103 14.303 0 18.812l42.717 27.116C56.106 80.139 67 74.734 67 65.616V11.384c0-9.118-10.894-14.523-18.956-9.406L5.327 29.094z" fill="#F93C00" fill-opacity=".4"/></svg><svg fill="none" viewBox="0 0 31 36" id="arrow-left-unique" xmlns="http://www.w3.org/2000/svg"><path d="M3.384 23.767c-4.044-2.781-4.044-8.753 0-11.534L19.283 1.296c4.644-3.195 10.967.13 10.967 5.767v21.874c0 5.637-6.323 8.962-10.967 5.767l-15.9-10.937z" fill="#F93C00"/></svg><svg fill="none" viewBox="0 0 51 48" id="arrow-left-white" xmlns="http://www.w3.org/2000/svg"><path d="M27 3L6 24l21 21" stroke="#C7D4DB" stroke-width="3" stroke-linecap="round"/></svg><svg fill="none" viewBox="0 0 26 45" id="arrow-next-red" xmlns="http://www.w3.org/2000/svg"><path d="M2 43.5l21-21-21-21" stroke="#F93C00" stroke-width="3" stroke-linecap="round"/></svg><svg fill="none" viewBox="0 0 26 45" id="arrow-prev-red" xmlns="http://www.w3.org/2000/svg"><path d="M24 1.5l-21 21 21 21" stroke="#F93C00" stroke-width="3" stroke-linecap="round"/></svg><svg fill="none" viewBox="0 0 67 77" id="arrow-right-red" xmlns="http://www.w3.org/2000/svg"><path fill-rule="evenodd" clip-rule="evenodd" d="M15.776 70.632l42.717-27.116c3.788-2.404 3.788-7.628 0-10.032L15.776 6.367c-4.3-2.73-10.11.153-10.11 5.016v54.232c0 4.863 5.81 7.746 10.11 5.016zm45.897-22.726c7.103-4.509 7.103-14.303 0-18.812L18.956 1.978C10.894-3.139 0 2.266 0 11.384v54.232c0 9.118 10.894 14.523 18.956 9.406l42.717-27.116z" fill="#F93C00" fill-opacity=".4"/></svg><svg fill="none" viewBox="0 0 31 36" id="arrow-right-unique" xmlns="http://www.w3.org/2000/svg"><path d="M27.616 12.233c4.044 2.781 4.044 8.753 0 11.534L11.717 34.704C7.073 37.9.75 34.574.75 28.937V7.063c0-5.637 6.323-8.962 10.967-5.767l15.9 10.937z" fill="#F93C00"/></svg><svg fill="none" viewBox="0 0 53 48" id="arrow-right-white" xmlns="http://www.w3.org/2000/svg"><path d="M24 45l21-21L24 3" stroke="#C7D4DB" stroke-width="3" stroke-linecap="round"/></svg><svg fill="none" viewBox="0 0 105 105" id="figma" xmlns="http://www.w3.org/2000/svg"><path fill-rule="evenodd" clip-rule="evenodd" d="M52.203 52.203c0-7.208 5.843-13.05 13.051-13.05s13.05 5.843 13.05 13.05c0 7.208-5.842 13.051-13.05 13.051-7.208 0-13.05-5.843-13.05-13.05z" fill="#1ABCFE"/><path fill-rule="evenodd" clip-rule="evenodd" d="M26.104 78.305c0-7.208 5.843-13.05 13.05-13.05h13.051v13.05c0 7.208-5.843 13.05-13.05 13.05-7.208 0-13.052-5.842-13.052-13.05z" fill="#0ACF83"/><path fill-rule="evenodd" clip-rule="evenodd" d="M52.203 13.05v26.102h13.051c7.208 0 13.05-5.843 13.05-13.05 0-7.208-5.842-13.051-13.05-13.051h-13.05z" fill="#FF7262"/><path fill-rule="evenodd" clip-rule="evenodd" d="M26.104 26.102c0 7.207 5.843 13.05 13.05 13.05h13.051V13.052h-13.05c-7.208 0-13.052 5.843-13.052 13.05z" fill="#F24E1E"/><path fill-rule="evenodd" clip-rule="evenodd" d="M26.104 52.203c0 7.208 5.843 13.051 13.05 13.051h13.051V39.152h-13.05c-7.208 0-13.052 5.843-13.052 13.051z" fill="#A259FF"/></svg><svg fill="none" viewBox="0 0 105 105" id="framer" xmlns="http://www.w3.org/2000/svg"><path fill-rule="evenodd" clip-rule="evenodd" d="M52.203 97.881c25.228 0 45.678-20.45 45.678-45.678 0-25.227-20.45-45.678-45.678-45.678-25.227 0-45.678 20.451-45.678 45.678 0 25.228 20.451 45.678 45.678 45.678z" fill="#fff"/><path fill-rule="evenodd" clip-rule="evenodd" d="M29.365 66.342h22.84v21.751l-22.84-21.751z" fill="#05F"/><path d="M52.204 44.59H29.365v21.752h45.678L52.204 44.59z" fill="#0AF"/><path d="M29.365 22.839l22.84 21.751h22.838V22.84H29.365z" fill="#8DF"/></svg><svg fill="none" viewBox="0 0 23 14" id="icon-caret" xmlns="http://www.w3.org/2000/svg"><path d="M21.84 1.92l-9.92 9.92L2 1.92" stroke="#fff" stroke-opacity=".2" stroke-width="3" stroke-linejoin="round"/></svg><svg fill="none" viewBox="0 0 13 11" id="icon-caret-red" xmlns="http://www.w3.org/2000/svg"><path d="M8.59 9.723a2.333 2.333 0 01-3.845 0l-3.646-5.3C.034 2.875 1.143.768 3.022.768h7.29c1.88 0 2.988 2.107 1.923 3.655l-3.646 5.3z" fill="#F93C00"/></svg><svg fill="none" viewBox="0 0 21 19" id="icon-checkbox-mark" xmlns="http://www.w3.org/2000/svg"><path d="M1.78 9.695l7.269 7.271L19.315 2.424" stroke="#273A43" stroke-width="3" stroke-linecap="round" stroke-linejoin="round"/></svg><svg fill="none" viewBox="0 0 77 77" id="icon-close-red" xmlns="http://www.w3.org/2000/svg"><path fill-rule="evenodd" clip-rule="evenodd" d="M1.025 71.025a3.5 3.5 0 004.95 4.95L38.5 43.45l32.525 32.525a3.5 3.5 0 004.95-4.95L43.45 38.5 75.975 5.975a3.5 3.5 0 00-4.95-4.95L38.5 33.55 5.975 1.025a3.5 3.5 0 10-4.95 4.95L33.55 38.5 1.025 71.025z" fill="#F93C00" fill-opacity=".4"/></svg><svg fill="none" viewBox="0 0 52 52" id="icon-close-white" xmlns="http://www.w3.org/2000/svg"><path d="M2.295 2L50 49.705M2.295 49.705L50 2" stroke="#fff" stroke-width="4.77"/></svg><svg fill="none" viewBox="0 0 70 49" id="icon-cloud" xmlns="http://www.w3.org/2000/svg"><path fill-rule="evenodd" clip-rule="evenodd" d="M20.281 48.42c-.839.121-1.696.184-2.569.184C7.93 48.604 0 40.674 0 30.892S7.93 13.18 17.712 13.18c.754 0 1.497.047 2.226.139C22.534 5.578 29.846 0 38.46 0c10.787 0 19.531 8.744 19.531 19.53a19.7 19.7 0 01-.205 2.84C64.611 22.84 70 28.526 70 35.47c0 7.254-5.88 13.134-13.133 13.134-.753 0-1.491-.063-2.21-.185H20.282z" fill="#fff"/></svg><svg fill="none" viewBox="0 0 47 47" id="icon-facebook" xmlns="http://www.w3.org/2000/svg"><path d="M46.345 8.339c0-4.082-3.602-7.684-7.684-7.684H7.684C3.602.655 0 4.257 0 8.339v30.977C0 43.398 3.602 47 7.684 47h15.609V29.47h-5.764v-7.684h5.764v-3.121c0-5.283 3.842-9.846 8.644-9.846h6.244v7.684h-6.244c-.72 0-1.44.72-1.44 2.162v3.121h7.684v7.684h-7.684V47h8.164c4.082 0 7.684-3.602 7.684-7.684V8.339z" fill="#6A828E"/></svg><svg fill="none" viewBox="0 0 40 40" id="icon-full-view" xmlns="http://www.w3.org/2000/svg"><path d="M13.401 15.43a1.435 1.435 0 102.03-2.029l-2.03 2.03zM1.501.066C.706.065.064.707.064 1.5v12.916a1.435 1.435 0 102.87 0V2.935h11.48a1.435 1.435 0 100-2.87H1.5zM15.43 13.4L2.515.485l-2.03 2.03L13.401 15.43l2.03-2.029zM23.925 13.159a1.435 1.435 0 102.03 2.03l-2.03-2.03zM39.048 1.5c0-.793-.642-1.435-1.435-1.435H24.697a1.435 1.435 0 100 2.87h11.481v11.48a1.435 1.435 0 102.87 0V1.5zM25.955 15.188L38.628 2.515l-2.03-2.03L23.925 13.16l2.03 2.03zM15.188 25.955a1.435 1.435 0 10-2.03-2.03l2.03 2.03zM.065 37.613c0 .793.642 1.435 1.435 1.435h12.916a1.435 1.435 0 100-2.87H2.936v-11.48a1.435 1.435 0 10-2.871 0v12.915zm13.094-13.688L.485 36.6l2.03 2.03 12.673-12.674-2.03-2.03zM25.712 23.925a1.435 1.435 0 10-2.03 2.03l2.03-2.03zm11.901 15.366c.793 0 1.435-.643 1.435-1.435V24.94a1.435 1.435 0 00-2.87 0v11.48h-11.48a1.435 1.435 0 100 2.87h12.915zm-13.93-13.336L36.599 38.87l2.029-2.03-12.916-12.916-2.03 2.03z" fill="#fff"/></svg><svg fill="none" viewBox="0 0 130 26" id="icon-google-maps" xmlns="http://www.w3.org/2000/svg"><g clip-path="url(#auclip0)"><path d="M4.836 18.653c.723.922 1.38 1.892 1.969 2.905.502.953.711 1.599 1.078 2.747.225.634.429.823.866.823.476 0 .693-.322.86-.82.346-1.084.619-1.911 1.048-2.693.842-1.509 1.89-2.85 2.918-4.138.279-.365 2.08-2.49 2.89-4.167 0 0 .996-1.842.996-4.414 0-2.406-.982-4.075-.982-4.075l-2.83.758-1.717 4.527-.425.624-.085.114-.113.141-.199.226-.283.284-1.53 1.247-3.824 2.21-.637 3.701z" fill="#34A853"/><path d="M.89 13c.933 2.134 2.733 4.009 3.95 5.655l6.469-7.667s-.911 1.193-2.564 1.193a3.314 3.314 0 01-3.33-3.327c0-1.272.766-2.146.766-2.146L1.79 7.885.89 13z" fill="#FBBC04"/><path d="M11.381.526c2.149.693 3.987 2.148 5.1 4.294l-5.17 6.164s.765-.89.765-2.154c0-1.899-1.598-3.317-3.324-3.317-1.632 0-2.569 1.19-2.569 1.19V2.822L11.381.526z" fill="#4285F4"/><path d="M2.074 3.25C3.357 1.714 5.615.132 8.728.132c1.51 0 2.648.397 2.648.397L6.178 6.707H2.496L2.074 3.25z" fill="#1A73E8"/><path d="M.89 13S.03 11.319.03 8.88c0-2.303.896-4.317 2.044-5.63l4.107 3.458L.89 13z" fill="#EA4335"/><path d="M89.26 20.406V7.268h1.686l4.567 8h.073l4.567-8h1.687v13.138h-1.687v-7.799l.073-2.202h-.073l-4.108 7.211h-.99l-4.106-7.21h-.074l.074 2.201v7.798h-1.69zm17.512.275c-.953 0-1.751-.275-2.393-.826-.641-.55-.962-1.278-.962-2.183 0-.983.378-1.746 1.136-2.303.759-.557 1.693-.835 2.801-.835.99 0 1.803.183 2.439.55v-.256c0-.661-.226-1.19-.678-1.587-.452-.397-1.009-.596-1.67-.596a2.62 2.62 0 00-1.328.344c-.398.228-.67.55-.816.953l-1.541-.66c.208-.538.618-1.032 1.229-1.495.61-.463 1.417-.688 2.42-.688 1.15 0 2.103.336 2.861 1.009.758.672 1.137 1.621 1.137 2.844v5.436h-1.614V19.14h-.073c-.674 1.032-1.658 1.54-2.948 1.54zm.275-1.541c.697 0 1.329-.26 1.898-.78.569-.519.853-1.13.853-1.843-.477-.392-1.192-.587-2.146-.587-.819 0-1.437.177-1.852.532-.415.355-.624.77-.624 1.247 0 .44.19.79.569 1.047.378.257.813.385 1.302.385v-.001zm10.681 1.54c-.684 0-1.299-.147-1.842-.44-.543-.292-.951-.66-1.218-1.1h-.074l.074 1.247v3.963h-1.687V11.397h1.614v1.248h.074c.268-.44.675-.807 1.218-1.101.543-.294 1.158-.44 1.842-.44 1.162 0 2.164.458 3.008 1.375.843.918 1.265 2.055 1.265 3.413 0 1.358-.422 2.496-1.265 3.413-.843.917-1.846 1.376-3.008 1.376h-.001zm-.275-1.54c.783 0 1.454-.297 2.017-.885.563-.588.844-1.38.844-2.358 0-.979-.281-1.77-.844-2.358-.562-.588-1.235-.885-2.017-.885-.794 0-1.47.294-2.026.881-.557.588-.834 1.377-.834 2.367s.278 1.78.834 2.367c.555.587 1.231.88 2.026.88v-.01zm9.032 1.54c-1.002 0-1.83-.244-2.485-.733a4.37 4.37 0 01-1.439-1.835l1.503-.624c.477 1.13 1.29 1.687 2.44 1.687.525 0 .957-.116 1.293-.344.336-.228.504-.538.504-.917 0-.587-.409-.985-1.229-1.193l-1.815-.44a4.315 4.315 0 01-1.632-.834c-.513-.41-.77-.963-.77-1.66 0-.795.351-1.44 1.054-1.937.703-.496 1.538-.743 2.503-.743.794 0 1.503.18 2.127.54a3.052 3.052 0 011.339 1.551l-1.468.606c-.329-.795-1.014-1.193-2.053-1.193-.501 0-.924.104-1.265.312-.342.207-.514.49-.514.844 0 .514.393.863 1.192 1.046l1.779.422c.843.196 1.467.532 1.87 1.01.403.476.605 1.015.605 1.614 0 .807-.33 1.475-.99 2.019-.66.543-1.51.807-2.555.807l.006-.004zm-87.22-8.107h-6.92v2.054h4.913c-.242 2.881-2.638 4.11-4.9 4.11a5.39 5.39 0 01-5.026-3.377 5.4 5.4 0 01-.392-2.093c0-3.11 2.407-5.505 5.424-5.505 2.329 0 3.7 1.485 3.7 1.485l1.437-1.49s-1.845-2.054-5.21-2.054c-4.286 0-7.602 3.62-7.602 7.529 0 3.83 3.12 7.566 7.71 7.566 4.04 0 6.997-2.768 6.997-6.862 0-.863-.126-1.363-.126-1.363h-.005zM44.947 11.111c-2.84 0-4.875 2.221-4.875 4.812 0 2.629 1.974 4.89 4.913 4.89 2.656 0 4.832-2.03 4.832-4.834 0-3.213-2.531-4.868-4.865-4.868h-.005zm.028 1.906c1.396 0 2.72 1.13 2.72 2.95 0 1.78-1.319 2.944-2.727 2.944-1.548 0-2.769-1.24-2.769-2.958 0-1.68 1.207-2.935 2.775-2.935zM55.497 11.111c-2.84 0-4.874 2.221-4.874 4.812 0 2.629 1.974 4.89 4.912 4.89 2.657 0 4.832-2.03 4.832-4.834 0-3.213-2.531-4.868-4.865-4.868h-.005zm.028 1.906c1.397 0 2.72 1.13 2.72 2.95 0 1.78-1.319 2.944-2.727 2.944-1.547 0-2.768-1.24-2.768-2.958 0-1.68 1.206-2.935 2.775-2.935zM65.885 11.111c-2.606 0-4.655 2.285-4.655 4.848 0 2.92 2.375 4.857 4.61 4.857 1.382 0 2.116-.55 2.66-1.18v.956c0 1.674-1.017 2.677-2.555 2.677-1.481 0-2.224-1.102-2.482-1.727l-1.864.78c.662 1.398 1.992 2.857 4.362 2.857 2.591 0 4.567-1.633 4.567-5.063V11.4h-2.033v.822c-.625-.673-1.48-1.113-2.614-1.113l.004.002zm.189 1.903c1.278 0 2.59 1.091 2.59 2.956 0 1.895-1.31 2.939-2.619 2.939-1.389 0-2.682-1.129-2.682-2.922 0-1.868 1.342-2.974 2.71-2.974zM79.6 11.112c-2.458 0-4.523 1.956-4.523 4.845 0 3.055 2.301 4.868 4.76 4.868 2.05 0 3.31-1.123 4.061-2.13l-1.67-1.115c-.435.675-1.162 1.336-2.375 1.336-1.364 0-1.99-.747-2.378-1.47l6.501-2.704-.337-.787c-.63-1.55-2.094-2.843-4.029-2.843h-.01zm.085 1.865c.886 0 1.523.472 1.795 1.037l-4.342 1.815c-.187-1.405 1.143-2.852 2.547-2.852zm-7.713 7.559h2.135V6.232h-2.135v14.304z" fill="#fff"/></g><defs><clipPath id="auclip0"><path fill="#fff" transform="translate(0 .137)" d="M0 0h130v25H0z"/></clipPath></defs></svg><svg fill="none" viewBox="0 0 12 15" id="icon-humidity" xmlns="http://www.w3.org/2000/svg"><path d="M.882 8.765c0 2.803 2.259 5.075 5.044 5.075 2.786 0 5.045-2.272 5.045-5.075a5.08 5.08 0 00-1.597-3.707L5.927 1.59 2.481 5.058A5.08 5.08 0 00.882 8.765z" stroke="#fff" stroke-width="1.441" stroke-linejoin="round"/></svg><svg fill="none" viewBox="0 0 48 47" id="icon-instagram" xmlns="http://www.w3.org/2000/svg"><path d="M40.733 0H7.578C3.835 0 .983 2.852.983 6.595V39.75c0 3.743 2.852 6.595 6.595 6.595h33.155c3.743 0 6.595-2.852 6.595-6.595V6.595C47.328 2.852 44.476 0 40.733 0zM24.156 37.076c7.664 0 13.903-6.06 13.903-13.369 0-1.247-.178-2.673-.535-3.743h3.922V38.86c0 .89-.713 1.782-1.783 1.782H8.648c-.892 0-1.783-.713-1.783-1.782V19.786h4.1a13.57 13.57 0 00-.535 3.743c-.178 7.487 6.06 13.547 13.726 13.547zm0-5.347c-4.991 0-8.913-3.922-8.913-8.735 0-4.812 3.921-8.734 8.912-8.734 4.991 0 8.913 3.922 8.913 8.734 0 4.991-3.921 8.735-8.912 8.735zm17.112-19.073c0 1.07-.892 1.96-1.961 1.96h-4.991c-1.07 0-1.96-.89-1.96-1.96V7.843c0-1.07.89-1.96 1.96-1.96h4.99c1.07 0 1.962.89 1.962 1.96v4.813z" fill="#6A828E"/></svg><svg fill="none" viewBox="0 0 33 38" id="icon-pdf" xmlns="http://www.w3.org/2000/svg"><path d="M22.57 0H3.748A3.757 3.757 0 000 3.754v30.477C0 36.315 1.683 38 3.749 38H28.98a3.757 3.757 0 003.75-3.754V10.19L22.57 0z" fill="#E2574C"/><path d="M22.57 0v6.481a3.758 3.758 0 003.749 3.755h6.472L22.57 0z" fill="#B53629"/><path d="M12.025 18.448c0 1.793-1.377 2.927-3.534 2.927H7.374v1.915H4.757v-7.768h3.734c2.157 0 3.534 1.134 3.534 2.926zm-2.631 0c0-.567-.337-.904-1.056-.904h-.949v1.824h.949c.704 0 1.056-.353 1.056-.92zM12.882 15.522h3.825c2.586 0 4.376 1.47 4.376 3.876 0 2.406-1.79 3.892-4.376 3.892h-3.825v-7.768zm3.703 5.73c1.101 0 1.851-.658 1.851-1.838 0-1.18-.75-1.839-1.851-1.839h-1.102v3.677h1.102zM24.648 17.498v1.333h3.229v1.977h-3.229v2.482h-2.616v-7.768h6.304v1.976h-3.688z" fill="#fff"/></svg><svg fill="none" viewBox="0 0 12 14" id="icon-wind" xmlns="http://www.w3.org/2000/svg"><path fill-rule="evenodd" clip-rule="evenodd" d="M4.044 2.252a2.162 2.162 0 114.324 0v.36a2.522 2.522 0 01-2.522 2.522H1.162a.72.72 0 010-1.44h4.684a1.08 1.08 0 001.08-1.082v-.36a.72.72 0 00-1.44 0v.197a.72.72 0 11-1.442 0v-.197zm2.882 9.007a2.522 2.522 0 005.045 0v-.36a2.882 2.882 0 00-2.883-2.882H1.882a.72.72 0 000 1.441h7.206c.796 0 1.441.645 1.441 1.441v.36a1.08 1.08 0 01-2.161 0v-.36a.72.72 0 10-1.442 0v.36zM2.603 5.855a.72.72 0 100 1.441h7.206a.72.72 0 100-1.441H2.603z" fill="#fff"/></svg><svg fill="none" viewBox="0 0 105 105" id="marvel" xmlns="http://www.w3.org/2000/svg"><path fill-rule="evenodd" clip-rule="evenodd" d="M52.202 97.881c25.228 0 45.678-20.45 45.678-45.678 0-25.227-20.45-45.678-45.678-45.678-25.227 0-45.678 20.451-45.678 45.678 0 25.228 20.451 45.678 45.678 45.678z" fill="#1FB6FF"/><path fill-rule="evenodd" clip-rule="evenodd" d="M47.65 42.158c3.346.036-2.543 17.4-1.911 24.947.638 7.615 9.064 5.423 8.53 1.039-.91-7.453 4.054-30.806 9.089-30.806 3.532 0-3.913 16.1-2.448 26.408.97 6.821 9.767 4.455 8.873.41-2.958-13.383 6.205-26.246 5.178-35.36-.449-3.988-2.847-5.938-5.245-5.957C61.316 22.775 54.829 40 54.829 40s.676-9.79-5.852-10.15C38.983 29.3 29.09 54.31 29.37 76.643c.09 7.125 8.957 5.912 8.49.231-.867-10.564 5.023-34.767 9.79-34.716z" fill="#fff"/></svg><svg fill="none" viewBox="0 0 105 105" id="procreate" xmlns="http://www.w3.org/2000/svg"><path d="M6.528 39.588c0-11.573 0-17.36 2.253-21.78a20.663 20.663 0 019.03-9.03c4.42-2.253 10.207-2.253 21.78-2.253h25.231c11.573 0 17.36 0 21.78 2.253a20.664 20.664 0 019.03 9.03c2.252 4.42 2.252 10.207 2.252 21.78v25.231c0 11.573 0 17.36-2.252 21.78a20.664 20.664 0 01-9.03 9.03c-4.42 2.252-10.207 2.252-21.78 2.252H39.59c-11.572 0-17.359 0-21.779-2.252a20.664 20.664 0 01-9.03-9.03c-2.253-4.42-2.253-10.207-2.253-21.78V39.588z" fill="#242424"/><path d="M32.192 53.508c-12.725 9.366-15.226 23.057-15.226 34.476.58-3.407 3.24-11.397 9.244-16.096 8.918-6.979 25.232-4.68 43.068-16.53C87.114 43.505 88.854 28.058 86.57 16.204c-1.586 11.439-7.002 16.424-14.464 20.881-16.205 9.68-26.32 6.417-39.914 16.422z" fill="url(#bapaint0_linear)"/><path d="M32.192 53.508c-12.725 9.366-15.226 23.057-15.226 34.476.58-3.407 3.24-11.397 9.244-16.096 8.918-6.979 25.232-4.68 43.068-16.53C87.114 43.505 88.854 28.058 86.57 16.204c-1.586 11.439-7.002 16.424-14.464 20.881-16.205 9.68-26.32 6.417-39.914 16.422z" fill="url(#bapaint1_linear)"/><path d="M17.118 83.303c.698-10.318 4.049-21.68 15.074-29.795 7.087-5.216 13.228-6.826 19.78-8.544 3.823-1.002 7.786-2.041 12.158-3.855-1.595 1.524-9.174 5.08-14.892 7.456-5.702 2.37-11.714 4.869-16.72 8.206-10.043 6.696-14.127 18.345-15.4 26.532z" fill="url(#bapaint2_linear)"/><path d="M17.118 83.303c.698-10.318 4.049-21.68 15.074-29.795 7.087-5.216 13.228-6.826 19.78-8.544 3.823-1.002 7.786-2.041 12.158-3.855-1.595 1.524-9.174 5.08-14.892 7.456-5.702 2.37-11.714 4.869-16.72 8.206-10.043 6.696-14.127 18.345-15.4 26.532z" fill="url(#bapaint3_linear)"/><path d="M79.015 46.888a22.607 22.607 0 01-4.19 3.249c-6.96 4.176-14.36 5.523-21.558 6.834-5.737 1.044-11.347 2.065-16.507 4.477-11.636 5.437-18.814 16.747-19.794 26.535v-.005c0-.747.01-1.503.034-2.268.06-1.213.185-2.558.393-3.991 1.536-8.05 5.714-18.674 15.125-24.948 3.984-2.656 8.606-4.78 13.201-6.732 4.041-1.327 7.684-2.153 11.154-2.94 5.463-1.238 10.499-2.38 15.994-5.227 11.53-5.975 14.552-18.254 13.74-25.476 1.724 9.151 1.027 20.407-7.592 30.492z" fill="url(#bapaint4_linear)"/><path d="M79.016 46.888a22.616 22.616 0 01-4.19 3.25c-6.96 4.175-14.36 5.522-21.558 6.833-5.736 1.044-11.346 2.065-16.507 4.477-6.692 3.127-11.91 8.196-15.322 13.801 3.01-4.23 7.597-8.956 13.255-10.756 5.522-1.757 10.788-1.938 16.26-2.127 1.568-.054 3.153-.109 4.765-.201 4.346-1.582 8.901-3.712 13.56-6.808 4.016-2.668 7.215-5.518 9.737-8.469z" fill="url(#bapaint5_linear)"/><path d="M79.016 46.888a22.616 22.616 0 01-4.19 3.25c-6.96 4.175-14.36 5.522-21.558 6.833-5.736 1.044-11.346 2.065-16.507 4.477-6.692 3.127-11.91 8.196-15.322 13.801 3.01-4.23 7.597-8.956 13.255-10.756 5.522-1.757 10.788-1.938 16.26-2.127 1.568-.054 3.153-.109 4.765-.201 4.346-1.582 8.901-3.712 13.56-6.808 4.016-2.668 7.215-5.518 9.737-8.469z" fill="url(#bapaint6_linear)"/><path d="M86.613 16.396a53.769 53.769 0 00-.036-.191c-1.587 11.439-7.002 16.424-14.465 20.881a61.078 61.078 0 01-7.975 4.023c-1.596 1.524-9.175 5.08-14.892 7.456h-.001c-1.164.484-2.34.973-3.518 1.474 4.04-1.327 7.683-2.153 11.153-2.94 5.463-1.238 10.5-2.38 15.995-5.227 11.53-5.975 14.551-18.254 13.74-25.476z" fill="url(#bapaint7_linear)"/><path d="M86.613 16.396a53.769 53.769 0 00-.036-.191c-1.587 11.439-7.002 16.424-14.465 20.881a61.078 61.078 0 01-7.975 4.023c-1.596 1.524-9.175 5.08-14.892 7.456h-.001c-1.164.484-2.34.973-3.518 1.474 4.04-1.327 7.683-2.153 11.153-2.94 5.463-1.238 10.5-2.38 15.995-5.227 11.53-5.975 14.551-18.254 13.74-25.476z" fill="url(#bapaint8_linear)"/><defs><linearGradient id="bapaint0_linear" x1="56.771" y1="59.381" x2="19.141" y2="86.353" gradientUnits="userSpaceOnUse"><stop stop-color="#FE5004"/><stop offset=".603" stop-color="#FFB915"/><stop offset="1" stop-color="#FFFC41"/></linearGradient><linearGradient id="bapaint1_linear" x1="41.871" y1="61.665" x2="42.089" y2="65.581" gradientUnits="userSpaceOnUse"><stop stop-color="#FD3E00"/><stop offset="1" stop-color="#FD4400" stop-opacity="0"/></linearGradient><linearGradient id="bapaint2_linear" x1="64.166" y1="39.153" x2="11.093" y2="86.353" gradientUnits="userSpaceOnUse"><stop stop-color="#005FC6"/><stop offset=".28" stop-color="#23A4DF"/><stop offset=".465" stop-color="#3AC2B7"/><stop offset=".641" stop-color="#60EC7A"/><stop offset=".819" stop-color="#CFFDBD"/><stop offset="1" stop-color="#D0FCB6"/></linearGradient><linearGradient id="bapaint3_linear" x1="53.4" y1="48.179" x2="48.832" y2="44.047" gradientUnits="userSpaceOnUse"><stop stop-color="#0061CB"/><stop offset="1" stop-color="#067EEA" stop-opacity="0"/></linearGradient><linearGradient id="bapaint4_linear" x1="86.788" y1="16.314" x2="16.966" y2="87.876" gradientUnits="userSpaceOnUse"><stop stop-color="#8E55F1"/><stop offset=".141" stop-color="#8B48DF"/><stop offset=".275" stop-color="#E04DD9"/><stop offset=".492" stop-color="#F496C8"/><stop offset=".633" stop-color="#FAD2BA"/><stop offset=".857" stop-color="#FEF7E5"/><stop offset="1" stop-color="#FFF5BF"/></linearGradient><linearGradient id="bapaint5_linear" x1="79.937" y1="46.222" x2="22.948" y2="71.997" gradientUnits="userSpaceOnUse"><stop stop-color="#F41A73"/><stop offset=".4" stop-color="#FC50A3"/><stop offset=".585" stop-color="#FE9485"/><stop offset=".703" stop-color="#FFAF88"/><stop offset="1" stop-color="#FFC385"/></linearGradient><linearGradient id="bapaint6_linear" x1="59.382" y1="54.161" x2="59.491" y2="59.381" gradientUnits="userSpaceOnUse"><stop stop-color="#9B0008"/><stop offset="1" stop-color="#EA115A" stop-opacity="0"/></linearGradient><linearGradient id="bapaint7_linear" x1="86.794" y1="22.186" x2="35.352" y2="55.792" gradientUnits="userSpaceOnUse"><stop stop-color="#231283"/><stop offset=".363" stop-color="#7053C6"/><stop offset=".466" stop-color="#7272DB"/><stop offset=".634" stop-color="#399EE9"/><stop offset="1" stop-color="#00CFFF"/></linearGradient><linearGradient id="bapaint8_linear" x1="73.961" y1="39.153" x2="76.245" y2="42.089" gradientUnits="userSpaceOnUse"><stop stop-color="#3F259D" stop-opacity="0"/><stop offset="1" stop-color="#412DAA"/></linearGradient></defs></svg><svg fill="none" viewBox="0 0 105 105" id="zeplin" xmlns="http://www.w3.org/2000/svg"><path fill-rule="evenodd" clip-rule="evenodd" d="M20.61 65.803l-4.78 1.716-.256 13.976 16.544-5.941c-5.674-1.874-9.818-5.17-11.508-9.75z" fill="#FDBD39"/><path fill-rule="evenodd" clip-rule="evenodd" d="M23.11 51.022L6.526 56.977l9.302 10.542 4.78-1.716c-1.686-4.567-.647-9.73 2.5-14.78z" fill="#F69833"/><path fill-rule="evenodd" clip-rule="evenodd" d="M51.011 30.857c-21.116 7.582-34.729 23.228-30.406 34.947l76.467-27.459c-4.323-11.718-24.945-15.07-46.06-7.488z" fill="#FECF33"/><path fill-rule="evenodd" clip-rule="evenodd" d="M66.67 73.292c21.116-7.582 34.755-23.16 30.406-34.947L20.61 65.803c4.349 11.788 24.946 15.071 46.061 7.489z" fill="#EE6723"/><path fill-rule="evenodd" clip-rule="evenodd" d="M97.076 38.345L20.61 65.803c1.498 4.059 7.208 6.059 15.22 6.059 7.81 0 17.808-1.9 28.232-5.643 21.116-7.582 35.972-19.858 33.015-27.874z" fill="#F69833"/><path fill-rule="evenodd" clip-rule="evenodd" d="M81.852 32.287c-7.811 0-17.81 1.9-28.234 5.642-21.115 7.583-35.972 19.859-33.014 27.874L97.07 38.345c-1.497-4.058-7.207-6.058-15.218-6.058z" fill="#FDBD39"/><path fill-rule="evenodd" clip-rule="evenodd" d="M77.63 82.235h-.001c-2.25 0-5.569-1.998-9.865-5.937-5.083-4.661-10.906-11.488-16.395-19.222-5.49-7.735-10-15.467-12.701-21.774-2.943-6.872-3.363-11.098-1.248-12.56.464-.32 1.023-.482 1.662-.482 1.72 0 5.073 1.26 11.273 7.259l.136.13-.019.187c-.042.431-.081.866-.116 1.293l-.07.847-.607-.602c-6.68-6.615-9.62-7.329-10.575-7.329-.272 0-.489.054-.644.162-.918.633-.977 3.737 1.876 10.4 2.653 6.194 7.098 13.81 12.517 21.443 5.419 7.635 11.152 14.361 16.144 18.938 5.383 4.936 7.809 5.47 8.602 5.47.274 0 .496-.058.661-.173.968-.668.97-3.993-2.213-11.164l-.145-.329.32-.172c.319-.172.628-.342.918-.504l.383-.214.177.398c2.256 5.081 4.365 11.539 1.6 13.45-.467.322-1.028.485-1.67.485zm-.001-.784v.392-.392z" fill="#EE6723"/><path fill-rule="evenodd" clip-rule="evenodd" d="M67.188 73.078l-.032.39c-.534 6.494-1.94 14.3-5.604 14.615-.074.007-.15.01-.227.01-2.49 0-4.845-3.506-7-10.421-2.04-6.543-3.623-15.327-4.457-24.735-.835-9.405-.822-18.327.035-25.121.934-7.404 2.712-11.27 5.285-11.492.076-.007.155-.01.233-.01 1.806 0 4.528 2.01 7.315 11.373l-1.82.345c-.93-3.129-1.944-5.674-2.95-7.422-.932-1.618-1.837-2.508-2.55-2.508-.024 0-.047 0-.07.003-1.116.096-2.74 2.755-3.645 9.932-.842 6.672-.852 15.46-.029 24.745.824 9.286 2.38 17.94 4.384 24.364.897 2.878 1.88 5.25 2.845 6.859.89 1.484 1.75 2.301 2.423 2.301a.84.84 0 00.07-.003c1.067-.092 3.078-2.859 3.924-12.594l1.87-.63z" fill="#EE6723"/></svg></svg>