<svg width="45" height="41" fill="none" xmlns="http://www.w3.org/2000/svg"><path fill-rule="evenodd" clip-rule="evenodd" d="M12.985 31c-.537.078-1.086.118-1.645.118C5.077 31.118 0 26.041 0 19.778c0-6.262 5.077-11.34 11.34-11.34.483 0 .959.03 1.425.09C14.427 3.57 19.108 0 24.624 0c6.906 0 12.504 5.598 12.504 12.504 0 .618-.044 1.225-.13 1.818A8.409 8.409 0 1134.993 31h-22.01z" fill="#fff"/><circle cx="22.5" cy="32.5" r="2.5" fill="#fff"/><circle cx="17.5" cy="38.5" r="2.5" fill="#fff"/><circle cx="27.5" cy="38.5" r="2.5" fill="#fff"/><circle cx="12.5" cy="32.5" r="2.5" fill="#fff"/><circle cx="32.5" cy="32.5" r="2.5" fill="#fff"/></svg>