<svg width="702" height="512" fill="none" xmlns="http://www.w3.org/2000/svg"><path d="M228.742 78.558h-18.559V90.93h18.559V78.558zM276.17 90.93h4.123a2.06 2.06 0 002.062-2.063V78.554h-6.187l.002 12.375zm164.674 58.009h6.186v-58.01h38.013V78.554H315.35v10.31a2.06 2.06 0 002.061 2.063h123.433v58.012zm-170.78 96.325h-3.5c-.742 0-1.343.602-1.343 1.343v3.501c0 .742.601 1.343 1.343 1.343h3.5c.742 0 1.344-.601 1.344-1.343v-3.501c0-.741-.602-1.343-1.344-1.343zM2.063 401.659h2.062a2.06 2.06 0 002.062-2.061V383.1H0v16.496a2.064 2.064 0 002.063 2.063zm4.124-82.41H0v6.187h6.187v-6.187zm0-63.85H0v6.187h6.187v-6.187zm0-63.85H0v6.187h6.187v-6.187zm0-63.85H0v6.187h6.187v-6.187zm0-63.85H0v6.187h6.187v-6.187zM0 6.187h6.187V0H2.063A2.062 2.062 0 00.001 2.062L0 6.187zM70.158 0h-6.187v6.187h6.187V0zm63.965 0h-6.186v6.187h6.186V0zm63.969 0h-6.187v6.187h6.187V0zm57.781 6.187h4.123a2.06 2.06 0 002.062-2.062V2.063a2.056 2.056 0 00-.603-1.458 2.068 2.068 0 00-1.459-.604h-4.123v6.186zm63.971 0h6.187V2.063a2.065 2.065 0 00-2.062-2.062h-2.062a2.058 2.058 0 00-1.905 1.273c-.104.25-.157.518-.157.79l-.001 4.123zm6.187 33.091h-6.187v6.187h6.187v-6.187zm43.714 451.704h4.123v-6.187h-4.123a2.061 2.061 0 00-2.062 2.062v2.062a2.064 2.064 0 002.062 2.063zM542.778 78.554v12.373h122.791v35.078h12.372V80.619a2.06 2.06 0 00-2.062-2.062l-133.101-.003zM87.812 416.677h44.007v-12.373H98.127V90.931h33.696V78.554h-44.01a2.064 2.064 0 00-2.063 2.062v333.997a2.065 2.065 0 002.062 2.064zm362.308 82.044v-24.526a2.061 2.061 0 00-2.062-2.062h-10.31v12.661h-6.187v6.191h6.187v18.049a2.061 2.061 0 002.062 2.062h31.38v-12.373l-21.07-.002zm215.453-283.252h-78.252v10.311a2.063 2.063 0 002.062 2.061h88.556v-44.095h-12.372l.006 31.723zm.008 283.252h-70.315v-22.462a2.059 2.059 0 00-2.061-2.061h-2.062a2.06 2.06 0 00-2.062 2.061v22.463h-7.682v12.373h94.489a2.072 2.072 0 001.458-.604 2.072 2.072 0 00.604-1.458v-38.954h-12.369v28.642zm-436.839-94.417h-18.559v12.373h18.559v-12.373zm436.833-139.043H629.8a2.061 2.061 0 00-2.062 2.062v2.061a2.062 2.062 0 002.062 2.062h35.775v66.509H629.8a2.07 2.07 0 00-1.458.603 2.083 2.083 0 00-.447.669 2.08 2.08 0 00-.157.789v2.062a2.072 2.072 0 00.604 1.458 2.051 2.051 0 001.458.604h35.775v18.815h12.373V260.839h-10.311a2.063 2.063 0 00-2.062 2.062v2.36zM548.968 416.677h3.303a2.066 2.066 0 002.062-2.062v-10.311H520.68a2.066 2.066 0 00-2.062 2.062v10.311h24.163v82.044h-24.163v12.372h38.033v-12.372h-7.683v-82.044z" fill="#CCCABC"/><path d="M437.749 424.707a47.284 47.284 0 00-33.369 13.723" stroke="#CCCABC" stroke-width=".5" stroke-linecap="round" stroke-linejoin="round"/><path d="M404.38 438.43l33.369 33.703" stroke="#CCCABC" stroke-miterlimit="10" stroke-linecap="round"/><path d="M554.336 404.309a32.877 32.877 0 019.548-23.212" stroke="#CCCABC" stroke-width=".5" stroke-linecap="round" stroke-linejoin="round"/><path d="M563.884 381.091l23.446 23.212" stroke="#CCCABC" stroke-miterlimit="10" stroke-linecap="round"/><path d="M282.355 78.557a32.894 32.894 0 019.548-23.212" stroke="#CCCABC" stroke-width=".5" stroke-linecap="round" stroke-linejoin="round"/><path d="M291.901 55.345l23.446 23.212" stroke="#CCCABC" stroke-miterlimit="10" stroke-linecap="round"/><path d="M554.336 298.398a32.881 32.881 0 019.548-23.213" stroke="#CCCABC" stroke-width=".5" stroke-linecap="round" stroke-linejoin="round"/><path d="M563.884 275.184l23.446 23.213" stroke="#CCCABC" stroke-miterlimit="10" stroke-linecap="round"/><path d="M554.336 215.468a32.881 32.881 0 019.548-23.213" stroke="#CCCABC" stroke-width=".5" stroke-linecap="round" stroke-linejoin="round"/><path d="M563.884 192.255l23.446 23.213" stroke="#CCCABC" stroke-miterlimit="10" stroke-linecap="round"/><path d="M542.783 260.835a32.896 32.896 0 01-23.215-9.548" stroke="#CCCABC" stroke-width=".5" stroke-linecap="round" stroke-linejoin="round"/><path d="M519.57 251.287l23.212-23.446" stroke="#CCCABC" stroke-miterlimit="10" stroke-linecap="round"/><path d="M677.946 260.835a32.896 32.896 0 0023.215-9.548" stroke="#CCCABC" stroke-width=".5" stroke-linecap="round" stroke-linejoin="round"/><path d="M701.163 251.287l-23.212-23.446" stroke="#CCCABC" stroke-miterlimit="10" stroke-linecap="round"/><path d="M447.03 369.576a32.88 32.88 0 0023.212-9.547" stroke="#CCCABC" stroke-width=".5" stroke-linecap="round" stroke-linejoin="round"/><path d="M470.243 360.029l-23.212-23.446" stroke="#CCCABC" stroke-miterlimit="10" stroke-linecap="round"/><path d="M483.217 416.677a35.292 35.292 0 0010.245 24.907" stroke="#CCCABC" stroke-width=".5" stroke-linecap="round" stroke-linejoin="round"/><path d="M493.464 441.585l25.159-24.908" stroke="#CCCABC" stroke-miterlimit="10" stroke-linecap="round"/><path d="M483.217 416.677a11.995 11.995 0 01-3.479 8.462" stroke="#CCCABC" stroke-width=".5" stroke-linecap="round" stroke-linejoin="round"/><path d="M479.738 425.138l-8.545-8.461" stroke="#CCCABC" stroke-miterlimit="10" stroke-linecap="round"/><path d="M446.695 149.273h-5.515v46.757h5.515v-46.757zm38.684-70.379v11.7h57.067v-11.7h-57.067zm-13.85 420.163v11.701h46.756v-11.701h-46.756zM229.077 404.64v11.701h77.688V404.64h-77.688zm-96.916 0v11.701h77.688V404.64h-77.688zm0-325.746v11.7h77.688v-11.7h-77.688zm96.916 0v11.7h46.756v-11.7h-46.756zm327.908 420.163v11.7h24.073v-11.7h-24.073zm120.626-372.714H665.91v57.067h11.701v-57.067zm0 236.948H665.91v24.073h11.701v-24.073zm0 82.37H665.91v24.074h11.701v-24.074z" stroke="#CCCABC" stroke-width=".5" stroke-miterlimit="10" stroke-linecap="round"/><path d="M474.566 452.14c.189-.558.405-.792.747-.9l.18-.063v-.288c-.63.036-1.395.045-1.962 0v.288l.198.054c.396.099.531.297.36.846l-1.233 3.951-1.458-3.987c-.243-.657-.054-.72.288-.81l.198-.054v-.288c-.81.036-1.512.036-2.349 0v.288l.189.036c.252.054.36.162.63.873l1.863 4.95c.207-.018.423-.018.63 0l1.719-4.896zm4.868 3.825l-.153-.117a1.797 1.797 0 01-1.278.549c-.882 0-1.494-.675-1.602-1.71h2.862c.018-.126.018-.27.018-.36 0-.873-.585-1.737-1.701-1.737-1.071 0-2.061.891-2.061 2.331 0 1.26.828 2.232 2.088 2.232.765 0 1.395-.351 1.827-1.188zm-3.051-1.611c0-.99.459-1.377.972-1.377.567 0 .963.414 1.053 1.287l-2.025.126v-.036zm5.539 2.457c-.531 0-1.062-.252-1.44-1.152h-.198c.009.405 0 .765-.018 1.116.315.207.909.378 1.521.378.99 0 1.71-.549 1.71-1.323 0-1.566-2.43-1.242-2.43-2.313 0-.315.207-.576.612-.576.531 0 .864.297 1.323 1.08h.225c-.036-.405-.054-.72-.054-1.089a2.797 2.797 0 00-1.368-.342c-.999 0-1.566.549-1.566 1.224 0 1.53 2.439 1.233 2.439 2.367 0 .36-.252.63-.756.63zm2.189-4.032v.342h.603v2.565c0 .927.216 1.467.981 1.467.423 0 .756-.198 1.179-.783l-.153-.153c-.162.171-.36.315-.594.315-.342 0-.504-.261-.504-.891v-2.52h1.107v-.396h-1.107v-1.269l-.225-.027c-.234.765-.54 1.26-1.287 1.35zm4.92-1.611a.613.613 0 00-.63-.621.611.611 0 00-.621.621c0 .351.27.63.621.63a.62.62 0 00.63-.63zm-1.026 4.356c0 1.098-.027 1.116-.423 1.188l-.261.054v.279a16.149 16.149 0 012.286 0v-.279l-.243-.054c-.423-.081-.45-.099-.45-1.188v-1.161c0-.441.009-1.26.036-1.728l-.072-.072c-.45.117-.864.162-1.557.162v.279l.207.027c.477.063.477.198.477 1.566v.927zm4.593 1.629c1.107 0 2.16-.828 2.16-2.412 0-1.215-.675-2.151-1.809-2.151-.621 0-1.089.243-1.404.702v-.729c0-.54.009-1.53.036-2.097l-.072-.099c-.45.144-.864.171-1.557.171v.288l.207.018c.477.045.477.261.477 1.674v4.608l.162.045.405-.459c.378.297.891.441 1.395.441zm-1.053-1.818v-1.692c.225-.297.531-.441.936-.441.81 0 1.332.72 1.332 1.962 0 1.161-.522 1.656-1.143 1.656-.558 0-1.125-.306-1.125-1.485zm8.961 1.449l-.009-.279-.315-.027c-.333-.027-.369-.144-.369-1.08v-1.026c0-.45.009-1.269.036-1.737l-.072-.072c-.45.126-.855.162-1.539.162v.279l.162.027c.504.063.504.243.504 1.566v1.224c0 .09 0 .18.009.27-.378.243-.702.387-1.143.387-.486 0-.837-.252-.837-.891v-1.08c0-.477.009-1.359.036-1.863l-.072-.081c-.441.126-.837.162-1.521.162v.288l.207.018c.441.045.441.243.441 1.575v1.071c0 1.098.621 1.476 1.377 1.476.711 0 1.179-.36 1.53-.792.027.315.081.594.135.792a6.508 6.508 0 011.44-.369zm2.118-1.242v-3.258c0-.468.009-1.341.036-1.836l-.081-.081c-.45.135-.855.171-1.557.171v.288l.207.027c.486.063.486.252.486 1.629v3.06c0 1.053-.027 1.098-.432 1.17l-.261.054v.279a17.613 17.613 0 012.286 0v-.279l-.261-.054c-.405-.072-.423-.117-.423-1.17zm5.278.423l-.153-.117a1.797 1.797 0 01-1.278.549c-.882 0-1.494-.675-1.602-1.71h2.862c.018-.126.018-.27.018-.36 0-.873-.585-1.737-1.701-1.737-1.071 0-2.061.891-2.061 2.331 0 1.26.828 2.232 2.088 2.232.765 0 1.395-.351 1.827-1.188zm-3.051-1.611c0-.99.459-1.377.972-1.377.567 0 .963.414 1.053 1.287l-2.025.126v-.036zM479.096 346.89v3.042c0 .99-.027 1.116-.36 1.17l-.324.054v.279c1.098-.054 2.457-.054 4.194 0 .063-.612.234-1.368.405-1.989l-.198-.081-.144.243c-.594 1.035-.981 1.476-1.503 1.476h-.27c-.648 0-.81-.171-.81-.999v-3.195c0-1.08.018-1.215.36-1.269l.324-.054v-.288a20.61 20.61 0 01-2.358 0v.288l.324.054c.333.054.36.189.36 1.269zm6.838 4.653c1.242 0 2.277-.891 2.277-2.268 0-1.512-1.071-2.295-2.187-2.295-1.233 0-2.268.909-2.268 2.286 0 1.512 1.062 2.277 2.178 2.277zm.27-.369c-.837 0-1.467-.945-1.467-2.241 0-.963.378-1.575 1.026-1.575.837 0 1.467.972 1.467 2.259 0 .963-.387 1.557-1.026 1.557zm5.2.369c1.107 0 2.16-.828 2.16-2.412 0-1.215-.675-2.151-1.809-2.151-.621 0-1.089.243-1.404.702v-.729c0-.54.009-1.53.036-2.097l-.072-.099c-.45.144-.864.171-1.557.171v.288l.207.018c.477.045.477.261.477 1.674v4.608l.162.045.405-.459c.378.297.891.441 1.395.441zm-1.053-1.818v-1.692c.225-.297.531-.441.936-.441.81 0 1.332.72 1.332 1.962 0 1.161-.522 1.656-1.143 1.656-.558 0-1.125-.306-1.125-1.485zm6.405 1.818c1.107 0 2.16-.828 2.16-2.412 0-1.215-.675-2.151-1.809-2.151-.621 0-1.089.243-1.404.702v-.729c0-.54.009-1.53.036-2.097l-.072-.099c-.45.144-.864.171-1.557.171v.288l.207.018c.477.045.477.261.477 1.674v4.608l.162.045.405-.459c.378.297.891.441 1.395.441zm-1.053-1.818v-1.692c.225-.297.531-.441.936-.441.81 0 1.332.72 1.332 1.962 0 1.161-.522 1.656-1.143 1.656-.558 0-1.125-.306-1.125-1.485zm6.389 1.665l1.071-2.637c.414-1.017.621-1.269.891-1.341l.144-.036v-.279c-.522.036-1.08.036-1.62 0v.279l.234.063c.297.081.342.378.027 1.224l-.684 1.827-.963-2.277c-.216-.522-.216-.693.135-.783l.225-.054v-.279c-.693.045-1.467.036-2.142 0v.279c.423.072.522.216.819.891l1.332 3.06h.279l-.027.081c-.396 1.035-.936 1.17-1.908 1.215l-.072.135c0 .333.153.675.594.675.504 0 .963-.315 1.665-2.043zm-266.839-36.059c-.441 0-1.215.054-1.917 0v.288l.324.054c.333.054.36.18.36 1.161v3.132c0 1.008-.027 1.134-.36 1.188l-.324.054v.279c.747-.036 1.674 0 2.205 0 2.178 0 3.42-1.143 3.42-3.159 0-2.007-1.458-2.997-3.708-2.997zm2.655 3.141c0 1.782-.846 2.664-2.088 2.664-.648 0-.81-.27-.81-1.071v-4.392c1.827.045 2.898.963 2.898 2.799zm3.631-2.862a.613.613 0 00-.63-.621.611.611 0 00-.621.621c0 .351.27.63.621.63a.62.62 0 00.63-.63zm-1.026 4.356c0 1.098-.027 1.116-.423 1.188l-.261.054v.279a16.149 16.149 0 012.286 0v-.279l-.243-.054c-.423-.081-.45-.099-.45-1.188v-1.161c0-.441.009-1.26.036-1.728l-.072-.072c-.45.117-.864.162-1.557.162v.279l.207.027c.477.063.477.198.477 1.566v.927zm7.473 1.242l-.252-.054c-.405-.072-.432-.108-.432-1.188v-1.449c0-1.098-.648-1.485-1.314-1.485-.774 0-1.332.414-1.692.855.009-.297.018-.594.027-.81l-.072-.072c-.45.117-.864.162-1.557.162v.279l.207.027c.468.063.477.207.477 1.575v.918c0 1.08-.027 1.116-.423 1.188l-.261.054v.279a15.896 15.896 0 012.268 0v-.279l-.243-.054c-.405-.072-.432-.108-.432-1.188v-1.152c0-.171 0-.405.009-.657a1.934 1.934 0 011.197-.441c.495 0 .9.279.9.963v1.287c0 1.08-.027 1.116-.423 1.188l-.243.045v.288a15.77 15.77 0 012.259 0v-.279zm2.28-5.598a.613.613 0 00-.63-.621.611.611 0 00-.621.621c0 .351.27.63.621.63a.62.62 0 00.63-.63zm-1.026 4.356c0 1.098-.027 1.116-.423 1.188l-.261.054v.279a16.149 16.149 0 012.286 0v-.279l-.243-.054c-.423-.081-.45-.099-.45-1.188v-1.161c0-.441.009-1.26.036-1.728l-.072-.072c-.45.117-.864.162-1.557.162v.279l.207.027c.477.063.477.198.477 1.566v.927zm7.474 1.242l-.252-.054c-.405-.072-.432-.108-.432-1.188v-1.449c0-1.098-.648-1.485-1.314-1.485-.774 0-1.332.414-1.692.855.009-.297.018-.594.027-.81l-.072-.072c-.45.117-.864.162-1.557.162v.279l.207.027c.468.063.477.207.477 1.575v.918c0 1.08-.027 1.116-.423 1.188l-.261.054v.279a15.896 15.896 0 012.268 0v-.279l-.243-.054c-.405-.072-.432-.108-.432-1.188v-1.152c0-.171 0-.405.009-.657a1.934 1.934 0 011.197-.441c.495 0 .9.279.9.963v1.287c0 1.08-.027 1.116-.423 1.188l-.243.045v.288a15.77 15.77 0 012.259 0v-.279zm4.827.63c0-.612-.495-.99-1.404-1.035l-1.242-.054c-.504-.027-.72-.18-.72-.468 0-.153.108-.315.378-.45.234.081.486.126.765.126.99 0 1.719-.666 1.719-1.494 0-.549-.333-.999-.846-1.233.324-.333.846-.414 1.287-.351l.054-.162c-.009-.36-.225-.639-.567-.639-.423 0-.675.441-.927 1.089a2.166 2.166 0 00-.783-.135c-.981 0-1.737.657-1.737 1.485 0 .522.306.954.792 1.206-.54.252-.765.567-.765.936 0 .369.252.648.702.801-.594.144-1.008.45-1.008.927 0 .585.675 1.08 1.944 1.08 1.332 0 2.358-.783 2.358-1.629zm-2.151-2.205c-.54 0-.954-.522-.954-1.296 0-.612.288-.99.738-.99.531 0 .954.567.954 1.305 0 .603-.297.981-.738.981zm-1.359 2.601c0-.288.144-.558.432-.711.144.027.297.054.468.063l1.098.054c.477.018.729.144.729.495 0 .603-.621.981-1.449.981-.774 0-1.278-.378-1.278-.882zm11.886-1.026l-.18-.045c-.261-.054-.369-.153-.639-.873l-1.872-5.049h-.135c-.315.198-.855.351-1.359.369v.243l.234.063c.171.045.243.135.243.324 0 .261-.144.738-.531 1.809l-.792 2.187c-.252.693-.477.837-.801.927l-.171.045v.279a18.315 18.315 0 011.989 0v-.279l-.189-.045c-.459-.099-.594-.27-.414-.837l.279-.846h2.16l.297.864c.243.675.108.729-.297.819l-.207.045v.279c.783-.027 1.53-.027 2.385 0v-.279zm-4.221-2.097l.927-2.835.981 2.835h-1.908zm7.06 2.097l-.378-.054c-.387-.054-.405-.162-.405-1.188v-1.386c.261-.594.576-.756.909-.756.225 0 .414.072.72.18l.135-.09a.59.59 0 00.099-.342c0-.27-.171-.567-.585-.567-.549 0-.927.423-1.287 1.251 0-.468 0-.783.018-1.179l-.072-.072c-.468.117-.837.162-1.53.162v.279l.207.027c.477.063.477.198.477 1.566v.927c0 1.044-.018 1.143-.36 1.188l-.324.054v.279a17.44 17.44 0 012.376 0v-.279zm5.549-.801l-.153-.117a1.797 1.797 0 01-1.278.549c-.882 0-1.494-.675-1.602-1.71h2.862c.018-.126.018-.27.018-.36 0-.873-.585-1.737-1.701-1.737-1.071 0-2.061.891-2.061 2.331 0 1.26.828 2.232 2.088 2.232.765 0 1.395-.351 1.827-1.188zm-3.051-1.611c0-.99.459-1.377.972-1.377.567 0 .963.414 1.053 1.287l-2.025.126v-.036zm8.113 2.16l-.126-.135c-.153.144-.297.207-.45.207-.189 0-.243-.099-.243-.414v-1.998c0-1.044-.441-1.584-1.413-1.584-.882 0-1.809.693-1.809 1.278 0 .315.27.414.612.423l.153-.045c-.072-.882.18-1.278.666-1.278.585 0 .882.567.882 1.413v.27l-1.134.117c-.927.099-1.422.531-1.422 1.233 0 .693.513 1.152 1.287 1.152.666 0 1.017-.261 1.305-.666v.027c0 .432.261.639.621.639.396 0 .738-.198 1.071-.639zm-2.547.081c-.495 0-.846-.333-.846-.819 0-.504.297-.765 1.008-.765h.657v1.242c-.216.243-.513.342-.819.342zM176.882 161.832c.774 0 1.287.342 1.773 1.35l.198.405.234-.054a14.17 14.17 0 01-.135-1.656c-.405-.279-.99-.468-1.692-.468-1.809 0-3.006 1.287-3.006 3.114 0 2.043 1.404 3.258 3.231 3.258.666 0 1.206-.126 1.629-.378.081-.603.144-1.125.261-1.737l-.225-.063-.153.324c-.54 1.152-.846 1.458-1.458 1.458-1.224 0-2.232-1.467-2.232-3.393 0-1.35.657-2.16 1.575-2.16zm8.548 5.562l-.252-.054c-.405-.072-.432-.099-.432-1.188v-1.449c0-1.098-.648-1.485-1.305-1.485-.783 0-1.341.414-1.701.855v-1.161c0-.468.009-1.341.036-1.836l-.081-.081c-.45.135-.855.171-1.557.171v.288l.207.027c.477.063.486.225.486 1.665v3.006c0 1.08-.027 1.116-.432 1.188l-.261.054v.279c.756-.054 1.53-.054 2.268 0v-.279l-.243-.054c-.405-.072-.423-.099-.423-1.188v-1.809a1.934 1.934 0 011.197-.441c.495 0 .9.279.9.963v1.287c0 1.08-.027 1.116-.423 1.188l-.243.045v.288a15.77 15.77 0 012.259 0v-.279zm2.281-5.598a.613.613 0 00-.63-.621.611.611 0 00-.621.621c0 .351.27.63.621.63a.62.62 0 00.63-.63zm-1.026 4.356c0 1.098-.027 1.116-.423 1.188l-.261.054v.279a16.149 16.149 0 012.286 0v-.279l-.243-.054c-.423-.081-.45-.099-.45-1.188v-1.161c0-.441.009-1.26.036-1.728l-.072-.072c-.45.117-.864.162-1.557.162v.279l.207.027c.477.063.477.198.477 1.566v.927zm3.738.018v-3.258c0-.468.009-1.341.036-1.836l-.081-.081c-.45.135-.855.171-1.557.171v.288l.207.027c.486.063.486.252.486 1.629v3.06c0 1.053-.027 1.098-.432 1.17l-.261.054v.279a17.613 17.613 0 012.286 0v-.279l-.261-.054c-.405-.072-.423-.117-.423-1.17zm2.822 0v-3.258c0-.468.009-1.341.036-1.836l-.081-.081c-.45.135-.855.171-1.557.171v.288l.207.027c.486.063.486.252.486 1.629v3.06c0 1.053-.027 1.098-.432 1.17l-.261.054v.279a17.613 17.613 0 012.286 0v-.279l-.261-.054c-.405-.072-.423-.117-.423-1.17zm3.541 1.611c1.242 0 2.277-.891 2.277-2.268 0-1.512-1.071-2.295-2.187-2.295-1.233 0-2.268.909-2.268 2.286 0 1.512 1.062 2.277 2.178 2.277zm.27-.369c-.837 0-1.467-.945-1.467-2.241 0-.963.378-1.575 1.026-1.575.837 0 1.467.972 1.467 2.259 0 .963-.387 1.557-1.026 1.557zm7.756 0l-.009-.279-.315-.027c-.333-.027-.369-.144-.369-1.08V165c0-.45.009-1.269.036-1.737l-.072-.072c-.45.126-.855.162-1.539.162v.279l.162.027c.504.063.504.243.504 1.566v1.224c0 .09 0 .18.009.27-.378.243-.702.387-1.143.387-.486 0-.837-.252-.837-.891v-1.08c0-.477.009-1.359.036-1.863l-.072-.081c-.441.126-.837.162-1.521.162v.288l.207.018c.441.045.441.243.441 1.575v1.071c0 1.098.621 1.476 1.377 1.476.711 0 1.179-.36 1.53-.792.027.315.081.594.135.792a6.508 6.508 0 011.44-.369zm.497-4.005v.342h.603v2.565c0 .927.216 1.467.981 1.467.423 0 .756-.198 1.179-.783l-.153-.153c-.162.171-.36.315-.594.315-.342 0-.504-.261-.504-.891v-2.52h1.107v-.396h-1.107v-1.269l-.225-.027c-.234.765-.54 1.26-1.287 1.35zm11.009 3.987l-.18-.045c-.261-.054-.369-.153-.639-.873l-1.872-5.049h-.135c-.315.198-.855.351-1.359.369v.243l.234.063c.171.045.243.135.243.324 0 .261-.144.738-.531 1.809l-.792 2.187c-.252.693-.477.837-.801.927l-.171.045v.279a18.315 18.315 0 011.989 0v-.279l-.189-.045c-.459-.099-.594-.27-.414-.837l.279-.846h2.16l.297.864c.243.675.108.729-.297.819l-.207.045v.279c.783-.027 1.53-.027 2.385 0v-.279zm-4.221-2.097l.927-2.835.981 2.835h-1.908zm7.059 2.097l-.378-.054c-.387-.054-.405-.162-.405-1.188v-1.386c.261-.594.576-.756.909-.756.225 0 .414.072.72.18l.135-.09a.59.59 0 00.099-.342c0-.27-.171-.567-.585-.567-.549 0-.927.423-1.287 1.251 0-.468 0-.783.018-1.179l-.072-.072c-.468.117-.837.162-1.53.162v.279l.207.027c.477.063.477.198.477 1.566v.927c0 1.044-.018 1.143-.36 1.188l-.324.054v.279a17.44 17.44 0 012.376 0v-.279zm5.55-.801l-.153-.117a1.797 1.797 0 01-1.278.549c-.882 0-1.494-.675-1.602-1.71h2.862c.018-.126.018-.27.018-.36 0-.873-.585-1.737-1.701-1.737-1.071 0-2.061.891-2.061 2.331 0 1.26.828 2.232 2.088 2.232.765 0 1.395-.351 1.827-1.188zm-3.051-1.611c0-.99.459-1.377.972-1.377.567 0 .963.414 1.053 1.287l-2.025.126v-.036zm8.113 2.16l-.126-.135c-.153.144-.297.207-.45.207-.189 0-.243-.099-.243-.414v-1.998c0-1.044-.441-1.584-1.413-1.584-.882 0-1.809.693-1.809 1.278 0 .315.27.414.612.423l.153-.045c-.072-.882.18-1.278.666-1.278.585 0 .882.567.882 1.413v.27l-1.134.117c-.927.099-1.422.531-1.422 1.233 0 .693.513 1.152 1.287 1.152.666 0 1.017-.261 1.305-.666v.027c0 .432.261.639.621.639.396 0 .738-.198 1.071-.639zm-2.547.081c-.495 0-.846-.333-.846-.819 0-.504.297-.765 1.008-.765h.657v1.242c-.216.243-.513.342-.819.342zm123.769-1.368c0-.792-.567-1.35-1.692-1.503.99-.252 1.305-.765 1.305-1.377 0-1.089-1.089-1.458-2.493-1.458-.675 0-1.233.036-1.908 0v.288l.324.054c.333.054.36.189.36 1.251v2.979c0 1.062-.027 1.188-.36 1.242l-.324.063v.279c.693-.045 1.431 0 2.115 0 1.746 0 2.673-.738 2.673-1.818zm-2.745-1.566h-.369v-2.412c1.116 0 1.71.396 1.71 1.197s-.558 1.215-1.341 1.215zm.36 3.042c-.549 0-.729-.18-.729-.837v-1.872h.423c.972 0 1.647.486 1.647 1.341 0 .882-.486 1.368-1.341 1.368zm7.656-.189l-.126-.135c-.153.144-.297.207-.45.207-.189 0-.243-.099-.243-.414v-1.998c0-1.044-.441-1.584-1.413-1.584-.882 0-1.809.693-1.809 1.278 0 .315.27.414.612.423l.153-.045c-.072-.882.18-1.278.666-1.278.585 0 .882.567.882 1.413v.27l-1.134.117c-.927.099-1.422.531-1.422 1.233 0 .693.513 1.152 1.287 1.152.666 0 1.017-.261 1.305-.666v.027c0 .432.261.639.621.639.396 0 .738-.198 1.071-.639zm-2.547.081c-.495 0-.846-.333-.846-.819 0-.504.297-.765 1.008-.765h.657v1.242c-.216.243-.513.342-.819.342zm5.365.171l-.378-.054c-.387-.054-.405-.162-.405-1.188v-1.386c.261-.594.576-.756.909-.756.225 0 .414.072.72.18l.135-.09a.59.59 0 00.099-.342c0-.27-.171-.567-.585-.567-.549 0-.927.423-1.287 1.251 0-.468 0-.783.018-1.179l-.072-.072c-.468.117-.837.162-1.53.162v.279l.207.027c.477.063.477.198.477 1.566v.927c0 1.044-.018 1.143-.36 1.188l-.324.054v.279a17.44 17.44 0 012.376 0v-.279zm9.466 0l-.18-.045c-.261-.054-.369-.153-.639-.873l-1.872-5.049h-.135c-.315.198-.855.351-1.359.369v.243l.234.063c.171.045.243.135.243.324 0 .261-.144.738-.531 1.809l-.792 2.187c-.252.693-.477.837-.801.927l-.171.045v.279a18.315 18.315 0 011.989 0v-.279l-.189-.045c-.459-.099-.594-.27-.414-.837l.279-.846h2.16l.297.864c.243.675.108.729-.297.819l-.207.045v.279c.783-.027 1.53-.027 2.385 0v-.279zm-4.221-2.097l.927-2.835.981 2.835h-1.908zm7.06 2.097l-.378-.054c-.387-.054-.405-.162-.405-1.188v-1.386c.261-.594.576-.756.909-.756.225 0 .414.072.72.18l.135-.09a.59.59 0 00.099-.342c0-.27-.171-.567-.585-.567-.549 0-.927.423-1.287 1.251 0-.468 0-.783.018-1.179l-.072-.072c-.468.117-.837.162-1.53.162v.279l.207.027c.477.063.477.198.477 1.566v.927c0 1.044-.018 1.143-.36 1.188l-.324.054v.279a17.44 17.44 0 012.376 0v-.279zm5.549-.801l-.153-.117a1.797 1.797 0 01-1.278.549c-.882 0-1.494-.675-1.602-1.71h2.862c.018-.126.018-.27.018-.36 0-.873-.585-1.737-1.701-1.737-1.071 0-2.061.891-2.061 2.331 0 1.26.828 2.232 2.088 2.232.765 0 1.395-.351 1.827-1.188zm-3.051-1.611c0-.99.459-1.377.972-1.377.567 0 .963.414 1.053 1.287l-2.025.126v-.036zm8.113 2.16l-.126-.135c-.153.144-.297.207-.45.207-.189 0-.243-.099-.243-.414v-1.998c0-1.044-.441-1.584-1.413-1.584-.882 0-1.809.693-1.809 1.278 0 .315.27.414.612.423l.153-.045c-.072-.882.18-1.278.666-1.278.585 0 .882.567.882 1.413v.27l-1.134.117c-.927.099-1.422.531-1.422 1.233 0 .693.513 1.152 1.287 1.152.666 0 1.017-.261 1.305-.666v.027c0 .432.261.639.621.639.396 0 .738-.198 1.071-.639zm-2.547.081c-.495 0-.846-.333-.846-.819 0-.504.297-.765 1.008-.765h.657v1.242c-.216.243-.513.342-.819.342zM49.19 41.994l-.324-.054c-.342-.054-.36-.19-.36-1.251v-4.212c1.16.018 1.719.405 1.719 1.25 0 .838-.432 1.225-1.557 1.513l2.097 3.024c.45-.018.999-.018 1.449 0v-.28l-.207-.053c-.297-.063-.36-.108-.882-.82l-1.422-1.943c.999-.243 1.548-.747 1.548-1.494 0-1.08-.981-1.557-2.538-1.557-.567 0-1.08.054-1.881 0v.288l.324.054c.342.054.36.189.36 1.269v2.96c0 1.054-.018 1.198-.36 1.252l-.324.054v.279a17.17 17.17 0 012.358 0v-.28zm5.22-5.598a.613.613 0 00-.63-.621.611.611 0 00-.62.62c0 .352.27.63.62.63a.62.62 0 00.63-.63zm-1.026 4.356c0 1.098-.027 1.116-.423 1.188l-.26.054v.279a16.149 16.149 0 012.285 0v-.28l-.243-.053c-.423-.081-.45-.1-.45-1.188V39.59c0-.441.01-1.26.036-1.728l-.072-.072c-.45.117-.864.162-1.557.162v.279l.207.027c.477.063.477.198.477 1.566v.927zm5.737-1.134c.378-.99.648-1.287.909-1.36l.144-.044v-.28c-.558.037-1.125.037-1.674 0v.28l.216.054c.333.08.333.504.063 1.278l-.666 1.89-.972-2.376c-.234-.567-.153-.711.117-.783l.243-.063v-.28c-.675.046-1.512.037-2.178 0v.28l.216.054c.26.054.333.234.603.846l1.368 3.15c.198-.018.396-.018.585 0l1.026-2.646zm5.38 1.575l-.153-.117a1.797 1.797 0 01-1.277.549c-.883 0-1.494-.675-1.602-1.71h2.861c.019-.126.019-.27.019-.36 0-.873-.586-1.737-1.702-1.737-1.07 0-2.06.89-2.06 2.33 0 1.26.827 2.233 2.087 2.233.766 0 1.396-.351 1.827-1.188zm-3.05-1.611c0-.99.459-1.377.971-1.377.568 0 .964.414 1.053 1.287l-2.025.126v-.036zm6.106 2.412l-.378-.054c-.387-.054-.405-.162-.405-1.188v-1.386c.26-.594.576-.756.909-.756.225 0 .414.072.72.18l.135-.09a.59.59 0 00.099-.342c0-.27-.171-.567-.585-.567-.55 0-.927.423-1.287 1.25 0-.467 0-.782.018-1.178l-.072-.072c-.468.117-.837.162-1.53.162v.279l.207.027c.477.063.477.198.477 1.566v.927c0 1.044-.018 1.143-.36 1.188l-.324.054v.279a17.44 17.44 0 012.376 0v-.28zm1.712-2.223h2.349v-.684h-2.35v.684zm6.639-.153c.378-.99.648-1.287.909-1.36l.144-.044v-.28c-.558.037-1.125.037-1.674 0v.28l.216.054c.333.08.333.504.063 1.278l-.666 1.89-.972-2.376c-.234-.567-.153-.711.117-.783l.243-.063v-.28c-.675.046-1.512.037-2.178 0v.28l.216.054c.26.054.333.234.603.846l1.368 3.15c.198-.018.396-.018.585 0l1.026-2.646zm3.209-3.222a.613.613 0 00-.63-.621.611.611 0 00-.621.62c0 .352.27.63.62.63a.62.62 0 00.63-.63zm-1.026 4.356c0 1.098-.027 1.116-.423 1.188l-.262.054v.279a16.149 16.149 0 012.286 0v-.28l-.242-.053c-.424-.081-.45-.1-.45-1.188V39.59c0-.441.008-1.26.035-1.728l-.072-.072c-.45.117-.863.162-1.556.162v.279l.207.027c.477.063.477.198.477 1.566v.927zm6.195.44l-.153-.116a1.797 1.797 0 01-1.278.549c-.882 0-1.494-.675-1.602-1.71h2.862c.018-.126.018-.27.018-.36 0-.873-.585-1.737-1.701-1.737-1.071 0-2.061.89-2.061 2.33 0 1.26.828 2.233 2.088 2.233.765 0 1.395-.351 1.827-1.188zm-3.051-1.61c0-.99.459-1.377.972-1.377.567 0 .963.414 1.053 1.287l-2.025.126v-.036zm9.736-.036c.37-.936.594-1.197.864-1.287l.144-.045v-.28c-.549.037-1.116.037-1.674 0v.28l.216.054c.387.099.378.414.108 1.197l-.684 1.98-.846-2.43c-.198-.576-.17-.648.18-.747l.198-.054v-.28a17.04 17.04 0 01-2.034 0v.28l.207.054c.216.054.288.189.513.792l-.873 2.385-.9-2.403c-.207-.558-.162-.711.135-.774l.216-.054v-.28c-.684.046-1.485.037-2.15 0v.28l.215.045c.261.054.36.243.603.837l1.287 3.168a2.89 2.89 0 01.558 0l1.062-2.772 1.053 2.772c.171-.018.351-.018.54 0l1.062-2.718zm5.655 1.125c0 1.08-.018 1.215-.36 1.269l-.333.054v.279a20.926 20.926 0 012.376 0v-.28l-.333-.053c-.342-.054-.36-.19-.36-1.27v-4.23h.603c.46 0 .82.334 1.188 1.315l.162.432.225-.036a26.047 26.047 0 01-.144-2.034c-2.097.045-2.97.045-5.049 0a22.327 22.327 0 01-.153 2.034l.234.036.162-.432c.36-.963.693-1.314 1.17-1.314h.612v4.23zm7.558.522l-.153-.117a1.797 1.797 0 01-1.278.549c-.882 0-1.494-.675-1.602-1.71h2.862c.018-.126.018-.27.018-.36 0-.873-.585-1.737-1.701-1.737-1.071 0-2.061.89-2.061 2.33 0 1.26.828 2.233 2.088 2.233.765 0 1.395-.351 1.827-1.188zm-3.051-1.611c0-.99.459-1.377.972-1.377.567 0 .963.414 1.053 1.287l-2.025.126v-.036zm6.106 2.412l-.378-.054c-.387-.054-.405-.162-.405-1.188v-1.386c.261-.594.576-.756.909-.756.225 0 .414.072.72.18l.135-.09a.59.59 0 00.099-.342c0-.27-.171-.567-.585-.567-.549 0-.927.423-1.287 1.25 0-.467 0-.782.018-1.178l-.072-.072c-.468.117-.837.162-1.53.162v.279l.207.027c.477.063.477.198.477 1.566v.927c0 1.044-.018 1.143-.36 1.188l-.324.054v.279a17.44 17.44 0 012.376 0v-.28zm4.043 0l-.378-.054c-.387-.054-.405-.162-.405-1.188v-1.386c.261-.594.576-.756.909-.756.225 0 .414.072.72.18l.135-.09a.59.59 0 00.099-.342c0-.27-.171-.567-.585-.567-.549 0-.927.423-1.287 1.25 0-.467 0-.782.018-1.178l-.072-.072c-.468.117-.837.162-1.53.162v.279l.207.027c.477.063.477.198.477 1.566v.927c0 1.044-.018 1.143-.36 1.188l-.324.054v.279a17.44 17.44 0 012.376 0v-.28zm5.875-.252l-.126-.135c-.153.144-.297.207-.45.207-.189 0-.243-.1-.243-.414v-1.998c0-1.044-.441-1.584-1.413-1.584-.882 0-1.809.693-1.809 1.278 0 .315.27.414.612.423l.153-.045c-.072-.882.18-1.278.666-1.278.585 0 .882.567.882 1.413v.27l-1.134.117c-.927.099-1.422.53-1.422 1.233 0 .693.513 1.152 1.287 1.152.666 0 1.017-.261 1.305-.666v.027c0 .432.261.639.621.639.396 0 .738-.198 1.071-.64zm-2.547.08c-.495 0-.846-.332-.846-.818 0-.504.297-.765 1.008-.765h.657v1.242c-.216.243-.513.342-.819.342zm4.924-3.626c.585 0 .9.432 1.134 1.215l.144.054c.306-.036.513-.207.513-.531 0-.531-.621-1.116-1.548-1.116-1.089 0-2.079.89-2.079 2.33 0 1.306.873 2.233 2.079 2.233.711 0 1.323-.396 1.728-1.215l-.144-.117c-.342.414-.729.585-1.143.585-.981 0-1.647-.774-1.647-2.106 0-.864.405-1.332.963-1.332zm6.561 2.997l-.153-.117a1.797 1.797 0 01-1.278.549c-.882 0-1.494-.675-1.602-1.71h2.862c.018-.126.018-.27.018-.36 0-.873-.585-1.737-1.701-1.737-1.071 0-2.061.89-2.061 2.33 0 1.26.828 2.233 2.088 2.233.765 0 1.395-.351 1.827-1.188zm-3.051-1.611c0-.99.459-1.377.972-1.377.567 0 .963.414 1.053 1.287l-2.025.126v-.036zm11.89-.036c.369-.936.594-1.197.864-1.287l.144-.045v-.28c-.549.037-1.116.037-1.674 0v.28l.216.054c.387.099.378.414.108 1.197l-.684 1.98-.846-2.43c-.198-.576-.171-.648.18-.747l.198-.054v-.28a17.04 17.04 0 01-2.034 0v.28l.207.054c.216.054.288.189.513.792l-.873 2.385-.9-2.403c-.207-.558-.162-.711.135-.774l.216-.054v-.28c-.684.046-1.485.037-2.151 0v.28l.216.045c.261.054.36.243.603.837l1.287 3.168a2.89 2.89 0 01.558 0l1.062-2.772 1.053 2.772c.171-.018.351-.018.54 0l1.062-2.718zm3.166-3.15a.613.613 0 00-.63-.621.611.611 0 00-.621.62c0 .352.27.63.621.63a.62.62 0 00.63-.63zm-1.026 4.356c0 1.098-.027 1.116-.423 1.188l-.261.054v.279a16.149 16.149 0 012.286 0v-.28l-.243-.053c-.423-.081-.45-.1-.45-1.188V39.59c0-.441.009-1.26.036-1.728l-.072-.072c-.45.117-.864.162-1.557.162v.279l.207.027c.477.063.477.198.477 1.566v.927zm2.118-2.745v.342h.603v2.565c0 .927.216 1.467.981 1.467.423 0 .756-.198 1.179-.783l-.153-.153c-.162.17-.36.315-.594.315-.342 0-.504-.261-.504-.891v-2.52h1.107v-.396h-1.107v-1.27l-.225-.026c-.234.765-.54 1.26-1.287 1.35zm8.457 3.987l-.252-.054c-.405-.072-.432-.1-.432-1.188v-1.45c0-1.097-.648-1.484-1.305-1.484-.783 0-1.341.414-1.701.855v-1.161c0-.468.009-1.341.036-1.836l-.081-.081c-.45.135-.855.17-1.557.17v.289l.207.027c.477.063.486.225.486 1.665v3.006c0 1.08-.027 1.116-.432 1.188l-.261.054v.279c.756-.054 1.53-.054 2.268 0v-.28l-.243-.053c-.405-.072-.423-.1-.423-1.188v-1.81a1.934 1.934 0 011.197-.44c.495 0 .9.279.9.963v1.287c0 1.08-.027 1.116-.423 1.188l-.243.045v.288a15.77 15.77 0 012.259 0v-.28zm7.479-1.54c0-.791-.567-1.35-1.692-1.502.99-.252 1.305-.765 1.305-1.377 0-1.09-1.089-1.458-2.493-1.458-.675 0-1.233.036-1.908 0v.288l.324.054c.333.054.36.189.36 1.25v2.98c0 1.062-.027 1.188-.36 1.242l-.324.063v.279c.693-.045 1.431 0 2.115 0 1.746 0 2.673-.738 2.673-1.818zm-2.745-1.565h-.369v-2.412c1.116 0 1.71.396 1.71 1.197 0 .8-.558 1.215-1.341 1.215zm.36 3.042c-.549 0-.729-.18-.729-.837v-1.872h.423c.972 0 1.647.486 1.647 1.34 0 .883-.486 1.369-1.341 1.369zm8.16-1.476c0-.792-.567-1.35-1.692-1.503.99-.252 1.305-.765 1.305-1.377 0-1.09-1.089-1.458-2.493-1.458-.675 0-1.233.036-1.908 0v.288l.324.054c.333.054.36.189.36 1.25v2.98c0 1.062-.027 1.188-.36 1.242l-.324.063v.279c.693-.045 1.431 0 2.115 0 1.746 0 2.673-.738 2.673-1.818zm-2.745-1.566h-.369v-2.412c1.116 0 1.71.396 1.71 1.197 0 .8-.558 1.215-1.341 1.215zm.36 3.042c-.549 0-.729-.18-.729-.837v-1.872h.423c.972 0 1.647.486 1.647 1.34 0 .883-.486 1.369-1.341 1.369zm8.996 1.665l.027-.117c-.621-.576-1.503-.891-3.051-.495l1.647-.792c1.125-.54 1.881-1.467 1.881-2.98 0-1.925-1.404-3.203-3.015-3.203-1.728 0-3.033 1.278-3.033 3.168 0 1.935 1.404 3.204 3.015 3.204h.144l-1.539.738.099.279c.486-.135.801-.216 1.242-.216.756 0 1.161.405 1.539 1.089.252-.288.666-.54 1.044-.675zm-.549-3.951c0 1.476-.684 2.34-1.692 2.34-1.242 0-2.25-1.296-2.25-3.24 0-1.458.684-2.331 1.692-2.331 1.242 0 2.25 1.296 2.25 3.23zm332.867 110.253a18.912 18.912 0 012.475 0v-.279l-.405-.054c-.378-.063-.396-.189-.396-1.251v-.801c1.926 0 2.898-.747 2.898-1.989s-1.026-1.782-2.673-1.782c-.576 0-1.098.054-1.899 0v.288l.324.054c.342.054.36.189.36 1.269v2.961c0 1.053-.018 1.197-.36 1.251l-.324.054v.279zm1.674-5.796c1.269.018 1.872.531 1.872 1.548 0 .999-.603 1.494-1.872 1.503v-3.051zm6.14 5.517l-.378-.054c-.387-.054-.405-.162-.405-1.188v-1.386c.261-.594.576-.756.909-.756.225 0 .414.072.72.18l.135-.09a.59.59 0 00.099-.342c0-.27-.171-.567-.585-.567-.549 0-.927.423-1.287 1.251 0-.468 0-.783.018-1.179l-.072-.072c-.468.117-.837.162-1.53.162v.279l.207.027c.477.063.477.198.477 1.566v.927c0 1.044-.018 1.143-.36 1.188l-.324.054v.279a17.44 17.44 0 012.376 0v-.279zm3.812.387c1.242 0 2.277-.891 2.277-2.268 0-1.512-1.071-2.295-2.187-2.295-1.233 0-2.268.909-2.268 2.286 0 1.512 1.062 2.277 2.178 2.277zm.27-.369c-.837 0-1.467-.945-1.467-2.241 0-.963.378-1.575 1.026-1.575.837 0 1.467.972 1.467 2.259 0 .963-.387 1.557-1.026 1.557zm5.308-.018l-.378-.063c-.531-.099-.576-.198-.576-1.269v-2.313h1.089v-.396h-1.089v-.918c0-.747.171-1.08.495-1.08.342 0 .504.315.729.9l.144.045c.243-.018.441-.153.441-.45 0-.351-.459-.81-1.161-.81-.927 0-1.557.801-1.557 2.052v.261l-.576.054v.342h.576v2.313c0 1.089-.018 1.215-.36 1.278l-.324.054v.279a21.86 21.86 0 012.547 0v-.279zm4.719-.801l-.153-.117a1.797 1.797 0 01-1.278.549c-.882 0-1.494-.675-1.602-1.71h2.862c.018-.126.018-.27.018-.36 0-.873-.585-1.737-1.701-1.737-1.071 0-2.061.891-2.061 2.331 0 1.26.828 2.232 2.088 2.232.765 0 1.395-.351 1.827-1.188zm-3.051-1.611c0-.99.459-1.377.972-1.377.567 0 .963.414 1.053 1.287l-2.025.126v-.036zm5.54 2.457c-.531 0-1.062-.252-1.44-1.152h-.198c.009.405 0 .765-.018 1.116.315.207.909.378 1.521.378.99 0 1.71-.549 1.71-1.323 0-1.566-2.43-1.242-2.43-2.313 0-.315.207-.576.612-.576.531 0 .864.297 1.323 1.08h.225c-.036-.405-.054-.72-.054-1.089a2.797 2.797 0 00-1.368-.342c-.999 0-1.566.549-1.566 1.224 0 1.53 2.439 1.233 2.439 2.367 0 .36-.252.63-.756.63zm4.06 0c-.531 0-1.062-.252-1.44-1.152h-.198c.009.405 0 .765-.018 1.116.315.207.909.378 1.521.378.99 0 1.71-.549 1.71-1.323 0-1.566-2.43-1.242-2.43-2.313 0-.315.207-.576.612-.576.531 0 .864.297 1.323 1.08h.225c-.036-.405-.054-.72-.054-1.089a2.797 2.797 0 00-1.368-.342c-.999 0-1.566.549-1.566 1.224 0 1.53 2.439 1.233 2.439 2.367 0 .36-.252.63-.756.63zm3.962-5.643a.613.613 0 00-.63-.621.611.611 0 00-.621.621c0 .351.27.63.621.63a.62.62 0 00.63-.63zm-1.026 4.356c0 1.098-.027 1.116-.423 1.188l-.261.054v.279a16.149 16.149 0 012.286 0v-.279l-.243-.054c-.423-.081-.45-.099-.45-1.188v-1.161c0-.441.009-1.26.036-1.728l-.072-.072c-.45.117-.864.162-1.557.162v.279l.207.027c.477.063.477.198.477 1.566v.927zm4.458 1.629c1.242 0 2.277-.891 2.277-2.268 0-1.512-1.071-2.295-2.187-2.295-1.233 0-2.268.909-2.268 2.286 0 1.512 1.062 2.277 2.178 2.277zm.27-.369c-.837 0-1.467-.945-1.467-2.241 0-.963.378-1.575 1.026-1.575.837 0 1.467.972 1.467 2.259 0 .963-.387 1.557-1.026 1.557zm8.08-.018l-.252-.054c-.405-.072-.432-.108-.432-1.188v-1.449c0-1.098-.648-1.485-1.314-1.485-.774 0-1.332.414-1.692.855.009-.297.018-.594.027-.81l-.072-.072c-.45.117-.864.162-1.557.162v.279l.207.027c.468.063.477.207.477 1.575v.918c0 1.08-.027 1.116-.423 1.188l-.261.054v.279a15.896 15.896 0 012.268 0v-.279l-.243-.054c-.405-.072-.432-.108-.432-1.188v-1.152c0-.171 0-.405.009-.657a1.934 1.934 0 011.197-.441c.495 0 .9.279.9.963v1.287c0 1.08-.027 1.116-.423 1.188l-.243.045v.288a15.77 15.77 0 012.259 0v-.279zm4.953-.252l-.126-.135c-.153.144-.297.207-.45.207-.189 0-.243-.099-.243-.414v-1.998c0-1.044-.441-1.584-1.413-1.584-.882 0-1.809.693-1.809 1.278 0 .315.27.414.612.423l.153-.045c-.072-.882.18-1.278.666-1.278.585 0 .882.567.882 1.413v.27l-1.134.117c-.927.099-1.422.531-1.422 1.233 0 .693.513 1.152 1.287 1.152.666 0 1.017-.261 1.305-.666v.027c0 .432.261.639.621.639.396 0 .738-.198 1.071-.639zm-2.547.081c-.495 0-.846-.333-.846-.819 0-.504.297-.765 1.008-.765h.657v1.242c-.216.243-.513.342-.819.342zm4.547-1.053v-3.258c0-.468.009-1.341.036-1.836l-.081-.081c-.45.135-.855.171-1.557.171v.288l.207.027c.486.063.486.252.486 1.629v3.06c0 1.053-.027 1.098-.432 1.17l-.261.054v.279a17.613 17.613 0 012.286 0v-.279l-.261-.054c-.405-.072-.423-.117-.423-1.17zm5.058-3.042c0-1.08.018-1.215.36-1.269l.324-.054v-.288a20.61 20.61 0 01-2.358 0v.288l.324.054c.333.054.36.189.36 1.269v2.97c0 1.062-.027 1.188-.36 1.242l-.324.054v.279a20.61 20.61 0 012.358 0v-.279l-.324-.054c-.342-.054-.36-.18-.36-1.242v-2.97zm4.257 4.266l-.189-.027c-.27-.036-.477-.18-1.125-.954l-1.926-2.331.999-1.017c.909-.9 1.35-1.179 1.737-1.251l.189-.036v-.261c-.81.054-1.476.054-2.232 0v.261l.189.036c.333.063.468.342-.135.981l-1.62 1.728 2.547 3.15a11.365 11.365 0 011.566 0v-.279zm2.167-5.598a.613.613 0 00-.63-.621.611.611 0 00-.621.621c0 .351.27.63.621.63a.62.62 0 00.63-.63zm-1.026 4.356c0 1.098-.027 1.116-.423 1.188l-.261.054v.279a16.149 16.149 0 012.286 0v-.279l-.243-.054c-.423-.081-.45-.099-.45-1.188v-1.161c0-.441.009-1.26.036-1.728l-.072-.072c-.45.117-.864.162-1.557.162v.279l.207.027c.477.063.477.198.477 1.566v.927zm2.118-2.745v.342h.603v2.565c0 .927.216 1.467.981 1.467.423 0 .756-.198 1.179-.783l-.153-.153c-.162.171-.36.315-.594.315-.342 0-.504-.261-.504-.891v-2.52h1.107v-.396h-1.107v-1.269l-.225-.027c-.234.765-.54 1.26-1.287 1.35zm5.144.189c.585 0 .9.432 1.134 1.215l.144.054c.306-.036.513-.207.513-.531 0-.531-.621-1.116-1.548-1.116-1.089 0-2.079.891-2.079 2.331 0 1.305.873 2.232 2.079 2.232.711 0 1.323-.396 1.728-1.215l-.144-.117c-.342.414-.729.585-1.143.585-.981 0-1.647-.774-1.647-2.106 0-.864.405-1.332.963-1.332zm7.795 3.798l-.252-.054c-.405-.072-.432-.099-.432-1.188v-1.449c0-1.098-.648-1.485-1.305-1.485-.783 0-1.341.414-1.701.855v-1.161c0-.468.009-1.341.036-1.836l-.081-.081c-.45.135-.855.171-1.557.171v.288l.207.027c.477.063.486.225.486 1.665v3.006c0 1.08-.027 1.116-.432 1.188l-.261.054v.279c.756-.054 1.53-.054 2.268 0v-.279l-.243-.054c-.405-.072-.423-.099-.423-1.188v-1.809a1.934 1.934 0 011.197-.441c.495 0 .9.279.9.963v1.287c0 1.08-.027 1.116-.423 1.188l-.243.045v.288a15.77 15.77 0 012.259 0v-.279zm4.585-.801l-.153-.117a1.797 1.797 0 01-1.278.549c-.882 0-1.494-.675-1.602-1.71h2.862c.018-.126.018-.27.018-.36 0-.873-.585-1.737-1.701-1.737-1.071 0-2.061.891-2.061 2.331 0 1.26.828 2.232 2.088 2.232.765 0 1.395-.351 1.827-1.188zm-3.051-1.611c0-.99.459-1.377.972-1.377.567 0 .963.414 1.053 1.287l-2.025.126v-.036zm9.023 2.412l-.252-.054c-.405-.072-.432-.108-.432-1.188v-1.449c0-1.098-.648-1.485-1.314-1.485-.774 0-1.332.414-1.692.855.009-.297.018-.594.027-.81l-.072-.072c-.45.117-.864.162-1.557.162v.279l.207.027c.468.063.477.207.477 1.575v.918c0 1.08-.027 1.116-.423 1.188l-.261.054v.279a15.896 15.896 0 012.268 0v-.279l-.243-.054c-.405-.072-.432-.108-.432-1.188v-1.152c0-.171 0-.405.009-.657a1.934 1.934 0 011.197-.441c.495 0 .9.279.9.963v1.287c0 1.08-.027 1.116-.423 1.188l-.243.045v.288a15.77 15.77 0 012.259 0v-.279zM481.221 262.13c-.872 0-1.376-.584-1.576-1.624l-.216.048c.008.496.008 1.096-.016 1.448.36.272.928.448 1.656.448 1.328 0 1.992-.664 1.992-1.576 0-1.896-2.88-1.504-2.88-2.912 0-.488.344-.864.912-.864.672 0 1.072.48 1.336 1.432l.216-.048c-.008-.44 0-.904.024-1.248-.368-.272-.888-.456-1.496-.456-1.152 0-1.792.68-1.792 1.528 0 1.808 2.88 1.464 2.88 2.944 0 .512-.416.88-1.04.88zm2.489-3.568v.304h.536v2.28c0 .824.192 1.304.872 1.304.376 0 .672-.176 1.048-.696l-.136-.136c-.144.152-.32.28-.528.28-.304 0-.448-.232-.448-.792v-2.24h.984v-.352h-.984v-1.128l-.2-.024c-.208.68-.48 1.12-1.144 1.2zm6.749 3.32l-.112-.12c-.136.128-.264.184-.4.184-.168 0-.216-.088-.216-.368v-1.776c0-.928-.392-1.408-1.256-1.408-.784 0-1.608.616-1.608 1.136 0 .28.24.368.544.376l.136-.04c-.064-.784.16-1.136.592-1.136.52 0 .784.504.784 1.256v.24l-1.008.104c-.824.088-1.264.472-1.264 1.096 0 .616.456 1.024 1.144 1.024.592 0 .904-.232 1.16-.592v.024c0 .384.232.568.552.568.352 0 .656-.176.952-.568zm-2.264.072c-.44 0-.752-.296-.752-.728 0-.448.264-.68.896-.68h.584v1.104c-.192.216-.456.304-.728.304zm7.433.152l-.336-.056c-.472-.088-.504-.176-.504-1.128v-2.056h.96v-.352h-.96v-.816c0-.664.144-.96.432-.96.312 0 .448.28.648.8l.136.04c.216-.016.392-.136.392-.4 0-.312-.416-.72-1.04-.72-.824 0-1.376.728-1.376 1.856v.2h-1.736v-.816c0-.664.144-.96.408-.96.28 0 .4.272.584.768l.128.032c.2-.016.36-.128.36-.376 0-.288-.36-.704-.944-.704-.8 0-1.344.712-1.344 1.824v.232l-.512.048v.304h.512v2.056c0 .96-.016 1.072-.32 1.128l-.288.056v.248c.6-.04 1.4-.048 1.984 0v-.248l-.232-.056c-.32-.08-.336-.176-.336-1.128v-2.056h1.736v2.056c0 .96-.024 1.08-.28 1.128l-.296.056v.248c.672-.04 1.568-.048 2.224 0v-.248zm119.438 30.062l-.288-.048c-.304-.048-.32-.168-.32-1.112v-3.744c1.032.016 1.528.36 1.528 1.112 0 .744-.384 1.088-1.384 1.344l1.864 2.688c.4-.016.888-.016 1.288 0v-.248l-.184-.048c-.264-.056-.32-.096-.784-.728l-1.264-1.728c.888-.216 1.376-.664 1.376-1.328 0-.96-.872-1.384-2.256-1.384-.504 0-.96.048-1.672 0v.256l.288.048c.304.048.32.168.32 1.128v2.632c0 .936-.016 1.064-.32 1.112l-.288.048v.248c.664-.048 1.36-.048 2.096 0v-.248zm5.027.344c1.104 0 2.024-.792 2.024-2.016 0-1.344-.952-2.04-1.944-2.04-1.096 0-2.016.808-2.016 2.032 0 1.344.944 2.024 1.936 2.024zm.24-.328c-.744 0-1.304-.84-1.304-1.992 0-.856.336-1.4.912-1.4.744 0 1.304.864 1.304 2.008 0 .856-.344 1.384-.912 1.384zm4.502.328c1.104 0 2.024-.792 2.024-2.016 0-1.344-.952-2.04-1.944-2.04-1.096 0-2.016.808-2.016 2.032 0 1.344.944 2.024 1.936 2.024zm.24-.328c-.744 0-1.304-.84-1.304-1.992 0-.856.336-1.4.912-1.4.744 0 1.304.864 1.304 2.008 0 .856-.344 1.384-.912 1.384zm9.599-.016l-.224-.048c-.36-.064-.384-.112-.384-1.056v-1.296c0-.976-.552-1.32-1.104-1.32-.64 0-1.184.408-1.504.792-.168-.576-.6-.792-1.048-.792-.624 0-1.128.376-1.432.752.008-.256.016-.512.024-.704l-.064-.064c-.4.104-.768.144-1.384.144v.248l.184.024c.424.048.424.216.424 1.4v.816c0 .944-.016.992-.376 1.056l-.232.048v.248a13.906 13.906 0 012 0v-.248l-.216-.04c-.344-.072-.368-.12-.368-1.064v-1.024c0-.152 0-.36.008-.584.288-.224.616-.4.984-.4.408 0 .752.248.752.872v1.136c0 .944-.024.992-.36 1.056l-.224.048v.248a13.465 13.465 0 011.968 0v-.248l-.208-.048c-.352-.064-.368-.112-.368-1.056v-1.296c0-.112-.008-.208-.024-.304.312-.24.648-.408 1.008-.408.416 0 .752.248.752.872v1.136c0 .952-.024 1-.36 1.064l-.216.04v.248a13.796 13.796 0 011.992 0v-.248zm2.593.024c-.872 0-1.376-.584-1.576-1.624l-.216.048c.008.496.008 1.096-.016 1.448.36.272.928.448 1.656.448 1.328 0 1.992-.664 1.992-1.576 0-1.896-2.88-1.504-2.88-2.912 0-.488.344-.864.912-.864.672 0 1.072.48 1.336 1.432l.216-.048c-.008-.44 0-.904.024-1.248-.368-.272-.888-.456-1.496-.456-1.152 0-1.792.68-1.792 1.528 0 1.808 2.88 1.464 2.88 2.944 0 .512-.416.88-1.04.88zm6.112-.736l-.136-.104a1.597 1.597 0 01-1.136.488c-.784 0-1.328-.6-1.424-1.52h2.544c.016-.112.016-.24.016-.32 0-.776-.52-1.544-1.512-1.544-.952 0-1.832.792-1.832 2.072 0 1.12.736 1.984 1.856 1.984.68 0 1.24-.312 1.624-1.056zm-2.712-1.432c0-.88.408-1.224.864-1.224.504 0 .856.368.936 1.144l-1.8.112v-.032zm5.428 2.144l-.336-.048c-.344-.048-.36-.144-.36-1.056v-1.232c.232-.528.512-.672.808-.672.2 0 .368.064.64.16l.12-.08a.525.525 0 00.088-.304c0-.24-.152-.504-.52-.504-.488 0-.824.376-1.144 1.112 0-.416 0-.696.016-1.048l-.064-.064c-.416.104-.744.144-1.36.144v.248l.184.024c.424.056.424.176.424 1.392v.824c0 .928-.016 1.016-.32 1.056l-.288.048v.248c.68-.048 1.384-.048 2.112 0v-.248zm4.642-2.112c.336-.88.576-1.144.808-1.208l.128-.04v-.248c-.496.032-1 .032-1.488 0v.248l.192.048c.296.072.296.448.056 1.136l-.592 1.68-.864-2.112c-.208-.504-.136-.632.104-.696l.216-.056v-.248c-.6.04-1.344.032-1.936 0v.248l.192.048c.232.048.296.208.536.752l1.216 2.8c.176-.016.352-.016.52 0l.912-2.352zm2.852-2.864a.545.545 0 00-.56-.552.543.543 0 00-.552.552c0 .312.24.56.552.56.32 0 .56-.248.56-.56zm-.912 3.872c0 .976-.024.992-.376 1.056l-.232.048v.248a14.354 14.354 0 012.032 0v-.248l-.216-.048c-.376-.072-.4-.088-.4-1.056v-1.032c0-.392.008-1.12.032-1.536l-.064-.064c-.4.104-.768.144-1.384.144v.248l.184.024c.424.056.424.176.424 1.392v.824zm3.659-2.272c.52 0 .8.384 1.008 1.08l.128.048c.272-.032.456-.184.456-.472 0-.472-.552-.992-1.376-.992-.968 0-1.848.792-1.848 2.072 0 1.16.776 1.984 1.848 1.984.632 0 1.176-.352 1.536-1.08l-.128-.104c-.304.368-.648.52-1.016.52-.872 0-1.464-.688-1.464-1.872 0-.768.36-1.184.856-1.184zm5.832 2.664l-.136-.104a1.597 1.597 0 01-1.136.488c-.784 0-1.328-.6-1.424-1.52h2.544c.016-.112.016-.24.016-.32 0-.776-.52-1.544-1.512-1.544-.952 0-1.832.792-1.832 2.072 0 1.12.736 1.984 1.856 1.984.68 0 1.24-.312 1.624-1.056zm-2.712-1.432c0-.88.408-1.224.864-1.224.504 0 .856.368.936 1.144l-1.8.112v-.032zm-47.639 79.323a16.811 16.811 0 012.2 0v-.248l-.36-.048c-.336-.056-.352-.168-.352-1.112v-.712c1.712 0 2.576-.664 2.576-1.768s-.912-1.584-2.376-1.584c-.512 0-.976.048-1.688 0v.256l.288.048c.304.048.32.168.32 1.128v2.632c0 .936-.016 1.064-.32 1.112l-.288.048v.248zm1.488-5.152c1.128.016 1.664.472 1.664 1.376 0 .888-.536 1.328-1.664 1.336v-2.712zm7.085 4.68l-.112-.12c-.136.128-.264.184-.4.184-.168 0-.216-.088-.216-.368v-1.776c0-.928-.392-1.408-1.256-1.408-.784 0-1.608.616-1.608 1.136 0 .28.24.368.544.376l.136-.04c-.064-.784.16-1.136.592-1.136.52 0 .784.504.784 1.256v.24l-1.008.104c-.824.088-1.264.472-1.264 1.096 0 .616.456 1.024 1.144 1.024.592 0 .904-.232 1.16-.592v.024c0 .384.232.568.552.568.352 0 .656-.176.952-.568zm-2.264.072c-.44 0-.752-.296-.752-.728 0-.448.264-.68.896-.68h.584v1.104c-.192.216-.456.304-.728.304zm7.361.152l-.224-.048c-.36-.064-.384-.096-.384-1.056v-1.288c0-.976-.576-1.32-1.168-1.32-.688 0-1.184.368-1.504.76.008-.264.016-.528.024-.72l-.064-.064c-.4.104-.768.144-1.384.144v.248l.184.024c.416.056.424.184.424 1.4v.816c0 .96-.024.992-.376 1.056l-.232.048v.248a14.13 14.13 0 012.016 0v-.248l-.216-.048c-.36-.064-.384-.096-.384-1.056v-1.024c0-.152 0-.36.008-.584a1.72 1.72 0 011.064-.392c.44 0 .8.248.8.856v1.144c0 .96-.024.992-.376 1.056l-.216.04v.256a14.018 14.018 0 012.008 0v-.248zm.451-3.544v.304h.536v2.28c0 .824.192 1.304.872 1.304.376 0 .672-.176 1.048-.696l-.136-.136c-.144.152-.32.28-.528.28-.304 0-.448-.232-.448-.792v-2.24h.984v-.352h-.984v-1.128l-.2-.024c-.208.68-.48 1.12-1.144 1.2zm4.965 3.544l-.336-.048c-.344-.048-.36-.144-.36-1.056v-1.232c.232-.528.512-.672.808-.672.2 0 .368.064.64.16l.12-.08a.525.525 0 00.088-.304c0-.24-.152-.504-.52-.504-.488 0-.824.376-1.144 1.112 0-.416 0-.696.016-1.048l-.064-.064c-.416.104-.744.144-1.36.144v.248l.184.024c.424.056.424.176.424 1.392v.824c0 .928-.016 1.016-.32 1.056l-.288.048v.248c.68-.048 1.384-.048 2.112 0v-.248zm3.65.208l.952-2.344c.368-.904.552-1.128.792-1.192l.128-.032v-.248c-.464.032-.96.032-1.44 0v.248l.208.056c.264.072.304.336.024 1.088l-.608 1.624-.856-2.024c-.192-.464-.192-.616.12-.696l.2-.048v-.248c-.616.04-1.304.032-1.904 0v.248c.376.064.464.192.728.792l1.184 2.72h.248l-.024.072c-.352.92-.832 1.04-1.696 1.08l-.064.12c0 .296.136.6.528.6.448 0 .856-.28 1.48-1.816zm-69.065 87.46l-.324-.054c-.342-.054-.36-.189-.36-1.251v-4.212c1.161.018 1.719.405 1.719 1.251 0 .837-.432 1.224-1.557 1.512l2.097 3.024c.45-.018.999-.018 1.449 0v-.279l-.207-.054c-.297-.063-.36-.108-.882-.819l-1.422-1.944c.999-.243 1.548-.747 1.548-1.494 0-1.08-.981-1.557-2.538-1.557-.567 0-1.08.054-1.881 0v.288l.324.054c.342.054.36.189.36 1.269v2.961c0 1.053-.018 1.197-.36 1.251l-.324.054v.279a17.17 17.17 0 012.358 0v-.279zm7.393-.801l-.153-.117a1.797 1.797 0 01-1.278.549c-.882 0-1.494-.675-1.602-1.71h2.862c.018-.126.018-.27.018-.36 0-.873-.585-1.737-1.701-1.737-1.071 0-2.061.891-2.061 2.331 0 1.26.828 2.232 2.088 2.232.765 0 1.395-.351 1.827-1.188zm-3.051-1.611c0-.99.459-1.377.972-1.377.567 0 .963.414 1.053 1.287l-2.025.126v-.036zm5.539 2.457c-.531 0-1.062-.252-1.44-1.152h-.198c.009.405 0 .765-.018 1.116.315.207.909.378 1.521.378.99 0 1.71-.549 1.71-1.323 0-1.566-2.43-1.242-2.43-2.313 0-.315.207-.576.612-.576.531 0 .864.297 1.323 1.08h.225c-.036-.405-.054-.72-.054-1.089a2.797 2.797 0 00-1.368-.342c-.999 0-1.566.549-1.566 1.224 0 1.53 2.439 1.233 2.439 2.367 0 .36-.252.63-.756.63zm2.189-4.032v.342h.603v2.565c0 .927.216 1.467.981 1.467.423 0 .756-.198 1.179-.783l-.153-.153c-.162.171-.36.315-.594.315-.342 0-.504-.261-.504-.891v-2.52h1.107v-.396h-1.107v-1.269l-.225-.027c-.234.765-.54 1.26-1.287 1.35zm5.585 3.987l-.378-.054c-.387-.054-.405-.162-.405-1.188v-1.386c.261-.594.576-.756.909-.756.225 0 .414.072.72.18l.135-.09a.59.59 0 00.099-.342c0-.27-.171-.567-.585-.567-.549 0-.927.423-1.287 1.251 0-.468 0-.783.018-1.179l-.072-.072c-.468.117-.837.162-1.53.162v.279l.207.027c.477.063.477.198.477 1.566v.927c0 1.044-.018 1.143-.36 1.188l-.324.054v.279a17.44 17.44 0 012.376 0v-.279zm3.812.387c1.242 0 2.277-.891 2.277-2.268 0-1.512-1.071-2.295-2.187-2.295-1.233 0-2.268.909-2.268 2.286 0 1.512 1.062 2.277 2.178 2.277zm.27-.369c-.837 0-1.467-.945-1.467-2.241 0-.963.378-1.575 1.026-1.575.837 0 1.467.972 1.467 2.259 0 .963-.387 1.557-1.026 1.557zm5.065.369c1.242 0 2.277-.891 2.277-2.268 0-1.512-1.071-2.295-2.187-2.295-1.233 0-2.268.909-2.268 2.286 0 1.512 1.062 2.277 2.178 2.277zm.27-.369c-.837 0-1.467-.945-1.467-2.241 0-.963.378-1.575 1.026-1.575.837 0 1.467.972 1.467 2.259 0 .963-.387 1.557-1.026 1.557zm10.798-.018l-.252-.054c-.405-.072-.432-.126-.432-1.188v-1.458c0-1.098-.621-1.485-1.242-1.485-.72 0-1.332.459-1.692.891-.189-.648-.675-.891-1.179-.891-.702 0-1.269.423-1.611.846.009-.288.018-.576.027-.792l-.072-.072c-.45.117-.864.162-1.557.162v.279l.207.027c.477.054.477.243.477 1.575v.918c0 1.062-.018 1.116-.423 1.188l-.261.054v.279a15.645 15.645 0 012.25 0v-.279l-.243-.045c-.387-.081-.414-.135-.414-1.197v-1.152c0-.171 0-.405.009-.657.324-.252.693-.45 1.107-.45.459 0 .846.279.846.981v1.278c0 1.062-.027 1.116-.405 1.188l-.252.054v.279a15.148 15.148 0 012.214 0v-.279l-.234-.054c-.396-.072-.414-.126-.414-1.188v-1.458c0-.126-.009-.234-.027-.342.351-.27.729-.459 1.134-.459.468 0 .846.279.846.981v1.278c0 1.071-.027 1.125-.405 1.197l-.243.045v.279a15.52 15.52 0 012.241 0v-.279z" fill="#B3CBE6"/><path d="M5.673 325.436v57.663m-5.157 0v-57.663m431.008 165.03h-57.651m0-5.155h57.651M5.673 261.585v57.664m-5.157 0v-57.664m5.157-63.85v57.664m-5.157 0v-57.664m5.157-63.849v57.663m-5.157 0v-57.663m5.157-63.85v57.663m-5.157 0V70.036m5.157-63.85v57.663m-5.157 0V6.186m324.999 0v33.093m-5.156 0V6.185m5.156 39.28v33.093m-5.156 0V45.465M63.969 5.67H6.186m0-5.155h57.783m63.968 5.155H70.155m0-5.155h57.783m63.969 5.155h-57.782m0-5.155h57.782m63.97 5.155h-57.783m0-5.155h57.782" stroke="#CCCABC" stroke-width=".5" stroke-linecap="round" stroke-linejoin="round"/><path d="M344.184 369.779H192.445c-36.45 0-45.376-8.927-45.376-45.374 0-36.449 8.927-45.376 45.376-45.376h151.739c36.45 0 45.376 8.927 45.376 45.376 0 36.447-8.926 45.374-45.376 45.374zM237.306 216.995h-48.638c-36.447 0-45.375-8.925-45.375-45.374 0-36.45 8.928-45.374 45.375-45.374h48.638c36.449 0 45.375 8.924 45.375 45.374.001 36.449-8.923 45.374-45.375 45.374zM416.1 157.787v27.67c0 36.447-8.927 45.374-45.374 45.374-36.449 0-45.375-8.927-45.375-45.374v-27.67c0-36.447 8.927-45.374 45.375-45.374 36.447.001 45.374 8.928 45.374 45.374z" stroke="#B3CBE6" stroke-width=".5" stroke-linecap="round" stroke-linejoin="round"/><path d="M665.574 387.701v16.603h-70.311V262.897a2.065 2.065 0 00-2.062-2.062h-2.062a2.061 2.061 0 00-2.062 2.062v35.501h-1.746v5.163a1.025 1.025 0 00.991 1.023h.759v99.719h-1.746v11.346a1.03 1.03 0 001.014 1.026h.736v22.464a2.063 2.063 0 002.062 2.062h2.062a2.061 2.061 0 002.062-2.062v-22.462h70.311v28.651h12.372v-57.624l-12.38-.003zm-126.695-159.86h13.393a2.062 2.062 0 002.062-2.061v-10.311H447.03v-19.103h-6.186v138.155a2.066 2.066 0 002.062 2.062h4.124v-31.998h105.242a2.06 2.06 0 002.062-2.062v-4.124h-5.366v-35.501a2.053 2.053 0 00-.604-1.458 2.062 2.062 0 00-1.458-.604h-4.123v37.563H447.03v-70.558h91.849zm-69.747 176.464H447.03v-34.728h-4.123a2.065 2.065 0 00-2.062 2.062v32.666H307.102v12.377h130.649v8.03h10.311a2.065 2.065 0 002.062-2.062v-5.968h21.07v-10.316a2.064 2.064 0 00-2.062-2.061z" fill="#CCCABC"/></svg>