<svg width="253" height="128" fill="none" xmlns="http://www.w3.org/2000/svg"><g clip-path="url(#clip0)" stroke="#F93C00" stroke-linecap="round" stroke-linejoin="round"><path d="M206.238 61.181c-3.18-.717-4.951.088-5.312 2.414.039-.44-13.861.764-13.644.682a1.808 1.808 0 01-1.927-.293c-.75-.65-1.945-.77-3.148-.492a14.165 14.165 0 01-2.578 3.258c-1.009.406-10.276 2.546-10.438-.655m82.492-38.875c0 2.979-.085 5.96.042 8.936.051 1.193-.895 1.799-1.958 2.102-2.026.574-2.939 1.785-3.735 3.095a2.808 2.808 0 01-1.456 1.411c-.471.164-.891.45-1.218.828a2.866 2.866 0 00-.644 1.33c-.865 1-1.711 2.009-2.539 3.029-.386.883-1.165 1.637-1.673 2.495a34.808 34.808 0 01-1.396 2.862 8.79 8.79 0 00-1.835 2.22 7.789 7.789 0 00-.582 1.465c-.282.844-.743 1.307-1.939 1.45a3.492 3.492 0 00-2.049.935c-1.064 1.029-7.515 4.544-7.536 6.006-.005.389-.266.768-.068 1.162" stroke-width="2"/><path d="M206.25 61.718c-.066.896-.846 1.665-.733 2.592.07.417.222.816.445 1.174a10.284 10.284 0 01.976 4.893c-1.213.738-.766 1.761-.805 2.69a2.52 2.52 0 01-.823.805c-.332.2-.706.32-1.092.351a328.18 328.18 0 01-5.795 2.057c-.781.35-1.627.53-2.482.53-1.066-.035-5.347 2.622-5.39 3.584-.01.224-.548.856-1.382.291a13.337 13.337 0 01-5.303-1.808"/><path d="M222.806 66.096c-1.867-.675-3.739-1.331-4.165-3.124-.079-.333-.467-.568-1.043-.55a7.036 7.036 0 01-3.176-.088c-.906-1.03-2.46-.909-3.705-1.075-1.73-.714-3.219-.56-4.467.46" stroke-width="2"/><path d="M141.144 45.094c.344.996.522 1.058 1.414.441.346-.229.71-.43 1.087-.602 1.946-.925 1.918-2.623 2.812-3.956.179-.266-.205-.292-.458-.356a5.07 5.07 0 00-2.934.223c-1.15.224-2.298.455-3.442.695-1.739-.02-3.477-.052-5.214-.097-1.043.38-5.469 1.015-6.399.613"/><path d="M84.336 24.002c.017.116.013.284-.12.304a45.208 45.208 0 01-20.707 2.818 7.248 7.248 0 00-3.79 1.437m90.656 2.769c.339 1.514 1.611 2.64 2.861 3.742.998.993 1.94 2.041 2.821 3.141 4.317 4.724 14.482.795 18.578 4.204 2.048 1.704 5.944 1.14 7.239 3.657.035.068 14.481 9.402 15.365 9.582 3.041.7 5.955 1.874 8.637 3.478.649.417 1.261.888 1.31 1.602" stroke-width="2"/><path d="M136.528 59.215c-.885.576-.883 1.204-.382 1.976.391.601 1.016 1.193.738 1.956-.061.17.082.276.238.355.565 1.239-.028 2.075-1.777 2.507-2.217-.202-4.7.886-5.254 2.425a4.77 4.77 0 00-1.456 4.174c.642 1.068 1.128 2.21 2.649 2.918 1.289 1.496.904 2.697-1.155 3.604a1.355 1.355 0 01-.698-.081 1.667 1.667 0 00-1.292.017 3.012 3.012 0 01-2.385.18c-.88-.194-1.987.15-2.196.8-.923.647-1.838 1.3-2.743 1.962-.395 1.446-1.862 1.563-3.341 1.584a5.406 5.406 0 00-2.469.484 2.914 2.914 0 01-2.242.121c-.859-.21-1.74-.321-2.624-.331-4.006-.326-.667 5.844-6.289 4.7a25.892 25.892 0 00-10.393 1.681 164.179 164.179 0 00-4.264 2.948c-.882.12-1.516.083-1.777-.647-.17-.476-.598-.561-1.185-.548a2.135 2.135 0 01-1.156-.184c-.94-.803-2.38-.568-3.474-1.034-.252-.108-.695.039-1.05.069m103.2-12.332a4.472 4.472 0 01-3.789-.619c-.914.272-1.274.806-1.08 1.602.016 1.525-1.175 2.577-3.3 2.754a31.796 31.796 0 00-7.324 3.516 7.603 7.603 0 00-3.094 2.755c-.349.526-5.785 2.69-5.792 2.69-.007.001 0 .114 0 .17M19.064 28.291c.407.356 8.03 2.84 8.922 3.235a16.25 16.25 0 009.236-.943 4.984 4.984 0 012.022.032c2.02.841 4.227 1.12 6.39.805m.471 0c-2.785 6.309-7.322 11.611-13.61 15.906"/><path d="M128.954 73.515a3.161 3.161 0 01-2.737-.341 18.71 18.71 0 00-4.96-1.611c-.903-.17-1.602.295-2.238.706a38.13 38.13 0 01-5.937 1.222 4.235 4.235 0 01-3.867-.533c-.632-.455-7.872-1.445-9.14-1.809a2.02 2.02 0 00-1.761.408c.209-.144-9.966 3.364-9.231 3.142a8.98 8.98 0 00-3.893 2.67c-2.144.83-2.786 1.873-1.926 3.128.322.208.692.327 1.075.346m128.29-2.324c.433 1.307.355 1.29-1.166 1.988a9.75 9.75 0 00-2.618 1.947c-.107.102-.121.299-.246.346-2.088.775-2.113 2.83-4.1 3.72-.604.27-.91.836-1.775 1.096a6.647 6.647 0 00-2.705.466c-.86.343-1.64.86-2.291 1.522-1.211 4.513-8.909 3.763-10.663 6.965m-82.136-7.683c-.215 1.212 1.389 2.81-.715 3.478-1.072.34-1.853.878-2.112 1.753a4.169 4.169 0 00-.64 1.836c-.41 2.272-1.892 4.121-4.446 5.545a4.26 4.26 0 01-1.434.888c-.909.321-1.806.591-2.416 1.314-.46.545-1.457.719-2.323.816-4.526.93-6.507 2.991-5.942 6.183a.665.665 0 01-.202.895 6.903 6.903 0 00-2.603.331 7.69 7.69 0 00-2.62 2.342 14.278 14.278 0 00-2.505 3.838 1.36 1.36 0 01-.92.811M48.475 29.543c-3.454-6.858-3.061-7.005-11.598-7.284m36.926 33.649c-1.902.66-3.922.898-5.924.7a26.897 26.897 0 01-5.084.261 17.247 17.247 0 00-6.262 2.36 2.064 2.064 0 00-.84 2.308m44.502-38.518a6.35 6.35 0 00-.996 1.05 5.314 5.314 0 01-2.709 1.55c-2.497.63-3.246 2.21-4.344 3.655-1.016 1.335-5.573 3.92-6.627 5.81"/><path d="M89.543 18.104s10.694 4.601 12.209 5.794c2.351.295 4.652.9 6.845 1.802m39.885 4.2c-1.006-.09-.354-.834-.795-1.185-.17-.136-.086-.473-.373-.702-.677-.536-1.193-1.152-.959-1.955a94.79 94.79 0 01-1.755-2.597 8.042 8.042 0 00-1.362-2.303 92.336 92.336 0 00-5.276-1.99 2.764 2.764 0 00-1.305-.466c-1.425-.31-3.022-.017-4.309-.926-1.427-1.007-10.346 1.932-10.904.248a10.208 10.208 0 00-3.856-.628c-1.354-.45-4.111 3.796-4.149 3.828a9.75 9.75 0 00-1.049 1.71c.087-.063-4.239 4.216-4.143 3.66-.533 3.089-8.189 9.163-11.248 11.797" stroke-width="2"/><path d="M41.018 37.14c-1.21-1.044-2.758-1.363-4.645-.959-1.76.455-2.9 1.572-4.585 2.034-9.132 2.503-1.057 3.863-10.297.175a8.54 8.54 0 00-5.919.538M147.769 96.93a21.055 21.055 0 00-9.346.994c-.153.029-.333.266-.464.159-.78-.64-1.688.07-2.501-.164-.403-.114-.538.202-.695.36-1.711 1.704-4.175 2.749-6.294 4.095-.991.341-1.313.915-.966 1.723a1.479 1.479 0 01.368 1.354 1.454 1.454 0 01-.933 1.043M94.987.989a16.413 16.413 0 014.054 2.888c3.119 3.416 8.021 13.362 15.592 13.444a5.28 5.28 0 011.421.425"/><path d="M170.259 66.096a9.903 9.903 0 01-2.625-.681 1.971 1.971 0 00-1.764-.041 2.443 2.443 0 01-1.291.167c-1.214-.048-2.2.08-2.872.99a.75.75 0 01-1.268-.078 2.404 2.404 0 01-.463-.716c-.997-1.006-1.719-.916-2.167.27.009.718-.836 1.009-2.108 1.003-1.252-.005-2.177-.582-3.168-.955a18.017 18.017 0 01-4.643-2.37c-.765-.588-1.27-.6-2.015-.093-.518.352-.866.89-1.773.818a3.321 3.321 0 01-1.886-.73c-.464-.375-.899-.573-1.425-.085a.609.609 0 01-.587.077c-.952-.301-1.693.128-2.492.37" stroke-width="2"/><path d="M176.65 115.385c.664.709.025 1.334-.513 1.711-.853 1.643-2.338 2.578-4.457 2.804-1.37-.516-2.618.08-3.901.278a12.844 12.844 0 01-1.779 1.687M60.783 28.738c.119.09.217.228.358.26 2.2.487 2.675 1.978 2.99 3.326.209.899.764 1.69.925 2.58a7.139 7.139 0 01-.226 3.222 1.917 1.917 0 00.576 1.869 2.744 2.744 0 01.94 2.417m12.072 17.249a34.9 34.9 0 015.675.426c4.495-.5 7.186.73 8.073 3.687-.065.417 6.325 5.992 7.083 7.328m84.856 26.364c.827-.04 1.667-.044 2.136-.713.175-.251.534-.146.822-.185.789-.108 1.01-.603.733-1.164a77.742 77.742 0 01-4.958-3.674c-1.414-2.715-3.476-3.633-6.187-2.755m-55.922-28.062c.661.648 2.266 2.338 2.302 3.217.047 1.136.69 1.818 2.144 2.127.2.042.393.113.573.21a8.435 8.435 0 004.509 1.149m47.753-45.134c-.082.652-.816 1.054-1.057 1.688-.523 1.377-.184 2.751-.289 4.123-.041.549.625.986.993 1.298a11.935 11.935 0 013.266 4.507 4.571 4.571 0 011.321 4.211c-.395 1.075-.994 2.245.441 3.21m-7.456 37.268c-1.182.06-2.381.212-3.205-.71a5.706 5.706 0 00-3.423.981.883.883 0 00-.922.452 4.587 4.587 0 01-2.506 1.694c-1.19 1.099-2.375 2.2-3.555 3.303M59.6 28.918c.166-3.28-7.837-1.008-8.914-.026-.73.665-1.992.665-3.04.909-1.114.26-1.8.77-1.89 1.528m138.173 76.862c-1.649 1.119-2.547 2.489-2.693 4.109-.047.308-.325.564-.909.657-.831.134-1.594.468-1.435 1.312.072.378-.339.525-.703.52a1.53 1.53 0 00-1.302.641m-17.635-24.398a2.726 2.726 0 00-1.899-.284c-1.562.263-8.434-.25-9.318 1.1a1.95 1.95 0 01-.384.436c-1.47 1.24-1.497 1.69-.626 3.23.26.46.237 1.02.747 1.421m28.878 7.503a9.155 9.155 0 01-1.426-.621c-1.091-.687-2.539-.641-3.8-.83-1.045-.156-1.756.705-2.243 1.446a6.994 6.994 0 01-.323.46c-1.123 1.442-1.11 1.452-3.333 1.061a3.74 3.74 0 00-2.458 1.363c-1.285 1.133-3.004 1.257-4.762 1.315a2.815 2.815 0 00-2.026.894 5.375 5.375 0 01-2.705 1.268 136.07 136.07 0 00-5.683 2.431.788.788 0 00-.655.27.812.812 0 00-.186.687c.064 1.323.497 2.667-.438 3.942-.761 1.038 1.506 3.177 2.58 3.476m35.269-34.325c1.022.763 1.569-.267 2.362-.375.188-.026.318-.284.479-.428.803-.424 1.247-.275 1.331.445.057 1.01 2.088 2.453 3.402 2.503.252.03.507-.03.719-.17a3.923 3.923 0 013.544-.37c.415.125.865.184 1.298.273M125.048 36.29c-1.41-.486-1.881-.2-1.922.938-.04 1.11.967 1.656 1.793 2.33.042.033.014.117.128.08.085-.025 2.925 2.018 2.796 2.406.037 1.374-.966 1.967-3.01 1.778-.195-.131-6.439-1.843-6.59-2.305M77.47 106.94c-2.369.423-3.591 1.875-4.803 3.241a12.604 12.604 0 01-3.954 1.496M15.337 38.838c1.325-5.983-16.199-7.6-7.101-3.039 1.287-.563 2.963.341 4.142-.624M81.495 8.094c-2.345-3.495 21.265 1.226 20.593 1.52m118.115 55.589c-.905.803-2.031 1.443-2.861 2.312-1.991 2.082 3.167 7.374 2.829 10.652a7.447 7.447 0 00.206 2.506c.082 1.59.534 3.139 1.32 4.52.731 1.077.749 2.216.831 3.337.05.692.42 1.3.515 1.965M137.712 8.184c.688-.279 1.326-.542 1.467-1.247.078-.391 3.513-2.124 3.814-.981.366 1.387 1.594 2.418 2.324 3.647a14.496 14.496 0 001.745 3.317m-23.256 5.63c.255.3.465.667.275.976-.564.92-.095 1.714.764 2.209 1.211.698 2.621 1.166 3.816 1.945a27.64 27.64 0 013.847.855 2.582 2.582 0 002.246.36m26.629 59.791c-.04 0-.105.012-.113 0a8.167 8.167 0 00-8.821 1.432m-27.873-42.186a19.084 19.084 0 01-5.913.73c-1.424.315-6.063 3.437-6.254 3.275a5.52 5.52 0 01-3.573-1.324c-.006-.507 0-1.013 0-1.52m-44.739 61.132c-.204.692.18 2.386.856 2.741a5.542 5.542 0 002.1 2.184c.592.114 1.46.206 1.373.79-.081.548-1.004.353-1.496.409-.729.084-1.622.274-2.24-.316m123.085.895c.264.303.04.511-.236.715a2.965 2.965 0 00-1.199 2.681 11.388 11.388 0 01-2.926 4.568c-.548.568-.937 1.206-1.781 1.613-.35.151-.637.419-.814.758a1.68 1.68 0 00-.157 1.105.501.501 0 01-.189.467 2.16 2.16 0 00-.508 2.393m2.605-30.119c1.136.083 1.802.561 1.997 1.434a.489.489 0 01-.348.69c-.966.423-1.753.343-2.364-.242-1.333-.716-2.165-.389-2.498.98.071.351.067.713.127 1.071a6.153 6.153 0 01-1.562 2.5.884.884 0 01-.677.723c-.637.164-.503.531-.357.889M60.428 93.445c2.067 1.122 3.05 2.46 2.952 4.017-.79.75-.27 1.404.244 2.06"/><path d="M171.087 106.851a4.923 4.923 0 00-1.697 2.329 46.832 46.832 0 01-1.38 4.018m24.499-11.621a9.628 9.628 0 001.185 2.68c1.072.584 1.826 1.444 3.06 1.903.534.199 1.072 4.058 1.107 3.912-.164.666.351 1.193 1.039 1.605m-46.513-76.861c.538-.365-6.727 6.317-5.102 5.349-.199.119-.368.264-.578.37m-67.342 1.431a9.014 9.014 0 00-3.48 3.11 4.513 4.513 0 01-3.498 1.445c-.02-.015-.005-.057-.005-.086m61.188 6.925a6.043 6.043 0 012.708 3.977c-.298.705.339 1.237.564 1.818a1.132 1.132 0 00.808.338 1.127 1.127 0 00.805-.344c1.858-.369 3.104-1.238 3.737-2.607a5.1 5.1 0 01-.457-4.743"/><path d="M91.717 19.051c-.459.823-1.505 2.45-.915 3.359 1.16 1.787-5.116 2.22-6.466 1.86" stroke-width="2"/><path d="M120.314 55.908c-.47.069-.949-.126-1.427.08-1.273.497-1.31 1.124-.113 1.883.698.096 2.291 3.008 1.538 2.954M105.165.944c.04.328.104.655.113.983.038 1.266-2.344 3.615-3.309 4.737M69.068 91.39c-.72-4.195-4.168-.039-5.68-1.789-.475-.551-1.297-.613-2.018-.791-1.539-.38-2.01 3.4-1.072 3.847.357.17.146.569-.118.682-.817.34-1.177 1.04-1.999 1.359m132.316-57.022c-1.859.535-6.241.978-6.847 2.596a4.994 4.994 0 00-1.426 1.743 5.024 5.024 0 00-.518 2.197.816.816 0 01-.322 1.06M135.7 110.381c1.305.36 2.044 1.33 3.415 1.691 1.332.35 2.45 1.161 4.053.7 1.281.134 2.546.396 3.775.781m-94.089-2.949c2.974-.824 5.66-.105 8.277.905.235.053.476.079.717.078m104.978-85.172c-1.846 1.038-2.856 2.439-3.031 4.204a6.427 6.427 0 002.916 3.036c.194.744 1.737.826 1.462 1.884-.222.857.368 1.72.514 2.588.033.196.482.668-.322.712"/><path d="M57.943 83.345c.578 1.352 1.105 2.737 2.17 3.912.459.507.282 1.074.67 1.54m136.933 20.199a86.189 86.189 0 01-3.442 1.51c-1.251.568-1.612 1.139-1.165 2.016.029.057.226.063.344.093M85.282 13.813c.513-.614 1.12-.222 1.512.024a12.025 12.025 0 012.394 4.266m130.423 58.36a6.465 6.465 0 00-3.536.279c-2.05 1.642-5.011 2.358-7.943 2.587a8.694 8.694 0 00-2.369 1.156m-21.065 21.45a3.647 3.647 0 00-1.131 1.331 3.688 3.688 0 00-.389 1.708c-.021.768.85 3.036 1.474 3.604 1.042.949 2.116 1.967 1.825 3.367-.113.542.339.769.943.894.221.046.253-.068.296-.18M72.382 46.613c-.282.447-.554.9.005 1.337a.316.316 0 01.144.327.321.321 0 01-.046.116 6.772 6.772 0 00-.103 3.583m44.145-2.503c-.53 1-.743 2.036.46 2.87.526.366-4.365 5.436-5.388 1.949-.127-.433-.332-.455-.753-.44M64.452 98.628c-.605.966-.312 2.216-1.647 2.96a3.94 3.94 0 00-.589 1.603c-1.132 1.74.605 1.761 1.644 3.034m46.158-70.783c-1.275 1.435-3.308 2.34-4.614 3.754-.39.422-.934.781-1.008 1.34M90.49 56.444a19.428 19.428 0 00.473 4.829m38.464-15.375c.255.494-.236 1.1.564 1.55.38.214-.472 1.255-1.032 1.204-1.092-.097-1.716.216-2.023.998-.229.585-.908.633-1.523.523-.979-.175-1.664-.133-2.042.723-.319.72-1.251.727-2.105.722m-36.694 56.573a5.332 5.332 0 00-2.13-.268 5.739 5.739 0 00-4.024-.269m115.157 5.095c.826.82 1.596 1.663 1.41 2.77-.071.432.229.78.376 1.159.164.421.576.603 1.17.45m-83.318-88.121c-.154-.014-.395 0-.399.09-.013 1.052-.728 2.065-.416 3.124.378 1.28 0 2.338-2.144 3.04m21.185 14.838c-3.888-1.405 3.81 5.415 1.896 2.948a.626.626 0 00.116.09m-38.583-1.161a15.549 15.549 0 01-4.378 4.468m94.207-27.616c1.344.099 1.177 1.072 1.631 1.664.395.512.267 1.2.944 1.666.155.107.131.528-.089.78M146.707 13.01c-.972 1.018-2.04 2.007-1.779 3.396.028.146.085.34-.008.44-.927.987-.022 1.922.155 2.863.146.773.25 1.468-.733 1.97m37.515 13.494c4.111-1.035 5.509-4.217 9.824.715m24.38 36.554a3.416 3.416 0 00.734 2.401c.375.44.242.916.451 1.352m-71.012 6.793c.241.75.368 1.533.379 2.322.155 1.128.524 1.557 2.106 1.477m23.076 16.31c-.16.544-.355 1.084-.537 1.619-.262.769-.556 1.679.542 2.309.699.4.343 1.035.658 1.54.366.589.448 1.277 1.102 1.779.079.06.011.23.011.349"/><path d="M80.37 60.913l-.177.358c-.708-.28-1.572-.455-1.876-1.08a5.145 5.145 0 00-3.339-.787 1.295 1.295 0 01-.89-.572 1.313 1.313 0 01-.174-1.05c.178-1.547.356-3.095.467-4.647.067-.942-.638-1.318-2-1.16m107.641-28.063c-.103.344.155.652.178.983a.764.764 0 01-.369.704.748.748 0 01-.791-.016c-.846-.423-1.523-.14-2.272.027M.66 26.325c.546 1.337 2.185 1.627 1.658 3.218m108.41-4.468c.677 1.382.956 2.759-.119 4.11.107 1.43.068 2.868-.117 4.29-1.048 1.194-.445 2.444 1.42 2.95m7.337 19.394a8.116 8.116 0 01-.639-1.964c-.052-.508-.595-.948-1.373-1.075M1.963 29.543a7.76 7.76 0 013.905 2.502m187.114 3.039c-1.429.586-2.099 1.45-2.011 2.591m-42.962-7.685c-.198 1.426.136 1.727 2.486 2.234m24.734 46.295a4.667 4.667 0 002.114 1.788.902.902 0 00.49.804M83.388 10.775a4.505 4.505 0 011.894 2.77m-20.77 98.489c-.374-1.436-2.034-1.523-3.255-.893m134.558-19.398c-1.315.881-3.126 5.674-2.24 7.154m10.059 10.59c.301.07.775.013.698.401a1.18 1.18 0 01-1.055.889 26.117 26.117 0 00-3.905.987c-.266.096-1.128 1.504-.933 1.591.754.349.744 1.147 1.532 1.437.312.113.568.481 1.081.117.36-.255.611-.436.46-.824-.066-.171.05-.386-.246-.49m50.3-79.494c-1.918-.017-3.516.728-5.207 1.25m-99.178 51.391a2.786 2.786 0 00-.61 1.482 2.809 2.809 0 00.304 1.575c.318.65.42 1.236 1.43 1.411m34.262 31.013c.282.696.564 1.368-.33 1.988a.96.96 0 00-.38.784M92.383 2.687a.691.691 0 01.71.324c.049.08.08.168.095.26a5.126 5.126 0 01-.805 3.93M193.93 98.897a4.371 4.371 0 00-1.185 2.681M36.758 22.572a5.48 5.48 0 00-3.076-1.609m93.852 21.361c-1.234-.033-2.322.166-2.959 1.072m61.779-20.735a36.98 36.98 0 00-.52 3.765c.353.838.007 1.704-.545 2.491m-58.228 20.825a14.674 14.674 0 013.55.357M50.96 92.55a28.615 28.615 0 016.983 2.324m38.82-56.304a7.37 7.37 0 01-.71 3.038M144.34 2.016c.647.573.933 1.12.139 1.802-.5.43-.308 1.136-.853 1.59-.169.14-.204.382-.529.405m25.741 33.114c.389.675 1.117 1.25 1.066 2.055m34.559 68.997c.461.146.938.236 1.42.267 1.7.036 2.13.378 2.13 1.699m-95.155-82.938c-.282-.581-.4-1.24-1.301-1.52m87.875 88.837c-.334.875-.591 1.002-2.189 1.073M77.944 105.51c-1.132.073-1.035.052-.742.812a2.2 2.2 0 001.216 1.065M2.672 33.475a9.824 9.824 0 002.84.625m177.41 65.511c.599.731 1.28 1.433 1.42 2.324m-66.158-60.058c-.087.08-.166.17-.233.269-.545 1.022-.597 1.03-1.779.267M94.987.989c-.501.137-1.987-.096-2.367.223m88.527 126.105h-2.369m-53.492-92.59a10.359 10.359 0 01-.947 2.145M27.764 39.91c-.004.3.662.096.591.448"/></g><defs><clipPath id="clip0"><path fill="#fff" transform="translate(.293 .601)" d="M0 0h252v127H0z"/></clipPath></defs></svg>