<svg width="619" height="389" fill="none" xmlns="http://www.w3.org/2000/svg"><path d="M297.895 369.292c.669 0 1.26.126 1.774.378.523.252.93.611 1.221 1.076.291.456.436.989.436 1.6 0 .62-.15 1.168-.45 1.643a3.023 3.023 0 01-1.251 1.105c-.523.252-1.115.378-1.774.378-1.347 0-2.38-.441-3.097-1.323-.717-.892-1.076-2.147-1.076-3.766 0-1.134.194-2.094.582-2.879.387-.786.93-1.377 1.628-1.774.698-.407 1.512-.611 2.443-.611 1.008 0 1.813.184 2.414.553l-.422.843c-.485-.32-1.144-.48-1.977-.48-1.125 0-2.007.359-2.647 1.076-.64.708-.96 1.74-.96 3.097 0 .243.015.519.044.829a2.71 2.71 0 011.207-1.28c.553-.31 1.187-.465 1.905-.465zm-.087 5.293c.736 0 1.332-.199 1.788-.596.465-.407.698-.945.698-1.614 0-.669-.233-1.202-.698-1.6-.456-.397-1.076-.596-1.861-.596-.514 0-.97.097-1.367.291-.388.194-.693.46-.916.8a2.018 2.018 0 00-.334 1.134c0 .388.101.746.305 1.076.213.33.523.596.93.8.408.203.892.305 1.455.305zm8.788.887a3.694 3.694 0 01-2.109-.625c-.61-.417-1.09-1.013-1.439-1.789-.34-.785-.509-1.706-.509-2.762 0-1.057.169-1.973.509-2.749.349-.785.829-1.386 1.439-1.803a3.694 3.694 0 012.109-.625c.785 0 1.483.208 2.094.625.62.417 1.105 1.018 1.454 1.803.349.776.523 1.692.523 2.749 0 1.056-.174 1.977-.523 2.762-.349.776-.834 1.372-1.454 1.789-.611.417-1.309.625-2.094.625zm0-.96c.591 0 1.11-.164 1.555-.494.456-.33.81-.809 1.062-1.44.252-.63.378-1.391.378-2.282 0-.892-.126-1.653-.378-2.283-.252-.63-.606-1.11-1.062-1.44-.445-.33-.964-.494-1.555-.494-.592 0-1.115.164-1.571.494-.446.33-.795.81-1.047 1.44-.252.63-.378 1.391-.378 2.283 0 .891.126 1.652.378 2.282.252.631.601 1.11 1.047 1.44.456.33.979.494 1.571.494zm12.895-2.966l-1.803 1.658v2.181h-1.033v-10.789h1.033v7.314l4.566-4.174h1.279l-3.272 3.127 3.577 4.522h-1.265l-3.082-3.839zm15.322-3.868c.96 0 1.711.276 2.254.829.553.553.829 1.367.829 2.443v4.435h-1.032v-4.333c0-.795-.194-1.401-.582-1.818-.378-.417-.916-.625-1.614-.625-.795 0-1.42.247-1.876.741-.455.485-.683 1.159-.683 2.022v4.013h-1.033v-4.333c0-.795-.193-1.401-.581-1.818-.378-.417-.921-.625-1.629-.625-.785 0-1.41.247-1.875.741-.456.485-.684 1.159-.684 2.022v4.013h-1.032v-7.649h.988v1.396c.272-.465.65-.824 1.135-1.076.484-.252 1.042-.378 1.672-.378.64 0 1.192.136 1.657.407.475.272.829.674 1.062 1.207a2.947 2.947 0 011.207-1.178c.533-.29 1.139-.436 1.817-.436z" fill="#C7D4DB"/><path stroke="#F93C00" stroke-width=".727" d="M618.124 337.332v33.078M2.849 353.872h615.344M3.212 337.332v33.078"/><path d="M11.283 173.467c7.841-.356 3.205.408 7.547 3.572 2.282 1.666 19.69-6.44 24.773.942 1.168 3.929 3.89 5.851 8.165 5.767a35.193 35.193 0 0111.994-7.283" stroke="#B3CBE6" stroke-opacity=".5" stroke-width="1.166" stroke-linecap="round" stroke-linejoin="round"/><path d="M607.591 18.174a20.034 20.034 0 00-2.688 7.904 10.817 10.817 0 01-6.084 8.182 66.347 66.347 0 00-10.469 2.611 31.078 31.078 0 01-12.887 2.503 19.519 19.519 0 01-11.784-8.981c-1.38-1.48-2.168-3.402-4.005-4.597a5.566 5.566 0 01-1.723-3.344c-3.278-15.44-30.741 3.2-42.89-8.341M2.073 179.46a10.205 10.205 0 001.49 6.646c.766 1.106 1.36 2.334 2.166 3.41a69.864 69.864 0 0014.987 5.114c5.821 1.271 10.388 3.972 16.477 2.786a10.345 10.345 0 018.383-1.063c.546.419 1.217.64 1.905.629 3.241.71 3.89 2.227 1.949 4.551-1.968 3.102-5.154 3.726-8.377 4.011-2.91.257-4.355 2.054-5.565 4.331M291.874 68.294c1.071.999 2.203 1.942 3.186 3.024.449.494.981 1.39.816 1.879a14.122 14.122 0 01.068 10.091c-2.289 2.042-2.011 3.64.857 4.927a5.286 5.286 0 012.323 7.26 2.888 2.888 0 00.189 3.7 81.33 81.33 0 0010.568 8.081 4.774 4.774 0 002.345.981c.347 0 .898-1.14 1.034-1.826a59.75 59.75 0 017.774-4.47c1.298-1.794 2.881-1.923 4.21-.2 1.594 2.061 4.018 1.875 6.034 2.769a20.953 20.953 0 0012.67 4.516c.486-.313 1.26-.181 1.905-.251" stroke="#B3CBE6" stroke-opacity=".5" stroke-width="2.333" stroke-linecap="round" stroke-linejoin="round"/><path d="M509.705 53.73a16.02 16.02 0 01-3.881 8.333c-2.029 2.518-4.872 4.575-6.246 7.379-1.715 3.502-4.3 6.66-4.778 10.833a5.994 5.994 0 01-2.839 4.79 4.163 4.163 0 00-2.211 3.362 18.027 18.027 0 01-9.819 4.715m-37.697 55.045c-1.179 2.467-.475 4.997-.191 7.494.157 1.37.667 2.703.809 4.074.247 2.418-.999 4.21-2.127 6.317-1.674 3.13-4.835 6.334-2.62 10.632a3.992 3.992 0 01-4.435 2.976 17.954 17.954 0 01-7.929 1.081 26.393 26.393 0 01-10.723-2.774c-1.18-.533-3.185 1.308-3.161 2.969.082 5.145-4.172 5.766-1.977 11.567 3.232 8.55-4.783 6.123-7.62 9.744-.742.953-2.858.817-4.364 1.176" stroke="#B3CBE6" stroke-opacity=".5" stroke-width="1.166" stroke-linecap="round" stroke-linejoin="round"/><path d="M534.122 17.96c.214.856.504 1.703.63 2.572a25.784 25.784 0 01-12.383 16.309 16.714 16.714 0 00-2.585 2.54 10.703 10.703 0 00-2.291 3.797 44.179 44.179 0 01-4.826 8.592c-1.45 2.165-3.51 2.26-5.272.213-2.842-3.302-6.236-3.483-10.113-2.572-3.431.15-6.82.816-10.052 1.974a42.59 42.59 0 00-12.009.837 7.244 7.244 0 01-7.484 1.713c-3.824-1.004-7.451-1.123-10.985 1.206-.896.59-2.513.136-3.796.07a9.247 9.247 0 01-1.715-.409" stroke="#B3CBE6" stroke-opacity=".5" stroke-width="2.333" stroke-linecap="round" stroke-linejoin="round"/><path d="M256.528 209.66a12.14 12.14 0 01-.644 11.137c-3.169 4.004-3.26 8.373-.272 13.107a20.641 20.641 0 01-1.895 7.03c.168 2.134.253 4.282.219 6.423-.051 3.101-1.952 4.997-4.475 6.429-1.65.938-3.378 4.92-3.001 6.851.302 1.541 1.332 2.161 3.212 1.928m-.423-199.732c-.564-2.828-2.387-3.868-5.141-3.764a91.5 91.5 0 01-11.567-5.973c-.252-.136-.654-.06-.838-.237 1.468 1.412-15.811-10.56-15.649-10.478m13.061 62.756a19.34 19.34 0 001.077 10.921 21.052 21.052 0 011.471 2.155 155.87 155.87 0 0111.783 10.081c3.229 2.826 6.123 6.069 9.517 8.662 1.856 1.418 4.149 2.384 6.139 3.737m94.458-84.391c.759 1.829.999 3.832.692 5.788a4.693 4.693 0 001.175 4.558c.861.79-.037 4.044-1.009 5.075-1.814 1.926-2.385 4.404-2.993 6.855a6.507 6.507 0 00-.075 4.743c.981 1.997-2.233 13.646-1.225 17.963" stroke="#B3CBE6" stroke-opacity=".5" stroke-width="1.166" stroke-linecap="round" stroke-linejoin="round"/><path d="M349.062 103.851a17.346 17.346 0 011.668 3.225c.249.883-9.967 19.659-8.544 16.897a4.154 4.154 0 01-3.169 2.253c-3.938.836-6.05 4.23-6.309 8.463a9.496 9.496 0 01-1.708 4.668c-1.291 1.82-1.343 4.44-3.574 5.61a7.692 7.692 0 00-3.851 3.221 8.787 8.787 0 00-1.015 3.469c-1.194 1.632-.501 3.06 1.428 3.851.456.186 1.045.834 1.028 1.247a29.886 29.886 0 01-.591 3.857c-.027.151-.237.352-.193.419 1.608 2.458-.644 3.607-1.728 5.151m-210.551-2.786c.501.571.995 1.147 1.497 1.711 2.357.398 4.774.259 7.069-.408 4.185-.585 8.264 8.196 12.854 9.824 9.515 3.372 9.76.247 15.754 11.294 4.23.384 8.469.573 12.715.569a6.374 6.374 0 012.777 1.663 10.82 10.82 0 0110.323 3.835c-.117 1.849-.058 3.712-.011 5.566a11.125 11.125 0 01-1.016 4.741c-1.998 4.744-2.869 9.73-1.068 14.727a16.233 16.233 0 003.192 4.91c1.124 1.287 2.077.966 2.95-.602 1.244-2.229.681-2.296 3.64-1.281 3.062 1.051 9.477 22.44 12.168 26.583-.674 8.8 3.269 12.219 11.827 10.258.842-.389 1.717-.704 2.567-1.078 3.789-1.671 4.382-4.946 4.284-8.564" stroke="#B3CBE6" stroke-opacity=".5" stroke-width="2.333" stroke-linecap="round" stroke-linejoin="round"/><path d="M148.898 185.886c-3.015.669-9.226-2.028-11.44-.817-5.676.296-9.189 2.855-10.542 7.678a3.046 3.046 0 01-1.022 3.238c-2.467 1.792-2.415 1.858-.241 3.834.169.194.314.408.433.636m155.505-13.07a58.458 58.458 0 01-5.691 2.74 26.43 26.43 0 00-11.237 4.106 20.088 20.088 0 00-6.477 13.518 1.35 1.35 0 01-.267 1.234 1.333 1.333 0 01-1.173.467 23.43 23.43 0 00-13.889-1.47 7.451 7.451 0 01-6.475 2.459 3.674 3.674 0 00-4.348 2.843c-.22.97-1.347 1.732-2.061 2.585M549.972 98.709c-2.145.706-4.812-.158-6.432 2.138-3.139.011-5.63 1.874-7.474 5.588a16.074 16.074 0 01-3.604 3.076 32.135 32.135 0 00-4.771 4.184c-.681.606-1.497 1.075-2.123 1.732-2.271 2.395-5.654 3.103-7.876 5.863a9.057 9.057 0 01-8.63 2.906M380.12 55.871c2.372-.22 4.744.057 6.956-1.574.79-.581 3.065.019 4.114.808a8.807 8.807 0 006.065 1.828 2.542 2.542 0 012.794 1.718c2.415 5.963 11.493 8.315 13.27 15.426m-77.109 54.191a32.347 32.347 0 005.323 4.083c.817 1.854 2.463 2.659 4.05 3.705a22.024 22.024 0 013.486 3.771c3.039 3.294 10.489 4.719 14.77 5.579" stroke="#B3CBE6" stroke-opacity=".5" stroke-width="1.166" stroke-linecap="round" stroke-linejoin="round"/><path d="M566.038 69.902c-.889 1-1.91 1.875-3.035 2.6a3.73 3.73 0 00-2.334 2.213 364.472 364.472 0 01-3.211 9.21 15.906 15.906 0 01-1.515 3.413c-2.23 3.36-2.374 7.733-5.293 10.76a1.59 1.59 0 000 1.45c1.04 1.862.064 3.284-.89 4.727-1.562 2.361-3.235 4.658-4.673 7.091-.816 1.393-1.75 2.851-1.157 4.706-.272 3.213-2.393 5.153-6.363 5.819-2.378.626-5.254 1.038-4.96 4.662.011.136-.241.328-.408.42-2.217 1.202-2.721 3.451-3.417 5.579a4.541 4.541 0 01-4.082 2.783c-.817-.031-.817-.031-1.071-1.713" stroke="#B3CBE6" stroke-opacity=".5" stroke-width="1.166" stroke-linecap="round" stroke-linejoin="round"/><path d="M232.971 168.75c-2.689.875-5.579 1.318-7.695 3.443a529.989 529.989 0 01-32.762 39.721 193.214 193.214 0 01-8.807 8.243m269.88-164.285c-1.747 2.332-13.934 8.969-13.336 14.356a1.85 1.85 0 01-.826 1.456 53.915 53.915 0 01-8.363 4.013c-2.612.827-20.582-1.565-18.818 3.415" stroke="#B3CBE6" stroke-opacity=".5" stroke-width="2.333" stroke-linecap="round" stroke-linejoin="round"/><path d="M176.422 137.478a10.68 10.68 0 00-2.284 10.277c.349 6.854 15.797 5.13 20.062 7.076m322.352-77.755c1.882 2.064 1.722 6.772-.207 8.574a7.082 7.082 0 00-1.278 1.496c-1.572 2.636-3.017 5.195-6.174 6.532-1.784.76-2.924 2.91-4.582 4.12a25.932 25.932 0 00-11.274 9.198c1.659-4.946-6.092 13.211-5.748 12.519a53.449 53.449 0 00-2.826 7.683 35.674 35.674 0 002.135 10.259 9.511 9.511 0 001.252 2.152m-322.778-18.837a201.581 201.581 0 00-6.272 1.923c.383 2.698 1.617 3.84 3.703 3.426 16.499-1.401 5.313 3.833 12.422 10.716" stroke="#B3CBE6" stroke-opacity=".5" stroke-width="1.166" stroke-linecap="round" stroke-linejoin="round"/><path d="M200.628 132.552c18.246 2.858-7.028 20.022-6.052 23.79a3.657 3.657 0 00.055 4.912c2.585 1.326 3.357 2.494 2.966 4.707-.045.256-.544.434-.825.649" stroke="#B3CBE6" stroke-opacity=".5" stroke-width="1.166" stroke-linecap="round" stroke-linejoin="round"/><path d="M109.811 119.915c5.19-.993 2.52 12.503 2.077 14.118-.168.611-1.001 1.183-1.662 1.486-1.648.755 8.944 19.48 5.796 22.735-.632.653-1.312 1.261-1.919 1.936-.985 1.089-1.075 3.071-3.22 3.063-.355 0-.68.962-1.08 1.421a19.768 19.768 0 01-1.713 1.712 103.52 103.52 0 01-5.132 3.437c-1.351 2.15-4.082 2.224-5.783 3.855" stroke="#B3CBE6" stroke-opacity=".5" stroke-width="2.333" stroke-linecap="round" stroke-linejoin="round"/><path d="M94.817 128.481c-.092.235 2.187 11.224 2.557 11.382.37.157.907.831.817 1.019-4.068 8.959-2.335 20.697-4.664 30.009M303.224 21.602c-.214.428-.416.862-.644 1.283-.706 1.298-1.385 2.177-3.036.909a2.748 2.748 0 00-3.791 1.034c-2.969 5.326-10.491 4.956-15.447 4.057m-136.547 82.677c-1.224.77-2.354.534-2.498-.864-.263-2.551-1.94-4.484-2.52-6.851a12.592 12.592 0 01-.226-2.139c-.218-3.227.728-6.408.408-9.635-.045-.447-.325-1.158-.633-1.24-19.776-5.242-18.698-10.833-35.328.38M405.826 91c4.744 3.92 6.227 8.557 4.449 13.908a3.89 3.89 0 001.746 4.963c2.185 1.596 3.248 4.16 4.946 6.185a7.007 7.007 0 011.717 4.715 14.076 14.076 0 01-2.313 6.432c-.365 2.695-21.908 5.208-23.336 3.579a7.963 7.963 0 00-9.221.527 4.082 4.082 0 01-3.691 1.291 7.81 7.81 0 00-2.357.807" stroke="#B3CBE6" stroke-opacity=".5" stroke-width="1.166" stroke-linecap="round" stroke-linejoin="round"/><path d="M254.389 161.254c.358-.858.699-1.72 1.075-2.569-.663 1.496 17.049-7.266 19.296-9.62a1.095 1.095 0 011.026-.205c1.68 1.306 4.798 1.107 4.572 4.471.068.973.346 1.919.816 2.773 1.156 2.761 14.208-3.054 16.692-3.401 4.949-.705 10.467-1.326 15.414-2.185a12.315 12.315 0 0111.624-4.007" stroke="#B3CBE6" stroke-opacity=".5" stroke-width="2.333" stroke-linecap="round" stroke-linejoin="round"/><path d="M323.162 179.912c1.004 2.858 2.449 8.006 4.289 10.022 1.583.586 3.242.941 4.926 1.055a4.959 4.959 0 006.634-1.451c.735-.952 1.497-1.686 3.01-.924 1.999 1.006 10.772-2.275 13.472-1.869 1.856.28 3.713.569 5.569.854M514.417 13.464c-1.642-1.714-3.313-3.402-4.912-5.154-2.548-.748-4.551.256-6.009 3.013-.154.13-.272.38-.433.408-4.52.897-6.821 4.911-10.278 7.297m-83.323 86.75c-7.847 1.509-13.925 2.492-20.794 6.396-.952.537-1.023 1.235-1.082 2.177.843 3.868-.291 6.804-3.402 8.808-1.088.074-1.913.557-1.287 1.906m-71.96 131.932c-.857-2.142-1.747-4.271-2.534-6.439a1.516 1.516 0 01.409-1.251 8.933 8.933 0 00-2.425-8.559c-1.067-1.633-3.997-1.769-4.876-.457-.136.197-.348.46-.305.635a12.202 12.202 0 00-1.683 7.757 2.867 2.867 0 01.214 2.297c-2.801 7.224.913 8.114.913 14.801" stroke="#B3CBE6" stroke-opacity=".5" stroke-width="1.166" stroke-linecap="round" stroke-linejoin="round"/><path d="M318.219 184.172c.074 2.518.358 5.092-2.335 6.668-.293.173-.312.817-.448 1.251a6.54 6.54 0 01-3.419 4.516c-.873.392-.919 1.258-.881 2.124.036.437-.038.876-.215 1.277a24.96 24.96 0 01-.841 10.289c-.424 1.496-.872 2.993-1.275 4.501-.125.49-.197.992-.213 1.497.116 1.137.05 2.286-.196 3.402 1.434 1.354.544 2.492-.23 3.674a1.128 1.128 0 00-.206.841c1.058 2.784-1.497 4.521-1.996 6.853a1.972 1.972 0 01-1.248 1.246c-2.313.458-2.632 6.136-3.2 7.976M440.521 72.152a17.764 17.764 0 014.035 6.14 115.001 115.001 0 019.312 9.058c.29 2.387 2.041 3.49 4.861 3.65M246.893 36.38a21.48 21.48 0 005.307 8.668c1.007.512 1.345 1.984 1.496 3.523.214 3.5.231 7.01.049 10.513m53.977-8.567a50.627 50.627 0 00-9.437 7.266c-1.497 1.122-2.805 2.018-3.148 4.276-.272 1.833-1.981 3.452-3.052 5.17M159.503 92.07c-.428 2.713-.952 5.415-1.254 8.143-.595 5.415 1.254 15.188 1.254 20.988M546.331 55.23a16.013 16.013 0 016.647 7.785c.944 2.645 3.315 3.6 4.325 5.58a12.216 12.216 0 004.023 4.626m-249.962 35.341c-.143.999-.288 1.999-.427 2.994-.124.883-10.709 5.904-11.567 5.872a18.151 18.151 0 00-6.029 5.651 40.61 40.61 0 01-4.676 3.042" stroke="#B3CBE6" stroke-opacity=".5" stroke-width="1.166" stroke-linecap="round" stroke-linejoin="round"/><path d="M253.748 161.147c.358.392 1.023.787 1.019 1.177a12.423 12.423 0 01-4.374 3.795 12.424 12.424 0 01-5.618 1.403 35.753 35.753 0 00-4.523 2.722c-2.586 1.545-6.634-.056-7.065-2.779" stroke="#B3CBE6" stroke-opacity=".5" stroke-width="2.333" stroke-linecap="round" stroke-linejoin="round"/><path d="M217.973 76.648c-.878 4.064-10.148 13.36-15.208 13.923M569.249 37.45a23.05 23.05 0 01-7.058 4.093c-4.794 2.017-15.833 5.579-16.031 12.187-.085 2.811-1.889 4.49-3.713 6.18-2.921 2.702-8.996-3.257-12.389.892-1.089 1.337-2.042 2.811-3.25 4.033a684.937 684.937 0 00-10.64 8.426c-1.441 1.312-1.225 1.94.391 3.493m-221.046 77.217a9.95 9.95 0 01.434 9.213c-1.021 2.542-.015 5.939-.246 8.563-.203 2.291-.064 4.797-.992 6.781-.667 1.424-2.721 2.449-4.365 3.108-2.239.901-4.704 1.225-7.025 1.942a2.27 2.27 0 00-1.42 1.46c-.059.641-.795 1.758.544 2.134m151.438-47.229c-2.7.239-3.417 1.418-3.859 3.538-.618 2.963-1.964 5.469-4.938 6.597a29.23 29.23 0 01-4.047.715c-.4.089-.721.545-1.078.828m-247.107 65.297c-1.78 4.051-10.576 4.083-13.792 4.899-1.106.272-2.023.074-2.646 1.517a11.744 11.744 0 01-3.179 4.042 4.041 4.041 0 01-3.307.999c-1.173-.524-2.742-2.059-2.674-3.062-2.903-5.396-1.818-10.504 3.254-15.325M335.676 59.514c-1.11 2.423-.514 4.34 1.344 6.26a23.92 23.92 0 014.422 6.01 45.265 45.265 0 00.119 12.791c.175.343.32.7.433 1.069 1.111 3.13 3.597 4.403 6.642 4.926" stroke="#B3CBE6" stroke-opacity=".5" stroke-width="1.166" stroke-linecap="round" stroke-linejoin="round"/><path d="M563.677 41.521c.409 3.555.632 7.129.67 10.707.322 3.175-.975 4.812-4.31 5.142m-195.983 1.286a18.875 18.875 0 018.774 13.282c.171.418.317.846.438 1.281.527 1.437.211 2.292-1.497 2.137-2.641 1.995-3.213 4.925-1.714 8.788-.078 1.36 1.273 1.438 1.928 2.141M214.979 289.983a20.216 20.216 0 00-10.716-10.055c-.167-.09-.588.046-.612-.02-1.082-3.065-3.508-2.092-5.797-2.261a4.697 4.697 0 00-3.892 3.738c-2.313 2.028-2.305 4.834-2.791 7.521-.328 1.816-.967 3.575-1.467 5.361" stroke="#B3CBE6" stroke-opacity=".5" stroke-width="1.166" stroke-linecap="round" stroke-linejoin="round"/><path d="M411.819 79.004c-1.071.714-2.191 1.361-3.192 2.167a8.348 8.348 0 00-2.345 5.548 9.448 9.448 0 01-3.466 5.556 2.015 2.015 0 01-2.776.22 15.462 15.462 0 00-11.726-6.123 16.193 16.193 0 01-12.04-.978c-1.733-.471-3.794.244-4.011 1.971a4.4 4.4 0 01-2.016 2.964 49.937 49.937 0 00-11.877 6.81 8.8 8.8 0 01-5.666 4.14" stroke="#B3CBE6" stroke-opacity=".5" stroke-width="2.333" stroke-linecap="round" stroke-linejoin="round"/><path d="M300.868 240.932c-1.071.137-2.138.32-3.214.417-5.69.512-16.585 7.212-22.061 5.579" stroke="#B3CBE6" stroke-opacity=".5" stroke-width="1.166" stroke-linecap="round" stroke-linejoin="round"/><path d="M63.117 146.689c-7.43 3.827-8.507 8.762-3.23 14.807a21.193 21.193 0 012.8 2.331c.228.196.656.522.61.626-.816 1.885.787 3.482.545 5.379a23.595 23.595 0 00.2 6.619c.263 1.659 3.119 2.708 4.6 1.659a2.71 2.71 0 013.058-.184c-2.552-1.019 16.28 9.101 7.485 8.152-2.424-.261-4.99.745-7.268-.649a2.979 2.979 0 00-2.814-.226c-3.13 1.026-6.5 1.292-9.43 3.006-.51.298-1.272.147-1.906.255a4.478 4.478 0 00-1.905.451 16.497 16.497 0 00-6.032 7.893c-.056.172-.272.29-.418.433" stroke="#B3CBE6" stroke-opacity=".5" stroke-width="2.333" stroke-linecap="round" stroke-linejoin="round"/><path d="M420.814 49.446a17.913 17.913 0 0110.05 1.31c2.101 1.4 3.897 3.01 6.885 2.668 6.646-.825 10.638-4.65 11.975-11.474m91.681 18.635a51.29 51.29 0 00-1.962 11.36 2.409 2.409 0 01-.218 1.888c-2.293 2.757-3.705 6.532-8.098 6.928a5.225 5.225 0 00-4.074 2.1M250.32 98.062c.987-4.775 18.779-3.572 19.902.807a627.873 627.873 0 007.514 7.118m7.069-94.453c-1.497-2.703-2.449-5.852-5.372-7.466A150.335 150.335 0 01271.525.61m-37.268 76.896c-3.232-1.94-6.98-1.919-10.71-1.497-4.09.461-6.84-.143-10.928-.606-.109-.012-.282.532-.425.817M87.321 157.399c-.24-1.959-1.618-2.267-3.211-2.127-8.742.771 2.333 9.041 2.546 9.22 2.857 2.439 2.399 4.009 6.43 6.43a20.1 20.1 0 003.21 3.293c.356.071.451 1.46.665 2.245M197.844 69.152c-1.395 2.29-8.763 8.354-9.687 10.258-.346.715-1.237 1.166-1.88 1.737m199.411 70.468c-2.468 1.137-3.36 3.162-3.994 5.749-.419 1.711-1.664 3.266-2.072 5.16-.312 1.45-1.599 1.259-2.722.659M183.709 108.99c-.214-.143-.453-.437-.639-.408a17.77 17.77 0 00-12.011 4.447c-2.478 1.095-3.53 3.196-4.3 5.587-.158.491-.68.866-1.042 1.294" stroke="#B3CBE6" stroke-opacity=".5" stroke-width="1.166" stroke-linecap="round" stroke-linejoin="round"/><path d="M95.675 174.32c-2.715 2.993 3.101 11.413.177 13.658-.9 3.44-1.24 7.003-1.006 10.551-1.944 3.371-1.309 5.154 1.905 5.348" stroke="#B3CBE6" stroke-opacity=".5" stroke-width="2.333" stroke-linecap="round" stroke-linejoin="round"/><path d="M274.738 11.107c1.017-1.095 11.79.213 12.689 1.462.32.445 1.341.322 1.855.707a27.005 27.005 0 014.053 3.434c1.497 1.67 2.757 3.471 5.393 2.322m118.235 97.024c5.311-.454 7.944 1.98 7.901 7.3.519 2.603.671 5.266.45 7.911M56.906 151.186c-2.45-1.509-4.55-.106-6.618.901a9.58 9.58 0 00-2.37 2.105 4.237 4.237 0 01-4.72 1.278m318.18 31.487c.094.522.284 1.023.559 1.477 4.943 5.321 6.396 3.835 11.744 8.818.107.1.013.409.013.628m-49.692 33.628a10.091 10.091 0 01-5.997 2.177 4.938 4.938 0 00-1.713.611 12.409 12.409 0 00-3.594 1.552c-2.062 1.815-5.68.869-6.902 4.015m90.175-106.882a13.368 13.368 0 00-.659 6.857c1.331 7.284-3.583 10.282-8.981 11.528-.123.029-.349-.393-.528-.607M197.2 255.926a16.51 16.51 0 00-.594 12.392c.351 3 .335 6.031-.048 9.027m269.025-147.573a2.303 2.303 0 00-1.789-.253 2.307 2.307 0 00-1.425 1.109 22.092 22.092 0 01-7.315 8.709c-1.632.756-2.541 1.607-2.366 3.502a5.412 5.412 0 01-.6 1.924m-198.34-85.679a3.554 3.554 0 003.279 3.226 3.56 3.56 0 001.631-.264 9.615 9.615 0 016.598 1.361c1.568 2.089 2.671.8 3.919-.251a13.937 13.937 0 017.92-.863m-91.033-2.781c.01-.072-10.824-8.452-10.496-8.139m13.495 112.451a6.02 6.02 0 01-1.284 6.641l-4.714 4.71a.851.851 0 01-.212.109l.107.107m120.057-61.26c2.706 2.064-24.958-8.341-22.882-9.35a4.045 4.045 0 00-2.484 3.13 14.755 14.755 0 01-8.476 7.511M63.331 129.767c1.757 3.515 1.74 12.826-1.497 16.064M535.837 39.808a33.975 33.975 0 0010.709 10.28m-360.269 9.853c3.811 2.858 7.939 4.782 11.567 7.925m-22.384-8.568c.953 4.207 8.261 2.341 10.175.43m11.995 107.094c1.338 1.263 4.659 6.461 5.987 7.077.258.121.632.431.617.625.789 2.964 2.798 3.599 6.025 1.906.309-.039.58-.398.86-.618 2.134-1.683 2.96-1.478 4.285 1.072M517.63 55.337a17.054 17.054 0 0112.851 4.605m-93.602 63.614c-3.175.325-4.884 1.681-5.127 4.069.105 3.255 2.313 6.688 2.313 9.64-.008 5.67 4.355 8 8.224 10.629.371.251 1.892-.421 2.235-1.026 1.565-2.771 1.535-2.824 4.566-2.333.985.16 1.996.157 2.993.228M253.749 60.797c-2.547 2.042-6.124 2.314-8.37 4.912-1.873 2.17-7.757 4.327-7.305 7.944a1.581 1.581 0 01-.622 1.252c-2.687 1.717-3.629 4.425-4.237 7.317-.066.313.3.696.393 1.067.445 1.78.864 3.567 1.291 5.353m-88.034 137.085a13.87 13.87 0 01-9.421-1.72c-.377-.173-.816-.68-1.058-.595-2.002.738-3.715-.579-5.579-.68M421.03 133.41a7.145 7.145 0 01-7.284 4.784c-.556-.018-1.14.927-1.712 1.428m-180.028-37.914c-1.463 2.533-5.171 4.332-7.796 3.37-2.625-.962-4.286.272-6.019 1.769m104.097 59.761a9.518 9.518 0 012.212 7.528c-2.807 6.205.64 3.037-5.391 9a17.763 17.763 0 01-15.241-.893M291.66 67.865c-4.49.32-13.278-8.534-14.779-5.997m64.256-14.564a11.362 11.362 0 016.003 3.634c1.12.952 5.278 4.433 6.419 5.363m206.481 20.99a3.442 3.442 0 012.626 3.427c0 .642.622 1.309 1.021 1.922 1.124 1.727 2.245 3.457 3.44 5.132.45.48.944.916 1.475 1.303.588.553 1.361 1.047 1.656 1.736a6.34 6.34 0 01.061 2.33c-.714-.073-1.737.135-2.091-.26-2.52-2.815-4.843-1.52-7.366-.012-.876.524-.797 1.069-.816 1.77m-91.68-33.842c.143.357.436.727.409 1.069-.339 3.823 1.734 6.636 3.878 9.426M434.31 33.596c1.571 1.286 3.186 2.521 4.679 3.89.331.495.487 1.086.443 1.68.085 1.875-.273 3.787.64 5.579.123.341.123.714 0 1.056-.759 2.434-1.556 4.86-2.341 7.287m31.277 6.639c-1.928 1.928-3.766 3.958-5.832 5.724-.68.584-1.945.519-2.952.68a9.004 9.004 0 01-1.496.016M38.27 149.045c3.55 1.874 4.889 4.496 4.015 7.868a86.909 86.909 0 00-8.083 6.91M297.228 30.169a10.555 10.555 0 008.538.588c3.794-.157 5.584 1.714 5.37 5.614a11.987 11.987 0 01-2.392 3.157 25.91 25.91 0 00-1.818 8.04c-.577.7-.487 1.95-.702 2.95M102.528 91.212a3.316 3.316 0 01-.758 3.792 3.314 3.314 0 01-1.17.706c-2.294.658-2.89 1.601-2.57 4.07" stroke="#B3CBE6" stroke-opacity=".5" stroke-width="1.166" stroke-linecap="round" stroke-linejoin="round"/><path d="M94.388 173.249a73.412 73.412 0 00-7.014 3.515c-.706.441-.768 1.905-1.125 2.911" stroke="#B3CBE6" stroke-opacity=".5" stroke-width="2.333" stroke-linecap="round" stroke-linejoin="round"/><path d="M363.198 86.502c-.064-.058-2.275-7.978-3.213-9.854m60.83-27.202c.136.07-2.324 9.746-7.068 7.283m-258.741 62.328a42.53 42.53 0 00-4.319-4.019c-1.497-1.063-3.179-.567-4.677.378m76.888 137.937a5.967 5.967 0 00-5.813-2.449 18.31 18.31 0 01-5.111.099M575.033 80.932a2.58 2.58 0 00-2.778-.2c-2.373.953-4.718 1.986-7.076 2.986m-418.098 39.303a8.712 8.712 0 01-8.573.747c-.148-.055-.344-.242-.42-.197-2.45 1.422-4.491-1.022-6.87-.712-1.29.169-1.833-.785-1.497-2.087m136.871 12.422c-1.214 1.571-2.313 3.243-3.674 4.685a23.705 23.705 0 00-7.253 8.165" stroke="#B3CBE6" stroke-opacity=".5" stroke-width="1.166" stroke-linecap="round" stroke-linejoin="round"/><path d="M254.604 146.046a4.01 4.01 0 014.34 2.35c.272 2.872.8 5.716 1.225 8.573M506.92 95.712c.131.846.11 1.708-.061 2.546a3.733 3.733 0 00-.018 2.395 5.485 5.485 0 01-1.177 4.937c-2.041 2.313-1.959 2.392.184 4.258M310.721 237.506c2 2.284 3.981 4.583 6.016 6.838.381.29.81.513 1.267.658M183.706 99.139a48.962 48.962 0 00-5.354 9.425m20.133-40.054c-.918-.251 13.571 7.053 13.709 7.067m326.427-4.927l-7.712 5.57m-387.256 36.198a32.964 32.964 0 012.571 10.925m185.489-77.431a11.341 11.341 0 005.141 3.104c.288-.061.571-.136.857-.213M581.03 81.36c-.306-1.273-.384-2.502-1.905-3.265-2.722-1.374-3.972-.838-4.206 2.199m-222.215 21.415c-1.613-1.032-2.573-.93-3.154.664a18.373 18.373 0 00-5.199 6.19m94.885-54.19c.358 1.784.659 3.583 1.097 5.348a22.097 22.097 0 005.115 2.148M249.893 262.138a8.602 8.602 0 003.142 5.24c2.099 1.483 3.636 3.76 5.431 5.677.264.24.549.457.85.649M573.105 68.938c-2.408-1.808-4.501-.344-6.64.643M65.902 178.817v6.641m104.418-82.679c-.071.681-9.943 3.947-9.746 3.855m-5.14-60.401a38.273 38.273 0 018.317-.613 25.87 25.87 0 0111.602 5.326m277.591 64.257a9.762 9.762 0 01-1.633 5.418 7.543 7.543 0 00-1.048 4.219c-.01.596 1.175 1.211 1.819 1.819m-31.48 6.001c2.223-.216 4.446-.423 6.667-.622 1.395.308 2.827.41 4.252.301m-376.544 7.924a15.607 15.607 0 013.642 4.713m400.751-31.059c.39 1.868.475 3.667-1.06 5.151a2.53 2.53 0 00-.435.848c.161 2.828 1.374 3.97 3.639 3.426M301.939 24.814l4.069 5.569m59.76 152.933a6.79 6.79 0 01-4.07 3.642m90.604-59.975c.286.785.952 1.659.793 2.341-.831 3.584.52 6.703 1.777 9.868" stroke="#B3CBE6" stroke-opacity=".5" stroke-width="1.166" stroke-linecap="round" stroke-linejoin="round"/><path d="M87.536 179.888a6.83 6.83 0 00-6.426 2.356" stroke="#B3CBE6" stroke-opacity=".5" stroke-width="2.333" stroke-linecap="round" stroke-linejoin="round"/><path d="M464.944 115.846l-4.926.857m-.648 26.774c-2.071 1.473-4.235 2.53-6.854 1.497m-258.751 12.847a15.79 15.79 0 01-6.417 5.579m299.438-46.911l-4.713 1.497m-99.383-6.424c1.111 1.837 3.13 1.174 4.713 1.713m84.177-58.687c.655 2.101-.625 3.41-1.929 4.712M298.728 18.387a7.054 7.054 0 003.193 1.738c2.534 1.995 4.219 1.641 5.696-1.31m-42.516 94.031a7.158 7.158 0 013.641 3.642m-194.058 59.33c-1.347.328-2.993-.763-4.07.858m115.982-81.18c.735 1.175.239 7.682-2.892 4.713m300.294 27.847c-.817.275-1.598.647-2.326 1.109a7.91 7.91 0 00-1.316 1.89m-103.022 2.783c-.213.5-.416 1.006-.645 1.497-1.099 2.382-2.935 2.669-4.476.629a35.08 35.08 0 01-1.946-3.198m130.657-39.839c2.234-.464 4.279-.288 5.783 1.714m-141.796-5.783c1.6.8.765 2.46 1.286 3.641m-90.816 150.79l-.75 5.783M556.183 15.819l-.213 2.57M340.496 46.876a4.367 4.367 0 01-1.07.2c-1.864-.12-1.625.961-1.294 2.158.192.7.295 1.425.437 2.14" stroke="#B3CBE6" stroke-opacity=".5" stroke-width="1.166" stroke-linecap="round" stroke-linejoin="round"/><path d="M420.701 22.12c-1.388 0-2.642-.307-3.762-.92a6.847 6.847 0 01-2.622-2.542c-.627-1.094-.94-2.315-.94-3.662s.313-2.561.94-3.642a6.769 6.769 0 012.642-2.561c1.12-.614 2.374-.921 3.762-.921 1.04 0 2.001.173 2.881.52a5.974 5.974 0 012.242 1.521l-.941.94c-1.094-1.107-2.475-1.66-4.142-1.66-1.108 0-2.115.253-3.022.76a5.628 5.628 0 00-2.141 2.081c-.507.88-.761 1.868-.761 2.962s.254 2.081.761 2.962a5.629 5.629 0 002.141 2.08c.907.508 1.914.761 3.022.761 1.681 0 3.061-.56 4.142-1.68l.941.94a6.148 6.148 0 01-2.262 1.54c-.88.348-1.841.521-2.881.521zm11.525-10.726c1.374 0 2.428.347 3.162 1.04.733.681 1.1 1.695 1.1 3.042V22h-1.36v-1.64c-.321.546-.794.973-1.421 1.28-.614.307-1.348.46-2.201.46-1.174 0-2.108-.28-2.802-.84-.694-.56-1.041-1.301-1.041-2.222 0-.893.321-1.614.961-2.16.654-.548 1.688-.821 3.102-.821h3.342v-.64c0-.908-.254-1.595-.761-2.062-.507-.48-1.247-.72-2.221-.72a5.49 5.49 0 00-1.921.34 4.701 4.701 0 00-1.581.9l-.64-1.06c.533-.454 1.174-.8 1.921-1.04a7.297 7.297 0 012.361-.381zm-.5 9.585c.8 0 1.487-.18 2.061-.54.573-.373 1-.907 1.281-1.6v-1.722h-3.302c-1.801 0-2.702.627-2.702 1.881 0 .614.234 1.1.701 1.461.466.347 1.12.52 1.961.52zm21.749-9.585c1.321 0 2.354.38 3.102 1.14.76.761 1.14 1.882 1.14 3.363V22h-1.421v-5.963c0-1.094-.266-1.928-.8-2.502-.52-.573-1.261-.86-2.221-.86-1.094 0-1.955.34-2.582 1.02-.627.667-.94 1.595-.94 2.782V22h-1.421v-5.963c0-1.094-.267-1.928-.801-2.502-.52-.573-1.267-.86-2.241-.86-1.08 0-1.941.34-2.581 1.02-.627.667-.941 1.595-.941 2.782V22h-1.421V11.474h1.361v1.921a3.8 3.8 0 011.561-1.48c.667-.348 1.434-.521 2.301-.521.881 0 1.641.187 2.282.56.653.374 1.14.928 1.46 1.661a4.055 4.055 0 011.661-1.62c.734-.4 1.568-.601 2.502-.601zm13.518 0c.988 0 1.881.227 2.682.68a4.73 4.73 0 011.881 1.882c.454.813.68 1.74.68 2.781 0 1.054-.226 1.988-.68 2.802a4.868 4.868 0 01-1.881 1.9c-.787.44-1.681.661-2.682.661-.853 0-1.627-.173-2.321-.52a4.482 4.482 0 01-1.681-1.561v5.863h-1.421V11.474h1.361v2.081a4.396 4.396 0 011.681-1.6c.707-.374 1.501-.561 2.381-.561zm-.1 9.445c.734 0 1.401-.166 2.001-.5a3.598 3.598 0 001.401-1.46c.347-.628.521-1.341.521-2.142 0-.8-.174-1.507-.521-2.121a3.598 3.598 0 00-1.401-1.461 3.925 3.925 0 00-2.001-.52c-.747 0-1.42.173-2.021.52a3.788 3.788 0 00-1.401 1.46c-.333.614-.5 1.322-.5 2.122 0 .8.167 1.514.5 2.141a3.788 3.788 0 001.401 1.461c.601.334 1.274.5 2.021.5zm38.98 20.409l-10.284-17.811h20.567l-10.283 17.811z" fill="#F93C00"/></svg>