<svg width="153" height="49" fill="none" xmlns="http://www.w3.org/2000/svg"><path d="M9.981 19.556v-.135l-5.72-5.998 5.28-5.695V7.66H6.755L2.24 12.692V7.66H0v11.9h2.24v-5.273l4.973 5.27H9.98zm1.255-5.866c0 3.129 1.934 6.134 6.11 6.134 4.174 0 6.057-3.077 6.092-6.153.033-3.112-2.003-6.256-6.093-6.256-4.107.003-6.11 3.148-6.11 6.276zm9.996.018c-.034 1.955-1.086 4.063-3.887 4.063-2.8 0-3.852-2.09-3.903-4.045-.051-2.005 1.103-4.267 3.903-4.267s3.921 2.243 3.885 4.25h.002zm13.898 3.774h-6.11V7.657h-2.24v11.9h8.35v-2.075zm5.497-.17h6.211l1.002 2.243h2.444l-5.33-11.899h-2.443l-5.328 11.9h2.426l1.018-2.244zm3.106-7.157l2.206 5.066h-4.412l2.206-5.066zm-33.031 27.81L7.104 33.9a3.529 3.529 0 003.004-3.739c0-2.057-1.476-3.927-4.277-3.944-1.883 0-3.767-.017-5.65-.017v11.916h2.24V34.14h2.157l3.462 3.977h2.662v-.154zM2.42 32.117v-3.808h3.411a1.91 1.91 0 110 3.808h-3.41zm19.756-3.723v-2.176h-8.892v11.9h8.892v-2.21h-6.67v-2.686h6.433v-2.09h-6.432v-2.736l6.67-.002zm8.314 8.023c-1.442 0-2.817-.578-3.344-1.887l-1.867.968c.883 2.176 2.75 2.924 5.177 2.924 2.647 0 4.988-1.139 4.988-3.79 0-2.84-2.308-3.485-4.786-3.791-1.426-.17-2.648-.46-2.648-1.496 0-.884.798-1.581 2.461-1.581a3.404 3.404 0 012.818 1.326l1.781-.918c-.9-1.837-2.817-2.363-4.667-2.363-2.189.017-4.599 1.02-4.599 3.468 0 2.67 2.24 3.315 4.667 3.603 1.578.17 2.75.63 2.75 1.753.002 1.292-1.322 1.784-2.73 1.784zm17.242-8.023v-2.176h-8.893v11.9h8.893v-2.21h-6.673v-2.686h6.432v-2.09H41.06v-2.736l6.673-.002zm11.301 9.723h2.665v-.152L58.1 33.9a3.529 3.529 0 003.004-3.739c0-2.057-1.476-3.927-4.277-3.944-1.884 0-3.767-.017-5.651-.017v11.916h2.24V34.14h2.157l3.46 3.977zm-5.617-9.807h3.411a1.908 1.908 0 110 3.807h-3.411V28.31zm16.171 7.171l-3.58-9.264h-2.512l4.938 11.95h2.326l4.938-11.95h-2.511l-3.599 9.264zm9.146 2.636h8.892v-2.21h-6.67v-2.685h6.433v-2.09h-6.432v-2.736h6.67V26.22h-8.893v11.897zm30.21-8.575a8.87 8.87 0 00.644-.7c.087-.127.153-.267.194-.416v-.01c.026-.095.038-.194.036-.294.09-.85.237-3.242-.823-4.084a1.102 1.102 0 00-.5-.26 1.294 1.294 0 00-.269-.036 1.668 1.668 0 00-.992.32c.287-2.175 1.609-9.446 6.859-14.523a20.622 20.622 0 00-3.89 4.642 23.18 23.18 0 011.524-2.333 18.323 18.323 0 019.406-6.844 1.845 1.845 0 01-.249.01.702.702 0 00-.139.015c-.111.025-.23.073-.337.108a14.473 14.473 0 00-2.204.925 17.097 17.097 0 00-2.763 1.815 21.127 21.127 0 00-2.48 2.344 24.577 24.577 0 00-1.103 1.308c-.122.14-.234.286-.337.44a23.94 23.94 0 00-3.249 5.779 30.016 30.016 0 00-.829 2.015 24.701 24.701 0 013.179-6.954 20.334 20.334 0 019.294-7.766 3.845 3.845 0 011.63-.36 1.075 1.075 0 01.869.456.843.843 0 010 .82c-.095.032-.195.05-.295.057a.394.394 0 00.167-.304.32.32 0 00-.005-.031c-.059-.264-.481-.155-.694-.076a6 6 0 00-.647.283h-.004a6.231 6.231 0 00-.622.354c-9.322 5.496-7.529 12.916-7.529 12.916a24.33 24.33 0 011.6-4.588l2.5-1.589-1.641-.09a17.233 17.233 0 011.925-2.806c.349-.479.836-.84 1.396-1.032a.297.297 0 00.202-.107.072.072 0 00.009-.035.072.072 0 00-.008-.035.08.08 0 00-.024-.028.074.074 0 00-.033-.013.638.638 0 00.202-.283 4.301 4.301 0 012.501.176 3.317 3.317 0 00-1.427-1.858 3.64 3.64 0 01.106-.085c2.328.545 4.76.44 7.033-.302l-2.853-3.212L124.071 0a29.678 29.678 0 00-2.954 2.73 14.18 14.18 0 01-2.433 2.109c-.076.021-.152.046-.228.067a.306.306 0 00.099-.185.312.312 0 00-.415-.34 2.08 2.08 0 00-.825.674c-.85.786-1.812 1.44-2.855 1.941a17.976 17.976 0 00-3 2.084l-.329-1.597a11.521 11.521 0 01-3.985 1.165 12.371 12.371 0 00.279 5.087 17.848 17.848 0 00-2.942 9.795 17.1 17.1 0 002.748 9.048c.215.337.549.696.841.502.326-.216.235-.83.198-1.302a3.1 3.1 0 01.673-2.236zm-1.83-1.794c.255 0 .438.148.521.472.022.085.032.176.048.264 0 .013.004.035 0 .037-.015.01-.015-.008-.017-.02a.628.628 0 00-.717-.185.621.621 0 00-.217.146 1.161 1.161 0 00-.166.21c.008-.5.276-.924.548-.924zm.614 1.365a.88.88 0 01-.248.544.331.331 0 00-.13.186.998.998 0 00.315-.247 2.15 2.15 0 01-.119.532.64.64 0 01-.248.357c-.165.089-.354-.025-.477-.19a1.288 1.288 0 01-.238-.637.642.642 0 00.653.232.148.148 0 00.125-.139.377.377 0 01-.348-.006c.099-.041.116-.217.188-.317a1.11 1.11 0 01.112-.115.398.398 0 00.088-.17.394.394 0 000-.194.278.278 0 00-.075-.121.274.274 0 00-.127-.067.276.276 0 00-.3.16 1.427 1.427 0 00-.067.24.26.26 0 01-.125.186.92.92 0 01.037-.586c.163-.384.581-.512.823-.223a.665.665 0 01.116.213.89.89 0 01.045.362zm37.567 5.465c-.359-.157-.83.25-1.213.539a3.149 3.149 0 01-2.26.64 8.894 8.894 0 00-.944-.16 1.39 1.39 0 00-.456.062l-.009.004c-.095.03-.186.073-.269.129-.779.388-2.93 1.579-3.025 2.94-.022.172-.003.346.056.51.029.085.068.166.114.244.192.3.476.53.809.656-1.999.934-8.876 3.753-16.011 2.101 1.963.543 3.996.795 6.033.748-.933.05-1.868.045-2.801-.016a18.397 18.397 0 01-10.877-4.172c.053.064.1.132.143.202a.725.725 0 00.089.109c.081.079.185.152.275.226a14.394 14.394 0 001.973 1.346 17.15 17.15 0 003.03 1.333c1.085.358 2.197.628 3.325.809a24.246 24.246 0 001.704.216c.184.027.369.042.555.046 2.225.171 4.463.035 6.652-.405.692-.1 1.415-.23 2.156-.393a25.121 25.121 0 01-7.61 1.093 20.468 20.468 0 01-11.598-3.581 3.799 3.799 0 01-1.184-1.169 1.067 1.067 0 01-.084-.973.86.86 0 01.698-.44c.078.063.148.136.207.217a.395.395 0 00-.348.024.344.344 0 00-.024.021c-.191.192.128.485.311.621.189.141.385.27.589.389h.004a6.914 6.914 0 00.637.328c9.689 4.83 15.011-.674 15.011-.674a24.682 24.682 0 01-4.752 1.137l-2.696-1.233.809 1.421c-1.14.08-2.285.048-3.418-.096a2.904 2.904 0 01-1.628-.61.301.301 0 00-.202-.112.078.078 0 00-.035.011.076.076 0 00-.025.026.072.072 0 00-.004.07.637.637 0 00-.35-.018 4.234 4.234 0 01-1.201-2.185 3.307 3.307 0 00-.802 2.196c-.045-.013-.088-.03-.132-.045a12.908 12.908 0 00-4.051-5.718l-1.183 4.119-2.665 1.933a29.79 29.79 0 003.91.997 14.24 14.24 0 013.1.896c.059.052.121.102.179.155a.31.31 0 00-.39.37.31.31 0 00.115.177 2.1 2.1 0 001.011.329c1.123.285 2.197.737 3.187 1.339a18.003 18.003 0 003.385 1.384l-1.177 1.137a11.423 11.423 0 013.137 2.704 12.52 12.52 0 004.162-2.979 18.154 18.154 0 009.891-2.824 17.212 17.212 0 006.187-7.18c.181-.36.303-.833-.02-.971zm-4.003 3.676a.52.52 0 01.116-.69c.06-.066.135-.121.198-.182.011-.007.027-.022.031-.02.017.006 0 .017-.008.025-.067.44.076.69.472.801.089.02.179.028.27.026-.428.26-.932.266-1.079.039zm2.317-1.13a1.305 1.305 0 01-.411.54.632.632 0 00-.157-.674.148.148 0 00-.184-.03.376.376 0 01.183.295c-.088-.06-.247.02-.37.014a1.245 1.245 0 01-.158-.032.408.408 0 00-.356.123.266.266 0 00-.062.128.264.264 0 00.01.142.276.276 0 00.298.163c.082-.017.162-.042.24-.073a.267.267 0 01.225.004.932.932 0 01-.516.285c-.415.072-.748-.209-.633-.567a.628.628 0 01.118-.212.91.91 0 01.876-.316.337.337 0 00.227.008 1.016 1.016 0 00-.38-.13c.163-.084.336-.147.515-.188a.653.653 0 01.437.014c.166.094.171.313.098.506zm7.998-9.779c-.457-.97-.8-1.991-1.024-3.04.009-.08.016-.158.026-.235a.316.316 0 00.523.103.315.315 0 00.084-.19 2.061 2.061 0 00-.306-1.015 11.469 11.469 0 01-.706-3.365 17.766 17.766 0 00-.783-3.552l1.612.313c-.103-1.383.05-2.773.451-4.1a12.589 12.589 0 00-4.836-1.702 18.04 18.04 0 00-7.971-6.466 17.408 17.408 0 00-9.466-.961c-.397.067-.857.235-.79.578.075.382.68.535 1.134.682.776.239 1.429.77 1.82 1.483.119.293.254.58.404.86.084.13.19.243.312.337l.008.005c.079.061.167.11.26.146.755.41 2.921 1.465 4.111.817.173-.08.323-.203.434-.358a1.31 1.31 0 00.135-.234c.138-.326.168-.688.083-1.033 1.912 1.1 8.161 5.11 10.858 11.875a20.543 20.543 0 00-2.817-5.352c.573.733 1.101 1.5 1.582 2.296a18.11 18.11 0 012.742 11.256c.023-.079.052-.156.086-.232a.703.703 0 00.04-.134c.019-.11.02-.238.03-.354a13.917 13.917 0 00-.011-2.379 16.877 16.877 0 00-.622-3.235 21.092 21.092 0 00-1.225-3.175 25.32 25.32 0 00-.792-1.514 4.226 4.226 0 00-.278-.48 23.996 23.996 0 00-4.121-5.201 31.134 31.134 0 00-1.554-1.537 24.884 24.884 0 015.24 5.59 20.14 20.14 0 013.639 11.509 3.775 3.775 0 01-.292 1.632 1.073 1.073 0 01-.757.622.86.86 0 01-.763-.318c.008-.1.029-.199.062-.294a.388.388 0 00.218.27c.01.003.021.006.031.007.27.047.328-.38.337-.606a6.903 6.903 0 00-.105-1.41c-1.521-10.66-9.107-11.87-9.107-11.87a24.425 24.425 0 013.648 3.232l.515 2.904.715-1.47c.714.884 1.34 1.837 1.867 2.844a2.86 2.86 0 01.422 1.677.292.292 0 00.021.227.076.076 0 00.125-.01.628.628 0 00.184.297 4.237 4.237 0 01-1.126 2.225 3.355 3.355 0 002.276-.594c.014.043.025.087.037.13a12.852 12.852 0 00-2.426 6.564l4.083-1.38L153 31.104a29.25 29.25 0 00-1.394-3.759zM133.744 4.887a.528.528 0 01-.636.298c-.088-.013-.176-.039-.264-.058-.012-.004-.034-.01-.035-.014-.004-.017.013-.01.026-.008.404-.198.528-.455.395-.841a1.112 1.112 0 00-.135-.233c.464.199.756.608.651.856h-.002zm-2.378-.519a.647.647 0 01-.237-.364c-.018-.186.161-.315.361-.365a1.33 1.33 0 01.683.027.637.637 0 00-.467.51.147.147 0 00.081.167.37.37 0 01.139-.317c0 .106.157.19.223.295.024.047.045.096.063.146a.405.405 0 00.304.222.265.265 0 00.272-.144.26.26 0 00-.054-.303 1.381 1.381 0 00-.198-.154c-.067-.051-.128-.12-.125-.186a.93.93 0 01.531.259c.295.298.252.73-.109.84a.67.67 0 01-.243.025.903.903 0 01-.762-.538.335.335 0 00-.123-.19c.01.134.047.265.108.384a2.194 2.194 0 01-.445-.314h-.002z" fill="#fff"/></svg>