<svg width="111" height="55" fill="none" xmlns="http://www.w3.org/2000/svg"><path d="M2.407 32.198c1.415-.064.578.074 1.362.645.412.3 3.553-1.163 4.47.17.212.709.703 1.056 1.474 1.04a6.35 6.35 0 012.165-1.314" stroke="#F93C00" stroke-width=".461" stroke-linecap="round" stroke-linejoin="round"/><path d="M110.03 4.17a3.62 3.62 0 00-.485 1.427 1.941 1.941 0 01-1.098 1.477 11.97 11.97 0 00-1.89.47 5.606 5.606 0 01-2.325.453 3.52 3.52 0 01-2.127-1.621c-.249-.267-.391-.614-.723-.83a1.005 1.005 0 01-.311-.603c-.592-2.787-5.548.577-7.74-1.506M.745 33.28c-.05.418.044.842.269 1.199.138.2.245.421.39.615.864.41 1.772.72 2.705.923 1.051.23 1.875.717 2.974.503a1.87 1.87 0 011.513-.192.55.55 0 00.344.114c.585.128.702.402.352.821-.355.56-.93.673-1.512.724-.525.047-.786.371-1.004.782m46.272-25.553c.194.18.398.35.575.546.081.089.177.25.148.339.228.585.232 1.233.012 1.821-.413.369-.363.657.155.89a.955.955 0 01.419 1.31.522.522 0 00.034.667 14.67 14.67 0 001.907 1.459.86.86 0 00.423.177c.063 0 .163-.206.187-.33a10.84 10.84 0 011.403-.806c.234-.324.52-.348.76-.037.288.373.725.339 1.09.5a3.782 3.782 0 002.286.815c.087-.056.227-.032.344-.045" stroke="#F93C00" stroke-width=".922" stroke-linecap="round" stroke-linejoin="round"/><path d="M92.363 10.587a2.89 2.89 0 01-.7 1.504c-.366.455-.88.826-1.127 1.332-.31.632-.776 1.202-.863 1.955a1.083 1.083 0 01-.512.865.75.75 0 00-.399.606 3.254 3.254 0 01-1.772.851m-6.804 9.936c-.213.445-.086.901-.035 1.352.029.247.12.488.146.735.045.437-.18.76-.383 1.14-.303.565-.873 1.144-.473 1.92a.72.72 0 01-.8.536 3.242 3.242 0 01-1.432.196 4.765 4.765 0 01-1.935-.501c-.213-.096-.575.236-.57.536.014.928-.754 1.04-.357 2.087.583 1.543-.864 1.105-1.376 1.759-.134.172-.516.147-.787.212" stroke="#F93C00" stroke-width=".461" stroke-linecap="round" stroke-linejoin="round"/><path d="M96.77 4.132c.039.154.091.307.114.464a4.656 4.656 0 01-2.235 2.944 3.019 3.019 0 00-.467.458 1.93 1.93 0 00-.413.685 7.985 7.985 0 01-.871 1.551c-.262.39-.634.408-.952.038-.513-.596-1.125-.628-1.825-.464-.62.027-1.23.147-1.814.356a7.688 7.688 0 00-2.168.152 1.308 1.308 0 01-1.35.309c-.69-.182-1.345-.203-1.983.217-.162.107-.453.025-.685.013a1.678 1.678 0 01-.31-.074" stroke="#F93C00" stroke-width=".922" stroke-linecap="round" stroke-linejoin="round"/><path d="M46.67 38.73a2.19 2.19 0 01-.117 2.01c-.572.723-.588 1.511-.049 2.366-.038.44-.154.869-.342 1.268.03.385.046.773.04 1.16-.01.56-.353.901-.808 1.16-.298.17-.61.888-.542 1.236.055.279.24.39.58.348m-.077-36.048c-.101-.51-.43-.698-.927-.68a16.61 16.61 0 01-2.088-1.077c-.045-.025-.118-.011-.151-.043.265.255-2.854-1.906-2.825-1.891m2.358 11.326a3.49 3.49 0 00.194 1.971c.096.124.185.254.265.39a28.14 28.14 0 012.127 1.819c.583.51 1.105 1.095 1.718 1.563.335.256.748.43 1.108.674m17.048-15.23c.137.33.18.691.125 1.044a.847.847 0 00.212.823c.155.143-.007.73-.182.916-.327.347-.43.795-.54 1.237-.112.274-.117.58-.014.856.177.36-.403 2.463-.22 3.242" stroke="#F93C00" stroke-width=".461" stroke-linecap="round" stroke-linejoin="round"/><path d="M63.37 19.633c.12.183.221.378.301.582.045.16-1.799 3.549-1.542 3.05a.75.75 0 01-.572.407c-.71.15-1.092.763-1.139 1.527a1.715 1.715 0 01-.308.842c-.233.329-.242.802-.645 1.013a1.39 1.39 0 00-.695.581 1.59 1.59 0 00-.183.626c-.216.295-.09.553.258.695.082.034.188.151.185.226-.02.234-.056.466-.107.696-.005.027-.042.063-.034.075.29.444-.117.651-.312.93m-38.001-.503l.27.31c.426.07.862.046 1.276-.075.755-.105 1.492 1.48 2.32 1.773 1.717.609 1.761.045 2.843 2.039.764.07 1.529.103 2.295.102.19.056.363.16.502.3a1.952 1.952 0 011.863.693c-.021.334-.01.67-.002 1.004.002.296-.06.588-.184.856-.36.856-.518 1.756-.193 2.658.137.328.332.628.577.886.202.232.374.174.532-.108.225-.403.123-.415.657-.232.553.19 1.71 4.05 2.196 4.798-.121 1.588.59 2.206 2.135 1.852.152-.07.31-.127.463-.195.684-.302.79-.893.773-1.546" stroke="#F93C00" stroke-width=".922" stroke-linecap="round" stroke-linejoin="round"/><path d="M27.244 34.439c-.544.12-1.666-.366-2.065-.148-1.024.054-1.659.516-1.903 1.386a.55.55 0 01-.184.584c-.445.324-.436.336-.044.692a.59.59 0 01.079.115m28.066-2.358a10.89 10.89 0 01-1.027.495 4.77 4.77 0 00-2.028.74 3.626 3.626 0 00-1.17 2.44.242.242 0 01-.26.307 4.229 4.229 0 00-2.506-.265 1.344 1.344 0 01-1.169.444.662.662 0 00-.785.513c-.04.175-.243.313-.371.467M99.63 18.706c-.386.127-.868-.029-1.16.385-.567.002-1.016.339-1.35 1.01a2.896 2.896 0 01-.65.554c-.31.223-.6.476-.86.755-.123.11-.27.194-.384.313-.41.432-1.02.56-1.421 1.058a1.634 1.634 0 01-1.558.525M68.976 10.973c.428-.04.856.01 1.255-.284.143-.104.553.004.743.146.31.242.701.36 1.094.33a.46.46 0 01.504.31c.436 1.076 2.075 1.5 2.395 2.784M61.05 24.04c.295.279.617.526.962.737.147.335.444.48.73.669.236.201.447.43.63.68.548.595 1.893.852 2.665 1.007" stroke="#F93C00" stroke-width=".461" stroke-linecap="round" stroke-linejoin="round"/><path d="M102.531 13.506c-.161.18-.345.338-.548.47a.67.67 0 00-.421.399c-.186.556-.379 1.11-.58 1.662a2.886 2.886 0 01-.273.616c-.403.606-.429 1.396-.956 1.942a.288.288 0 000 .262c.188.336.012.592-.16.853-.282.426-.584.84-.844 1.28-.147.251-.316.514-.209.849-.049.58-.431.93-1.148 1.05-.43.113-.948.188-.895.842.002.024-.044.059-.074.075-.4.217-.491.623-.617 1.007a.818.818 0 01-.736.503c-.148-.006-.148-.006-.194-.31" stroke="#F93C00" stroke-width=".461" stroke-linecap="round" stroke-linejoin="round"/><path d="M42.418 31.346c-.486.158-1.007.238-1.39.622a95.743 95.743 0 01-5.912 7.169 34.902 34.902 0 01-1.59 1.487m48.709-29.65c-.315.42-2.515 1.619-2.407 2.59a.333.333 0 01-.149.264 9.734 9.734 0 01-1.51.724c-.47.15-3.714-.282-3.396.617" stroke="#F93C00" stroke-width=".922" stroke-linecap="round" stroke-linejoin="round"/><path d="M32.212 25.702a1.93 1.93 0 00-.413 1.855c.063 1.237 2.852.926 3.621 1.277M93.6 14.801c.339.372.31 1.222-.038 1.547-.09.08-.167.17-.23.27-.285.476-.545.938-1.115 1.18-.322.136-.528.524-.827.743a4.68 4.68 0 00-2.035 1.66c.3-.893-1.1 2.384-1.037 2.26a9.629 9.629 0 00-.51 1.386c.036.633.166 1.257.385 1.852.058.138.134.269.226.388m-58.256-3.399c-.379.109-.756.225-1.132.347.07.486.292.693.669.618 2.977-.253.959.692 2.242 1.934" stroke="#F93C00" stroke-width=".461" stroke-linecap="round" stroke-linejoin="round"/><path d="M36.58 24.813c3.293.516-1.268 3.614-1.092 4.294a.66.66 0 00.01.886c.466.24.606.45.535.85-.008.046-.098.078-.149.117" stroke="#F93C00" stroke-width=".461" stroke-linecap="round" stroke-linejoin="round"/><path d="M20.19 22.532c.936-.179.454 2.257.374 2.548-.03.11-.18.214-.3.269-.297.136 1.614 3.515 1.046 4.103-.114.118-.236.227-.346.35-.178.196-.194.554-.581.552-.064 0-.123.174-.195.256-.097.11-.2.213-.31.31-.302.215-.61.422-.925.62-.244.388-.737.401-1.044.696" stroke="#F93C00" stroke-width=".922" stroke-linecap="round" stroke-linejoin="round"/><path d="M17.483 24.079c-.016.042.395 2.025.462 2.054.067.028.163.15.147.184-.734 1.617-.421 3.735-.841 5.416M55.097 4.789c-.038.077-.075.156-.116.231-.127.235-.25.393-.548.165a.496.496 0 00-.684.186c-.536.961-1.894.895-2.788.732M26.316 21.025c-.22.14-.424.097-.45-.156-.048-.46-.35-.81-.455-1.236a2.286 2.286 0 01-.041-.386c-.04-.583.131-1.157.073-1.74-.008-.08-.058-.208-.114-.223-3.569-.946-3.374-1.955-6.376.069m54.662-.039c.856.707 1.124 1.544.803 2.51a.701.701 0 00.315.896c.395.288.587.75.893 1.116.205.236.315.539.31.85a2.542 2.542 0 01-.418 1.162c-.065.486-3.954.94-4.211.646a1.437 1.437 0 00-1.665.095.738.738 0 01-.666.233 1.41 1.41 0 00-.425.146" stroke="#F93C00" stroke-width=".461" stroke-linecap="round" stroke-linejoin="round"/><path d="M46.283 29.994c.065-.155.126-.31.194-.464-.12.27 3.077-1.311 3.483-1.736a.199.199 0 01.185-.037c.303.235.866.2.825.807.012.175.063.346.148.5.208.498 2.564-.551 3.012-.614.893-.127 1.89-.239 2.782-.394a2.223 2.223 0 012.098-.723" stroke="#F93C00" stroke-width=".922" stroke-linecap="round" stroke-linejoin="round"/><path d="M58.696 33.362c.181.515.442 1.444.774 1.808.286.106.585.17.889.19a.894.894 0 001.197-.261c.133-.172.27-.304.544-.167.36.182 1.944-.41 2.431-.337.335.05.67.102 1.005.154M93.214 3.32c-.297-.31-.598-.614-.887-.93-.46-.135-.821.046-1.084.544-.028.023-.05.068-.078.073-.816.162-1.232.887-1.855 1.317M74.271 19.981c-1.416.273-2.513.45-3.753 1.154-.172.098-.184.223-.195.393.152.699-.053 1.229-.614 1.59-.197.014-.345.1-.232.344M56.489 47.273c-.155-.386-.315-.77-.457-1.162a.273.273 0 01.073-.226 1.61 1.61 0 00-.437-1.544c-.193-.295-.722-.32-.88-.083-.025.036-.063.083-.055.115-.255.42-.362.912-.304 1.4a.516.516 0 01.038.414c-.505 1.304.165 1.465.165 2.672" stroke="#F93C00" stroke-width=".461" stroke-linecap="round" stroke-linejoin="round"/><path d="M57.804 34.13c.013.454.064.919-.422 1.203-.052.031-.056.147-.08.226a1.182 1.182 0 01-.618.815c-.157.07-.165.227-.159.383a.476.476 0 01-.038.23 4.524 4.524 0 01-.152 1.858c-.077.27-.158.54-.23.812a1.258 1.258 0 00-.039.27c.021.206.01.413-.035.614.259.245.098.45-.042.663a.202.202 0 00-.037.152c.191.503-.27.816-.36 1.237a.354.354 0 01-.225.225c-.418.082-.475 1.107-.578 1.44m25.088-30.346c.317.315.565.692.728 1.108.59.513 1.152 1.059 1.68 1.635.053.431.37.63.878.659M44.93 7.456c.19.59.518 1.127.958 1.564.182.093.243.358.27.636.039.632.042 1.265.009 1.897m9.743-1.545a9.14 9.14 0 00-1.704 1.311c-.27.203-.506.364-.568.772-.05.33-.358.623-.551.933m-23.929 4.483c-.078.49-.172.978-.227 1.47-.107.977.227 2.741.227 3.788m69.816-11.907c.542.324.964.818 1.199 1.405.171.477.599.65.781 1.007.167.335.417.623.726.835m-45.114 6.378l-.077.54c-.022.16-1.932 1.066-2.087 1.06a3.268 3.268 0 00-1.088 1.02c-.269.203-.55.386-.844.55" stroke="#F93C00" stroke-width=".461" stroke-linecap="round" stroke-linejoin="round"/><path d="M46.167 29.974c.065.071.185.143.184.213a2.245 2.245 0 01-1.803.938 6.464 6.464 0 00-.816.491c-.467.28-1.198-.01-1.276-.501" stroke="#F93C00" stroke-width=".922" stroke-linecap="round" stroke-linejoin="round"/><path d="M39.711 14.723c-.158.734-1.831 2.412-2.745 2.513m66.144-9.587c-.378.32-.809.57-1.274.738-.865.364-2.858 1.007-2.894 2.2-.015.507-.34.81-.67 1.116-.527.487-1.623-.588-2.236.16-.196.242-.368.508-.586.728-.645.5-1.285 1.008-1.92 1.521-.26.237-.221.35.07.63M53.706 28.679a1.795 1.795 0 01.078 1.663c-.184.458-.003 1.072-.044 1.545-.037.414-.012.866-.18 1.224-.12.257-.49.442-.787.561-.404.163-.85.221-1.268.35a.412.412 0 00-.257.264c-.01.116-.143.317.099.385m27.332-8.524c-.488.043-.617.256-.697.639-.111.534-.354.987-.891 1.19a5.27 5.27 0 01-.73.13c-.073.015-.13.098-.195.149M31.567 40.04c-.321.731-1.909.737-2.489.884-.2.05-.365.014-.478.274-.135.283-.33.532-.573.73a.73.73 0 01-.597.18c-.212-.095-.495-.372-.483-.553-.524-.974-.328-1.896.587-2.766m33.42-27.158c-.2.438-.093.784.243 1.13.32.318.59.684.798 1.085a8.176 8.176 0 00.021 2.308c.032.062.058.127.078.193.201.565.65.795 1.2.89" stroke="#F93C00" stroke-width=".461" stroke-linecap="round" stroke-linejoin="round"/><path d="M102.104 8.384c.074.642.114 1.287.121 1.932.058.573-.176.869-.778.928m-35.371.232a3.406 3.406 0 011.583 2.397c.031.076.057.153.08.232.094.259.037.413-.27.385-.478.36-.58.889-.31 1.586-.014.246.23.26.348.387M39.17 53.227a3.648 3.648 0 00-1.934-1.815c-.03-.016-.106.009-.11-.003-.195-.553-.633-.378-1.046-.408a.847.847 0 00-.703.674c-.417.366-.416.873-.503 1.358-.06.328-.175.645-.265.967" stroke="#F93C00" stroke-width=".461" stroke-linecap="round" stroke-linejoin="round"/><path d="M74.697 15.149c-.194.129-.396.246-.577.39-.26.27-.411.627-.423 1.002a1.706 1.706 0 01-.625 1.003.364.364 0 01-.501.04 2.79 2.79 0 00-2.117-1.105c-.72.223-1.498.16-2.173-.177-.313-.085-.684.044-.724.356a.792.792 0 01-.363.535 9.013 9.013 0 00-2.144 1.229 1.59 1.59 0 01-1.023.747" stroke="#F93C00" stroke-width=".922" stroke-linecap="round" stroke-linejoin="round"/><path d="M54.672 44.374c-.193.025-.386.058-.58.075-1.027.093-2.993 1.302-3.982 1.007" stroke="#F93C00" stroke-width=".461" stroke-linecap="round" stroke-linejoin="round"/><path d="M11.762 27.365c-1.341.69-1.535 1.581-.583 2.672.18.126.35.266.505.42.042.036.119.095.11.114-.147.34.143.628.099.97-.044.399-.032.8.036 1.195.047.3.563.489.83.3a.489.489 0 01.552-.034c-.46-.184 2.938 1.643 1.351 1.472-.437-.047-.9.134-1.312-.117a.537.537 0 00-.508-.041c-.565.185-1.173.233-1.702.542-.092.054-.229.027-.344.046a.806.806 0 00-.343.082 2.978 2.978 0 00-1.089 1.424c-.01.031-.05.053-.075.078" stroke="#F93C00" stroke-width=".922" stroke-linecap="round" stroke-linejoin="round"/><path d="M76.32 9.814a3.233 3.233 0 011.814.237c.38.252.703.543 1.243.481 1.2-.149 1.92-.84 2.161-2.07m16.547 3.363a9.258 9.258 0 00-.354 2.05.435.435 0 01-.04.34c-.413.498-.668 1.18-1.461 1.25a.944.944 0 00-.735.38m-49.946 2.743c.178-.861 3.39-.644 3.592.146.448.432.9.86 1.356 1.285m1.276-17.047c-.27-.488-.442-1.056-.97-1.348A27.13 27.13 0 0149.376 1M42.65 14.879c-.584-.35-1.26-.346-1.933-.27-.738.083-1.235-.026-1.972-.11-.02-.002-.051.096-.077.148M16.13 29.298c-.043-.354-.291-.41-.579-.384-1.578.139.421 1.631.46 1.664.515.44.432.723 1.16 1.16.17.22.364.42.58.595.064.013.08.263.12.405m18.207-19.367c-.252.413-1.582 1.508-1.749 1.851-.062.13-.223.21-.339.314m35.99 12.718c-.445.205-.606.57-.72 1.038-.076.308-.3.59-.374.931-.056.262-.289.227-.492.119M33.527 20.56c-.039-.025-.082-.078-.116-.073a3.208 3.208 0 00-2.168.803c-.447.198-.637.577-.776 1.008-.028.089-.122.156-.188.234" stroke="#F93C00" stroke-width=".461" stroke-linecap="round" stroke-linejoin="round"/><path d="M17.638 32.352c-.49.54.56 2.06.032 2.465a5.973 5.973 0 00-.182 1.904c-.35.609-.236.93.344.965" stroke="#F93C00" stroke-width=".922" stroke-linecap="round" stroke-linejoin="round"/><path d="M49.956 2.895c.183-.198 2.128.038 2.29.263.058.08.242.059.335.128.263.182.508.39.731.62.27.301.498.626.974.419m21.339 17.511c.959-.082 1.434.357 1.426 1.317.094.47.121.95.081 1.428m-66.491 3.596c-.442-.272-.821-.02-1.194.163-.163.102-.308.23-.428.38a.765.765 0 01-.852.23m57.426 5.682a.782.782 0 00.1.267c.893.96 1.155.692 2.12 1.591.02.018.003.074.003.113m-8.969 6.07a1.823 1.823 0 01-1.083.393.891.891 0 00-.309.11c-.23.059-.448.153-.648.28-.372.328-1.025.157-1.246.725M71.836 24.89a2.412 2.412 0 00-.119 1.238c.24 1.315-.647 1.856-1.62 2.081-.023.005-.064-.07-.096-.11M35.962 47.08a2.979 2.979 0 00-.108 2.236c.064.542.06 1.089-.008 1.63M84.4 24.311a.419.419 0 00-.58.155 3.989 3.989 0 01-1.32 1.572c-.295.136-.459.29-.427.632a.978.978 0 01-.109.347M46.167 11.554a.642.642 0 00.887.534c.413-.064.836.023 1.19.246.283.377.483.144.708-.045a2.51 2.51 0 011.43-.156m-16.431-.502a96.617 96.617 0 00-1.894-1.469m2.436 20.296a1.087 1.087 0 01-.232 1.198l-.85.85a.148.148 0 01-.039.02l.02.02M55.06 21.488c.488.373-4.505-1.505-4.13-1.687a.73.73 0 00-.449.565 2.666 2.666 0 01-1.53 1.356M11.8 24.311c.318.634.315 2.315-.27 2.9M97.08 8.074c.5.754 1.16 1.387 1.932 1.856M33.99 11.708c.688.516 1.433.863 2.088 1.43m-4.04-1.546c.172.76 1.491.422 1.836.077m2.166 19.329c.24.228.84 1.166 1.08 1.277.046.022.114.078.111.113.142.535.505.65 1.087.344.056-.007.105-.072.156-.111.385-.304.534-.267.773.193m54.546-21.937a3.08 3.08 0 012.32.832M79.22 23.19c-.573.058-.882.303-.926.734.02.588.418 1.207.418 1.74-.002 1.023.786 1.444 1.484 1.918.067.046.342-.076.404-.185.282-.5.277-.51.824-.42.177.028.36.027.54.04M46.167 11.863c-.46.369-1.105.418-1.51.887-.338.391-1.4.78-1.319 1.433a.287.287 0 01-.112.226c-.485.31-.655.8-.765 1.321-.011.056.055.126.071.192.08.322.156.645.233.967M26.877 41.63a2.503 2.503 0 01-1.7-.31c-.068-.032-.147-.124-.191-.108-.361.133-.67-.105-1.007-.123m52.38-16.121a1.289 1.289 0 01-1.315.863c-.1-.003-.206.168-.309.258m-32.491-6.842c-.264.457-.934.782-1.407.608-.474-.173-.774.05-1.087.32M58.538 30.96a1.715 1.715 0 01.4 1.359c-.508 1.12.115.548-.974 1.624a3.206 3.206 0 01-2.75-.161M53.01 13.139c-.81.057-2.396-1.54-2.667-1.083M61.94 9.428c.421.099.8.328 1.084.656.202.172.952.8 1.158.968m37.266 3.788a.625.625 0 01.474.618c0 .116.112.236.184.347.203.311.405.624.621.926.081.086.17.165.266.235.106.1.246.19.299.313.03.139.033.281.011.42-.129-.012-.314.025-.377-.046-.455-.508-.875-.274-1.33-.002-.158.095-.144.193-.147.32m-16.547-6.108c.026.065.079.131.074.193-.061.69.313 1.198.7 1.701m-6.92-6.803c.284.232.575.455.844.702a.48.48 0 01.08.303c.016.338-.049.683.116 1.007a.282.282 0 010 .19c-.137.44-.281.877-.423 1.316m5.646 1.198c-.348.348-.68.714-1.053 1.033-.123.105-.351.094-.533.123-.09.008-.18.009-.27.002M7.278 27.79c.64.338.882.811.724 1.42-.511.385-.998.802-1.459 1.247M54.015 6.335a1.907 1.907 0 001.541.106c.685-.028 1.008.31.97 1.013a2.16 2.16 0 01-.432.57 4.68 4.68 0 00-.328 1.451c-.105.126-.088.352-.127.533m-36.764 7.344a.598.598 0 01-.348.812c-.414.119-.521.289-.464.734" stroke="#F93C00" stroke-width=".461" stroke-linecap="round" stroke-linejoin="round"/><path d="M17.407 32.159c-.433.189-.856.4-1.267.635-.127.08-.139.344-.203.525" stroke="#F93C00" stroke-width=".922" stroke-linecap="round" stroke-linejoin="round"/><path d="M65.922 16.502c-.012-.01-.411-1.44-.58-1.779m10.979-4.909c.025.013-.42 1.76-1.276 1.316M28.346 22.378a7.684 7.684 0 00-.78-.726c-.27-.192-.573-.102-.843.069M40.6 46.616a1.077 1.077 0 00-1.05-.442 3.311 3.311 0 01-.922.018m65.526-30.695a.467.467 0 00-.501-.036c-.429.172-.852.358-1.278.539m-75.459 7.093a1.574 1.574 0 01-1.547.135c-.027-.01-.063-.043-.076-.035-.442.256-.81-.185-1.24-.129-.233.03-.331-.142-.27-.377m24.703 2.243c-.22.283-.418.585-.663.845a4.278 4.278 0 00-1.31 1.473" stroke="#F93C00" stroke-width=".461" stroke-linecap="round" stroke-linejoin="round"/><path d="M46.322 27.249a.724.724 0 01.784.424c.049.518.144 1.031.22 1.547M91.86 18.164c.024.153.02.308-.01.46a.674.674 0 00-.003.432.99.99 0 01-.213.891c-.368.418-.354.432.033.769M56.45 43.755c.361.413.72.828 1.087 1.235a.757.757 0 00.229.119m-24.24-26.326c-.384.53-.708 1.1-.966 1.7m3.634-7.228c-.166-.045 2.449 1.273 2.474 1.275m58.915-.889l-1.393 1.006M26.297 21.18c.267.625.424 1.292.464 1.97M60.239 9.177c.253.267.574.46.928.56.052-.01.103-.024.155-.038m43.915 5.876c-.055-.23-.069-.452-.344-.59-.492-.248-.717-.151-.76.397m-40.106 3.864c-.291-.186-.464-.167-.569.12-.392.298-.712.68-.938 1.117m17.125-9.78c.065.322.119.647.198.966.29.168.6.298.924.388M45.472 48.201c.067.374.268.71.567.946.379.268.656.679.98 1.025.048.043.1.082.154.117m56.634-36.956c-.435-.327-.813-.062-1.2.116M12.265 33.164v1.199M31.11 19.44c-.013.123-1.794.712-1.759.696m-.928-10.902a6.91 6.91 0 011.501-.11c.768.14 1.488.47 2.094.96m50.101 11.598c0 .348-.102.688-.295.978-.136.23-.202.494-.19.761 0 .108.213.219.33.329m-5.682 1.083c.401-.039.802-.076 1.203-.112.252.055.51.074.767.054m-67.959 1.43c.272.239.495.528.658.851m72.328-5.606c.07.337.085.662-.192.93a.455.455 0 00-.078.153c.029.51.248.716.656.618m-28.8-17.782l.735 1.005m10.786 27.601a1.226 1.226 0 01-.735.658m16.352-10.825c.052.142.172.3.144.423-.15.647.093 1.21.32 1.78" stroke="#F93C00" stroke-width=".461" stroke-linecap="round" stroke-linejoin="round"/><path d="M16.17 33.357a1.233 1.233 0 00-1.16.425" stroke="#F93C00" stroke-width=".922" stroke-linecap="round" stroke-linejoin="round"/><path d="M84.285 21.798l-.89.155m-.115 4.832c-.375.266-.765.457-1.239.27m-46.698 2.319a2.85 2.85 0 01-1.16 1.008m54.045-8.468l-.852.27M69.44 21.025c.2.332.565.212.85.31m15.193-10.593c.118.38-.113.616-.349.851M54.286 4.208c.161.154.36.262.576.314.457.36.761.296 1.028-.236m-7.674 16.971c.294.13.528.364.658.658M13.85 32.622c-.243.06-.54-.138-.735.155m20.933-14.652c.133.213.043 1.388-.522.852m54.199 5.025a1.93 1.93 0 00-.42.2 1.428 1.428 0 00-.239.342m-18.592.501c-.039.09-.076.182-.117.27-.198.43-.53.482-.808.114a6.326 6.326 0 01-.352-.577m23.581-7.19c.404-.084.773-.052 1.045.31M66.23 16.927c.29.145.139.445.233.659M50.072 44.8l-.136 1.044m50.816-42.099l-.039.466M61.824 9.35a.789.789 0 01-.193.036c-.337-.021-.294.174-.234.39.035.127.053.258.079.387" stroke="#F93C00" stroke-width=".461" stroke-linecap="round" stroke-linejoin="round"/></svg>