<svg width="433" height="108" fill="none" xmlns="http://www.w3.org/2000/svg"><g opacity=".4" filter="url(#filter0_b)"><path d="M427.077 81.903c-7.888-13.557-15.775-29.373-27.418-39.54-7.136-6.026-24.038-13.557-34.179-9.038-7.512 1.883-13.897 5.648-21.784 7.908-9.39 3.012-18.028 3.012-27.418 7.155-9.765 4.519-19.155 4.895-29.296 7.154-18.028 3.766-33.052-1.13-46.198-13.556-10.516-9.791-24.413-19.205-37.934-25.23-7.887-3.39-12.019-3.766-19.906-6.402-1.127-.377-6.761-2.636-8.263-3.39-4.507-2.635-9.766-3.012-15.024-3.388-3.005-.377-6.76 0-9.765.376-2.629.377-5.258 1.883-7.887 2.26-14.273 2.259-27.419-8.285-42.066-5.65C90.549 2.07 82.286 8.849 75.9 15.25c-5.258 5.272-9.39 11.674-17.653 12.804-7.136.753-14.648-.377-21.033-2.636-2.63-1.13-4.883-2.636-7.512-3.766-2.629-1.13-5.258-1.13-9.014-1.506-4.883 0-10.14-1.13-14.648 1.13C1.534 23.533.031 28.052.407 32.947c.751 13.18 5.259 25.607 18.404 30.502 6.385 2.26 13.897 2.26 20.658 2.636 9.014.377 16.901-2.259 25.54-3.012 3.756-.377 7.136-.753 10.892 0 5.258 1.13 10.516 2.636 16.15 1.883 8.263-.753 16.15-4.142 22.911-9.414 7.512-6.026 12.019-14.31 20.657-18.83 6.386-3.388 14.273-7.154 21.785-7.53 4.507 0 10.516-.754 19.53 2.635 7.512 2.636 14.273 7.532 21.784 10.921 7.512 3.39 14.273 7.532 20.282 12.803 11.644 10.168 25.54 20.712 40.188 25.23 19.907 6.026 36.808-3.388 55.588-9.79 8.638-3.013 17.277-4.519 26.666-4.142 9.015.376 17.653 4.895 26.292 6.025 2.253.376 10.141 1.506 14.648 3.766 12.394 6.025 17.277 16.192 27.042 25.23 4.507 4.142 13.897 8.284 19.155 3.012 7.136-7.154 2.254-16.945-1.502-22.97zM155.901 28.806h1.503-1.503z" fill="#fff"/></g><defs><filter id="filter0_b" x="-19.648" y="-19.863" width="471.878" height="147.22" filterUnits="userSpaceOnUse" color-interpolation-filters="sRGB"><feFlood flood-opacity="0" result="BackgroundImageFix"/><feGaussianBlur in="BackgroundImage" stdDeviation="10"/><feComposite in2="SourceAlpha" operator="in" result="effect1_backgroundBlur"/><feBlend in="SourceGraphic" in2="effect1_backgroundBlur" result="shape"/></filter></defs></svg>