<svg width="57" height="50" fill="none" xmlns="http://www.w3.org/2000/svg"><circle cx="35.5" cy="21.5" r="11.5" fill="#FFB900"/><path stroke="#F25022" stroke-width="2" stroke-linecap="round" stroke-linejoin="round" d="M55 21h-4m-30 0h-4"/><path stroke="#FFB900" stroke-width="2" stroke-linecap="round" stroke-linejoin="round" d="M55 21h-4m-30 0h-4"/><g clip-path="url(#clip0)"><path stroke="#FFB900" stroke-width="2" stroke-linecap="round" stroke-linejoin="round" d="M52.454 30.5l-3.464-2"/></g><g clip-path="url(#clip1)"><path stroke="#FFB900" stroke-width="2" stroke-linecap="round" stroke-linejoin="round" d="M23.01 13.5l-3.464-2"/></g><g clip-path="url(#clip2)"><path stroke="#FFB900" stroke-width="2" stroke-linecap="round" stroke-linejoin="round" d="M45.5 37.454l-2-3.464"/></g><g clip-path="url(#clip3)"><path stroke="#FFB900" stroke-width="2" stroke-linecap="round" stroke-linejoin="round" d="M28.5 8.009l-2-3.464"/></g><path stroke="#FFB900" stroke-width="2" stroke-linecap="round" stroke-linejoin="round" d="M36 40v-4"/><g clip-path="url(#clip4)"><path stroke="#FFB900" stroke-width="2" stroke-linecap="round" stroke-linejoin="round" d="M36 6V2"/></g><g clip-path="url(#clip5)"><path stroke="#FFB900" stroke-width="2" stroke-linecap="round" stroke-linejoin="round" d="M26.5 37.454l2-3.464"/></g><g clip-path="url(#clip6)"><path stroke="#FFB900" stroke-width="2" stroke-linecap="round" stroke-linejoin="round" d="M43.5 8.009l2-3.464"/></g><g clip-path="url(#clip7)"><path stroke="#FFB900" stroke-width="2" stroke-linecap="round" stroke-linejoin="round" d="M19.546 30.5l3.464-2"/></g><g clip-path="url(#clip8)"><path stroke="#FFB900" stroke-width="2" stroke-linecap="round" stroke-linejoin="round" d="M48.99 13.5l3.464-2"/></g><path fill-rule="evenodd" clip-rule="evenodd" d="M12.985 43c-.537.078-1.086.118-1.645.118C5.077 43.118 0 38.041 0 31.778c0-6.262 5.077-11.34 11.34-11.34.483 0 .959.03 1.425.09C14.427 15.57 19.108 12 24.624 12c6.906 0 12.504 5.598 12.504 12.504 0 .618-.044 1.224-.13 1.818A8.409 8.409 0 1134.993 43h-22.01z" fill="#fff"/><path stroke="#fff" stroke-width="2" stroke-linecap="round" d="M6.64 48.632l5.992-10.272M26.64 48.632l5.992-10.272"/><defs><clipPath id="clip0"><rect x="48.258" y="25.768" width="8" height="4" rx="2" transform="rotate(30 48.258 25.768)" fill="#fff"/></clipPath><clipPath id="clip1"><rect x="18.814" y="8.768" width="8" height="4" rx="2" transform="rotate(30 18.814 8.768)" fill="#fff"/></clipPath><clipPath id="clip2"><rect x="44.232" y="31.258" width="8" height="4" rx="2" transform="rotate(60 44.232 31.258)" fill="#fff"/></clipPath><clipPath id="clip3"><rect x="27.232" y="1.813" width="8" height="4" rx="2" transform="rotate(60 27.232 1.813)" fill="#fff"/></clipPath><clipPath id="clip4"><rect x="38" width="8" height="4" rx="2" transform="rotate(90 38 0)" fill="#fff"/></clipPath><clipPath id="clip5"><rect x="31.232" y="33.258" width="8" height="4" rx="2" transform="rotate(120 31.232 33.258)" fill="#fff"/></clipPath><clipPath id="clip6"><rect x="48.232" y="3.813" width="8" height="4" rx="2" transform="rotate(120 48.232 3.813)" fill="#fff"/></clipPath><clipPath id="clip7"><rect x="25.742" y="29.232" width="8" height="4" rx="2" transform="rotate(150 25.742 29.232)" fill="#fff"/></clipPath><clipPath id="clip8"><rect x="55.187" y="12.232" width="8" height="4" rx="2" transform="rotate(150 55.187 12.232)" fill="#fff"/></clipPath></defs></svg>