<svg width="42" height="41" fill="none" xmlns="http://www.w3.org/2000/svg"><circle cx="20.5" cy="21.5" r="11.5" fill="#FFB900"/><path stroke="#F25022" stroke-width="2" stroke-linecap="round" stroke-linejoin="round" d="M40 21h-4M6 21H2"/><path stroke="#FFB900" stroke-width="2" stroke-linecap="round" stroke-linejoin="round" d="M40 21h-4M6 21H2"/><g clip-path="url(#clip0)"><path stroke="#FFB900" stroke-width="2" stroke-linecap="round" stroke-linejoin="round" d="M37.454 30.5l-3.464-2"/></g><g clip-path="url(#clip1)"><path stroke="#FFB900" stroke-width="2" stroke-linecap="round" stroke-linejoin="round" d="M8.01 13.5l-3.464-2"/></g><g clip-path="url(#clip2)"><path stroke="#FFB900" stroke-width="2" stroke-linecap="round" stroke-linejoin="round" d="M30.5 37.454l-2-3.464"/></g><g clip-path="url(#clip3)"><path stroke="#FFB900" stroke-width="2" stroke-linecap="round" stroke-linejoin="round" d="M13.5 8.009l-2-3.464"/></g><path stroke="#FFB900" stroke-width="2" stroke-linecap="round" stroke-linejoin="round" d="M21 40v-4"/><g clip-path="url(#clip4)"><path stroke="#FFB900" stroke-width="2" stroke-linecap="round" stroke-linejoin="round" d="M21 6V2"/></g><g clip-path="url(#clip5)"><path stroke="#FFB900" stroke-width="2" stroke-linecap="round" stroke-linejoin="round" d="M11.5 37.454l2-3.464"/></g><g clip-path="url(#clip6)"><path stroke="#FFB900" stroke-width="2" stroke-linecap="round" stroke-linejoin="round" d="M28.5 8.009l2-3.464"/></g><g clip-path="url(#clip7)"><path stroke="#FFB900" stroke-width="2" stroke-linecap="round" stroke-linejoin="round" d="M4.546 30.5l3.464-2"/></g><g clip-path="url(#clip8)"><path stroke="#FFB900" stroke-width="2" stroke-linecap="round" stroke-linejoin="round" d="M33.99 13.5l3.464-2"/></g><defs><clipPath id="clip0"><rect x="33.258" y="25.768" width="8" height="4" rx="2" transform="rotate(30 33.258 25.768)" fill="#fff"/></clipPath><clipPath id="clip1"><rect x="3.813" y="8.768" width="8" height="4" rx="2" transform="rotate(30 3.813 8.768)" fill="#fff"/></clipPath><clipPath id="clip2"><rect x="29.232" y="31.258" width="8" height="4" rx="2" transform="rotate(60 29.232 31.258)" fill="#fff"/></clipPath><clipPath id="clip3"><rect x="12.232" y="1.813" width="8" height="4" rx="2" transform="rotate(60 12.232 1.813)" fill="#fff"/></clipPath><clipPath id="clip4"><rect x="23" width="8" height="4" rx="2" transform="rotate(90 23 0)" fill="#fff"/></clipPath><clipPath id="clip5"><rect x="16.232" y="33.258" width="8" height="4" rx="2" transform="rotate(120 16.232 33.258)" fill="#fff"/></clipPath><clipPath id="clip6"><rect x="33.232" y="3.813" width="8" height="4" rx="2" transform="rotate(120 33.232 3.813)" fill="#fff"/></clipPath><clipPath id="clip7"><rect x="10.742" y="29.232" width="8" height="4" rx="2" transform="rotate(150 10.742 29.232)" fill="#fff"/></clipPath><clipPath id="clip8"><rect x="40.187" y="12.232" width="8" height="4" rx="2" transform="rotate(150 40.187 12.232)" fill="#fff"/></clipPath></defs></svg>