<svg width="45" height="48" fill="none" xmlns="http://www.w3.org/2000/svg"><path fill-rule="evenodd" clip-rule="evenodd" d="M12.985 31c-.537.078-1.086.118-1.645.118C5.077 31.118 0 26.041 0 19.778c0-6.262 5.077-11.34 11.34-11.34.483 0 .959.03 1.425.09C14.427 3.57 19.108 0 24.624 0c6.906 0 12.504 5.598 12.504 12.504 0 .618-.044 1.225-.13 1.818A8.409 8.409 0 1134.993 31h-22.01z" fill="#fff"/><path d="M13.871 31.37c.276-.968 1.647-.968 1.923 0l.651 2.28a1 1 0 001.205.695l2.3-.577c.975-.244 1.66.943.961 1.666l-1.649 1.703a1 1 0 000 1.391l1.649 1.704c.7.723.014 1.91-.962 1.665l-2.3-.576a1 1 0 00-1.204.695l-.65 2.28c-.277.968-1.648.968-1.924 0l-.65-2.28a1 1 0 00-1.205-.695l-2.3.576c-.976.245-1.661-.942-.961-1.665l1.649-1.704a1 1 0 000-1.39l-1.65-1.704c-.7-.723-.014-1.91.962-1.666l2.3.577a1 1 0 001.205-.696l.65-2.28zm14-4c.276-.968 1.647-.968 1.923 0l.651 2.28a1 1 0 001.205.695l2.3-.577c.975-.244 1.66.943.961 1.666l-1.649 1.703a1 1 0 000 1.391l1.649 1.704c.7.723.014 1.91-.962 1.665l-2.3-.576a1 1 0 00-1.204.695l-.65 2.28c-.277.968-1.648.968-1.924 0l-.65-2.28a1 1 0 00-1.205-.695l-2.3.576c-.976.245-1.661-.942-.961-1.665l1.649-1.704a1 1 0 000-1.39l-1.65-1.704c-.7-.723-.014-1.91.962-1.666l2.3.577a1 1 0 001.205-.696l.65-2.28z" fill="#fff"/></svg>